<?xml version="1.0" standalone="no"?>
<!DOCTYPE svg PUBLIC "-//W3C//DTD SVG 1.1//EN" "http://www.w3.org/Graphics/SVG/1.1/DTD/svg11.dtd" >
<svg xmlns="http://www.w3.org/2000/svg" xmlns:xlink="http://www.w3.org/1999/xlink" version="1.1">
<metadata>
Created by Christoph Koeberlin (http://christoph.koe.berlin)
Copyright (c) 2017 Swiss Typefaces Sarl. All rights reserved.
</metadata>
<defs>
<font id="Font" horiz-adv-x="891" >
  <font-face 
    font-family="Font"
    font-weight="450"
    font-style="italic"
    font-stretch="normal"
    units-per-em="1000"
    panose-1="2 4 5 4 6 0 0 0 0 4"
    ascent="800"
    descent="-200"
    x-height="516"
    cap-height="758"
    bbox="-198 -267 1348 918"
    underline-thickness="63"
    underline-position="-130"
    slope="-17"
    unicode-range="U+0020-2022"
  />
<missing-glyph horiz-adv-x="640" 
d="M70 758h500v-758h-500v758zM320 396l217 343h-434zM89 30l221 349l-221 349v-698zM551 30v698l-220 -349zM537 19l-217 343l-217 -343h434z" />
    <glyph glyph-name="f_f.liga" unicode="ff" horiz-adv-x="668" 
d="M488 447h-230l-86 -378q-21 -95 -51 -158.5t-64.5 -102t-73 -55t-77.5 -16.5q-16 0 -32 4.5t-29 13t-21 20t-8 26.5q0 17 12 31.5t33 14.5q16 0 27.5 -10t22.5 -22.5t23.5 -22.5t29.5 -10q14 0 26 10t23.5 35.5t24 69.5t27.5 111l97 439h-98l6 25l104 31q13 37 27 66.5
t30.5 54.5t36 46.5t42.5 41.5q38 33 82.5 53t76.5 20q22 0 35 -11t13 -34q0 -20 -12.5 -38.5t-36.5 -18.5q-10 0 -21.5 3.5t-24 8t-27 8.5t-30.5 4q-15 0 -26 -6t-20 -20.5t-17 -39t-16 -61.5l-17 -78h231q28 81 62 139.5t81 99.5q38 32 82 52.5t76 20.5q22 0 35 -11t13 -34
q0 -20 -12.5 -38.5t-36.5 -18.5q-10 0 -21 3.5t-24 8t-27.5 8.5t-30.5 4q-14 0 -25.5 -6t-20.5 -20.5t-17 -39t-16 -61.5l-23 -107h146l-14 -55h-143l-75 -328q-21 -94 -51 -157.5t-64.5 -102t-73 -55t-77.5 -16.5q-16 0 -32 4.5t-29 13t-21 20t-8 26.5q0 17 12.5 31
t33.5 14q16 0 27.5 -10t22.5 -22t23 -22t30 -10q13 0 25 10t23.5 35.5t24 69.5t27.5 111z" />
    <glyph glyph-name="f_i.liga" unicode="fi" horiz-adv-x="639" 
d="M172 69q-21 -95 -51 -158.5t-64.5 -102t-73 -55t-77.5 -16.5q-16 0 -32 4.5t-29 13t-21 20t-8 26.5q0 17 12 31.5t33 14.5q16 0 27.5 -10t22.5 -22.5t23.5 -22.5t29.5 -10q14 0 26 10t23.5 35.5t24 69.5t27.5 111l97 439h-98l6 25l104 31q28 81 61.5 139.5t81.5 98.5
q37 32 80.5 52.5t75.5 20.5q22 0 35 -11t13 -34q0 -20 -12.5 -38.5t-36.5 -18.5q-10 0 -21 3.5t-23 8t-26.5 8.5t-30.5 4q-14 0 -25.5 -6t-20.5 -20.5t-17 -39t-16 -61.5l-23 -107h343l-154 -387q-12 -29 -14 -45t10 -16q10 0 27 11.5t36.5 31t40 45t38.5 53.5l28 -17
q-60 -94 -119.5 -142.5t-109.5 -48.5q-46 0 -55.5 28t13.5 86l139 346h-234zM628 651q-29 0 -50 20.5t-21 51.5q0 29 21 49.5t50 20.5q30 0 51 -20.5t21 -49.5q0 -31 -21 -51.5t-51 -20.5z" />
    <glyph glyph-name="f_f_i.liga" unicode="ffi" horiz-adv-x="965" 
d="M-94 -263q-16 0 -32 4.5t-29 13t-21 20t-8 26.5q0 17 12 31.5t33 14.5q16 0 27.5 -10t22.5 -22.5t23.5 -22.5t29.5 -10q14 0 26 10t23.5 35.5t24 69.5t27.5 111l97 439h-98l6 25l104 31q13 37 27 66.5t30.5 54.5t36 46.5t42.5 41.5q38 33 82.5 53t76.5 20q22 0 35 -11
t13 -34q0 -20 -12.5 -38.5t-36.5 -18.5q-10 0 -21.5 3.5t-24 8t-27 8.5t-30.5 4q-15 0 -26 -6t-20 -20.5t-17 -39t-16 -61.5l-17 -78h231q28 81 61.5 140t81.5 99q37 32 80.5 52.5t75.5 20.5q22 0 35 -11t13 -34q0 -20 -12.5 -38.5t-36.5 -18.5q-10 0 -21 3.5t-23 8
t-26.5 8.5t-30.5 4q-14 0 -25.5 -6t-20.5 -20.5t-17 -39t-16 -61.5l-23 -107h343l-154 -387q-12 -29 -14 -45t10 -16q10 0 27 11.5t36.5 31t40 45t38.5 53.5l28 -17q-60 -94 -119.5 -142.5t-109.5 -48.5q-46 0 -55.5 28t13.5 86l139 346h-234l-75 -328q-21 -94 -51 -157.5
t-64.5 -102t-73 -55t-77.5 -16.5q-16 0 -32 4.5t-29 13t-21 20t-8 26.5q0 17 12.5 31t33.5 14q16 0 27.5 -10t22.5 -22t23 -22t30 -10q13 0 25 10t23.5 35.5t24 69.5t27.5 111l86 388h-230l-86 -378q-21 -95 -51 -158.5t-64.5 -102t-73 -55t-77.5 -16.5zM954 651
q-29 0 -49.5 20.5t-20.5 51.5q0 29 20.5 49.5t49.5 20.5q31 0 51.5 -20.5t20.5 -49.5q0 -31 -20.5 -51.5t-51.5 -20.5z" />
    <glyph glyph-name="f_l.liga" unicode="fl" horiz-adv-x="639" 
d="M64 447l6 25l104 31q28 81 62 139t81 99q38 32 82 52.5t76 20.5q22 0 35 -11t13 -34q0 -20 -12.5 -38.5t-36.5 -18.5q-10 0 -21 3.5t-24 8t-27.5 8.5t-30.5 4q-14 0 -25.5 -6t-20.5 -20.5t-17 -39t-16 -61.5l-23 -107h146l-14 -55h-143l-86 -378q-21 -95 -51 -158.5
t-64.5 -102t-73 -55t-77.5 -16.5q-16 0 -32 4.5t-29 13t-21 20t-8 26.5q0 17 12 31.5t33 14.5q16 0 27.5 -10t22.5 -22.5t23.5 -22.5t29.5 -10q14 0 26 10t23.5 35.5t24 69.5t27.5 111l97 439h-98zM572 700q6 17 0.5 25.5t-29.5 11.5l-49 6l10 28l197 23l-237 -679
q-11 -30 -13.5 -45.5t9.5 -15.5q10 0 27 11.5t36.5 31t40 45t38.5 53.5l28 -17q-61 -94 -120 -142.5t-109 -48.5q-46 0 -52 28t15 88z" />
    <glyph glyph-name="f_f_l.liga" unicode="ffl" horiz-adv-x="965" 
d="M898 700q6 17 0.5 25.5t-29.5 11.5l-27 3q-5 -12 -16 -20t-26 -8q-10 0 -21 3.5t-24 8t-27.5 8.5t-30.5 4q-14 0 -25.5 -6t-20.5 -20.5t-17 -39t-16 -61.5l-23 -107h146l-14 -55h-143l-75 -328q-21 -94 -51 -157.5t-64.5 -102t-73 -55t-77.5 -16.5q-16 0 -32 4.5t-29 13
t-21 20t-8 26.5q0 17 12.5 31t33.5 14q16 0 27.5 -10t22.5 -22t23 -22t30 -10q13 0 25 10t23.5 35.5t24 69.5t27.5 111l86 388h-230l-86 -378q-21 -95 -51 -158.5t-64.5 -102t-73 -55t-77.5 -16.5q-16 0 -32 4.5t-29 13t-21 20t-8 26.5q0 17 12 31.5t33 14.5q16 0 27.5 -10
t22.5 -22.5t23.5 -22.5t29.5 -10q14 0 26 10t23.5 35.5t24 69.5t27.5 111l97 439h-98l6 25l104 31q13 37 27 66.5t30.5 54.5t36 46.5t42.5 41.5q38 33 82.5 53t76.5 20q22 0 35 -11t13 -34q0 -20 -12.5 -38.5t-36.5 -18.5q-10 0 -21.5 3.5t-24 8t-27 8.5t-30.5 4
q-15 0 -26 -6t-20 -20.5t-17 -39t-16 -61.5l-17 -78h231q28 81 62 139.5t81 99.5q38 32 82 52.5t76 20.5q20 0 33 -10t15 -31l178 21l-237 -679q-11 -30 -13.5 -45.5t9.5 -15.5q10 0 27 11.5t36.5 31t40 45t38.5 53.5l28 -17q-61 -94 -120 -142.5t-109 -48.5q-46 0 -52 28
t15 88z" />
    <glyph glyph-name=".notdef" horiz-adv-x="640" 
d="M70 758h500v-758h-500v758zM320 396l217 343h-434zM89 30l221 349l-221 349v-698zM551 30v698l-220 -349zM537 19l-217 343l-217 -343h434z" />
    <glyph glyph-name="glyph1" horiz-adv-x="0" 
 />
    <glyph glyph-name="glyph2" horiz-adv-x="268" 
 />
    <glyph glyph-name="space" unicode=" " horiz-adv-x="268" 
 />
    <glyph glyph-name="comma" unicode="," horiz-adv-x="294" 
d="M185 54q0 -34 -17 -67.5t-46 -63.5t-67 -55t-81 -43l-12 29q65 35 95.5 73t30.5 73q0 28 -19 45t-56 29q5 36 29 53t56 17q38 0 62.5 -24t24.5 -66z" />
    <glyph glyph-name="hyphen" unicode="-" horiz-adv-x="435" 
d="M86 296h294l-23 -67h-294z" />
    <glyph glyph-name="period" unicode="." horiz-adv-x="272" 
d="M88 -13q-32 0 -55 23t-23 58q0 16 6 30t16.5 24.5t25 16.5t30.5 6q34 0 57 -22.5t23 -54.5q0 -35 -23 -58t-57 -23z" />
    <glyph glyph-name="slash" unicode="/" horiz-adv-x="539" 
d="M584 806h78l-631 -858h-75z" />
    <glyph glyph-name="zero" unicode="0" horiz-adv-x="677" 
d="M265 -13q-48 0 -85 19t-62 52.5t-37.5 79t-12.5 98.5q0 55 16.5 116.5t46 121.5t70 115.5t87.5 97.5t99.5 67t106.5 25q48 0 85 -19t62 -52.5t37.5 -79t12.5 -98.5q0 -55 -16.5 -116.5t-46 -121.5t-70 -115.5t-87.5 -97.5t-99.5 -67t-106.5 -25zM270 27q41 0 80 27.5
t73.5 73.5t63 106t49 125t32 130.5t11.5 122.5q0 60 -20.5 93.5t-69.5 33.5q-41 0 -80 -27.5t-73.5 -73.5t-63 -106t-49 -125t-32 -130.5t-11.5 -122.5q0 -60 20.5 -93.5t69.5 -33.5z" />
    <glyph glyph-name="A" unicode="A" horiz-adv-x="768" 
d="M-92 31l45 7q14 2 25.5 8t23.5 17.5t27 31t37 48.5l489 646h36l31 -680q1 -19 2.5 -31.5t6.5 -20.5t14 -12t25 -7l41 -7l-9 -31h-285l9 31l46 7q14 2 22.5 5.5t13 9.5t5.5 15t0 24l-9 188h-274l-109 -145q-23 -30 -32.5 -48t-10 -28.5t7 -14.5t19.5 -6l42 -7l-9 -31h-239
zM502 332l-14 290l-219 -290h233z" />
    <glyph glyph-name="A" unicode="&#x104;" horiz-adv-x="768" 
d="M-92 31l45 7q14 2 25.5 8t23.5 17.5t27 31t37 48.5l489 646h36l31 -680q1 -19 2.5 -31.5t6.5 -20.5t14 -12t25 -7l41 -7l-9 -31h-285l9 31l46 7q14 2 22.5 5.5t13 9.5t5.5 15t0 24l-9 188h-274l-109 -145q-23 -30 -32.5 -48t-10 -28.5t7 -14.5t19.5 -6l42 -7l-9 -31h-239
zM502 332l-14 290l-219 -290h233z" />
    <glyph glyph-name="A" unicode="&#x102;" horiz-adv-x="768" 
d="M-92 31l45 7q14 2 25.5 8t23.5 17.5t27 31t37 48.5l489 646h36l31 -680q1 -19 2.5 -31.5t6.5 -20.5t14 -12t25 -7l41 -7l-9 -31h-285l9 31l46 7q14 2 22.5 5.5t13 9.5t5.5 15t0 24l-9 188h-274l-109 -145q-23 -30 -32.5 -48t-10 -28.5t7 -14.5t19.5 -6l42 -7l-9 -31h-239
zM502 332l-14 290l-219 -290h233z" />
    <glyph glyph-name="A" unicode="&#x100;" horiz-adv-x="768" 
d="M-92 31l45 7q14 2 25.5 8t23.5 17.5t27 31t37 48.5l489 646h36l31 -680q1 -19 2.5 -31.5t6.5 -20.5t14 -12t25 -7l41 -7l-9 -31h-285l9 31l46 7q14 2 22.5 5.5t13 9.5t5.5 15t0 24l-9 188h-274l-109 -145q-23 -30 -32.5 -48t-10 -28.5t7 -14.5t19.5 -6l42 -7l-9 -31h-239
zM502 332l-14 290l-219 -290h233z" />
    <glyph glyph-name="A" unicode="&#xc6;" horiz-adv-x="768" 
d="M-92 31l45 7q14 2 25.5 8t23.5 17.5t27 31t37 48.5l489 646h36l31 -680q1 -19 2.5 -31.5t6.5 -20.5t14 -12t25 -7l41 -7l-9 -31h-285l9 31l46 7q14 2 22.5 5.5t13 9.5t5.5 15t0 24l-9 188h-274l-109 -145q-23 -30 -32.5 -48t-10 -28.5t7 -14.5t19.5 -6l42 -7l-9 -31h-239
zM502 332l-14 290l-219 -290h233z" />
    <glyph glyph-name="A" unicode="&#xc5;" horiz-adv-x="768" 
d="M-92 31l45 7q14 2 25.5 8t23.5 17.5t27 31t37 48.5l489 646h36l31 -680q1 -19 2.5 -31.5t6.5 -20.5t14 -12t25 -7l41 -7l-9 -31h-285l9 31l46 7q14 2 22.5 5.5t13 9.5t5.5 15t0 24l-9 188h-274l-109 -145q-23 -30 -32.5 -48t-10 -28.5t7 -14.5t19.5 -6l42 -7l-9 -31h-239
zM502 332l-14 290l-219 -290h233z" />
    <glyph glyph-name="A" unicode="&#xc4;" horiz-adv-x="768" 
d="M-92 31l45 7q14 2 25.5 8t23.5 17.5t27 31t37 48.5l489 646h36l31 -680q1 -19 2.5 -31.5t6.5 -20.5t14 -12t25 -7l41 -7l-9 -31h-285l9 31l46 7q14 2 22.5 5.5t13 9.5t5.5 15t0 24l-9 188h-274l-109 -145q-23 -30 -32.5 -48t-10 -28.5t7 -14.5t19.5 -6l42 -7l-9 -31h-239
zM502 332l-14 290l-219 -290h233z" />
    <glyph glyph-name="A" unicode="&#xc3;" horiz-adv-x="768" 
d="M-92 31l45 7q14 2 25.5 8t23.5 17.5t27 31t37 48.5l489 646h36l31 -680q1 -19 2.5 -31.5t6.5 -20.5t14 -12t25 -7l41 -7l-9 -31h-285l9 31l46 7q14 2 22.5 5.5t13 9.5t5.5 15t0 24l-9 188h-274l-109 -145q-23 -30 -32.5 -48t-10 -28.5t7 -14.5t19.5 -6l42 -7l-9 -31h-239
zM502 332l-14 290l-219 -290h233z" />
    <glyph glyph-name="A" unicode="&#xc2;" horiz-adv-x="768" 
d="M-92 31l45 7q14 2 25.5 8t23.5 17.5t27 31t37 48.5l489 646h36l31 -680q1 -19 2.5 -31.5t6.5 -20.5t14 -12t25 -7l41 -7l-9 -31h-285l9 31l46 7q14 2 22.5 5.5t13 9.5t5.5 15t0 24l-9 188h-274l-109 -145q-23 -30 -32.5 -48t-10 -28.5t7 -14.5t19.5 -6l42 -7l-9 -31h-239
zM502 332l-14 290l-219 -290h233z" />
    <glyph glyph-name="A" unicode="&#xc1;" horiz-adv-x="768" 
d="M-92 31l45 7q14 2 25.5 8t23.5 17.5t27 31t37 48.5l489 646h36l31 -680q1 -19 2.5 -31.5t6.5 -20.5t14 -12t25 -7l41 -7l-9 -31h-285l9 31l46 7q14 2 22.5 5.5t13 9.5t5.5 15t0 24l-9 188h-274l-109 -145q-23 -30 -32.5 -48t-10 -28.5t7 -14.5t19.5 -6l42 -7l-9 -31h-239
zM502 332l-14 290l-219 -290h233z" />
    <glyph glyph-name="A" unicode="&#xc0;" horiz-adv-x="768" 
d="M-92 31l45 7q14 2 25.5 8t23.5 17.5t27 31t37 48.5l489 646h36l31 -680q1 -19 2.5 -31.5t6.5 -20.5t14 -12t25 -7l41 -7l-9 -31h-285l9 31l46 7q14 2 22.5 5.5t13 9.5t5.5 15t0 24l-9 188h-274l-109 -145q-23 -30 -32.5 -48t-10 -28.5t7 -14.5t19.5 -6l42 -7l-9 -31h-239
zM502 332l-14 290l-219 -290h233z" />
    <glyph glyph-name="B" unicode="B" horiz-adv-x="756" 
d="M508 758q129 0 190 -37.5t61 -101.5q0 -39 -16.5 -72.5t-47 -60t-73.5 -46t-96 -29.5v-1q31 -4 63.5 -16t59 -32t43 -49t16.5 -67q0 -45 -25.5 -89t-73 -79t-115.5 -56.5t-154 -21.5h-357l9 31l46 7q14 2 23.5 5t15.5 9t10.5 15.5t9.5 24.5l176 574q10 31 4.5 40
t-30.5 14l-41 7l9 31h293zM444 717q-32 0 -40 -4t-12 -18l-82 -269h109q60 0 102.5 16.5t68.5 43.5t38 61t12 69q0 45 -33 73t-109 28h-54zM297 383l-83 -272q-13 -42 0.5 -56.5t58.5 -14.5h59q55 0 100.5 14t78 41t50.5 67t18 92q0 29 -9.5 52.5t-30.5 40.5t-55.5 26.5
t-85.5 9.5h-101z" />
    <glyph glyph-name="C" unicode="C" horiz-adv-x="792" 
d="M408 -13q-69 0 -129.5 20t-104.5 59.5t-69.5 97.5t-25.5 133q0 66 21 128t58.5 115.5t89 97.5t111.5 75.5t126.5 48.5t134.5 17q58 0 116 -8t96 -23l-11 -187h-28l-31 99q-8 24 -21 38t-32 21.5t-42.5 10t-50.5 2.5q-76 0 -149.5 -31.5t-131 -90t-93 -142.5t-35.5 -188
q0 -64 17 -110.5t47.5 -77t73 -45t92.5 -14.5q33 0 58 5t46.5 16t42 28t46.5 41l97 89h28l-99 -179q-49 -17 -109.5 -31.5t-138.5 -14.5z" />
    <glyph glyph-name="C" unicode="&#x10c;" horiz-adv-x="792" 
d="M408 -13q-69 0 -129.5 20t-104.5 59.5t-69.5 97.5t-25.5 133q0 66 21 128t58.5 115.5t89 97.5t111.5 75.5t126.5 48.5t134.5 17q58 0 116 -8t96 -23l-11 -187h-28l-31 99q-8 24 -21 38t-32 21.5t-42.5 10t-50.5 2.5q-76 0 -149.5 -31.5t-131 -90t-93 -142.5t-35.5 -188
q0 -64 17 -110.5t47.5 -77t73 -45t92.5 -14.5q33 0 58 5t46.5 16t42 28t46.5 41l97 89h28l-99 -179q-49 -17 -109.5 -31.5t-138.5 -14.5z" />
    <glyph glyph-name="C" unicode="&#x10a;" horiz-adv-x="792" 
d="M408 -13q-69 0 -129.5 20t-104.5 59.5t-69.5 97.5t-25.5 133q0 66 21 128t58.5 115.5t89 97.5t111.5 75.5t126.5 48.5t134.5 17q58 0 116 -8t96 -23l-11 -187h-28l-31 99q-8 24 -21 38t-32 21.5t-42.5 10t-50.5 2.5q-76 0 -149.5 -31.5t-131 -90t-93 -142.5t-35.5 -188
q0 -64 17 -110.5t47.5 -77t73 -45t92.5 -14.5q33 0 58 5t46.5 16t42 28t46.5 41l97 89h28l-99 -179q-49 -17 -109.5 -31.5t-138.5 -14.5z" />
    <glyph glyph-name="C" unicode="&#x108;" horiz-adv-x="792" 
d="M408 -13q-69 0 -129.5 20t-104.5 59.5t-69.5 97.5t-25.5 133q0 66 21 128t58.5 115.5t89 97.5t111.5 75.5t126.5 48.5t134.5 17q58 0 116 -8t96 -23l-11 -187h-28l-31 99q-8 24 -21 38t-32 21.5t-42.5 10t-50.5 2.5q-76 0 -149.5 -31.5t-131 -90t-93 -142.5t-35.5 -188
q0 -64 17 -110.5t47.5 -77t73 -45t92.5 -14.5q33 0 58 5t46.5 16t42 28t46.5 41l97 89h28l-99 -179q-49 -17 -109.5 -31.5t-138.5 -14.5z" />
    <glyph glyph-name="C" unicode="&#x106;" horiz-adv-x="792" 
d="M408 -13q-69 0 -129.5 20t-104.5 59.5t-69.5 97.5t-25.5 133q0 66 21 128t58.5 115.5t89 97.5t111.5 75.5t126.5 48.5t134.5 17q58 0 116 -8t96 -23l-11 -187h-28l-31 99q-8 24 -21 38t-32 21.5t-42.5 10t-50.5 2.5q-76 0 -149.5 -31.5t-131 -90t-93 -142.5t-35.5 -188
q0 -64 17 -110.5t47.5 -77t73 -45t92.5 -14.5q33 0 58 5t46.5 16t42 28t46.5 41l97 89h28l-99 -179q-49 -17 -109.5 -31.5t-138.5 -14.5z" />
    <glyph glyph-name="C" unicode="&#xc7;" horiz-adv-x="792" 
d="M408 -13q-69 0 -129.5 20t-104.5 59.5t-69.5 97.5t-25.5 133q0 66 21 128t58.5 115.5t89 97.5t111.5 75.5t126.5 48.5t134.5 17q58 0 116 -8t96 -23l-11 -187h-28l-31 99q-8 24 -21 38t-32 21.5t-42.5 10t-50.5 2.5q-76 0 -149.5 -31.5t-131 -90t-93 -142.5t-35.5 -188
q0 -64 17 -110.5t47.5 -77t73 -45t92.5 -14.5q33 0 58 5t46.5 16t42 28t46.5 41l97 89h28l-99 -179q-49 -17 -109.5 -31.5t-138.5 -14.5z" />
    <glyph glyph-name="D" unicode="D" horiz-adv-x="869" 
d="M-8 31l46 7q14 2 23.5 5t15.5 9t10.5 15.5t9.5 24.5l176 574q10 31 4.5 40t-30.5 14l-41 7l9 31h279q88 0 158.5 -20.5t119.5 -58.5t75 -91t26 -118q0 -88 -41 -172.5t-117.5 -150.5t-184.5 -106.5t-242 -40.5h-305zM306 42q115 0 198.5 39t136.5 103t78.5 145.5
t25.5 165.5q0 115 -67.5 168t-200.5 53q-28 0 -44 -0.5t-24 -3t-11.5 -6.5t-5.5 -11l-178 -582q-7 -22 -7.5 -35.5t6.5 -21.5t22.5 -11t41.5 -3h29z" />
    <glyph glyph-name="D" unicode="&#x110;" horiz-adv-x="869" 
d="M-8 31l46 7q14 2 23.5 5t15.5 9t10.5 15.5t9.5 24.5l176 574q10 31 4.5 40t-30.5 14l-41 7l9 31h279q88 0 158.5 -20.5t119.5 -58.5t75 -91t26 -118q0 -88 -41 -172.5t-117.5 -150.5t-184.5 -106.5t-242 -40.5h-305zM306 42q115 0 198.5 39t136.5 103t78.5 145.5
t25.5 165.5q0 115 -67.5 168t-200.5 53q-28 0 -44 -0.5t-24 -3t-11.5 -6.5t-5.5 -11l-178 -582q-7 -22 -7.5 -35.5t6.5 -21.5t22.5 -11t41.5 -3h29z" />
    <glyph glyph-name="D" unicode="&#x10e;" horiz-adv-x="869" 
d="M-8 31l46 7q14 2 23.5 5t15.5 9t10.5 15.5t9.5 24.5l176 574q10 31 4.5 40t-30.5 14l-41 7l9 31h279q88 0 158.5 -20.5t119.5 -58.5t75 -91t26 -118q0 -88 -41 -172.5t-117.5 -150.5t-184.5 -106.5t-242 -40.5h-305zM306 42q115 0 198.5 39t136.5 103t78.5 145.5
t25.5 165.5q0 115 -67.5 168t-200.5 53q-28 0 -44 -0.5t-24 -3t-11.5 -6.5t-5.5 -11l-178 -582q-7 -22 -7.5 -35.5t6.5 -21.5t22.5 -11t41.5 -3h29z" />
    <glyph glyph-name="D" unicode="&#xd0;" horiz-adv-x="869" 
d="M-8 31l46 7q14 2 23.5 5t15.5 9t10.5 15.5t9.5 24.5l176 574q10 31 4.5 40t-30.5 14l-41 7l9 31h279q88 0 158.5 -20.5t119.5 -58.5t75 -91t26 -118q0 -88 -41 -172.5t-117.5 -150.5t-184.5 -106.5t-242 -40.5h-305zM306 42q115 0 198.5 39t136.5 103t78.5 145.5
t25.5 165.5q0 115 -67.5 168t-200.5 53q-28 0 -44 -0.5t-24 -3t-11.5 -6.5t-5.5 -11l-178 -582q-7 -22 -7.5 -35.5t6.5 -21.5t22.5 -11t41.5 -3h29z" />
    <glyph glyph-name="E" unicode="E" horiz-adv-x="734" 
d="M506 758l291 2l-47 -184h-28v46q0 33 -6.5 52t-26.5 28.5t-58.5 11.5t-102.5 2h-109q-21 0 -27 -20l-87 -286h145q21 0 37 1.5t29 8t25 21t26 40.5l21 40h27l-83 -271h-27l3 40q2 26 -1.5 40.5t-12.5 21t-23.5 8t-35.5 1.5h-145l-75 -245q-8 -26 -7 -41t10 -22.5t26.5 -9
t43.5 -1.5h45q67 0 109.5 3.5t71 13t49 26.5t44.5 44l63 72h27l-113 -201h-601l9 31l46 7q14 2 23.5 5t15.5 9t10.5 15.5t9.5 24.5l176 574q10 31 4.5 40t-30.5 14l-41 7l9 31h291z" />
    <glyph glyph-name="E" unicode="&#x11a;" horiz-adv-x="734" 
d="M506 758l291 2l-47 -184h-28v46q0 33 -6.5 52t-26.5 28.5t-58.5 11.5t-102.5 2h-109q-21 0 -27 -20l-87 -286h145q21 0 37 1.5t29 8t25 21t26 40.5l21 40h27l-83 -271h-27l3 40q2 26 -1.5 40.5t-12.5 21t-23.5 8t-35.5 1.5h-145l-75 -245q-8 -26 -7 -41t10 -22.5t26.5 -9
t43.5 -1.5h45q67 0 109.5 3.5t71 13t49 26.5t44.5 44l63 72h27l-113 -201h-601l9 31l46 7q14 2 23.5 5t15.5 9t10.5 15.5t9.5 24.5l176 574q10 31 4.5 40t-30.5 14l-41 7l9 31h291z" />
    <glyph glyph-name="E" unicode="&#x118;" horiz-adv-x="734" 
d="M506 758l291 2l-47 -184h-28v46q0 33 -6.5 52t-26.5 28.5t-58.5 11.5t-102.5 2h-109q-21 0 -27 -20l-87 -286h145q21 0 37 1.5t29 8t25 21t26 40.5l21 40h27l-83 -271h-27l3 40q2 26 -1.5 40.5t-12.5 21t-23.5 8t-35.5 1.5h-145l-75 -245q-8 -26 -7 -41t10 -22.5t26.5 -9
t43.5 -1.5h45q67 0 109.5 3.5t71 13t49 26.5t44.5 44l63 72h27l-113 -201h-601l9 31l46 7q14 2 23.5 5t15.5 9t10.5 15.5t9.5 24.5l176 574q10 31 4.5 40t-30.5 14l-41 7l9 31h291z" />
    <glyph glyph-name="E" unicode="&#x116;" horiz-adv-x="734" 
d="M506 758l291 2l-47 -184h-28v46q0 33 -6.5 52t-26.5 28.5t-58.5 11.5t-102.5 2h-109q-21 0 -27 -20l-87 -286h145q21 0 37 1.5t29 8t25 21t26 40.5l21 40h27l-83 -271h-27l3 40q2 26 -1.5 40.5t-12.5 21t-23.5 8t-35.5 1.5h-145l-75 -245q-8 -26 -7 -41t10 -22.5t26.5 -9
t43.5 -1.5h45q67 0 109.5 3.5t71 13t49 26.5t44.5 44l63 72h27l-113 -201h-601l9 31l46 7q14 2 23.5 5t15.5 9t10.5 15.5t9.5 24.5l176 574q10 31 4.5 40t-30.5 14l-41 7l9 31h291z" />
    <glyph glyph-name="E" unicode="&#x114;" horiz-adv-x="734" 
d="M506 758l291 2l-47 -184h-28v46q0 33 -6.5 52t-26.5 28.5t-58.5 11.5t-102.5 2h-109q-21 0 -27 -20l-87 -286h145q21 0 37 1.5t29 8t25 21t26 40.5l21 40h27l-83 -271h-27l3 40q2 26 -1.5 40.5t-12.5 21t-23.5 8t-35.5 1.5h-145l-75 -245q-8 -26 -7 -41t10 -22.5t26.5 -9
t43.5 -1.5h45q67 0 109.5 3.5t71 13t49 26.5t44.5 44l63 72h27l-113 -201h-601l9 31l46 7q14 2 23.5 5t15.5 9t10.5 15.5t9.5 24.5l176 574q10 31 4.5 40t-30.5 14l-41 7l9 31h291z" />
    <glyph glyph-name="E" unicode="&#x112;" horiz-adv-x="734" 
d="M506 758l291 2l-47 -184h-28v46q0 33 -6.5 52t-26.5 28.5t-58.5 11.5t-102.5 2h-109q-21 0 -27 -20l-87 -286h145q21 0 37 1.5t29 8t25 21t26 40.5l21 40h27l-83 -271h-27l3 40q2 26 -1.5 40.5t-12.5 21t-23.5 8t-35.5 1.5h-145l-75 -245q-8 -26 -7 -41t10 -22.5t26.5 -9
t43.5 -1.5h45q67 0 109.5 3.5t71 13t49 26.5t44.5 44l63 72h27l-113 -201h-601l9 31l46 7q14 2 23.5 5t15.5 9t10.5 15.5t9.5 24.5l176 574q10 31 4.5 40t-30.5 14l-41 7l9 31h291z" />
    <glyph glyph-name="E" unicode="&#xcb;" horiz-adv-x="734" 
d="M506 758l291 2l-47 -184h-28v46q0 33 -6.5 52t-26.5 28.5t-58.5 11.5t-102.5 2h-109q-21 0 -27 -20l-87 -286h145q21 0 37 1.5t29 8t25 21t26 40.5l21 40h27l-83 -271h-27l3 40q2 26 -1.5 40.5t-12.5 21t-23.5 8t-35.5 1.5h-145l-75 -245q-8 -26 -7 -41t10 -22.5t26.5 -9
t43.5 -1.5h45q67 0 109.5 3.5t71 13t49 26.5t44.5 44l63 72h27l-113 -201h-601l9 31l46 7q14 2 23.5 5t15.5 9t10.5 15.5t9.5 24.5l176 574q10 31 4.5 40t-30.5 14l-41 7l9 31h291z" />
    <glyph glyph-name="E" unicode="&#xca;" horiz-adv-x="734" 
d="M506 758l291 2l-47 -184h-28v46q0 33 -6.5 52t-26.5 28.5t-58.5 11.5t-102.5 2h-109q-21 0 -27 -20l-87 -286h145q21 0 37 1.5t29 8t25 21t26 40.5l21 40h27l-83 -271h-27l3 40q2 26 -1.5 40.5t-12.5 21t-23.5 8t-35.5 1.5h-145l-75 -245q-8 -26 -7 -41t10 -22.5t26.5 -9
t43.5 -1.5h45q67 0 109.5 3.5t71 13t49 26.5t44.5 44l63 72h27l-113 -201h-601l9 31l46 7q14 2 23.5 5t15.5 9t10.5 15.5t9.5 24.5l176 574q10 31 4.5 40t-30.5 14l-41 7l9 31h291z" />
    <glyph glyph-name="E" unicode="&#xc9;" horiz-adv-x="734" 
d="M506 758l291 2l-47 -184h-28v46q0 33 -6.5 52t-26.5 28.5t-58.5 11.5t-102.5 2h-109q-21 0 -27 -20l-87 -286h145q21 0 37 1.5t29 8t25 21t26 40.5l21 40h27l-83 -271h-27l3 40q2 26 -1.5 40.5t-12.5 21t-23.5 8t-35.5 1.5h-145l-75 -245q-8 -26 -7 -41t10 -22.5t26.5 -9
t43.5 -1.5h45q67 0 109.5 3.5t71 13t49 26.5t44.5 44l63 72h27l-113 -201h-601l9 31l46 7q14 2 23.5 5t15.5 9t10.5 15.5t9.5 24.5l176 574q10 31 4.5 40t-30.5 14l-41 7l9 31h291z" />
    <glyph glyph-name="E" unicode="&#xc8;" horiz-adv-x="734" 
d="M506 758l291 2l-47 -184h-28v46q0 33 -6.5 52t-26.5 28.5t-58.5 11.5t-102.5 2h-109q-21 0 -27 -20l-87 -286h145q21 0 37 1.5t29 8t25 21t26 40.5l21 40h27l-83 -271h-27l3 40q2 26 -1.5 40.5t-12.5 21t-23.5 8t-35.5 1.5h-145l-75 -245q-8 -26 -7 -41t10 -22.5t26.5 -9
t43.5 -1.5h45q67 0 109.5 3.5t71 13t49 26.5t44.5 44l63 72h27l-113 -201h-601l9 31l46 7q14 2 23.5 5t15.5 9t10.5 15.5t9.5 24.5l176 574q10 31 4.5 40t-30.5 14l-41 7l9 31h291z" />
    <glyph glyph-name="F" unicode="F" horiz-adv-x="707" 
d="M-8 31l46 7q14 2 23.5 5t15.5 9t10.5 15.5t9.5 24.5l176 574q10 31 4.5 40t-30.5 14l-41 7l9 31h315l291 2l-47 -184h-28l-1 46q-1 33 -7 52t-26.5 28.5t-58 11.5t-101.5 2h-133q-21 0 -27 -20l-87 -286h168q21 0 37 1.5t29 8t25 21t26 40.5l21 40h27l-83 -271h-27l3 40
q2 26 -1.5 40.5t-12 21t-23 8t-35.5 1.5h-169l-82 -270q-9 -30 -4.5 -39.5t30.5 -11.5l72 -7l-10 -33h-313z" />
    <glyph glyph-name="G" unicode="G" horiz-adv-x="855" 
d="M407 -13q-69 0 -129 20t-104 59.5t-69 97.5t-25 133q0 100 45.5 187.5t120.5 153t172 103.5t199 38q58 0 116 -8t96 -23l-11 -187h-28l-31 99q-8 24 -21.5 38t-32 21.5t-42 10t-50.5 2.5q-76 0 -149 -31.5t-130 -90t-91.5 -142.5t-34.5 -188q0 -64 16.5 -110.5t45.5 -77
t69 -45t87 -14.5q18 0 39 2.5t41 6.5t38.5 9.5t31.5 12.5l74 210q11 31 7 41.5t-30 12.5l-79 7l10 31h320l-12 -39l-88 -3l-74 -209l-16 -73q-29 -3 -60.5 -12t-66 -18.5t-73 -17t-81.5 -7.5z" />
    <glyph glyph-name="G" unicode="&#x122;" horiz-adv-x="855" 
d="M407 -13q-69 0 -129 20t-104 59.5t-69 97.5t-25 133q0 100 45.5 187.5t120.5 153t172 103.5t199 38q58 0 116 -8t96 -23l-11 -187h-28l-31 99q-8 24 -21.5 38t-32 21.5t-42 10t-50.5 2.5q-76 0 -149 -31.5t-130 -90t-91.5 -142.5t-34.5 -188q0 -64 16.5 -110.5t45.5 -77
t69 -45t87 -14.5q18 0 39 2.5t41 6.5t38.5 9.5t31.5 12.5l74 210q11 31 7 41.5t-30 12.5l-79 7l10 31h320l-12 -39l-88 -3l-74 -209l-16 -73q-29 -3 -60.5 -12t-66 -18.5t-73 -17t-81.5 -7.5z" />
    <glyph glyph-name="G" unicode="&#x120;" horiz-adv-x="855" 
d="M407 -13q-69 0 -129 20t-104 59.5t-69 97.5t-25 133q0 100 45.5 187.5t120.5 153t172 103.5t199 38q58 0 116 -8t96 -23l-11 -187h-28l-31 99q-8 24 -21.5 38t-32 21.5t-42 10t-50.5 2.5q-76 0 -149 -31.5t-130 -90t-91.5 -142.5t-34.5 -188q0 -64 16.5 -110.5t45.5 -77
t69 -45t87 -14.5q18 0 39 2.5t41 6.5t38.5 9.5t31.5 12.5l74 210q11 31 7 41.5t-30 12.5l-79 7l10 31h320l-12 -39l-88 -3l-74 -209l-16 -73q-29 -3 -60.5 -12t-66 -18.5t-73 -17t-81.5 -7.5z" />
    <glyph glyph-name="G" unicode="&#x11e;" horiz-adv-x="855" 
d="M407 -13q-69 0 -129 20t-104 59.5t-69 97.5t-25 133q0 100 45.5 187.5t120.5 153t172 103.5t199 38q58 0 116 -8t96 -23l-11 -187h-28l-31 99q-8 24 -21.5 38t-32 21.5t-42 10t-50.5 2.5q-76 0 -149 -31.5t-130 -90t-91.5 -142.5t-34.5 -188q0 -64 16.5 -110.5t45.5 -77
t69 -45t87 -14.5q18 0 39 2.5t41 6.5t38.5 9.5t31.5 12.5l74 210q11 31 7 41.5t-30 12.5l-79 7l10 31h320l-12 -39l-88 -3l-74 -209l-16 -73q-29 -3 -60.5 -12t-66 -18.5t-73 -17t-81.5 -7.5z" />
    <glyph glyph-name="G" unicode="&#x11c;" horiz-adv-x="855" 
d="M407 -13q-69 0 -129 20t-104 59.5t-69 97.5t-25 133q0 100 45.5 187.5t120.5 153t172 103.5t199 38q58 0 116 -8t96 -23l-11 -187h-28l-31 99q-8 24 -21.5 38t-32 21.5t-42 10t-50.5 2.5q-76 0 -149 -31.5t-130 -90t-91.5 -142.5t-34.5 -188q0 -64 16.5 -110.5t45.5 -77
t69 -45t87 -14.5q18 0 39 2.5t41 6.5t38.5 9.5t31.5 12.5l74 210q11 31 7 41.5t-30 12.5l-79 7l10 31h320l-12 -39l-88 -3l-74 -209l-16 -73q-29 -3 -60.5 -12t-66 -18.5t-73 -17t-81.5 -7.5z" />
    <glyph glyph-name="H" unicode="H" horiz-adv-x="909" 
d="M266 0h-283l9 31l46 7q14 2 23.5 5t15.5 9t10.5 15.5t9.5 24.5l176 574q10 31 4.5 40t-30.5 14l-41 7l9 31h283l-10 -31l-46 -7q-14 -2 -23 -5t-15.5 -8.5t-11 -15t-8.5 -24.5l-79 -257h396l79 256q10 31 4.5 40t-30.5 14l-41 7l9 31h283l-10 -31l-46 -7q-14 -2 -23 -5
t-15.5 -8.5t-11 -15t-8.5 -24.5l-176 -576q-9 -30 -4.5 -39.5t29.5 -13.5l42 -7l-9 -31h-283l9 31l46 7q14 2 23.5 5t15.5 9t10.5 15.5t9.5 24.5l82 268h-397l-81 -269q-9 -30 -4.5 -39.5t29.5 -13.5l42 -7z" />
    <glyph glyph-name="H" unicode="&#x126;" horiz-adv-x="909" 
d="M266 0h-283l9 31l46 7q14 2 23.5 5t15.5 9t10.5 15.5t9.5 24.5l176 574q10 31 4.5 40t-30.5 14l-41 7l9 31h283l-10 -31l-46 -7q-14 -2 -23 -5t-15.5 -8.5t-11 -15t-8.5 -24.5l-79 -257h396l79 256q10 31 4.5 40t-30.5 14l-41 7l9 31h283l-10 -31l-46 -7q-14 -2 -23 -5
t-15.5 -8.5t-11 -15t-8.5 -24.5l-176 -576q-9 -30 -4.5 -39.5t29.5 -13.5l42 -7l-9 -31h-283l9 31l46 7q14 2 23.5 5t15.5 9t10.5 15.5t9.5 24.5l82 268h-397l-81 -269q-9 -30 -4.5 -39.5t29.5 -13.5l42 -7z" />
    <glyph glyph-name="H" unicode="&#x124;" horiz-adv-x="909" 
d="M266 0h-283l9 31l46 7q14 2 23.5 5t15.5 9t10.5 15.5t9.5 24.5l176 574q10 31 4.5 40t-30.5 14l-41 7l9 31h283l-10 -31l-46 -7q-14 -2 -23 -5t-15.5 -8.5t-11 -15t-8.5 -24.5l-79 -257h396l79 256q10 31 4.5 40t-30.5 14l-41 7l9 31h283l-10 -31l-46 -7q-14 -2 -23 -5
t-15.5 -8.5t-11 -15t-8.5 -24.5l-176 -576q-9 -30 -4.5 -39.5t29.5 -13.5l42 -7l-9 -31h-283l9 31l46 7q14 2 23.5 5t15.5 9t10.5 15.5t9.5 24.5l82 268h-397l-81 -269q-9 -30 -4.5 -39.5t29.5 -13.5l42 -7z" />
    <glyph glyph-name="I" unicode="I" horiz-adv-x="402" 
d="M273 666q10 31 4.5 40t-30.5 14l-41 7l9 31h283l-10 -31l-46 -7q-14 -2 -23 -5t-15.5 -8.5t-11 -15t-8.5 -24.5l-176 -576q-9 -30 -4.5 -39.5t29.5 -13.5l42 -7l-9 -31h-283l9 31l46 7q14 2 23.5 5t15.5 9t10.5 15.5t9.5 24.5z" />
    <glyph glyph-name="I" unicode="&#x1eca;" horiz-adv-x="402" 
d="M273 666q10 31 4.5 40t-30.5 14l-41 7l9 31h283l-10 -31l-46 -7q-14 -2 -23 -5t-15.5 -8.5t-11 -15t-8.5 -24.5l-176 -576q-9 -30 -4.5 -39.5t29.5 -13.5l42 -7l-9 -31h-283l9 31l46 7q14 2 23.5 5t15.5 9t10.5 15.5t9.5 24.5z" />
    <glyph glyph-name="I" unicode="&#x130;" horiz-adv-x="402" 
d="M273 666q10 31 4.5 40t-30.5 14l-41 7l9 31h283l-10 -31l-46 -7q-14 -2 -23 -5t-15.5 -8.5t-11 -15t-8.5 -24.5l-176 -576q-9 -30 -4.5 -39.5t29.5 -13.5l42 -7l-9 -31h-283l9 31l46 7q14 2 23.5 5t15.5 9t10.5 15.5t9.5 24.5z" />
    <glyph glyph-name="I" unicode="&#x12e;" horiz-adv-x="402" 
d="M273 666q10 31 4.5 40t-30.5 14l-41 7l9 31h283l-10 -31l-46 -7q-14 -2 -23 -5t-15.5 -8.5t-11 -15t-8.5 -24.5l-176 -576q-9 -30 -4.5 -39.5t29.5 -13.5l42 -7l-9 -31h-283l9 31l46 7q14 2 23.5 5t15.5 9t10.5 15.5t9.5 24.5z" />
    <glyph glyph-name="I" unicode="&#x12c;" horiz-adv-x="402" 
d="M273 666q10 31 4.5 40t-30.5 14l-41 7l9 31h283l-10 -31l-46 -7q-14 -2 -23 -5t-15.5 -8.5t-11 -15t-8.5 -24.5l-176 -576q-9 -30 -4.5 -39.5t29.5 -13.5l42 -7l-9 -31h-283l9 31l46 7q14 2 23.5 5t15.5 9t10.5 15.5t9.5 24.5z" />
    <glyph glyph-name="I" unicode="&#x12a;" horiz-adv-x="402" 
d="M273 666q10 31 4.5 40t-30.5 14l-41 7l9 31h283l-10 -31l-46 -7q-14 -2 -23 -5t-15.5 -8.5t-11 -15t-8.5 -24.5l-176 -576q-9 -30 -4.5 -39.5t29.5 -13.5l42 -7l-9 -31h-283l9 31l46 7q14 2 23.5 5t15.5 9t10.5 15.5t9.5 24.5z" />
    <glyph glyph-name="I" unicode="&#x128;" horiz-adv-x="402" 
d="M273 666q10 31 4.5 40t-30.5 14l-41 7l9 31h283l-10 -31l-46 -7q-14 -2 -23 -5t-15.5 -8.5t-11 -15t-8.5 -24.5l-176 -576q-9 -30 -4.5 -39.5t29.5 -13.5l42 -7l-9 -31h-283l9 31l46 7q14 2 23.5 5t15.5 9t10.5 15.5t9.5 24.5z" />
    <glyph glyph-name="I" unicode="&#xcf;" horiz-adv-x="402" 
d="M273 666q10 31 4.5 40t-30.5 14l-41 7l9 31h283l-10 -31l-46 -7q-14 -2 -23 -5t-15.5 -8.5t-11 -15t-8.5 -24.5l-176 -576q-9 -30 -4.5 -39.5t29.5 -13.5l42 -7l-9 -31h-283l9 31l46 7q14 2 23.5 5t15.5 9t10.5 15.5t9.5 24.5z" />
    <glyph glyph-name="I" unicode="&#xce;" horiz-adv-x="402" 
d="M273 666q10 31 4.5 40t-30.5 14l-41 7l9 31h283l-10 -31l-46 -7q-14 -2 -23 -5t-15.5 -8.5t-11 -15t-8.5 -24.5l-176 -576q-9 -30 -4.5 -39.5t29.5 -13.5l42 -7l-9 -31h-283l9 31l46 7q14 2 23.5 5t15.5 9t10.5 15.5t9.5 24.5z" />
    <glyph glyph-name="I" unicode="&#xcd;" horiz-adv-x="402" 
d="M273 666q10 31 4.5 40t-30.5 14l-41 7l9 31h283l-10 -31l-46 -7q-14 -2 -23 -5t-15.5 -8.5t-11 -15t-8.5 -24.5l-176 -576q-9 -30 -4.5 -39.5t29.5 -13.5l42 -7l-9 -31h-283l9 31l46 7q14 2 23.5 5t15.5 9t10.5 15.5t9.5 24.5z" />
    <glyph glyph-name="I" unicode="&#xcc;" horiz-adv-x="402" 
d="M273 666q10 31 4.5 40t-30.5 14l-41 7l9 31h283l-10 -31l-46 -7q-14 -2 -23 -5t-15.5 -8.5t-11 -15t-8.5 -24.5l-176 -576q-9 -30 -4.5 -39.5t29.5 -13.5l42 -7l-9 -31h-283l9 31l46 7q14 2 23.5 5t15.5 9t10.5 15.5t9.5 24.5z" />
    <glyph glyph-name="J" unicode="J" horiz-adv-x="388" 
d="M247 211q-11 -37 -22.5 -66t-26 -52t-33 -42t-43.5 -37q-17 -12 -38.5 -26t-45.5 -29t-48.5 -30.5t-48.5 -28.5l-18 28q45 32 76.5 56.5t55 52t41.5 63.5t35 92l145 474q9 31 4 40t-30 14l-41 7l9 31h283l-10 -31l-46 -7q-14 -2 -23 -5t-15.5 -8.5t-11 -15t-8.5 -24.5z
" />
    <glyph glyph-name="J" unicode="&#x134;" horiz-adv-x="388" 
d="M247 211q-11 -37 -22.5 -66t-26 -52t-33 -42t-43.5 -37q-17 -12 -38.5 -26t-45.5 -29t-48.5 -30.5t-48.5 -28.5l-18 28q45 32 76.5 56.5t55 52t41.5 63.5t35 92l145 474q9 31 4 40t-30 14l-41 7l9 31h283l-10 -31l-46 -7q-14 -2 -23 -5t-15.5 -8.5t-11 -15t-8.5 -24.5z
" />
    <glyph glyph-name="K" unicode="K" horiz-adv-x="829" 
d="M291 363l-83 -272q-9 -30 -4.5 -39.5t29.5 -13.5l42 -7l-9 -31h-283l9 31l46 7q14 2 23.5 5t15.5 9t10.5 15.5t9.5 24.5l176 574q10 31 4.5 40t-30.5 14l-41 7l9 31h283l-10 -31l-46 -7q-14 -2 -23 -5t-15.5 -8.5t-11 -15t-8.5 -24.5l-85 -278l349 236q63 42 91.5 66.5
t2.5 28.5l-49 7l9 31h258l-10 -31l-49 -7q-15 -2 -31.5 -9t-38.5 -19t-50.5 -31l-67.5 -45l-310 -209l261 -323q15 -18 27 -29.5t38 -16.5l33 -7l-9 -31h-172z" />
    <glyph glyph-name="K" unicode="&#x136;" horiz-adv-x="829" 
d="M291 363l-83 -272q-9 -30 -4.5 -39.5t29.5 -13.5l42 -7l-9 -31h-283l9 31l46 7q14 2 23.5 5t15.5 9t10.5 15.5t9.5 24.5l176 574q10 31 4.5 40t-30.5 14l-41 7l9 31h283l-10 -31l-46 -7q-14 -2 -23 -5t-15.5 -8.5t-11 -15t-8.5 -24.5l-85 -278l349 236q63 42 91.5 66.5
t2.5 28.5l-49 7l9 31h258l-10 -31l-49 -7q-15 -2 -31.5 -9t-38.5 -19t-50.5 -31l-67.5 -45l-310 -209l261 -323q15 -18 27 -29.5t38 -16.5l33 -7l-9 -31h-172z" />
    <glyph glyph-name="L" unicode="L" horiz-adv-x="673" 
d="M215 117q-8 -27 -7.5 -42t10.5 -22.5t28 -9t45 -1.5h32q57 0 92 3.5t59 13.5t42.5 26.5t41.5 43.5l63 72h28l-114 -201h-552l9 31l46 7q14 2 23.5 5t15.5 9t10.5 15.5t9.5 24.5l176 574q10 31 4.5 40t-30.5 14l-41 7l9 31h283l-10 -31l-46 -7q-14 -2 -23 -5t-15.5 -8.5
t-11 -15t-8.5 -24.5z" />
    <glyph glyph-name="L" unicode="&#x141;" horiz-adv-x="673" 
d="M215 117q-8 -27 -7.5 -42t10.5 -22.5t28 -9t45 -1.5h32q57 0 92 3.5t59 13.5t42.5 26.5t41.5 43.5l63 72h28l-114 -201h-552l9 31l46 7q14 2 23.5 5t15.5 9t10.5 15.5t9.5 24.5l176 574q10 31 4.5 40t-30.5 14l-41 7l9 31h283l-10 -31l-46 -7q-14 -2 -23 -5t-15.5 -8.5
t-11 -15t-8.5 -24.5z" />
    <glyph glyph-name="L" unicode="&#x13f;" horiz-adv-x="673" 
d="M215 117q-8 -27 -7.5 -42t10.5 -22.5t28 -9t45 -1.5h32q57 0 92 3.5t59 13.5t42.5 26.5t41.5 43.5l63 72h28l-114 -201h-552l9 31l46 7q14 2 23.5 5t15.5 9t10.5 15.5t9.5 24.5l176 574q10 31 4.5 40t-30.5 14l-41 7l9 31h283l-10 -31l-46 -7q-14 -2 -23 -5t-15.5 -8.5
t-11 -15t-8.5 -24.5z" />
    <glyph glyph-name="L" unicode="&#x13d;" horiz-adv-x="673" 
d="M215 117q-8 -27 -7.5 -42t10.5 -22.5t28 -9t45 -1.5h32q57 0 92 3.5t59 13.5t42.5 26.5t41.5 43.5l63 72h28l-114 -201h-552l9 31l46 7q14 2 23.5 5t15.5 9t10.5 15.5t9.5 24.5l176 574q10 31 4.5 40t-30.5 14l-41 7l9 31h283l-10 -31l-46 -7q-14 -2 -23 -5t-15.5 -8.5
t-11 -15t-8.5 -24.5z" />
    <glyph glyph-name="L" unicode="&#x13b;" horiz-adv-x="673" 
d="M215 117q-8 -27 -7.5 -42t10.5 -22.5t28 -9t45 -1.5h32q57 0 92 3.5t59 13.5t42.5 26.5t41.5 43.5l63 72h28l-114 -201h-552l9 31l46 7q14 2 23.5 5t15.5 9t10.5 15.5t9.5 24.5l176 574q10 31 4.5 40t-30.5 14l-41 7l9 31h283l-10 -31l-46 -7q-14 -2 -23 -5t-15.5 -8.5
t-11 -15t-8.5 -24.5z" />
    <glyph glyph-name="L" unicode="&#x139;" horiz-adv-x="673" 
d="M215 117q-8 -27 -7.5 -42t10.5 -22.5t28 -9t45 -1.5h32q57 0 92 3.5t59 13.5t42.5 26.5t41.5 43.5l63 72h28l-114 -201h-552l9 31l46 7q14 2 23.5 5t15.5 9t10.5 15.5t9.5 24.5l176 574q10 31 4.5 40t-30.5 14l-41 7l9 31h283l-10 -31l-46 -7q-14 -2 -23 -5t-15.5 -8.5
t-11 -15t-8.5 -24.5z" />
    <glyph glyph-name="M" unicode="M" horiz-adv-x="1051" 
d="M323 638l-137 -410q-22 -66 -33.5 -103.5t-14 -56t3.5 -23.5t20 -7l41 -7l-9 -31h-228l10 31l45 7q15 2 25 7t21 23.5t25.5 56t37.5 103.5l154 439q11 30 4.5 39t-32.5 14l-41 7l10 31h190l83 -590l430 590h203l-9 -31l-46 -7q-14 -2 -24 -5t-17 -8.5t-11.5 -15
t-8.5 -24.5l-146 -576q-8 -30 -3.5 -39.5t30.5 -13.5l42 -7l-10 -31h-282l9 31l46 7q14 2 23 5t15.5 9t10.5 15.5t8 24.5l139 546l-469 -647h-14z" />
    <glyph glyph-name="N" unicode="N" horiz-adv-x="921" 
d="M316 607l-130 -424q-15 -50 -22 -78t-6.5 -42.5t7.5 -18.5t19 -6l43 -7l-10 -31h-227l9 31l46 7q14 2 23.5 6.5t19 18.5t20 42t25.5 78l128 419q19 62 -2 92t-64 33l9 31h147l357 -593l126 410q15 50 22 78t6.5 42t-7.5 18.5t-20 6.5l-42 7l9 31h228l-9 -31l-47 -7
q-14 -2 -23.5 -6.5t-18.5 -18.5t-19.5 -42t-25.5 -78l-177 -579h-30z" />
    <glyph glyph-name="N" unicode="&#x14a;" horiz-adv-x="921" 
d="M316 607l-130 -424q-15 -50 -22 -78t-6.5 -42.5t7.5 -18.5t19 -6l43 -7l-10 -31h-227l9 31l46 7q14 2 23.5 6.5t19 18.5t20 42t25.5 78l128 419q19 62 -2 92t-64 33l9 31h147l357 -593l126 410q15 50 22 78t6.5 42t-7.5 18.5t-20 6.5l-42 7l9 31h228l-9 -31l-47 -7
q-14 -2 -23.5 -6.5t-18.5 -18.5t-19.5 -42t-25.5 -78l-177 -579h-30z" />
    <glyph glyph-name="N" unicode="&#x147;" horiz-adv-x="921" 
d="M316 607l-130 -424q-15 -50 -22 -78t-6.5 -42.5t7.5 -18.5t19 -6l43 -7l-10 -31h-227l9 31l46 7q14 2 23.5 6.5t19 18.5t20 42t25.5 78l128 419q19 62 -2 92t-64 33l9 31h147l357 -593l126 410q15 50 22 78t6.5 42t-7.5 18.5t-20 6.5l-42 7l9 31h228l-9 -31l-47 -7
q-14 -2 -23.5 -6.5t-18.5 -18.5t-19.5 -42t-25.5 -78l-177 -579h-30z" />
    <glyph glyph-name="N" unicode="&#x145;" horiz-adv-x="921" 
d="M316 607l-130 -424q-15 -50 -22 -78t-6.5 -42.5t7.5 -18.5t19 -6l43 -7l-10 -31h-227l9 31l46 7q14 2 23.5 6.5t19 18.5t20 42t25.5 78l128 419q19 62 -2 92t-64 33l9 31h147l357 -593l126 410q15 50 22 78t6.5 42t-7.5 18.5t-20 6.5l-42 7l9 31h228l-9 -31l-47 -7
q-14 -2 -23.5 -6.5t-18.5 -18.5t-19.5 -42t-25.5 -78l-177 -579h-30z" />
    <glyph glyph-name="N" unicode="&#x143;" horiz-adv-x="921" 
d="M316 607l-130 -424q-15 -50 -22 -78t-6.5 -42.5t7.5 -18.5t19 -6l43 -7l-10 -31h-227l9 31l46 7q14 2 23.5 6.5t19 18.5t20 42t25.5 78l128 419q19 62 -2 92t-64 33l9 31h147l357 -593l126 410q15 50 22 78t6.5 42t-7.5 18.5t-20 6.5l-42 7l9 31h228l-9 -31l-47 -7
q-14 -2 -23.5 -6.5t-18.5 -18.5t-19.5 -42t-25.5 -78l-177 -579h-30z" />
    <glyph glyph-name="N" unicode="&#xd1;" horiz-adv-x="921" 
d="M316 607l-130 -424q-15 -50 -22 -78t-6.5 -42.5t7.5 -18.5t19 -6l43 -7l-10 -31h-227l9 31l46 7q14 2 23.5 6.5t19 18.5t20 42t25.5 78l128 419q19 62 -2 92t-64 33l9 31h147l357 -593l126 410q15 50 22 78t6.5 42t-7.5 18.5t-20 6.5l-42 7l9 31h228l-9 -31l-47 -7
q-14 -2 -23.5 -6.5t-18.5 -18.5t-19.5 -42t-25.5 -78l-177 -579h-30z" />
    <glyph glyph-name="O" unicode="O" 
d="M407 -13q-71 0 -130.5 23t-103 64.5t-67.5 99t-24 127.5q0 60 18 119t50.5 112t77.5 98.5t98.5 78.5t114.5 51.5t126 18.5q70 0 130 -23t103 -64.5t67.5 -99t24.5 -127.5q0 -60 -18 -119t-50.5 -112t-77.5 -98.5t-98.5 -78.5t-115 -51.5t-125.5 -18.5zM412 34
q59 0 108 21.5t88 57t68.5 82t49 97.5t29 102.5t9.5 97.5q0 63 -15.5 108.5t-42.5 74.5t-64 43t-81 14q-59 0 -107.5 -21.5t-87.5 -57t-68.5 -82t-49 -97.5t-29 -103t-9.5 -97q0 -63 15 -108.5t42 -74.5t64 -43t81 -14z" />
    <glyph glyph-name="O" unicode="&#x1ecc;" 
d="M407 -13q-71 0 -130.5 23t-103 64.5t-67.5 99t-24 127.5q0 60 18 119t50.5 112t77.5 98.5t98.5 78.5t114.5 51.5t126 18.5q70 0 130 -23t103 -64.5t67.5 -99t24.5 -127.5q0 -60 -18 -119t-50.5 -112t-77.5 -98.5t-98.5 -78.5t-115 -51.5t-125.5 -18.5zM412 34
q59 0 108 21.5t88 57t68.5 82t49 97.5t29 102.5t9.5 97.5q0 63 -15.5 108.5t-42.5 74.5t-64 43t-81 14q-59 0 -107.5 -21.5t-87.5 -57t-68.5 -82t-49 -97.5t-29 -103t-9.5 -97q0 -63 15 -108.5t42 -74.5t64 -43t81 -14z" />
    <glyph glyph-name="O" unicode="&#x152;" 
d="M407 -13q-71 0 -130.5 23t-103 64.5t-67.5 99t-24 127.5q0 60 18 119t50.5 112t77.5 98.5t98.5 78.5t114.5 51.5t126 18.5q70 0 130 -23t103 -64.5t67.5 -99t24.5 -127.5q0 -60 -18 -119t-50.5 -112t-77.5 -98.5t-98.5 -78.5t-115 -51.5t-125.5 -18.5zM412 34
q59 0 108 21.5t88 57t68.5 82t49 97.5t29 102.5t9.5 97.5q0 63 -15.5 108.5t-42.5 74.5t-64 43t-81 14q-59 0 -107.5 -21.5t-87.5 -57t-68.5 -82t-49 -97.5t-29 -103t-9.5 -97q0 -63 15 -108.5t42 -74.5t64 -43t81 -14z" />
    <glyph glyph-name="O" unicode="&#x150;" 
d="M407 -13q-71 0 -130.5 23t-103 64.5t-67.5 99t-24 127.5q0 60 18 119t50.5 112t77.5 98.5t98.5 78.5t114.5 51.5t126 18.5q70 0 130 -23t103 -64.5t67.5 -99t24.5 -127.5q0 -60 -18 -119t-50.5 -112t-77.5 -98.5t-98.5 -78.5t-115 -51.5t-125.5 -18.5zM412 34
q59 0 108 21.5t88 57t68.5 82t49 97.5t29 102.5t9.5 97.5q0 63 -15.5 108.5t-42.5 74.5t-64 43t-81 14q-59 0 -107.5 -21.5t-87.5 -57t-68.5 -82t-49 -97.5t-29 -103t-9.5 -97q0 -63 15 -108.5t42 -74.5t64 -43t81 -14z" />
    <glyph glyph-name="O" unicode="&#x14e;" 
d="M407 -13q-71 0 -130.5 23t-103 64.5t-67.5 99t-24 127.5q0 60 18 119t50.5 112t77.5 98.5t98.5 78.5t114.5 51.5t126 18.5q70 0 130 -23t103 -64.5t67.5 -99t24.5 -127.5q0 -60 -18 -119t-50.5 -112t-77.5 -98.5t-98.5 -78.5t-115 -51.5t-125.5 -18.5zM412 34
q59 0 108 21.5t88 57t68.5 82t49 97.5t29 102.5t9.5 97.5q0 63 -15.5 108.5t-42.5 74.5t-64 43t-81 14q-59 0 -107.5 -21.5t-87.5 -57t-68.5 -82t-49 -97.5t-29 -103t-9.5 -97q0 -63 15 -108.5t42 -74.5t64 -43t81 -14z" />
    <glyph glyph-name="O" unicode="&#x14c;" 
d="M407 -13q-71 0 -130.5 23t-103 64.5t-67.5 99t-24 127.5q0 60 18 119t50.5 112t77.5 98.5t98.5 78.5t114.5 51.5t126 18.5q70 0 130 -23t103 -64.5t67.5 -99t24.5 -127.5q0 -60 -18 -119t-50.5 -112t-77.5 -98.5t-98.5 -78.5t-115 -51.5t-125.5 -18.5zM412 34
q59 0 108 21.5t88 57t68.5 82t49 97.5t29 102.5t9.5 97.5q0 63 -15.5 108.5t-42.5 74.5t-64 43t-81 14q-59 0 -107.5 -21.5t-87.5 -57t-68.5 -82t-49 -97.5t-29 -103t-9.5 -97q0 -63 15 -108.5t42 -74.5t64 -43t81 -14z" />
    <glyph glyph-name="O" unicode="&#xd8;" 
d="M407 -13q-71 0 -130.5 23t-103 64.5t-67.5 99t-24 127.5q0 60 18 119t50.5 112t77.5 98.5t98.5 78.5t114.5 51.5t126 18.5q70 0 130 -23t103 -64.5t67.5 -99t24.5 -127.5q0 -60 -18 -119t-50.5 -112t-77.5 -98.5t-98.5 -78.5t-115 -51.5t-125.5 -18.5zM412 34
q59 0 108 21.5t88 57t68.5 82t49 97.5t29 102.5t9.5 97.5q0 63 -15.5 108.5t-42.5 74.5t-64 43t-81 14q-59 0 -107.5 -21.5t-87.5 -57t-68.5 -82t-49 -97.5t-29 -103t-9.5 -97q0 -63 15 -108.5t42 -74.5t64 -43t81 -14z" />
    <glyph glyph-name="O" unicode="&#xd6;" 
d="M407 -13q-71 0 -130.5 23t-103 64.5t-67.5 99t-24 127.5q0 60 18 119t50.5 112t77.5 98.5t98.5 78.5t114.5 51.5t126 18.5q70 0 130 -23t103 -64.5t67.5 -99t24.5 -127.5q0 -60 -18 -119t-50.5 -112t-77.5 -98.5t-98.5 -78.5t-115 -51.5t-125.5 -18.5zM412 34
q59 0 108 21.5t88 57t68.5 82t49 97.5t29 102.5t9.5 97.5q0 63 -15.5 108.5t-42.5 74.5t-64 43t-81 14q-59 0 -107.5 -21.5t-87.5 -57t-68.5 -82t-49 -97.5t-29 -103t-9.5 -97q0 -63 15 -108.5t42 -74.5t64 -43t81 -14z" />
    <glyph glyph-name="O" unicode="&#xd5;" 
d="M407 -13q-71 0 -130.5 23t-103 64.5t-67.5 99t-24 127.5q0 60 18 119t50.5 112t77.5 98.5t98.5 78.5t114.5 51.5t126 18.5q70 0 130 -23t103 -64.5t67.5 -99t24.5 -127.5q0 -60 -18 -119t-50.5 -112t-77.5 -98.5t-98.5 -78.5t-115 -51.5t-125.5 -18.5zM412 34
q59 0 108 21.5t88 57t68.5 82t49 97.5t29 102.5t9.5 97.5q0 63 -15.5 108.5t-42.5 74.5t-64 43t-81 14q-59 0 -107.5 -21.5t-87.5 -57t-68.5 -82t-49 -97.5t-29 -103t-9.5 -97q0 -63 15 -108.5t42 -74.5t64 -43t81 -14z" />
    <glyph glyph-name="O" unicode="&#xd4;" 
d="M407 -13q-71 0 -130.5 23t-103 64.5t-67.5 99t-24 127.5q0 60 18 119t50.5 112t77.5 98.5t98.5 78.5t114.5 51.5t126 18.5q70 0 130 -23t103 -64.5t67.5 -99t24.5 -127.5q0 -60 -18 -119t-50.5 -112t-77.5 -98.5t-98.5 -78.5t-115 -51.5t-125.5 -18.5zM412 34
q59 0 108 21.5t88 57t68.5 82t49 97.5t29 102.5t9.5 97.5q0 63 -15.5 108.5t-42.5 74.5t-64 43t-81 14q-59 0 -107.5 -21.5t-87.5 -57t-68.5 -82t-49 -97.5t-29 -103t-9.5 -97q0 -63 15 -108.5t42 -74.5t64 -43t81 -14z" />
    <glyph glyph-name="O" unicode="&#xd3;" 
d="M407 -13q-71 0 -130.5 23t-103 64.5t-67.5 99t-24 127.5q0 60 18 119t50.5 112t77.5 98.5t98.5 78.5t114.5 51.5t126 18.5q70 0 130 -23t103 -64.5t67.5 -99t24.5 -127.5q0 -60 -18 -119t-50.5 -112t-77.5 -98.5t-98.5 -78.5t-115 -51.5t-125.5 -18.5zM412 34
q59 0 108 21.5t88 57t68.5 82t49 97.5t29 102.5t9.5 97.5q0 63 -15.5 108.5t-42.5 74.5t-64 43t-81 14q-59 0 -107.5 -21.5t-87.5 -57t-68.5 -82t-49 -97.5t-29 -103t-9.5 -97q0 -63 15 -108.5t42 -74.5t64 -43t81 -14z" />
    <glyph glyph-name="O" unicode="&#xd2;" 
d="M407 -13q-71 0 -130.5 23t-103 64.5t-67.5 99t-24 127.5q0 60 18 119t50.5 112t77.5 98.5t98.5 78.5t114.5 51.5t126 18.5q70 0 130 -23t103 -64.5t67.5 -99t24.5 -127.5q0 -60 -18 -119t-50.5 -112t-77.5 -98.5t-98.5 -78.5t-115 -51.5t-125.5 -18.5zM412 34
q59 0 108 21.5t88 57t68.5 82t49 97.5t29 102.5t9.5 97.5q0 63 -15.5 108.5t-42.5 74.5t-64 43t-81 14q-59 0 -107.5 -21.5t-87.5 -57t-68.5 -82t-49 -97.5t-29 -103t-9.5 -97q0 -63 15 -108.5t42 -74.5t64 -43t81 -14z" />
    <glyph glyph-name="P" unicode="P" horiz-adv-x="722" 
d="M-8 31l46 7q14 2 23.5 5t15.5 9t10.5 15.5t9.5 24.5l176 574q10 31 4.5 40t-30.5 14l-41 7l9 31h322q52 0 97.5 -9t80 -29.5t54.5 -52.5t20 -77q0 -48 -22 -92.5t-67 -79.5t-113 -56t-160 -21h-143l-76 -250q-9 -30 -4.5 -39.5t30.5 -11.5l72 -7l-10 -33h-313zM296 378
h133q63 0 107 19t71.5 49.5t40.5 68t13 74.5q0 129 -151 129h-60q-32 0 -43 -4t-15 -20z" />
    <glyph glyph-name="P" unicode="&#xde;" horiz-adv-x="722" 
d="M-8 31l46 7q14 2 23.5 5t15.5 9t10.5 15.5t9.5 24.5l176 574q10 31 4.5 40t-30.5 14l-41 7l9 31h322q52 0 97.5 -9t80 -29.5t54.5 -52.5t20 -77q0 -48 -22 -92.5t-67 -79.5t-113 -56t-160 -21h-143l-76 -250q-9 -30 -4.5 -39.5t30.5 -11.5l72 -7l-10 -33h-313zM296 378
h133q63 0 107 19t71.5 49.5t40.5 68t13 74.5q0 129 -151 129h-60q-32 0 -43 -4t-15 -20z" />
    <glyph glyph-name="Q" unicode="Q" 
d="M407 -13h-9.5t-9.5 1l-187 -70q23 5 40 6t37 1q52 0 95 -5.5t81 -12.5t73 -12.5t73 -5.5q24 0 42 4t32 12.5t25 22.5t21 35l27 -9q-29 -78 -68.5 -119.5t-98.5 -41.5q-42 0 -88.5 16.5t-93 36.5t-91.5 36.5t-84 16.5q-28 0 -49 -10q-2 -38 -14 -55.5t-31 -17.5
q-15 0 -26 11.5t-11 29.5q0 8 2.5 17.5t10.5 20t23 21t41 19.5l161 60q-56 11 -101.5 37.5t-78 66.5t-50.5 91t-18 111t18 119t50.5 112t77.5 98.5t98.5 78.5t114.5 51.5t126 18.5q70 0 130 -23t103 -64.5t67.5 -99t24.5 -127.5q0 -60 -18 -119t-50.5 -112t-77.5 -98.5
t-98.5 -78.5t-115 -51.5t-125.5 -18.5zM412 34q59 0 108 21.5t88 57t68.5 82t49 97.5t29 102.5t9.5 97.5q0 63 -15.5 108.5t-42.5 74.5t-64 43t-81 14q-59 0 -107.5 -21.5t-87.5 -57t-68.5 -82t-49 -97.5t-29 -103t-9.5 -97q0 -63 15 -108.5t42 -74.5t64 -43t81 -14z" />
    <glyph glyph-name="R" unicode="R" horiz-adv-x="797" 
d="M652 -12q-36 0 -63.5 10t-44.5 34.5t-22.5 64.5t3.5 100q8 53 0.5 86.5t-25 52t-43 25t-52.5 6.5h-113l-84 -276q-9 -30 -4.5 -39.5t29.5 -13.5l42 -7l-9 -31h-283l9 31l46 7q14 2 23.5 5t15.5 9t10.5 15.5t9.5 24.5l176 574q10 31 4.5 40t-30.5 14l-41 7l9 31h312
q123 0 192 -35.5t69 -115.5q0 -38 -17 -74t-52 -65.5t-88 -49.5t-125 -26l-1 -2q32 -2 60.5 -12t49.5 -30t31.5 -51t5.5 -75l-6 -54q-5 -45 -2 -72.5t15 -42.5t32 -19.5t50 -4.5l-8 -28q-22 -6 -41.5 -9.5t-39.5 -3.5zM304 407q12 -1 43 -1.5t64 -0.5q70 0 118 19.5t78 48.5
t43.5 63.5t13.5 63.5q0 28 -8 50t-26.5 37t-49.5 23t-77 8h-53q-17 0 -27.5 -1t-16.5 -3.5t-9 -7t-5 -11.5z" />
    <glyph glyph-name="R" unicode="&#x158;" horiz-adv-x="797" 
d="M652 -12q-36 0 -63.5 10t-44.5 34.5t-22.5 64.5t3.5 100q8 53 0.5 86.5t-25 52t-43 25t-52.5 6.5h-113l-84 -276q-9 -30 -4.5 -39.5t29.5 -13.5l42 -7l-9 -31h-283l9 31l46 7q14 2 23.5 5t15.5 9t10.5 15.5t9.5 24.5l176 574q10 31 4.5 40t-30.5 14l-41 7l9 31h312
q123 0 192 -35.5t69 -115.5q0 -38 -17 -74t-52 -65.5t-88 -49.5t-125 -26l-1 -2q32 -2 60.5 -12t49.5 -30t31.5 -51t5.5 -75l-6 -54q-5 -45 -2 -72.5t15 -42.5t32 -19.5t50 -4.5l-8 -28q-22 -6 -41.5 -9.5t-39.5 -3.5zM304 407q12 -1 43 -1.5t64 -0.5q70 0 118 19.5t78 48.5
t43.5 63.5t13.5 63.5q0 28 -8 50t-26.5 37t-49.5 23t-77 8h-53q-17 0 -27.5 -1t-16.5 -3.5t-9 -7t-5 -11.5z" />
    <glyph glyph-name="R" unicode="&#x156;" horiz-adv-x="797" 
d="M652 -12q-36 0 -63.5 10t-44.5 34.5t-22.5 64.5t3.5 100q8 53 0.5 86.5t-25 52t-43 25t-52.5 6.5h-113l-84 -276q-9 -30 -4.5 -39.5t29.5 -13.5l42 -7l-9 -31h-283l9 31l46 7q14 2 23.5 5t15.5 9t10.5 15.5t9.5 24.5l176 574q10 31 4.5 40t-30.5 14l-41 7l9 31h312
q123 0 192 -35.5t69 -115.5q0 -38 -17 -74t-52 -65.5t-88 -49.5t-125 -26l-1 -2q32 -2 60.5 -12t49.5 -30t31.5 -51t5.5 -75l-6 -54q-5 -45 -2 -72.5t15 -42.5t32 -19.5t50 -4.5l-8 -28q-22 -6 -41.5 -9.5t-39.5 -3.5zM304 407q12 -1 43 -1.5t64 -0.5q70 0 118 19.5t78 48.5
t43.5 63.5t13.5 63.5q0 28 -8 50t-26.5 37t-49.5 23t-77 8h-53q-17 0 -27.5 -1t-16.5 -3.5t-9 -7t-5 -11.5z" />
    <glyph glyph-name="R" unicode="&#x154;" horiz-adv-x="797" 
d="M652 -12q-36 0 -63.5 10t-44.5 34.5t-22.5 64.5t3.5 100q8 53 0.5 86.5t-25 52t-43 25t-52.5 6.5h-113l-84 -276q-9 -30 -4.5 -39.5t29.5 -13.5l42 -7l-9 -31h-283l9 31l46 7q14 2 23.5 5t15.5 9t10.5 15.5t9.5 24.5l176 574q10 31 4.5 40t-30.5 14l-41 7l9 31h312
q123 0 192 -35.5t69 -115.5q0 -38 -17 -74t-52 -65.5t-88 -49.5t-125 -26l-1 -2q32 -2 60.5 -12t49.5 -30t31.5 -51t5.5 -75l-6 -54q-5 -45 -2 -72.5t15 -42.5t32 -19.5t50 -4.5l-8 -28q-22 -6 -41.5 -9.5t-39.5 -3.5zM304 407q12 -1 43 -1.5t64 -0.5q70 0 118 19.5t78 48.5
t43.5 63.5t13.5 63.5q0 28 -8 50t-26.5 37t-49.5 23t-77 8h-53q-17 0 -27.5 -1t-16.5 -3.5t-9 -7t-5 -11.5z" />
    <glyph glyph-name="S" unicode="S" horiz-adv-x="628" 
d="M211 -13q-29 0 -57.5 5t-55.5 12.5t-50 17t-40 18.5l41 218h28l22 -153q2 -14 7 -26.5t16 -20.5q17 -14 46.5 -19.5t66.5 -5.5q39 0 75.5 11t64 32t44.5 51t17 68t-17 68.5t-61 70.5l-73 66q-42 38 -61 75.5t-19 79.5q0 45 21.5 85.5t62 71t98 49t129.5 18.5
q58 0 103.5 -8.5t78.5 -19.5l-42 -183h-28l-16 103q-4 23 -12.5 33.5t-26.5 17.5q-14 5 -36 8t-44 3q-41 0 -74.5 -10.5t-57 -28.5t-36.5 -43t-13 -55q0 -28 13 -55t42 -53l73 -65q24 -22 44 -42.5t34.5 -43t22 -48t7.5 -58.5q0 -49 -24.5 -93.5t-69 -78t-106.5 -53
t-137 -19.5z" />
    <glyph glyph-name="S" unicode="&#x218;" horiz-adv-x="628" 
d="M211 -13q-29 0 -57.5 5t-55.5 12.5t-50 17t-40 18.5l41 218h28l22 -153q2 -14 7 -26.5t16 -20.5q17 -14 46.5 -19.5t66.5 -5.5q39 0 75.5 11t64 32t44.5 51t17 68t-17 68.5t-61 70.5l-73 66q-42 38 -61 75.5t-19 79.5q0 45 21.5 85.5t62 71t98 49t129.5 18.5
q58 0 103.5 -8.5t78.5 -19.5l-42 -183h-28l-16 103q-4 23 -12.5 33.5t-26.5 17.5q-14 5 -36 8t-44 3q-41 0 -74.5 -10.5t-57 -28.5t-36.5 -43t-13 -55q0 -28 13 -55t42 -53l73 -65q24 -22 44 -42.5t34.5 -43t22 -48t7.5 -58.5q0 -49 -24.5 -93.5t-69 -78t-106.5 -53
t-137 -19.5z" />
    <glyph glyph-name="S" unicode="&#x160;" horiz-adv-x="628" 
d="M211 -13q-29 0 -57.5 5t-55.5 12.5t-50 17t-40 18.5l41 218h28l22 -153q2 -14 7 -26.5t16 -20.5q17 -14 46.5 -19.5t66.5 -5.5q39 0 75.5 11t64 32t44.5 51t17 68t-17 68.5t-61 70.5l-73 66q-42 38 -61 75.5t-19 79.5q0 45 21.5 85.5t62 71t98 49t129.5 18.5
q58 0 103.5 -8.5t78.5 -19.5l-42 -183h-28l-16 103q-4 23 -12.5 33.5t-26.5 17.5q-14 5 -36 8t-44 3q-41 0 -74.5 -10.5t-57 -28.5t-36.5 -43t-13 -55q0 -28 13 -55t42 -53l73 -65q24 -22 44 -42.5t34.5 -43t22 -48t7.5 -58.5q0 -49 -24.5 -93.5t-69 -78t-106.5 -53
t-137 -19.5z" />
    <glyph glyph-name="S" unicode="&#x15e;" horiz-adv-x="628" 
d="M211 -13q-29 0 -57.5 5t-55.5 12.5t-50 17t-40 18.5l41 218h28l22 -153q2 -14 7 -26.5t16 -20.5q17 -14 46.5 -19.5t66.5 -5.5q39 0 75.5 11t64 32t44.5 51t17 68t-17 68.5t-61 70.5l-73 66q-42 38 -61 75.5t-19 79.5q0 45 21.5 85.5t62 71t98 49t129.5 18.5
q58 0 103.5 -8.5t78.5 -19.5l-42 -183h-28l-16 103q-4 23 -12.5 33.5t-26.5 17.5q-14 5 -36 8t-44 3q-41 0 -74.5 -10.5t-57 -28.5t-36.5 -43t-13 -55q0 -28 13 -55t42 -53l73 -65q24 -22 44 -42.5t34.5 -43t22 -48t7.5 -58.5q0 -49 -24.5 -93.5t-69 -78t-106.5 -53
t-137 -19.5z" />
    <glyph glyph-name="S" unicode="&#x15c;" horiz-adv-x="628" 
d="M211 -13q-29 0 -57.5 5t-55.5 12.5t-50 17t-40 18.5l41 218h28l22 -153q2 -14 7 -26.5t16 -20.5q17 -14 46.5 -19.5t66.5 -5.5q39 0 75.5 11t64 32t44.5 51t17 68t-17 68.5t-61 70.5l-73 66q-42 38 -61 75.5t-19 79.5q0 45 21.5 85.5t62 71t98 49t129.5 18.5
q58 0 103.5 -8.5t78.5 -19.5l-42 -183h-28l-16 103q-4 23 -12.5 33.5t-26.5 17.5q-14 5 -36 8t-44 3q-41 0 -74.5 -10.5t-57 -28.5t-36.5 -43t-13 -55q0 -28 13 -55t42 -53l73 -65q24 -22 44 -42.5t34.5 -43t22 -48t7.5 -58.5q0 -49 -24.5 -93.5t-69 -78t-106.5 -53
t-137 -19.5z" />
    <glyph glyph-name="S" unicode="&#x15a;" horiz-adv-x="628" 
d="M211 -13q-29 0 -57.5 5t-55.5 12.5t-50 17t-40 18.5l41 218h28l22 -153q2 -14 7 -26.5t16 -20.5q17 -14 46.5 -19.5t66.5 -5.5q39 0 75.5 11t64 32t44.5 51t17 68t-17 68.5t-61 70.5l-73 66q-42 38 -61 75.5t-19 79.5q0 45 21.5 85.5t62 71t98 49t129.5 18.5
q58 0 103.5 -8.5t78.5 -19.5l-42 -183h-28l-16 103q-4 23 -12.5 33.5t-26.5 17.5q-14 5 -36 8t-44 3q-41 0 -74.5 -10.5t-57 -28.5t-36.5 -43t-13 -55q0 -28 13 -55t42 -53l73 -65q24 -22 44 -42.5t34.5 -43t22 -48t7.5 -58.5q0 -49 -24.5 -93.5t-69 -78t-106.5 -53
t-137 -19.5z" />
    <glyph glyph-name="T" unicode="T" horiz-adv-x="743" 
d="M134 33l76 7q27 2 38 11.5t20 39.5l191 625h-28q-64 0 -105 -2t-69 -11.5t-47 -28t-39 -51.5l-29 -47h-28l65 184l284 -2h129l284 2l-47 -184h-27l-1 47q-1 33 -8.5 51.5t-29.5 28t-61 11.5t-103 2h-29l-191 -625q-9 -30 -4.5 -39.5t30.5 -11.5l72 -7l-10 -33h-343z" />
    <glyph glyph-name="T" unicode="&#x21a;" horiz-adv-x="743" 
d="M134 33l76 7q27 2 38 11.5t20 39.5l191 625h-28q-64 0 -105 -2t-69 -11.5t-47 -28t-39 -51.5l-29 -47h-28l65 184l284 -2h129l284 2l-47 -184h-27l-1 47q-1 33 -8.5 51.5t-29.5 28t-61 11.5t-103 2h-29l-191 -625q-9 -30 -4.5 -39.5t30.5 -11.5l72 -7l-10 -33h-343z" />
    <glyph glyph-name="T" unicode="&#x166;" horiz-adv-x="743" 
d="M134 33l76 7q27 2 38 11.5t20 39.5l191 625h-28q-64 0 -105 -2t-69 -11.5t-47 -28t-39 -51.5l-29 -47h-28l65 184l284 -2h129l284 2l-47 -184h-27l-1 47q-1 33 -8.5 51.5t-29.5 28t-61 11.5t-103 2h-29l-191 -625q-9 -30 -4.5 -39.5t30.5 -11.5l72 -7l-10 -33h-343z" />
    <glyph glyph-name="T" unicode="&#x164;" horiz-adv-x="743" 
d="M134 33l76 7q27 2 38 11.5t20 39.5l191 625h-28q-64 0 -105 -2t-69 -11.5t-47 -28t-39 -51.5l-29 -47h-28l65 184l284 -2h129l284 2l-47 -184h-27l-1 47q-1 33 -8.5 51.5t-29.5 28t-61 11.5t-103 2h-29l-191 -625q-9 -30 -4.5 -39.5t30.5 -11.5l72 -7l-10 -33h-343z" />
    <glyph glyph-name="T" unicode="&#x162;" horiz-adv-x="743" 
d="M134 33l76 7q27 2 38 11.5t20 39.5l191 625h-28q-64 0 -105 -2t-69 -11.5t-47 -28t-39 -51.5l-29 -47h-28l65 184l284 -2h129l284 2l-47 -184h-27l-1 47q-1 33 -8.5 51.5t-29.5 28t-61 11.5t-103 2h-29l-191 -625q-9 -30 -4.5 -39.5t30.5 -11.5l72 -7l-10 -33h-343z" />
    <glyph glyph-name="U" unicode="U" horiz-adv-x="866" 
d="M380 -13q-73 0 -130 16t-90 54t-38.5 101t23.5 157l108 351q10 31 4.5 40t-30.5 14l-41 7l9 31h283l-9 -31l-47 -7q-14 -2 -23 -5t-15.5 -8.5t-11 -15t-8.5 -24.5l-108 -353q-24 -80 -23 -132.5t22 -83.5t58 -44t84 -13q51 0 97 12.5t85.5 43.5t72.5 84t58 133l80 261
q15 50 22 78t6.5 42t-8 18.5t-20.5 6.5l-41 7l9 31h228l-9 -31l-47 -7q-14 -2 -23.5 -6.5t-18.5 -18.5t-19.5 -42t-25.5 -78l-80 -261q-28 -92 -65.5 -154.5t-84.5 -100.5t-105 -55t-128 -17z" />
    <glyph glyph-name="U" unicode="&#x1ee4;" horiz-adv-x="866" 
d="M380 -13q-73 0 -130 16t-90 54t-38.5 101t23.5 157l108 351q10 31 4.5 40t-30.5 14l-41 7l9 31h283l-9 -31l-47 -7q-14 -2 -23 -5t-15.5 -8.5t-11 -15t-8.5 -24.5l-108 -353q-24 -80 -23 -132.5t22 -83.5t58 -44t84 -13q51 0 97 12.5t85.5 43.5t72.5 84t58 133l80 261
q15 50 22 78t6.5 42t-8 18.5t-20.5 6.5l-41 7l9 31h228l-9 -31l-47 -7q-14 -2 -23.5 -6.5t-18.5 -18.5t-19.5 -42t-25.5 -78l-80 -261q-28 -92 -65.5 -154.5t-84.5 -100.5t-105 -55t-128 -17z" />
    <glyph glyph-name="U" unicode="&#x172;" horiz-adv-x="866" 
d="M380 -13q-73 0 -130 16t-90 54t-38.5 101t23.5 157l108 351q10 31 4.5 40t-30.5 14l-41 7l9 31h283l-9 -31l-47 -7q-14 -2 -23 -5t-15.5 -8.5t-11 -15t-8.5 -24.5l-108 -353q-24 -80 -23 -132.5t22 -83.5t58 -44t84 -13q51 0 97 12.5t85.5 43.5t72.5 84t58 133l80 261
q15 50 22 78t6.5 42t-8 18.5t-20.5 6.5l-41 7l9 31h228l-9 -31l-47 -7q-14 -2 -23.5 -6.5t-18.5 -18.5t-19.5 -42t-25.5 -78l-80 -261q-28 -92 -65.5 -154.5t-84.5 -100.5t-105 -55t-128 -17z" />
    <glyph glyph-name="U" unicode="&#x170;" horiz-adv-x="866" 
d="M380 -13q-73 0 -130 16t-90 54t-38.5 101t23.5 157l108 351q10 31 4.5 40t-30.5 14l-41 7l9 31h283l-9 -31l-47 -7q-14 -2 -23 -5t-15.5 -8.5t-11 -15t-8.5 -24.5l-108 -353q-24 -80 -23 -132.5t22 -83.5t58 -44t84 -13q51 0 97 12.5t85.5 43.5t72.5 84t58 133l80 261
q15 50 22 78t6.5 42t-8 18.5t-20.5 6.5l-41 7l9 31h228l-9 -31l-47 -7q-14 -2 -23.5 -6.5t-18.5 -18.5t-19.5 -42t-25.5 -78l-80 -261q-28 -92 -65.5 -154.5t-84.5 -100.5t-105 -55t-128 -17z" />
    <glyph glyph-name="U" unicode="&#x16e;" horiz-adv-x="866" 
d="M380 -13q-73 0 -130 16t-90 54t-38.5 101t23.5 157l108 351q10 31 4.5 40t-30.5 14l-41 7l9 31h283l-9 -31l-47 -7q-14 -2 -23 -5t-15.5 -8.5t-11 -15t-8.5 -24.5l-108 -353q-24 -80 -23 -132.5t22 -83.5t58 -44t84 -13q51 0 97 12.5t85.5 43.5t72.5 84t58 133l80 261
q15 50 22 78t6.5 42t-8 18.5t-20.5 6.5l-41 7l9 31h228l-9 -31l-47 -7q-14 -2 -23.5 -6.5t-18.5 -18.5t-19.5 -42t-25.5 -78l-80 -261q-28 -92 -65.5 -154.5t-84.5 -100.5t-105 -55t-128 -17z" />
    <glyph glyph-name="U" unicode="&#x16c;" horiz-adv-x="866" 
d="M380 -13q-73 0 -130 16t-90 54t-38.5 101t23.5 157l108 351q10 31 4.5 40t-30.5 14l-41 7l9 31h283l-9 -31l-47 -7q-14 -2 -23 -5t-15.5 -8.5t-11 -15t-8.5 -24.5l-108 -353q-24 -80 -23 -132.5t22 -83.5t58 -44t84 -13q51 0 97 12.5t85.5 43.5t72.5 84t58 133l80 261
q15 50 22 78t6.5 42t-8 18.5t-20.5 6.5l-41 7l9 31h228l-9 -31l-47 -7q-14 -2 -23.5 -6.5t-18.5 -18.5t-19.5 -42t-25.5 -78l-80 -261q-28 -92 -65.5 -154.5t-84.5 -100.5t-105 -55t-128 -17z" />
    <glyph glyph-name="U" unicode="&#x16a;" horiz-adv-x="866" 
d="M380 -13q-73 0 -130 16t-90 54t-38.5 101t23.5 157l108 351q10 31 4.5 40t-30.5 14l-41 7l9 31h283l-9 -31l-47 -7q-14 -2 -23 -5t-15.5 -8.5t-11 -15t-8.5 -24.5l-108 -353q-24 -80 -23 -132.5t22 -83.5t58 -44t84 -13q51 0 97 12.5t85.5 43.5t72.5 84t58 133l80 261
q15 50 22 78t6.5 42t-8 18.5t-20.5 6.5l-41 7l9 31h228l-9 -31l-47 -7q-14 -2 -23.5 -6.5t-18.5 -18.5t-19.5 -42t-25.5 -78l-80 -261q-28 -92 -65.5 -154.5t-84.5 -100.5t-105 -55t-128 -17z" />
    <glyph glyph-name="U" unicode="&#x168;" horiz-adv-x="866" 
d="M380 -13q-73 0 -130 16t-90 54t-38.5 101t23.5 157l108 351q10 31 4.5 40t-30.5 14l-41 7l9 31h283l-9 -31l-47 -7q-14 -2 -23 -5t-15.5 -8.5t-11 -15t-8.5 -24.5l-108 -353q-24 -80 -23 -132.5t22 -83.5t58 -44t84 -13q51 0 97 12.5t85.5 43.5t72.5 84t58 133l80 261
q15 50 22 78t6.5 42t-8 18.5t-20.5 6.5l-41 7l9 31h228l-9 -31l-47 -7q-14 -2 -23.5 -6.5t-18.5 -18.5t-19.5 -42t-25.5 -78l-80 -261q-28 -92 -65.5 -154.5t-84.5 -100.5t-105 -55t-128 -17z" />
    <glyph glyph-name="U" unicode="&#xdc;" horiz-adv-x="866" 
d="M380 -13q-73 0 -130 16t-90 54t-38.5 101t23.5 157l108 351q10 31 4.5 40t-30.5 14l-41 7l9 31h283l-9 -31l-47 -7q-14 -2 -23 -5t-15.5 -8.5t-11 -15t-8.5 -24.5l-108 -353q-24 -80 -23 -132.5t22 -83.5t58 -44t84 -13q51 0 97 12.5t85.5 43.5t72.5 84t58 133l80 261
q15 50 22 78t6.5 42t-8 18.5t-20.5 6.5l-41 7l9 31h228l-9 -31l-47 -7q-14 -2 -23.5 -6.5t-18.5 -18.5t-19.5 -42t-25.5 -78l-80 -261q-28 -92 -65.5 -154.5t-84.5 -100.5t-105 -55t-128 -17z" />
    <glyph glyph-name="U" unicode="&#xdb;" horiz-adv-x="866" 
d="M380 -13q-73 0 -130 16t-90 54t-38.5 101t23.5 157l108 351q10 31 4.5 40t-30.5 14l-41 7l9 31h283l-9 -31l-47 -7q-14 -2 -23 -5t-15.5 -8.5t-11 -15t-8.5 -24.5l-108 -353q-24 -80 -23 -132.5t22 -83.5t58 -44t84 -13q51 0 97 12.5t85.5 43.5t72.5 84t58 133l80 261
q15 50 22 78t6.5 42t-8 18.5t-20.5 6.5l-41 7l9 31h228l-9 -31l-47 -7q-14 -2 -23.5 -6.5t-18.5 -18.5t-19.5 -42t-25.5 -78l-80 -261q-28 -92 -65.5 -154.5t-84.5 -100.5t-105 -55t-128 -17z" />
    <glyph glyph-name="U" unicode="&#xda;" horiz-adv-x="866" 
d="M380 -13q-73 0 -130 16t-90 54t-38.5 101t23.5 157l108 351q10 31 4.5 40t-30.5 14l-41 7l9 31h283l-9 -31l-47 -7q-14 -2 -23 -5t-15.5 -8.5t-11 -15t-8.5 -24.5l-108 -353q-24 -80 -23 -132.5t22 -83.5t58 -44t84 -13q51 0 97 12.5t85.5 43.5t72.5 84t58 133l80 261
q15 50 22 78t6.5 42t-8 18.5t-20.5 6.5l-41 7l9 31h228l-9 -31l-47 -7q-14 -2 -23.5 -6.5t-18.5 -18.5t-19.5 -42t-25.5 -78l-80 -261q-28 -92 -65.5 -154.5t-84.5 -100.5t-105 -55t-128 -17z" />
    <glyph glyph-name="U" unicode="&#xd9;" horiz-adv-x="866" 
d="M380 -13q-73 0 -130 16t-90 54t-38.5 101t23.5 157l108 351q10 31 4.5 40t-30.5 14l-41 7l9 31h283l-9 -31l-47 -7q-14 -2 -23 -5t-15.5 -8.5t-11 -15t-8.5 -24.5l-108 -353q-24 -80 -23 -132.5t22 -83.5t58 -44t84 -13q51 0 97 12.5t85.5 43.5t72.5 84t58 133l80 261
q15 50 22 78t6.5 42t-8 18.5t-20.5 6.5l-41 7l9 31h228l-9 -31l-47 -7q-14 -2 -23.5 -6.5t-18.5 -18.5t-19.5 -42t-25.5 -78l-80 -261q-28 -92 -65.5 -154.5t-84.5 -100.5t-105 -55t-128 -17z" />
    <glyph glyph-name="V" unicode="V" horiz-adv-x="769" 
d="M940 727l-45 -7q-14 -2 -25.5 -8t-23.5 -18t-27 -31t-37 -48l-489 -645h-36l-31 679q-1 19 -2.5 31.5t-6.5 20.5t-14.5 12t-25.5 7l-40 7l9 31h286l-10 -31l-45 -7q-14 -2 -22.5 -5.5t-13 -9.5t-5.5 -15t0 -24l25 -528l365 485q22 30 32.5 48t11 28.5t-7 14.5t-19.5 6
l-42 7l9 31h239z" />
    <glyph glyph-name="W" unicode="W" horiz-adv-x="1168" 
d="M1339 727l-45 -7q-14 -2 -25.5 -8t-23.5 -17.5t-27 -31t-37 -48.5l-489 -645h-36l-21 451l-342 -451h-36l-31 679q-1 19 -2.5 31.5t-6.5 20.5t-14.5 12t-25.5 7l-40 7l9 31h286l-10 -31l-45 -7q-14 -2 -22.5 -5.5t-13 -9.5t-5.5 -15t0 -24l25 -528l270 359l-12 261h241
l-10 -31l-74 -7q-14 -2 -22.5 -5t-13 -9t-5.5 -15.5t0 -24.5l25 -528l366 485q22 30 32 48t10.5 28.5t-7 14.5t-19.5 6l-42 7l9 31h239z" />
    <glyph glyph-name="W" unicode="&#x1e84;" horiz-adv-x="1168" 
d="M1339 727l-45 -7q-14 -2 -25.5 -8t-23.5 -17.5t-27 -31t-37 -48.5l-489 -645h-36l-21 451l-342 -451h-36l-31 679q-1 19 -2.5 31.5t-6.5 20.5t-14.5 12t-25.5 7l-40 7l9 31h286l-10 -31l-45 -7q-14 -2 -22.5 -5.5t-13 -9.5t-5.5 -15t0 -24l25 -528l270 359l-12 261h241
l-10 -31l-74 -7q-14 -2 -22.5 -5t-13 -9t-5.5 -15.5t0 -24.5l25 -528l366 485q22 30 32 48t10.5 28.5t-7 14.5t-19.5 6l-42 7l9 31h239z" />
    <glyph glyph-name="W" unicode="&#x1e82;" horiz-adv-x="1168" 
d="M1339 727l-45 -7q-14 -2 -25.5 -8t-23.5 -17.5t-27 -31t-37 -48.5l-489 -645h-36l-21 451l-342 -451h-36l-31 679q-1 19 -2.5 31.5t-6.5 20.5t-14.5 12t-25.5 7l-40 7l9 31h286l-10 -31l-45 -7q-14 -2 -22.5 -5.5t-13 -9.5t-5.5 -15t0 -24l25 -528l270 359l-12 261h241
l-10 -31l-74 -7q-14 -2 -22.5 -5t-13 -9t-5.5 -15.5t0 -24.5l25 -528l366 485q22 30 32 48t10.5 28.5t-7 14.5t-19.5 6l-42 7l9 31h239z" />
    <glyph glyph-name="W" unicode="&#x1e80;" horiz-adv-x="1168" 
d="M1339 727l-45 -7q-14 -2 -25.5 -8t-23.5 -17.5t-27 -31t-37 -48.5l-489 -645h-36l-21 451l-342 -451h-36l-31 679q-1 19 -2.5 31.5t-6.5 20.5t-14.5 12t-25.5 7l-40 7l9 31h286l-10 -31l-45 -7q-14 -2 -22.5 -5.5t-13 -9.5t-5.5 -15t0 -24l25 -528l270 359l-12 261h241
l-10 -31l-74 -7q-14 -2 -22.5 -5t-13 -9t-5.5 -15.5t0 -24.5l25 -528l366 485q22 30 32 48t10.5 28.5t-7 14.5t-19.5 6l-42 7l9 31h239z" />
    <glyph glyph-name="W" unicode="&#x174;" horiz-adv-x="1168" 
d="M1339 727l-45 -7q-14 -2 -25.5 -8t-23.5 -17.5t-27 -31t-37 -48.5l-489 -645h-36l-21 451l-342 -451h-36l-31 679q-1 19 -2.5 31.5t-6.5 20.5t-14.5 12t-25.5 7l-40 7l9 31h286l-10 -31l-45 -7q-14 -2 -22.5 -5.5t-13 -9.5t-5.5 -15t0 -24l25 -528l270 359l-12 261h241
l-10 -31l-74 -7q-14 -2 -22.5 -5t-13 -9t-5.5 -15.5t0 -24.5l25 -528l366 485q22 30 32 48t10.5 28.5t-7 14.5t-19.5 6l-42 7l9 31h239z" />
    <glyph glyph-name="X" unicode="X" horiz-adv-x="824" 
d="M-78 31l44 7q15 2 28.5 7.5t31.5 17t42.5 32t62.5 52.5l282 243l-110 259q-8 18 -14 30.5t-12 21t-14.5 13t-20.5 6.5l-40 7l11 31h289l-11 -31l-47 -7q-27 -4 -32.5 -16t5.5 -38l84 -199l179 154q31 27 50 45t27 29.5t4.5 17.5t-17.5 8l-39 6l11 31h247l-11 -31l-45 -7
q-15 -2 -28.5 -7t-31 -17t-42.5 -32t-63 -53l-221 -191l132 -311q8 -18 13.5 -30.5t12 -21t14.5 -13t21 -6.5l41 -7l-11 -31h-290l12 31l45 7q29 5 34.5 16.5t-5.5 37.5l-107 252l-240 -207q-62 -53 -77 -74.5t13 -25.5l40 -6l-11 -31h-248z" />
    <glyph glyph-name="Y" unicode="Y" horiz-adv-x="778" 
d="M149 33l75 7q28 2 39 11.5t20 39.5l74 243l-122 315q-11 29 -20 47.5t-35 23.5l-40 7l10 31h287l-10 -31l-46 -7q-28 -5 -37.5 -16t1.5 -38l109 -281l246 238q27 26 40.5 43.5t16.5 28.5t-3.5 17t-19.5 8l-41 7l10 31h242l-9 -31l-46 -7q-14 -2 -26 -9t-26 -19.5
t-32.5 -31.5t-45.5 -45l-293 -282l-74 -242q-9 -30 -4 -39.5t31 -11.5l71 -7l-10 -33h-343z" />
    <glyph glyph-name="Y" unicode="&#x1ef2;" horiz-adv-x="778" 
d="M149 33l75 7q28 2 39 11.5t20 39.5l74 243l-122 315q-11 29 -20 47.5t-35 23.5l-40 7l10 31h287l-10 -31l-46 -7q-28 -5 -37.5 -16t1.5 -38l109 -281l246 238q27 26 40.5 43.5t16.5 28.5t-3.5 17t-19.5 8l-41 7l10 31h242l-9 -31l-46 -7q-14 -2 -26 -9t-26 -19.5
t-32.5 -31.5t-45.5 -45l-293 -282l-74 -242q-9 -30 -4 -39.5t31 -11.5l71 -7l-10 -33h-343z" />
    <glyph glyph-name="Y" unicode="&#x232;" horiz-adv-x="778" 
d="M149 33l75 7q28 2 39 11.5t20 39.5l74 243l-122 315q-11 29 -20 47.5t-35 23.5l-40 7l10 31h287l-10 -31l-46 -7q-28 -5 -37.5 -16t1.5 -38l109 -281l246 238q27 26 40.5 43.5t16.5 28.5t-3.5 17t-19.5 8l-41 7l10 31h242l-9 -31l-46 -7q-14 -2 -26 -9t-26 -19.5
t-32.5 -31.5t-45.5 -45l-293 -282l-74 -242q-9 -30 -4 -39.5t31 -11.5l71 -7l-10 -33h-343z" />
    <glyph glyph-name="Y" unicode="&#x178;" horiz-adv-x="778" 
d="M149 33l75 7q28 2 39 11.5t20 39.5l74 243l-122 315q-11 29 -20 47.5t-35 23.5l-40 7l10 31h287l-10 -31l-46 -7q-28 -5 -37.5 -16t1.5 -38l109 -281l246 238q27 26 40.5 43.5t16.5 28.5t-3.5 17t-19.5 8l-41 7l10 31h242l-9 -31l-46 -7q-14 -2 -26 -9t-26 -19.5
t-32.5 -31.5t-45.5 -45l-293 -282l-74 -242q-9 -30 -4 -39.5t31 -11.5l71 -7l-10 -33h-343z" />
    <glyph glyph-name="Y" unicode="&#x176;" horiz-adv-x="778" 
d="M149 33l75 7q28 2 39 11.5t20 39.5l74 243l-122 315q-11 29 -20 47.5t-35 23.5l-40 7l10 31h287l-10 -31l-46 -7q-28 -5 -37.5 -16t1.5 -38l109 -281l246 238q27 26 40.5 43.5t16.5 28.5t-3.5 17t-19.5 8l-41 7l10 31h242l-9 -31l-46 -7q-14 -2 -26 -9t-26 -19.5
t-32.5 -31.5t-45.5 -45l-293 -282l-74 -242q-9 -30 -4 -39.5t31 -11.5l71 -7l-10 -33h-343z" />
    <glyph glyph-name="Y" unicode="&#xdd;" horiz-adv-x="778" 
d="M149 33l75 7q28 2 39 11.5t20 39.5l74 243l-122 315q-11 29 -20 47.5t-35 23.5l-40 7l10 31h287l-10 -31l-46 -7q-28 -5 -37.5 -16t1.5 -38l109 -281l246 238q27 26 40.5 43.5t16.5 28.5t-3.5 17t-19.5 8l-41 7l10 31h242l-9 -31l-46 -7q-14 -2 -26 -9t-26 -19.5
t-32.5 -31.5t-45.5 -45l-293 -282l-74 -242q-9 -30 -4 -39.5t31 -11.5l71 -7l-10 -33h-343z" />
    <glyph glyph-name="Z" unicode="Z" horiz-adv-x="761" 
d="M704 716h-179q-71 0 -114 -3t-71 -12.5t-47 -26.5t-43 -45l-61 -72h-30l115 203l284 -2h328l-765 -716h219q71 0 114.5 3t71.5 12.5t47 26.5t42 44l61 73h30l-113 -201h-653z" />
    <glyph glyph-name="Z" unicode="&#x17d;" horiz-adv-x="761" 
d="M704 716h-179q-71 0 -114 -3t-71 -12.5t-47 -26.5t-43 -45l-61 -72h-30l115 203l284 -2h328l-765 -716h219q71 0 114.5 3t71.5 12.5t47 26.5t42 44l61 73h30l-113 -201h-653z" />
    <glyph glyph-name="Z" unicode="&#x17b;" horiz-adv-x="761" 
d="M704 716h-179q-71 0 -114 -3t-71 -12.5t-47 -26.5t-43 -45l-61 -72h-30l115 203l284 -2h328l-765 -716h219q71 0 114.5 3t71.5 12.5t47 26.5t42 44l61 73h30l-113 -201h-653z" />
    <glyph glyph-name="Z" unicode="&#x179;" horiz-adv-x="761" 
d="M704 716h-179q-71 0 -114 -3t-71 -12.5t-47 -26.5t-43 -45l-61 -72h-30l115 203l284 -2h328l-765 -716h219q71 0 114.5 3t71.5 12.5t47 26.5t42 44l61 73h30l-113 -201h-653z" />
    <glyph glyph-name="a" unicode="a" horiz-adv-x="567" 
d="M82 -13q-44 0 -64 28.5t-20 66.5q0 43 19.5 92.5t51 98t72.5 93t83.5 78.5t84 54.5t74.5 20.5q18 0 33.5 -8.5t20.5 -27.5l16 44h95l-156 -412q-11 -29 -13.5 -45t9.5 -16q10 0 27 11.5t36.5 31t40 45t38.5 53.5l28 -17q-60 -94 -119.5 -142.5t-109.5 -48.5
q-46 0 -49.5 28t17.5 88l23 64h-1q-27 -35 -55.5 -67.5t-58.5 -57.5t-61 -40t-62 -15zM145 50q16 0 46 22t63.5 59.5t66 87.5t54.5 107l27 69q10 25 10.5 41.5t-5 26.5t-15 14t-19.5 4q-40 0 -85 -36.5t-83.5 -92t-63.5 -121t-25 -124.5q0 -23 6 -40t23 -17z" />
    <glyph glyph-name="a" unicode="&#x105;" horiz-adv-x="567" 
d="M82 -13q-44 0 -64 28.5t-20 66.5q0 43 19.5 92.5t51 98t72.5 93t83.5 78.5t84 54.5t74.5 20.5q18 0 33.5 -8.5t20.5 -27.5l16 44h95l-156 -412q-11 -29 -13.5 -45t9.5 -16q10 0 27 11.5t36.5 31t40 45t38.5 53.5l28 -17q-60 -94 -119.5 -142.5t-109.5 -48.5
q-46 0 -49.5 28t17.5 88l23 64h-1q-27 -35 -55.5 -67.5t-58.5 -57.5t-61 -40t-62 -15zM145 50q16 0 46 22t63.5 59.5t66 87.5t54.5 107l27 69q10 25 10.5 41.5t-5 26.5t-15 14t-19.5 4q-40 0 -85 -36.5t-83.5 -92t-63.5 -121t-25 -124.5q0 -23 6 -40t23 -17z" />
    <glyph glyph-name="a" unicode="&#x103;" horiz-adv-x="567" 
d="M82 -13q-44 0 -64 28.5t-20 66.5q0 43 19.5 92.5t51 98t72.5 93t83.5 78.5t84 54.5t74.5 20.5q18 0 33.5 -8.5t20.5 -27.5l16 44h95l-156 -412q-11 -29 -13.5 -45t9.5 -16q10 0 27 11.5t36.5 31t40 45t38.5 53.5l28 -17q-60 -94 -119.5 -142.5t-109.5 -48.5
q-46 0 -49.5 28t17.5 88l23 64h-1q-27 -35 -55.5 -67.5t-58.5 -57.5t-61 -40t-62 -15zM145 50q16 0 46 22t63.5 59.5t66 87.5t54.5 107l27 69q10 25 10.5 41.5t-5 26.5t-15 14t-19.5 4q-40 0 -85 -36.5t-83.5 -92t-63.5 -121t-25 -124.5q0 -23 6 -40t23 -17z" />
    <glyph glyph-name="a" unicode="&#x101;" horiz-adv-x="567" 
d="M82 -13q-44 0 -64 28.5t-20 66.5q0 43 19.5 92.5t51 98t72.5 93t83.5 78.5t84 54.5t74.5 20.5q18 0 33.5 -8.5t20.5 -27.5l16 44h95l-156 -412q-11 -29 -13.5 -45t9.5 -16q10 0 27 11.5t36.5 31t40 45t38.5 53.5l28 -17q-60 -94 -119.5 -142.5t-109.5 -48.5
q-46 0 -49.5 28t17.5 88l23 64h-1q-27 -35 -55.5 -67.5t-58.5 -57.5t-61 -40t-62 -15zM145 50q16 0 46 22t63.5 59.5t66 87.5t54.5 107l27 69q10 25 10.5 41.5t-5 26.5t-15 14t-19.5 4q-40 0 -85 -36.5t-83.5 -92t-63.5 -121t-25 -124.5q0 -23 6 -40t23 -17z" />
    <glyph glyph-name="a" unicode="&#xe6;" horiz-adv-x="567" 
d="M82 -13q-44 0 -64 28.5t-20 66.5q0 43 19.5 92.5t51 98t72.5 93t83.5 78.5t84 54.5t74.5 20.5q18 0 33.5 -8.5t20.5 -27.5l16 44h95l-156 -412q-11 -29 -13.5 -45t9.5 -16q10 0 27 11.5t36.5 31t40 45t38.5 53.5l28 -17q-60 -94 -119.5 -142.5t-109.5 -48.5
q-46 0 -49.5 28t17.5 88l23 64h-1q-27 -35 -55.5 -67.5t-58.5 -57.5t-61 -40t-62 -15zM145 50q16 0 46 22t63.5 59.5t66 87.5t54.5 107l27 69q10 25 10.5 41.5t-5 26.5t-15 14t-19.5 4q-40 0 -85 -36.5t-83.5 -92t-63.5 -121t-25 -124.5q0 -23 6 -40t23 -17z" />
    <glyph glyph-name="a" unicode="&#xe5;" horiz-adv-x="567" 
d="M82 -13q-44 0 -64 28.5t-20 66.5q0 43 19.5 92.5t51 98t72.5 93t83.5 78.5t84 54.5t74.5 20.5q18 0 33.5 -8.5t20.5 -27.5l16 44h95l-156 -412q-11 -29 -13.5 -45t9.5 -16q10 0 27 11.5t36.5 31t40 45t38.5 53.5l28 -17q-60 -94 -119.5 -142.5t-109.5 -48.5
q-46 0 -49.5 28t17.5 88l23 64h-1q-27 -35 -55.5 -67.5t-58.5 -57.5t-61 -40t-62 -15zM145 50q16 0 46 22t63.5 59.5t66 87.5t54.5 107l27 69q10 25 10.5 41.5t-5 26.5t-15 14t-19.5 4q-40 0 -85 -36.5t-83.5 -92t-63.5 -121t-25 -124.5q0 -23 6 -40t23 -17z" />
    <glyph glyph-name="a" unicode="&#xe4;" horiz-adv-x="567" 
d="M82 -13q-44 0 -64 28.5t-20 66.5q0 43 19.5 92.5t51 98t72.5 93t83.5 78.5t84 54.5t74.5 20.5q18 0 33.5 -8.5t20.5 -27.5l16 44h95l-156 -412q-11 -29 -13.5 -45t9.5 -16q10 0 27 11.5t36.5 31t40 45t38.5 53.5l28 -17q-60 -94 -119.5 -142.5t-109.5 -48.5
q-46 0 -49.5 28t17.5 88l23 64h-1q-27 -35 -55.5 -67.5t-58.5 -57.5t-61 -40t-62 -15zM145 50q16 0 46 22t63.5 59.5t66 87.5t54.5 107l27 69q10 25 10.5 41.5t-5 26.5t-15 14t-19.5 4q-40 0 -85 -36.5t-83.5 -92t-63.5 -121t-25 -124.5q0 -23 6 -40t23 -17z" />
    <glyph glyph-name="a" unicode="&#xe3;" horiz-adv-x="567" 
d="M82 -13q-44 0 -64 28.5t-20 66.5q0 43 19.5 92.5t51 98t72.5 93t83.5 78.5t84 54.5t74.5 20.5q18 0 33.5 -8.5t20.5 -27.5l16 44h95l-156 -412q-11 -29 -13.5 -45t9.5 -16q10 0 27 11.5t36.5 31t40 45t38.5 53.5l28 -17q-60 -94 -119.5 -142.5t-109.5 -48.5
q-46 0 -49.5 28t17.5 88l23 64h-1q-27 -35 -55.5 -67.5t-58.5 -57.5t-61 -40t-62 -15zM145 50q16 0 46 22t63.5 59.5t66 87.5t54.5 107l27 69q10 25 10.5 41.5t-5 26.5t-15 14t-19.5 4q-40 0 -85 -36.5t-83.5 -92t-63.5 -121t-25 -124.5q0 -23 6 -40t23 -17z" />
    <glyph glyph-name="a" unicode="&#xe2;" horiz-adv-x="567" 
d="M82 -13q-44 0 -64 28.5t-20 66.5q0 43 19.5 92.5t51 98t72.5 93t83.5 78.5t84 54.5t74.5 20.5q18 0 33.5 -8.5t20.5 -27.5l16 44h95l-156 -412q-11 -29 -13.5 -45t9.5 -16q10 0 27 11.5t36.5 31t40 45t38.5 53.5l28 -17q-60 -94 -119.5 -142.5t-109.5 -48.5
q-46 0 -49.5 28t17.5 88l23 64h-1q-27 -35 -55.5 -67.5t-58.5 -57.5t-61 -40t-62 -15zM145 50q16 0 46 22t63.5 59.5t66 87.5t54.5 107l27 69q10 25 10.5 41.5t-5 26.5t-15 14t-19.5 4q-40 0 -85 -36.5t-83.5 -92t-63.5 -121t-25 -124.5q0 -23 6 -40t23 -17z" />
    <glyph glyph-name="a" unicode="&#xe1;" horiz-adv-x="567" 
d="M82 -13q-44 0 -64 28.5t-20 66.5q0 43 19.5 92.5t51 98t72.5 93t83.5 78.5t84 54.5t74.5 20.5q18 0 33.5 -8.5t20.5 -27.5l16 44h95l-156 -412q-11 -29 -13.5 -45t9.5 -16q10 0 27 11.5t36.5 31t40 45t38.5 53.5l28 -17q-60 -94 -119.5 -142.5t-109.5 -48.5
q-46 0 -49.5 28t17.5 88l23 64h-1q-27 -35 -55.5 -67.5t-58.5 -57.5t-61 -40t-62 -15zM145 50q16 0 46 22t63.5 59.5t66 87.5t54.5 107l27 69q10 25 10.5 41.5t-5 26.5t-15 14t-19.5 4q-40 0 -85 -36.5t-83.5 -92t-63.5 -121t-25 -124.5q0 -23 6 -40t23 -17z" />
    <glyph glyph-name="a" unicode="&#xe0;" horiz-adv-x="567" 
d="M82 -13q-44 0 -64 28.5t-20 66.5q0 43 19.5 92.5t51 98t72.5 93t83.5 78.5t84 54.5t74.5 20.5q18 0 33.5 -8.5t20.5 -27.5l16 44h95l-156 -412q-11 -29 -13.5 -45t9.5 -16q10 0 27 11.5t36.5 31t40 45t38.5 53.5l28 -17q-60 -94 -119.5 -142.5t-109.5 -48.5
q-46 0 -49.5 28t17.5 88l23 64h-1q-27 -35 -55.5 -67.5t-58.5 -57.5t-61 -40t-62 -15zM145 50q16 0 46 22t63.5 59.5t66 87.5t54.5 107l27 69q10 25 10.5 41.5t-5 26.5t-15 14t-19.5 4q-40 0 -85 -36.5t-83.5 -92t-63.5 -121t-25 -124.5q0 -23 6 -40t23 -17z" />
    <glyph glyph-name="b" unicode="b" horiz-adv-x="542" 
d="M243 441q-4 -12 -12 -32.5t-16.5 -40.5t-14.5 -35t-7 -17h1q78 103 143 153t119 50q45 0 67.5 -27.5t22.5 -69.5q0 -40 -18 -88t-48.5 -96t-71 -93.5t-84.5 -80.5t-89.5 -56t-86.5 -21q-32 0 -57.5 7.5t-41.5 22.5t-20.5 36.5t4.5 50.5l200 596q5 17 0 25t-29 12l-49 6
l10 28l197 23zM175 28q26 0 55.5 16.5t57.5 44.5t53.5 64.5t45 78t31 84.5t11.5 83q0 26 -7 41t-23 15q-20 0 -54.5 -24t-72 -64.5t-72 -93t-53.5 -110.5l-24 -71q-7 -20 -4.5 -32.5t11 -19.5t20.5 -9.5t25 -2.5z" />
    <glyph glyph-name="c" unicode="c" horiz-adv-x="436" 
d="M144 -13q-27 0 -50 9t-40.5 26t-27.5 42t-10 57q0 39 14 84t38.5 89.5t58 85t72 71.5t80 49.5t83.5 18.5q38 0 65 -15t27 -49q0 -23 -16.5 -38.5t-33.5 -15.5t-26.5 9t-19 20t-23.5 20t-39 9q-35 0 -65.5 -26t-53 -68.5t-36 -97t-13.5 -112.5q0 -48 16 -75.5t52 -27.5
q40 0 77.5 35t75.5 95l27 -18q-22 -36 -46.5 -68t-52.5 -56.5t-61 -38.5t-72 -14z" />
    <glyph glyph-name="c" unicode="&#x10d;" horiz-adv-x="436" 
d="M144 -13q-27 0 -50 9t-40.5 26t-27.5 42t-10 57q0 39 14 84t38.5 89.5t58 85t72 71.5t80 49.5t83.5 18.5q38 0 65 -15t27 -49q0 -23 -16.5 -38.5t-33.5 -15.5t-26.5 9t-19 20t-23.5 20t-39 9q-35 0 -65.5 -26t-53 -68.5t-36 -97t-13.5 -112.5q0 -48 16 -75.5t52 -27.5
q40 0 77.5 35t75.5 95l27 -18q-22 -36 -46.5 -68t-52.5 -56.5t-61 -38.5t-72 -14z" />
    <glyph glyph-name="c" unicode="&#x10b;" horiz-adv-x="436" 
d="M144 -13q-27 0 -50 9t-40.5 26t-27.5 42t-10 57q0 39 14 84t38.5 89.5t58 85t72 71.5t80 49.5t83.5 18.5q38 0 65 -15t27 -49q0 -23 -16.5 -38.5t-33.5 -15.5t-26.5 9t-19 20t-23.5 20t-39 9q-35 0 -65.5 -26t-53 -68.5t-36 -97t-13.5 -112.5q0 -48 16 -75.5t52 -27.5
q40 0 77.5 35t75.5 95l27 -18q-22 -36 -46.5 -68t-52.5 -56.5t-61 -38.5t-72 -14z" />
    <glyph glyph-name="c" unicode="&#x109;" horiz-adv-x="436" 
d="M144 -13q-27 0 -50 9t-40.5 26t-27.5 42t-10 57q0 39 14 84t38.5 89.5t58 85t72 71.5t80 49.5t83.5 18.5q38 0 65 -15t27 -49q0 -23 -16.5 -38.5t-33.5 -15.5t-26.5 9t-19 20t-23.5 20t-39 9q-35 0 -65.5 -26t-53 -68.5t-36 -97t-13.5 -112.5q0 -48 16 -75.5t52 -27.5
q40 0 77.5 35t75.5 95l27 -18q-22 -36 -46.5 -68t-52.5 -56.5t-61 -38.5t-72 -14z" />
    <glyph glyph-name="c" unicode="&#x107;" horiz-adv-x="436" 
d="M144 -13q-27 0 -50 9t-40.5 26t-27.5 42t-10 57q0 39 14 84t38.5 89.5t58 85t72 71.5t80 49.5t83.5 18.5q38 0 65 -15t27 -49q0 -23 -16.5 -38.5t-33.5 -15.5t-26.5 9t-19 20t-23.5 20t-39 9q-35 0 -65.5 -26t-53 -68.5t-36 -97t-13.5 -112.5q0 -48 16 -75.5t52 -27.5
q40 0 77.5 35t75.5 95l27 -18q-22 -36 -46.5 -68t-52.5 -56.5t-61 -38.5t-72 -14z" />
    <glyph glyph-name="c" unicode="&#xe7;" horiz-adv-x="436" 
d="M144 -13q-27 0 -50 9t-40.5 26t-27.5 42t-10 57q0 39 14 84t38.5 89.5t58 85t72 71.5t80 49.5t83.5 18.5q38 0 65 -15t27 -49q0 -23 -16.5 -38.5t-33.5 -15.5t-26.5 9t-19 20t-23.5 20t-39 9q-35 0 -65.5 -26t-53 -68.5t-36 -97t-13.5 -112.5q0 -48 16 -75.5t52 -27.5
q40 0 77.5 35t75.5 95l27 -18q-22 -36 -46.5 -68t-52.5 -56.5t-61 -38.5t-72 -14z" />
    <glyph glyph-name="d" unicode="d" horiz-adv-x="588" 
d="M89 -13q-45 0 -68 27t-23 68q0 40 18.5 88.5t49 97t70 94t82 80.5t85 56t79.5 21q22 0 37.5 -9.5t23.5 -25.5l71 216q5 17 0 26t-29 11l-62 6l10 28l211 23l-228 -679q-10 -30 -13 -45.5t9 -15.5q10 0 27 11.5t36.5 31t40 45t38.5 53.5l28 -17q-61 -94 -120 -142.5
t-109 -48.5q-23 0 -35 7t-15 21.5t1.5 36t15.5 51.5l31 87h-2q-78 -104 -142.5 -153.5t-117.5 -49.5zM145 50q20 0 54.5 24t72 64.5t71.5 93.5t53 111l16 48q9 27 7.5 44.5t-9 27.5t-19 14t-21.5 4q-40 0 -85 -36t-82.5 -91t-62 -120t-24.5 -123q0 -29 6.5 -45t22.5 -16z
" />
    <glyph glyph-name="d" unicode="&#x111;" horiz-adv-x="588" 
d="M89 -13q-45 0 -68 27t-23 68q0 40 18.5 88.5t49 97t70 94t82 80.5t85 56t79.5 21q22 0 37.5 -9.5t23.5 -25.5l71 216q5 17 0 26t-29 11l-62 6l10 28l211 23l-228 -679q-10 -30 -13 -45.5t9 -15.5q10 0 27 11.5t36.5 31t40 45t38.5 53.5l28 -17q-61 -94 -120 -142.5
t-109 -48.5q-23 0 -35 7t-15 21.5t1.5 36t15.5 51.5l31 87h-2q-78 -104 -142.5 -153.5t-117.5 -49.5zM145 50q20 0 54.5 24t72 64.5t71.5 93.5t53 111l16 48q9 27 7.5 44.5t-9 27.5t-19 14t-21.5 4q-40 0 -85 -36t-82.5 -91t-62 -120t-24.5 -123q0 -29 6.5 -45t22.5 -16z
" />
    <glyph glyph-name="d" unicode="&#x10f;" horiz-adv-x="588" 
d="M89 -13q-45 0 -68 27t-23 68q0 40 18.5 88.5t49 97t70 94t82 80.5t85 56t79.5 21q22 0 37.5 -9.5t23.5 -25.5l71 216q5 17 0 26t-29 11l-62 6l10 28l211 23l-228 -679q-10 -30 -13 -45.5t9 -15.5q10 0 27 11.5t36.5 31t40 45t38.5 53.5l28 -17q-61 -94 -120 -142.5
t-109 -48.5q-23 0 -35 7t-15 21.5t1.5 36t15.5 51.5l31 87h-2q-78 -104 -142.5 -153.5t-117.5 -49.5zM145 50q20 0 54.5 24t72 64.5t71.5 93.5t53 111l16 48q9 27 7.5 44.5t-9 27.5t-19 14t-21.5 4q-40 0 -85 -36t-82.5 -91t-62 -120t-24.5 -123q0 -29 6.5 -45t22.5 -16z
" />
    <glyph glyph-name="d" unicode="&#xf0;" horiz-adv-x="588" 
d="M89 -13q-45 0 -68 27t-23 68q0 40 18.5 88.5t49 97t70 94t82 80.5t85 56t79.5 21q22 0 37.5 -9.5t23.5 -25.5l71 216q5 17 0 26t-29 11l-62 6l10 28l211 23l-228 -679q-10 -30 -13 -45.5t9 -15.5q10 0 27 11.5t36.5 31t40 45t38.5 53.5l28 -17q-61 -94 -120 -142.5
t-109 -48.5q-23 0 -35 7t-15 21.5t1.5 36t15.5 51.5l31 87h-2q-78 -104 -142.5 -153.5t-117.5 -49.5zM145 50q20 0 54.5 24t72 64.5t71.5 93.5t53 111l16 48q9 27 7.5 44.5t-9 27.5t-19 14t-21.5 4q-40 0 -85 -36t-82.5 -91t-62 -120t-24.5 -123q0 -29 6.5 -45t22.5 -16z
" />
    <glyph glyph-name="e" unicode="e" horiz-adv-x="445" 
d="M145 -13q-54 0 -91.5 34.5t-37.5 99.5q0 42 15 88t40 90.5t59 84t72 70t78 48t78 17.5q47 0 71.5 -21t24.5 -56q0 -44 -21.5 -73.5t-48.5 -48.5q-22 -6 -52 -14t-63 -15.5l-66 -15t-60 -13.5q-15 -51 -15 -107q0 -48 16 -75.5t53 -27.5q40 0 77.5 35t75.5 95l27 -18
q-22 -36 -46.5 -68t-52.5 -56.5t-61 -38.5t-72 -14zM330 482q-23 0 -48 -14t-49 -39.5t-45 -60t-36 -75.5q23 5 43.5 10.5t37.5 11.5q40 13 66 28.5t41 32.5t21 34t6 34t-9.5 27.5t-27.5 10.5z" />
    <glyph glyph-name="e" unicode="&#x11b;" horiz-adv-x="445" 
d="M145 -13q-54 0 -91.5 34.5t-37.5 99.5q0 42 15 88t40 90.5t59 84t72 70t78 48t78 17.5q47 0 71.5 -21t24.5 -56q0 -44 -21.5 -73.5t-48.5 -48.5q-22 -6 -52 -14t-63 -15.5l-66 -15t-60 -13.5q-15 -51 -15 -107q0 -48 16 -75.5t53 -27.5q40 0 77.5 35t75.5 95l27 -18
q-22 -36 -46.5 -68t-52.5 -56.5t-61 -38.5t-72 -14zM330 482q-23 0 -48 -14t-49 -39.5t-45 -60t-36 -75.5q23 5 43.5 10.5t37.5 11.5q40 13 66 28.5t41 32.5t21 34t6 34t-9.5 27.5t-27.5 10.5z" />
    <glyph glyph-name="e" unicode="&#x119;" horiz-adv-x="445" 
d="M145 -13q-54 0 -91.5 34.5t-37.5 99.5q0 42 15 88t40 90.5t59 84t72 70t78 48t78 17.5q47 0 71.5 -21t24.5 -56q0 -44 -21.5 -73.5t-48.5 -48.5q-22 -6 -52 -14t-63 -15.5l-66 -15t-60 -13.5q-15 -51 -15 -107q0 -48 16 -75.5t53 -27.5q40 0 77.5 35t75.5 95l27 -18
q-22 -36 -46.5 -68t-52.5 -56.5t-61 -38.5t-72 -14zM330 482q-23 0 -48 -14t-49 -39.5t-45 -60t-36 -75.5q23 5 43.5 10.5t37.5 11.5q40 13 66 28.5t41 32.5t21 34t6 34t-9.5 27.5t-27.5 10.5z" />
    <glyph glyph-name="e" unicode="&#x117;" horiz-adv-x="445" 
d="M145 -13q-54 0 -91.5 34.5t-37.5 99.5q0 42 15 88t40 90.5t59 84t72 70t78 48t78 17.5q47 0 71.5 -21t24.5 -56q0 -44 -21.5 -73.5t-48.5 -48.5q-22 -6 -52 -14t-63 -15.5l-66 -15t-60 -13.5q-15 -51 -15 -107q0 -48 16 -75.5t53 -27.5q40 0 77.5 35t75.5 95l27 -18
q-22 -36 -46.5 -68t-52.5 -56.5t-61 -38.5t-72 -14zM330 482q-23 0 -48 -14t-49 -39.5t-45 -60t-36 -75.5q23 5 43.5 10.5t37.5 11.5q40 13 66 28.5t41 32.5t21 34t6 34t-9.5 27.5t-27.5 10.5z" />
    <glyph glyph-name="e" unicode="&#x115;" horiz-adv-x="445" 
d="M145 -13q-54 0 -91.5 34.5t-37.5 99.5q0 42 15 88t40 90.5t59 84t72 70t78 48t78 17.5q47 0 71.5 -21t24.5 -56q0 -44 -21.5 -73.5t-48.5 -48.5q-22 -6 -52 -14t-63 -15.5l-66 -15t-60 -13.5q-15 -51 -15 -107q0 -48 16 -75.5t53 -27.5q40 0 77.5 35t75.5 95l27 -18
q-22 -36 -46.5 -68t-52.5 -56.5t-61 -38.5t-72 -14zM330 482q-23 0 -48 -14t-49 -39.5t-45 -60t-36 -75.5q23 5 43.5 10.5t37.5 11.5q40 13 66 28.5t41 32.5t21 34t6 34t-9.5 27.5t-27.5 10.5z" />
    <glyph glyph-name="e" unicode="&#x113;" horiz-adv-x="445" 
d="M145 -13q-54 0 -91.5 34.5t-37.5 99.5q0 42 15 88t40 90.5t59 84t72 70t78 48t78 17.5q47 0 71.5 -21t24.5 -56q0 -44 -21.5 -73.5t-48.5 -48.5q-22 -6 -52 -14t-63 -15.5l-66 -15t-60 -13.5q-15 -51 -15 -107q0 -48 16 -75.5t53 -27.5q40 0 77.5 35t75.5 95l27 -18
q-22 -36 -46.5 -68t-52.5 -56.5t-61 -38.5t-72 -14zM330 482q-23 0 -48 -14t-49 -39.5t-45 -60t-36 -75.5q23 5 43.5 10.5t37.5 11.5q40 13 66 28.5t41 32.5t21 34t6 34t-9.5 27.5t-27.5 10.5z" />
    <glyph glyph-name="e" unicode="&#xeb;" horiz-adv-x="445" 
d="M145 -13q-54 0 -91.5 34.5t-37.5 99.5q0 42 15 88t40 90.5t59 84t72 70t78 48t78 17.5q47 0 71.5 -21t24.5 -56q0 -44 -21.5 -73.5t-48.5 -48.5q-22 -6 -52 -14t-63 -15.5l-66 -15t-60 -13.5q-15 -51 -15 -107q0 -48 16 -75.5t53 -27.5q40 0 77.5 35t75.5 95l27 -18
q-22 -36 -46.5 -68t-52.5 -56.5t-61 -38.5t-72 -14zM330 482q-23 0 -48 -14t-49 -39.5t-45 -60t-36 -75.5q23 5 43.5 10.5t37.5 11.5q40 13 66 28.5t41 32.5t21 34t6 34t-9.5 27.5t-27.5 10.5z" />
    <glyph glyph-name="e" unicode="&#xea;" horiz-adv-x="445" 
d="M145 -13q-54 0 -91.5 34.5t-37.5 99.5q0 42 15 88t40 90.5t59 84t72 70t78 48t78 17.5q47 0 71.5 -21t24.5 -56q0 -44 -21.5 -73.5t-48.5 -48.5q-22 -6 -52 -14t-63 -15.5l-66 -15t-60 -13.5q-15 -51 -15 -107q0 -48 16 -75.5t53 -27.5q40 0 77.5 35t75.5 95l27 -18
q-22 -36 -46.5 -68t-52.5 -56.5t-61 -38.5t-72 -14zM330 482q-23 0 -48 -14t-49 -39.5t-45 -60t-36 -75.5q23 5 43.5 10.5t37.5 11.5q40 13 66 28.5t41 32.5t21 34t6 34t-9.5 27.5t-27.5 10.5z" />
    <glyph glyph-name="e" unicode="&#xe9;" horiz-adv-x="445" 
d="M145 -13q-54 0 -91.5 34.5t-37.5 99.5q0 42 15 88t40 90.5t59 84t72 70t78 48t78 17.5q47 0 71.5 -21t24.5 -56q0 -44 -21.5 -73.5t-48.5 -48.5q-22 -6 -52 -14t-63 -15.5l-66 -15t-60 -13.5q-15 -51 -15 -107q0 -48 16 -75.5t53 -27.5q40 0 77.5 35t75.5 95l27 -18
q-22 -36 -46.5 -68t-52.5 -56.5t-61 -38.5t-72 -14zM330 482q-23 0 -48 -14t-49 -39.5t-45 -60t-36 -75.5q23 5 43.5 10.5t37.5 11.5q40 13 66 28.5t41 32.5t21 34t6 34t-9.5 27.5t-27.5 10.5z" />
    <glyph glyph-name="e" unicode="&#xe8;" horiz-adv-x="445" 
d="M145 -13q-54 0 -91.5 34.5t-37.5 99.5q0 42 15 88t40 90.5t59 84t72 70t78 48t78 17.5q47 0 71.5 -21t24.5 -56q0 -44 -21.5 -73.5t-48.5 -48.5q-22 -6 -52 -14t-63 -15.5l-66 -15t-60 -13.5q-15 -51 -15 -107q0 -48 16 -75.5t53 -27.5q40 0 77.5 35t75.5 95l27 -18
q-22 -36 -46.5 -68t-52.5 -56.5t-61 -38.5t-72 -14zM330 482q-23 0 -48 -14t-49 -39.5t-45 -60t-36 -75.5q23 5 43.5 10.5t37.5 11.5q40 13 66 28.5t41 32.5t21 34t6 34t-9.5 27.5t-27.5 10.5z" />
    <glyph glyph-name="f" unicode="f" horiz-adv-x="342" 
d="M64 447l6 25l104 31q28 81 62 139t81 99q38 32 82 52.5t76 20.5q22 0 35 -11t13 -34q0 -20 -12.5 -38.5t-36.5 -18.5q-10 0 -21 3.5t-24 8t-27.5 8.5t-30.5 4q-14 0 -25.5 -6t-20.5 -20.5t-17 -39t-16 -61.5l-23 -107h146l-14 -55h-143l-86 -378q-21 -95 -51 -158.5
t-64.5 -102t-73 -55t-77.5 -16.5q-16 0 -32 4.5t-29 13t-21 20t-8 26.5q0 17 12 31.5t33 14.5q16 0 27.5 -10t22.5 -22.5t23.5 -22.5t29.5 -10q14 0 26 10t23.5 35.5t24 69.5t27.5 111l97 439h-98z" />
    <glyph glyph-name="g" unicode="g" horiz-adv-x="488" 
d="M200 158q-15 0 -28 2t-25 6l-25 -33q-11 -13 -10.5 -18.5t11.5 -11.5l160 -95q55 -32 81 -60t26 -59q0 -37 -19 -66t-53.5 -49t-82 -30.5t-104.5 -10.5q-53 0 -96.5 9t-75.5 25.5t-49.5 40t-17.5 52.5q0 25 15 46t40 39.5t58.5 34.5t71.5 31q-25 15 -41 31t-16 34
q0 17 11.5 29t38.5 29l62 37q-33 15 -50 44t-17 67q0 40 21.5 82t57.5 76.5t82 56.5t95 22q64 0 100 -36l163 64l-28 -72q-5 -12 -12 -17t-23 -3l-87 13q21 -30 21 -73q0 -40 -21.5 -82t-57 -76.5t-81.5 -56.5t-95 -22zM231 190q27 0 48.5 18t37.5 47.5t24.5 66t8.5 73.5
q0 38 -14 64t-47 26q-27 0 -48.5 -18t-37.5 -47.5t-24.5 -66t-8.5 -73.5q0 -38 14 -64t47 -26zM-26 -124q0 -44 46.5 -75.5t144.5 -31.5q25 0 51.5 4.5t47.5 13.5t34.5 22.5t13.5 30.5q0 23 -20.5 41t-68.5 46l-121 70q-37 -14 -61.5 -29t-39.5 -30t-21 -30.5t-6 -31.5z" />
    <glyph glyph-name="g" unicode="&#x123;" horiz-adv-x="488" 
d="M200 158q-15 0 -28 2t-25 6l-25 -33q-11 -13 -10.5 -18.5t11.5 -11.5l160 -95q55 -32 81 -60t26 -59q0 -37 -19 -66t-53.5 -49t-82 -30.5t-104.5 -10.5q-53 0 -96.5 9t-75.5 25.5t-49.5 40t-17.5 52.5q0 25 15 46t40 39.5t58.5 34.5t71.5 31q-25 15 -41 31t-16 34
q0 17 11.5 29t38.5 29l62 37q-33 15 -50 44t-17 67q0 40 21.5 82t57.5 76.5t82 56.5t95 22q64 0 100 -36l163 64l-28 -72q-5 -12 -12 -17t-23 -3l-87 13q21 -30 21 -73q0 -40 -21.5 -82t-57 -76.5t-81.5 -56.5t-95 -22zM231 190q27 0 48.5 18t37.5 47.5t24.5 66t8.5 73.5
q0 38 -14 64t-47 26q-27 0 -48.5 -18t-37.5 -47.5t-24.5 -66t-8.5 -73.5q0 -38 14 -64t47 -26zM-26 -124q0 -44 46.5 -75.5t144.5 -31.5q25 0 51.5 4.5t47.5 13.5t34.5 22.5t13.5 30.5q0 23 -20.5 41t-68.5 46l-121 70q-37 -14 -61.5 -29t-39.5 -30t-21 -30.5t-6 -31.5z" />
    <glyph glyph-name="g" unicode="&#x121;" horiz-adv-x="488" 
d="M200 158q-15 0 -28 2t-25 6l-25 -33q-11 -13 -10.5 -18.5t11.5 -11.5l160 -95q55 -32 81 -60t26 -59q0 -37 -19 -66t-53.5 -49t-82 -30.5t-104.5 -10.5q-53 0 -96.5 9t-75.5 25.5t-49.5 40t-17.5 52.5q0 25 15 46t40 39.5t58.5 34.5t71.5 31q-25 15 -41 31t-16 34
q0 17 11.5 29t38.5 29l62 37q-33 15 -50 44t-17 67q0 40 21.5 82t57.5 76.5t82 56.5t95 22q64 0 100 -36l163 64l-28 -72q-5 -12 -12 -17t-23 -3l-87 13q21 -30 21 -73q0 -40 -21.5 -82t-57 -76.5t-81.5 -56.5t-95 -22zM231 190q27 0 48.5 18t37.5 47.5t24.5 66t8.5 73.5
q0 38 -14 64t-47 26q-27 0 -48.5 -18t-37.5 -47.5t-24.5 -66t-8.5 -73.5q0 -38 14 -64t47 -26zM-26 -124q0 -44 46.5 -75.5t144.5 -31.5q25 0 51.5 4.5t47.5 13.5t34.5 22.5t13.5 30.5q0 23 -20.5 41t-68.5 46l-121 70q-37 -14 -61.5 -29t-39.5 -30t-21 -30.5t-6 -31.5z" />
    <glyph glyph-name="g" unicode="&#x11f;" horiz-adv-x="488" 
d="M200 158q-15 0 -28 2t-25 6l-25 -33q-11 -13 -10.5 -18.5t11.5 -11.5l160 -95q55 -32 81 -60t26 -59q0 -37 -19 -66t-53.5 -49t-82 -30.5t-104.5 -10.5q-53 0 -96.5 9t-75.5 25.5t-49.5 40t-17.5 52.5q0 25 15 46t40 39.5t58.5 34.5t71.5 31q-25 15 -41 31t-16 34
q0 17 11.5 29t38.5 29l62 37q-33 15 -50 44t-17 67q0 40 21.5 82t57.5 76.5t82 56.5t95 22q64 0 100 -36l163 64l-28 -72q-5 -12 -12 -17t-23 -3l-87 13q21 -30 21 -73q0 -40 -21.5 -82t-57 -76.5t-81.5 -56.5t-95 -22zM231 190q27 0 48.5 18t37.5 47.5t24.5 66t8.5 73.5
q0 38 -14 64t-47 26q-27 0 -48.5 -18t-37.5 -47.5t-24.5 -66t-8.5 -73.5q0 -38 14 -64t47 -26zM-26 -124q0 -44 46.5 -75.5t144.5 -31.5q25 0 51.5 4.5t47.5 13.5t34.5 22.5t13.5 30.5q0 23 -20.5 41t-68.5 46l-121 70q-37 -14 -61.5 -29t-39.5 -30t-21 -30.5t-6 -31.5z" />
    <glyph glyph-name="g" unicode="&#x11d;" horiz-adv-x="488" 
d="M200 158q-15 0 -28 2t-25 6l-25 -33q-11 -13 -10.5 -18.5t11.5 -11.5l160 -95q55 -32 81 -60t26 -59q0 -37 -19 -66t-53.5 -49t-82 -30.5t-104.5 -10.5q-53 0 -96.5 9t-75.5 25.5t-49.5 40t-17.5 52.5q0 25 15 46t40 39.5t58.5 34.5t71.5 31q-25 15 -41 31t-16 34
q0 17 11.5 29t38.5 29l62 37q-33 15 -50 44t-17 67q0 40 21.5 82t57.5 76.5t82 56.5t95 22q64 0 100 -36l163 64l-28 -72q-5 -12 -12 -17t-23 -3l-87 13q21 -30 21 -73q0 -40 -21.5 -82t-57 -76.5t-81.5 -56.5t-95 -22zM231 190q27 0 48.5 18t37.5 47.5t24.5 66t8.5 73.5
q0 38 -14 64t-47 26q-27 0 -48.5 -18t-37.5 -47.5t-24.5 -66t-8.5 -73.5q0 -38 14 -64t47 -26zM-26 -124q0 -44 46.5 -75.5t144.5 -31.5q25 0 51.5 4.5t47.5 13.5t34.5 22.5t13.5 30.5q0 23 -20.5 41t-68.5 46l-121 70q-37 -14 -61.5 -29t-39.5 -30t-21 -30.5t-6 -31.5z" />
    <glyph glyph-name="h" unicode="h" horiz-adv-x="594" 
d="M244 700q6 17 0.5 25.5t-29.5 11.5l-49 6l10 28l197 23l-125 -362l-37 -105h1q42 49 77.5 85.5t67 60t60.5 35t58 11.5q56 0 62.5 -45.5t-25.5 -124.5l-96 -234q-12 -29 -14 -45t10 -16q10 0 27 11.5t36.5 31t40 45t38.5 53.5l28 -17q-60 -94 -119.5 -142.5t-109.5 -48.5
q-46 0 -56 27.5t14 86.5l95 234q24 60 25.5 88.5t-23.5 28.5q-21 0 -56 -24t-73 -65.5t-74 -97.5t-58 -121l-42 -136l-109 -19z" />
    <glyph glyph-name="h" unicode="&#x127;" horiz-adv-x="594" 
d="M244 700q6 17 0.5 25.5t-29.5 11.5l-49 6l10 28l197 23l-125 -362l-37 -105h1q42 49 77.5 85.5t67 60t60.5 35t58 11.5q56 0 62.5 -45.5t-25.5 -124.5l-96 -234q-12 -29 -14 -45t10 -16q10 0 27 11.5t36.5 31t40 45t38.5 53.5l28 -17q-60 -94 -119.5 -142.5t-109.5 -48.5
q-46 0 -56 27.5t14 86.5l95 234q24 60 25.5 88.5t-23.5 28.5q-21 0 -56 -24t-73 -65.5t-74 -97.5t-58 -121l-42 -136l-109 -19z" />
    <glyph glyph-name="h" unicode="&#x125;" horiz-adv-x="594" 
d="M244 700q6 17 0.5 25.5t-29.5 11.5l-49 6l10 28l197 23l-125 -362l-37 -105h1q42 49 77.5 85.5t67 60t60.5 35t58 11.5q56 0 62.5 -45.5t-25.5 -124.5l-96 -234q-12 -29 -14 -45t10 -16q10 0 27 11.5t36.5 31t40 45t38.5 53.5l28 -17q-60 -94 -119.5 -142.5t-109.5 -48.5
q-46 0 -56 27.5t14 86.5l95 234q24 60 25.5 88.5t-23.5 28.5q-21 0 -56 -24t-73 -65.5t-74 -97.5t-58 -121l-42 -136l-109 -19z" />
    <glyph glyph-name="i" unicode="i" horiz-adv-x="333" 
d="M89 -13q-47 0 -56 28t14 86l128 320q7 16 1.5 24t-29.5 12l-48 7l10 27l202 23l-159 -399q-11 -29 -13.5 -45t9.5 -16q10 0 27 11.5t36 31t39.5 45t38.5 53.5l29 -17q-61 -94 -120.5 -142.5t-108.5 -48.5zM322 651q-29 0 -50 20.5t-21 51.5q0 29 21 49.5t50 20.5
q30 0 51 -20.5t21 -49.5q0 -31 -21 -51.5t-51 -20.5z" />
    <glyph glyph-name="i" unicode="&#x1ecb;" horiz-adv-x="333" 
d="M89 -13q-47 0 -56 28t14 86l128 320q7 16 1.5 24t-29.5 12l-48 7l10 27l202 23l-159 -399q-11 -29 -13.5 -45t9.5 -16q10 0 27 11.5t36 31t39.5 45t38.5 53.5l29 -17q-61 -94 -120.5 -142.5t-108.5 -48.5zM322 651q-29 0 -50 20.5t-21 51.5q0 29 21 49.5t50 20.5
q30 0 51 -20.5t21 -49.5q0 -31 -21 -51.5t-51 -20.5z" />
    <glyph glyph-name="i" unicode="&#x131;" horiz-adv-x="333" 
d="M89 -13q-47 0 -56 28t14 86l128 320q7 16 1.5 24t-29.5 12l-48 7l10 27l202 23l-159 -399q-11 -29 -13.5 -45t9.5 -16q10 0 27 11.5t36 31t39.5 45t38.5 53.5l29 -17q-61 -94 -120.5 -142.5t-108.5 -48.5zM322 651q-29 0 -50 20.5t-21 51.5q0 29 21 49.5t50 20.5
q30 0 51 -20.5t21 -49.5q0 -31 -21 -51.5t-51 -20.5z" />
    <glyph glyph-name="i" unicode="&#x12f;" horiz-adv-x="333" 
d="M89 -13q-47 0 -56 28t14 86l128 320q7 16 1.5 24t-29.5 12l-48 7l10 27l202 23l-159 -399q-11 -29 -13.5 -45t9.5 -16q10 0 27 11.5t36 31t39.5 45t38.5 53.5l29 -17q-61 -94 -120.5 -142.5t-108.5 -48.5zM322 651q-29 0 -50 20.5t-21 51.5q0 29 21 49.5t50 20.5
q30 0 51 -20.5t21 -49.5q0 -31 -21 -51.5t-51 -20.5z" />
    <glyph glyph-name="i" unicode="&#x12d;" horiz-adv-x="333" 
d="M89 -13q-47 0 -56 28t14 86l128 320q7 16 1.5 24t-29.5 12l-48 7l10 27l202 23l-159 -399q-11 -29 -13.5 -45t9.5 -16q10 0 27 11.5t36 31t39.5 45t38.5 53.5l29 -17q-61 -94 -120.5 -142.5t-108.5 -48.5zM322 651q-29 0 -50 20.5t-21 51.5q0 29 21 49.5t50 20.5
q30 0 51 -20.5t21 -49.5q0 -31 -21 -51.5t-51 -20.5z" />
    <glyph glyph-name="i" unicode="&#x12b;" horiz-adv-x="333" 
d="M89 -13q-47 0 -56 28t14 86l128 320q7 16 1.5 24t-29.5 12l-48 7l10 27l202 23l-159 -399q-11 -29 -13.5 -45t9.5 -16q10 0 27 11.5t36 31t39.5 45t38.5 53.5l29 -17q-61 -94 -120.5 -142.5t-108.5 -48.5zM322 651q-29 0 -50 20.5t-21 51.5q0 29 21 49.5t50 20.5
q30 0 51 -20.5t21 -49.5q0 -31 -21 -51.5t-51 -20.5z" />
    <glyph glyph-name="i" unicode="&#x129;" horiz-adv-x="333" 
d="M89 -13q-47 0 -56 28t14 86l128 320q7 16 1.5 24t-29.5 12l-48 7l10 27l202 23l-159 -399q-11 -29 -13.5 -45t9.5 -16q10 0 27 11.5t36 31t39.5 45t38.5 53.5l29 -17q-61 -94 -120.5 -142.5t-108.5 -48.5zM322 651q-29 0 -50 20.5t-21 51.5q0 29 21 49.5t50 20.5
q30 0 51 -20.5t21 -49.5q0 -31 -21 -51.5t-51 -20.5z" />
    <glyph glyph-name="i" unicode="&#xef;" horiz-adv-x="333" 
d="M89 -13q-47 0 -56 28t14 86l128 320q7 16 1.5 24t-29.5 12l-48 7l10 27l202 23l-159 -399q-11 -29 -13.5 -45t9.5 -16q10 0 27 11.5t36 31t39.5 45t38.5 53.5l29 -17q-61 -94 -120.5 -142.5t-108.5 -48.5zM322 651q-29 0 -50 20.5t-21 51.5q0 29 21 49.5t50 20.5
q30 0 51 -20.5t21 -49.5q0 -31 -21 -51.5t-51 -20.5z" />
    <glyph glyph-name="i" unicode="&#xee;" horiz-adv-x="333" 
d="M89 -13q-47 0 -56 28t14 86l128 320q7 16 1.5 24t-29.5 12l-48 7l10 27l202 23l-159 -399q-11 -29 -13.5 -45t9.5 -16q10 0 27 11.5t36 31t39.5 45t38.5 53.5l29 -17q-61 -94 -120.5 -142.5t-108.5 -48.5zM322 651q-29 0 -50 20.5t-21 51.5q0 29 21 49.5t50 20.5
q30 0 51 -20.5t21 -49.5q0 -31 -21 -51.5t-51 -20.5z" />
    <glyph glyph-name="i" unicode="&#xed;" horiz-adv-x="333" 
d="M89 -13q-47 0 -56 28t14 86l128 320q7 16 1.5 24t-29.5 12l-48 7l10 27l202 23l-159 -399q-11 -29 -13.5 -45t9.5 -16q10 0 27 11.5t36 31t39.5 45t38.5 53.5l29 -17q-61 -94 -120.5 -142.5t-108.5 -48.5zM322 651q-29 0 -50 20.5t-21 51.5q0 29 21 49.5t50 20.5
q30 0 51 -20.5t21 -49.5q0 -31 -21 -51.5t-51 -20.5z" />
    <glyph glyph-name="i" unicode="&#xec;" horiz-adv-x="333" 
d="M89 -13q-47 0 -56 28t14 86l128 320q7 16 1.5 24t-29.5 12l-48 7l10 27l202 23l-159 -399q-11 -29 -13.5 -45t9.5 -16q10 0 27 11.5t36 31t39.5 45t38.5 53.5l29 -17q-61 -94 -120.5 -142.5t-108.5 -48.5zM322 651q-29 0 -50 20.5t-21 51.5q0 29 21 49.5t50 20.5
q30 0 51 -20.5t21 -49.5q0 -31 -21 -51.5t-51 -20.5z" />
    <glyph glyph-name="j" unicode="j" horiz-adv-x="292" 
d="M129 45q-14 -36 -25.5 -65t-25 -52t-31.5 -42.5t-44 -37.5q-17 -11 -39.5 -25.5t-47.5 -30t-51 -31t-50 -28.5l-13 26q43 31 75.5 55.5t58 53t47 66t42.5 93.5l147 394q6 16 1 24t-29 12l-49 7l11 27l197 23zM308 651q-29 0 -50 20.5t-21 51.5q0 29 21 49.5t50 20.5
q30 0 51 -20.5t21 -49.5q0 -31 -21 -51.5t-51 -20.5z" />
    <glyph glyph-name="j" unicode="&#x237;" horiz-adv-x="292" 
d="M129 45q-14 -36 -25.5 -65t-25 -52t-31.5 -42.5t-44 -37.5q-17 -11 -39.5 -25.5t-47.5 -30t-51 -31t-50 -28.5l-13 26q43 31 75.5 55.5t58 53t47 66t42.5 93.5l147 394q6 16 1 24t-29 12l-49 7l11 27l197 23zM308 651q-29 0 -50 20.5t-21 51.5q0 29 21 49.5t50 20.5
q30 0 51 -20.5t21 -49.5q0 -31 -21 -51.5t-51 -20.5z" />
    <glyph glyph-name="j" unicode="&#x135;" horiz-adv-x="292" 
d="M129 45q-14 -36 -25.5 -65t-25 -52t-31.5 -42.5t-44 -37.5q-17 -11 -39.5 -25.5t-47.5 -30t-51 -31t-50 -28.5l-13 26q43 31 75.5 55.5t58 53t47 66t42.5 93.5l147 394q6 16 1 24t-29 12l-49 7l11 27l197 23zM308 651q-29 0 -50 20.5t-21 51.5q0 29 21 49.5t50 20.5
q30 0 51 -20.5t21 -49.5q0 -31 -21 -51.5t-51 -20.5z" />
    <glyph glyph-name="k" unicode="k" horiz-adv-x="590" 
d="M244 700q6 17 0.5 25.5t-29.5 11.5l-49 6l10 28l197 23l-235 -674l-33 -112l-108 -19zM380 -27q-24 0 -40 12t-32 42l-119 229l166 105q26 16 40 32t21 30.5t8 28t1 25.5q0 25 16.5 33.5t33.5 8.5q21 0 35.5 -11t14.5 -31q0 -13 -6 -26.5t-22 -29.5t-43.5 -36.5
t-70.5 -46.5l-100 -61l121 -214q6 -11 12 -17t14 -6q17 0 48.5 36t65.5 91l28 -18q-30 -47 -54.5 -80.5t-47 -54.5t-44.5 -31t-46 -10z" />
    <glyph glyph-name="k" unicode="&#x137;" horiz-adv-x="590" 
d="M244 700q6 17 0.5 25.5t-29.5 11.5l-49 6l10 28l197 23l-235 -674l-33 -112l-108 -19zM380 -27q-24 0 -40 12t-32 42l-119 229l166 105q26 16 40 32t21 30.5t8 28t1 25.5q0 25 16.5 33.5t33.5 8.5q21 0 35.5 -11t14.5 -31q0 -13 -6 -26.5t-22 -29.5t-43.5 -36.5
t-70.5 -46.5l-100 -61l121 -214q6 -11 12 -17t14 -6q17 0 48.5 36t65.5 91l28 -18q-30 -47 -54.5 -80.5t-47 -54.5t-44.5 -31t-46 -10z" />
    <glyph glyph-name="l" unicode="l" horiz-adv-x="314" 
d="M247 700q6 17 0.5 25.5t-29.5 11.5l-49 6l10 28l197 23l-237 -679q-11 -30 -13.5 -45.5t9.5 -15.5q10 0 27 11.5t36.5 31t40 45t38.5 53.5l28 -17q-61 -94 -120 -142.5t-109 -48.5q-46 0 -52 28t15 88z" />
    <glyph glyph-name="l" unicode="&#x142;" horiz-adv-x="314" 
d="M247 700q6 17 0.5 25.5t-29.5 11.5l-49 6l10 28l197 23l-237 -679q-11 -30 -13.5 -45.5t9.5 -15.5q10 0 27 11.5t36.5 31t40 45t38.5 53.5l28 -17q-61 -94 -120 -142.5t-109 -48.5q-46 0 -52 28t15 88z" />
    <glyph glyph-name="l" unicode="&#x140;" horiz-adv-x="314" 
d="M247 700q6 17 0.5 25.5t-29.5 11.5l-49 6l10 28l197 23l-237 -679q-11 -30 -13.5 -45.5t9.5 -15.5q10 0 27 11.5t36.5 31t40 45t38.5 53.5l28 -17q-61 -94 -120 -142.5t-109 -48.5q-46 0 -52 28t15 88z" />
    <glyph glyph-name="l" unicode="&#x13e;" horiz-adv-x="314" 
d="M247 700q6 17 0.5 25.5t-29.5 11.5l-49 6l10 28l197 23l-237 -679q-11 -30 -13.5 -45.5t9.5 -15.5q10 0 27 11.5t36.5 31t40 45t38.5 53.5l28 -17q-61 -94 -120 -142.5t-109 -48.5q-46 0 -52 28t15 88z" />
    <glyph glyph-name="l" unicode="&#x13c;" horiz-adv-x="314" 
d="M247 700q6 17 0.5 25.5t-29.5 11.5l-49 6l10 28l197 23l-237 -679q-11 -30 -13.5 -45.5t9.5 -15.5q10 0 27 11.5t36.5 31t40 45t38.5 53.5l28 -17q-61 -94 -120 -142.5t-109 -48.5q-46 0 -52 28t15 88z" />
    <glyph glyph-name="l" unicode="&#x13a;" horiz-adv-x="314" 
d="M247 700q6 17 0.5 25.5t-29.5 11.5l-49 6l10 28l197 23l-237 -679q-11 -30 -13.5 -45.5t9.5 -15.5q10 0 27 11.5t36.5 31t40 45t38.5 53.5l28 -17q-61 -94 -120 -142.5t-109 -48.5q-46 0 -52 28t15 88z" />
    <glyph glyph-name="m" unicode="m" horiz-adv-x="895" 
d="M233 333h1q78 94 139 140t119 46q57 0 62.5 -47.5t-38.5 -138.5h2q78 94 139 140t119 46q56 0 62.5 -45.5t-25.5 -124.5l-96 -234q-12 -29 -14 -45t10 -16q10 0 27 11.5t36.5 31t40 45t38.5 53.5l28 -17q-61 -94 -120 -142.5t-109 -48.5q-46 0 -56.5 27.5t13.5 86.5
l96 234q25 60 26 88.5t-24 28.5q-21 0 -56 -24t-73 -65.5t-73.5 -97.5t-58.5 -121l-47 -135l-112 -20l134 346q23 60 25 88.5t-23 28.5q-21 0 -56 -24t-73 -65.5t-73.5 -97.5t-58.5 -121l-46 -135l-113 -20l168 432q6 16 1 24t-29 12l-48 7l10 27l200 23z" />
    <glyph glyph-name="n" unicode="n" horiz-adv-x="612" 
d="M173 421q6 16 1 24t-29 12l-48 7l10 27l200 23l-74 -181h1q78 94 139 140t119 46q57 0 63 -45.5t-26 -124.5l-95 -234q-12 -29 -14.5 -45t9.5 -16q11 0 27.5 11.5t36 31t40 45t38.5 53.5l28 -17q-60 -94 -119.5 -142.5t-109.5 -48.5q-46 0 -56 27.5t14 86.5l95 234
q24 60 25.5 88.5t-23.5 28.5q-21 0 -56 -24t-73 -65.5t-73.5 -97.5t-58.5 -121l-46 -135l-113 -20z" />
    <glyph glyph-name="n" unicode="&#x14b;" horiz-adv-x="612" 
d="M173 421q6 16 1 24t-29 12l-48 7l10 27l200 23l-74 -181h1q78 94 139 140t119 46q57 0 63 -45.5t-26 -124.5l-95 -234q-12 -29 -14.5 -45t9.5 -16q11 0 27.5 11.5t36 31t40 45t38.5 53.5l28 -17q-60 -94 -119.5 -142.5t-109.5 -48.5q-46 0 -56 27.5t14 86.5l95 234
q24 60 25.5 88.5t-23.5 28.5q-21 0 -56 -24t-73 -65.5t-73.5 -97.5t-58.5 -121l-46 -135l-113 -20z" />
    <glyph glyph-name="n" unicode="&#x148;" horiz-adv-x="612" 
d="M173 421q6 16 1 24t-29 12l-48 7l10 27l200 23l-74 -181h1q78 94 139 140t119 46q57 0 63 -45.5t-26 -124.5l-95 -234q-12 -29 -14.5 -45t9.5 -16q11 0 27.5 11.5t36 31t40 45t38.5 53.5l28 -17q-60 -94 -119.5 -142.5t-109.5 -48.5q-46 0 -56 27.5t14 86.5l95 234
q24 60 25.5 88.5t-23.5 28.5q-21 0 -56 -24t-73 -65.5t-73.5 -97.5t-58.5 -121l-46 -135l-113 -20z" />
    <glyph glyph-name="n" unicode="&#x146;" horiz-adv-x="612" 
d="M173 421q6 16 1 24t-29 12l-48 7l10 27l200 23l-74 -181h1q78 94 139 140t119 46q57 0 63 -45.5t-26 -124.5l-95 -234q-12 -29 -14.5 -45t9.5 -16q11 0 27.5 11.5t36 31t40 45t38.5 53.5l28 -17q-60 -94 -119.5 -142.5t-109.5 -48.5q-46 0 -56 27.5t14 86.5l95 234
q24 60 25.5 88.5t-23.5 28.5q-21 0 -56 -24t-73 -65.5t-73.5 -97.5t-58.5 -121l-46 -135l-113 -20z" />
    <glyph glyph-name="n" unicode="&#x144;" horiz-adv-x="612" 
d="M173 421q6 16 1 24t-29 12l-48 7l10 27l200 23l-74 -181h1q78 94 139 140t119 46q57 0 63 -45.5t-26 -124.5l-95 -234q-12 -29 -14.5 -45t9.5 -16q11 0 27.5 11.5t36 31t40 45t38.5 53.5l28 -17q-60 -94 -119.5 -142.5t-109.5 -48.5q-46 0 -56 27.5t14 86.5l95 234
q24 60 25.5 88.5t-23.5 28.5q-21 0 -56 -24t-73 -65.5t-73.5 -97.5t-58.5 -121l-46 -135l-113 -20z" />
    <glyph glyph-name="n" unicode="&#xf1;" horiz-adv-x="612" 
d="M173 421q6 16 1 24t-29 12l-48 7l10 27l200 23l-74 -181h1q78 94 139 140t119 46q57 0 63 -45.5t-26 -124.5l-95 -234q-12 -29 -14.5 -45t9.5 -16q11 0 27.5 11.5t36 31t40 45t38.5 53.5l28 -17q-60 -94 -119.5 -142.5t-109.5 -48.5q-46 0 -56 27.5t14 86.5l95 234
q24 60 25.5 88.5t-23.5 28.5q-21 0 -56 -24t-73 -65.5t-73.5 -97.5t-58.5 -121l-46 -135l-113 -20z" />
    <glyph glyph-name="o" unicode="o" horiz-adv-x="534" 
d="M174 -13q-42 0 -71 13.5t-47 35.5t-26 48.5t-8 53.5q0 46 15 92t41 88t60 79t72 64t77 42.5t76 15.5q42 0 71 -14t47 -35.5t26 -48.5t8 -54q0 -46 -15 -92t-40.5 -88t-59.5 -78.5t-72 -63.5t-77.5 -42.5t-76.5 -15.5zM199 28q31 0 58 18t50 47.5t41 67t30.5 76.5t19 75.5
t6.5 64.5q0 52 -16.5 76t-49.5 24q-31 0 -58 -18t-50 -47.5t-41 -67t-30.5 -76.5t-19 -75.5t-6.5 -64.5q0 -52 16.5 -76t49.5 -24z" />
    <glyph glyph-name="o" unicode="&#x1ecd;" horiz-adv-x="534" 
d="M174 -13q-42 0 -71 13.5t-47 35.5t-26 48.5t-8 53.5q0 46 15 92t41 88t60 79t72 64t77 42.5t76 15.5q42 0 71 -14t47 -35.5t26 -48.5t8 -54q0 -46 -15 -92t-40.5 -88t-59.5 -78.5t-72 -63.5t-77.5 -42.5t-76.5 -15.5zM199 28q31 0 58 18t50 47.5t41 67t30.5 76.5t19 75.5
t6.5 64.5q0 52 -16.5 76t-49.5 24q-31 0 -58 -18t-50 -47.5t-41 -67t-30.5 -76.5t-19 -75.5t-6.5 -64.5q0 -52 16.5 -76t49.5 -24z" />
    <glyph glyph-name="o" unicode="&#x153;" horiz-adv-x="534" 
d="M174 -13q-42 0 -71 13.5t-47 35.5t-26 48.5t-8 53.5q0 46 15 92t41 88t60 79t72 64t77 42.5t76 15.5q42 0 71 -14t47 -35.5t26 -48.5t8 -54q0 -46 -15 -92t-40.5 -88t-59.5 -78.5t-72 -63.5t-77.5 -42.5t-76.5 -15.5zM199 28q31 0 58 18t50 47.5t41 67t30.5 76.5t19 75.5
t6.5 64.5q0 52 -16.5 76t-49.5 24q-31 0 -58 -18t-50 -47.5t-41 -67t-30.5 -76.5t-19 -75.5t-6.5 -64.5q0 -52 16.5 -76t49.5 -24z" />
    <glyph glyph-name="o" unicode="&#x151;" horiz-adv-x="534" 
d="M174 -13q-42 0 -71 13.5t-47 35.5t-26 48.5t-8 53.5q0 46 15 92t41 88t60 79t72 64t77 42.5t76 15.5q42 0 71 -14t47 -35.5t26 -48.5t8 -54q0 -46 -15 -92t-40.5 -88t-59.5 -78.5t-72 -63.5t-77.5 -42.5t-76.5 -15.5zM199 28q31 0 58 18t50 47.5t41 67t30.5 76.5t19 75.5
t6.5 64.5q0 52 -16.5 76t-49.5 24q-31 0 -58 -18t-50 -47.5t-41 -67t-30.5 -76.5t-19 -75.5t-6.5 -64.5q0 -52 16.5 -76t49.5 -24z" />
    <glyph glyph-name="o" unicode="&#x14f;" horiz-adv-x="534" 
d="M174 -13q-42 0 -71 13.5t-47 35.5t-26 48.5t-8 53.5q0 46 15 92t41 88t60 79t72 64t77 42.5t76 15.5q42 0 71 -14t47 -35.5t26 -48.5t8 -54q0 -46 -15 -92t-40.5 -88t-59.5 -78.5t-72 -63.5t-77.5 -42.5t-76.5 -15.5zM199 28q31 0 58 18t50 47.5t41 67t30.5 76.5t19 75.5
t6.5 64.5q0 52 -16.5 76t-49.5 24q-31 0 -58 -18t-50 -47.5t-41 -67t-30.5 -76.5t-19 -75.5t-6.5 -64.5q0 -52 16.5 -76t49.5 -24z" />
    <glyph glyph-name="o" unicode="&#x14d;" horiz-adv-x="534" 
d="M174 -13q-42 0 -71 13.5t-47 35.5t-26 48.5t-8 53.5q0 46 15 92t41 88t60 79t72 64t77 42.5t76 15.5q42 0 71 -14t47 -35.5t26 -48.5t8 -54q0 -46 -15 -92t-40.5 -88t-59.5 -78.5t-72 -63.5t-77.5 -42.5t-76.5 -15.5zM199 28q31 0 58 18t50 47.5t41 67t30.5 76.5t19 75.5
t6.5 64.5q0 52 -16.5 76t-49.5 24q-31 0 -58 -18t-50 -47.5t-41 -67t-30.5 -76.5t-19 -75.5t-6.5 -64.5q0 -52 16.5 -76t49.5 -24z" />
    <glyph glyph-name="o" unicode="&#xf8;" horiz-adv-x="534" 
d="M174 -13q-42 0 -71 13.5t-47 35.5t-26 48.5t-8 53.5q0 46 15 92t41 88t60 79t72 64t77 42.5t76 15.5q42 0 71 -14t47 -35.5t26 -48.5t8 -54q0 -46 -15 -92t-40.5 -88t-59.5 -78.5t-72 -63.5t-77.5 -42.5t-76.5 -15.5zM199 28q31 0 58 18t50 47.5t41 67t30.5 76.5t19 75.5
t6.5 64.5q0 52 -16.5 76t-49.5 24q-31 0 -58 -18t-50 -47.5t-41 -67t-30.5 -76.5t-19 -75.5t-6.5 -64.5q0 -52 16.5 -76t49.5 -24z" />
    <glyph glyph-name="o" unicode="&#xf6;" horiz-adv-x="534" 
d="M174 -13q-42 0 -71 13.5t-47 35.5t-26 48.5t-8 53.5q0 46 15 92t41 88t60 79t72 64t77 42.5t76 15.5q42 0 71 -14t47 -35.5t26 -48.5t8 -54q0 -46 -15 -92t-40.5 -88t-59.5 -78.5t-72 -63.5t-77.5 -42.5t-76.5 -15.5zM199 28q31 0 58 18t50 47.5t41 67t30.5 76.5t19 75.5
t6.5 64.5q0 52 -16.5 76t-49.5 24q-31 0 -58 -18t-50 -47.5t-41 -67t-30.5 -76.5t-19 -75.5t-6.5 -64.5q0 -52 16.5 -76t49.5 -24z" />
    <glyph glyph-name="o" unicode="&#xf5;" horiz-adv-x="534" 
d="M174 -13q-42 0 -71 13.5t-47 35.5t-26 48.5t-8 53.5q0 46 15 92t41 88t60 79t72 64t77 42.5t76 15.5q42 0 71 -14t47 -35.5t26 -48.5t8 -54q0 -46 -15 -92t-40.5 -88t-59.5 -78.5t-72 -63.5t-77.5 -42.5t-76.5 -15.5zM199 28q31 0 58 18t50 47.5t41 67t30.5 76.5t19 75.5
t6.5 64.5q0 52 -16.5 76t-49.5 24q-31 0 -58 -18t-50 -47.5t-41 -67t-30.5 -76.5t-19 -75.5t-6.5 -64.5q0 -52 16.5 -76t49.5 -24z" />
    <glyph glyph-name="o" unicode="&#xf4;" horiz-adv-x="534" 
d="M174 -13q-42 0 -71 13.5t-47 35.5t-26 48.5t-8 53.5q0 46 15 92t41 88t60 79t72 64t77 42.5t76 15.5q42 0 71 -14t47 -35.5t26 -48.5t8 -54q0 -46 -15 -92t-40.5 -88t-59.5 -78.5t-72 -63.5t-77.5 -42.5t-76.5 -15.5zM199 28q31 0 58 18t50 47.5t41 67t30.5 76.5t19 75.5
t6.5 64.5q0 52 -16.5 76t-49.5 24q-31 0 -58 -18t-50 -47.5t-41 -67t-30.5 -76.5t-19 -75.5t-6.5 -64.5q0 -52 16.5 -76t49.5 -24z" />
    <glyph glyph-name="o" unicode="&#xf3;" horiz-adv-x="534" 
d="M174 -13q-42 0 -71 13.5t-47 35.5t-26 48.5t-8 53.5q0 46 15 92t41 88t60 79t72 64t77 42.5t76 15.5q42 0 71 -14t47 -35.5t26 -48.5t8 -54q0 -46 -15 -92t-40.5 -88t-59.5 -78.5t-72 -63.5t-77.5 -42.5t-76.5 -15.5zM199 28q31 0 58 18t50 47.5t41 67t30.5 76.5t19 75.5
t6.5 64.5q0 52 -16.5 76t-49.5 24q-31 0 -58 -18t-50 -47.5t-41 -67t-30.5 -76.5t-19 -75.5t-6.5 -64.5q0 -52 16.5 -76t49.5 -24z" />
    <glyph glyph-name="o" unicode="&#xf2;" horiz-adv-x="534" 
d="M174 -13q-42 0 -71 13.5t-47 35.5t-26 48.5t-8 53.5q0 46 15 92t41 88t60 79t72 64t77 42.5t76 15.5q42 0 71 -14t47 -35.5t26 -48.5t8 -54q0 -46 -15 -92t-40.5 -88t-59.5 -78.5t-72 -63.5t-77.5 -42.5t-76.5 -15.5zM199 28q31 0 58 18t50 47.5t41 67t30.5 76.5t19 75.5
t6.5 64.5q0 52 -16.5 76t-49.5 24q-31 0 -58 -18t-50 -47.5t-41 -67t-30.5 -76.5t-19 -75.5t-6.5 -64.5q0 -52 16.5 -76t49.5 -24z" />
    <glyph glyph-name="p" unicode="p" horiz-adv-x="569" 
d="M255 403h1q21 24 45 45t49.5 37t51 25t49.5 9q61 0 87 -34.5t24 -89.5q-2 -44 -18.5 -91.5t-44 -93t-63 -86t-74.5 -71t-79.5 -48.5t-77.5 -18q-22 0 -43 7.5t-35 23.5l-91 -266h-96l227 669q5 16 0.5 24t-28.5 12l-49 7l11 27l197 23zM214 25q31 0 60 16t54.5 43
t46.5 62.5t37 73.5t25 76.5t11 72.5q2 42 -11.5 66t-42.5 24q-32 0 -71.5 -27.5t-80.5 -76.5l-84 -247q-14 -41 5.5 -62t50.5 -21z" />
    <glyph glyph-name="p" unicode="&#xfe;" horiz-adv-x="569" 
d="M255 403h1q21 24 45 45t49.5 37t51 25t49.5 9q61 0 87 -34.5t24 -89.5q-2 -44 -18.5 -91.5t-44 -93t-63 -86t-74.5 -71t-79.5 -48.5t-77.5 -18q-22 0 -43 7.5t-35 23.5l-91 -266h-96l227 669q5 16 0.5 24t-28.5 12l-49 7l11 27l197 23zM214 25q31 0 60 16t54.5 43
t46.5 62.5t37 73.5t25 76.5t11 72.5q2 42 -11.5 66t-42.5 24q-32 0 -71.5 -27.5t-80.5 -76.5l-84 -247q-14 -41 5.5 -62t50.5 -21z" />
    <glyph glyph-name="q" unicode="q" horiz-adv-x="546" 
d="M460 527h94l-264 -775h-96l104 309q3 9 11 29.5t17 41.5t16.5 38t8.5 20h-2q-78 -104 -142.5 -153.5t-117.5 -49.5q-45 0 -68 27t-23 68q0 40 18.5 88.5t49 97t70 94t82 80.5t85 56t79.5 21q22 0 38.5 -9.5t24.5 -25.5zM145 50q20 0 54.5 24t72 64.5t71.5 93.5t53 111
l16 48q9 27 7.5 44.5t-9 27.5t-19 14t-21.5 4q-40 0 -85 -36t-82.5 -91t-62 -120t-24.5 -123q0 -29 6.5 -45t22.5 -16z" />
    <glyph glyph-name="r" unicode="r" horiz-adv-x="445" 
d="M173 421q6 16 1 24t-29 12l-48 7l10 27l199 23q-28 -67 -52 -122q-10 -24 -20 -47.5t-19 -44t-15 -35.5t-9 -21h2q32 60 64 106.5t60 81.5q35 45 66.5 65t61.5 20q27 0 44.5 -14.5t17.5 -37.5q0 -26 -15 -42.5t-35 -16.5q-13 0 -22 4t-17 8.5t-16.5 8.5t-20.5 4
q-16 0 -31.5 -12.5t-32.5 -34.5q-35 -42 -80.5 -113t-86.5 -169l-30 -93l-115 -20z" />
    <glyph glyph-name="r" unicode="&#x159;" horiz-adv-x="445" 
d="M173 421q6 16 1 24t-29 12l-48 7l10 27l199 23q-28 -67 -52 -122q-10 -24 -20 -47.5t-19 -44t-15 -35.5t-9 -21h2q32 60 64 106.5t60 81.5q35 45 66.5 65t61.5 20q27 0 44.5 -14.5t17.5 -37.5q0 -26 -15 -42.5t-35 -16.5q-13 0 -22 4t-17 8.5t-16.5 8.5t-20.5 4
q-16 0 -31.5 -12.5t-32.5 -34.5q-35 -42 -80.5 -113t-86.5 -169l-30 -93l-115 -20z" />
    <glyph glyph-name="r" unicode="&#x157;" horiz-adv-x="445" 
d="M173 421q6 16 1 24t-29 12l-48 7l10 27l199 23q-28 -67 -52 -122q-10 -24 -20 -47.5t-19 -44t-15 -35.5t-9 -21h2q32 60 64 106.5t60 81.5q35 45 66.5 65t61.5 20q27 0 44.5 -14.5t17.5 -37.5q0 -26 -15 -42.5t-35 -16.5q-13 0 -22 4t-17 8.5t-16.5 8.5t-20.5 4
q-16 0 -31.5 -12.5t-32.5 -34.5q-35 -42 -80.5 -113t-86.5 -169l-30 -93l-115 -20z" />
    <glyph glyph-name="r" unicode="&#x155;" horiz-adv-x="445" 
d="M173 421q6 16 1 24t-29 12l-48 7l10 27l199 23q-28 -67 -52 -122q-10 -24 -20 -47.5t-19 -44t-15 -35.5t-9 -21h2q32 60 64 106.5t60 81.5q35 45 66.5 65t61.5 20q27 0 44.5 -14.5t17.5 -37.5q0 -26 -15 -42.5t-35 -16.5q-13 0 -22 4t-17 8.5t-16.5 8.5t-20.5 4
q-16 0 -31.5 -12.5t-32.5 -34.5q-35 -42 -80.5 -113t-86.5 -169l-30 -93l-115 -20z" />
    <glyph glyph-name="s" unicode="s" horiz-adv-x="402" 
d="M104 -13q-25 0 -47 6t-38.5 16.5t-26 25t-9.5 31.5q0 18 13.5 33.5t39.5 15.5q21 0 32.5 -13.5t22.5 -29.5t25 -29.5t40 -13.5q32 0 53 17.5t21 46.5q0 18 -9 41.5t-28 49.5l-46 64q-19 26 -30 55.5t-11 58.5q0 36 17.5 65t45 49.5t62 31.5t68.5 11q22 0 42.5 -5.5
t36.5 -15t26 -22.5t10 -29q0 -23 -14.5 -37t-36.5 -14q-20 0 -29.5 12.5t-19.5 27.5t-24 27.5t-43 12.5t-47 -15t-18 -40q0 -20 9.5 -41.5t29.5 -50.5l44 -64q25 -36 36.5 -62.5t11.5 -57.5q0 -35 -18.5 -64t-48 -50t-67 -32.5t-75.5 -11.5z" />
    <glyph glyph-name="s" unicode="&#x219;" horiz-adv-x="402" 
d="M104 -13q-25 0 -47 6t-38.5 16.5t-26 25t-9.5 31.5q0 18 13.5 33.5t39.5 15.5q21 0 32.5 -13.5t22.5 -29.5t25 -29.5t40 -13.5q32 0 53 17.5t21 46.5q0 18 -9 41.5t-28 49.5l-46 64q-19 26 -30 55.5t-11 58.5q0 36 17.5 65t45 49.5t62 31.5t68.5 11q22 0 42.5 -5.5
t36.5 -15t26 -22.5t10 -29q0 -23 -14.5 -37t-36.5 -14q-20 0 -29.5 12.5t-19.5 27.5t-24 27.5t-43 12.5t-47 -15t-18 -40q0 -20 9.5 -41.5t29.5 -50.5l44 -64q25 -36 36.5 -62.5t11.5 -57.5q0 -35 -18.5 -64t-48 -50t-67 -32.5t-75.5 -11.5z" />
    <glyph glyph-name="s" unicode="&#x161;" horiz-adv-x="402" 
d="M104 -13q-25 0 -47 6t-38.5 16.5t-26 25t-9.5 31.5q0 18 13.5 33.5t39.5 15.5q21 0 32.5 -13.5t22.5 -29.5t25 -29.5t40 -13.5q32 0 53 17.5t21 46.5q0 18 -9 41.5t-28 49.5l-46 64q-19 26 -30 55.5t-11 58.5q0 36 17.5 65t45 49.5t62 31.5t68.5 11q22 0 42.5 -5.5
t36.5 -15t26 -22.5t10 -29q0 -23 -14.5 -37t-36.5 -14q-20 0 -29.5 12.5t-19.5 27.5t-24 27.5t-43 12.5t-47 -15t-18 -40q0 -20 9.5 -41.5t29.5 -50.5l44 -64q25 -36 36.5 -62.5t11.5 -57.5q0 -35 -18.5 -64t-48 -50t-67 -32.5t-75.5 -11.5z" />
    <glyph glyph-name="s" unicode="&#x15f;" horiz-adv-x="402" 
d="M104 -13q-25 0 -47 6t-38.5 16.5t-26 25t-9.5 31.5q0 18 13.5 33.5t39.5 15.5q21 0 32.5 -13.5t22.5 -29.5t25 -29.5t40 -13.5q32 0 53 17.5t21 46.5q0 18 -9 41.5t-28 49.5l-46 64q-19 26 -30 55.5t-11 58.5q0 36 17.5 65t45 49.5t62 31.5t68.5 11q22 0 42.5 -5.5
t36.5 -15t26 -22.5t10 -29q0 -23 -14.5 -37t-36.5 -14q-20 0 -29.5 12.5t-19.5 27.5t-24 27.5t-43 12.5t-47 -15t-18 -40q0 -20 9.5 -41.5t29.5 -50.5l44 -64q25 -36 36.5 -62.5t11.5 -57.5q0 -35 -18.5 -64t-48 -50t-67 -32.5t-75.5 -11.5z" />
    <glyph glyph-name="s" unicode="&#x15d;" horiz-adv-x="402" 
d="M104 -13q-25 0 -47 6t-38.5 16.5t-26 25t-9.5 31.5q0 18 13.5 33.5t39.5 15.5q21 0 32.5 -13.5t22.5 -29.5t25 -29.5t40 -13.5q32 0 53 17.5t21 46.5q0 18 -9 41.5t-28 49.5l-46 64q-19 26 -30 55.5t-11 58.5q0 36 17.5 65t45 49.5t62 31.5t68.5 11q22 0 42.5 -5.5
t36.5 -15t26 -22.5t10 -29q0 -23 -14.5 -37t-36.5 -14q-20 0 -29.5 12.5t-19.5 27.5t-24 27.5t-43 12.5t-47 -15t-18 -40q0 -20 9.5 -41.5t29.5 -50.5l44 -64q25 -36 36.5 -62.5t11.5 -57.5q0 -35 -18.5 -64t-48 -50t-67 -32.5t-75.5 -11.5z" />
    <glyph glyph-name="s" unicode="&#x15b;" horiz-adv-x="402" 
d="M104 -13q-25 0 -47 6t-38.5 16.5t-26 25t-9.5 31.5q0 18 13.5 33.5t39.5 15.5q21 0 32.5 -13.5t22.5 -29.5t25 -29.5t40 -13.5q32 0 53 17.5t21 46.5q0 18 -9 41.5t-28 49.5l-46 64q-19 26 -30 55.5t-11 58.5q0 36 17.5 65t45 49.5t62 31.5t68.5 11q22 0 42.5 -5.5
t36.5 -15t26 -22.5t10 -29q0 -23 -14.5 -37t-36.5 -14q-20 0 -29.5 12.5t-19.5 27.5t-24 27.5t-43 12.5t-47 -15t-18 -40q0 -20 9.5 -41.5t29.5 -50.5l44 -64q25 -36 36.5 -62.5t11.5 -57.5q0 -35 -18.5 -64t-48 -50t-67 -32.5t-75.5 -11.5z" />
    <glyph glyph-name="s" unicode="&#xdf;" horiz-adv-x="402" 
d="M104 -13q-25 0 -47 6t-38.5 16.5t-26 25t-9.5 31.5q0 18 13.5 33.5t39.5 15.5q21 0 32.5 -13.5t22.5 -29.5t25 -29.5t40 -13.5q32 0 53 17.5t21 46.5q0 18 -9 41.5t-28 49.5l-46 64q-19 26 -30 55.5t-11 58.5q0 36 17.5 65t45 49.5t62 31.5t68.5 11q22 0 42.5 -5.5
t36.5 -15t26 -22.5t10 -29q0 -23 -14.5 -37t-36.5 -14q-20 0 -29.5 12.5t-19.5 27.5t-24 27.5t-43 12.5t-47 -15t-18 -40q0 -20 9.5 -41.5t29.5 -50.5l44 -64q25 -36 36.5 -62.5t11.5 -57.5q0 -35 -18.5 -64t-48 -50t-67 -32.5t-75.5 -11.5z" />
    <glyph glyph-name="t" unicode="t" horiz-adv-x="384" 
d="M153 115q-11 -30 -10 -45.5t19 -15.5q12 0 30.5 11.5t39.5 31t42.5 45t39.5 53.5l28 -17q-60 -94 -123.5 -142.5t-115.5 -48.5q-47 0 -61 27t9 87l132 346h-105l20 55h106l40 101h95l-38 -101h138l-21 -55h-138z" />
    <glyph glyph-name="t" unicode="&#x21b;" horiz-adv-x="384" 
d="M153 115q-11 -30 -10 -45.5t19 -15.5q12 0 30.5 11.5t39.5 31t42.5 45t39.5 53.5l28 -17q-60 -94 -123.5 -142.5t-115.5 -48.5q-47 0 -61 27t9 87l132 346h-105l20 55h106l40 101h95l-38 -101h138l-21 -55h-138z" />
    <glyph glyph-name="t" unicode="&#x167;" horiz-adv-x="384" 
d="M153 115q-11 -30 -10 -45.5t19 -15.5q12 0 30.5 11.5t39.5 31t42.5 45t39.5 53.5l28 -17q-60 -94 -123.5 -142.5t-115.5 -48.5q-47 0 -61 27t9 87l132 346h-105l20 55h106l40 101h95l-38 -101h138l-21 -55h-138z" />
    <glyph glyph-name="t" unicode="&#x165;" horiz-adv-x="384" 
d="M153 115q-11 -30 -10 -45.5t19 -15.5q12 0 30.5 11.5t39.5 31t42.5 45t39.5 53.5l28 -17q-60 -94 -123.5 -142.5t-115.5 -48.5q-47 0 -61 27t9 87l132 346h-105l20 55h106l40 101h95l-38 -101h138l-21 -55h-138z" />
    <glyph glyph-name="t" unicode="&#x163;" horiz-adv-x="384" 
d="M153 115q-11 -30 -10 -45.5t19 -15.5q12 0 30.5 11.5t39.5 31t42.5 45t39.5 53.5l28 -17q-60 -94 -123.5 -142.5t-115.5 -48.5q-47 0 -61 27t9 87l132 346h-105l20 55h106l40 101h95l-38 -101h138l-21 -55h-138z" />
    <glyph glyph-name="u" unicode="u" horiz-adv-x="611" 
d="M171 170q-24 -60 -25.5 -88.5t23.5 -28.5q22 0 57.5 24t74 68t75.5 105.5t63 136.5l36 105l114 24l-155 -401q-11 -29 -13.5 -45t9.5 -16q10 0 27 11.5t36 31t39.5 45t38.5 53.5l29 -17q-61 -94 -120.5 -142.5t-108.5 -48.5q-47 0 -52 27.5t17 86.5l27 72h-2
q-76 -93 -138.5 -139.5t-120.5 -46.5q-56 0 -62.5 45t25.5 124l108 265q7 16 1.5 24t-29.5 12l-48 7l10 27l204 23z" />
    <glyph glyph-name="u" unicode="&#x1ee5;" horiz-adv-x="611" 
d="M171 170q-24 -60 -25.5 -88.5t23.5 -28.5q22 0 57.5 24t74 68t75.5 105.5t63 136.5l36 105l114 24l-155 -401q-11 -29 -13.5 -45t9.5 -16q10 0 27 11.5t36 31t39.5 45t38.5 53.5l29 -17q-61 -94 -120.5 -142.5t-108.5 -48.5q-47 0 -52 27.5t17 86.5l27 72h-2
q-76 -93 -138.5 -139.5t-120.5 -46.5q-56 0 -62.5 45t25.5 124l108 265q7 16 1.5 24t-29.5 12l-48 7l10 27l204 23z" />
    <glyph glyph-name="u" unicode="&#x173;" horiz-adv-x="611" 
d="M171 170q-24 -60 -25.5 -88.5t23.5 -28.5q22 0 57.5 24t74 68t75.5 105.5t63 136.5l36 105l114 24l-155 -401q-11 -29 -13.5 -45t9.5 -16q10 0 27 11.5t36 31t39.5 45t38.5 53.5l29 -17q-61 -94 -120.5 -142.5t-108.5 -48.5q-47 0 -52 27.5t17 86.5l27 72h-2
q-76 -93 -138.5 -139.5t-120.5 -46.5q-56 0 -62.5 45t25.5 124l108 265q7 16 1.5 24t-29.5 12l-48 7l10 27l204 23z" />
    <glyph glyph-name="u" unicode="&#x171;" horiz-adv-x="611" 
d="M171 170q-24 -60 -25.5 -88.5t23.5 -28.5q22 0 57.5 24t74 68t75.5 105.5t63 136.5l36 105l114 24l-155 -401q-11 -29 -13.5 -45t9.5 -16q10 0 27 11.5t36 31t39.5 45t38.5 53.5l29 -17q-61 -94 -120.5 -142.5t-108.5 -48.5q-47 0 -52 27.5t17 86.5l27 72h-2
q-76 -93 -138.5 -139.5t-120.5 -46.5q-56 0 -62.5 45t25.5 124l108 265q7 16 1.5 24t-29.5 12l-48 7l10 27l204 23z" />
    <glyph glyph-name="u" unicode="&#x16f;" horiz-adv-x="611" 
d="M171 170q-24 -60 -25.5 -88.5t23.5 -28.5q22 0 57.5 24t74 68t75.5 105.5t63 136.5l36 105l114 24l-155 -401q-11 -29 -13.5 -45t9.5 -16q10 0 27 11.5t36 31t39.5 45t38.5 53.5l29 -17q-61 -94 -120.5 -142.5t-108.5 -48.5q-47 0 -52 27.5t17 86.5l27 72h-2
q-76 -93 -138.5 -139.5t-120.5 -46.5q-56 0 -62.5 45t25.5 124l108 265q7 16 1.5 24t-29.5 12l-48 7l10 27l204 23z" />
    <glyph glyph-name="u" unicode="&#x16d;" horiz-adv-x="611" 
d="M171 170q-24 -60 -25.5 -88.5t23.5 -28.5q22 0 57.5 24t74 68t75.5 105.5t63 136.5l36 105l114 24l-155 -401q-11 -29 -13.5 -45t9.5 -16q10 0 27 11.5t36 31t39.5 45t38.5 53.5l29 -17q-61 -94 -120.5 -142.5t-108.5 -48.5q-47 0 -52 27.5t17 86.5l27 72h-2
q-76 -93 -138.5 -139.5t-120.5 -46.5q-56 0 -62.5 45t25.5 124l108 265q7 16 1.5 24t-29.5 12l-48 7l10 27l204 23z" />
    <glyph glyph-name="u" unicode="&#x16b;" horiz-adv-x="611" 
d="M171 170q-24 -60 -25.5 -88.5t23.5 -28.5q22 0 57.5 24t74 68t75.5 105.5t63 136.5l36 105l114 24l-155 -401q-11 -29 -13.5 -45t9.5 -16q10 0 27 11.5t36 31t39.5 45t38.5 53.5l29 -17q-61 -94 -120.5 -142.5t-108.5 -48.5q-47 0 -52 27.5t17 86.5l27 72h-2
q-76 -93 -138.5 -139.5t-120.5 -46.5q-56 0 -62.5 45t25.5 124l108 265q7 16 1.5 24t-29.5 12l-48 7l10 27l204 23z" />
    <glyph glyph-name="u" unicode="&#x169;" horiz-adv-x="611" 
d="M171 170q-24 -60 -25.5 -88.5t23.5 -28.5q22 0 57.5 24t74 68t75.5 105.5t63 136.5l36 105l114 24l-155 -401q-11 -29 -13.5 -45t9.5 -16q10 0 27 11.5t36 31t39.5 45t38.5 53.5l29 -17q-61 -94 -120.5 -142.5t-108.5 -48.5q-47 0 -52 27.5t17 86.5l27 72h-2
q-76 -93 -138.5 -139.5t-120.5 -46.5q-56 0 -62.5 45t25.5 124l108 265q7 16 1.5 24t-29.5 12l-48 7l10 27l204 23z" />
    <glyph glyph-name="u" unicode="&#xfc;" horiz-adv-x="611" 
d="M171 170q-24 -60 -25.5 -88.5t23.5 -28.5q22 0 57.5 24t74 68t75.5 105.5t63 136.5l36 105l114 24l-155 -401q-11 -29 -13.5 -45t9.5 -16q10 0 27 11.5t36 31t39.5 45t38.5 53.5l29 -17q-61 -94 -120.5 -142.5t-108.5 -48.5q-47 0 -52 27.5t17 86.5l27 72h-2
q-76 -93 -138.5 -139.5t-120.5 -46.5q-56 0 -62.5 45t25.5 124l108 265q7 16 1.5 24t-29.5 12l-48 7l10 27l204 23z" />
    <glyph glyph-name="u" unicode="&#xfb;" horiz-adv-x="611" 
d="M171 170q-24 -60 -25.5 -88.5t23.5 -28.5q22 0 57.5 24t74 68t75.5 105.5t63 136.5l36 105l114 24l-155 -401q-11 -29 -13.5 -45t9.5 -16q10 0 27 11.5t36 31t39.5 45t38.5 53.5l29 -17q-61 -94 -120.5 -142.5t-108.5 -48.5q-47 0 -52 27.5t17 86.5l27 72h-2
q-76 -93 -138.5 -139.5t-120.5 -46.5q-56 0 -62.5 45t25.5 124l108 265q7 16 1.5 24t-29.5 12l-48 7l10 27l204 23z" />
    <glyph glyph-name="u" unicode="&#xfa;" horiz-adv-x="611" 
d="M171 170q-24 -60 -25.5 -88.5t23.5 -28.5q22 0 57.5 24t74 68t75.5 105.5t63 136.5l36 105l114 24l-155 -401q-11 -29 -13.5 -45t9.5 -16q10 0 27 11.5t36 31t39.5 45t38.5 53.5l29 -17q-61 -94 -120.5 -142.5t-108.5 -48.5q-47 0 -52 27.5t17 86.5l27 72h-2
q-76 -93 -138.5 -139.5t-120.5 -46.5q-56 0 -62.5 45t25.5 124l108 265q7 16 1.5 24t-29.5 12l-48 7l10 27l204 23z" />
    <glyph glyph-name="u" unicode="&#xf9;" horiz-adv-x="611" 
d="M171 170q-24 -60 -25.5 -88.5t23.5 -28.5q22 0 57.5 24t74 68t75.5 105.5t63 136.5l36 105l114 24l-155 -401q-11 -29 -13.5 -45t9.5 -16q10 0 27 11.5t36 31t39.5 45t38.5 53.5l29 -17q-61 -94 -120.5 -142.5t-108.5 -48.5q-47 0 -52 27.5t17 86.5l27 72h-2
q-76 -93 -138.5 -139.5t-120.5 -46.5q-56 0 -62.5 45t25.5 124l108 265q7 16 1.5 24t-29.5 12l-48 7l10 27l204 23z" />
    <glyph glyph-name="v" unicode="v" horiz-adv-x="505" 
d="M92 0q6 117 19 226.5t38 194.5q5 17 0.5 24.5t-28.5 11.5l-48 7l10 27l187 22q-13 -42 -25 -93t-22.5 -105t-17.5 -108t-10 -100q36 36 72 70.5t68 67.5t58.5 65t43.5 62q6 12 7 24.5t-1 24.5t-4.5 23.5t-2.5 20.5q0 29 19 41.5t39 12.5q24 0 39 -15t15 -38
q0 -29 -21 -62.5t-58 -75.5q-41 -47 -79.5 -85.5t-77.5 -76t-79 -77.5t-84 -89h-57z" />
    <glyph glyph-name="w" unicode="w" horiz-adv-x="759" 
d="M75 0q9 117 27 227t43 194q5 17 0.5 24.5t-28.5 11.5l-48 7l10 27l187 22q-13 -42 -26.5 -93.5t-25.5 -106t-21 -108t-12 -99.5q64 51 116 112.5t94 118.5q4 38 8 71.5t9 61.5l98 45q-15 -93 -24.5 -193t-14.5 -213q33 36 65.5 69.5t61.5 65t52.5 63.5t38.5 65
q5 11 5.5 23.5t-1 25t-4 24t-2.5 20.5q0 29 19 41.5t39 12.5q24 0 39 -15t15 -38q0 -29 -20.5 -62t-54.5 -76q-39 -51 -75 -89.5t-71 -75t-72 -75t-78 -88.5h-55q2 54 6 124.5t10 142.5q-26 -33 -58.5 -68.5t-67 -70.5t-69 -68t-64.5 -60h-51z" />
    <glyph glyph-name="w" unicode="&#x1e85;" horiz-adv-x="759" 
d="M75 0q9 117 27 227t43 194q5 17 0.5 24.5t-28.5 11.5l-48 7l10 27l187 22q-13 -42 -26.5 -93.5t-25.5 -106t-21 -108t-12 -99.5q64 51 116 112.5t94 118.5q4 38 8 71.5t9 61.5l98 45q-15 -93 -24.5 -193t-14.5 -213q33 36 65.5 69.5t61.5 65t52.5 63.5t38.5 65
q5 11 5.5 23.5t-1 25t-4 24t-2.5 20.5q0 29 19 41.5t39 12.5q24 0 39 -15t15 -38q0 -29 -20.5 -62t-54.5 -76q-39 -51 -75 -89.5t-71 -75t-72 -75t-78 -88.5h-55q2 54 6 124.5t10 142.5q-26 -33 -58.5 -68.5t-67 -70.5t-69 -68t-64.5 -60h-51z" />
    <glyph glyph-name="w" unicode="&#x1e83;" horiz-adv-x="759" 
d="M75 0q9 117 27 227t43 194q5 17 0.5 24.5t-28.5 11.5l-48 7l10 27l187 22q-13 -42 -26.5 -93.5t-25.5 -106t-21 -108t-12 -99.5q64 51 116 112.5t94 118.5q4 38 8 71.5t9 61.5l98 45q-15 -93 -24.5 -193t-14.5 -213q33 36 65.5 69.5t61.5 65t52.5 63.5t38.5 65
q5 11 5.5 23.5t-1 25t-4 24t-2.5 20.5q0 29 19 41.5t39 12.5q24 0 39 -15t15 -38q0 -29 -20.5 -62t-54.5 -76q-39 -51 -75 -89.5t-71 -75t-72 -75t-78 -88.5h-55q2 54 6 124.5t10 142.5q-26 -33 -58.5 -68.5t-67 -70.5t-69 -68t-64.5 -60h-51z" />
    <glyph glyph-name="w" unicode="&#x1e81;" horiz-adv-x="759" 
d="M75 0q9 117 27 227t43 194q5 17 0.5 24.5t-28.5 11.5l-48 7l10 27l187 22q-13 -42 -26.5 -93.5t-25.5 -106t-21 -108t-12 -99.5q64 51 116 112.5t94 118.5q4 38 8 71.5t9 61.5l98 45q-15 -93 -24.5 -193t-14.5 -213q33 36 65.5 69.5t61.5 65t52.5 63.5t38.5 65
q5 11 5.5 23.5t-1 25t-4 24t-2.5 20.5q0 29 19 41.5t39 12.5q24 0 39 -15t15 -38q0 -29 -20.5 -62t-54.5 -76q-39 -51 -75 -89.5t-71 -75t-72 -75t-78 -88.5h-55q2 54 6 124.5t10 142.5q-26 -33 -58.5 -68.5t-67 -70.5t-69 -68t-64.5 -60h-51z" />
    <glyph glyph-name="w" unicode="&#x175;" horiz-adv-x="759" 
d="M75 0q9 117 27 227t43 194q5 17 0.5 24.5t-28.5 11.5l-48 7l10 27l187 22q-13 -42 -26.5 -93.5t-25.5 -106t-21 -108t-12 -99.5q64 51 116 112.5t94 118.5q4 38 8 71.5t9 61.5l98 45q-15 -93 -24.5 -193t-14.5 -213q33 36 65.5 69.5t61.5 65t52.5 63.5t38.5 65
q5 11 5.5 23.5t-1 25t-4 24t-2.5 20.5q0 29 19 41.5t39 12.5q24 0 39 -15t15 -38q0 -29 -20.5 -62t-54.5 -76q-39 -51 -75 -89.5t-71 -75t-72 -75t-78 -88.5h-55q2 54 6 124.5t10 142.5q-26 -33 -58.5 -68.5t-67 -70.5t-69 -68t-64.5 -60h-51z" />
    <glyph glyph-name="x" unicode="x" horiz-adv-x="594" 
d="M-35 52q0 23 15 36t33 13q14 0 25 -7t20.5 -15.5t19 -15.5t20.5 -7t20 8q6 5 17 15.5t27.5 29.5t39.5 49t53 75l-17 144q-5 46 -12.5 62t-21.5 16q-18 0 -47.5 -28.5t-61.5 -69.5l-27 20q54 70 102.5 106t91.5 36q16 0 27 -5t18 -18t12 -34.5t9 -54.5l9 -78
q37 58 67.5 95t56 58t47.5 29t43 8q34 0 57 -18.5t23 -47.5q0 -23 -15 -36t-34 -13q-14 0 -25 7t-20.5 16t-18.5 16t-20 7t-21 -9q-6 -5 -16.5 -14.5t-26.5 -28.5t-38 -48.5t-52 -73.5l18 -147q6 -47 12.5 -62.5t20.5 -15.5q18 0 47 28.5t62 69.5l26 -20
q-53 -70 -101.5 -106t-91.5 -36q-17 0 -27.5 5t-18 18t-12 34t-8.5 54l-10 84q-38 -60 -68.5 -98t-56.5 -59.5t-48 -29.5t-44 -8q-33 0 -56 18t-23 47z" />
    <glyph glyph-name="y" unicode="y" horiz-adv-x="536" 
d="M-93 -267q-26 0 -38 13.5t-12 30.5q0 28 16 36t39 9t48.5 1.5t43.5 13.5q37 26 72.5 67t73.5 98l-3 419q0 18 -4.5 25.5t-23.5 10.5l-48 7l10 27l165 22l-2 -381l147 205q37 52 63.5 87t47.5 56t38.5 30t35.5 9q20 0 33 -11t13 -31q0 -17 -10 -32.5t-38 -24.5
q-23 -8 -42.5 -16.5t-38.5 -22.5t-39 -35.5t-44 -54.5l-198 -279q-17 -24 -38.5 -52.5t-45 -57t-48 -55.5t-48.5 -48q-22 -19 -38.5 -31.5t-31 -20t-27.5 -11t-28 -3.5z" />
    <glyph glyph-name="y" unicode="&#x1ef3;" horiz-adv-x="536" 
d="M-93 -267q-26 0 -38 13.5t-12 30.5q0 28 16 36t39 9t48.5 1.5t43.5 13.5q37 26 72.5 67t73.5 98l-3 419q0 18 -4.5 25.5t-23.5 10.5l-48 7l10 27l165 22l-2 -381l147 205q37 52 63.5 87t47.5 56t38.5 30t35.5 9q20 0 33 -11t13 -31q0 -17 -10 -32.5t-38 -24.5
q-23 -8 -42.5 -16.5t-38.5 -22.5t-39 -35.5t-44 -54.5l-198 -279q-17 -24 -38.5 -52.5t-45 -57t-48 -55.5t-48.5 -48q-22 -19 -38.5 -31.5t-31 -20t-27.5 -11t-28 -3.5z" />
    <glyph glyph-name="y" unicode="&#x233;" horiz-adv-x="536" 
d="M-93 -267q-26 0 -38 13.5t-12 30.5q0 28 16 36t39 9t48.5 1.5t43.5 13.5q37 26 72.5 67t73.5 98l-3 419q0 18 -4.5 25.5t-23.5 10.5l-48 7l10 27l165 22l-2 -381l147 205q37 52 63.5 87t47.5 56t38.5 30t35.5 9q20 0 33 -11t13 -31q0 -17 -10 -32.5t-38 -24.5
q-23 -8 -42.5 -16.5t-38.5 -22.5t-39 -35.5t-44 -54.5l-198 -279q-17 -24 -38.5 -52.5t-45 -57t-48 -55.5t-48.5 -48q-22 -19 -38.5 -31.5t-31 -20t-27.5 -11t-28 -3.5z" />
    <glyph glyph-name="y" unicode="&#x177;" horiz-adv-x="536" 
d="M-93 -267q-26 0 -38 13.5t-12 30.5q0 28 16 36t39 9t48.5 1.5t43.5 13.5q37 26 72.5 67t73.5 98l-3 419q0 18 -4.5 25.5t-23.5 10.5l-48 7l10 27l165 22l-2 -381l147 205q37 52 63.5 87t47.5 56t38.5 30t35.5 9q20 0 33 -11t13 -31q0 -17 -10 -32.5t-38 -24.5
q-23 -8 -42.5 -16.5t-38.5 -22.5t-39 -35.5t-44 -54.5l-198 -279q-17 -24 -38.5 -52.5t-45 -57t-48 -55.5t-48.5 -48q-22 -19 -38.5 -31.5t-31 -20t-27.5 -11t-28 -3.5z" />
    <glyph glyph-name="y" unicode="&#xff;" horiz-adv-x="536" 
d="M-93 -267q-26 0 -38 13.5t-12 30.5q0 28 16 36t39 9t48.5 1.5t43.5 13.5q37 26 72.5 67t73.5 98l-3 419q0 18 -4.5 25.5t-23.5 10.5l-48 7l10 27l165 22l-2 -381l147 205q37 52 63.5 87t47.5 56t38.5 30t35.5 9q20 0 33 -11t13 -31q0 -17 -10 -32.5t-38 -24.5
q-23 -8 -42.5 -16.5t-38.5 -22.5t-39 -35.5t-44 -54.5l-198 -279q-17 -24 -38.5 -52.5t-45 -57t-48 -55.5t-48.5 -48q-22 -19 -38.5 -31.5t-31 -20t-27.5 -11t-28 -3.5z" />
    <glyph glyph-name="y" unicode="&#xfd;" horiz-adv-x="536" 
d="M-93 -267q-26 0 -38 13.5t-12 30.5q0 28 16 36t39 9t48.5 1.5t43.5 13.5q37 26 72.5 67t73.5 98l-3 419q0 18 -4.5 25.5t-23.5 10.5l-48 7l10 27l165 22l-2 -381l147 205q37 52 63.5 87t47.5 56t38.5 30t35.5 9q20 0 33 -11t13 -31q0 -17 -10 -32.5t-38 -24.5
q-23 -8 -42.5 -16.5t-38.5 -22.5t-39 -35.5t-44 -54.5l-198 -279q-17 -24 -38.5 -52.5t-45 -57t-48 -55.5t-48.5 -48q-22 -19 -38.5 -31.5t-31 -20t-27.5 -11t-28 -3.5z" />
    <glyph glyph-name="z" unicode="z" horiz-adv-x="520" 
d="M327 -38q-24 0 -53 13.5t-62 32t-69 37.5t-73 31q-3 -30 -10.5 -47.5t-16 -26.5t-17 -12t-15.5 -3q-15 0 -24 9t-9 23q0 16 12.5 33.5t45.5 46.5l341 289q-36 9 -66 20.5t-54.5 21.5t-43.5 16.5t-33 6.5q-16 0 -26 -7.5t-10 -22.5q0 -14 7.5 -20.5t16.5 -12.5t16.5 -14
t7.5 -25q0 -20 -14 -32t-35 -12q-26 0 -41.5 18t-15.5 42t9.5 43.5t24.5 36t33.5 29.5t36.5 24q20 13 34.5 17t26.5 2q18 -3 43 -11t51 -17t50.5 -16t43.5 -7q31 0 55 18t44 34l23 -26l-417 -354q30 -9 58.5 -24.5t55.5 -30t51.5 -25t46.5 -10.5q35 0 53.5 20t35.5 60
l30 -11q-32 -77 -65 -117t-83 -40z" />
    <glyph glyph-name="z" unicode="&#x17e;" horiz-adv-x="520" 
d="M327 -38q-24 0 -53 13.5t-62 32t-69 37.5t-73 31q-3 -30 -10.5 -47.5t-16 -26.5t-17 -12t-15.5 -3q-15 0 -24 9t-9 23q0 16 12.5 33.5t45.5 46.5l341 289q-36 9 -66 20.5t-54.5 21.5t-43.5 16.5t-33 6.5q-16 0 -26 -7.5t-10 -22.5q0 -14 7.5 -20.5t16.5 -12.5t16.5 -14
t7.5 -25q0 -20 -14 -32t-35 -12q-26 0 -41.5 18t-15.5 42t9.5 43.5t24.5 36t33.5 29.5t36.5 24q20 13 34.5 17t26.5 2q18 -3 43 -11t51 -17t50.5 -16t43.5 -7q31 0 55 18t44 34l23 -26l-417 -354q30 -9 58.5 -24.5t55.5 -30t51.5 -25t46.5 -10.5q35 0 53.5 20t35.5 60
l30 -11q-32 -77 -65 -117t-83 -40z" />
    <glyph glyph-name="z" unicode="&#x17c;" horiz-adv-x="520" 
d="M327 -38q-24 0 -53 13.5t-62 32t-69 37.5t-73 31q-3 -30 -10.5 -47.5t-16 -26.5t-17 -12t-15.5 -3q-15 0 -24 9t-9 23q0 16 12.5 33.5t45.5 46.5l341 289q-36 9 -66 20.5t-54.5 21.5t-43.5 16.5t-33 6.5q-16 0 -26 -7.5t-10 -22.5q0 -14 7.5 -20.5t16.5 -12.5t16.5 -14
t7.5 -25q0 -20 -14 -32t-35 -12q-26 0 -41.5 18t-15.5 42t9.5 43.5t24.5 36t33.5 29.5t36.5 24q20 13 34.5 17t26.5 2q18 -3 43 -11t51 -17t50.5 -16t43.5 -7q31 0 55 18t44 34l23 -26l-417 -354q30 -9 58.5 -24.5t55.5 -30t51.5 -25t46.5 -10.5q35 0 53.5 20t35.5 60
l30 -11q-32 -77 -65 -117t-83 -40z" />
    <glyph glyph-name="z" unicode="&#x17a;" horiz-adv-x="520" 
d="M327 -38q-24 0 -53 13.5t-62 32t-69 37.5t-73 31q-3 -30 -10.5 -47.5t-16 -26.5t-17 -12t-15.5 -3q-15 0 -24 9t-9 23q0 16 12.5 33.5t45.5 46.5l341 289q-36 9 -66 20.5t-54.5 21.5t-43.5 16.5t-33 6.5q-16 0 -26 -7.5t-10 -22.5q0 -14 7.5 -20.5t16.5 -12.5t16.5 -14
t7.5 -25q0 -20 -14 -32t-35 -12q-26 0 -41.5 18t-15.5 42t9.5 43.5t24.5 36t33.5 29.5t36.5 24q20 13 34.5 17t26.5 2q18 -3 43 -11t51 -17t50.5 -16t43.5 -7q31 0 55 18t44 34l23 -26l-417 -354q30 -9 58.5 -24.5t55.5 -30t51.5 -25t46.5 -10.5q35 0 53.5 20t35.5 60
l30 -11q-32 -77 -65 -117t-83 -40z" />
    <glyph glyph-name="uni00A0" unicode="&#xa0;" horiz-adv-x="268" 
 />
    <glyph glyph-name="uni00AD" unicode="&#xad;" horiz-adv-x="435" 
d="M86 296h294l-23 -67h-294z" />
    <glyph glyph-name="paragraph" unicode="&#xb6;" horiz-adv-x="597" 
d="M94 -189q-40 0 -65 16.5t-25 48.5q0 23 16 37.5t37 14.5q25 0 36.5 -13t24.5 -25q12 -11 26.5 -18t31.5 -7q14 0 29 7t30 23.5t29 42.5t27 65l98 300q-27 -8 -52.5 -12.5t-51.5 -4.5q-43 0 -75 13t-53.5 36.5t-32.5 54.5t-11 67q0 59 28 113.5t80.5 96t128 66.5t170.5 25
h192l-11 -36l-39 -3q-20 -2 -32.5 -4.5t-20.5 -10t-14 -21t-13 -35.5l-179 -550q-12 -36 -24 -68.5t-28.5 -61t-39 -54t-54.5 -47.5q-41 -29 -84.5 -42.5t-78.5 -13.5z" />
    <glyph glyph-name="periodcentered" unicode="&#xb7;" horiz-adv-x="295" 
d="M150 183q-32 0 -55 23t-23 58q0 16 6 30t16.5 24.5t25 16.5t30.5 6q34 0 57 -22.5t23 -54.5q0 -35 -23 -58t-57 -23z" />
    <glyph glyph-name="glyph65" horiz-adv-x="804" 
d="M358 -11q-69 0 -124 23.5t-92.5 65.5t-55.5 101.5t-13 131.5h594q7 28 10 55.5t3 54.5q0 71 -19 124t-51.5 88.5t-76 53.5t-93.5 18q-82 0 -157.5 -42t-129.5 -125l-33 19q22 44 57 84.5t81.5 71.5t104.5 49.5t127 18.5q67 0 124 -22.5t98 -64t64.5 -100.5t23.5 -132
q0 -97 -36.5 -183t-97.5 -150.5t-141 -102t-167 -37.5zM365 35q57 0 103.5 18.5t82.5 50.5t62 74.5t42 89.5h-463q-10 -111 36.5 -172t136.5 -61z" />
    <glyph glyph-name="glyph66" horiz-adv-x="333" 
d="M89 -13q-47 0 -56 28t14 86l128 320q7 16 1.5 24t-29.5 12l-48 7l10 27l202 23l-159 -399q-11 -29 -13.5 -45t9.5 -16q10 0 27 11.5t36 31t39.5 45t38.5 53.5l29 -17q-61 -94 -120.5 -142.5t-108.5 -48.5z" />
    <glyph glyph-name="glyph67" horiz-adv-x="292" 
d="M129 45q-14 -36 -25.5 -65t-25 -52t-31.5 -42.5t-44 -37.5q-17 -11 -39.5 -25.5t-47.5 -30t-51 -31t-50 -28.5l-13 26q43 31 75.5 55.5t58 53t47 66t42.5 93.5l147 394q6 16 1 24t-29 12l-49 7l11 27l197 23z" />
    <glyph glyph-name="uni0410" unicode="&#x410;" horiz-adv-x="761" 
d="M-92 31l45 7q14 2 25.5 8t23.5 17.5t27 31t37 48.5l489 646h36l31 -680q1 -19 2.5 -31.5t6.5 -20.5t14 -12t25 -7l41 -7l-9 -31h-285l9 31l46 7q14 2 22.5 5.5t13 9.5t5.5 15t0 24l-9 188h-274l-109 -145q-23 -30 -32.5 -48t-10 -28.5t7 -14.5t19.5 -6l42 -7l-9 -31h-239
zM502 332l-14 290l-219 -290h233z" />
    <glyph glyph-name="uni0411" unicode="&#x411;" horiz-adv-x="760" 
d="M801 760l-48 -184h-28v46q0 33 -7.5 52t-29.5 28.5t-62 11.5t-104 2h-104q-23 0 -29 -20l-82 -266h152q119 0 186 -42.5t67 -125.5q0 -53 -28 -100.5t-78.5 -83.5t-121.5 -57t-158 -21h-348l9 31l46 7q14 2 23.5 5t16 8.5t10.5 15.5t9 25l177 574q10 31 5 40.5t-31 13.5
l-41 7l9 31h298zM210 114q-13 -43 0 -57.5t59 -14.5h61q60 0 106.5 17.5t79 46.5t49 65.5t16.5 75.5q0 67 -41 100.5t-141 33.5h-107z" />
    <glyph glyph-name="uni0412" unicode="&#x412;" horiz-adv-x="749" 
d="M508 758q129 0 190 -37.5t61 -101.5q0 -39 -16.5 -72.5t-47 -60t-73.5 -46t-96 -29.5v-1q31 -4 63.5 -16t59 -32t43 -49t16.5 -67q0 -45 -25.5 -89t-73 -79t-115.5 -56.5t-154 -21.5h-357l9 31l46 7q14 2 23.5 5t15.5 9t10.5 15.5t9.5 24.5l176 574q10 31 4.5 40
t-30.5 14l-41 7l9 31h293zM444 717q-32 0 -40 -4t-12 -18l-82 -269h109q60 0 102.5 16.5t68.5 43.5t38 61t12 69q0 45 -33 73t-109 28h-54zM297 383l-83 -272q-13 -42 0.5 -56.5t58.5 -14.5h59q55 0 100.5 14t78 41t50.5 67t18 92q0 29 -9.5 52.5t-30.5 40.5t-55.5 26.5
t-85.5 9.5h-101z" />
    <glyph glyph-name="uni0403" unicode="&#x403;" horiz-adv-x="644" 
d="M274 666q9 31 4.5 40.5t-30.5 13.5l-41 7l9 31h250l292 2l-49 -184h-28v46q0 33 -7.5 52t-29.5 28.5t-61.5 11.5t-103.5 2h-59q-20 0 -26 -20l-186 -605q-10 -30 -5 -39.5t31 -11.5l72 -7l-10 -33h-313l9 31l46 7q14 2 23.5 5t15.5 8.5t10.5 15.5t9.5 25z" />
    <glyph glyph-name="uni0403" unicode="&#x492;" horiz-adv-x="644" 
d="M274 666q9 31 4.5 40.5t-30.5 13.5l-41 7l9 31h250l292 2l-49 -184h-28v46q0 33 -7.5 52t-29.5 28.5t-61.5 11.5t-103.5 2h-59q-20 0 -26 -20l-186 -605q-10 -30 -5 -39.5t31 -11.5l72 -7l-10 -33h-313l9 31l46 7q14 2 23.5 5t15.5 8.5t10.5 15.5t9.5 25z" />
    <glyph glyph-name="uni0403" unicode="&#x413;" horiz-adv-x="644" 
d="M274 666q9 31 4.5 40.5t-30.5 13.5l-41 7l9 31h250l292 2l-49 -184h-28v46q0 33 -7.5 52t-29.5 28.5t-61.5 11.5t-103.5 2h-59q-20 0 -26 -20l-186 -605q-10 -30 -5 -39.5t31 -11.5l72 -7l-10 -33h-313l9 31l46 7q14 2 23.5 5t15.5 8.5t10.5 15.5t9.5 25z" />
    <glyph glyph-name="uni0414" unicode="&#x414;" horiz-adv-x="786" 
d="M677 42l-52 -202h-28l5 66q3 34 -4.5 53t-30 28t-63 11t-105.5 2h-186q-63 0 -104.5 -2t-69 -11t-46.5 -28t-38 -53l-36 -66h-28l72 202h65q52 69 96 146t81 157t67 161t54 160q10 31 5 40.5t-31 13.5l-41 7l9 31h614l-9 -31l-46 -7q-14 -2 -23 -5t-15.5 -8.5t-11 -15
t-8.5 -24.5l-171 -554q-8 -25 -7 -39t10 -21t26 -9t41 -2h9zM389 696q-26 -84 -57 -171t-68 -171t-80 -163.5t-92 -148.5h278q25 0 44 1.5t32.5 9t23.5 22.5t18 41l179 580q6 20 -14 20h-238q-20 0 -26 -20z" />
    <glyph glyph-name="uni0401" unicode="&#x401;" horiz-adv-x="734" 
d="M506 758l291 2l-47 -184h-28v46q0 33 -6.5 52t-26.5 28.5t-58.5 11.5t-102.5 2h-109q-21 0 -27 -20l-87 -286h145q21 0 37 1.5t29 8t25 21t26 40.5l21 40h27l-83 -271h-27l3 40q2 26 -1.5 40.5t-12.5 21t-23.5 8t-35.5 1.5h-145l-75 -245q-8 -26 -7 -41t10 -22.5t26.5 -9
t43.5 -1.5h45q67 0 109.5 3.5t71 13t49 26.5t44.5 44l63 72h27l-113 -201h-601l9 31l46 7q14 2 23.5 5t15.5 9t10.5 15.5t9.5 24.5l176 574q10 31 4.5 40t-30.5 14l-41 7l9 31h291z" />
    <glyph glyph-name="uni0401" unicode="&#x415;" horiz-adv-x="734" 
d="M506 758l291 2l-47 -184h-28v46q0 33 -6.5 52t-26.5 28.5t-58.5 11.5t-102.5 2h-109q-21 0 -27 -20l-87 -286h145q21 0 37 1.5t29 8t25 21t26 40.5l21 40h27l-83 -271h-27l3 40q2 26 -1.5 40.5t-12.5 21t-23.5 8t-35.5 1.5h-145l-75 -245q-8 -26 -7 -41t10 -22.5t26.5 -9
t43.5 -1.5h45q67 0 109.5 3.5t71 13t49 26.5t44.5 44l63 72h27l-113 -201h-601l9 31l46 7q14 2 23.5 5t15.5 9t10.5 15.5t9.5 24.5l176 574q10 31 4.5 40t-30.5 14l-41 7l9 31h291z" />
    <glyph glyph-name="uni0416" unicode="&#x416;" horiz-adv-x="1204" 
d="M-78 0l10 31l37 7q30 5 49.5 15.5t45.5 30.5l437 336l-146 196q-21 29 -38.5 48t-33 30.5t-29.5 17.5t-29 8l-43 7l10 31h244l-10 -31l-45 -6q-14 -2 -17 -9t3 -19t18.5 -29t29.5 -39l178 -240l87 281q9 31 4 40.5t-31 13.5l-41 7l10 31h283l-11 -31l-45 -7
q-14 -2 -23 -5t-15.5 -8.5t-11.5 -15t-9 -24.5l-86 -281l326 239q30 22 53 39t36 29t14 19t-12 9l-41 6l11 31h244l-11 -31l-47 -7q-14 -2 -30 -8.5t-37 -18.5t-48.5 -31t-64.5 -46l-284 -208l222 -324q13 -20 24.5 -30.5t38.5 -15.5l32 -7l-10 -31h-176l-248 362l-83 -271
q-9 -30 -4.5 -39.5t30.5 -13.5l42 -7l-10 -31h-283l10 31l46 7q27 4 38 13.5t20 40.5l84 270l-471 -362h-193z" />
    <glyph glyph-name="uni0416" unicode="&#x496;" horiz-adv-x="1204" 
d="M-78 0l10 31l37 7q30 5 49.5 15.5t45.5 30.5l437 336l-146 196q-21 29 -38.5 48t-33 30.5t-29.5 17.5t-29 8l-43 7l10 31h244l-10 -31l-45 -6q-14 -2 -17 -9t3 -19t18.5 -29t29.5 -39l178 -240l87 281q9 31 4 40.5t-31 13.5l-41 7l10 31h283l-11 -31l-45 -7
q-14 -2 -23 -5t-15.5 -8.5t-11.5 -15t-9 -24.5l-86 -281l326 239q30 22 53 39t36 29t14 19t-12 9l-41 6l11 31h244l-11 -31l-47 -7q-14 -2 -30 -8.5t-37 -18.5t-48.5 -31t-64.5 -46l-284 -208l222 -324q13 -20 24.5 -30.5t38.5 -15.5l32 -7l-10 -31h-176l-248 362l-83 -271
q-9 -30 -4.5 -39.5t30.5 -13.5l42 -7l-10 -31h-283l10 31l46 7q27 4 38 13.5t20 40.5l84 270l-471 -362h-193z" />
    <glyph glyph-name="uni0417" unicode="&#x417;" horiz-adv-x="687" 
d="M418 732q-27 0 -50.5 -8t-46 -23t-47 -37t-53.5 -50l-63 -60h-28l99 179l45 15t50 15t53.5 11.5t54.5 4.5q114 0 178 -38t64 -111q0 -41 -20.5 -77t-54.5 -65t-78 -49.5t-91 -29.5l-1 -1q37 -4 68.5 -16t54 -31.5t35 -46t12.5 -58.5q0 -56 -29.5 -105t-80.5 -85t-119 -57
t-146 -21q-73 0 -131.5 15.5t-99.5 35.5l27 199h28l18 -90q7 -33 19 -55t31.5 -35t47.5 -18.5t66 -5.5q55 0 99.5 19t75.5 50t47.5 69t16.5 77q0 26 -9.5 50t-29.5 42t-50 28.5t-72 10.5h-108l15 50h107q52 0 94.5 18t72 46.5t45.5 63t16 66.5q0 22 -7.5 41.5t-24 34.5
t-41.5 23.5t-59 8.5z" />
    <glyph glyph-name="uni0418" unicode="&#x418;" horiz-adv-x="922" 
d="M266 0h-283l10 31l46 7q14 2 23 5t15.5 8.5t10.5 15.5t9 25l178 574q8 31 3.5 40.5t-30.5 13.5l-41 7l10 31h283l-11 -31l-45 -7q-14 -2 -23 -5t-15.5 -8.5t-11.5 -15t-9 -24.5l-141 -457l544 437l5 19q9 31 4.5 40.5t-30.5 13.5l-42 7l11 31h282l-10 -31l-45 -7
q-14 -2 -23 -5t-15.5 -8.5t-11.5 -15t-9 -24.5l-177 -576q-9 -30 -4.5 -39.5t30.5 -13.5l42 -7l-10 -31h-283l10 31l46 7q27 4 38 13.5t20 40.5l146 475l-542 -436l-12 -40q-9 -30 -4.5 -39.5t30.5 -13.5l42 -7z" />
    <glyph glyph-name="uni0418" unicode="&#x4e2;" horiz-adv-x="922" 
d="M266 0h-283l10 31l46 7q14 2 23 5t15.5 8.5t10.5 15.5t9 25l178 574q8 31 3.5 40.5t-30.5 13.5l-41 7l10 31h283l-11 -31l-45 -7q-14 -2 -23 -5t-15.5 -8.5t-11.5 -15t-9 -24.5l-141 -457l544 437l5 19q9 31 4.5 40.5t-30.5 13.5l-42 7l11 31h282l-10 -31l-45 -7
q-14 -2 -23 -5t-15.5 -8.5t-11.5 -15t-9 -24.5l-177 -576q-9 -30 -4.5 -39.5t30.5 -13.5l42 -7l-10 -31h-283l10 31l46 7q27 4 38 13.5t20 40.5l146 475l-542 -436l-12 -40q-9 -30 -4.5 -39.5t30.5 -13.5l42 -7z" />
    <glyph glyph-name="uni0418" unicode="&#x419;" horiz-adv-x="922" 
d="M266 0h-283l10 31l46 7q14 2 23 5t15.5 8.5t10.5 15.5t9 25l178 574q8 31 3.5 40.5t-30.5 13.5l-41 7l10 31h283l-11 -31l-45 -7q-14 -2 -23 -5t-15.5 -8.5t-11.5 -15t-9 -24.5l-141 -457l544 437l5 19q9 31 4.5 40.5t-30.5 13.5l-42 7l11 31h282l-10 -31l-45 -7
q-14 -2 -23 -5t-15.5 -8.5t-11.5 -15t-9 -24.5l-177 -576q-9 -30 -4.5 -39.5t30.5 -13.5l42 -7l-10 -31h-283l10 31l46 7q27 4 38 13.5t20 40.5l146 475l-542 -436l-12 -40q-9 -30 -4.5 -39.5t30.5 -13.5l42 -7z" />
    <glyph glyph-name="uni040C" unicode="&#x40c;" horiz-adv-x="829" 
d="M291 363l-83 -272q-9 -30 -4.5 -39.5t29.5 -13.5l42 -7l-9 -31h-283l9 31l46 7q14 2 23.5 5t15.5 9t10.5 15.5t9.5 24.5l176 574q10 31 4.5 40t-30.5 14l-41 7l9 31h283l-10 -31l-46 -7q-14 -2 -23 -5t-15.5 -8.5t-11 -15t-8.5 -24.5l-85 -278l349 236q63 42 91.5 66.5
t2.5 28.5l-49 7l9 31h258l-10 -31l-49 -7q-15 -2 -31.5 -9t-38.5 -19t-50.5 -31l-67.5 -45l-310 -209l261 -323q15 -18 27 -29.5t38 -16.5l33 -7l-9 -31h-172z" />
    <glyph glyph-name="uni040C" unicode="&#x49a;" horiz-adv-x="829" 
d="M291 363l-83 -272q-9 -30 -4.5 -39.5t29.5 -13.5l42 -7l-9 -31h-283l9 31l46 7q14 2 23.5 5t15.5 9t10.5 15.5t9.5 24.5l176 574q10 31 4.5 40t-30.5 14l-41 7l9 31h283l-10 -31l-46 -7q-14 -2 -23 -5t-15.5 -8.5t-11 -15t-8.5 -24.5l-85 -278l349 236q63 42 91.5 66.5
t2.5 28.5l-49 7l9 31h258l-10 -31l-49 -7q-15 -2 -31.5 -9t-38.5 -19t-50.5 -31l-67.5 -45l-310 -209l261 -323q15 -18 27 -29.5t38 -16.5l33 -7l-9 -31h-172z" />
    <glyph glyph-name="uni040C" unicode="&#x41a;" horiz-adv-x="829" 
d="M291 363l-83 -272q-9 -30 -4.5 -39.5t29.5 -13.5l42 -7l-9 -31h-283l9 31l46 7q14 2 23.5 5t15.5 9t10.5 15.5t9.5 24.5l176 574q10 31 4.5 40t-30.5 14l-41 7l9 31h283l-10 -31l-46 -7q-14 -2 -23 -5t-15.5 -8.5t-11 -15t-8.5 -24.5l-85 -278l349 236q63 42 91.5 66.5
t2.5 28.5l-49 7l9 31h258l-10 -31l-49 -7q-15 -2 -31.5 -9t-38.5 -19t-50.5 -31l-67.5 -45l-310 -209l261 -323q15 -18 27 -29.5t38 -16.5l33 -7l-9 -31h-172z" />
    <glyph glyph-name="uni041B" unicode="&#x41b;" horiz-adv-x="773" 
d="M869 758l-10 -31l-45 -7q-14 -2 -23 -5t-15.5 -8.5t-11.5 -15t-9 -24.5l-177 -576q-9 -30 -4.5 -39.5t30.5 -13.5l41 -7l-9 -31h-283l9 31l47 7q27 4 38 13.5t20 40.5l186 604q6 20 -14 20h-235q-20 0 -26 -20q-20 -65 -47.5 -145t-61 -163t-72.5 -161.5t-82 -138.5
q-42 -60 -78 -80t-66 -20q-23 0 -36 13t-13 33q0 22 16 39.5t53 31.5q19 7 34 13t28 14t25 18.5t24 25.5q23 27 51.5 83t57 124.5t55 143t46.5 139.5q10 31 5.5 40.5t-30.5 13.5l-42 7l9 31h615z" />
    <glyph glyph-name="uni041C" unicode="&#x41c;" horiz-adv-x="1051" 
d="M323 638l-137 -410q-22 -66 -33.5 -103.5t-14 -56t3.5 -23.5t20 -7l41 -7l-9 -31h-228l10 31l45 7q15 2 25 7t21 23.5t25.5 56t37.5 103.5l154 439q11 30 4.5 39t-32.5 14l-41 7l10 31h190l83 -590l430 590h203l-9 -31l-46 -7q-14 -2 -24 -5t-17 -8.5t-11.5 -15
t-8.5 -24.5l-146 -576q-8 -30 -3.5 -39.5t30.5 -13.5l42 -7l-10 -31h-282l9 31l46 7q14 2 23 5t15.5 9t10.5 15.5t8 24.5l139 546l-469 -647h-14z" />
    <glyph glyph-name="uni041D" unicode="&#x41d;" horiz-adv-x="909" 
d="M266 0h-283l9 31l46 7q14 2 23.5 5t15.5 9t10.5 15.5t9.5 24.5l176 574q10 31 4.5 40t-30.5 14l-41 7l9 31h283l-10 -31l-46 -7q-14 -2 -23 -5t-15.5 -8.5t-11 -15t-8.5 -24.5l-79 -257h396l79 256q10 31 4.5 40t-30.5 14l-41 7l9 31h283l-10 -31l-46 -7q-14 -2 -23 -5
t-15.5 -8.5t-11 -15t-8.5 -24.5l-176 -576q-9 -30 -4.5 -39.5t29.5 -13.5l42 -7l-9 -31h-283l9 31l46 7q14 2 23.5 5t15.5 9t10.5 15.5t9.5 24.5l82 268h-397l-81 -269q-9 -30 -4.5 -39.5t29.5 -13.5l42 -7z" />
    <glyph glyph-name="uni041D" unicode="&#x4a2;" horiz-adv-x="909" 
d="M266 0h-283l9 31l46 7q14 2 23.5 5t15.5 9t10.5 15.5t9.5 24.5l176 574q10 31 4.5 40t-30.5 14l-41 7l9 31h283l-10 -31l-46 -7q-14 -2 -23 -5t-15.5 -8.5t-11 -15t-8.5 -24.5l-79 -257h396l79 256q10 31 4.5 40t-30.5 14l-41 7l9 31h283l-10 -31l-46 -7q-14 -2 -23 -5
t-15.5 -8.5t-11 -15t-8.5 -24.5l-176 -576q-9 -30 -4.5 -39.5t29.5 -13.5l42 -7l-9 -31h-283l9 31l46 7q14 2 23.5 5t15.5 9t10.5 15.5t9.5 24.5l82 268h-397l-81 -269q-9 -30 -4.5 -39.5t29.5 -13.5l42 -7z" />
    <glyph glyph-name="uni041E" unicode="&#x41e;" 
d="M407 -13q-71 0 -130.5 23t-103 64.5t-67.5 99t-24 127.5q0 60 18 119t50.5 112t77.5 98.5t98.5 78.5t114.5 51.5t126 18.5q70 0 130 -23t103 -64.5t67.5 -99t24.5 -127.5q0 -60 -18 -119t-50.5 -112t-77.5 -98.5t-98.5 -78.5t-115 -51.5t-125.5 -18.5zM412 34
q59 0 108 21.5t88 57t68.5 82t49 97.5t29 102.5t9.5 97.5q0 63 -15.5 108.5t-42.5 74.5t-64 43t-81 14q-59 0 -107.5 -21.5t-87.5 -57t-68.5 -82t-49 -97.5t-29 -103t-9.5 -97q0 -63 15 -108.5t42 -74.5t64 -43t81 -14z" />
    <glyph glyph-name="uni041F" unicode="&#x41f;" horiz-adv-x="887" 
d="M768 696q3 11 0.5 15.5t-14.5 4.5h-336q-20 0 -26 -20l-186 -604q-9 -30 -4.5 -40t30.5 -13l43 -7l-10 -32h-284l10 32l47 7q28 3 38.5 13t19.5 41l177 572q9 31 4.5 41t-30.5 13l-43 7l10 32h771l-11 -32l-47 -7q-27 -3 -38 -13t-20 -40l-177 -574q-9 -30 -4.5 -40
t30.5 -13l44 -7l-11 -32h-284l10 32l48 7q27 3 38 13t20 41z" />
    <glyph glyph-name="uni0420" unicode="&#x420;" horiz-adv-x="722" 
d="M-8 31l46 7q14 2 23.5 5t15.5 9t10.5 15.5t9.5 24.5l176 574q10 31 4.5 40t-30.5 14l-41 7l9 31h322q52 0 97.5 -9t80 -29.5t54.5 -52.5t20 -77q0 -48 -22 -92.5t-67 -79.5t-113 -56t-160 -21h-143l-76 -250q-9 -30 -4.5 -39.5t30.5 -11.5l72 -7l-10 -33h-313zM296 378
h133q63 0 107 19t71.5 49.5t40.5 68t13 74.5q0 129 -151 129h-60q-32 0 -43 -4t-15 -20z" />
    <glyph glyph-name="uni0421" unicode="&#x421;" horiz-adv-x="792" 
d="M408 -13q-69 0 -129.5 20t-104.5 59.5t-69.5 97.5t-25.5 133q0 66 21 128t58.5 115.5t89 97.5t111.5 75.5t126.5 48.5t134.5 17q58 0 116 -8t96 -23l-11 -187h-28l-31 99q-8 24 -21 38t-32 21.5t-42.5 10t-50.5 2.5q-76 0 -149.5 -31.5t-131 -90t-93 -142.5t-35.5 -188
q0 -64 17 -110.5t47.5 -77t73 -45t92.5 -14.5q33 0 58 5t46.5 16t42 28t46.5 41l97 89h28l-99 -179q-49 -17 -109.5 -31.5t-138.5 -14.5z" />
    <glyph glyph-name="uni0422" unicode="&#x422;" horiz-adv-x="749" 
d="M138 33l76 7q27 2 38 11.5t20 39.5l191 625h-28q-64 0 -105 -2t-69 -11.5t-47 -28t-39 -51.5l-29 -47h-28l65 184l284 -2h129l284 2l-47 -184h-27l-1 47q-1 33 -8.5 51.5t-29.5 28t-61 11.5t-103 2h-29l-191 -625q-9 -30 -4.5 -39.5t30.5 -11.5l72 -7l-10 -33h-343z" />
    <glyph glyph-name="uni040E" unicode="&#x40e;" horiz-adv-x="770" 
d="M340 116q-56 -66 -96.5 -97t-82.5 -31q-26 0 -39 14.5t-13 33.5q0 53 71 71q30 8 53 15.5t41.5 17t34.5 22.5t31 31l-99 456q-8 33 -20.5 49.5t-38.5 21.5l-41 7l9 31h310l-10 -31l-45 -7q-28 -4 -42 -14.5t-8 -39.5l80 -360l267 317q24 29 36.5 47t15.5 28.5t-3.5 15
t-19.5 6.5l-42 7l10 31h237l-10 -31l-30 -5q-20 -3 -35 -9.5t-29.5 -18.5t-31.5 -31.5t-41 -47.5z" />
    <glyph glyph-name="uni040E" unicode="&#x4ee;" horiz-adv-x="770" 
d="M340 116q-56 -66 -96.5 -97t-82.5 -31q-26 0 -39 14.5t-13 33.5q0 53 71 71q30 8 53 15.5t41.5 17t34.5 22.5t31 31l-99 456q-8 33 -20.5 49.5t-38.5 21.5l-41 7l9 31h310l-10 -31l-45 -7q-28 -4 -42 -14.5t-8 -39.5l80 -360l267 317q24 29 36.5 47t15.5 28.5t-3.5 15
t-19.5 6.5l-42 7l10 31h237l-10 -31l-30 -5q-20 -3 -35 -9.5t-29.5 -18.5t-31.5 -31.5t-41 -47.5z" />
    <glyph glyph-name="uni040E" unicode="&#x423;" horiz-adv-x="770" 
d="M340 116q-56 -66 -96.5 -97t-82.5 -31q-26 0 -39 14.5t-13 33.5q0 53 71 71q30 8 53 15.5t41.5 17t34.5 22.5t31 31l-99 456q-8 33 -20.5 49.5t-38.5 21.5l-41 7l9 31h310l-10 -31l-45 -7q-28 -4 -42 -14.5t-8 -39.5l80 -360l267 317q24 29 36.5 47t15.5 28.5t-3.5 15
t-19.5 6.5l-42 7l10 31h237l-10 -31l-30 -5q-20 -3 -35 -9.5t-29.5 -18.5t-31.5 -31.5t-41 -47.5z" />
    <glyph glyph-name="uni0424" unicode="&#x424;" horiz-adv-x="979" 
d="M559 687q9 31 4.5 40.5t-30.5 13.5l-41 7l9 31h283l-9 -31l-47 -7q-27 -4 -38 -13.5t-20 -39.5l-4 -13q60 -3 118 -17t104 -43t74 -73.5t28 -107.5q0 -78 -40.5 -139.5t-109.5 -105.5t-160 -69t-192 -28l-7 -21q-10 -30 -5.5 -39.5t30.5 -13.5l42 -7l-10 -31h-283l10 31
l45 7q14 2 23.5 5t16 8.5t11 15.5t9.5 25l6 20q-60 3 -118.5 17t-104 43t-74 73.5t-28.5 107.5q0 78 41 140t110 105.5t160.5 68.5t192.5 28zM184 333q0 -93 52.5 -140t154.5 -54l150 490q-68 -2 -132.5 -20t-114.5 -54.5t-80 -91.5t-30 -130zM857 434q0 92 -52.5 139.5
t-152.5 54.5l-150 -490q68 2 132 20.5t113.5 54.5t79.5 91t30 130z" />
    <glyph glyph-name="uni0425" unicode="&#x425;" horiz-adv-x="824" 
d="M-78 31l44 7q15 2 28.5 7.5t31.5 17t42.5 32t62.5 52.5l282 243l-110 259q-8 18 -14 30.5t-12 21t-14.5 13t-20.5 6.5l-40 7l11 31h289l-11 -31l-47 -7q-27 -4 -32.5 -16t5.5 -38l84 -199l179 154q31 27 50 45t27 29.5t4.5 17.5t-17.5 8l-39 6l11 31h247l-11 -31l-45 -7
q-15 -2 -28.5 -7t-31 -17t-42.5 -32t-63 -53l-221 -191l132 -311q8 -18 13.5 -30.5t12 -21t14.5 -13t21 -6.5l41 -7l-11 -31h-290l12 31l45 7q29 5 34.5 16.5t-5.5 37.5l-107 252l-240 -207q-62 -53 -77 -74.5t13 -25.5l40 -6l-11 -31h-248z" />
    <glyph glyph-name="uni0425" unicode="&#x4b2;" horiz-adv-x="824" 
d="M-78 31l44 7q15 2 28.5 7.5t31.5 17t42.5 32t62.5 52.5l282 243l-110 259q-8 18 -14 30.5t-12 21t-14.5 13t-20.5 6.5l-40 7l11 31h289l-11 -31l-47 -7q-27 -4 -32.5 -16t5.5 -38l84 -199l179 154q31 27 50 45t27 29.5t4.5 17.5t-17.5 8l-39 6l11 31h247l-11 -31l-45 -7
q-15 -2 -28.5 -7t-31 -17t-42.5 -32t-63 -53l-221 -191l132 -311q8 -18 13.5 -30.5t12 -21t14.5 -13t21 -6.5l41 -7l-11 -31h-290l12 31l45 7q29 5 34.5 16.5t-5.5 37.5l-107 252l-240 -207q-62 -53 -77 -74.5t13 -25.5l40 -6l-11 -31h-248z" />
    <glyph glyph-name="uni0426" unicode="&#x426;" horiz-adv-x="911" 
d="M-17 0l9 31l46 7q14 2 23.5 5t15.5 8.5t10.5 15.5t9.5 25l177 574q10 31 5 40.5t-31 13.5l-41 7l9 31h283l-10 -31l-45 -7q-14 -2 -23.5 -5t-16 -8.5t-11 -15t-8.5 -24.5l-170 -551q-8 -26 -7 -41t10 -22.5t26.5 -9t43.5 -1.5h185q25 0 44 1.5t32.5 9t23.5 22.5t18 41
l170 550q10 31 5 40.5t-31 13.5l-41 7l9 31h283l-10 -31l-45 -7q-14 -2 -23.5 -5t-16 -8.5t-11 -15t-8.5 -24.5l-171 -554q-8 -25 -7 -39t10 -21t26 -9t41 -2h10l-52 -202h-28l5 66q3 34 -4.5 53t-30 28t-63.5 11t-106 2h-519z" />
    <glyph glyph-name="uni0427" unicode="&#x427;" horiz-adv-x="841" 
d="M248 666q9 31 4.5 40.5t-30.5 13.5l-42 7l10 31h283l-10 -31l-46 -7q-27 -4 -38 -13.5t-20 -39.5l-31 -101q-16 -53 -19 -91.5t11 -64t47.5 -37.5t90.5 -12q54 0 92.5 6t73.5 14l88 285q9 31 4.5 40.5t-30.5 13.5l-42 7l10 31h283l-10 -31l-46 -7q-27 -4 -38 -13.5
t-20 -39.5l-178 -576q-9 -30 -4 -39.5t31 -13.5l41 -7l-10 -31h-300l10 31l63 7q28 3 39 13t20 41l74 241q-38 -9 -78 -16t-91 -7q-75 0 -127 14.5t-80.5 45.5t-32.5 80t17 117z" />
    <glyph glyph-name="uni0427" unicode="&#x4b6;" horiz-adv-x="841" 
d="M248 666q9 31 4.5 40.5t-30.5 13.5l-42 7l10 31h283l-10 -31l-46 -7q-27 -4 -38 -13.5t-20 -39.5l-31 -101q-16 -53 -19 -91.5t11 -64t47.5 -37.5t90.5 -12q54 0 92.5 6t73.5 14l88 285q9 31 4.5 40.5t-30.5 13.5l-42 7l10 31h283l-10 -31l-46 -7q-27 -4 -38 -13.5
t-20 -39.5l-178 -576q-9 -30 -4 -39.5t31 -13.5l41 -7l-10 -31h-300l10 31l63 7q28 3 39 13t20 41l74 241q-38 -9 -78 -16t-91 -7q-75 0 -127 14.5t-80.5 45.5t-32.5 80t17 117z" />
    <glyph glyph-name="uni0428" unicode="&#x428;" horiz-adv-x="1216" 
d="M-7 31l46 7q14 2 23 5t15.5 8.5t10.5 15.5t9 25l178 574q9 31 4 40.5t-31 13.5l-41 7l10 31h282l-10 -31l-45 -7q-14 -2 -23 -5t-15.5 -8.5t-11.5 -15t-9 -24.5l-169 -551q-8 -26 -7 -41t10 -22.5t26.5 -9t43.5 -1.5h200l192 624q9 31 4.5 40.5t-30.5 13.5l-41 7l10 31
h281l-10 -31l-45 -7q-14 -2 -23 -5t-15.5 -8.5t-11 -15t-8.5 -24.5l-193 -625h200q25 0 44 1.5t33 9t24 22.5t18 41l169 550q9 31 4.5 40.5t-30.5 13.5l-41 7l10 31h282l-10 -31l-46 -7q-27 -4 -38 -13.5t-20 -39.5l-178 -575q-10 -31 -4.5 -40.5t31.5 -13.5l41 -7l-10 -31
h-1095z" />
    <glyph glyph-name="uni0428" unicode="&#x429;" horiz-adv-x="1216" 
d="M-7 31l46 7q14 2 23 5t15.5 8.5t10.5 15.5t9 25l178 574q9 31 4 40.5t-31 13.5l-41 7l10 31h282l-10 -31l-45 -7q-14 -2 -23 -5t-15.5 -8.5t-11.5 -15t-9 -24.5l-169 -551q-8 -26 -7 -41t10 -22.5t26.5 -9t43.5 -1.5h200l192 624q9 31 4.5 40.5t-30.5 13.5l-41 7l10 31
h281l-10 -31l-45 -7q-14 -2 -23 -5t-15.5 -8.5t-11 -15t-8.5 -24.5l-193 -625h200q25 0 44 1.5t33 9t24 22.5t18 41l169 550q9 31 4.5 40.5t-30.5 13.5l-41 7l10 31h282l-10 -31l-46 -7q-27 -4 -38 -13.5t-20 -39.5l-178 -575q-10 -31 -4.5 -40.5t31.5 -13.5l41 -7l-10 -31
h-1095z" />
    <glyph glyph-name="uni042A" unicode="&#x42a;" horiz-adv-x="893" 
d="M124 31l45 7q14 2 23 5t15.5 8.5t11 15.5t9.5 25l192 624h-5q-48 0 -80.5 -3.5t-55.5 -13.5t-40.5 -28t-35.5 -48l-29 -47h-28l66 184l288 -2h141l-10 -31l-57 -7q-27 -3 -38 -13t-20 -40l-70 -227h118q136 0 206.5 -48t70.5 -142q0 -58 -30 -104t-82 -78.5t-123 -50
t-153 -17.5h-339zM346 114q-14 -43 0 -57.5t59 -14.5h52q118 0 185 52.5t67 152.5q0 70 -42 106t-145 36h-92z" />
    <glyph glyph-name="uni042B" unicode="&#x42b;" horiz-adv-x="1082" 
d="M501 727l-57 -7q-28 -3 -39 -13t-20 -40l-70 -227h118q137 0 207 -48t70 -142q0 -58 -29.5 -104t-82 -78.5t-123.5 -50t-153 -17.5h-339l10 31l46 7q14 2 23 5t15.5 8.5t10.5 15.5t9 25l178 574q9 31 4 40.5t-31 13.5l-41 7l10 31h294zM215 114q-13 -43 0.5 -57.5
t59.5 -14.5h52q118 0 184.5 52.5t66.5 152.5q0 35 -10 61.5t-32 44.5t-57.5 27t-86.5 9h-92zM953 666q10 31 4.5 40t-30.5 14l-41 7l9 31h283l-10 -31l-46 -7q-14 -2 -23 -5t-15.5 -8.5t-11 -15t-8.5 -24.5l-176 -576q-9 -30 -4.5 -39.5t29.5 -13.5l42 -7l-9 -31h-283l9 31
l46 7q14 2 23.5 5t15.5 9t10.5 15.5t9.5 24.5z" />
    <glyph glyph-name="uni042C" unicode="&#x42c;" horiz-adv-x="762" 
d="M501 727l-57 -7q-28 -3 -39 -13t-20 -40l-70 -227h118q137 0 207 -48t70 -142q0 -58 -29.5 -104t-82 -78.5t-123.5 -50t-153 -17.5h-339l10 31l46 7q14 2 23 5t15.5 8.5t10.5 15.5t9 25l178 574q9 31 4 40.5t-31 13.5l-41 7l10 31h294zM215 114q-13 -43 0.5 -57.5
t59.5 -14.5h52q118 0 184.5 52.5t66.5 152.5q0 35 -10 61.5t-32 44.5t-57.5 27t-86.5 9h-92z" />
    <glyph glyph-name="uni042D" unicode="&#x42d;" horiz-adv-x="787" 
d="M458 779q70 0 130 -20t104.5 -59.5t70 -97.5t25.5 -133q0 -66 -20.5 -128t-56.5 -115.5t-86 -97.5t-108 -75.5t-122.5 -48.5t-130.5 -17q-58 0 -116 8t-96 23l11 187h28l31 -99q7 -24 21 -38t32.5 -21.5t42 -10t50.5 -2.5q61 0 120 22t110 63.5t89 101.5t57 135h-207
q-21 0 -36.5 -1.5t-28.5 -8.5t-25.5 -21.5t-26.5 -40.5l-21 -39h-27l83 270h27l-3 -39q-2 -26 1.5 -40.5t12.5 -21.5t23.5 -8.5t35.5 -1.5h202q6 39 6 82q0 64 -17 110.5t-47 77t-71.5 45t-89.5 14.5q-33 0 -56.5 -6t-43.5 -17.5t-39 -28.5t-42 -38l-97 -88h-28l98 178
q25 8 49.5 16.5t52 15t59 10.5t70.5 4z" />
    <glyph glyph-name="uni042E" unicode="&#x42e;" horiz-adv-x="1210" 
d="M266 0h-283l9 31l46 7q14 2 23.5 5t15.5 8.5t10.5 15.5t9.5 25l176 574q9 31 4.5 40.5t-30.5 13.5l-41 7l9 31h283l-10 -31l-46 -7q-14 -2 -23 -5t-15.5 -8.5t-11 -15t-8.5 -24.5l-79 -257h131q20 75 64 142t105.5 117.5t136 80t154.5 29.5q69 0 126.5 -23t99.5 -64.5
t65.5 -99t23.5 -127.5q0 -60 -17.5 -119t-49.5 -112t-76 -98.5t-96.5 -78.5t-112.5 -51.5t-123 -18.5q-69 0 -126.5 23t-99.5 64.5t-65.5 99t-23.5 127.5q0 15 1 29.5t3 29.5h-136l-81 -269q-10 -30 -5 -39.5t30 -13.5l42 -7zM741 34q57 0 105 21.5t86 57t66.5 82t47 97.5
t28 102.5t9.5 97.5q0 63 -14.5 108.5t-40 74.5t-60.5 43t-77 14q-57 0 -104.5 -21.5t-85.5 -57t-66.5 -82t-47.5 -97.5t-28.5 -103t-9.5 -97q0 -63 14.5 -108.5t40 -74.5t61 -43t76.5 -14z" />
    <glyph glyph-name="uni042F" unicode="&#x42f;" horiz-adv-x="814" 
d="M-59 0l10 31l38 7q29 6 47 15.5t40 29.5l302 266q-75 11 -120.5 53t-45.5 106q0 54 29.5 100t81 79t120.5 52t148 19h319l-10 -31l-46 -7q-14 -2 -23 -5t-15.5 -8.5t-11.5 -15.5t-9 -25l-177 -574q-10 -32 -4 -41.5t30 -12.5l42 -7l-10 -31h-283l10 31l46 7q14 2 23 5
t15.5 8.5t10.5 15t9 24.5l76 245h-79l-380 -336h-183zM693 695q5 13 -2 18t-40 5h-53q-65 0 -114 -17t-82 -45.5t-50 -67t-17 -80.5q0 -31 8.5 -56t28 -42t52 -26.5t79.5 -9.5h15.5t27.5 0.5t29 1t20 1.5z" />
    <glyph glyph-name="uni0402" unicode="&#x402;" horiz-adv-x="909" 
d="M116 33l75 7q28 2 39 11.5t20 39.5l191 625h-11q-64 0 -104.5 -2t-68.5 -11.5t-47 -28t-39 -51.5l-29 -47h-28l65 184l283 -2h129l285 2l-47 -184h-27l-1 47q0 33 -8 51.5t-30 28t-62 11.5t-104 2h-46l-103 -336q51 34 117 57t134 23q51 0 88 -15t57.5 -45t23 -74.5
t-15.5 -102.5l-8 -27q-10 -32 -20 -57.5t-23.5 -47t-32 -40.5t-44.5 -37q-17 -11 -39.5 -25.5t-48 -30t-51.5 -31t-50 -28.5l-11 29q45 32 77 56.5t55 52.5t41 64t35 90l11 36q26 81 0.5 122t-110.5 41q-62 0 -114.5 -17.5t-84.5 -40.5l-74 -241q-9 -30 -4 -39.5t31 -11.5
l71 -7l-10 -33h-343z" />
    <glyph glyph-name="uni0404" unicode="&#x404;" horiz-adv-x="792" 
d="M408 -13q-69 0 -129.5 20t-104.5 59.5t-69.5 97.5t-25.5 133q0 66 21 128t58.5 115.5t89 97.5t111.5 75.5t126.5 48.5t134.5 17q58 0 116 -8t96 -23l-11 -187h-28l-31 99q-8 24 -21 38t-32 21.5t-42.5 10t-50.5 2.5q-63 0 -125 -22t-115 -63.5t-93 -101.5t-60 -135h203
q21 0 36.5 1.5t28.5 8t25 21t26 40.5l21 40h27l-83 -271h-27l4 40q2 26 -1.5 40.5t-12.5 21t-23.5 8t-35.5 1.5h-198q-6 -39 -6 -81q0 -64 17 -110.5t47.5 -77t73 -45t92.5 -14.5q33 0 58 5t46.5 16t42 28t46.5 41l97 89h28l-99 -179q-49 -17 -109.5 -31.5t-138.5 -14.5z
" />
    <glyph glyph-name="uni0405" unicode="&#x405;" horiz-adv-x="628" 
d="M211 -13q-29 0 -57.5 5t-55.5 12.5t-50 17t-40 18.5l41 218h28l22 -153q2 -14 7 -26.5t16 -20.5q17 -14 46.5 -19.5t66.5 -5.5q39 0 75.5 11t64 32t44.5 51t17 68t-17 68.5t-61 70.5l-73 66q-42 38 -61 75.5t-19 79.5q0 45 21.5 85.5t62 71t98 49t129.5 18.5
q58 0 103.5 -8.5t78.5 -19.5l-42 -183h-28l-16 103q-4 23 -12.5 33.5t-26.5 17.5q-14 5 -36 8t-44 3q-41 0 -74.5 -10.5t-57 -28.5t-36.5 -43t-13 -55q0 -28 13 -55t42 -53l73 -65q24 -22 44 -42.5t34.5 -43t22 -48t7.5 -58.5q0 -49 -24.5 -93.5t-69 -78t-106.5 -53
t-137 -19.5z" />
    <glyph glyph-name="uni0406" unicode="&#x406;" horiz-adv-x="402" 
d="M273 666q10 31 4.5 40t-30.5 14l-41 7l9 31h283l-10 -31l-46 -7q-14 -2 -23 -5t-15.5 -8.5t-11 -15t-8.5 -24.5l-176 -576q-9 -30 -4.5 -39.5t29.5 -13.5l42 -7l-9 -31h-283l9 31l46 7q14 2 23.5 5t15.5 9t10.5 15.5t9.5 24.5z" />
    <glyph glyph-name="uni0406" unicode="&#x407;" horiz-adv-x="402" 
d="M273 666q10 31 4.5 40t-30.5 14l-41 7l9 31h283l-10 -31l-46 -7q-14 -2 -23 -5t-15.5 -8.5t-11 -15t-8.5 -24.5l-176 -576q-9 -30 -4.5 -39.5t29.5 -13.5l42 -7l-9 -31h-283l9 31l46 7q14 2 23.5 5t15.5 9t10.5 15.5t9.5 24.5z" />
    <glyph glyph-name="uni0408" unicode="&#x408;" horiz-adv-x="388" 
d="M247 211q-11 -37 -22.5 -66t-26 -52t-33 -42t-43.5 -37q-17 -12 -38.5 -26t-45.5 -29t-48.5 -30.5t-48.5 -28.5l-18 28q45 32 76.5 56.5t55 52t41.5 63.5t35 92l145 474q9 31 4 40t-30 14l-41 7l9 31h283l-10 -31l-46 -7q-14 -2 -23 -5t-15.5 -8.5t-11 -15t-8.5 -24.5z
" />
    <glyph glyph-name="uni0409" unicode="&#x409;" horiz-adv-x="1112" 
d="M633 696q6 20 -14 20h-215q-20 0 -26 -20q-20 -65 -47.5 -145t-61 -163t-72.5 -161.5t-82 -138.5q-42 -60 -78 -80t-66 -20q-23 0 -36 13t-13 33q0 22 16 39.5t53 31.5q19 7 34 13t28 14t25 18.5t24 25.5q23 27 51.5 83t57 124.5t55 143t46.5 139.5q10 31 5.5 40.5
t-30.5 13.5l-42 7l9 31h595l-10 -31l-45 -7q-14 -2 -23 -5t-15.5 -8.5t-11.5 -15t-9 -24.5l-70 -227h118q137 0 207 -48t70 -142q0 -58 -29.5 -104t-82 -78.5t-123.5 -50t-153 -17.5h-339l10 31l46 7q13 2 22 5t15.5 8.5t11 15.5t9.5 25zM565 114q-14 -43 0 -57.5t59 -14.5
h53q118 0 184.5 52.5t66.5 152.5q0 70 -42 106t-145 36h-92z" />
    <glyph glyph-name="uni040A" unicode="&#x40a;" horiz-adv-x="1236" 
d="M266 0h-283l10 31l46 7q14 2 23 5t15.5 8.5t10.5 15.5t9 25l178 574q8 31 3.5 40.5t-30.5 13.5l-41 7l10 31h283l-11 -31l-45 -7q-14 -2 -23 -5t-15.5 -8.5t-11.5 -15t-9 -24.5l-73 -238h356l73 237q9 31 4.5 40.5t-30.5 13.5l-42 7l11 31h294l-11 -31l-57 -7
q-27 -3 -38 -13t-20 -40l-74 -239h135q131 0 201 -43.5t70 -138.5q0 -60 -34.5 -105.5t-90 -77t-124.5 -47.5t-137 -16h-348l10 31l45 7q14 2 23 5t15.5 8.5t11 15.5t9.5 25l88 286h-355l-89 -287q-9 -30 -4.5 -39.5t30.5 -13.5l42 -7zM682 114q-14 -43 0 -57.5t59 -14.5h61
q54 0 100 16t79.5 43t52.5 62.5t19 73.5q0 69 -41 105t-142 36h-107z" />
    <glyph glyph-name="uni040B" unicode="&#x40b;" horiz-adv-x="970" 
d="M116 33l75 7q28 2 39 11.5t20 39.5l191 625h-11q-64 0 -104.5 -2t-68.5 -11.5t-47 -28t-39 -51.5l-29 -47h-28l65 184l283 -2h129l285 2l-47 -184h-27l-1 47q0 33 -8 51.5t-30 28t-62 11.5t-104 2h-46l-101 -331q50 32 114 53.5t130 21.5q43 0 80 -10.5t61 -35.5
t30.5 -66.5t-12.5 -103.5l-46 -153q-10 -29 -5.5 -39t30.5 -14l46 -7l-10 -31h-200l70 227q25 81 -1 122t-117 41q-27 0 -53 -4.5t-50 -12t-45 -17.5t-37 -20l-75 -245q-9 -30 -4 -39.5t31 -11.5l71 -7l-10 -33h-343z" />
    <glyph glyph-name="uni040F" unicode="&#x40f;" horiz-adv-x="890" 
d="M583 0q-55 0 -90 -2t-58 -11t-38.5 -28t-32.5 -53l-31 -66h-28l8 66q4 34 0.5 53t-21 28t-51 11t-88.5 2h-170l9 31l46 7q14 2 23.5 5t15.5 8.5t10.5 15.5t9.5 25l177 574q10 31 5 40.5t-31 13.5l-41 7l9 31h283l-10 -31l-45 -7q-14 -2 -23.5 -5t-16 -8.5t-11 -15
t-8.5 -24.5l-170 -551q-8 -26 -7 -41t10 -22.5t26.5 -9t43.5 -1.5h185q25 0 44 1.5t32.5 9t23.5 22.5t18 41l170 550q10 31 5 40.5t-31 13.5l-41 7l9 31h283l-10 -31l-45 -7q-14 -2 -23.5 -5t-16 -8.5t-11 -15t-8.5 -24.5l-177 -575q-10 -31 -5 -40.5t30 -13.5l42 -7l-9 -31
h-170z" />
    <glyph glyph-name="uni0490" unicode="&#x490;" horiz-adv-x="670" 
d="M420 716q-20 0 -26 -20l-187 -605q-9 -30 -4 -39.5t31 -11.5l72 -7l-10 -33h-313l9 31l46 7q14 2 23.5 5t15.5 8.5t10.5 15.5t9.5 25l177 574q10 31 5 40.5t-31 13.5l-41 7l9 31h289q65 0 107 1.5t70.5 10.5t47.5 28t37 54l35 66h28l-72 -202h-338z" />
    <glyph glyph-name="uni0462" unicode="&#x462;" horiz-adv-x="808" 
d="M442 586l-71 -221h125q59 0 107 -8.5t82 -26.5t52.5 -47t18.5 -71q0 -47 -29.5 -85.5t-81 -67t-120.5 -44t-147 -15.5h-322l11 31l45 7q14 2 23.5 5t16 8.5t11.5 15.5t10 25l158 494h-10q-53 0 -86.5 -2.5t-56.5 -11.5t-40.5 -27.5t-38.5 -51.5l-30 -46h-28l68 183
l226 -2h10l12 38q11 31 6 40.5t-31 13.5l-41 7l10 31h274l-10 -31l-37 -7q-14 -2 -23.5 -5t-16 -8.5t-11 -15t-9.5 -24.5l-13 -39h9l228 2l-50 -183h-28v46q0 33 -5 51.5t-22 27.5t-49 11.5t-85 2.5h-11zM290 114q-14 -43 -0.5 -57.5t58.5 -14.5h35q51 0 95 12.5t76 34.5
t50.5 52t18.5 65q0 52 -44.5 80.5t-143.5 28.5h-80z" />
    <glyph glyph-name="uni0472" unicode="&#x472;" 
d="M407 -13q-71 0 -130.5 23t-103 64.5t-67.5 99t-24 127.5q0 60 18 119t50.5 112t77.5 98.5t98.5 78.5t114.5 51.5t126 18.5q70 0 130 -23t103 -64.5t67.5 -99t24.5 -127.5q0 -60 -18 -119t-50.5 -112t-77.5 -98.5t-98.5 -78.5t-115 -51.5t-125.5 -18.5zM224 394
q86 33 146.5 42t104.5 4t76.5 -18t63 -23.5t63 -13t77.5 13.5q9 48 9 93q0 63 -15.5 108.5t-42.5 74.5t-64 43t-81 14q-70 0 -126 -30t-98 -78t-70.5 -108.5t-42.5 -121.5zM412 34q69 0 124.5 29t97.5 75.5t70 106t43 119.5q-63 -25 -109.5 -35.5t-82 -11.5t-62 6t-50 16.5
t-45.5 19t-48 14.5t-58 2.5t-75 -17.5q-4 -22 -5.5 -43t-1.5 -41q0 -63 15 -108.5t42 -74.5t64 -43t81 -14z" />
    <glyph glyph-name="uni0474" unicode="&#x474;" horiz-adv-x="804" 
d="M293 -30h-36l-31 679q-1 19 -3 31.5t-6.5 20.5t-14 12.5t-25.5 6.5l-40 7l9 31h286l-10 -31l-45 -7q-14 -2 -22.5 -5.5t-13 -9.5t-5.5 -15t0 -24l25 -528l372 494q22 30 45.5 56.5t47.5 46.5t47.5 32t47.5 12q31 0 45 -14.5t14 -37.5q0 -28 -21 -44t-52 -25
q-20 -6 -38.5 -9t-38 -10t-39.5 -22t-42 -45z" />
    <glyph glyph-name="uni04AE" unicode="&#x4ae;" horiz-adv-x="778" 
d="M149 33l75 7q28 2 39 11.5t20 39.5l74 243l-122 315q-11 29 -20 47.5t-35 23.5l-40 7l10 31h287l-10 -31l-46 -7q-28 -5 -37.5 -16t1.5 -38l109 -281l246 238q27 26 40.5 43.5t16.5 28.5t-3.5 17t-19.5 8l-41 7l10 31h242l-9 -31l-46 -7q-14 -2 -26 -9t-26 -19.5
t-32.5 -31.5t-45.5 -45l-293 -282l-74 -242q-9 -30 -4 -39.5t31 -11.5l71 -7l-10 -33h-343z" />
    <glyph glyph-name="uni04AE" unicode="&#x4b0;" horiz-adv-x="778" 
d="M149 33l75 7q28 2 39 11.5t20 39.5l74 243l-122 315q-11 29 -20 47.5t-35 23.5l-40 7l10 31h287l-10 -31l-46 -7q-28 -5 -37.5 -16t1.5 -38l109 -281l246 238q27 26 40.5 43.5t16.5 28.5t-3.5 17t-19.5 8l-41 7l10 31h242l-9 -31l-46 -7q-14 -2 -26 -9t-26 -19.5
t-32.5 -31.5t-45.5 -45l-293 -282l-74 -242q-9 -30 -4 -39.5t31 -11.5l71 -7l-10 -33h-343z" />
    <glyph glyph-name="uni04BA" unicode="&#x4ba;" horiz-adv-x="839" 
d="M671.959 91.9941q-8.99902 -30.998 -4.5 -40.4971q4.5 -9.5 30.498 -13.499l41.998 -7l-10 -30.998h-282.982l9.99902 30.998l45.998 7q26.998 3.99902 37.9971 13.499q11 9.49902 19.999 39.4971l30.998 100.994q15.999 52.9971 18.999 91.4941q3 38.498 -11 63.9961
q-13.999 25.499 -47.4971 37.498q-33.4971 11.999 -90.4941 11.999q-53.9971 0 -92.4941 -5.99902q-38.498 -6 -73.4951 -14l-87.9951 -284.982q-8.99902 -30.998 -4.5 -40.4971q4.5 -9.5 30.498 -13.499l41.998 -7l-10 -30.998h-282.982l9.99902 30.998l45.998 7
q26.998 3.99902 37.9971 13.499q10.999 9.49902 19.999 39.4971l177.989 575.965q8.99902 29.998 4 39.498q-5 9.49902 -30.999 13.499l-40.9971 7l9.99902 30.998h299.982l-10 -30.998l-62.9961 -7q-27.998 -3 -38.9971 -12.999q-11 -10 -19.999 -40.998l-73.9951 -240.985
q37.9971 9 77.9951 15.999q39.9971 7 90.9941 7q74.9951 0 126.992 -14.499t80.4951 -45.4971t32.498 -79.9951t-16.999 -116.993z" />
    <glyph glyph-name="uni04C0" unicode="&#x4c0;" horiz-adv-x="402" 
d="M273 666q10 31 4.5 40t-30.5 14l-41 7l9 31h283l-10 -31l-46 -7q-14 -2 -23 -5t-15.5 -8.5t-11 -15t-8.5 -24.5l-176 -576q-9 -30 -4.5 -39.5t29.5 -13.5l42 -7l-9 -31h-283l9 31l46 7q14 2 23.5 5t15.5 9t10.5 15.5t9.5 24.5z" />
    <glyph glyph-name="uni04D8" unicode="&#x4d8;" horiz-adv-x="799" 
d="M358 -11q-69 0 -124 23.5t-92.5 65.5t-55.5 101.5t-13 131.5h594q7 28 10 55.5t3 54.5q0 71 -19 124t-51.5 88.5t-76 53.5t-93.5 18q-82 0 -157.5 -42t-129.5 -125l-33 19q22 44 57 84.5t81.5 71.5t104.5 49.5t127 18.5q67 0 124 -22.5t98 -64t64.5 -100.5t23.5 -132
q0 -97 -36.5 -183t-97.5 -150.5t-141 -102t-167 -37.5zM365 35q57 0 103.5 18.5t82.5 50.5t62 74.5t42 89.5h-463q-10 -111 36.5 -172t136.5 -61z" />
    <glyph glyph-name="uni04E8" unicode="&#x4e8;" 
d="M407 -13q-71 0 -130.5 23t-103 64.5t-67.5 99t-24 127.5q0 60 18 119t50.5 112t77.5 98.5t98.5 78.5t114.5 51.5t126 18.5q70 0 130 -23t103 -64.5t67.5 -99t24.5 -127.5q0 -60 -18 -119t-50.5 -112t-77.5 -98.5t-98.5 -78.5t-115 -51.5t-125.5 -18.5zM412 34
q69 0 124 28.5t96.5 74.5t70 104.5t43.5 118.5h-528q-4 -23 -6 -44.5t-2 -41.5q0 -63 15 -108.5t42 -74.5t64 -43t81 -14zM561 732q-68 0 -122.5 -28t-96.5 -73.5t-70.5 -103.5t-43.5 -117h529q3 21 5 41.5t2 40.5q0 63 -15.5 108.5t-42.5 74.5t-64 43t-81 14z" />
    <glyph glyph-name="uni0430" unicode="&#x430;" horiz-adv-x="567" 
d="M82 -13q-44 0 -64 28.5t-20 66.5q0 43 19.5 92.5t51 98t72.5 93t83.5 78.5t84 54.5t74.5 20.5q18 0 33.5 -8.5t20.5 -27.5l16 44h95l-156 -412q-11 -29 -13.5 -45t9.5 -16q10 0 27 11.5t36.5 31t40 45t38.5 53.5l28 -17q-60 -94 -119.5 -142.5t-109.5 -48.5
q-46 0 -49.5 28t17.5 88l23 64h-1q-27 -35 -55.5 -67.5t-58.5 -57.5t-61 -40t-62 -15zM145 50q16 0 46 22t63.5 59.5t66 87.5t54.5 107l27 69q10 25 10.5 41.5t-5 26.5t-15 14t-19.5 4q-40 0 -85 -36.5t-83.5 -92t-63.5 -121t-25 -124.5q0 -23 6 -40t23 -17z" />
    <glyph glyph-name="uni0431" unicode="&#x431;" horiz-adv-x="535" 
d="M505 365q0 -69 -28.5 -137t-74 -121.5t-101.5 -86.5t-110 -33q-76 0 -114.5 48.5t-38.5 136.5q0 59 15.5 123t45 126.5t71.5 120t95.5 103t117 75.5t135.5 39q51 5 85 20t48 50h24q-11 -36 -26 -65.5t-38.5 -50.5t-56.5 -33.5t-81 -15.5q-36 -3 -61 -4t-42 -3.5t-29.5 -6
t-22.5 -10.5q-33 -23 -66.5 -78t-60.5 -127q18 15 39 30t44.5 27t47.5 19t48 7q64 0 99.5 -42t35.5 -111zM202 29q31 0 57.5 18.5t48 47.5t38 66t28 73.5t17 70t5.5 56.5q0 47 -20.5 72t-65.5 25q-32 0 -63 -19t-73 -56q-20 -61 -31 -123.5t-11 -118.5q0 -59 19.5 -85.5
t50.5 -26.5z" />
    <glyph glyph-name="uni0432" unicode="&#x432;" horiz-adv-x="503" 
d="M415 175q0 -34 -19.5 -67.5t-51.5 -60.5t-73 -43.5t-84 -16.5q-81 0 -120 34.5t-39 99.5q0 42 15 88t40.5 90.5t60 84t73 70t79 48t78.5 17.5q53 0 80.5 -21t27.5 -56q0 -31 -14.5 -57t-40.5 -47t-62.5 -37t-79.5 -27q66 -2 98 -27.5t32 -71.5zM346 482q-25 0 -52 -16
t-52 -45t-46 -69.5t-35 -88.5q61 13 103 33.5t67.5 45t37 51t11.5 51.5q0 17 -9 27.5t-25 10.5zM140 112q0 -39 13.5 -64.5t48.5 -25.5q23 0 42.5 13.5t33.5 35t22 47.5t8 52q0 38 -15.5 58.5t-53.5 20.5q-20 0 -41.5 -5t-44.5 -12q-6 -29 -9.5 -58.5t-3.5 -61.5z" />
    <glyph glyph-name="uni0433" unicode="&#x433;" horiz-adv-x="485" 
d="M178 -13q-35 0 -65 7t-52 21t-34.5 34.5t-12.5 46.5q0 29 9.5 52.5t31 44.5t57 40.5t88.5 40.5l52 21q57 23 89.5 53.5t32.5 72.5q0 29 -20 44.5t-50 15.5q-38 0 -63.5 -18t-56.5 -54l-41 -47l-29 6l62 131q35 11 70 15t63 4q30 0 57.5 -5.5t48 -17.5t32.5 -31.5
t12 -46.5q0 -32 -13.5 -58t-37.5 -47.5t-57 -39.5t-72 -34l-61 -24q-58 -23 -87 -53t-29 -72q0 -34 20 -49t60 -15t70.5 22t66.5 70l40 54l29 -6l-58 -146q-32 -14 -71 -23t-81 -9z" />
    <glyph glyph-name="uni0433" unicode="&#x493;" horiz-adv-x="485" 
d="M178 -13q-35 0 -65 7t-52 21t-34.5 34.5t-12.5 46.5q0 29 9.5 52.5t31 44.5t57 40.5t88.5 40.5l52 21q57 23 89.5 53.5t32.5 72.5q0 29 -20 44.5t-50 15.5q-38 0 -63.5 -18t-56.5 -54l-41 -47l-29 6l62 131q35 11 70 15t63 4q30 0 57.5 -5.5t48 -17.5t32.5 -31.5
t12 -46.5q0 -32 -13.5 -58t-37.5 -47.5t-57 -39.5t-72 -34l-61 -24q-58 -23 -87 -53t-29 -72q0 -34 20 -49t60 -15t70.5 22t66.5 70l40 54l29 -6l-58 -146q-32 -14 -71 -23t-81 -9z" />
    <glyph glyph-name="uni0433" unicode="&#x453;" horiz-adv-x="485" 
d="M178 -13q-35 0 -65 7t-52 21t-34.5 34.5t-12.5 46.5q0 29 9.5 52.5t31 44.5t57 40.5t88.5 40.5l52 21q57 23 89.5 53.5t32.5 72.5q0 29 -20 44.5t-50 15.5q-38 0 -63.5 -18t-56.5 -54l-41 -47l-29 6l62 131q35 11 70 15t63 4q30 0 57.5 -5.5t48 -17.5t32.5 -31.5
t12 -46.5q0 -32 -13.5 -58t-37.5 -47.5t-57 -39.5t-72 -34l-61 -24q-58 -23 -87 -53t-29 -72q0 -34 20 -49t60 -15t70.5 22t66.5 70l40 54l29 -6l-58 -146q-32 -14 -71 -23t-81 -9z" />
    <glyph glyph-name="uni0434" unicode="&#x434;" horiz-adv-x="537" 
d="M182 -13q-76 0 -115 38t-39 110q0 47 13.5 94t37.5 89.5t57 79.5t71 63.5t80 42t84 15.5q17 0 30 -2.5t21 -5.5q1 11 1 21v21q0 43 -5.5 80.5t-18 65t-32 43t-47.5 15.5q-29 0 -49 -9t-40 -28l-19 27q22 23 50.5 37t69.5 14q49 0 85 -23.5t60 -63t35.5 -92.5t11.5 -113
q0 -93 -23.5 -185.5t-67.5 -167t-107.5 -120.5t-143.5 -46zM139 124q0 -46 13.5 -71.5t45.5 -25.5q39 0 75 38t65 99.5t50 139t30 156.5q-15 20 -52 20q-52 0 -94 -33t-71.5 -85t-45.5 -115t-16 -123z" />
    <glyph glyph-name="uni0435" unicode="&#x435;" horiz-adv-x="445" 
d="M145 -13q-54 0 -91.5 34.5t-37.5 99.5q0 42 15 88t40 90.5t59 84t72 70t78 48t78 17.5q47 0 71.5 -21t24.5 -56q0 -44 -21.5 -73.5t-48.5 -48.5q-22 -6 -52 -14t-63 -15.5l-66 -15t-60 -13.5q-15 -51 -15 -107q0 -48 16 -75.5t53 -27.5q40 0 77.5 35t75.5 95l27 -18
q-22 -36 -46.5 -68t-52.5 -56.5t-61 -38.5t-72 -14zM330 482q-23 0 -48 -14t-49 -39.5t-45 -60t-36 -75.5q23 5 43.5 10.5t37.5 11.5q40 13 66 28.5t41 32.5t21 34t6 34t-9.5 27.5t-27.5 10.5z" />
    <glyph glyph-name="uni0435" unicode="&#x451;" horiz-adv-x="445" 
d="M145 -13q-54 0 -91.5 34.5t-37.5 99.5q0 42 15 88t40 90.5t59 84t72 70t78 48t78 17.5q47 0 71.5 -21t24.5 -56q0 -44 -21.5 -73.5t-48.5 -48.5q-22 -6 -52 -14t-63 -15.5l-66 -15t-60 -13.5q-15 -51 -15 -107q0 -48 16 -75.5t53 -27.5q40 0 77.5 35t75.5 95l27 -18
q-22 -36 -46.5 -68t-52.5 -56.5t-61 -38.5t-72 -14zM330 482q-23 0 -48 -14t-49 -39.5t-45 -60t-36 -75.5q23 5 43.5 10.5t37.5 11.5q40 13 66 28.5t41 32.5t21 34t6 34t-9.5 27.5t-27.5 10.5z" />
    <glyph glyph-name="uni0436" unicode="&#x436;" horiz-adv-x="922" 
d="M248 519q44 0 70.5 -34.5t25.5 -100.5q-2 -58 -24 -121l97 14l83 216l110 22l-85 -224l100 14q21 43 49.5 81.5t61.5 68t69 47t73 17.5q28 0 44.5 -16t16.5 -44q0 -20 -12.5 -35.5t-29.5 -15.5t-24 8t-12 17.5t-12 17.5t-25 8q-30 0 -56.5 -26t-46.5 -68.5t-32 -97
t-13 -112.5q-1 -48 8.5 -75.5t32.5 -27.5q26 0 53 33.5t55 96.5l27 -18q-18 -39 -37 -71.5t-41.5 -56t-48 -36.5t-56.5 -13q-43 0 -69.5 34.5t-25.5 99.5q1 33 9.5 69.5t23.5 74.5l-97 -13l-92 -243l-112 -20l95 248l-97 -13q-21 -46 -49.5 -89t-63 -76t-73 -52.5
t-78.5 -19.5q-28 0 -44.5 16t-16.5 43q0 20 12.5 36t29.5 16t24 -8t12 -17.5t12 -17.5t24 -8q30 0 56.5 25.5t47 68t32.5 97.5t12 113q1 47 -8 74.5t-32 27.5q-26 0 -53 -33.5t-55 -96.5l-27 18q17 39 36 71.5t41.5 56.5t48 37t56.5 13z" />
    <glyph glyph-name="uni0436" unicode="&#x497;" horiz-adv-x="922" 
d="M248 519q44 0 70.5 -34.5t25.5 -100.5q-2 -58 -24 -121l97 14l83 216l110 22l-85 -224l100 14q21 43 49.5 81.5t61.5 68t69 47t73 17.5q28 0 44.5 -16t16.5 -44q0 -20 -12.5 -35.5t-29.5 -15.5t-24 8t-12 17.5t-12 17.5t-25 8q-30 0 -56.5 -26t-46.5 -68.5t-32 -97
t-13 -112.5q-1 -48 8.5 -75.5t32.5 -27.5q26 0 53 33.5t55 96.5l27 -18q-18 -39 -37 -71.5t-41.5 -56t-48 -36.5t-56.5 -13q-43 0 -69.5 34.5t-25.5 99.5q1 33 9.5 69.5t23.5 74.5l-97 -13l-92 -243l-112 -20l95 248l-97 -13q-21 -46 -49.5 -89t-63 -76t-73 -52.5
t-78.5 -19.5q-28 0 -44.5 16t-16.5 43q0 20 12.5 36t29.5 16t24 -8t12 -17.5t12 -17.5t24 -8q30 0 56.5 25.5t47 68t32.5 97.5t12 113q1 47 -8 74.5t-32 27.5q-26 0 -53 -33.5t-55 -96.5l-27 18q17 39 36 71.5t41.5 56.5t48 37t56.5 13z" />
    <glyph glyph-name="uni0437" unicode="&#x437;" horiz-adv-x="440" 
d="M142 23q27 0 48.5 12.5t36.5 33t23 45t8 48.5q0 32 -16.5 54.5t-52.5 22.5q-16 0 -35 -4.5t-39 -11.5l4 37q57 12 95.5 30t62 40t34 45.5t10.5 45.5q0 17 -11 29t-40 12q-82 0 -157 -104l-27 18q17 28 40 53.5t51 45.5t61 32t70 12q56 0 83.5 -23.5t27.5 -58.5
q0 -31 -13 -57.5t-37 -48.5t-57.5 -39t-73.5 -28q65 -1 96.5 -25.5t31.5 -70.5q0 -34 -20.5 -66.5t-55 -58t-79 -41t-91.5 -15.5q-67 0 -102.5 22t-35.5 56q0 20 13.5 34.5t33.5 14.5t31 -14t21 -31.5t23 -31.5t38 -14z" />
    <glyph glyph-name="uni0438" unicode="&#x438;" horiz-adv-x="611" 
d="M171 170q-24 -60 -25.5 -88.5t23.5 -28.5q22 0 57.5 24t74 68t75.5 105.5t63 136.5l36 105l114 24l-155 -401q-11 -29 -13.5 -45t9.5 -16q10 0 27 11.5t36 31t39.5 45t38.5 53.5l29 -17q-61 -94 -120.5 -142.5t-108.5 -48.5q-47 0 -52 27.5t17 86.5l27 72h-2
q-76 -93 -138.5 -139.5t-120.5 -46.5q-56 0 -62.5 45t25.5 124l108 265q7 16 1.5 24t-29.5 12l-48 7l10 27l204 23z" />
    <glyph glyph-name="uni0438" unicode="&#x4e3;" horiz-adv-x="611" 
d="M171 170q-24 -60 -25.5 -88.5t23.5 -28.5q22 0 57.5 24t74 68t75.5 105.5t63 136.5l36 105l114 24l-155 -401q-11 -29 -13.5 -45t9.5 -16q10 0 27 11.5t36 31t39.5 45t38.5 53.5l29 -17q-61 -94 -120.5 -142.5t-108.5 -48.5q-47 0 -52 27.5t17 86.5l27 72h-2
q-76 -93 -138.5 -139.5t-120.5 -46.5q-56 0 -62.5 45t25.5 124l108 265q7 16 1.5 24t-29.5 12l-48 7l10 27l204 23z" />
    <glyph glyph-name="uni0438" unicode="&#x439;" horiz-adv-x="611" 
d="M171 170q-24 -60 -25.5 -88.5t23.5 -28.5q22 0 57.5 24t74 68t75.5 105.5t63 136.5l36 105l114 24l-155 -401q-11 -29 -13.5 -45t9.5 -16q10 0 27 11.5t36 31t39.5 45t38.5 53.5l29 -17q-61 -94 -120.5 -142.5t-108.5 -48.5q-47 0 -52 27.5t17 86.5l27 72h-2
q-76 -93 -138.5 -139.5t-120.5 -46.5q-56 0 -62.5 45t25.5 124l108 265q7 16 1.5 24t-29.5 12l-48 7l10 27l204 23z" />
    <glyph glyph-name="uni043A" unicode="&#x43a;" horiz-adv-x="603" 
d="M396 -27q-24 0 -40.5 11.5t-31.5 42.5l-110 229l177 105q21 12 34 24t20.5 24.5t10.5 27.5t4 34q2 22 12 35t33 13t39.5 -13t16.5 -34q0 -12 -4 -24t-18.5 -27t-42.5 -35t-77 -48l-112 -62l110 -213q11 -23 26 -23q17 0 48 36t65 91l29 -18q-30 -47 -54 -80t-46 -54.5
t-43.5 -31.5t-45.5 -10zM168 410q9 23 7 33t-28 14l-50 7l11 27l201 23l-192 -505l-112 -20z" />
    <glyph glyph-name="uni043A" unicode="&#x49b;" horiz-adv-x="603" 
d="M396 -27q-24 0 -40.5 11.5t-31.5 42.5l-110 229l177 105q21 12 34 24t20.5 24.5t10.5 27.5t4 34q2 22 12 35t33 13t39.5 -13t16.5 -34q0 -12 -4 -24t-18.5 -27t-42.5 -35t-77 -48l-112 -62l110 -213q11 -23 26 -23q17 0 48 36t65 91l29 -18q-30 -47 -54 -80t-46 -54.5
t-43.5 -31.5t-45.5 -10zM168 410q9 23 7 33t-28 14l-50 7l11 27l201 23l-192 -505l-112 -20z" />
    <glyph glyph-name="uni043A" unicode="&#x45c;" horiz-adv-x="603" 
d="M396 -27q-24 0 -40.5 11.5t-31.5 42.5l-110 229l177 105q21 12 34 24t20.5 24.5t10.5 27.5t4 34q2 22 12 35t33 13t39.5 -13t16.5 -34q0 -12 -4 -24t-18.5 -27t-42.5 -35t-77 -48l-112 -62l110 -213q11 -23 26 -23q17 0 48 36t65 91l29 -18q-30 -47 -54 -80t-46 -54.5
t-43.5 -31.5t-45.5 -10zM168 410q9 23 7 33t-28 14l-50 7l11 27l201 23l-192 -505l-112 -20z" />
    <glyph glyph-name="uni043B" unicode="&#x43b;" horiz-adv-x="558" 
d="M409 455h-115l-115 -240q-32 -66 -58.5 -109t-50.5 -68.5t-45 -35.5t-41 -10t-32 13t-12 30q0 15 10.5 28.5t33.5 22.5q30 12 53 23t44.5 31.5t44 56t51.5 96.5l77 162h-73l20 47h329l-149 -387q-11 -29 -14 -45t10 -16q10 0 27 11.5t36 31t39.5 45t38.5 53.5l28 -17
q-60 -94 -119.5 -142.5t-109.5 -48.5q-48 0 -53 28.5t16 85.5z" />
    <glyph glyph-name="uni043C" unicode="&#x43c;" horiz-adv-x="797" 
d="M633 416l-338 -424h-32l12 372l-97 -176q-30 -54 -53 -91t-43.5 -60.5t-40 -34t-42.5 -10.5q-20 0 -32 13t-12 30q0 15 11 29t37 21q20 5 38 12.5t36 23t37 41.5t42 67l117 211q-7 8 -33 5l-62 -9l-3 28l190 51l6 -8l-11 -364l280 347l135 26l-155 -401
q-11 -29 -13.5 -45t9.5 -16q10 0 27 11.5t36.5 31t40 45t38.5 53.5l28 -17q-61 -94 -120 -142.5t-109 -48.5q-49 0 -53.5 28.5t16.5 85.5z" />
    <glyph glyph-name="uni043D" unicode="&#x43d;" horiz-adv-x="603" 
d="M168 410q9 23 7 33t-28 14l-50 7l11 27l201 23l-99 -262l183 34l74 206l114 24l-155 -401q-11 -29 -13.5 -45t9.5 -16q10 0 27 11.5t36.5 31t40 45t38.5 53.5l28 -17q-61 -94 -120.5 -142.5t-108.5 -48.5t-53.5 28.5t16.5 85.5l52 145l-184 -34l-77 -203l-112 -20z" />
    <glyph glyph-name="uni043D" unicode="&#x4a3;" horiz-adv-x="603" 
d="M168 410q9 23 7 33t-28 14l-50 7l11 27l201 23l-99 -262l183 34l74 206l114 24l-155 -401q-11 -29 -13.5 -45t9.5 -16q10 0 27 11.5t36.5 31t40 45t38.5 53.5l28 -17q-61 -94 -120.5 -142.5t-108.5 -48.5t-53.5 28.5t16.5 85.5l52 145l-184 -34l-77 -203l-112 -20z" />
    <glyph glyph-name="uni043E" unicode="&#x43e;" horiz-adv-x="534" 
d="M174 -13q-42 0 -71 13.5t-47 35.5t-26 48.5t-8 53.5q0 46 15 92t41 88t60 79t72 64t77 42.5t76 15.5q42 0 71 -14t47 -35.5t26 -48.5t8 -54q0 -46 -15 -92t-40.5 -88t-59.5 -78.5t-72 -63.5t-77.5 -42.5t-76.5 -15.5zM199 28q31 0 58 18t50 47.5t41 67t30.5 76.5t19 75.5
t6.5 64.5q0 52 -16.5 76t-49.5 24q-31 0 -58 -18t-50 -47.5t-41 -67t-30.5 -76.5t-19 -75.5t-6.5 -64.5q0 -52 16.5 -76t49.5 -24z" />
    <glyph glyph-name="uni043F" unicode="&#x43f;" horiz-adv-x="612" 
d="M173 421q6 16 1 24t-29 12l-48 7l10 27l200 23l-74 -181h1q78 94 139 140t119 46q57 0 63 -45.5t-26 -124.5l-95 -234q-12 -29 -14.5 -45t9.5 -16q11 0 27.5 11.5t36 31t40 45t38.5 53.5l28 -17q-60 -94 -119.5 -142.5t-109.5 -48.5q-46 0 -56 27.5t14 86.5l95 234
q24 60 25.5 88.5t-23.5 28.5q-21 0 -56 -24t-73 -65.5t-73.5 -97.5t-58.5 -121l-46 -135l-113 -20z" />
    <glyph glyph-name="uni0440" unicode="&#x440;" horiz-adv-x="569" 
d="M255 403h1q21 24 45 45t49.5 37t51 25t49.5 9q61 0 87 -34.5t24 -89.5q-2 -44 -18.5 -91.5t-44 -93t-63 -86t-74.5 -71t-79.5 -48.5t-77.5 -18q-22 0 -43 7.5t-35 23.5l-91 -266h-96l227 669q5 16 0.5 24t-28.5 12l-49 7l11 27l197 23zM214 25q31 0 60 16t54.5 43
t46.5 62.5t37 73.5t25 76.5t11 72.5q2 42 -11.5 66t-42.5 24q-32 0 -71.5 -27.5t-80.5 -76.5l-84 -247q-14 -41 5.5 -62t50.5 -21z" />
    <glyph glyph-name="uni0441" unicode="&#x441;" horiz-adv-x="436" 
d="M144 -13q-27 0 -50 9t-40.5 26t-27.5 42t-10 57q0 39 14 84t38.5 89.5t58 85t72 71.5t80 49.5t83.5 18.5q38 0 65 -15t27 -49q0 -23 -16.5 -38.5t-33.5 -15.5t-26.5 9t-19 20t-23.5 20t-39 9q-35 0 -65.5 -26t-53 -68.5t-36 -97t-13.5 -112.5q0 -48 16 -75.5t52 -27.5
q40 0 77.5 35t75.5 95l27 -18q-22 -36 -46.5 -68t-52.5 -56.5t-61 -38.5t-72 -14z" />
    <glyph glyph-name="uni0442" unicode="&#x442;" horiz-adv-x="895" 
d="M233 333h1q78 94 139 140t119 46q57 0 62.5 -47.5t-38.5 -138.5h2q78 94 139 140t119 46q56 0 62.5 -45.5t-25.5 -124.5l-96 -234q-12 -29 -14 -45t10 -16q10 0 27 11.5t36.5 31t40 45t38.5 53.5l28 -17q-61 -94 -120 -142.5t-109 -48.5q-46 0 -56.5 27.5t13.5 86.5
l96 234q25 60 26 88.5t-24 28.5q-21 0 -56 -24t-73 -65.5t-73.5 -97.5t-58.5 -121l-47 -135l-112 -20l134 346q23 60 25 88.5t-23 28.5q-21 0 -56 -24t-73 -65.5t-73.5 -97.5t-58.5 -121l-46 -135l-113 -20l168 432q6 16 1 24t-29 12l-48 7l10 27l200 23z" />
    <glyph glyph-name="uni0443" unicode="&#x443;" horiz-adv-x="536" 
d="M-93 -267q-26 0 -38 13.5t-12 30.5q0 28 16 36t39 9t48.5 1.5t43.5 13.5q37 26 72.5 67t73.5 98l-3 419q0 18 -4.5 25.5t-23.5 10.5l-48 7l10 27l165 22l-2 -381l147 205q37 52 63.5 87t47.5 56t38.5 30t35.5 9q20 0 33 -11t13 -31q0 -17 -10 -32.5t-38 -24.5
q-23 -8 -42.5 -16.5t-38.5 -22.5t-39 -35.5t-44 -54.5l-198 -279q-17 -24 -38.5 -52.5t-45 -57t-48 -55.5t-48.5 -48q-22 -19 -38.5 -31.5t-31 -20t-27.5 -11t-28 -3.5z" />
    <glyph glyph-name="uni0443" unicode="&#x4ef;" horiz-adv-x="536" 
d="M-93 -267q-26 0 -38 13.5t-12 30.5q0 28 16 36t39 9t48.5 1.5t43.5 13.5q37 26 72.5 67t73.5 98l-3 419q0 18 -4.5 25.5t-23.5 10.5l-48 7l10 27l165 22l-2 -381l147 205q37 52 63.5 87t47.5 56t38.5 30t35.5 9q20 0 33 -11t13 -31q0 -17 -10 -32.5t-38 -24.5
q-23 -8 -42.5 -16.5t-38.5 -22.5t-39 -35.5t-44 -54.5l-198 -279q-17 -24 -38.5 -52.5t-45 -57t-48 -55.5t-48.5 -48q-22 -19 -38.5 -31.5t-31 -20t-27.5 -11t-28 -3.5z" />
    <glyph glyph-name="uni0443" unicode="&#x45e;" horiz-adv-x="536" 
d="M-93 -267q-26 0 -38 13.5t-12 30.5q0 28 16 36t39 9t48.5 1.5t43.5 13.5q37 26 72.5 67t73.5 98l-3 419q0 18 -4.5 25.5t-23.5 10.5l-48 7l10 27l165 22l-2 -381l147 205q37 52 63.5 87t47.5 56t38.5 30t35.5 9q20 0 33 -11t13 -31q0 -17 -10 -32.5t-38 -24.5
q-23 -8 -42.5 -16.5t-38.5 -22.5t-39 -35.5t-44 -54.5l-198 -279q-17 -24 -38.5 -52.5t-45 -57t-48 -55.5t-48.5 -48q-22 -19 -38.5 -31.5t-31 -20t-27.5 -11t-28 -3.5z" />
    <glyph glyph-name="uni0444" unicode="&#x444;" horiz-adv-x="711" 
d="M495 518q54 -3 92 -19t61 -40t33.5 -53.5t10.5 -59.5q0 -65 -31.5 -126.5t-84 -110.5t-120.5 -81.5t-141 -39.5l-80 -236h-97l80 236q-54 3 -91.5 20t-61 42t-33.5 56t-10 62q0 64 31.5 124t84 108t120.5 80t141 38l62 182q6 17 0.5 25.5t-29.5 11.5l-49 6l10 28l196 23z
M133 158q0 -61 24.5 -91t75.5 -37l152 446q-45 -4 -81.5 -21t-64.5 -43.5t-48 -59.5t-33 -67t-19 -67t-6 -60zM581 356q0 58 -24.5 85.5t-75.5 33.5l-152 -446q68 5 116 41.5t78 86t44 103.5t14 96z" />
    <glyph glyph-name="uni0445" unicode="&#x445;" horiz-adv-x="594" 
d="M-35 52q0 23 15 36t33 13q14 0 25 -7t20.5 -15.5t19 -15.5t20.5 -7t20 8q6 5 17 15.5t27.5 29.5t39.5 49t53 75l-17 144q-5 46 -12.5 62t-21.5 16q-18 0 -47.5 -28.5t-61.5 -69.5l-27 20q54 70 102.5 106t91.5 36q16 0 27 -5t18 -18t12 -34.5t9 -54.5l9 -78
q37 58 67.5 95t56 58t47.5 29t43 8q34 0 57 -18.5t23 -47.5q0 -23 -15 -36t-34 -13q-14 0 -25 7t-20.5 16t-18.5 16t-20 7t-21 -9q-6 -5 -16.5 -14.5t-26.5 -28.5t-38 -48.5t-52 -73.5l18 -147q6 -47 12.5 -62.5t20.5 -15.5q18 0 47 28.5t62 69.5l26 -20
q-53 -70 -101.5 -106t-91.5 -36q-17 0 -27.5 5t-18 18t-12 34t-8.5 54l-10 84q-38 -60 -68.5 -98t-56.5 -59.5t-48 -29.5t-44 -8q-33 0 -56 18t-23 47z" />
    <glyph glyph-name="uni0445" unicode="&#x4b3;" horiz-adv-x="594" 
d="M-35 52q0 23 15 36t33 13q14 0 25 -7t20.5 -15.5t19 -15.5t20.5 -7t20 8q6 5 17 15.5t27.5 29.5t39.5 49t53 75l-17 144q-5 46 -12.5 62t-21.5 16q-18 0 -47.5 -28.5t-61.5 -69.5l-27 20q54 70 102.5 106t91.5 36q16 0 27 -5t18 -18t12 -34.5t9 -54.5l9 -78
q37 58 67.5 95t56 58t47.5 29t43 8q34 0 57 -18.5t23 -47.5q0 -23 -15 -36t-34 -13q-14 0 -25 7t-20.5 16t-18.5 16t-20 7t-21 -9q-6 -5 -16.5 -14.5t-26.5 -28.5t-38 -48.5t-52 -73.5l18 -147q6 -47 12.5 -62.5t20.5 -15.5q18 0 47 28.5t62 69.5l26 -20
q-53 -70 -101.5 -106t-91.5 -36q-17 0 -27.5 5t-18 18t-12 34t-8.5 54l-10 84q-38 -60 -68.5 -98t-56.5 -59.5t-48 -29.5t-44 -8q-33 0 -56 18t-23 47z" />
    <glyph glyph-name="uni0446" unicode="&#x446;" horiz-adv-x="628" 
d="M171 170q-24 -60 -25.5 -88.5t23.5 -28.5q22 0 57.5 24t74 68t75.5 105.5t63 136.5l36 105l114 24l-155 -401q-11 -29 -13.5 -45t9.5 -16q10 0 27 11.5t36 31t39.5 45t38.5 53.5l29 -17l-18 -27q-20 -42 -24 -68t-1 -48.5t9 -47.5t6 -67q0 -46 -31.5 -73t-106.5 -34l7 24
q30 4 40.5 22t10.5 44q0 28 1.5 51t4.5 43t8.5 39t14.5 39q-82 -88 -150 -88q-47 0 -52 27.5t17 86.5l27 72h-2q-76 -93 -138.5 -139.5t-120.5 -46.5q-56 0 -62.5 45t25.5 124l108 265q7 16 1.5 24t-29.5 12l-48 7l10 27l204 23z" />
    <glyph glyph-name="uni0447" unicode="&#x447;" horiz-adv-x="577" 
d="M213 313q-18 -46 -18 -72t25 -26q21 0 49 16.5t58 50.5t60 86t54 124l113 24l-154 -401q-11 -29 -14 -45t10 -16q10 0 27 11.5t36 31t39.5 45t38.5 53.5l28 -17q-60 -94 -119.5 -142.5t-109.5 -48.5q-47 0 -52.5 28t17.5 88l72 194h-2q-57 -75 -106.5 -105.5t-99.5 -30.5
q-60 0 -70.5 40.5t20.5 116.5l38 92q9 22 7 32.5t-29 14.5l-49 7l10 27l203 23z" />
    <glyph glyph-name="uni0447" unicode="&#x4b7;" horiz-adv-x="577" 
d="M213 313q-18 -46 -18 -72t25 -26q21 0 49 16.5t58 50.5t60 86t54 124l113 24l-154 -401q-11 -29 -14 -45t10 -16q10 0 27 11.5t36 31t39.5 45t38.5 53.5l28 -17q-60 -94 -119.5 -142.5t-109.5 -48.5q-47 0 -52.5 28t17.5 88l72 194h-2q-57 -75 -106.5 -105.5t-99.5 -30.5
q-60 0 -70.5 40.5t20.5 116.5l38 92q9 22 7 32.5t-29 14.5l-49 7l10 27l203 23z" />
    <glyph glyph-name="uni0448" unicode="&#x448;" horiz-adv-x="886" 
d="M167 170q-24 -60 -25.5 -88.5t23.5 -28.5q22 0 57 24.5t73.5 68.5t76 105.5t63.5 135.5l36 105l114 24l-139 -346q-24 -60 -25.5 -88.5t23.5 -28.5q22 0 57 24t73.5 68t75.5 105.5t63 136.5l37 105l113 24l-155 -401q-11 -29 -13.5 -45t9.5 -16q10 0 27 11.5t36.5 31
t40 45t38.5 53.5l28 -17q-60 -94 -119.5 -142.5t-109.5 -48.5q-46 0 -51.5 27.5t16.5 86.5l27 72h-2q-76 -93 -138 -139.5t-120 -46.5q-47 0 -55 40.5t19 104.5l18 41h-2q-77 -93 -139 -139.5t-120 -46.5q-57 0 -63.5 45t25.5 124l104 254q9 22 7 32.5t-29 14.5l-49 7l11 27
l202 23z" />
    <glyph glyph-name="uni0448" unicode="&#x449;" horiz-adv-x="886" 
d="M167 170q-24 -60 -25.5 -88.5t23.5 -28.5q22 0 57 24.5t73.5 68.5t76 105.5t63.5 135.5l36 105l114 24l-139 -346q-24 -60 -25.5 -88.5t23.5 -28.5q22 0 57 24t73.5 68t75.5 105.5t63 136.5l37 105l113 24l-155 -401q-11 -29 -13.5 -45t9.5 -16q10 0 27 11.5t36.5 31
t40 45t38.5 53.5l28 -17q-60 -94 -119.5 -142.5t-109.5 -48.5q-46 0 -51.5 27.5t16.5 86.5l27 72h-2q-76 -93 -138 -139.5t-120 -46.5q-47 0 -55 40.5t19 104.5l18 41h-2q-77 -93 -139 -139.5t-120 -46.5q-57 0 -63.5 45t25.5 124l104 254q9 22 7 32.5t-29 14.5l-49 7l11 27
l202 23z" />
    <glyph glyph-name="uni044A" unicode="&#x44a;" horiz-adv-x="503" 
d="M203 518q17 -3 35.5 -11.5t37 -17.5t36.5 -16t36 -7q31 0 55 18t44 34l23 -25q-60 -47 -110.5 -93.5t-89.5 -92.5q39 14 75 14q53 0 82 -31t29 -83q0 -38 -19.5 -77.5t-53 -71.5t-79.5 -52.5t-99 -20.5q-71 0 -103.5 31.5t-32.5 83.5q0 45 18.5 84t51 74t75.5 69.5
t91 70.5q-35 4 -61 13t-46 18t-35.5 16t-30.5 7q-16 0 -26 -7.5t-10 -23.5q0 -13 7 -19.5t16 -12t16 -14t7 -24.5q0 -20 -14 -32t-35 -12q-25 0 -40 17.5t-15 40.5q0 24 9.5 43.5t24.5 36t33.5 30t36.5 24.5q20 13 34.5 17t26.5 2zM163 81q0 -60 52 -60q28 0 52.5 14.5
t43 39.5t29 57t10.5 67q0 33 -14.5 53.5t-46.5 20.5q-15 0 -27.5 -3.5t-29.5 -12.5q-33 -48 -51 -92t-18 -84z" />
    <glyph glyph-name="uni044B" unicode="&#x44b;" horiz-adv-x="747" 
d="M611 492l113 24l-154 -401q-11 -29 -14 -45t9 -16q10 0 27 11.5t36.5 31t40 45t38.5 53.5l28 -17q-60 -94 -119.5 -142.5t-109.5 -48.5q-49 0 -53.5 28.5t16.5 85.5zM218 295q53 28 103 28q53 0 82 -31t29 -83q0 -38 -19.5 -77.5t-53 -71.5t-79.5 -52.5t-99 -20.5
q-86 0 -116 53.5t9 147.5l90 222q9 22 7 32.5t-29 14.5l-49 7l11 27l202 23zM159 150q-11 -27 -16.5 -50.5t-2.5 -40.5t15 -26.5t36 -9.5q27 0 50.5 14.5t41.5 39t28.5 57t10.5 67.5q0 33 -14 53.5t-44 20.5q-16 0 -29 -4.5t-33 -15.5z" />
    <glyph glyph-name="uni044C" unicode="&#x44c;" horiz-adv-x="479" 
d="M218 295q53 28 103 28q53 0 82 -31t29 -83q0 -38 -19.5 -77.5t-53 -71.5t-79.5 -52.5t-99 -20.5q-86 0 -116 53.5t9 147.5l90 222q9 22 7 32.5t-29 14.5l-49 7l11 27l202 23zM159 150q-11 -27 -16.5 -50.5t-2.5 -40.5t15 -26.5t36 -9.5q27 0 50.5 14.5t41.5 39t28.5 57
t10.5 67.5q0 33 -14 53.5t-44 20.5q-16 0 -29 -4.5t-33 -15.5z" />
    <glyph glyph-name="uni044D" unicode="&#x44d;" horiz-adv-x="436" 
d="M114 252l189 34q2 17 3 32.5t1 32.5q0 47 -16 74.5t-52 27.5q-34 0 -66.5 -26t-65.5 -72l-28 18q21 30 43.5 57t48.5 46.5t55.5 31t64.5 11.5q27 0 50 -9t40.5 -26t27.5 -42t10 -58q0 -39 -14 -84t-38.5 -89t-57.5 -84.5t-71.5 -71.5t-80.5 -49.5t-84 -18.5
q-38 0 -64.5 15t-26.5 49q0 23 16 38.5t33 15.5t26.5 -9t19.5 -20t23.5 -20t39.5 -9t50.5 15.5t45 43t36 64.5t24.5 79l-193 -36z" />
    <glyph glyph-name="uni044E" unicode="&#x44e;" horiz-adv-x="775" 
d="M168 410q9 23 7 33t-28 14l-50 7l11 27l201 23l-99 -261l83 15q22 51 58 96.5t78.5 80t87.5 54.5t87 20t71 -14t47 -35.5t26 -48.5t8 -54q0 -46 -15 -92t-41 -88t-60 -78.5t-72 -63.5t-77.5 -42.5t-75.5 -15.5q-42 0 -70.5 13.5t-46.5 35.5t-26 48.5t-8 53.5q0 43 14 90
l-84 -16l-77 -203l-112 -20zM440 28q31 0 58 18t50 47.5t40.5 67t30 76.5t19 75.5t6.5 64.5q0 52 -16 76t-48 24q-31 0 -58.5 -18t-50 -47.5t-40.5 -67t-30.5 -76.5t-19 -75.5t-6.5 -64.5q0 -52 16 -76t49 -24z" />
    <glyph glyph-name="uni044F" unicode="&#x44f;" horiz-adv-x="549" 
d="M537 178q-61 -94 -120.5 -142.5t-108.5 -48.5t-53.5 28.5t16.5 85.5l63 175l-94 -103q-47 -51 -80 -85.5t-58 -55.5t-45 -30.5t-40 -9.5q-21 0 -34.5 13t-13.5 32q0 15 11.5 29t40.5 22q30 8 56.5 17.5t53.5 24.5t57 39.5t67 62.5q-13 -7 -35.5 -14t-52.5 -7
q-31 0 -50.5 17.5t-19.5 53.5q0 39 23.5 80.5t61.5 76.5t85.5 57.5t95.5 22.5q24 0 36.5 -10.5t17.5 -25.5l16 44h91l-153 -412q-11 -29 -13.5 -45t9.5 -16q10 0 27 11.5t36.5 31t40 45t38.5 53.5zM355 477q-32 0 -60 -17.5t-49 -43t-33 -54.5t-12 -53q0 -22 9.5 -35
t32.5 -13q45 0 77.5 32t53.5 91l9 24q13 36 4 52.5t-32 16.5z" />
    <glyph glyph-name="uni0452" unicode="&#x452;" horiz-adv-x="546" 
d="M405 452q-21 0 -56 -24t-73 -65.5t-74 -97.5t-58 -121l-42 -136l-108 -19l217 617h-97l15 44h98l14 40q8 23 4 33t-25 13l-54 7l10 28l197 23l-51 -144h108l-15 -44h-108l-61 -174l-38 -105l2 2q41 49 76.5 85.5t67 59.5t60.5 34.5t58 11.5q57 0 63 -45.5t-26 -125.5
l-123 -304q-15 -36 -26.5 -64.5t-25 -52t-31 -43t-43.5 -37.5q-17 -11 -39.5 -25.5t-47.5 -30t-51 -31t-50 -28.5l-13 26q43 31 74 56t56 53.5t45.5 65.5t43.5 93l125 308q25 60 26 88.5t-24 28.5z" />
    <glyph glyph-name="uni0454" unicode="&#x454;" horiz-adv-x="436" 
d="M144 -13q-27 0 -50 9t-40.5 26t-27.5 42t-10 57q0 39 14 84t38.5 89.5t58 85t72 71.5t80 49.5t83.5 18.5q38 0 65 -15t27 -49q0 -23 -16.5 -38.5t-33.5 -15.5t-26.5 9t-19 20t-23.5 20t-39 9q-26 0 -50 -15t-44.5 -41.5t-36 -62t-24.5 -75.5l203 37l-11 -38l-200 -37
q-2 -18 -3.5 -36t-1.5 -36q0 -48 16 -75.5t52 -27.5q40 0 77.5 35t75.5 95l27 -18q-22 -36 -46.5 -68t-52.5 -56.5t-61 -38.5t-72 -14z" />
    <glyph glyph-name="uni0455" unicode="&#x455;" horiz-adv-x="402" 
d="M104 -13q-25 0 -47 6t-38.5 16.5t-26 25t-9.5 31.5q0 18 13.5 33.5t39.5 15.5q21 0 32.5 -13.5t22.5 -29.5t25 -29.5t40 -13.5q32 0 53 17.5t21 46.5q0 18 -9 41.5t-28 49.5l-46 64q-19 26 -30 55.5t-11 58.5q0 36 17.5 65t45 49.5t62 31.5t68.5 11q22 0 42.5 -5.5
t36.5 -15t26 -22.5t10 -29q0 -23 -14.5 -37t-36.5 -14q-20 0 -29.5 12.5t-19.5 27.5t-24 27.5t-43 12.5t-47 -15t-18 -40q0 -20 9.5 -41.5t29.5 -50.5l44 -64q25 -36 36.5 -62.5t11.5 -57.5q0 -35 -18.5 -64t-48 -50t-67 -32.5t-75.5 -11.5z" />
    <glyph glyph-name="uni0456" unicode="&#x456;" horiz-adv-x="333" 
d="M89 -13q-47 0 -56 28t14 86l128 320q7 16 1.5 24t-29.5 12l-48 7l10 27l202 23l-159 -399q-11 -29 -13.5 -45t9.5 -16q10 0 27 11.5t36 31t39.5 45t38.5 53.5l29 -17q-61 -94 -120.5 -142.5t-108.5 -48.5zM322 651q-29 0 -50 20.5t-21 51.5q0 29 21 49.5t50 20.5
q30 0 51 -20.5t21 -49.5q0 -31 -21 -51.5t-51 -20.5z" />
    <glyph glyph-name="uni0456" unicode="&#x457;" horiz-adv-x="333" 
d="M89 -13q-47 0 -56 28t14 86l128 320q7 16 1.5 24t-29.5 12l-48 7l10 27l202 23l-159 -399q-11 -29 -13.5 -45t9.5 -16q10 0 27 11.5t36 31t39.5 45t38.5 53.5l29 -17q-61 -94 -120.5 -142.5t-108.5 -48.5zM322 651q-29 0 -50 20.5t-21 51.5q0 29 21 49.5t50 20.5
q30 0 51 -20.5t21 -49.5q0 -31 -21 -51.5t-51 -20.5z" />
    <glyph glyph-name="uni0458" unicode="&#x458;" horiz-adv-x="292" 
d="M129 45q-14 -36 -25.5 -65t-25 -52t-31.5 -42.5t-44 -37.5q-17 -11 -39.5 -25.5t-47.5 -30t-51 -31t-50 -28.5l-13 26q43 31 75.5 55.5t58 53t47 66t42.5 93.5l147 394q6 16 1 24t-29 12l-49 7l11 27l197 23zM308 651q-29 0 -50 20.5t-21 51.5q0 29 21 49.5t50 20.5
q30 0 51 -20.5t21 -49.5q0 -31 -21 -51.5t-51 -20.5z" />
    <glyph glyph-name="uni0459" unicode="&#x459;" horiz-adv-x="697" 
d="M201 502h318l-83 -207q53 28 103 28q53 0 82 -31t29 -83q0 -38 -19.5 -77.5t-53 -71.5t-79.5 -52.5t-99 -20.5q-86 0 -115.5 53t8.5 148l108 267h-106l-115 -240q-32 -66 -58.5 -109t-50.5 -68.5t-45 -35.5t-41 -10t-32 13t-12 30q0 15 10.5 28.5t33.5 22.5q30 12 53 23
t44.5 31.5t44 56t51.5 96.5l77 162h-73zM409 23q27 0 50.5 14.5t41.5 39t28.5 57t10.5 67.5q0 33 -14 53.5t-43 20.5q-17 0 -30 -4.5t-33 -15.5l-43 -105q-11 -27 -16.5 -50t-2.5 -40.5t15 -27t36 -9.5z" />
    <glyph glyph-name="uni045A" unicode="&#x45a;" horiz-adv-x="738" 
d="M168 410q9 23 7 33t-28 14l-50 7l11 27l201 23l-99 -262l174 32l75 208l113 24l-83 -215q26 9 53 15.5t53 6.5q54 0 83 -31t29 -83q0 -38 -19.5 -77.5t-53 -71.5t-79.5 -52.5t-99 -20.5q-87 0 -114.5 52.5t7.5 148.5l20 56l-175 -32l-77 -203l-112 -20zM433 154
q-11 -27 -16 -51t-2 -42t15 -28t36 -10q26 0 49.5 14.5t41.5 39t28.5 57t10.5 67.5q0 33 -13.5 53.5t-43.5 20.5q-16 0 -30.5 -2t-32.5 -8z" />
    <glyph glyph-name="uni045B" unicode="&#x45b;" horiz-adv-x="594" 
d="M244 700q6 17 0.5 25.5t-29.5 11.5l-49 6l10 28l197 23l-125 -362l-37 -105h1q42 49 77.5 85.5t67 60t60.5 35t58 11.5q56 0 62.5 -45.5t-25.5 -124.5l-96 -234q-12 -29 -14 -45t10 -16q10 0 27 11.5t36.5 31t40 45t38.5 53.5l28 -17q-60 -94 -119.5 -142.5t-109.5 -48.5
q-46 0 -56 27.5t14 86.5l95 234q24 60 25.5 88.5t-23.5 28.5q-21 0 -56 -24t-73 -65.5t-74 -97.5t-58 -121l-42 -136l-109 -19zM127 634h301l-15 -44h-301z" />
    <glyph glyph-name="uni045F" unicode="&#x45f;" horiz-adv-x="611" 
d="M271 0q-23 -43 -32.5 -76.5t-9.5 -56.5q0 -25 32 -29l-7 -25q-60 0 -85 13.5t-25 41.5q0 18 8.5 35t23 33.5t33.5 32t40 31.5h22zM171 170q-24 -60 -25.5 -88.5t23.5 -28.5q22 0 57.5 24t74 68t75.5 105.5t63 136.5l36 105l114 24l-155 -401q-11 -29 -13.5 -45t9.5 -16
q10 0 27 11.5t36 31t39.5 45t38.5 53.5l29 -17q-61 -94 -120.5 -142.5t-108.5 -48.5q-47 0 -52 27.5t17 86.5l27 72h-2q-76 -93 -138.5 -139.5t-120.5 -46.5q-56 0 -62.5 45t25.5 124l108 265q7 16 1.5 24t-29.5 12l-48 7l10 27l204 23z" />
    <glyph glyph-name="uni0491" unicode="&#x491;" horiz-adv-x="418" 
d="M304 463h-17q-12 0 -17 -4.5t-9 -15.5l-156 -443h-96l151 430q6 16 2.5 24t-28.5 10l-41 2l10 36h177q39 0 62.5 2.5t40 11.5t30.5 28t33 52l27 45h32l-62 -179z" />
    <glyph glyph-name="uni0463" unicode="&#x463;" horiz-adv-x="767" 
d="M423 335q25 60 26 88.5t-24 28.5q-21 0 -56 -24t-73 -65.5t-73.5 -97.5t-58.5 -121l-46 -135l-113 -20l168 432q6 16 1 24t-29 12l-48 7l10 27l200 23l-74 -181h1q78 94 139 140t119 46q57 0 63 -45.5t-26 -124.5l-22 -53q26 13 51 20t51 7q54 0 83 -31t29 -83
q0 -38 -19.5 -77.5t-53 -71.5t-79.5 -52.5t-99 -20.5q-87 0 -116.5 53.5t9.5 147.5zM448 150q-11 -27 -16.5 -50.5t-2.5 -40.5t15 -26.5t36 -9.5q26 0 49.5 14.5t41.5 39t28.5 57t10.5 67.5q0 33 -13.5 53.5t-43.5 20.5q-16 0 -29 -4t-33 -15z" />
    <glyph glyph-name="uni0473" unicode="&#x473;" horiz-adv-x="534" 
d="M174 -13q-42 0 -71 13.5t-47 35.5t-26 48.5t-8 53.5q0 46 15 92t41 88t60 79t72 64t77 42.5t76 15.5q42 0 71 -14t47 -35.5t26 -48.5t8 -54q0 -46 -15 -92t-40.5 -88t-59.5 -78.5t-72 -63.5t-77.5 -42.5t-76.5 -15.5zM158 265q34 18 60 23.5t46 2.5t36 -10t30 -13
t27.5 -8t29.5 6q8 31 12.5 59.5t4.5 51.5q0 52 -16.5 76t-49.5 24q-32 0 -59 -18.5t-50 -48.5t-41 -68t-30 -77zM199 28q30 0 57 17.5t49.5 46.5t40.5 66t31 75q-29 -19 -52 -24t-42.5 -2.5t-36 10t-32 13.5t-32 8t-34.5 -6q-8 -29 -11.5 -56t-3.5 -48q0 -52 16.5 -76
t49.5 -24z" />
    <glyph glyph-name="uni0475" unicode="&#x475;" horiz-adv-x="566" 
d="M178 -11h-37l-3 432q0 18 -4 25.5t-24 10.5l-48 7l10 27l166 22l-3 -385l234 295q37 47 67.5 71t65.5 24q22 0 34.5 -12t12.5 -32q0 -26 -18.5 -39.5t-52.5 -24.5q-27 -8 -45 -15t-31.5 -15.5t-26 -20.5t-27.5 -31z" />
    <glyph glyph-name="uni04AF" unicode="&#x4af;" horiz-adv-x="521" 
d="M125 421q1 18 -4 25.5t-25 10.5l-48 7l10 27l166 22l-24 -442l169 266q33 53 59 88t47.5 56t39 29.5t34.5 8.5q20 0 32.5 -12t12.5 -32q0 -16 -7.5 -29t-28.5 -21q-23 -9 -43 -16.5t-40 -21t-41.5 -35.5t-45.5 -61l-185 -289l-75 -250h-96l74 251z" />
    <glyph glyph-name="uni04AF" unicode="&#x4b1;" horiz-adv-x="521" 
d="M125 421q1 18 -4 25.5t-25 10.5l-48 7l10 27l166 22l-24 -442l169 266q33 53 59 88t47.5 56t39 29.5t34.5 8.5q20 0 32.5 -12t12.5 -32q0 -16 -7.5 -29t-28.5 -21q-23 -9 -43 -16.5t-40 -21t-41.5 -35.5t-45.5 -61l-185 -289l-75 -250h-96l74 251z" />
    <glyph glyph-name="uni04BB" unicode="&#x4bb;" horiz-adv-x="594" 
d="M244 700q6 17 0.5 25.5t-29.5 11.5l-49 6l10 28l197 23l-125 -362l-37 -105h1q42 49 77.5 85.5t67 60t60.5 35t58 11.5q56 0 62.5 -45.5t-25.5 -124.5l-96 -234q-12 -29 -14 -45t10 -16q10 0 27 11.5t36.5 31t40 45t38.5 53.5l28 -17q-60 -94 -119.5 -142.5t-109.5 -48.5
q-46 0 -56 27.5t14 86.5l95 234q24 60 25.5 88.5t-23.5 28.5q-21 0 -56 -24t-73 -65.5t-74 -97.5t-58 -121l-42 -136l-109 -19z" />
    <glyph glyph-name="uni04CF" unicode="&#x4cf;" horiz-adv-x="324" 
d="M281 728q5 16 2.5 24t-27.5 10l-42 2l13 36h255l-13 -36l-43 -2q-26 -2 -35 -10t-14 -24l-231 -656q-6 -16 -3 -24t27 -10l42 -2l-13 -36h-255l13 36l44 2q26 2 34.5 9.5t14.5 24.5z" />
    <glyph glyph-name="uni04D9" unicode="&#x4d9;" horiz-adv-x="475" 
d="M326.98 519.969q53.9961 0 91.4941 -34.498t37.498 -99.4941q0 -41.998 -15 -87.9951q-14.999 -45.9971 -39.9971 -90.4941q-24.999 -44.4971 -58.9961 -83.9951q-33.998 -39.4971 -71.9961 -69.9951q-37.9971 -30.498 -77.9951 -47.9971t-77.9951 -17.499
q-46.9971 0 -71.4961 20.998q-24.498 20.999 -24.498 55.9971q0 43.9971 21.499 73.4951q21.498 29.499 48.4961 48.4971q21.999 6 51.9971 13.999q29.998 8 62.9961 15.499l65.9961 15q32.998 7.49902 59.9961 13.499q14.999 50.9971 14.999 106.993
q0 47.9971 -15.998 75.4951q-16 27.499 -52.9971 27.499q-39.998 0 -77.4951 -34.998q-37.498 -34.998 -75.4961 -94.9941l-26.998 17.999q21.999 35.9971 46.4971 67.9951q24.499 31.998 52.4971 56.4971q27.998 24.498 60.9961 38.4971q32.998 14 71.9961 14z
M141.991 24.998q22.999 0 47.9971 14q24.999 13.999 48.9971 39.4971q23.999 25.499 44.9971 59.9961q20.999 34.498 35.998 75.4961q-22.999 -5 -43.4971 -10.5q-20.499 -5.49902 -37.498 -11.499q-39.9971 -12.999 -65.9961 -28.498q-25.998 -15.499 -40.9971 -32.498
t-20.999 -33.998t-6 -33.998t9.5 -27.498q9.49902 -10.5 27.498 -10.5z" />
    <glyph glyph-name="uni04E9" unicode="&#x4e9;" horiz-adv-x="534" 
d="M174 -13q-42 0 -71 13.5t-47 35.5t-26 48.5t-8 53.5q0 46 15 92t41 88t60 79t72 64t77 42.5t76 15.5q42 0 71 -14t47 -35.5t26 -48.5t8 -54q0 -46 -15 -92t-40.5 -88t-59.5 -78.5t-72 -63.5t-77.5 -42.5t-76.5 -15.5zM199 28q33 0 61.5 20t52 52.5t41.5 73t30 81.5
l-239 -35q-12 -53 -12 -92q0 -52 16.5 -76t49.5 -24zM338 477q-32 0 -60 -19t-51 -50t-41 -69.5t-30 -78.5l238 34q5 23 7.5 44.5t2.5 38.5q0 52 -16.5 76t-49.5 24z" />
    <glyph glyph-name="quoteright" unicode="&#x2019;" horiz-adv-x="276" 
d="M366 708q0 -34 -17 -67.5t-46 -63.5t-67 -55t-81 -43l-12 29q65 35 95.5 73t30.5 73q0 28 -19 45t-56 29q5 36 29 53t56 17q38 0 62.5 -24t24.5 -66z" />
    <glyph glyph-name="bullet" unicode="&#x2022;" horiz-adv-x="426" 
d="M250 258q-26 0 -49 10t-40 27t-27 40.5t-10 49.5t10 49t27 40t40 27t49 10t49 -10t40.5 -27t27.5 -40t10 -49t-10 -49.5t-27.5 -40.5t-40.5 -27t-49 -10z" />
    <glyph glyph-name="glyph166" horiz-adv-x="668" 
d="M488 447h-230l-86 -378q-21 -95 -51 -158.5t-64.5 -102t-73 -55t-77.5 -16.5q-16 0 -32 4.5t-29 13t-21 20t-8 26.5q0 17 12 31.5t33 14.5q16 0 27.5 -10t22.5 -22.5t23.5 -22.5t29.5 -10q14 0 26 10t23.5 35.5t24 69.5t27.5 111l97 439h-98l6 25l104 31q13 37 27 66.5
t30.5 54.5t36 46.5t42.5 41.5q38 33 82.5 53t76.5 20q22 0 35 -11t13 -34q0 -20 -12.5 -38.5t-36.5 -18.5q-10 0 -21.5 3.5t-24 8t-27 8.5t-30.5 4q-15 0 -26 -6t-20 -20.5t-17 -39t-16 -61.5l-17 -78h231q28 81 62 139.5t81 99.5q38 32 82 52.5t76 20.5q22 0 35 -11t13 -34
q0 -20 -12.5 -38.5t-36.5 -18.5q-10 0 -21 3.5t-24 8t-27.5 8.5t-30.5 4q-14 0 -25.5 -6t-20.5 -20.5t-17 -39t-16 -61.5l-23 -107h146l-14 -55h-143l-75 -328q-21 -94 -51 -157.5t-64.5 -102t-73 -55t-77.5 -16.5q-16 0 -32 4.5t-29 13t-21 20t-8 26.5q0 17 12.5 31
t33.5 14q16 0 27.5 -10t22.5 -22t23 -22t30 -10q13 0 25 10t23.5 35.5t24 69.5t27.5 111z" />
    <glyph glyph-name="glyph168" horiz-adv-x="639" 
d="M172 69q-21 -95 -51 -158.5t-64.5 -102t-73 -55t-77.5 -16.5q-16 0 -32 4.5t-29 13t-21 20t-8 26.5q0 17 12 31.5t33 14.5q16 0 27.5 -10t22.5 -22.5t23.5 -22.5t29.5 -10q14 0 26 10t23.5 35.5t24 69.5t27.5 111l97 439h-98l6 25l104 31q28 81 61.5 139.5t81.5 98.5
q37 32 80.5 52.5t75.5 20.5q22 0 35 -11t13 -34q0 -20 -12.5 -38.5t-36.5 -18.5q-10 0 -21 3.5t-23 8t-26.5 8.5t-30.5 4q-14 0 -25.5 -6t-20.5 -20.5t-17 -39t-16 -61.5l-23 -107h343l-154 -387q-12 -29 -14 -45t10 -16q10 0 27 11.5t36.5 31t40 45t38.5 53.5l28 -17
q-60 -94 -119.5 -142.5t-109.5 -48.5q-46 0 -55.5 28t13.5 86l139 346h-234zM628 651q-29 0 -50 20.5t-21 51.5q0 29 21 49.5t50 20.5q30 0 51 -20.5t21 -49.5q0 -31 -21 -51.5t-51 -20.5z" />
    <glyph glyph-name="glyph170" horiz-adv-x="965" 
d="M-94 -263q-16 0 -32 4.5t-29 13t-21 20t-8 26.5q0 17 12 31.5t33 14.5q16 0 27.5 -10t22.5 -22.5t23.5 -22.5t29.5 -10q14 0 26 10t23.5 35.5t24 69.5t27.5 111l97 439h-98l6 25l104 31q13 37 27 66.5t30.5 54.5t36 46.5t42.5 41.5q38 33 82.5 53t76.5 20q22 0 35 -11
t13 -34q0 -20 -12.5 -38.5t-36.5 -18.5q-10 0 -21.5 3.5t-24 8t-27 8.5t-30.5 4q-15 0 -26 -6t-20 -20.5t-17 -39t-16 -61.5l-17 -78h231q28 81 61.5 140t81.5 99q37 32 80.5 52.5t75.5 20.5q22 0 35 -11t13 -34q0 -20 -12.5 -38.5t-36.5 -18.5q-10 0 -21 3.5t-23 8
t-26.5 8.5t-30.5 4q-14 0 -25.5 -6t-20.5 -20.5t-17 -39t-16 -61.5l-23 -107h343l-154 -387q-12 -29 -14 -45t10 -16q10 0 27 11.5t36.5 31t40 45t38.5 53.5l28 -17q-60 -94 -119.5 -142.5t-109.5 -48.5q-46 0 -55.5 28t13.5 86l139 346h-234l-75 -328q-21 -94 -51 -157.5
t-64.5 -102t-73 -55t-77.5 -16.5q-16 0 -32 4.5t-29 13t-21 20t-8 26.5q0 17 12.5 31t33.5 14q16 0 27.5 -10t22.5 -22t23 -22t30 -10q13 0 25 10t23.5 35.5t24 69.5t27.5 111l86 388h-230l-86 -378q-21 -95 -51 -158.5t-64.5 -102t-73 -55t-77.5 -16.5zM954 651
q-29 0 -49.5 20.5t-20.5 51.5q0 29 20.5 49.5t49.5 20.5q31 0 51.5 -20.5t20.5 -49.5q0 -31 -20.5 -51.5t-51.5 -20.5z" />
    <glyph glyph-name="glyph174" horiz-adv-x="0" 
d="M0 651q-29 0 -50 20.5t-21 51.5q0 29 21 49.5t50 20.5q30 0 51 -20.5t21 -49.5q0 -31 -21 -51.5t-51 -20.5z" />
    <glyph glyph-name="glyph175" horiz-adv-x="0" 
d="M-144 652h301l-15 -44h-301z" />
    </font>
</defs>
</svg>
