<?xml version="1.0" standalone="no"?>
<!DOCTYPE svg PUBLIC "-//W3C//DTD SVG 1.1//EN" "http://www.w3.org/Graphics/SVG/1.1/DTD/svg11.dtd" >
<svg xmlns="http://www.w3.org/2000/svg" xmlns:xlink="http://www.w3.org/1999/xlink" version="1.1">
<metadata>
Created by Christoph Koeberlin (http://christoph.koe.berlin)
Copyright (c) 2017 Swiss Typefaces Sarl. All rights reserved.
</metadata>
<defs>
<font id="Font" horiz-adv-x="870" >
  <font-face 
    font-family="Font"
    font-weight="400"
    font-style="italic"
    font-stretch="normal"
    units-per-em="1000"
    panose-1="2 4 5 4 6 0 0 0 0 4"
    ascent="800"
    descent="-200"
    x-height="516"
    cap-height="758"
    bbox="-191 -267 1330 917"
    underline-thickness="61"
    underline-position="-130"
    slope="-17"
    unicode-range="U+0020-2022"
  />
<missing-glyph horiz-adv-x="640" 
d="M70 758h500v-758h-500v758zM320 396l217 343h-434zM89 30l221 349l-221 349v-698zM551 30v698l-220 -349zM537 19l-217 343l-217 -343h434z" />
    <glyph glyph-name="f_f.liga" unicode="ff" horiz-adv-x="642" 
d="M-104 -267q-15 0 -30.5 5t-27.5 14t-19.5 20.5t-7.5 24.5q0 20 12.5 35t32.5 13q10 -7 23.5 -17.5t28 -20.5t29 -17t26.5 -7q6 0 14 4t15 14q6 8 13 22t16 38t19.5 62t22.5 94l95 433h-98l5 23l105 31q28 63 61 113t80 90q18 15 39.5 27.5t43 21.5t42 14t36.5 5
q17 0 28.5 -10t11.5 -26q0 -20 -12.5 -38t-33.5 -21q-19 8 -48 14.5t-52 6.5q-29 0 -52.5 -29t-37.5 -96l-16 -74h218q28 83 62 143t81 100q18 15 39 28t43 22.5t42 14.5t36 5q17 0 28.5 -10t11.5 -26q0 -20 -12.5 -38t-33.5 -21q-19 8 -48 14.5t-52 6.5q-29 0 -47.5 -27.5
t-33.5 -97.5l-25 -114h144l-12 -52h-144l-78 -342q-21 -93 -50.5 -156t-63 -101.5t-71 -54.5t-75.5 -16q-34 0 -55 19t-21 45q0 20 12.5 35t32.5 13q10 -9 21.5 -19.5t23.5 -20t24.5 -16t24.5 -6.5q6 0 14 4t15 14q6 8 13 22t16 38t19.5 62t22.5 94l85 386h-219l-88 -389
q-21 -93 -50 -156t-63.5 -101.5t-73 -54.5t-77.5 -16z" />
    <glyph glyph-name="f_i.liga" unicode="fi" horiz-adv-x="647" 
d="M503 450h-255l-88 -389q-21 -93 -50 -156t-63.5 -101.5t-73 -54.5t-77.5 -16q-15 0 -30.5 5t-27.5 14t-19.5 20.5t-7.5 24.5q0 20 12.5 35t32.5 13q10 -7 23.5 -17.5t28 -20.5t29 -17t26.5 -7q6 0 14 4t15 14q6 8 13 22t16 38t19.5 62t22.5 94l95 433h-98l5 23l105 31
q28 83 61.5 142t80.5 99q18 15 39 28t43 22.5t42 14.5t36 5q17 0 28.5 -10t11.5 -26q0 -20 -12.5 -38t-33.5 -21q-19 8 -48 14.5t-52 6.5q-29 0 -47.5 -27.5t-33.5 -97.5l-25 -114h357l-155 -389q-11 -29 -14 -45t9 -16q11 0 28 12t37 31.5t41 45t39 53.5l27 -16
q-61 -94 -120 -142.5t-107 -48.5q-46 0 -54 27.5t15 84.5zM635 653q-29 0 -48.5 20t-19.5 49t19.5 48.5t48.5 19.5t49 -19.5t20 -48.5t-20 -49t-49 -20z" />
    <glyph glyph-name="f_f_i.liga" unicode="ffi" horiz-adv-x="956" 
d="M-104 -267q-15 0 -30.5 5t-27.5 14t-19.5 20.5t-7.5 24.5q0 20 12.5 35t32.5 13q10 -7 23.5 -17.5t28 -20.5t29 -17t26.5 -7q6 0 14 4t15 14q6 8 13 22t16 38t19.5 62t22.5 94l95 433h-98l5 23l105 31q28 63 61 113t80 90q18 15 39.5 27.5t43 21.5t42 14t36.5 5
q17 0 28.5 -10t11.5 -26q0 -20 -12.5 -38t-33.5 -21q-19 8 -48 14.5t-52 6.5q-29 0 -52.5 -29t-37.5 -96l-16 -74h218q28 83 62 143t81 100q18 15 39 28t43 22.5t42 14.5t36 5q17 0 28.5 -10t11.5 -26q0 -20 -12.5 -38t-33.5 -21q-19 8 -48 14.5t-52 6.5q-29 0 -47.5 -27.5
t-33.5 -97.5l-25 -114h357l-155 -389q-11 -29 -14 -45t9 -16q11 0 28 12t37 31.5t41 45t39 53.5l27 -16q-61 -94 -120 -142.5t-107 -48.5q-46 0 -54 27.5t15 84.5l140 351h-255l-78 -342q-21 -93 -50.5 -156t-63 -101.5t-71 -54.5t-75.5 -16q-34 0 -55 19t-21 45
q0 20 12.5 35t32.5 13q10 -9 21.5 -19.5t23.5 -20t24.5 -16t24.5 -6.5q6 0 14 4t15 14q6 8 13 22t16 38t19.5 62t22.5 94l85 386h-219l-88 -389q-21 -93 -50 -156t-63.5 -101.5t-73 -54.5t-77.5 -16zM944 653q-29 0 -48.5 20t-19.5 49t19.5 48.5t48.5 19.5t49 -19.5
t20 -48.5t-20 -49t-49 -20z" />
    <glyph glyph-name="f_l.liga" unicode="fl" horiz-adv-x="627" 
d="M60 450l5 23l105 31q28 83 61.5 142t80.5 99q18 15 39 28t43 22.5t42 14.5t36 5q17 0 28.5 -10t11.5 -26q0 -20 -12.5 -38t-33.5 -21q-19 8 -48 14.5t-52 6.5q-29 0 -47.5 -27.5t-33.5 -97.5l-25 -114h144l-12 -52h-144l-88 -389q-21 -93 -50 -156t-63.5 -101.5
t-73 -54.5t-77.5 -16q-15 0 -30.5 5t-27.5 14t-19.5 20.5t-7.5 24.5q0 20 12.5 35t32.5 13q10 -7 23.5 -17.5t28 -20.5t29 -17t26.5 -7q6 0 14 4t15 14q6 8 13 22t16 38t19.5 62t22.5 94l95 433h-98zM558 689q7 20 6 26t-14 12l-64 31l2 6l209 66l-250 -717
q-11 -30 -14 -45.5t9 -15.5q11 0 28 12t37 31.5t41 45t39 53.5l27 -16q-61 -94 -120 -142.5t-107 -48.5q-46 0 -50 28t16 86z" />
    <glyph glyph-name="f_f_l.liga" unicode="ffl" horiz-adv-x="936" 
d="M867 689q7 20 6 26t-14 12l-46 22q-6 -11 -15.5 -19t-22.5 -10q-19 8 -48 14.5t-52 6.5q-29 0 -47.5 -27.5t-33.5 -97.5l-25 -114h144l-12 -52h-144l-78 -342q-21 -93 -50.5 -156t-63 -101.5t-71 -54.5t-75.5 -16q-34 0 -55 19t-21 45q0 20 12.5 35t32.5 13
q10 -9 21.5 -19.5t23.5 -20t24.5 -16t24.5 -6.5q6 0 14 4t15 14q6 8 13 22t16 38t19.5 62t22.5 94l85 386h-219l-88 -389q-21 -93 -50 -156t-63.5 -101.5t-73 -54.5t-77.5 -16q-15 0 -30.5 5t-27.5 14t-19.5 20.5t-7.5 24.5q0 20 12.5 35t32.5 13q10 -7 23.5 -17.5t28 -20.5
t29 -17t26.5 -7q6 0 14 4t15 14q6 8 13 22t16 38t19.5 62t22.5 94l95 433h-98l5 23l105 31q28 63 61 113t80 90q18 15 39.5 27.5t43 21.5t42 14t36.5 5q17 0 28.5 -10t11.5 -26q0 -20 -12.5 -38t-33.5 -21q-19 8 -48 14.5t-52 6.5q-29 0 -52.5 -29t-37.5 -96l-16 -74h218
q28 83 62 143t81 100q18 15 39 28t43 22.5t42 14.5t36 5q17 0 28.5 -10t11.5 -26q0 -5 -1 -8l186 59l-250 -717q-11 -30 -14 -45.5t9 -15.5q11 0 28 12t37 31.5t41 45t39 53.5l27 -16q-61 -94 -120 -142.5t-107 -48.5q-46 0 -50 28t16 86z" />
    <glyph glyph-name=".notdef" horiz-adv-x="640" 
d="M70 758h500v-758h-500v758zM320 396l217 343h-434zM89 30l221 349l-221 349v-698zM551 30v698l-220 -349zM537 19l-217 343l-217 -343h434z" />
    <glyph glyph-name="glyph1" horiz-adv-x="0" 
 />
    <glyph glyph-name="glyph2" horiz-adv-x="280" 
 />
    <glyph glyph-name="space" unicode=" " horiz-adv-x="280" 
 />
    <glyph glyph-name="comma" unicode="," horiz-adv-x="289" 
d="M179 51q0 -35 -17 -68t-45.5 -62.5t-66 -54t-77.5 -41.5l-12 28q66 36 95.5 74t29.5 72q0 28 -18.5 45t-54.5 29q4 34 27 50.5t54 16.5q37 0 61 -23.5t24 -65.5z" />
    <glyph glyph-name="hyphen" unicode="-" horiz-adv-x="436" 
d="M86 295h294l-22 -65h-294z" />
    <glyph glyph-name="period" unicode="." horiz-adv-x="267" 
d="M84 -13q-31 0 -53 22.5t-22 55.5q0 31 22 53t53 22q33 0 55.5 -22t22.5 -53q0 -33 -22.5 -55.5t-55.5 -22.5z" />
    <glyph glyph-name="slash" unicode="/" horiz-adv-x="537" 
d="M586 806h73l-632 -858h-70z" />
    <glyph glyph-name="zero" unicode="0" horiz-adv-x="674" 
d="M262 -13q-47 0 -83 18.5t-61 51.5t-37.5 78.5t-12.5 98.5q0 54 16.5 115t46 121.5t70 116.5t87.5 98.5t99.5 68t106.5 25.5q47 0 83 -18.5t61 -51.5t37.5 -78.5t12.5 -98.5q0 -54 -16.5 -115t-46 -121.5t-70 -116.5t-87.5 -98.5t-99.5 -68t-106.5 -25.5zM266 26
q41 0 80.5 27t74.5 72.5t64 105.5t50.5 125.5t33 132t11.5 125.5q0 60 -20 93t-70 33q-41 0 -80.5 -27t-74.5 -72.5t-64 -105.5t-50.5 -125.5t-33 -132t-11.5 -125.5q0 -60 20 -93t70 -33z" />
    <glyph glyph-name="A" unicode="A" horiz-adv-x="749" 
d="M-95 35l38 2q15 1 28 7t27.5 19t31 33t38.5 49l479 636h36l27 -720q1 -15 8 -18t33 -5l33 -3l-10 -35h-276l10 35l48 3q28 1 38 6t9 29l-6 197h-269l-93 -127q-23 -31 -36 -51t-15.5 -32t5.5 -17t27 -6l44 -2l-10 -35h-255zM495 319l-9 301l-222 -301h231z" />
    <glyph glyph-name="A" unicode="&#x104;" horiz-adv-x="749" 
d="M-95 35l38 2q15 1 28 7t27.5 19t31 33t38.5 49l479 636h36l27 -720q1 -15 8 -18t33 -5l33 -3l-10 -35h-276l10 35l48 3q28 1 38 6t9 29l-6 197h-269l-93 -127q-23 -31 -36 -51t-15.5 -32t5.5 -17t27 -6l44 -2l-10 -35h-255zM495 319l-9 301l-222 -301h231z" />
    <glyph glyph-name="A" unicode="&#x102;" horiz-adv-x="749" 
d="M-95 35l38 2q15 1 28 7t27.5 19t31 33t38.5 49l479 636h36l27 -720q1 -15 8 -18t33 -5l33 -3l-10 -35h-276l10 35l48 3q28 1 38 6t9 29l-6 197h-269l-93 -127q-23 -31 -36 -51t-15.5 -32t5.5 -17t27 -6l44 -2l-10 -35h-255zM495 319l-9 301l-222 -301h231z" />
    <glyph glyph-name="A" unicode="&#x100;" horiz-adv-x="749" 
d="M-95 35l38 2q15 1 28 7t27.5 19t31 33t38.5 49l479 636h36l27 -720q1 -15 8 -18t33 -5l33 -3l-10 -35h-276l10 35l48 3q28 1 38 6t9 29l-6 197h-269l-93 -127q-23 -31 -36 -51t-15.5 -32t5.5 -17t27 -6l44 -2l-10 -35h-255zM495 319l-9 301l-222 -301h231z" />
    <glyph glyph-name="A" unicode="&#xc6;" horiz-adv-x="749" 
d="M-95 35l38 2q15 1 28 7t27.5 19t31 33t38.5 49l479 636h36l27 -720q1 -15 8 -18t33 -5l33 -3l-10 -35h-276l10 35l48 3q28 1 38 6t9 29l-6 197h-269l-93 -127q-23 -31 -36 -51t-15.5 -32t5.5 -17t27 -6l44 -2l-10 -35h-255zM495 319l-9 301l-222 -301h231z" />
    <glyph glyph-name="A" unicode="&#xc5;" horiz-adv-x="749" 
d="M-95 35l38 2q15 1 28 7t27.5 19t31 33t38.5 49l479 636h36l27 -720q1 -15 8 -18t33 -5l33 -3l-10 -35h-276l10 35l48 3q28 1 38 6t9 29l-6 197h-269l-93 -127q-23 -31 -36 -51t-15.5 -32t5.5 -17t27 -6l44 -2l-10 -35h-255zM495 319l-9 301l-222 -301h231z" />
    <glyph glyph-name="A" unicode="&#xc4;" horiz-adv-x="749" 
d="M-95 35l38 2q15 1 28 7t27.5 19t31 33t38.5 49l479 636h36l27 -720q1 -15 8 -18t33 -5l33 -3l-10 -35h-276l10 35l48 3q28 1 38 6t9 29l-6 197h-269l-93 -127q-23 -31 -36 -51t-15.5 -32t5.5 -17t27 -6l44 -2l-10 -35h-255zM495 319l-9 301l-222 -301h231z" />
    <glyph glyph-name="A" unicode="&#xc3;" horiz-adv-x="749" 
d="M-95 35l38 2q15 1 28 7t27.5 19t31 33t38.5 49l479 636h36l27 -720q1 -15 8 -18t33 -5l33 -3l-10 -35h-276l10 35l48 3q28 1 38 6t9 29l-6 197h-269l-93 -127q-23 -31 -36 -51t-15.5 -32t5.5 -17t27 -6l44 -2l-10 -35h-255zM495 319l-9 301l-222 -301h231z" />
    <glyph glyph-name="A" unicode="&#xc2;" horiz-adv-x="749" 
d="M-95 35l38 2q15 1 28 7t27.5 19t31 33t38.5 49l479 636h36l27 -720q1 -15 8 -18t33 -5l33 -3l-10 -35h-276l10 35l48 3q28 1 38 6t9 29l-6 197h-269l-93 -127q-23 -31 -36 -51t-15.5 -32t5.5 -17t27 -6l44 -2l-10 -35h-255zM495 319l-9 301l-222 -301h231z" />
    <glyph glyph-name="A" unicode="&#xc1;" horiz-adv-x="749" 
d="M-95 35l38 2q15 1 28 7t27.5 19t31 33t38.5 49l479 636h36l27 -720q1 -15 8 -18t33 -5l33 -3l-10 -35h-276l10 35l48 3q28 1 38 6t9 29l-6 197h-269l-93 -127q-23 -31 -36 -51t-15.5 -32t5.5 -17t27 -6l44 -2l-10 -35h-255zM495 319l-9 301l-222 -301h231z" />
    <glyph glyph-name="A" unicode="&#xc0;" horiz-adv-x="749" 
d="M-95 35l38 2q15 1 28 7t27.5 19t31 33t38.5 49l479 636h36l27 -720q1 -15 8 -18t33 -5l33 -3l-10 -35h-276l10 35l48 3q28 1 38 6t9 29l-6 197h-269l-93 -127q-23 -31 -36 -51t-15.5 -32t5.5 -17t27 -6l44 -2l-10 -35h-255zM495 319l-9 301l-222 -301h231z" />
    <glyph glyph-name="B" unicode="B" horiz-adv-x="697" 
d="M-11 35l36 2q21 1 33.5 4t20.5 10.5t13.5 21.5t13.5 38l164 536q7 24 10.5 38t0 21.5t-14.5 10.5t-31 4l-36 2l11 35h238q129 0 190 -37.5t61 -101.5q0 -77 -62 -132t-173 -77v-1q32 -4 64.5 -15.5t59 -32t43.5 -49t17 -67.5q0 -44 -24.5 -87.5t-71.5 -78.5t-115 -57
t-155 -22h-304zM367 425q61 0 104 16.5t69.5 43.5t38.5 61t12 69q0 46 -33.5 75.5t-110.5 29.5q-19 0 -29.5 -1t-16 -3.5t-8 -7t-4.5 -11.5l-83 -272h61zM284 38q53 0 98 13t78 40t51.5 67t18.5 94q0 29 -9 53t-30 41.5t-56 27.5t-86 10h-55l-84 -274q-14 -43 1 -57.5
t69 -14.5h4z" />
    <glyph glyph-name="C" unicode="C" horiz-adv-x="785" 
d="M401 -13q-68 0 -126.5 19.5t-101.5 58.5t-68 97t-25 135q0 99 44.5 186.5t118.5 153t168.5 104t195.5 38.5q57 0 115.5 -8t96.5 -23l-10 -186h-27l-32 105q-7 22 -20 35.5t-32 20.5t-42 9t-49 2q-79 0 -153 -32.5t-131.5 -92.5t-92.5 -144.5t-35 -188.5
q0 -63 17.5 -109.5t48.5 -76.5t74 -44.5t94 -14.5q34 0 58.5 5t45.5 15.5t41 27t45 39.5l102 93h27l-97 -176q-49 -17 -110.5 -32.5t-139.5 -15.5z" />
    <glyph glyph-name="C" unicode="&#x10c;" horiz-adv-x="785" 
d="M401 -13q-68 0 -126.5 19.5t-101.5 58.5t-68 97t-25 135q0 99 44.5 186.5t118.5 153t168.5 104t195.5 38.5q57 0 115.5 -8t96.5 -23l-10 -186h-27l-32 105q-7 22 -20 35.5t-32 20.5t-42 9t-49 2q-79 0 -153 -32.5t-131.5 -92.5t-92.5 -144.5t-35 -188.5
q0 -63 17.5 -109.5t48.5 -76.5t74 -44.5t94 -14.5q34 0 58.5 5t45.5 15.5t41 27t45 39.5l102 93h27l-97 -176q-49 -17 -110.5 -32.5t-139.5 -15.5z" />
    <glyph glyph-name="C" unicode="&#x10a;" horiz-adv-x="785" 
d="M401 -13q-68 0 -126.5 19.5t-101.5 58.5t-68 97t-25 135q0 99 44.5 186.5t118.5 153t168.5 104t195.5 38.5q57 0 115.5 -8t96.5 -23l-10 -186h-27l-32 105q-7 22 -20 35.5t-32 20.5t-42 9t-49 2q-79 0 -153 -32.5t-131.5 -92.5t-92.5 -144.5t-35 -188.5
q0 -63 17.5 -109.5t48.5 -76.5t74 -44.5t94 -14.5q34 0 58.5 5t45.5 15.5t41 27t45 39.5l102 93h27l-97 -176q-49 -17 -110.5 -32.5t-139.5 -15.5z" />
    <glyph glyph-name="C" unicode="&#x108;" horiz-adv-x="785" 
d="M401 -13q-68 0 -126.5 19.5t-101.5 58.5t-68 97t-25 135q0 99 44.5 186.5t118.5 153t168.5 104t195.5 38.5q57 0 115.5 -8t96.5 -23l-10 -186h-27l-32 105q-7 22 -20 35.5t-32 20.5t-42 9t-49 2q-79 0 -153 -32.5t-131.5 -92.5t-92.5 -144.5t-35 -188.5
q0 -63 17.5 -109.5t48.5 -76.5t74 -44.5t94 -14.5q34 0 58.5 5t45.5 15.5t41 27t45 39.5l102 93h27l-97 -176q-49 -17 -110.5 -32.5t-139.5 -15.5z" />
    <glyph glyph-name="C" unicode="&#x106;" horiz-adv-x="785" 
d="M401 -13q-68 0 -126.5 19.5t-101.5 58.5t-68 97t-25 135q0 99 44.5 186.5t118.5 153t168.5 104t195.5 38.5q57 0 115.5 -8t96.5 -23l-10 -186h-27l-32 105q-7 22 -20 35.5t-32 20.5t-42 9t-49 2q-79 0 -153 -32.5t-131.5 -92.5t-92.5 -144.5t-35 -188.5
q0 -63 17.5 -109.5t48.5 -76.5t74 -44.5t94 -14.5q34 0 58.5 5t45.5 15.5t41 27t45 39.5l102 93h27l-97 -176q-49 -17 -110.5 -32.5t-139.5 -15.5z" />
    <glyph glyph-name="C" unicode="&#xc7;" horiz-adv-x="785" 
d="M401 -13q-68 0 -126.5 19.5t-101.5 58.5t-68 97t-25 135q0 99 44.5 186.5t118.5 153t168.5 104t195.5 38.5q57 0 115.5 -8t96.5 -23l-10 -186h-27l-32 105q-7 22 -20 35.5t-32 20.5t-42 9t-49 2q-79 0 -153 -32.5t-131.5 -92.5t-92.5 -144.5t-35 -188.5
q0 -63 17.5 -109.5t48.5 -76.5t74 -44.5t94 -14.5q34 0 58.5 5t45.5 15.5t41 27t45 39.5l102 93h27l-97 -176q-49 -17 -110.5 -32.5t-139.5 -15.5z" />
    <glyph glyph-name="D" unicode="D" horiz-adv-x="868" 
d="M-11 35l36 2q21 1 33.5 4t20.5 10.5t13.5 21.5t13.5 38l164 536q7 24 10.5 38t0 21.5t-14.5 10.5t-31 4l-36 2l11 35h285q88 0 157.5 -21t118 -59t74.5 -91.5t26 -117.5q0 -87 -41 -171.5t-117 -150.5t-183.5 -106.5t-240.5 -40.5h-311zM308 38q115 0 198.5 39t137.5 103
t80 146t26 169q0 115 -69.5 170t-204.5 55q-29 0 -45.5 -1t-25 -3.5t-11.5 -7t-5 -11.5l-179 -585q-6 -22 -7 -36t6.5 -22.5t23 -12t42.5 -3.5h33z" />
    <glyph glyph-name="D" unicode="&#x110;" horiz-adv-x="868" 
d="M-11 35l36 2q21 1 33.5 4t20.5 10.5t13.5 21.5t13.5 38l164 536q7 24 10.5 38t0 21.5t-14.5 10.5t-31 4l-36 2l11 35h285q88 0 157.5 -21t118 -59t74.5 -91.5t26 -117.5q0 -87 -41 -171.5t-117 -150.5t-183.5 -106.5t-240.5 -40.5h-311zM308 38q115 0 198.5 39t137.5 103
t80 146t26 169q0 115 -69.5 170t-204.5 55q-29 0 -45.5 -1t-25 -3.5t-11.5 -7t-5 -11.5l-179 -585q-6 -22 -7 -36t6.5 -22.5t23 -12t42.5 -3.5h33z" />
    <glyph glyph-name="D" unicode="&#x10e;" horiz-adv-x="868" 
d="M-11 35l36 2q21 1 33.5 4t20.5 10.5t13.5 21.5t13.5 38l164 536q7 24 10.5 38t0 21.5t-14.5 10.5t-31 4l-36 2l11 35h285q88 0 157.5 -21t118 -59t74.5 -91.5t26 -117.5q0 -87 -41 -171.5t-117 -150.5t-183.5 -106.5t-240.5 -40.5h-311zM308 38q115 0 198.5 39t137.5 103
t80 146t26 169q0 115 -69.5 170t-204.5 55q-29 0 -45.5 -1t-25 -3.5t-11.5 -7t-5 -11.5l-179 -585q-6 -22 -7 -36t6.5 -22.5t23 -12t42.5 -3.5h33z" />
    <glyph glyph-name="D" unicode="&#xd0;" horiz-adv-x="868" 
d="M-11 35l36 2q21 1 33.5 4t20.5 10.5t13.5 21.5t13.5 38l164 536q7 24 10.5 38t0 21.5t-14.5 10.5t-31 4l-36 2l11 35h285q88 0 157.5 -21t118 -59t74.5 -91.5t26 -117.5q0 -87 -41 -171.5t-117 -150.5t-183.5 -106.5t-240.5 -40.5h-311zM308 38q115 0 198.5 39t137.5 103
t80 146t26 169q0 115 -69.5 170t-204.5 55q-29 0 -45.5 -1t-25 -3.5t-11.5 -7t-5 -11.5l-179 -585q-6 -22 -7 -36t6.5 -22.5t23 -12t42.5 -3.5h33z" />
    <glyph glyph-name="E" unicode="E" horiz-adv-x="710" 
d="M-11 35l36 2q21 1 33.5 4t20.5 10.5t13.5 21.5t13.5 38l164 536q7 24 10 38t-0.5 21.5t-14.5 10.5t-31 4l-35 2l11 35h242l291 2l-47 -181h-30v45q0 34 -6.5 53t-28 28t-62 11t-108.5 2h-46q-11 0 -16.5 -4.5t-9.5 -15.5l-88 -289h128q20 0 35.5 1.5t28.5 8.5t25.5 21.5
t27.5 40.5l21 39h30l-82 -268h-30l3 39q1 26 -2.5 40.5t-12.5 21.5t-23.5 8.5t-34.5 1.5h-128l-77 -251q-8 -26 -6.5 -40.5t11 -21.5t27.5 -8.5t43 -1.5h21q69 0 111.5 3.5t71 13t48.5 26t43 43.5l64 73h30l-112 -199h-584z" />
    <glyph glyph-name="E" unicode="&#x11a;" horiz-adv-x="710" 
d="M-11 35l36 2q21 1 33.5 4t20.5 10.5t13.5 21.5t13.5 38l164 536q7 24 10 38t-0.5 21.5t-14.5 10.5t-31 4l-35 2l11 35h242l291 2l-47 -181h-30v45q0 34 -6.5 53t-28 28t-62 11t-108.5 2h-46q-11 0 -16.5 -4.5t-9.5 -15.5l-88 -289h128q20 0 35.5 1.5t28.5 8.5t25.5 21.5
t27.5 40.5l21 39h30l-82 -268h-30l3 39q1 26 -2.5 40.5t-12.5 21.5t-23.5 8.5t-34.5 1.5h-128l-77 -251q-8 -26 -6.5 -40.5t11 -21.5t27.5 -8.5t43 -1.5h21q69 0 111.5 3.5t71 13t48.5 26t43 43.5l64 73h30l-112 -199h-584z" />
    <glyph glyph-name="E" unicode="&#x118;" horiz-adv-x="710" 
d="M-11 35l36 2q21 1 33.5 4t20.5 10.5t13.5 21.5t13.5 38l164 536q7 24 10 38t-0.5 21.5t-14.5 10.5t-31 4l-35 2l11 35h242l291 2l-47 -181h-30v45q0 34 -6.5 53t-28 28t-62 11t-108.5 2h-46q-11 0 -16.5 -4.5t-9.5 -15.5l-88 -289h128q20 0 35.5 1.5t28.5 8.5t25.5 21.5
t27.5 40.5l21 39h30l-82 -268h-30l3 39q1 26 -2.5 40.5t-12.5 21.5t-23.5 8.5t-34.5 1.5h-128l-77 -251q-8 -26 -6.5 -40.5t11 -21.5t27.5 -8.5t43 -1.5h21q69 0 111.5 3.5t71 13t48.5 26t43 43.5l64 73h30l-112 -199h-584z" />
    <glyph glyph-name="E" unicode="&#x116;" horiz-adv-x="710" 
d="M-11 35l36 2q21 1 33.5 4t20.5 10.5t13.5 21.5t13.5 38l164 536q7 24 10 38t-0.5 21.5t-14.5 10.5t-31 4l-35 2l11 35h242l291 2l-47 -181h-30v45q0 34 -6.5 53t-28 28t-62 11t-108.5 2h-46q-11 0 -16.5 -4.5t-9.5 -15.5l-88 -289h128q20 0 35.5 1.5t28.5 8.5t25.5 21.5
t27.5 40.5l21 39h30l-82 -268h-30l3 39q1 26 -2.5 40.5t-12.5 21.5t-23.5 8.5t-34.5 1.5h-128l-77 -251q-8 -26 -6.5 -40.5t11 -21.5t27.5 -8.5t43 -1.5h21q69 0 111.5 3.5t71 13t48.5 26t43 43.5l64 73h30l-112 -199h-584z" />
    <glyph glyph-name="E" unicode="&#x114;" horiz-adv-x="710" 
d="M-11 35l36 2q21 1 33.5 4t20.5 10.5t13.5 21.5t13.5 38l164 536q7 24 10 38t-0.5 21.5t-14.5 10.5t-31 4l-35 2l11 35h242l291 2l-47 -181h-30v45q0 34 -6.5 53t-28 28t-62 11t-108.5 2h-46q-11 0 -16.5 -4.5t-9.5 -15.5l-88 -289h128q20 0 35.5 1.5t28.5 8.5t25.5 21.5
t27.5 40.5l21 39h30l-82 -268h-30l3 39q1 26 -2.5 40.5t-12.5 21.5t-23.5 8.5t-34.5 1.5h-128l-77 -251q-8 -26 -6.5 -40.5t11 -21.5t27.5 -8.5t43 -1.5h21q69 0 111.5 3.5t71 13t48.5 26t43 43.5l64 73h30l-112 -199h-584z" />
    <glyph glyph-name="E" unicode="&#x112;" horiz-adv-x="710" 
d="M-11 35l36 2q21 1 33.5 4t20.5 10.5t13.5 21.5t13.5 38l164 536q7 24 10 38t-0.5 21.5t-14.5 10.5t-31 4l-35 2l11 35h242l291 2l-47 -181h-30v45q0 34 -6.5 53t-28 28t-62 11t-108.5 2h-46q-11 0 -16.5 -4.5t-9.5 -15.5l-88 -289h128q20 0 35.5 1.5t28.5 8.5t25.5 21.5
t27.5 40.5l21 39h30l-82 -268h-30l3 39q1 26 -2.5 40.5t-12.5 21.5t-23.5 8.5t-34.5 1.5h-128l-77 -251q-8 -26 -6.5 -40.5t11 -21.5t27.5 -8.5t43 -1.5h21q69 0 111.5 3.5t71 13t48.5 26t43 43.5l64 73h30l-112 -199h-584z" />
    <glyph glyph-name="E" unicode="&#xcb;" horiz-adv-x="710" 
d="M-11 35l36 2q21 1 33.5 4t20.5 10.5t13.5 21.5t13.5 38l164 536q7 24 10 38t-0.5 21.5t-14.5 10.5t-31 4l-35 2l11 35h242l291 2l-47 -181h-30v45q0 34 -6.5 53t-28 28t-62 11t-108.5 2h-46q-11 0 -16.5 -4.5t-9.5 -15.5l-88 -289h128q20 0 35.5 1.5t28.5 8.5t25.5 21.5
t27.5 40.5l21 39h30l-82 -268h-30l3 39q1 26 -2.5 40.5t-12.5 21.5t-23.5 8.5t-34.5 1.5h-128l-77 -251q-8 -26 -6.5 -40.5t11 -21.5t27.5 -8.5t43 -1.5h21q69 0 111.5 3.5t71 13t48.5 26t43 43.5l64 73h30l-112 -199h-584z" />
    <glyph glyph-name="E" unicode="&#xca;" horiz-adv-x="710" 
d="M-11 35l36 2q21 1 33.5 4t20.5 10.5t13.5 21.5t13.5 38l164 536q7 24 10 38t-0.5 21.5t-14.5 10.5t-31 4l-35 2l11 35h242l291 2l-47 -181h-30v45q0 34 -6.5 53t-28 28t-62 11t-108.5 2h-46q-11 0 -16.5 -4.5t-9.5 -15.5l-88 -289h128q20 0 35.5 1.5t28.5 8.5t25.5 21.5
t27.5 40.5l21 39h30l-82 -268h-30l3 39q1 26 -2.5 40.5t-12.5 21.5t-23.5 8.5t-34.5 1.5h-128l-77 -251q-8 -26 -6.5 -40.5t11 -21.5t27.5 -8.5t43 -1.5h21q69 0 111.5 3.5t71 13t48.5 26t43 43.5l64 73h30l-112 -199h-584z" />
    <glyph glyph-name="E" unicode="&#xc9;" horiz-adv-x="710" 
d="M-11 35l36 2q21 1 33.5 4t20.5 10.5t13.5 21.5t13.5 38l164 536q7 24 10 38t-0.5 21.5t-14.5 10.5t-31 4l-35 2l11 35h242l291 2l-47 -181h-30v45q0 34 -6.5 53t-28 28t-62 11t-108.5 2h-46q-11 0 -16.5 -4.5t-9.5 -15.5l-88 -289h128q20 0 35.5 1.5t28.5 8.5t25.5 21.5
t27.5 40.5l21 39h30l-82 -268h-30l3 39q1 26 -2.5 40.5t-12.5 21.5t-23.5 8.5t-34.5 1.5h-128l-77 -251q-8 -26 -6.5 -40.5t11 -21.5t27.5 -8.5t43 -1.5h21q69 0 111.5 3.5t71 13t48.5 26t43 43.5l64 73h30l-112 -199h-584z" />
    <glyph glyph-name="E" unicode="&#xc8;" horiz-adv-x="710" 
d="M-11 35l36 2q21 1 33.5 4t20.5 10.5t13.5 21.5t13.5 38l164 536q7 24 10 38t-0.5 21.5t-14.5 10.5t-31 4l-35 2l11 35h242l291 2l-47 -181h-30v45q0 34 -6.5 53t-28 28t-62 11t-108.5 2h-46q-11 0 -16.5 -4.5t-9.5 -15.5l-88 -289h128q20 0 35.5 1.5t28.5 8.5t25.5 21.5
t27.5 40.5l21 39h30l-82 -268h-30l3 39q1 26 -2.5 40.5t-12.5 21.5t-23.5 8.5t-34.5 1.5h-128l-77 -251q-8 -26 -6.5 -40.5t11 -21.5t27.5 -8.5t43 -1.5h21q69 0 111.5 3.5t71 13t48.5 26t43 43.5l64 73h30l-112 -199h-584z" />
    <glyph glyph-name="F" unicode="F" horiz-adv-x="652" 
d="M-11 35l36 2q21 1 33.5 4t20.5 10.5t13.5 21.5t13.5 38l164 536q7 24 10 38t-0.5 21.5t-14.5 10.5t-31 4l-35 2l11 35h259l291 2l-47 -181h-30v45q0 34 -6.5 53t-27.5 28t-59.5 11t-103.5 2h-71q-11 0 -16.5 -4.5t-9.5 -15.5l-88 -289h145q20 0 35.5 1.5t28.5 8.5
t25.5 21.5t27.5 40.5l21 39h30l-82 -268h-30l3 39q1 26 -2.5 40.5t-12.5 21.5t-23.5 8.5t-34.5 1.5h-145l-77 -252q-8 -26 -11 -40.5t2 -21.5t18.5 -8.5t39.5 -2.5l42 -1l-11 -37h-312z" />
    <glyph glyph-name="G" unicode="G" horiz-adv-x="833" 
d="M402 -13q-68 0 -126.5 19.5t-102 58.5t-68.5 97t-25 135q0 99 44.5 186.5t118.5 153t168.5 104t195.5 38.5q57 0 115.5 -8t96.5 -23l-10 -186h-27l-32 105q-7 22 -20 35.5t-32 20.5t-42 9t-49 2q-79 0 -153 -32.5t-131.5 -92.5t-92.5 -144.5t-35 -188.5
q0 -63 17.5 -109.5t48 -76.5t71.5 -44.5t88 -14.5q38 0 74.5 7.5t63.5 18.5l63 195q8 24 11 38.5t-0.5 22t-14.5 10t-32 3.5l-55 2l11 35h312l-11 -35l-37 -2q-21 -1 -33.5 -4t-20 -10.5t-13.5 -21.5t-13 -38l-45 -145l-16 -71q-28 -3 -58.5 -11.5t-63.5 -16.5t-68.5 -14.5
t-71.5 -6.5z" />
    <glyph glyph-name="G" unicode="&#x122;" horiz-adv-x="833" 
d="M402 -13q-68 0 -126.5 19.5t-102 58.5t-68.5 97t-25 135q0 99 44.5 186.5t118.5 153t168.5 104t195.5 38.5q57 0 115.5 -8t96.5 -23l-10 -186h-27l-32 105q-7 22 -20 35.5t-32 20.5t-42 9t-49 2q-79 0 -153 -32.5t-131.5 -92.5t-92.5 -144.5t-35 -188.5
q0 -63 17.5 -109.5t48 -76.5t71.5 -44.5t88 -14.5q38 0 74.5 7.5t63.5 18.5l63 195q8 24 11 38.5t-0.5 22t-14.5 10t-32 3.5l-55 2l11 35h312l-11 -35l-37 -2q-21 -1 -33.5 -4t-20 -10.5t-13.5 -21.5t-13 -38l-45 -145l-16 -71q-28 -3 -58.5 -11.5t-63.5 -16.5t-68.5 -14.5
t-71.5 -6.5z" />
    <glyph glyph-name="G" unicode="&#x120;" horiz-adv-x="833" 
d="M402 -13q-68 0 -126.5 19.5t-102 58.5t-68.5 97t-25 135q0 99 44.5 186.5t118.5 153t168.5 104t195.5 38.5q57 0 115.5 -8t96.5 -23l-10 -186h-27l-32 105q-7 22 -20 35.5t-32 20.5t-42 9t-49 2q-79 0 -153 -32.5t-131.5 -92.5t-92.5 -144.5t-35 -188.5
q0 -63 17.5 -109.5t48 -76.5t71.5 -44.5t88 -14.5q38 0 74.5 7.5t63.5 18.5l63 195q8 24 11 38.5t-0.5 22t-14.5 10t-32 3.5l-55 2l11 35h312l-11 -35l-37 -2q-21 -1 -33.5 -4t-20 -10.5t-13.5 -21.5t-13 -38l-45 -145l-16 -71q-28 -3 -58.5 -11.5t-63.5 -16.5t-68.5 -14.5
t-71.5 -6.5z" />
    <glyph glyph-name="G" unicode="&#x11e;" horiz-adv-x="833" 
d="M402 -13q-68 0 -126.5 19.5t-102 58.5t-68.5 97t-25 135q0 99 44.5 186.5t118.5 153t168.5 104t195.5 38.5q57 0 115.5 -8t96.5 -23l-10 -186h-27l-32 105q-7 22 -20 35.5t-32 20.5t-42 9t-49 2q-79 0 -153 -32.5t-131.5 -92.5t-92.5 -144.5t-35 -188.5
q0 -63 17.5 -109.5t48 -76.5t71.5 -44.5t88 -14.5q38 0 74.5 7.5t63.5 18.5l63 195q8 24 11 38.5t-0.5 22t-14.5 10t-32 3.5l-55 2l11 35h312l-11 -35l-37 -2q-21 -1 -33.5 -4t-20 -10.5t-13.5 -21.5t-13 -38l-45 -145l-16 -71q-28 -3 -58.5 -11.5t-63.5 -16.5t-68.5 -14.5
t-71.5 -6.5z" />
    <glyph glyph-name="G" unicode="&#x11c;" horiz-adv-x="833" 
d="M402 -13q-68 0 -126.5 19.5t-102 58.5t-68.5 97t-25 135q0 99 44.5 186.5t118.5 153t168.5 104t195.5 38.5q57 0 115.5 -8t96.5 -23l-10 -186h-27l-32 105q-7 22 -20 35.5t-32 20.5t-42 9t-49 2q-79 0 -153 -32.5t-131.5 -92.5t-92.5 -144.5t-35 -188.5
q0 -63 17.5 -109.5t48 -76.5t71.5 -44.5t88 -14.5q38 0 74.5 7.5t63.5 18.5l63 195q8 24 11 38.5t-0.5 22t-14.5 10t-32 3.5l-55 2l11 35h312l-11 -35l-37 -2q-21 -1 -33.5 -4t-20 -10.5t-13.5 -21.5t-13 -38l-45 -145l-16 -71q-28 -3 -58.5 -11.5t-63.5 -16.5t-68.5 -14.5
t-71.5 -6.5z" />
    <glyph glyph-name="H" unicode="H" horiz-adv-x="925" 
d="M270 647q7 24 10.5 38t0 21.5t-14.5 10.5t-31 4l-36 2l11 35h292l-11 -35l-36 -2q-21 -1 -33.5 -4t-20.5 -10.5t-14 -21.5t-13 -38l-73 -238h420l73 238q7 24 10.5 38t0 21.5t-14.5 10.5t-31 4l-36 2l11 35h292l-11 -35l-36 -2q-21 -1 -33.5 -4t-20.5 -10.5t-14 -21.5
t-13 -38l-164 -536q-8 -24 -11 -38t0.5 -21.5t14.5 -10.5t31 -4l36 -2l-11 -35h-292l11 35l36 2q21 1 33.5 4t20.5 10.5t13.5 21.5t13.5 38l76 250h-420l-76 -250q-8 -24 -11 -38t0.5 -21.5t14.5 -10.5t31 -4l36 -2l-11 -35h-292l11 35l36 2q21 1 33.5 4t20.5 10.5
t13.5 21.5t13.5 38z" />
    <glyph glyph-name="H" unicode="&#x126;" horiz-adv-x="925" 
d="M270 647q7 24 10.5 38t0 21.5t-14.5 10.5t-31 4l-36 2l11 35h292l-11 -35l-36 -2q-21 -1 -33.5 -4t-20.5 -10.5t-14 -21.5t-13 -38l-73 -238h420l73 238q7 24 10.5 38t0 21.5t-14.5 10.5t-31 4l-36 2l11 35h292l-11 -35l-36 -2q-21 -1 -33.5 -4t-20.5 -10.5t-14 -21.5
t-13 -38l-164 -536q-8 -24 -11 -38t0.5 -21.5t14.5 -10.5t31 -4l36 -2l-11 -35h-292l11 35l36 2q21 1 33.5 4t20.5 10.5t13.5 21.5t13.5 38l76 250h-420l-76 -250q-8 -24 -11 -38t0.5 -21.5t14.5 -10.5t31 -4l36 -2l-11 -35h-292l11 35l36 2q21 1 33.5 4t20.5 10.5
t13.5 21.5t13.5 38z" />
    <glyph glyph-name="H" unicode="&#x124;" horiz-adv-x="925" 
d="M270 647q7 24 10.5 38t0 21.5t-14.5 10.5t-31 4l-36 2l11 35h292l-11 -35l-36 -2q-21 -1 -33.5 -4t-20.5 -10.5t-14 -21.5t-13 -38l-73 -238h420l73 238q7 24 10.5 38t0 21.5t-14.5 10.5t-31 4l-36 2l11 35h292l-11 -35l-36 -2q-21 -1 -33.5 -4t-20.5 -10.5t-14 -21.5
t-13 -38l-164 -536q-8 -24 -11 -38t0.5 -21.5t14.5 -10.5t31 -4l36 -2l-11 -35h-292l11 35l36 2q21 1 33.5 4t20.5 10.5t13.5 21.5t13.5 38l76 250h-420l-76 -250q-8 -24 -11 -38t0.5 -21.5t14.5 -10.5t31 -4l36 -2l-11 -35h-292l11 35l36 2q21 1 33.5 4t20.5 10.5
t13.5 21.5t13.5 38z" />
    <glyph glyph-name="I" unicode="I" horiz-adv-x="401" 
d="M270 647q7 24 10.5 38t0 21.5t-14.5 10.5t-31 4l-36 2l11 35h292l-11 -35l-36 -2q-21 -1 -33.5 -4t-20.5 -10.5t-14 -21.5t-13 -38l-164 -536q-8 -24 -11 -38t0.5 -21.5t14.5 -10.5t31 -4l36 -2l-11 -35h-292l11 35l36 2q21 1 33.5 4t20.5 10.5t13.5 21.5t13.5 38z" />
    <glyph glyph-name="I" unicode="&#x1eca;" horiz-adv-x="401" 
d="M270 647q7 24 10.5 38t0 21.5t-14.5 10.5t-31 4l-36 2l11 35h292l-11 -35l-36 -2q-21 -1 -33.5 -4t-20.5 -10.5t-14 -21.5t-13 -38l-164 -536q-8 -24 -11 -38t0.5 -21.5t14.5 -10.5t31 -4l36 -2l-11 -35h-292l11 35l36 2q21 1 33.5 4t20.5 10.5t13.5 21.5t13.5 38z" />
    <glyph glyph-name="I" unicode="&#x130;" horiz-adv-x="401" 
d="M270 647q7 24 10.5 38t0 21.5t-14.5 10.5t-31 4l-36 2l11 35h292l-11 -35l-36 -2q-21 -1 -33.5 -4t-20.5 -10.5t-14 -21.5t-13 -38l-164 -536q-8 -24 -11 -38t0.5 -21.5t14.5 -10.5t31 -4l36 -2l-11 -35h-292l11 35l36 2q21 1 33.5 4t20.5 10.5t13.5 21.5t13.5 38z" />
    <glyph glyph-name="I" unicode="&#x12e;" horiz-adv-x="401" 
d="M270 647q7 24 10.5 38t0 21.5t-14.5 10.5t-31 4l-36 2l11 35h292l-11 -35l-36 -2q-21 -1 -33.5 -4t-20.5 -10.5t-14 -21.5t-13 -38l-164 -536q-8 -24 -11 -38t0.5 -21.5t14.5 -10.5t31 -4l36 -2l-11 -35h-292l11 35l36 2q21 1 33.5 4t20.5 10.5t13.5 21.5t13.5 38z" />
    <glyph glyph-name="I" unicode="&#x12c;" horiz-adv-x="401" 
d="M270 647q7 24 10.5 38t0 21.5t-14.5 10.5t-31 4l-36 2l11 35h292l-11 -35l-36 -2q-21 -1 -33.5 -4t-20.5 -10.5t-14 -21.5t-13 -38l-164 -536q-8 -24 -11 -38t0.5 -21.5t14.5 -10.5t31 -4l36 -2l-11 -35h-292l11 35l36 2q21 1 33.5 4t20.5 10.5t13.5 21.5t13.5 38z" />
    <glyph glyph-name="I" unicode="&#x12a;" horiz-adv-x="401" 
d="M270 647q7 24 10.5 38t0 21.5t-14.5 10.5t-31 4l-36 2l11 35h292l-11 -35l-36 -2q-21 -1 -33.5 -4t-20.5 -10.5t-14 -21.5t-13 -38l-164 -536q-8 -24 -11 -38t0.5 -21.5t14.5 -10.5t31 -4l36 -2l-11 -35h-292l11 35l36 2q21 1 33.5 4t20.5 10.5t13.5 21.5t13.5 38z" />
    <glyph glyph-name="I" unicode="&#x128;" horiz-adv-x="401" 
d="M270 647q7 24 10.5 38t0 21.5t-14.5 10.5t-31 4l-36 2l11 35h292l-11 -35l-36 -2q-21 -1 -33.5 -4t-20.5 -10.5t-14 -21.5t-13 -38l-164 -536q-8 -24 -11 -38t0.5 -21.5t14.5 -10.5t31 -4l36 -2l-11 -35h-292l11 35l36 2q21 1 33.5 4t20.5 10.5t13.5 21.5t13.5 38z" />
    <glyph glyph-name="I" unicode="&#xcf;" horiz-adv-x="401" 
d="M270 647q7 24 10.5 38t0 21.5t-14.5 10.5t-31 4l-36 2l11 35h292l-11 -35l-36 -2q-21 -1 -33.5 -4t-20.5 -10.5t-14 -21.5t-13 -38l-164 -536q-8 -24 -11 -38t0.5 -21.5t14.5 -10.5t31 -4l36 -2l-11 -35h-292l11 35l36 2q21 1 33.5 4t20.5 10.5t13.5 21.5t13.5 38z" />
    <glyph glyph-name="I" unicode="&#xce;" horiz-adv-x="401" 
d="M270 647q7 24 10.5 38t0 21.5t-14.5 10.5t-31 4l-36 2l11 35h292l-11 -35l-36 -2q-21 -1 -33.5 -4t-20.5 -10.5t-14 -21.5t-13 -38l-164 -536q-8 -24 -11 -38t0.5 -21.5t14.5 -10.5t31 -4l36 -2l-11 -35h-292l11 35l36 2q21 1 33.5 4t20.5 10.5t13.5 21.5t13.5 38z" />
    <glyph glyph-name="I" unicode="&#xcd;" horiz-adv-x="401" 
d="M270 647q7 24 10.5 38t0 21.5t-14.5 10.5t-31 4l-36 2l11 35h292l-11 -35l-36 -2q-21 -1 -33.5 -4t-20.5 -10.5t-14 -21.5t-13 -38l-164 -536q-8 -24 -11 -38t0.5 -21.5t14.5 -10.5t31 -4l36 -2l-11 -35h-292l11 35l36 2q21 1 33.5 4t20.5 10.5t13.5 21.5t13.5 38z" />
    <glyph glyph-name="I" unicode="&#xcc;" horiz-adv-x="401" 
d="M270 647q7 24 10.5 38t0 21.5t-14.5 10.5t-31 4l-36 2l11 35h292l-11 -35l-36 -2q-21 -1 -33.5 -4t-20.5 -10.5t-14 -21.5t-13 -38l-164 -536q-8 -24 -11 -38t0.5 -21.5t14.5 -10.5t31 -4l36 -2l-11 -35h-292l11 35l36 2q21 1 33.5 4t20.5 10.5t13.5 21.5t13.5 38z" />
    <glyph glyph-name="J" unicode="J" horiz-adv-x="392" 
d="M-72 -73q43 31 75 55t56 51.5t43 64.5t37 94l139 455q7 24 10.5 38t0 21.5t-14.5 10.5t-31 4l-36 2l11 35h292l-11 -35l-36 -2q-21 -1 -33.5 -4t-20.5 -10.5t-14 -21.5t-13 -38l-133 -435q-11 -37 -21.5 -66t-24 -52t-30.5 -42.5t-42 -36.5q-17 -12 -39 -26t-47 -29.5
t-51 -31t-50 -28.5z" />
    <glyph glyph-name="J" unicode="&#x134;" horiz-adv-x="392" 
d="M-72 -73q43 31 75 55t56 51.5t43 64.5t37 94l139 455q7 24 10.5 38t0 21.5t-14.5 10.5t-31 4l-36 2l11 35h292l-11 -35l-36 -2q-21 -1 -33.5 -4t-20.5 -10.5t-14 -21.5t-13 -38l-133 -435q-11 -37 -21.5 -66t-24 -52t-30.5 -42.5t-42 -36.5q-17 -12 -39 -26t-47 -29.5
t-51 -31t-50 -28.5z" />
    <glyph glyph-name="K" unicode="K" horiz-adv-x="821" 
d="M352 351l-69 -2l-73 -238q-8 -24 -11 -38t0.5 -21.5t14.5 -10.5t31 -4l36 -2l-11 -35h-292l11 35l36 2q21 1 33.5 4t20.5 10.5t13.5 21.5t13.5 38l164 536q7 24 10.5 38t0 21.5t-14.5 10.5t-31 4l-36 2l11 35h292l-11 -35l-36 -2q-21 -1 -33.5 -4t-20.5 -10.5t-14 -21.5
t-13 -38l-82 -268q17 6 33.5 17t43.5 31l244 183q53 39 79 61t32.5 33t-2 13.5t-25.5 3.5l-40 2l11 35h273l-11 -35l-30 -2q-24 -2 -42.5 -6t-39 -14.5t-47.5 -29.5t-69 -50l-273 -198l218 -340q13 -20 29.5 -31.5t45.5 -13.5l35 -3l-11 -35h-177z" />
    <glyph glyph-name="K" unicode="&#x136;" horiz-adv-x="821" 
d="M352 351l-69 -2l-73 -238q-8 -24 -11 -38t0.5 -21.5t14.5 -10.5t31 -4l36 -2l-11 -35h-292l11 35l36 2q21 1 33.5 4t20.5 10.5t13.5 21.5t13.5 38l164 536q7 24 10.5 38t0 21.5t-14.5 10.5t-31 4l-36 2l11 35h292l-11 -35l-36 -2q-21 -1 -33.5 -4t-20.5 -10.5t-14 -21.5
t-13 -38l-82 -268q17 6 33.5 17t43.5 31l244 183q53 39 79 61t32.5 33t-2 13.5t-25.5 3.5l-40 2l11 35h273l-11 -35l-30 -2q-24 -2 -42.5 -6t-39 -14.5t-47.5 -29.5t-69 -50l-273 -198l218 -340q13 -20 29.5 -31.5t45.5 -13.5l35 -3l-11 -35h-177z" />
    <glyph glyph-name="L" unicode="L" horiz-adv-x="646" 
d="M-11 35l36 2q21 1 33.5 4t20.5 10.5t13.5 21.5t13.5 38l164 536q7 24 10.5 38t0 21.5t-14.5 10.5t-31 4l-36 2l11 35h292l-11 -35l-36 -2q-21 -1 -33.5 -4t-20.5 -10.5t-14 -21.5t-13 -38l-164 -535q-8 -26 -6.5 -40.5t11 -21.5t27.5 -8.5t43 -1.5q54 0 90.5 3.5t63.5 13
t48 26t44 43.5l63 73h27l-112 -199h-531z" />
    <glyph glyph-name="L" unicode="&#x141;" horiz-adv-x="646" 
d="M-11 35l36 2q21 1 33.5 4t20.5 10.5t13.5 21.5t13.5 38l164 536q7 24 10.5 38t0 21.5t-14.5 10.5t-31 4l-36 2l11 35h292l-11 -35l-36 -2q-21 -1 -33.5 -4t-20.5 -10.5t-14 -21.5t-13 -38l-164 -535q-8 -26 -6.5 -40.5t11 -21.5t27.5 -8.5t43 -1.5q54 0 90.5 3.5t63.5 13
t48 26t44 43.5l63 73h27l-112 -199h-531z" />
    <glyph glyph-name="L" unicode="&#x13f;" horiz-adv-x="646" 
d="M-11 35l36 2q21 1 33.5 4t20.5 10.5t13.5 21.5t13.5 38l164 536q7 24 10.5 38t0 21.5t-14.5 10.5t-31 4l-36 2l11 35h292l-11 -35l-36 -2q-21 -1 -33.5 -4t-20.5 -10.5t-14 -21.5t-13 -38l-164 -535q-8 -26 -6.5 -40.5t11 -21.5t27.5 -8.5t43 -1.5q54 0 90.5 3.5t63.5 13
t48 26t44 43.5l63 73h27l-112 -199h-531z" />
    <glyph glyph-name="L" unicode="&#x13d;" horiz-adv-x="646" 
d="M-11 35l36 2q21 1 33.5 4t20.5 10.5t13.5 21.5t13.5 38l164 536q7 24 10.5 38t0 21.5t-14.5 10.5t-31 4l-36 2l11 35h292l-11 -35l-36 -2q-21 -1 -33.5 -4t-20.5 -10.5t-14 -21.5t-13 -38l-164 -535q-8 -26 -6.5 -40.5t11 -21.5t27.5 -8.5t43 -1.5q54 0 90.5 3.5t63.5 13
t48 26t44 43.5l63 73h27l-112 -199h-531z" />
    <glyph glyph-name="L" unicode="&#x13b;" horiz-adv-x="646" 
d="M-11 35l36 2q21 1 33.5 4t20.5 10.5t13.5 21.5t13.5 38l164 536q7 24 10.5 38t0 21.5t-14.5 10.5t-31 4l-36 2l11 35h292l-11 -35l-36 -2q-21 -1 -33.5 -4t-20.5 -10.5t-14 -21.5t-13 -38l-164 -535q-8 -26 -6.5 -40.5t11 -21.5t27.5 -8.5t43 -1.5q54 0 90.5 3.5t63.5 13
t48 26t44 43.5l63 73h27l-112 -199h-531z" />
    <glyph glyph-name="L" unicode="&#x139;" horiz-adv-x="646" 
d="M-11 35l36 2q21 1 33.5 4t20.5 10.5t13.5 21.5t13.5 38l164 536q7 24 10.5 38t0 21.5t-14.5 10.5t-31 4l-36 2l11 35h292l-11 -35l-36 -2q-21 -1 -33.5 -4t-20.5 -10.5t-14 -21.5t-13 -38l-164 -535q-8 -26 -6.5 -40.5t11 -21.5t27.5 -8.5t43 -1.5q54 0 90.5 3.5t63.5 13
t48 26t44 43.5l63 73h27l-112 -199h-531z" />
    <glyph glyph-name="M" unicode="M" horiz-adv-x="1051" 
d="M326 644l-140 -423q-20 -64 -30 -100.5t-9.5 -55.5t11 -24t31.5 -5l36 -1l-10 -35h-256l10 35l38 1q21 0 35 5t26.5 24t27.5 55.5t37 101.5l147 422q9 26 12 41t-0.5 23t-14 10t-27.5 3l-37 2l10 35h190l84 -598l434 598h203l-10 -35l-39 -2q-18 -1 -30 -3t-20 -10
t-14.5 -23t-13.5 -41l-137 -533q-6 -24 -8.5 -38t1 -21.5t14 -10.5t30.5 -4l35 -2l-10 -35h-292l10 35l37 2q21 1 34 4t21 10.5t13.5 21.5t11.5 38l136 533l-471 -653h-14z" />
    <glyph glyph-name="N" unicode="N" horiz-adv-x="926" 
d="M317 608l-118 -386q-20 -64 -30 -100.5t-9.5 -55t12 -23.5t35.5 -6l36 -2l-10 -35h-253l10 35l38 2q25 1 39.5 6t26 23.5t23.5 55t32 100.5l119 387q18 60 -2.5 86t-85.5 28l10 35h155l364 -603l116 381q19 64 29.5 100.5t10.5 55t-11.5 23.5t-35.5 6l-36 2l10 35h253
l-10 -35l-38 -2q-25 -1 -39.5 -6t-26.5 -23.5t-24.5 -55t-31.5 -100.5l-164 -539h-27z" />
    <glyph glyph-name="N" unicode="&#x14a;" horiz-adv-x="926" 
d="M317 608l-118 -386q-20 -64 -30 -100.5t-9.5 -55t12 -23.5t35.5 -6l36 -2l-10 -35h-253l10 35l38 2q25 1 39.5 6t26 23.5t23.5 55t32 100.5l119 387q18 60 -2.5 86t-85.5 28l10 35h155l364 -603l116 381q19 64 29.5 100.5t10.5 55t-11.5 23.5t-35.5 6l-36 2l10 35h253
l-10 -35l-38 -2q-25 -1 -39.5 -6t-26.5 -23.5t-24.5 -55t-31.5 -100.5l-164 -539h-27z" />
    <glyph glyph-name="N" unicode="&#x147;" horiz-adv-x="926" 
d="M317 608l-118 -386q-20 -64 -30 -100.5t-9.5 -55t12 -23.5t35.5 -6l36 -2l-10 -35h-253l10 35l38 2q25 1 39.5 6t26 23.5t23.5 55t32 100.5l119 387q18 60 -2.5 86t-85.5 28l10 35h155l364 -603l116 381q19 64 29.5 100.5t10.5 55t-11.5 23.5t-35.5 6l-36 2l10 35h253
l-10 -35l-38 -2q-25 -1 -39.5 -6t-26.5 -23.5t-24.5 -55t-31.5 -100.5l-164 -539h-27z" />
    <glyph glyph-name="N" unicode="&#x145;" horiz-adv-x="926" 
d="M317 608l-118 -386q-20 -64 -30 -100.5t-9.5 -55t12 -23.5t35.5 -6l36 -2l-10 -35h-253l10 35l38 2q25 1 39.5 6t26 23.5t23.5 55t32 100.5l119 387q18 60 -2.5 86t-85.5 28l10 35h155l364 -603l116 381q19 64 29.5 100.5t10.5 55t-11.5 23.5t-35.5 6l-36 2l10 35h253
l-10 -35l-38 -2q-25 -1 -39.5 -6t-26.5 -23.5t-24.5 -55t-31.5 -100.5l-164 -539h-27z" />
    <glyph glyph-name="N" unicode="&#x143;" horiz-adv-x="926" 
d="M317 608l-118 -386q-20 -64 -30 -100.5t-9.5 -55t12 -23.5t35.5 -6l36 -2l-10 -35h-253l10 35l38 2q25 1 39.5 6t26 23.5t23.5 55t32 100.5l119 387q18 60 -2.5 86t-85.5 28l10 35h155l364 -603l116 381q19 64 29.5 100.5t10.5 55t-11.5 23.5t-35.5 6l-36 2l10 35h253
l-10 -35l-38 -2q-25 -1 -39.5 -6t-26.5 -23.5t-24.5 -55t-31.5 -100.5l-164 -539h-27z" />
    <glyph glyph-name="N" unicode="&#xd1;" horiz-adv-x="926" 
d="M317 608l-118 -386q-20 -64 -30 -100.5t-9.5 -55t12 -23.5t35.5 -6l36 -2l-10 -35h-253l10 35l38 2q25 1 39.5 6t26 23.5t23.5 55t32 100.5l119 387q18 60 -2.5 86t-85.5 28l10 35h155l364 -603l116 381q19 64 29.5 100.5t10.5 55t-11.5 23.5t-35.5 6l-36 2l10 35h253
l-10 -35l-38 -2q-25 -1 -39.5 -6t-26.5 -23.5t-24.5 -55t-31.5 -100.5l-164 -539h-27z" />
    <glyph glyph-name="O" unicode="O" 
d="M394 -13q-71 0 -128 23t-98 64.5t-63 98.5t-22 126q0 92 38.5 178.5t103.5 153.5t151 107.5t182 40.5q70 0 127.5 -23t98 -64.5t63 -98.5t22.5 -126q0 -92 -38.5 -178.5t-103.5 -153.5t-151 -107.5t-182 -40.5zM400 32q60 0 109 21.5t88 57t67.5 82.5t47.5 98t28 102.5
t9 96.5q0 64 -14.5 110t-40.5 76t-62 44t-80 14q-60 0 -109 -21.5t-88 -57t-67.5 -82.5t-47.5 -98t-28 -102.5t-9 -96.5q0 -64 14.5 -110t40.5 -76t62 -44t80 -14z" />
    <glyph glyph-name="O" unicode="&#x1ecc;" 
d="M394 -13q-71 0 -128 23t-98 64.5t-63 98.5t-22 126q0 92 38.5 178.5t103.5 153.5t151 107.5t182 40.5q70 0 127.5 -23t98 -64.5t63 -98.5t22.5 -126q0 -92 -38.5 -178.5t-103.5 -153.5t-151 -107.5t-182 -40.5zM400 32q60 0 109 21.5t88 57t67.5 82.5t47.5 98t28 102.5
t9 96.5q0 64 -14.5 110t-40.5 76t-62 44t-80 14q-60 0 -109 -21.5t-88 -57t-67.5 -82.5t-47.5 -98t-28 -102.5t-9 -96.5q0 -64 14.5 -110t40.5 -76t62 -44t80 -14z" />
    <glyph glyph-name="O" unicode="&#x152;" 
d="M394 -13q-71 0 -128 23t-98 64.5t-63 98.5t-22 126q0 92 38.5 178.5t103.5 153.5t151 107.5t182 40.5q70 0 127.5 -23t98 -64.5t63 -98.5t22.5 -126q0 -92 -38.5 -178.5t-103.5 -153.5t-151 -107.5t-182 -40.5zM400 32q60 0 109 21.5t88 57t67.5 82.5t47.5 98t28 102.5
t9 96.5q0 64 -14.5 110t-40.5 76t-62 44t-80 14q-60 0 -109 -21.5t-88 -57t-67.5 -82.5t-47.5 -98t-28 -102.5t-9 -96.5q0 -64 14.5 -110t40.5 -76t62 -44t80 -14z" />
    <glyph glyph-name="O" unicode="&#x150;" 
d="M394 -13q-71 0 -128 23t-98 64.5t-63 98.5t-22 126q0 92 38.5 178.5t103.5 153.5t151 107.5t182 40.5q70 0 127.5 -23t98 -64.5t63 -98.5t22.5 -126q0 -92 -38.5 -178.5t-103.5 -153.5t-151 -107.5t-182 -40.5zM400 32q60 0 109 21.5t88 57t67.5 82.5t47.5 98t28 102.5
t9 96.5q0 64 -14.5 110t-40.5 76t-62 44t-80 14q-60 0 -109 -21.5t-88 -57t-67.5 -82.5t-47.5 -98t-28 -102.5t-9 -96.5q0 -64 14.5 -110t40.5 -76t62 -44t80 -14z" />
    <glyph glyph-name="O" unicode="&#x14e;" 
d="M394 -13q-71 0 -128 23t-98 64.5t-63 98.5t-22 126q0 92 38.5 178.5t103.5 153.5t151 107.5t182 40.5q70 0 127.5 -23t98 -64.5t63 -98.5t22.5 -126q0 -92 -38.5 -178.5t-103.5 -153.5t-151 -107.5t-182 -40.5zM400 32q60 0 109 21.5t88 57t67.5 82.5t47.5 98t28 102.5
t9 96.5q0 64 -14.5 110t-40.5 76t-62 44t-80 14q-60 0 -109 -21.5t-88 -57t-67.5 -82.5t-47.5 -98t-28 -102.5t-9 -96.5q0 -64 14.5 -110t40.5 -76t62 -44t80 -14z" />
    <glyph glyph-name="O" unicode="&#x14c;" 
d="M394 -13q-71 0 -128 23t-98 64.5t-63 98.5t-22 126q0 92 38.5 178.5t103.5 153.5t151 107.5t182 40.5q70 0 127.5 -23t98 -64.5t63 -98.5t22.5 -126q0 -92 -38.5 -178.5t-103.5 -153.5t-151 -107.5t-182 -40.5zM400 32q60 0 109 21.5t88 57t67.5 82.5t47.5 98t28 102.5
t9 96.5q0 64 -14.5 110t-40.5 76t-62 44t-80 14q-60 0 -109 -21.5t-88 -57t-67.5 -82.5t-47.5 -98t-28 -102.5t-9 -96.5q0 -64 14.5 -110t40.5 -76t62 -44t80 -14z" />
    <glyph glyph-name="O" unicode="&#xd8;" 
d="M394 -13q-71 0 -128 23t-98 64.5t-63 98.5t-22 126q0 92 38.5 178.5t103.5 153.5t151 107.5t182 40.5q70 0 127.5 -23t98 -64.5t63 -98.5t22.5 -126q0 -92 -38.5 -178.5t-103.5 -153.5t-151 -107.5t-182 -40.5zM400 32q60 0 109 21.5t88 57t67.5 82.5t47.5 98t28 102.5
t9 96.5q0 64 -14.5 110t-40.5 76t-62 44t-80 14q-60 0 -109 -21.5t-88 -57t-67.5 -82.5t-47.5 -98t-28 -102.5t-9 -96.5q0 -64 14.5 -110t40.5 -76t62 -44t80 -14z" />
    <glyph glyph-name="O" unicode="&#xd6;" 
d="M394 -13q-71 0 -128 23t-98 64.5t-63 98.5t-22 126q0 92 38.5 178.5t103.5 153.5t151 107.5t182 40.5q70 0 127.5 -23t98 -64.5t63 -98.5t22.5 -126q0 -92 -38.5 -178.5t-103.5 -153.5t-151 -107.5t-182 -40.5zM400 32q60 0 109 21.5t88 57t67.5 82.5t47.5 98t28 102.5
t9 96.5q0 64 -14.5 110t-40.5 76t-62 44t-80 14q-60 0 -109 -21.5t-88 -57t-67.5 -82.5t-47.5 -98t-28 -102.5t-9 -96.5q0 -64 14.5 -110t40.5 -76t62 -44t80 -14z" />
    <glyph glyph-name="O" unicode="&#xd5;" 
d="M394 -13q-71 0 -128 23t-98 64.5t-63 98.5t-22 126q0 92 38.5 178.5t103.5 153.5t151 107.5t182 40.5q70 0 127.5 -23t98 -64.5t63 -98.5t22.5 -126q0 -92 -38.5 -178.5t-103.5 -153.5t-151 -107.5t-182 -40.5zM400 32q60 0 109 21.5t88 57t67.5 82.5t47.5 98t28 102.5
t9 96.5q0 64 -14.5 110t-40.5 76t-62 44t-80 14q-60 0 -109 -21.5t-88 -57t-67.5 -82.5t-47.5 -98t-28 -102.5t-9 -96.5q0 -64 14.5 -110t40.5 -76t62 -44t80 -14z" />
    <glyph glyph-name="O" unicode="&#xd4;" 
d="M394 -13q-71 0 -128 23t-98 64.5t-63 98.5t-22 126q0 92 38.5 178.5t103.5 153.5t151 107.5t182 40.5q70 0 127.5 -23t98 -64.5t63 -98.5t22.5 -126q0 -92 -38.5 -178.5t-103.5 -153.5t-151 -107.5t-182 -40.5zM400 32q60 0 109 21.5t88 57t67.5 82.5t47.5 98t28 102.5
t9 96.5q0 64 -14.5 110t-40.5 76t-62 44t-80 14q-60 0 -109 -21.5t-88 -57t-67.5 -82.5t-47.5 -98t-28 -102.5t-9 -96.5q0 -64 14.5 -110t40.5 -76t62 -44t80 -14z" />
    <glyph glyph-name="O" unicode="&#xd3;" 
d="M394 -13q-71 0 -128 23t-98 64.5t-63 98.5t-22 126q0 92 38.5 178.5t103.5 153.5t151 107.5t182 40.5q70 0 127.5 -23t98 -64.5t63 -98.5t22.5 -126q0 -92 -38.5 -178.5t-103.5 -153.5t-151 -107.5t-182 -40.5zM400 32q60 0 109 21.5t88 57t67.5 82.5t47.5 98t28 102.5
t9 96.5q0 64 -14.5 110t-40.5 76t-62 44t-80 14q-60 0 -109 -21.5t-88 -57t-67.5 -82.5t-47.5 -98t-28 -102.5t-9 -96.5q0 -64 14.5 -110t40.5 -76t62 -44t80 -14z" />
    <glyph glyph-name="O" unicode="&#xd2;" 
d="M394 -13q-71 0 -128 23t-98 64.5t-63 98.5t-22 126q0 92 38.5 178.5t103.5 153.5t151 107.5t182 40.5q70 0 127.5 -23t98 -64.5t63 -98.5t22.5 -126q0 -92 -38.5 -178.5t-103.5 -153.5t-151 -107.5t-182 -40.5zM400 32q60 0 109 21.5t88 57t67.5 82.5t47.5 98t28 102.5
t9 96.5q0 64 -14.5 110t-40.5 76t-62 44t-80 14q-60 0 -109 -21.5t-88 -57t-67.5 -82.5t-47.5 -98t-28 -102.5t-9 -96.5q0 -64 14.5 -110t40.5 -76t62 -44t80 -14z" />
    <glyph glyph-name="P" unicode="P" horiz-adv-x="657" 
d="M-11 35l36 2q21 1 33.5 4t20.5 10.5t13.5 21.5t13.5 38l164 536q7 24 10.5 38t0 21.5t-14.5 10.5t-31 4l-36 2l11 35h267q51 0 95.5 -9t78 -29.5t53 -52t19.5 -76.5q0 -47 -22 -93t-66 -83t-111.5 -59.5t-158.5 -22.5h-36l11 35h33q63 0 107.5 20.5t72 53t40.5 71.5
t13 76q0 131 -151 131q-35 0 -48 -4t-18 -20l-179 -585q-8 -26 -11 -40.5t2 -21.5t19 -8.5t40 -2.5l41 -1l-11 -37h-312z" />
    <glyph glyph-name="P" unicode="&#xde;" horiz-adv-x="657" 
d="M-11 35l36 2q21 1 33.5 4t20.5 10.5t13.5 21.5t13.5 38l164 536q7 24 10.5 38t0 21.5t-14.5 10.5t-31 4l-36 2l11 35h267q51 0 95.5 -9t78 -29.5t53 -52t19.5 -76.5q0 -47 -22 -93t-66 -83t-111.5 -59.5t-158.5 -22.5h-36l11 35h33q63 0 107.5 20.5t72 53t40.5 71.5
t13 76q0 131 -151 131q-35 0 -48 -4t-18 -20l-179 -585q-8 -26 -11 -40.5t2 -21.5t19 -8.5t40 -2.5l41 -1l-11 -37h-312z" />
    <glyph glyph-name="Q" unicode="Q" 
d="M208 -82q23 5 40 6t37 1q50 0 92.5 -5.5t81 -12t74.5 -12t74 -5.5q48 0 74 16t46 57l25 -8q-29 -78 -68 -117.5t-98 -39.5q-42 0 -88.5 16t-93 34.5t-91 34.5t-83.5 16q-28 0 -49 -10q-2 -38 -14 -55t-31 -17q-15 0 -25.5 11.5t-10.5 28.5q0 8 2.5 17.5t10.5 20t23 21
t41 19.5l155 57q-57 9 -103.5 35.5t-78.5 66.5t-49.5 92t-17.5 113q0 92 38.5 178.5t103.5 153.5t151 107.5t182 40.5q70 0 127.5 -23t98 -64.5t63 -98.5t22.5 -126q0 -92 -38.5 -178.5t-103.5 -153.5t-151 -107.5t-182 -40.5zM400 32q60 0 109 21.5t88 57t67.5 82.5
t47.5 98t28 102.5t9 96.5q0 64 -14.5 110t-40.5 76t-62 44t-80 14q-60 0 -109 -21.5t-88 -57t-67.5 -82.5t-47.5 -98t-28 -102.5t-9 -96.5q0 -64 14.5 -110t40.5 -76t62 -44t80 -14z" />
    <glyph glyph-name="R" unicode="R" horiz-adv-x="750" 
d="M-11 35l36 2q21 1 33.5 4t20.5 10.5t13.5 21.5t13.5 38l164 536q7 24 10.5 38t0 21.5t-14.5 10.5t-31 4l-36 2l11 35h252q130 0 200 -41t70 -119q0 -40 -16 -77t-48 -67t-79.5 -51.5t-111.5 -30.5q33 -72 65.5 -139.5t68.5 -132.5q9 -17 16 -28.5t14.5 -19t17 -11.5
t23.5 -5l23 -1l-11 -35h-155l-163 358h-90l-76 -247q-8 -26 -11 -40.5t2 -21.5t19 -8.5t40 -2.5l31 -1l-11 -37h-302zM298 397q6 -1 16 -1.5t20.5 -1t20 -0.5h15.5q75 0 122.5 18.5t74.5 48t37 66t10 72.5q0 25 -7.5 47t-26 38.5t-49.5 26t-79 9.5q-20 0 -31.5 -1t-17.5 -3
t-9 -7t-5 -12z" />
    <glyph glyph-name="R" unicode="&#x158;" horiz-adv-x="750" 
d="M-11 35l36 2q21 1 33.5 4t20.5 10.5t13.5 21.5t13.5 38l164 536q7 24 10.5 38t0 21.5t-14.5 10.5t-31 4l-36 2l11 35h252q130 0 200 -41t70 -119q0 -40 -16 -77t-48 -67t-79.5 -51.5t-111.5 -30.5q33 -72 65.5 -139.5t68.5 -132.5q9 -17 16 -28.5t14.5 -19t17 -11.5
t23.5 -5l23 -1l-11 -35h-155l-163 358h-90l-76 -247q-8 -26 -11 -40.5t2 -21.5t19 -8.5t40 -2.5l31 -1l-11 -37h-302zM298 397q6 -1 16 -1.5t20.5 -1t20 -0.5h15.5q75 0 122.5 18.5t74.5 48t37 66t10 72.5q0 25 -7.5 47t-26 38.5t-49.5 26t-79 9.5q-20 0 -31.5 -1t-17.5 -3
t-9 -7t-5 -12z" />
    <glyph glyph-name="R" unicode="&#x156;" horiz-adv-x="750" 
d="M-11 35l36 2q21 1 33.5 4t20.5 10.5t13.5 21.5t13.5 38l164 536q7 24 10.5 38t0 21.5t-14.5 10.5t-31 4l-36 2l11 35h252q130 0 200 -41t70 -119q0 -40 -16 -77t-48 -67t-79.5 -51.5t-111.5 -30.5q33 -72 65.5 -139.5t68.5 -132.5q9 -17 16 -28.5t14.5 -19t17 -11.5
t23.5 -5l23 -1l-11 -35h-155l-163 358h-90l-76 -247q-8 -26 -11 -40.5t2 -21.5t19 -8.5t40 -2.5l31 -1l-11 -37h-302zM298 397q6 -1 16 -1.5t20.5 -1t20 -0.5h15.5q75 0 122.5 18.5t74.5 48t37 66t10 72.5q0 25 -7.5 47t-26 38.5t-49.5 26t-79 9.5q-20 0 -31.5 -1t-17.5 -3
t-9 -7t-5 -12z" />
    <glyph glyph-name="R" unicode="&#x154;" horiz-adv-x="750" 
d="M-11 35l36 2q21 1 33.5 4t20.5 10.5t13.5 21.5t13.5 38l164 536q7 24 10.5 38t0 21.5t-14.5 10.5t-31 4l-36 2l11 35h252q130 0 200 -41t70 -119q0 -40 -16 -77t-48 -67t-79.5 -51.5t-111.5 -30.5q33 -72 65.5 -139.5t68.5 -132.5q9 -17 16 -28.5t14.5 -19t17 -11.5
t23.5 -5l23 -1l-11 -35h-155l-163 358h-90l-76 -247q-8 -26 -11 -40.5t2 -21.5t19 -8.5t40 -2.5l31 -1l-11 -37h-302zM298 397q6 -1 16 -1.5t20.5 -1t20 -0.5h15.5q75 0 122.5 18.5t74.5 48t37 66t10 72.5q0 25 -7.5 47t-26 38.5t-49.5 26t-79 9.5q-20 0 -31.5 -1t-17.5 -3
t-9 -7t-5 -12z" />
    <glyph glyph-name="S" unicode="S" horiz-adv-x="596" 
d="M203 -13q-27 0 -54.5 5t-52.5 13.5t-47 18t-37 18.5l38 217h26l20 -157q2 -14 6.5 -25.5t13.5 -19.5q17 -14 45 -20t62 -6q36 0 71 11t62.5 32.5t44.5 52t17 69.5q0 72 -73 142l-70 68q-38 37 -54.5 74t-16.5 78q0 43 20 83t57.5 71t91 49t121.5 18q54 0 96.5 -8.5
t73.5 -19.5l-39 -182h-25l-15 109q-3 21 -11 30.5t-25 15.5q-14 5 -35 8t-41 3q-39 0 -71 -10.5t-55 -29.5t-36 -44t-13 -55q0 -28 12 -55t39 -53l70 -68q19 -19 36.5 -38.5t31 -42.5t21 -50t7.5 -60q0 -48 -23.5 -92t-65 -77t-98.5 -53t-125 -20z" />
    <glyph glyph-name="S" unicode="&#x218;" horiz-adv-x="596" 
d="M203 -13q-27 0 -54.5 5t-52.5 13.5t-47 18t-37 18.5l38 217h26l20 -157q2 -14 6.5 -25.5t13.5 -19.5q17 -14 45 -20t62 -6q36 0 71 11t62.5 32.5t44.5 52t17 69.5q0 72 -73 142l-70 68q-38 37 -54.5 74t-16.5 78q0 43 20 83t57.5 71t91 49t121.5 18q54 0 96.5 -8.5
t73.5 -19.5l-39 -182h-25l-15 109q-3 21 -11 30.5t-25 15.5q-14 5 -35 8t-41 3q-39 0 -71 -10.5t-55 -29.5t-36 -44t-13 -55q0 -28 12 -55t39 -53l70 -68q19 -19 36.5 -38.5t31 -42.5t21 -50t7.5 -60q0 -48 -23.5 -92t-65 -77t-98.5 -53t-125 -20z" />
    <glyph glyph-name="S" unicode="&#x160;" horiz-adv-x="596" 
d="M203 -13q-27 0 -54.5 5t-52.5 13.5t-47 18t-37 18.5l38 217h26l20 -157q2 -14 6.5 -25.5t13.5 -19.5q17 -14 45 -20t62 -6q36 0 71 11t62.5 32.5t44.5 52t17 69.5q0 72 -73 142l-70 68q-38 37 -54.5 74t-16.5 78q0 43 20 83t57.5 71t91 49t121.5 18q54 0 96.5 -8.5
t73.5 -19.5l-39 -182h-25l-15 109q-3 21 -11 30.5t-25 15.5q-14 5 -35 8t-41 3q-39 0 -71 -10.5t-55 -29.5t-36 -44t-13 -55q0 -28 12 -55t39 -53l70 -68q19 -19 36.5 -38.5t31 -42.5t21 -50t7.5 -60q0 -48 -23.5 -92t-65 -77t-98.5 -53t-125 -20z" />
    <glyph glyph-name="S" unicode="&#x15e;" horiz-adv-x="596" 
d="M203 -13q-27 0 -54.5 5t-52.5 13.5t-47 18t-37 18.5l38 217h26l20 -157q2 -14 6.5 -25.5t13.5 -19.5q17 -14 45 -20t62 -6q36 0 71 11t62.5 32.5t44.5 52t17 69.5q0 72 -73 142l-70 68q-38 37 -54.5 74t-16.5 78q0 43 20 83t57.5 71t91 49t121.5 18q54 0 96.5 -8.5
t73.5 -19.5l-39 -182h-25l-15 109q-3 21 -11 30.5t-25 15.5q-14 5 -35 8t-41 3q-39 0 -71 -10.5t-55 -29.5t-36 -44t-13 -55q0 -28 12 -55t39 -53l70 -68q19 -19 36.5 -38.5t31 -42.5t21 -50t7.5 -60q0 -48 -23.5 -92t-65 -77t-98.5 -53t-125 -20z" />
    <glyph glyph-name="S" unicode="&#x15c;" horiz-adv-x="596" 
d="M203 -13q-27 0 -54.5 5t-52.5 13.5t-47 18t-37 18.5l38 217h26l20 -157q2 -14 6.5 -25.5t13.5 -19.5q17 -14 45 -20t62 -6q36 0 71 11t62.5 32.5t44.5 52t17 69.5q0 72 -73 142l-70 68q-38 37 -54.5 74t-16.5 78q0 43 20 83t57.5 71t91 49t121.5 18q54 0 96.5 -8.5
t73.5 -19.5l-39 -182h-25l-15 109q-3 21 -11 30.5t-25 15.5q-14 5 -35 8t-41 3q-39 0 -71 -10.5t-55 -29.5t-36 -44t-13 -55q0 -28 12 -55t39 -53l70 -68q19 -19 36.5 -38.5t31 -42.5t21 -50t7.5 -60q0 -48 -23.5 -92t-65 -77t-98.5 -53t-125 -20z" />
    <glyph glyph-name="S" unicode="&#x15a;" horiz-adv-x="596" 
d="M203 -13q-27 0 -54.5 5t-52.5 13.5t-47 18t-37 18.5l38 217h26l20 -157q2 -14 6.5 -25.5t13.5 -19.5q17 -14 45 -20t62 -6q36 0 71 11t62.5 32.5t44.5 52t17 69.5q0 72 -73 142l-70 68q-38 37 -54.5 74t-16.5 78q0 43 20 83t57.5 71t91 49t121.5 18q54 0 96.5 -8.5
t73.5 -19.5l-39 -182h-25l-15 109q-3 21 -11 30.5t-25 15.5q-14 5 -35 8t-41 3q-39 0 -71 -10.5t-55 -29.5t-36 -44t-13 -55q0 -28 12 -55t39 -53l70 -68q19 -19 36.5 -38.5t31 -42.5t21 -50t7.5 -60q0 -48 -23.5 -92t-65 -77t-98.5 -53t-125 -20z" />
    <glyph glyph-name="T" unicode="T" horiz-adv-x="744" 
d="M142 37l42 1q26 1 41 2.5t24 8.5t15 21.5t14 40.5l186 607h-31q-65 0 -106 -2t-69 -11t-47 -28t-40 -53l-28 -45h-27l75 210h8q11 -10 23 -16t33.5 -9.5t55.5 -4.5t90 -1h254q55 0 90 1t58.5 4.5t39 9.5t32.5 16h8l-53 -210h-27v45q0 34 -7.5 53t-29.5 28t-62 11t-105 2
h-31l-186 -607q-8 -26 -11 -40.5t2 -21.5t19 -8.5t40 -2.5l42 -1l-12 -37h-332z" />
    <glyph glyph-name="T" unicode="&#x21a;" horiz-adv-x="744" 
d="M142 37l42 1q26 1 41 2.5t24 8.5t15 21.5t14 40.5l186 607h-31q-65 0 -106 -2t-69 -11t-47 -28t-40 -53l-28 -45h-27l75 210h8q11 -10 23 -16t33.5 -9.5t55.5 -4.5t90 -1h254q55 0 90 1t58.5 4.5t39 9.5t32.5 16h8l-53 -210h-27v45q0 34 -7.5 53t-29.5 28t-62 11t-105 2
h-31l-186 -607q-8 -26 -11 -40.5t2 -21.5t19 -8.5t40 -2.5l42 -1l-12 -37h-332z" />
    <glyph glyph-name="T" unicode="&#x166;" horiz-adv-x="744" 
d="M142 37l42 1q26 1 41 2.5t24 8.5t15 21.5t14 40.5l186 607h-31q-65 0 -106 -2t-69 -11t-47 -28t-40 -53l-28 -45h-27l75 210h8q11 -10 23 -16t33.5 -9.5t55.5 -4.5t90 -1h254q55 0 90 1t58.5 4.5t39 9.5t32.5 16h8l-53 -210h-27v45q0 34 -7.5 53t-29.5 28t-62 11t-105 2
h-31l-186 -607q-8 -26 -11 -40.5t2 -21.5t19 -8.5t40 -2.5l42 -1l-12 -37h-332z" />
    <glyph glyph-name="T" unicode="&#x164;" horiz-adv-x="744" 
d="M142 37l42 1q26 1 41 2.5t24 8.5t15 21.5t14 40.5l186 607h-31q-65 0 -106 -2t-69 -11t-47 -28t-40 -53l-28 -45h-27l75 210h8q11 -10 23 -16t33.5 -9.5t55.5 -4.5t90 -1h254q55 0 90 1t58.5 4.5t39 9.5t32.5 16h8l-53 -210h-27v45q0 34 -7.5 53t-29.5 28t-62 11t-105 2
h-31l-186 -607q-8 -26 -11 -40.5t2 -21.5t19 -8.5t40 -2.5l42 -1l-12 -37h-332z" />
    <glyph glyph-name="T" unicode="&#x162;" horiz-adv-x="744" 
d="M142 37l42 1q26 1 41 2.5t24 8.5t15 21.5t14 40.5l186 607h-31q-65 0 -106 -2t-69 -11t-47 -28t-40 -53l-28 -45h-27l75 210h8q11 -10 23 -16t33.5 -9.5t55.5 -4.5t90 -1h254q55 0 90 1t58.5 4.5t39 9.5t32.5 16h8l-53 -210h-27v45q0 34 -7.5 53t-29.5 28t-62 11t-105 2
h-31l-186 -607q-8 -26 -11 -40.5t2 -21.5t19 -8.5t40 -2.5l42 -1l-12 -37h-332z" />
    <glyph glyph-name="U" unicode="U" horiz-adv-x="847" 
d="M371 -13q-71 0 -124.5 16.5t-85 53.5t-37.5 95.5t20 142.5l108 352q7 24 10 38t0 21.5t-14 10.5t-31 4l-36 2l11 35h292l-11 -35l-36 -2q-21 -1 -33.5 -4t-21 -10.5t-14 -21.5t-12.5 -38l-108 -352q-22 -72 -19 -121.5t24.5 -80t58 -44t82.5 -13.5q49 0 91.5 13.5
t77.5 43.5t63.5 79t49.5 120l75 244q19 64 29.5 100.5t10.5 55t-11.5 23.5t-35.5 7l-37 2l11 34h257l-11 -34l-37 -2q-25 -2 -39.5 -7t-26.5 -23.5t-24.5 -55t-31.5 -100.5l-74 -243q-25 -81 -59 -139t-78.5 -95t-99.5 -54.5t-123 -17.5z" />
    <glyph glyph-name="U" unicode="&#x1ee4;" horiz-adv-x="847" 
d="M371 -13q-71 0 -124.5 16.5t-85 53.5t-37.5 95.5t20 142.5l108 352q7 24 10 38t0 21.5t-14 10.5t-31 4l-36 2l11 35h292l-11 -35l-36 -2q-21 -1 -33.5 -4t-21 -10.5t-14 -21.5t-12.5 -38l-108 -352q-22 -72 -19 -121.5t24.5 -80t58 -44t82.5 -13.5q49 0 91.5 13.5
t77.5 43.5t63.5 79t49.5 120l75 244q19 64 29.5 100.5t10.5 55t-11.5 23.5t-35.5 7l-37 2l11 34h257l-11 -34l-37 -2q-25 -2 -39.5 -7t-26.5 -23.5t-24.5 -55t-31.5 -100.5l-74 -243q-25 -81 -59 -139t-78.5 -95t-99.5 -54.5t-123 -17.5z" />
    <glyph glyph-name="U" unicode="&#x172;" horiz-adv-x="847" 
d="M371 -13q-71 0 -124.5 16.5t-85 53.5t-37.5 95.5t20 142.5l108 352q7 24 10 38t0 21.5t-14 10.5t-31 4l-36 2l11 35h292l-11 -35l-36 -2q-21 -1 -33.5 -4t-21 -10.5t-14 -21.5t-12.5 -38l-108 -352q-22 -72 -19 -121.5t24.5 -80t58 -44t82.5 -13.5q49 0 91.5 13.5
t77.5 43.5t63.5 79t49.5 120l75 244q19 64 29.5 100.5t10.5 55t-11.5 23.5t-35.5 7l-37 2l11 34h257l-11 -34l-37 -2q-25 -2 -39.5 -7t-26.5 -23.5t-24.5 -55t-31.5 -100.5l-74 -243q-25 -81 -59 -139t-78.5 -95t-99.5 -54.5t-123 -17.5z" />
    <glyph glyph-name="U" unicode="&#x170;" horiz-adv-x="847" 
d="M371 -13q-71 0 -124.5 16.5t-85 53.5t-37.5 95.5t20 142.5l108 352q7 24 10 38t0 21.5t-14 10.5t-31 4l-36 2l11 35h292l-11 -35l-36 -2q-21 -1 -33.5 -4t-21 -10.5t-14 -21.5t-12.5 -38l-108 -352q-22 -72 -19 -121.5t24.5 -80t58 -44t82.5 -13.5q49 0 91.5 13.5
t77.5 43.5t63.5 79t49.5 120l75 244q19 64 29.5 100.5t10.5 55t-11.5 23.5t-35.5 7l-37 2l11 34h257l-11 -34l-37 -2q-25 -2 -39.5 -7t-26.5 -23.5t-24.5 -55t-31.5 -100.5l-74 -243q-25 -81 -59 -139t-78.5 -95t-99.5 -54.5t-123 -17.5z" />
    <glyph glyph-name="U" unicode="&#x16e;" horiz-adv-x="847" 
d="M371 -13q-71 0 -124.5 16.5t-85 53.5t-37.5 95.5t20 142.5l108 352q7 24 10 38t0 21.5t-14 10.5t-31 4l-36 2l11 35h292l-11 -35l-36 -2q-21 -1 -33.5 -4t-21 -10.5t-14 -21.5t-12.5 -38l-108 -352q-22 -72 -19 -121.5t24.5 -80t58 -44t82.5 -13.5q49 0 91.5 13.5
t77.5 43.5t63.5 79t49.5 120l75 244q19 64 29.5 100.5t10.5 55t-11.5 23.5t-35.5 7l-37 2l11 34h257l-11 -34l-37 -2q-25 -2 -39.5 -7t-26.5 -23.5t-24.5 -55t-31.5 -100.5l-74 -243q-25 -81 -59 -139t-78.5 -95t-99.5 -54.5t-123 -17.5z" />
    <glyph glyph-name="U" unicode="&#x16c;" horiz-adv-x="847" 
d="M371 -13q-71 0 -124.5 16.5t-85 53.5t-37.5 95.5t20 142.5l108 352q7 24 10 38t0 21.5t-14 10.5t-31 4l-36 2l11 35h292l-11 -35l-36 -2q-21 -1 -33.5 -4t-21 -10.5t-14 -21.5t-12.5 -38l-108 -352q-22 -72 -19 -121.5t24.5 -80t58 -44t82.5 -13.5q49 0 91.5 13.5
t77.5 43.5t63.5 79t49.5 120l75 244q19 64 29.5 100.5t10.5 55t-11.5 23.5t-35.5 7l-37 2l11 34h257l-11 -34l-37 -2q-25 -2 -39.5 -7t-26.5 -23.5t-24.5 -55t-31.5 -100.5l-74 -243q-25 -81 -59 -139t-78.5 -95t-99.5 -54.5t-123 -17.5z" />
    <glyph glyph-name="U" unicode="&#x16a;" horiz-adv-x="847" 
d="M371 -13q-71 0 -124.5 16.5t-85 53.5t-37.5 95.5t20 142.5l108 352q7 24 10 38t0 21.5t-14 10.5t-31 4l-36 2l11 35h292l-11 -35l-36 -2q-21 -1 -33.5 -4t-21 -10.5t-14 -21.5t-12.5 -38l-108 -352q-22 -72 -19 -121.5t24.5 -80t58 -44t82.5 -13.5q49 0 91.5 13.5
t77.5 43.5t63.5 79t49.5 120l75 244q19 64 29.5 100.5t10.5 55t-11.5 23.5t-35.5 7l-37 2l11 34h257l-11 -34l-37 -2q-25 -2 -39.5 -7t-26.5 -23.5t-24.5 -55t-31.5 -100.5l-74 -243q-25 -81 -59 -139t-78.5 -95t-99.5 -54.5t-123 -17.5z" />
    <glyph glyph-name="U" unicode="&#x168;" horiz-adv-x="847" 
d="M371 -13q-71 0 -124.5 16.5t-85 53.5t-37.5 95.5t20 142.5l108 352q7 24 10 38t0 21.5t-14 10.5t-31 4l-36 2l11 35h292l-11 -35l-36 -2q-21 -1 -33.5 -4t-21 -10.5t-14 -21.5t-12.5 -38l-108 -352q-22 -72 -19 -121.5t24.5 -80t58 -44t82.5 -13.5q49 0 91.5 13.5
t77.5 43.5t63.5 79t49.5 120l75 244q19 64 29.5 100.5t10.5 55t-11.5 23.5t-35.5 7l-37 2l11 34h257l-11 -34l-37 -2q-25 -2 -39.5 -7t-26.5 -23.5t-24.5 -55t-31.5 -100.5l-74 -243q-25 -81 -59 -139t-78.5 -95t-99.5 -54.5t-123 -17.5z" />
    <glyph glyph-name="U" unicode="&#xdc;" horiz-adv-x="847" 
d="M371 -13q-71 0 -124.5 16.5t-85 53.5t-37.5 95.5t20 142.5l108 352q7 24 10 38t0 21.5t-14 10.5t-31 4l-36 2l11 35h292l-11 -35l-36 -2q-21 -1 -33.5 -4t-21 -10.5t-14 -21.5t-12.5 -38l-108 -352q-22 -72 -19 -121.5t24.5 -80t58 -44t82.5 -13.5q49 0 91.5 13.5
t77.5 43.5t63.5 79t49.5 120l75 244q19 64 29.5 100.5t10.5 55t-11.5 23.5t-35.5 7l-37 2l11 34h257l-11 -34l-37 -2q-25 -2 -39.5 -7t-26.5 -23.5t-24.5 -55t-31.5 -100.5l-74 -243q-25 -81 -59 -139t-78.5 -95t-99.5 -54.5t-123 -17.5z" />
    <glyph glyph-name="U" unicode="&#xdb;" horiz-adv-x="847" 
d="M371 -13q-71 0 -124.5 16.5t-85 53.5t-37.5 95.5t20 142.5l108 352q7 24 10 38t0 21.5t-14 10.5t-31 4l-36 2l11 35h292l-11 -35l-36 -2q-21 -1 -33.5 -4t-21 -10.5t-14 -21.5t-12.5 -38l-108 -352q-22 -72 -19 -121.5t24.5 -80t58 -44t82.5 -13.5q49 0 91.5 13.5
t77.5 43.5t63.5 79t49.5 120l75 244q19 64 29.5 100.5t10.5 55t-11.5 23.5t-35.5 7l-37 2l11 34h257l-11 -34l-37 -2q-25 -2 -39.5 -7t-26.5 -23.5t-24.5 -55t-31.5 -100.5l-74 -243q-25 -81 -59 -139t-78.5 -95t-99.5 -54.5t-123 -17.5z" />
    <glyph glyph-name="U" unicode="&#xda;" horiz-adv-x="847" 
d="M371 -13q-71 0 -124.5 16.5t-85 53.5t-37.5 95.5t20 142.5l108 352q7 24 10 38t0 21.5t-14 10.5t-31 4l-36 2l11 35h292l-11 -35l-36 -2q-21 -1 -33.5 -4t-21 -10.5t-14 -21.5t-12.5 -38l-108 -352q-22 -72 -19 -121.5t24.5 -80t58 -44t82.5 -13.5q49 0 91.5 13.5
t77.5 43.5t63.5 79t49.5 120l75 244q19 64 29.5 100.5t10.5 55t-11.5 23.5t-35.5 7l-37 2l11 34h257l-11 -34l-37 -2q-25 -2 -39.5 -7t-26.5 -23.5t-24.5 -55t-31.5 -100.5l-74 -243q-25 -81 -59 -139t-78.5 -95t-99.5 -54.5t-123 -17.5z" />
    <glyph glyph-name="U" unicode="&#xd9;" horiz-adv-x="847" 
d="M371 -13q-71 0 -124.5 16.5t-85 53.5t-37.5 95.5t20 142.5l108 352q7 24 10 38t0 21.5t-14 10.5t-31 4l-36 2l11 35h292l-11 -35l-36 -2q-21 -1 -33.5 -4t-21 -10.5t-14 -21.5t-12.5 -38l-108 -352q-22 -72 -19 -121.5t24.5 -80t58 -44t82.5 -13.5q49 0 91.5 13.5
t77.5 43.5t63.5 79t49.5 120l75 244q19 64 29.5 100.5t10.5 55t-11.5 23.5t-35.5 7l-37 2l11 34h257l-11 -34l-37 -2q-25 -2 -39.5 -7t-26.5 -23.5t-24.5 -55t-31.5 -100.5l-74 -243q-25 -81 -59 -139t-78.5 -95t-99.5 -54.5t-123 -17.5z" />
    <glyph glyph-name="V" unicode="V" horiz-adv-x="750" 
d="M220 697q-1 15 -8 18t-33 5l-33 3l10 35h276l-10 -35l-48 -3q-14 -1 -23.5 -2t-14.5 -4.5t-7 -10t-2 -18.5l17 -538l351 468q23 31 36 51t15.5 32t-5.5 17t-27 6l-44 2l10 35h255l-10 -35l-38 -2q-15 -1 -28.5 -7t-27.5 -19t-31 -33t-38 -49l-479 -626h-36z" />
    <glyph glyph-name="W" unicode="W" horiz-adv-x="1145" 
d="M220 697q-1 15 -8 18t-33 5l-33 3l10 35h276l-10 -35l-48 -3q-14 -1 -23.5 -2t-14.5 -4.5t-7 -10t-2 -18.5l17 -538l278 372l-9 239h214l-10 -35l-48 -3q-14 -1 -23.5 -2t-14.5 -4.5t-7 -10t-2 -18.5l17 -538l351 468q23 31 36 51t15.5 32t-5.5 17t-27 6l-44 2l10 35h255
l-10 -35l-38 -2q-15 -1 -28.5 -7t-27.5 -19t-31 -33t-38 -49l-479 -626h-36l-17 447l-342 -447h-36z" />
    <glyph glyph-name="W" unicode="&#x1e84;" horiz-adv-x="1145" 
d="M220 697q-1 15 -8 18t-33 5l-33 3l10 35h276l-10 -35l-48 -3q-14 -1 -23.5 -2t-14.5 -4.5t-7 -10t-2 -18.5l17 -538l278 372l-9 239h214l-10 -35l-48 -3q-14 -1 -23.5 -2t-14.5 -4.5t-7 -10t-2 -18.5l17 -538l351 468q23 31 36 51t15.5 32t-5.5 17t-27 6l-44 2l10 35h255
l-10 -35l-38 -2q-15 -1 -28.5 -7t-27.5 -19t-31 -33t-38 -49l-479 -626h-36l-17 447l-342 -447h-36z" />
    <glyph glyph-name="W" unicode="&#x1e82;" horiz-adv-x="1145" 
d="M220 697q-1 15 -8 18t-33 5l-33 3l10 35h276l-10 -35l-48 -3q-14 -1 -23.5 -2t-14.5 -4.5t-7 -10t-2 -18.5l17 -538l278 372l-9 239h214l-10 -35l-48 -3q-14 -1 -23.5 -2t-14.5 -4.5t-7 -10t-2 -18.5l17 -538l351 468q23 31 36 51t15.5 32t-5.5 17t-27 6l-44 2l10 35h255
l-10 -35l-38 -2q-15 -1 -28.5 -7t-27.5 -19t-31 -33t-38 -49l-479 -626h-36l-17 447l-342 -447h-36z" />
    <glyph glyph-name="W" unicode="&#x1e80;" horiz-adv-x="1145" 
d="M220 697q-1 15 -8 18t-33 5l-33 3l10 35h276l-10 -35l-48 -3q-14 -1 -23.5 -2t-14.5 -4.5t-7 -10t-2 -18.5l17 -538l278 372l-9 239h214l-10 -35l-48 -3q-14 -1 -23.5 -2t-14.5 -4.5t-7 -10t-2 -18.5l17 -538l351 468q23 31 36 51t15.5 32t-5.5 17t-27 6l-44 2l10 35h255
l-10 -35l-38 -2q-15 -1 -28.5 -7t-27.5 -19t-31 -33t-38 -49l-479 -626h-36l-17 447l-342 -447h-36z" />
    <glyph glyph-name="W" unicode="&#x174;" horiz-adv-x="1145" 
d="M220 697q-1 15 -8 18t-33 5l-33 3l10 35h276l-10 -35l-48 -3q-14 -1 -23.5 -2t-14.5 -4.5t-7 -10t-2 -18.5l17 -538l278 372l-9 239h214l-10 -35l-48 -3q-14 -1 -23.5 -2t-14.5 -4.5t-7 -10t-2 -18.5l17 -538l351 468q23 31 36 51t15.5 32t-5.5 17t-27 6l-44 2l10 35h255
l-10 -35l-38 -2q-15 -1 -28.5 -7t-27.5 -19t-31 -33t-38 -49l-479 -626h-36l-17 447l-342 -447h-36z" />
    <glyph glyph-name="X" unicode="X" horiz-adv-x="808" 
d="M-71 35l38 3q15 1 29 6.5t32 17.5t42 32.5t59 50.5l277 243l-138 309q-6 13 -13.5 17t-32.5 6l-33 3l11 35h283l-11 -35l-45 -3q-29 -2 -40 -8.5t-2 -26.5l103 -229l167 159q27 26 48 45.5t31.5 32.5t8 20t-21.5 8l-44 2l11 35h251l-11 -35l-38 -3q-15 -1 -29.5 -6.5
t-32.5 -17.5t-42 -32t-58 -51l-222 -198l159 -354q3 -6 6 -10t7.5 -6.5t12 -4t20.5 -2.5l33 -3l-11 -35h-283l11 35l45 3q29 2 40 8.5t2 26.5l-123 274l-221 -204q-27 -25 -48 -44.5t-31.5 -33t-8 -20.5t21.5 -8l44 -2l-11 -35h-253z" />
    <glyph glyph-name="Y" unicode="Y" horiz-adv-x="734" 
d="M133 37l43 1q26 1 41 2.5t24 8.5t15 21.5t14 40.5l68 222l-118 364q-4 13 -10.5 17.5t-31.5 6.5l-33 2l11 35h279l-11 -35l-48 -2q-29 -2 -41 -8t-4 -28l98 -301l221 231q53 55 60.5 80t-34.5 26l-39 2l11 35h255l-11 -35l-33 -2q-16 0 -29 -5t-28 -17t-35.5 -33
t-51.5 -53l-274 -282l-67 -220q-8 -26 -11 -40.5t2 -21.5t19 -8.5t40 -2.5l41 -1l-11 -37h-332z" />
    <glyph glyph-name="Y" unicode="&#x1ef2;" horiz-adv-x="734" 
d="M133 37l43 1q26 1 41 2.5t24 8.5t15 21.5t14 40.5l68 222l-118 364q-4 13 -10.5 17.5t-31.5 6.5l-33 2l11 35h279l-11 -35l-48 -2q-29 -2 -41 -8t-4 -28l98 -301l221 231q53 55 60.5 80t-34.5 26l-39 2l11 35h255l-11 -35l-33 -2q-16 0 -29 -5t-28 -17t-35.5 -33
t-51.5 -53l-274 -282l-67 -220q-8 -26 -11 -40.5t2 -21.5t19 -8.5t40 -2.5l41 -1l-11 -37h-332z" />
    <glyph glyph-name="Y" unicode="&#x232;" horiz-adv-x="734" 
d="M133 37l43 1q26 1 41 2.5t24 8.5t15 21.5t14 40.5l68 222l-118 364q-4 13 -10.5 17.5t-31.5 6.5l-33 2l11 35h279l-11 -35l-48 -2q-29 -2 -41 -8t-4 -28l98 -301l221 231q53 55 60.5 80t-34.5 26l-39 2l11 35h255l-11 -35l-33 -2q-16 0 -29 -5t-28 -17t-35.5 -33
t-51.5 -53l-274 -282l-67 -220q-8 -26 -11 -40.5t2 -21.5t19 -8.5t40 -2.5l41 -1l-11 -37h-332z" />
    <glyph glyph-name="Y" unicode="&#x178;" horiz-adv-x="734" 
d="M133 37l43 1q26 1 41 2.5t24 8.5t15 21.5t14 40.5l68 222l-118 364q-4 13 -10.5 17.5t-31.5 6.5l-33 2l11 35h279l-11 -35l-48 -2q-29 -2 -41 -8t-4 -28l98 -301l221 231q53 55 60.5 80t-34.5 26l-39 2l11 35h255l-11 -35l-33 -2q-16 0 -29 -5t-28 -17t-35.5 -33
t-51.5 -53l-274 -282l-67 -220q-8 -26 -11 -40.5t2 -21.5t19 -8.5t40 -2.5l41 -1l-11 -37h-332z" />
    <glyph glyph-name="Y" unicode="&#x176;" horiz-adv-x="734" 
d="M133 37l43 1q26 1 41 2.5t24 8.5t15 21.5t14 40.5l68 222l-118 364q-4 13 -10.5 17.5t-31.5 6.5l-33 2l11 35h279l-11 -35l-48 -2q-29 -2 -41 -8t-4 -28l98 -301l221 231q53 55 60.5 80t-34.5 26l-39 2l11 35h255l-11 -35l-33 -2q-16 0 -29 -5t-28 -17t-35.5 -33
t-51.5 -53l-274 -282l-67 -220q-8 -26 -11 -40.5t2 -21.5t19 -8.5t40 -2.5l41 -1l-11 -37h-332z" />
    <glyph glyph-name="Y" unicode="&#xdd;" horiz-adv-x="734" 
d="M133 37l43 1q26 1 41 2.5t24 8.5t15 21.5t14 40.5l68 222l-118 364q-4 13 -10.5 17.5t-31.5 6.5l-33 2l11 35h279l-11 -35l-48 -2q-29 -2 -41 -8t-4 -28l98 -301l221 231q53 55 60.5 80t-34.5 26l-39 2l11 35h255l-11 -35l-33 -2q-16 0 -29 -5t-28 -17t-35.5 -33
t-51.5 -53l-274 -282l-67 -220q-8 -26 -11 -40.5t2 -21.5t19 -8.5t40 -2.5l41 -1l-11 -37h-332z" />
    <glyph glyph-name="Z" unicode="Z" horiz-adv-x="758" 
d="M715 718h-189q-72 0 -115.5 -3.5t-71 -13t-46.5 -26t-42 -43.5l-63 -73h-30l129 230h8q11 -10 26 -16t38 -9.5t56.5 -4.5t81.5 -1h386l-775 -718h225q72 0 115.5 3.5t71 13t46.5 26t42 43.5l63 73h30l-112 -199h-649z" />
    <glyph glyph-name="Z" unicode="&#x17d;" horiz-adv-x="758" 
d="M715 718h-189q-72 0 -115.5 -3.5t-71 -13t-46.5 -26t-42 -43.5l-63 -73h-30l129 230h8q11 -10 26 -16t38 -9.5t56.5 -4.5t81.5 -1h386l-775 -718h225q72 0 115.5 3.5t71 13t46.5 26t42 43.5l63 73h30l-112 -199h-649z" />
    <glyph glyph-name="Z" unicode="&#x17b;" horiz-adv-x="758" 
d="M715 718h-189q-72 0 -115.5 -3.5t-71 -13t-46.5 -26t-42 -43.5l-63 -73h-30l129 230h8q11 -10 26 -16t38 -9.5t56.5 -4.5t81.5 -1h386l-775 -718h225q72 0 115.5 3.5t71 13t46.5 26t42 43.5l63 73h30l-112 -199h-649z" />
    <glyph glyph-name="Z" unicode="&#x179;" horiz-adv-x="758" 
d="M715 718h-189q-72 0 -115.5 -3.5t-71 -13t-46.5 -26t-42 -43.5l-63 -73h-30l129 230h8q11 -10 26 -16t38 -9.5t56.5 -4.5t81.5 -1h386l-775 -718h225q72 0 115.5 3.5t71 13t46.5 26t42 43.5l63 73h30l-112 -199h-649z" />
    <glyph glyph-name="a" unicode="a" horiz-adv-x="565" 
d="M80 -13q-42 0 -61.5 28t-19.5 66q0 43 19 92.5t51 98t73 93t84.5 78.5t86.5 54.5t78 20.5q44 0 73 -16l72 32l6 -4l-156 -417q-11 -29 -14 -45t9 -16q11 0 28 12t37 31.5t41 45t39 53.5l27 -16q-61 -94 -120 -142.5t-107 -48.5q-46 0 -49 28t18 86l24 66h-1
q-26 -33 -55 -65.5t-59.5 -58t-61.5 -41t-62 -15.5zM141 48q16 0 46 21t64 58t67 87t56 109l36 94q6 15 4.5 26.5t-8 19t-16.5 11t-20 3.5q-27 0 -56.5 -16t-58 -44t-55 -65t-46 -78t-31.5 -84.5t-12 -84.5q0 -23 6.5 -40t23.5 -17z" />
    <glyph glyph-name="a" unicode="&#x105;" horiz-adv-x="565" 
d="M80 -13q-42 0 -61.5 28t-19.5 66q0 43 19 92.5t51 98t73 93t84.5 78.5t86.5 54.5t78 20.5q44 0 73 -16l72 32l6 -4l-156 -417q-11 -29 -14 -45t9 -16q11 0 28 12t37 31.5t41 45t39 53.5l27 -16q-61 -94 -120 -142.5t-107 -48.5q-46 0 -49 28t18 86l24 66h-1
q-26 -33 -55 -65.5t-59.5 -58t-61.5 -41t-62 -15.5zM141 48q16 0 46 21t64 58t67 87t56 109l36 94q6 15 4.5 26.5t-8 19t-16.5 11t-20 3.5q-27 0 -56.5 -16t-58 -44t-55 -65t-46 -78t-31.5 -84.5t-12 -84.5q0 -23 6.5 -40t23.5 -17z" />
    <glyph glyph-name="a" unicode="&#x103;" horiz-adv-x="565" 
d="M80 -13q-42 0 -61.5 28t-19.5 66q0 43 19 92.5t51 98t73 93t84.5 78.5t86.5 54.5t78 20.5q44 0 73 -16l72 32l6 -4l-156 -417q-11 -29 -14 -45t9 -16q11 0 28 12t37 31.5t41 45t39 53.5l27 -16q-61 -94 -120 -142.5t-107 -48.5q-46 0 -49 28t18 86l24 66h-1
q-26 -33 -55 -65.5t-59.5 -58t-61.5 -41t-62 -15.5zM141 48q16 0 46 21t64 58t67 87t56 109l36 94q6 15 4.5 26.5t-8 19t-16.5 11t-20 3.5q-27 0 -56.5 -16t-58 -44t-55 -65t-46 -78t-31.5 -84.5t-12 -84.5q0 -23 6.5 -40t23.5 -17z" />
    <glyph glyph-name="a" unicode="&#x101;" horiz-adv-x="565" 
d="M80 -13q-42 0 -61.5 28t-19.5 66q0 43 19 92.5t51 98t73 93t84.5 78.5t86.5 54.5t78 20.5q44 0 73 -16l72 32l6 -4l-156 -417q-11 -29 -14 -45t9 -16q11 0 28 12t37 31.5t41 45t39 53.5l27 -16q-61 -94 -120 -142.5t-107 -48.5q-46 0 -49 28t18 86l24 66h-1
q-26 -33 -55 -65.5t-59.5 -58t-61.5 -41t-62 -15.5zM141 48q16 0 46 21t64 58t67 87t56 109l36 94q6 15 4.5 26.5t-8 19t-16.5 11t-20 3.5q-27 0 -56.5 -16t-58 -44t-55 -65t-46 -78t-31.5 -84.5t-12 -84.5q0 -23 6.5 -40t23.5 -17z" />
    <glyph glyph-name="a" unicode="&#xe6;" horiz-adv-x="565" 
d="M80 -13q-42 0 -61.5 28t-19.5 66q0 43 19 92.5t51 98t73 93t84.5 78.5t86.5 54.5t78 20.5q44 0 73 -16l72 32l6 -4l-156 -417q-11 -29 -14 -45t9 -16q11 0 28 12t37 31.5t41 45t39 53.5l27 -16q-61 -94 -120 -142.5t-107 -48.5q-46 0 -49 28t18 86l24 66h-1
q-26 -33 -55 -65.5t-59.5 -58t-61.5 -41t-62 -15.5zM141 48q16 0 46 21t64 58t67 87t56 109l36 94q6 15 4.5 26.5t-8 19t-16.5 11t-20 3.5q-27 0 -56.5 -16t-58 -44t-55 -65t-46 -78t-31.5 -84.5t-12 -84.5q0 -23 6.5 -40t23.5 -17z" />
    <glyph glyph-name="a" unicode="&#xe5;" horiz-adv-x="565" 
d="M80 -13q-42 0 -61.5 28t-19.5 66q0 43 19 92.5t51 98t73 93t84.5 78.5t86.5 54.5t78 20.5q44 0 73 -16l72 32l6 -4l-156 -417q-11 -29 -14 -45t9 -16q11 0 28 12t37 31.5t41 45t39 53.5l27 -16q-61 -94 -120 -142.5t-107 -48.5q-46 0 -49 28t18 86l24 66h-1
q-26 -33 -55 -65.5t-59.5 -58t-61.5 -41t-62 -15.5zM141 48q16 0 46 21t64 58t67 87t56 109l36 94q6 15 4.5 26.5t-8 19t-16.5 11t-20 3.5q-27 0 -56.5 -16t-58 -44t-55 -65t-46 -78t-31.5 -84.5t-12 -84.5q0 -23 6.5 -40t23.5 -17z" />
    <glyph glyph-name="a" unicode="&#xe4;" horiz-adv-x="565" 
d="M80 -13q-42 0 -61.5 28t-19.5 66q0 43 19 92.5t51 98t73 93t84.5 78.5t86.5 54.5t78 20.5q44 0 73 -16l72 32l6 -4l-156 -417q-11 -29 -14 -45t9 -16q11 0 28 12t37 31.5t41 45t39 53.5l27 -16q-61 -94 -120 -142.5t-107 -48.5q-46 0 -49 28t18 86l24 66h-1
q-26 -33 -55 -65.5t-59.5 -58t-61.5 -41t-62 -15.5zM141 48q16 0 46 21t64 58t67 87t56 109l36 94q6 15 4.5 26.5t-8 19t-16.5 11t-20 3.5q-27 0 -56.5 -16t-58 -44t-55 -65t-46 -78t-31.5 -84.5t-12 -84.5q0 -23 6.5 -40t23.5 -17z" />
    <glyph glyph-name="a" unicode="&#xe3;" horiz-adv-x="565" 
d="M80 -13q-42 0 -61.5 28t-19.5 66q0 43 19 92.5t51 98t73 93t84.5 78.5t86.5 54.5t78 20.5q44 0 73 -16l72 32l6 -4l-156 -417q-11 -29 -14 -45t9 -16q11 0 28 12t37 31.5t41 45t39 53.5l27 -16q-61 -94 -120 -142.5t-107 -48.5q-46 0 -49 28t18 86l24 66h-1
q-26 -33 -55 -65.5t-59.5 -58t-61.5 -41t-62 -15.5zM141 48q16 0 46 21t64 58t67 87t56 109l36 94q6 15 4.5 26.5t-8 19t-16.5 11t-20 3.5q-27 0 -56.5 -16t-58 -44t-55 -65t-46 -78t-31.5 -84.5t-12 -84.5q0 -23 6.5 -40t23.5 -17z" />
    <glyph glyph-name="a" unicode="&#xe2;" horiz-adv-x="565" 
d="M80 -13q-42 0 -61.5 28t-19.5 66q0 43 19 92.5t51 98t73 93t84.5 78.5t86.5 54.5t78 20.5q44 0 73 -16l72 32l6 -4l-156 -417q-11 -29 -14 -45t9 -16q11 0 28 12t37 31.5t41 45t39 53.5l27 -16q-61 -94 -120 -142.5t-107 -48.5q-46 0 -49 28t18 86l24 66h-1
q-26 -33 -55 -65.5t-59.5 -58t-61.5 -41t-62 -15.5zM141 48q16 0 46 21t64 58t67 87t56 109l36 94q6 15 4.5 26.5t-8 19t-16.5 11t-20 3.5q-27 0 -56.5 -16t-58 -44t-55 -65t-46 -78t-31.5 -84.5t-12 -84.5q0 -23 6.5 -40t23.5 -17z" />
    <glyph glyph-name="a" unicode="&#xe1;" horiz-adv-x="565" 
d="M80 -13q-42 0 -61.5 28t-19.5 66q0 43 19 92.5t51 98t73 93t84.5 78.5t86.5 54.5t78 20.5q44 0 73 -16l72 32l6 -4l-156 -417q-11 -29 -14 -45t9 -16q11 0 28 12t37 31.5t41 45t39 53.5l27 -16q-61 -94 -120 -142.5t-107 -48.5q-46 0 -49 28t18 86l24 66h-1
q-26 -33 -55 -65.5t-59.5 -58t-61.5 -41t-62 -15.5zM141 48q16 0 46 21t64 58t67 87t56 109l36 94q6 15 4.5 26.5t-8 19t-16.5 11t-20 3.5q-27 0 -56.5 -16t-58 -44t-55 -65t-46 -78t-31.5 -84.5t-12 -84.5q0 -23 6.5 -40t23.5 -17z" />
    <glyph glyph-name="a" unicode="&#xe0;" horiz-adv-x="565" 
d="M80 -13q-42 0 -61.5 28t-19.5 66q0 43 19 92.5t51 98t73 93t84.5 78.5t86.5 54.5t78 20.5q44 0 73 -16l72 32l6 -4l-156 -417q-11 -29 -14 -45t9 -16q11 0 28 12t37 31.5t41 45t39 53.5l27 -16q-61 -94 -120 -142.5t-107 -48.5q-46 0 -49 28t18 86l24 66h-1
q-26 -33 -55 -65.5t-59.5 -58t-61.5 -41t-62 -15.5zM141 48q16 0 46 21t64 58t67 87t56 109l36 94q6 15 4.5 26.5t-8 19t-16.5 11t-20 3.5q-27 0 -56.5 -16t-58 -44t-55 -65t-46 -78t-31.5 -84.5t-12 -84.5q0 -23 6.5 -40t23.5 -17z" />
    <glyph glyph-name="b" unicode="b" horiz-adv-x="534" 
d="M146 -13q-64 0 -97.5 29.5t-16.5 82.5l197 590q7 20 6 26t-14 12l-64 31l2 6l208 66l-131 -393l-49 -123h1q81 106 147 155t116 49q44 0 65.5 -27t21.5 -67t-18 -88t-48 -96.5t-69.5 -94t-83 -80.5t-88.5 -56.5t-85 -21.5zM169 26q40 0 85 35.5t83.5 91t64 121.5
t25.5 128q0 24 -7 39.5t-23 15.5q-20 0 -55 -23.5t-73 -64t-73 -93.5t-54 -111l-25 -76q-7 -20 -4.5 -32.5t11 -19.5t20.5 -9t25 -2z" />
    <glyph glyph-name="c" unicode="c" horiz-adv-x="433" 
d="M143 -13q-26 0 -49 8.5t-40 25.5t-27 42t-10 57q0 38 13.5 82.5t37.5 88.5t56.5 85t71 72.5t80 50.5t84.5 19q36 0 62.5 -16t26.5 -45q0 -22 -14 -38t-34 -16q-21 26 -47 42t-57 16q-35 0 -66.5 -26t-55 -69.5t-37.5 -99.5t-14 -116q0 -45 15 -73.5t52 -28.5
q41 0 79 35.5t76 95.5l26 -18q-23 -36 -47.5 -67.5t-52 -55.5t-60 -37.5t-69.5 -13.5z" />
    <glyph glyph-name="c" unicode="&#x10d;" horiz-adv-x="433" 
d="M143 -13q-26 0 -49 8.5t-40 25.5t-27 42t-10 57q0 38 13.5 82.5t37.5 88.5t56.5 85t71 72.5t80 50.5t84.5 19q36 0 62.5 -16t26.5 -45q0 -22 -14 -38t-34 -16q-21 26 -47 42t-57 16q-35 0 -66.5 -26t-55 -69.5t-37.5 -99.5t-14 -116q0 -45 15 -73.5t52 -28.5
q41 0 79 35.5t76 95.5l26 -18q-23 -36 -47.5 -67.5t-52 -55.5t-60 -37.5t-69.5 -13.5z" />
    <glyph glyph-name="c" unicode="&#x10b;" horiz-adv-x="433" 
d="M143 -13q-26 0 -49 8.5t-40 25.5t-27 42t-10 57q0 38 13.5 82.5t37.5 88.5t56.5 85t71 72.5t80 50.5t84.5 19q36 0 62.5 -16t26.5 -45q0 -22 -14 -38t-34 -16q-21 26 -47 42t-57 16q-35 0 -66.5 -26t-55 -69.5t-37.5 -99.5t-14 -116q0 -45 15 -73.5t52 -28.5
q41 0 79 35.5t76 95.5l26 -18q-23 -36 -47.5 -67.5t-52 -55.5t-60 -37.5t-69.5 -13.5z" />
    <glyph glyph-name="c" unicode="&#x109;" horiz-adv-x="433" 
d="M143 -13q-26 0 -49 8.5t-40 25.5t-27 42t-10 57q0 38 13.5 82.5t37.5 88.5t56.5 85t71 72.5t80 50.5t84.5 19q36 0 62.5 -16t26.5 -45q0 -22 -14 -38t-34 -16q-21 26 -47 42t-57 16q-35 0 -66.5 -26t-55 -69.5t-37.5 -99.5t-14 -116q0 -45 15 -73.5t52 -28.5
q41 0 79 35.5t76 95.5l26 -18q-23 -36 -47.5 -67.5t-52 -55.5t-60 -37.5t-69.5 -13.5z" />
    <glyph glyph-name="c" unicode="&#x107;" horiz-adv-x="433" 
d="M143 -13q-26 0 -49 8.5t-40 25.5t-27 42t-10 57q0 38 13.5 82.5t37.5 88.5t56.5 85t71 72.5t80 50.5t84.5 19q36 0 62.5 -16t26.5 -45q0 -22 -14 -38t-34 -16q-21 26 -47 42t-57 16q-35 0 -66.5 -26t-55 -69.5t-37.5 -99.5t-14 -116q0 -45 15 -73.5t52 -28.5
q41 0 79 35.5t76 95.5l26 -18q-23 -36 -47.5 -67.5t-52 -55.5t-60 -37.5t-69.5 -13.5z" />
    <glyph glyph-name="c" unicode="&#xe7;" horiz-adv-x="433" 
d="M143 -13q-26 0 -49 8.5t-40 25.5t-27 42t-10 57q0 38 13.5 82.5t37.5 88.5t56.5 85t71 72.5t80 50.5t84.5 19q36 0 62.5 -16t26.5 -45q0 -22 -14 -38t-34 -16q-21 26 -47 42t-57 16q-35 0 -66.5 -26t-55 -69.5t-37.5 -99.5t-14 -116q0 -45 15 -73.5t52 -28.5
q41 0 79 35.5t76 95.5l26 -18q-23 -36 -47.5 -67.5t-52 -55.5t-60 -37.5t-69.5 -13.5z" />
    <glyph glyph-name="d" unicode="d" horiz-adv-x="584" 
d="M86 -13q-44 0 -65.5 27t-21.5 67t18 88t48.5 96.5t70.5 94t83 80.5t87 56.5t83 21.5q19 0 34 -4.5t25 -10.5l61 186q7 20 6 26t-14 12l-64 31l2 6l209 66l-240 -717q-10 -30 -13.5 -45.5t8.5 -15.5q11 0 28 12t37 31.5t41 45t39 53.5l27 -16q-61 -94 -120 -142.5
t-107 -48.5q-46 0 -49 28t18 86l33 90h-2q-81 -106 -146.5 -155t-115.5 -49zM140 48q20 0 55 23.5t72.5 64t72 93t54.5 111.5l20 60q7 23 5 38.5t-10 24.5t-19.5 12.5t-21.5 3.5q-27 0 -56.5 -16.5t-58 -44.5t-54.5 -65t-45.5 -78.5t-31 -84.5t-11.5 -82q0 -28 6.5 -44
t22.5 -16z" />
    <glyph glyph-name="d" unicode="&#x111;" horiz-adv-x="584" 
d="M86 -13q-44 0 -65.5 27t-21.5 67t18 88t48.5 96.5t70.5 94t83 80.5t87 56.5t83 21.5q19 0 34 -4.5t25 -10.5l61 186q7 20 6 26t-14 12l-64 31l2 6l209 66l-240 -717q-10 -30 -13.5 -45.5t8.5 -15.5q11 0 28 12t37 31.5t41 45t39 53.5l27 -16q-61 -94 -120 -142.5
t-107 -48.5q-46 0 -49 28t18 86l33 90h-2q-81 -106 -146.5 -155t-115.5 -49zM140 48q20 0 55 23.5t72.5 64t72 93t54.5 111.5l20 60q7 23 5 38.5t-10 24.5t-19.5 12.5t-21.5 3.5q-27 0 -56.5 -16.5t-58 -44.5t-54.5 -65t-45.5 -78.5t-31 -84.5t-11.5 -82q0 -28 6.5 -44
t22.5 -16z" />
    <glyph glyph-name="d" unicode="&#x10f;" horiz-adv-x="584" 
d="M86 -13q-44 0 -65.5 27t-21.5 67t18 88t48.5 96.5t70.5 94t83 80.5t87 56.5t83 21.5q19 0 34 -4.5t25 -10.5l61 186q7 20 6 26t-14 12l-64 31l2 6l209 66l-240 -717q-10 -30 -13.5 -45.5t8.5 -15.5q11 0 28 12t37 31.5t41 45t39 53.5l27 -16q-61 -94 -120 -142.5
t-107 -48.5q-46 0 -49 28t18 86l33 90h-2q-81 -106 -146.5 -155t-115.5 -49zM140 48q20 0 55 23.5t72.5 64t72 93t54.5 111.5l20 60q7 23 5 38.5t-10 24.5t-19.5 12.5t-21.5 3.5q-27 0 -56.5 -16.5t-58 -44.5t-54.5 -65t-45.5 -78.5t-31 -84.5t-11.5 -82q0 -28 6.5 -44
t22.5 -16z" />
    <glyph glyph-name="d" unicode="&#xf0;" horiz-adv-x="584" 
d="M86 -13q-44 0 -65.5 27t-21.5 67t18 88t48.5 96.5t70.5 94t83 80.5t87 56.5t83 21.5q19 0 34 -4.5t25 -10.5l61 186q7 20 6 26t-14 12l-64 31l2 6l209 66l-240 -717q-10 -30 -13.5 -45.5t8.5 -15.5q11 0 28 12t37 31.5t41 45t39 53.5l27 -16q-61 -94 -120 -142.5
t-107 -48.5q-46 0 -49 28t18 86l33 90h-2q-81 -106 -146.5 -155t-115.5 -49zM140 48q20 0 55 23.5t72.5 64t72 93t54.5 111.5l20 60q7 23 5 38.5t-10 24.5t-19.5 12.5t-21.5 3.5q-27 0 -56.5 -16.5t-58 -44.5t-54.5 -65t-45.5 -78.5t-31 -84.5t-11.5 -82q0 -28 6.5 -44
t22.5 -16z" />
    <glyph glyph-name="e" unicode="e" horiz-adv-x="442" 
d="M143 -13q-26 0 -49 8.5t-40 25.5t-27 42t-10 57q0 42 14.5 87.5t39.5 90t58.5 84.5t71 70t77 48t76.5 18q46 0 71 -21t25 -56q0 -44 -21.5 -73t-48.5 -48q-22 -6 -52 -14t-62.5 -15.5t-65.5 -15t-61 -13.5q-7 -26 -11 -54.5t-4 -57.5q0 -45 15 -73.5t52 -28.5
q41 0 79 35.5t76 95.5l26 -18q-23 -36 -47.5 -67.5t-52 -55.5t-60 -37.5t-69.5 -13.5zM330 483q-23 0 -48.5 -14.5t-50 -40t-46 -60.5t-36.5 -77q22 5 43 10.5t38 11.5q40 13 66.5 29t42.5 33.5t22 35t6 34.5t-9.5 27.5t-27.5 10.5z" />
    <glyph glyph-name="e" unicode="&#x11b;" horiz-adv-x="442" 
d="M143 -13q-26 0 -49 8.5t-40 25.5t-27 42t-10 57q0 42 14.5 87.5t39.5 90t58.5 84.5t71 70t77 48t76.5 18q46 0 71 -21t25 -56q0 -44 -21.5 -73t-48.5 -48q-22 -6 -52 -14t-62.5 -15.5t-65.5 -15t-61 -13.5q-7 -26 -11 -54.5t-4 -57.5q0 -45 15 -73.5t52 -28.5
q41 0 79 35.5t76 95.5l26 -18q-23 -36 -47.5 -67.5t-52 -55.5t-60 -37.5t-69.5 -13.5zM330 483q-23 0 -48.5 -14.5t-50 -40t-46 -60.5t-36.5 -77q22 5 43 10.5t38 11.5q40 13 66.5 29t42.5 33.5t22 35t6 34.5t-9.5 27.5t-27.5 10.5z" />
    <glyph glyph-name="e" unicode="&#x119;" horiz-adv-x="442" 
d="M143 -13q-26 0 -49 8.5t-40 25.5t-27 42t-10 57q0 42 14.5 87.5t39.5 90t58.5 84.5t71 70t77 48t76.5 18q46 0 71 -21t25 -56q0 -44 -21.5 -73t-48.5 -48q-22 -6 -52 -14t-62.5 -15.5t-65.5 -15t-61 -13.5q-7 -26 -11 -54.5t-4 -57.5q0 -45 15 -73.5t52 -28.5
q41 0 79 35.5t76 95.5l26 -18q-23 -36 -47.5 -67.5t-52 -55.5t-60 -37.5t-69.5 -13.5zM330 483q-23 0 -48.5 -14.5t-50 -40t-46 -60.5t-36.5 -77q22 5 43 10.5t38 11.5q40 13 66.5 29t42.5 33.5t22 35t6 34.5t-9.5 27.5t-27.5 10.5z" />
    <glyph glyph-name="e" unicode="&#x117;" horiz-adv-x="442" 
d="M143 -13q-26 0 -49 8.5t-40 25.5t-27 42t-10 57q0 42 14.5 87.5t39.5 90t58.5 84.5t71 70t77 48t76.5 18q46 0 71 -21t25 -56q0 -44 -21.5 -73t-48.5 -48q-22 -6 -52 -14t-62.5 -15.5t-65.5 -15t-61 -13.5q-7 -26 -11 -54.5t-4 -57.5q0 -45 15 -73.5t52 -28.5
q41 0 79 35.5t76 95.5l26 -18q-23 -36 -47.5 -67.5t-52 -55.5t-60 -37.5t-69.5 -13.5zM330 483q-23 0 -48.5 -14.5t-50 -40t-46 -60.5t-36.5 -77q22 5 43 10.5t38 11.5q40 13 66.5 29t42.5 33.5t22 35t6 34.5t-9.5 27.5t-27.5 10.5z" />
    <glyph glyph-name="e" unicode="&#x115;" horiz-adv-x="442" 
d="M143 -13q-26 0 -49 8.5t-40 25.5t-27 42t-10 57q0 42 14.5 87.5t39.5 90t58.5 84.5t71 70t77 48t76.5 18q46 0 71 -21t25 -56q0 -44 -21.5 -73t-48.5 -48q-22 -6 -52 -14t-62.5 -15.5t-65.5 -15t-61 -13.5q-7 -26 -11 -54.5t-4 -57.5q0 -45 15 -73.5t52 -28.5
q41 0 79 35.5t76 95.5l26 -18q-23 -36 -47.5 -67.5t-52 -55.5t-60 -37.5t-69.5 -13.5zM330 483q-23 0 -48.5 -14.5t-50 -40t-46 -60.5t-36.5 -77q22 5 43 10.5t38 11.5q40 13 66.5 29t42.5 33.5t22 35t6 34.5t-9.5 27.5t-27.5 10.5z" />
    <glyph glyph-name="e" unicode="&#x113;" horiz-adv-x="442" 
d="M143 -13q-26 0 -49 8.5t-40 25.5t-27 42t-10 57q0 42 14.5 87.5t39.5 90t58.5 84.5t71 70t77 48t76.5 18q46 0 71 -21t25 -56q0 -44 -21.5 -73t-48.5 -48q-22 -6 -52 -14t-62.5 -15.5t-65.5 -15t-61 -13.5q-7 -26 -11 -54.5t-4 -57.5q0 -45 15 -73.5t52 -28.5
q41 0 79 35.5t76 95.5l26 -18q-23 -36 -47.5 -67.5t-52 -55.5t-60 -37.5t-69.5 -13.5zM330 483q-23 0 -48.5 -14.5t-50 -40t-46 -60.5t-36.5 -77q22 5 43 10.5t38 11.5q40 13 66.5 29t42.5 33.5t22 35t6 34.5t-9.5 27.5t-27.5 10.5z" />
    <glyph glyph-name="e" unicode="&#xeb;" horiz-adv-x="442" 
d="M143 -13q-26 0 -49 8.5t-40 25.5t-27 42t-10 57q0 42 14.5 87.5t39.5 90t58.5 84.5t71 70t77 48t76.5 18q46 0 71 -21t25 -56q0 -44 -21.5 -73t-48.5 -48q-22 -6 -52 -14t-62.5 -15.5t-65.5 -15t-61 -13.5q-7 -26 -11 -54.5t-4 -57.5q0 -45 15 -73.5t52 -28.5
q41 0 79 35.5t76 95.5l26 -18q-23 -36 -47.5 -67.5t-52 -55.5t-60 -37.5t-69.5 -13.5zM330 483q-23 0 -48.5 -14.5t-50 -40t-46 -60.5t-36.5 -77q22 5 43 10.5t38 11.5q40 13 66.5 29t42.5 33.5t22 35t6 34.5t-9.5 27.5t-27.5 10.5z" />
    <glyph glyph-name="e" unicode="&#xea;" horiz-adv-x="442" 
d="M143 -13q-26 0 -49 8.5t-40 25.5t-27 42t-10 57q0 42 14.5 87.5t39.5 90t58.5 84.5t71 70t77 48t76.5 18q46 0 71 -21t25 -56q0 -44 -21.5 -73t-48.5 -48q-22 -6 -52 -14t-62.5 -15.5t-65.5 -15t-61 -13.5q-7 -26 -11 -54.5t-4 -57.5q0 -45 15 -73.5t52 -28.5
q41 0 79 35.5t76 95.5l26 -18q-23 -36 -47.5 -67.5t-52 -55.5t-60 -37.5t-69.5 -13.5zM330 483q-23 0 -48.5 -14.5t-50 -40t-46 -60.5t-36.5 -77q22 5 43 10.5t38 11.5q40 13 66.5 29t42.5 33.5t22 35t6 34.5t-9.5 27.5t-27.5 10.5z" />
    <glyph glyph-name="e" unicode="&#xe9;" horiz-adv-x="442" 
d="M143 -13q-26 0 -49 8.5t-40 25.5t-27 42t-10 57q0 42 14.5 87.5t39.5 90t58.5 84.5t71 70t77 48t76.5 18q46 0 71 -21t25 -56q0 -44 -21.5 -73t-48.5 -48q-22 -6 -52 -14t-62.5 -15.5t-65.5 -15t-61 -13.5q-7 -26 -11 -54.5t-4 -57.5q0 -45 15 -73.5t52 -28.5
q41 0 79 35.5t76 95.5l26 -18q-23 -36 -47.5 -67.5t-52 -55.5t-60 -37.5t-69.5 -13.5zM330 483q-23 0 -48.5 -14.5t-50 -40t-46 -60.5t-36.5 -77q22 5 43 10.5t38 11.5q40 13 66.5 29t42.5 33.5t22 35t6 34.5t-9.5 27.5t-27.5 10.5z" />
    <glyph glyph-name="e" unicode="&#xe8;" horiz-adv-x="442" 
d="M143 -13q-26 0 -49 8.5t-40 25.5t-27 42t-10 57q0 42 14.5 87.5t39.5 90t58.5 84.5t71 70t77 48t76.5 18q46 0 71 -21t25 -56q0 -44 -21.5 -73t-48.5 -48q-22 -6 -52 -14t-62.5 -15.5t-65.5 -15t-61 -13.5q-7 -26 -11 -54.5t-4 -57.5q0 -45 15 -73.5t52 -28.5
q41 0 79 35.5t76 95.5l26 -18q-23 -36 -47.5 -67.5t-52 -55.5t-60 -37.5t-69.5 -13.5zM330 483q-23 0 -48.5 -14.5t-50 -40t-46 -60.5t-36.5 -77q22 5 43 10.5t38 11.5q40 13 66.5 29t42.5 33.5t22 35t6 34.5t-9.5 27.5t-27.5 10.5z" />
    <glyph glyph-name="f" unicode="f" horiz-adv-x="333" 
d="M60 450l5 23l105 31q28 83 61.5 142t80.5 99q18 15 39 28t43 22.5t42 14.5t36 5q17 0 28.5 -10t11.5 -26q0 -20 -12.5 -38t-33.5 -21q-19 8 -48 14.5t-52 6.5q-29 0 -47.5 -27.5t-33.5 -97.5l-25 -114h144l-12 -52h-144l-88 -389q-21 -93 -50 -156t-63.5 -101.5
t-73 -54.5t-77.5 -16q-15 0 -30.5 5t-27.5 14t-19.5 20.5t-7.5 24.5q0 20 12.5 35t32.5 13q10 -7 23.5 -17.5t28 -20.5t29 -17t26.5 -7q6 0 14 4t15 14q6 8 13 22t16 38t19.5 62t22.5 94l95 433h-98z" />
    <glyph glyph-name="g" unicode="g" horiz-adv-x="481" 
d="M196 158q-14 0 -27 2t-24 5l-27 -32q-11 -13 -10.5 -18t11.5 -12l165 -99q53 -32 77.5 -58.5t24.5 -56.5q0 -37 -18 -66t-52 -49t-81.5 -30.5t-105.5 -10.5q-51 0 -94 8.5t-74 25t-48.5 40t-17.5 53.5q0 25 15 46t40.5 40t58.5 35.5t70 31.5q-23 14 -40 30t-17 35
q0 16 11 28t37 28l61 37q-32 15 -49 43.5t-17 66.5q0 39 21.5 81t57 76.5t81.5 57t94 22.5q32 0 56 -9t41 -26v1l161 62l-29 -71q-5 -11 -11.5 -16t-22.5 -3l-86 14q22 -31 22 -75q0 -39 -21.5 -81t-57 -76.5t-81.5 -57t-94 -22.5zM227 189q27 0 50 19t39 49t25 67t9 73
q0 35 -14 61.5t-48 26.5q-27 0 -50 -19t-39 -49t-25 -67t-9 -73q0 -35 14 -61.5t48 -26.5zM-27 -124q0 -22 11 -41.5t34.5 -34.5t59.5 -23.5t86 -8.5q26 0 52.5 5t48.5 14t35.5 23t13.5 32q0 23 -21 42t-67 45l-124 71q-38 -15 -63 -30t-39.5 -31t-20.5 -31.5t-6 -31.5z" />
    <glyph glyph-name="g" unicode="&#x123;" horiz-adv-x="481" 
d="M196 158q-14 0 -27 2t-24 5l-27 -32q-11 -13 -10.5 -18t11.5 -12l165 -99q53 -32 77.5 -58.5t24.5 -56.5q0 -37 -18 -66t-52 -49t-81.5 -30.5t-105.5 -10.5q-51 0 -94 8.5t-74 25t-48.5 40t-17.5 53.5q0 25 15 46t40.5 40t58.5 35.5t70 31.5q-23 14 -40 30t-17 35
q0 16 11 28t37 28l61 37q-32 15 -49 43.5t-17 66.5q0 39 21.5 81t57 76.5t81.5 57t94 22.5q32 0 56 -9t41 -26v1l161 62l-29 -71q-5 -11 -11.5 -16t-22.5 -3l-86 14q22 -31 22 -75q0 -39 -21.5 -81t-57 -76.5t-81.5 -57t-94 -22.5zM227 189q27 0 50 19t39 49t25 67t9 73
q0 35 -14 61.5t-48 26.5q-27 0 -50 -19t-39 -49t-25 -67t-9 -73q0 -35 14 -61.5t48 -26.5zM-27 -124q0 -22 11 -41.5t34.5 -34.5t59.5 -23.5t86 -8.5q26 0 52.5 5t48.5 14t35.5 23t13.5 32q0 23 -21 42t-67 45l-124 71q-38 -15 -63 -30t-39.5 -31t-20.5 -31.5t-6 -31.5z" />
    <glyph glyph-name="g" unicode="&#x121;" horiz-adv-x="481" 
d="M196 158q-14 0 -27 2t-24 5l-27 -32q-11 -13 -10.5 -18t11.5 -12l165 -99q53 -32 77.5 -58.5t24.5 -56.5q0 -37 -18 -66t-52 -49t-81.5 -30.5t-105.5 -10.5q-51 0 -94 8.5t-74 25t-48.5 40t-17.5 53.5q0 25 15 46t40.5 40t58.5 35.5t70 31.5q-23 14 -40 30t-17 35
q0 16 11 28t37 28l61 37q-32 15 -49 43.5t-17 66.5q0 39 21.5 81t57 76.5t81.5 57t94 22.5q32 0 56 -9t41 -26v1l161 62l-29 -71q-5 -11 -11.5 -16t-22.5 -3l-86 14q22 -31 22 -75q0 -39 -21.5 -81t-57 -76.5t-81.5 -57t-94 -22.5zM227 189q27 0 50 19t39 49t25 67t9 73
q0 35 -14 61.5t-48 26.5q-27 0 -50 -19t-39 -49t-25 -67t-9 -73q0 -35 14 -61.5t48 -26.5zM-27 -124q0 -22 11 -41.5t34.5 -34.5t59.5 -23.5t86 -8.5q26 0 52.5 5t48.5 14t35.5 23t13.5 32q0 23 -21 42t-67 45l-124 71q-38 -15 -63 -30t-39.5 -31t-20.5 -31.5t-6 -31.5z" />
    <glyph glyph-name="g" unicode="&#x11f;" horiz-adv-x="481" 
d="M196 158q-14 0 -27 2t-24 5l-27 -32q-11 -13 -10.5 -18t11.5 -12l165 -99q53 -32 77.5 -58.5t24.5 -56.5q0 -37 -18 -66t-52 -49t-81.5 -30.5t-105.5 -10.5q-51 0 -94 8.5t-74 25t-48.5 40t-17.5 53.5q0 25 15 46t40.5 40t58.5 35.5t70 31.5q-23 14 -40 30t-17 35
q0 16 11 28t37 28l61 37q-32 15 -49 43.5t-17 66.5q0 39 21.5 81t57 76.5t81.5 57t94 22.5q32 0 56 -9t41 -26v1l161 62l-29 -71q-5 -11 -11.5 -16t-22.5 -3l-86 14q22 -31 22 -75q0 -39 -21.5 -81t-57 -76.5t-81.5 -57t-94 -22.5zM227 189q27 0 50 19t39 49t25 67t9 73
q0 35 -14 61.5t-48 26.5q-27 0 -50 -19t-39 -49t-25 -67t-9 -73q0 -35 14 -61.5t48 -26.5zM-27 -124q0 -22 11 -41.5t34.5 -34.5t59.5 -23.5t86 -8.5q26 0 52.5 5t48.5 14t35.5 23t13.5 32q0 23 -21 42t-67 45l-124 71q-38 -15 -63 -30t-39.5 -31t-20.5 -31.5t-6 -31.5z" />
    <glyph glyph-name="g" unicode="&#x11d;" horiz-adv-x="481" 
d="M196 158q-14 0 -27 2t-24 5l-27 -32q-11 -13 -10.5 -18t11.5 -12l165 -99q53 -32 77.5 -58.5t24.5 -56.5q0 -37 -18 -66t-52 -49t-81.5 -30.5t-105.5 -10.5q-51 0 -94 8.5t-74 25t-48.5 40t-17.5 53.5q0 25 15 46t40.5 40t58.5 35.5t70 31.5q-23 14 -40 30t-17 35
q0 16 11 28t37 28l61 37q-32 15 -49 43.5t-17 66.5q0 39 21.5 81t57 76.5t81.5 57t94 22.5q32 0 56 -9t41 -26v1l161 62l-29 -71q-5 -11 -11.5 -16t-22.5 -3l-86 14q22 -31 22 -75q0 -39 -21.5 -81t-57 -76.5t-81.5 -57t-94 -22.5zM227 189q27 0 50 19t39 49t25 67t9 73
q0 35 -14 61.5t-48 26.5q-27 0 -50 -19t-39 -49t-25 -67t-9 -73q0 -35 14 -61.5t48 -26.5zM-27 -124q0 -22 11 -41.5t34.5 -34.5t59.5 -23.5t86 -8.5q26 0 52.5 5t48.5 14t35.5 23t13.5 32q0 23 -21 42t-67 45l-124 71q-38 -15 -63 -30t-39.5 -31t-20.5 -31.5t-6 -31.5z" />
    <glyph glyph-name="h" unicode="h" horiz-adv-x="593" 
d="M240 689q7 20 6 26t-14 12l-64 31l2 6l209 66l-140 -405l-33 -96h1q83 97 144 143t120 46q55 0 61 -44.5t-26 -124.5l-96 -236q-12 -29 -14.5 -45t9.5 -16q11 0 28 12t37 31.5t41 45t39 53.5l27 -16q-61 -94 -120 -142.5t-107 -48.5q-46 0 -54.5 27t14.5 85l96 236
q25 62 26 91t-25 29q-22 0 -58 -24t-75 -65.5t-75 -97.5t-58 -120l-43 -140l-102 -19z" />
    <glyph glyph-name="h" unicode="&#x127;" horiz-adv-x="593" 
d="M240 689q7 20 6 26t-14 12l-64 31l2 6l209 66l-140 -405l-33 -96h1q83 97 144 143t120 46q55 0 61 -44.5t-26 -124.5l-96 -236q-12 -29 -14.5 -45t9.5 -16q11 0 28 12t37 31.5t41 45t39 53.5l27 -16q-61 -94 -120 -142.5t-107 -48.5q-46 0 -54.5 27t14.5 85l96 236
q25 62 26 91t-25 29q-22 0 -58 -24t-75 -65.5t-75 -97.5t-58 -120l-43 -140l-102 -19z" />
    <glyph glyph-name="h" unicode="&#x125;" horiz-adv-x="593" 
d="M240 689q7 20 6 26t-14 12l-64 31l2 6l209 66l-140 -405l-33 -96h1q83 97 144 143t120 46q55 0 61 -44.5t-26 -124.5l-96 -236q-12 -29 -14.5 -45t9.5 -16q11 0 28 12t37 31.5t41 45t39 53.5l27 -16q-61 -94 -120 -142.5t-107 -48.5q-46 0 -54.5 27t14.5 85l96 236
q25 62 26 91t-25 29q-22 0 -58 -24t-75 -65.5t-75 -97.5t-58 -120l-43 -140l-102 -19z" />
    <glyph glyph-name="i" unicode="i" horiz-adv-x="337" 
d="M92 -13q-46 0 -54 27.5t15 84.5l124 310q7 17 2 20.5t-31 -0.5l-63 -9l-3 27l221 68l6 -6l-157 -396q-11 -29 -14 -45t9 -16q11 0 28 12t37 31.5t41 45t39 53.5l27 -16q-61 -94 -120 -142.5t-107 -48.5zM325 653q-29 0 -48.5 20t-19.5 49t19.5 48.5t48.5 19.5t49 -19.5
t20 -48.5t-20 -49t-49 -20z" />
    <glyph glyph-name="i" unicode="&#x1ecb;" horiz-adv-x="337" 
d="M92 -13q-46 0 -54 27.5t15 84.5l124 310q7 17 2 20.5t-31 -0.5l-63 -9l-3 27l221 68l6 -6l-157 -396q-11 -29 -14 -45t9 -16q11 0 28 12t37 31.5t41 45t39 53.5l27 -16q-61 -94 -120 -142.5t-107 -48.5zM325 653q-29 0 -48.5 20t-19.5 49t19.5 48.5t48.5 19.5t49 -19.5
t20 -48.5t-20 -49t-49 -20z" />
    <glyph glyph-name="i" unicode="&#x131;" horiz-adv-x="337" 
d="M92 -13q-46 0 -54 27.5t15 84.5l124 310q7 17 2 20.5t-31 -0.5l-63 -9l-3 27l221 68l6 -6l-157 -396q-11 -29 -14 -45t9 -16q11 0 28 12t37 31.5t41 45t39 53.5l27 -16q-61 -94 -120 -142.5t-107 -48.5zM325 653q-29 0 -48.5 20t-19.5 49t19.5 48.5t48.5 19.5t49 -19.5
t20 -48.5t-20 -49t-49 -20z" />
    <glyph glyph-name="i" unicode="&#x12f;" horiz-adv-x="337" 
d="M92 -13q-46 0 -54 27.5t15 84.5l124 310q7 17 2 20.5t-31 -0.5l-63 -9l-3 27l221 68l6 -6l-157 -396q-11 -29 -14 -45t9 -16q11 0 28 12t37 31.5t41 45t39 53.5l27 -16q-61 -94 -120 -142.5t-107 -48.5zM325 653q-29 0 -48.5 20t-19.5 49t19.5 48.5t48.5 19.5t49 -19.5
t20 -48.5t-20 -49t-49 -20z" />
    <glyph glyph-name="i" unicode="&#x12d;" horiz-adv-x="337" 
d="M92 -13q-46 0 -54 27.5t15 84.5l124 310q7 17 2 20.5t-31 -0.5l-63 -9l-3 27l221 68l6 -6l-157 -396q-11 -29 -14 -45t9 -16q11 0 28 12t37 31.5t41 45t39 53.5l27 -16q-61 -94 -120 -142.5t-107 -48.5zM325 653q-29 0 -48.5 20t-19.5 49t19.5 48.5t48.5 19.5t49 -19.5
t20 -48.5t-20 -49t-49 -20z" />
    <glyph glyph-name="i" unicode="&#x12b;" horiz-adv-x="337" 
d="M92 -13q-46 0 -54 27.5t15 84.5l124 310q7 17 2 20.5t-31 -0.5l-63 -9l-3 27l221 68l6 -6l-157 -396q-11 -29 -14 -45t9 -16q11 0 28 12t37 31.5t41 45t39 53.5l27 -16q-61 -94 -120 -142.5t-107 -48.5zM325 653q-29 0 -48.5 20t-19.5 49t19.5 48.5t48.5 19.5t49 -19.5
t20 -48.5t-20 -49t-49 -20z" />
    <glyph glyph-name="i" unicode="&#x129;" horiz-adv-x="337" 
d="M92 -13q-46 0 -54 27.5t15 84.5l124 310q7 17 2 20.5t-31 -0.5l-63 -9l-3 27l221 68l6 -6l-157 -396q-11 -29 -14 -45t9 -16q11 0 28 12t37 31.5t41 45t39 53.5l27 -16q-61 -94 -120 -142.5t-107 -48.5zM325 653q-29 0 -48.5 20t-19.5 49t19.5 48.5t48.5 19.5t49 -19.5
t20 -48.5t-20 -49t-49 -20z" />
    <glyph glyph-name="i" unicode="&#xef;" horiz-adv-x="337" 
d="M92 -13q-46 0 -54 27.5t15 84.5l124 310q7 17 2 20.5t-31 -0.5l-63 -9l-3 27l221 68l6 -6l-157 -396q-11 -29 -14 -45t9 -16q11 0 28 12t37 31.5t41 45t39 53.5l27 -16q-61 -94 -120 -142.5t-107 -48.5zM325 653q-29 0 -48.5 20t-19.5 49t19.5 48.5t48.5 19.5t49 -19.5
t20 -48.5t-20 -49t-49 -20z" />
    <glyph glyph-name="i" unicode="&#xee;" horiz-adv-x="337" 
d="M92 -13q-46 0 -54 27.5t15 84.5l124 310q7 17 2 20.5t-31 -0.5l-63 -9l-3 27l221 68l6 -6l-157 -396q-11 -29 -14 -45t9 -16q11 0 28 12t37 31.5t41 45t39 53.5l27 -16q-61 -94 -120 -142.5t-107 -48.5zM325 653q-29 0 -48.5 20t-19.5 49t19.5 48.5t48.5 19.5t49 -19.5
t20 -48.5t-20 -49t-49 -20z" />
    <glyph glyph-name="i" unicode="&#xed;" horiz-adv-x="337" 
d="M92 -13q-46 0 -54 27.5t15 84.5l124 310q7 17 2 20.5t-31 -0.5l-63 -9l-3 27l221 68l6 -6l-157 -396q-11 -29 -14 -45t9 -16q11 0 28 12t37 31.5t41 45t39 53.5l27 -16q-61 -94 -120 -142.5t-107 -48.5zM325 653q-29 0 -48.5 20t-19.5 49t19.5 48.5t48.5 19.5t49 -19.5
t20 -48.5t-20 -49t-49 -20z" />
    <glyph glyph-name="i" unicode="&#xec;" horiz-adv-x="337" 
d="M92 -13q-46 0 -54 27.5t15 84.5l124 310q7 17 2 20.5t-31 -0.5l-63 -9l-3 27l221 68l6 -6l-157 -396q-11 -29 -14 -45t9 -16q11 0 28 12t37 31.5t41 45t39 53.5l27 -16q-61 -94 -120 -142.5t-107 -48.5zM325 653q-29 0 -48.5 20t-19.5 49t19.5 48.5t48.5 19.5t49 -19.5
t20 -48.5t-20 -49t-49 -20z" />
    <glyph glyph-name="j" unicode="j" horiz-adv-x="291" 
d="M130 45q-13 -36 -24.5 -65t-24.5 -52.5t-30 -43t-42 -36.5q-17 -12 -39 -26t-47 -29.5t-51 -31t-50 -28.5l-13 24q43 31 75.5 55.5t58 53t46.5 66t42 93.5l143 387q6 17 1.5 20.5t-30.5 -0.5l-63 -9l-3 27l215 68l6 -6zM308 653q-29 0 -48.5 20t-19.5 49t19.5 48.5
t48.5 19.5t49 -19.5t20 -48.5t-20 -49t-49 -20z" />
    <glyph glyph-name="j" unicode="&#x237;" horiz-adv-x="291" 
d="M130 45q-13 -36 -24.5 -65t-24.5 -52.5t-30 -43t-42 -36.5q-17 -12 -39 -26t-47 -29.5t-51 -31t-50 -28.5l-13 24q43 31 75.5 55.5t58 53t46.5 66t42 93.5l143 387q6 17 1.5 20.5t-30.5 -0.5l-63 -9l-3 27l215 68l6 -6zM308 653q-29 0 -48.5 20t-19.5 49t19.5 48.5
t48.5 19.5t49 -19.5t20 -48.5t-20 -49t-49 -20z" />
    <glyph glyph-name="j" unicode="&#x135;" horiz-adv-x="291" 
d="M130 45q-13 -36 -24.5 -65t-24.5 -52.5t-30 -43t-42 -36.5q-17 -12 -39 -26t-47 -29.5t-51 -31t-50 -28.5l-13 24q43 31 75.5 55.5t58 53t46.5 66t42 93.5l143 387q6 17 1.5 20.5t-30.5 -0.5l-63 -9l-3 27l215 68l6 -6zM308 653q-29 0 -48.5 20t-19.5 49t19.5 48.5
t48.5 19.5t49 -19.5t20 -48.5t-20 -49t-49 -20z" />
    <glyph glyph-name="k" unicode="k" horiz-adv-x="588" 
d="M132 122l-34 -114l-102 -19l244 700q7 20 6 26t-14 12l-64 31l2 6l209 66zM378 -27q-23 0 -38 11t-31 40l-126 232l170 107q25 16 39.5 31.5t20.5 31.5t6.5 33.5t-0.5 37.5q3 9 17.5 15t29.5 6q20 0 36 -13t16 -33q0 -11 -3.5 -22t-18 -25.5t-42 -34.5t-75.5 -50
l-107 -66l127 -215q5 -9 11.5 -15.5t14.5 -6.5q9 0 22 10t28.5 27.5t32.5 41.5t34 51l27 -17q-30 -47 -54.5 -80t-47 -55t-44 -32t-45.5 -10z" />
    <glyph glyph-name="k" unicode="&#x137;" horiz-adv-x="588" 
d="M132 122l-34 -114l-102 -19l244 700q7 20 6 26t-14 12l-64 31l2 6l209 66zM378 -27q-23 0 -38 11t-31 40l-126 232l170 107q25 16 39.5 31.5t20.5 31.5t6.5 33.5t-0.5 37.5q3 9 17.5 15t29.5 6q20 0 36 -13t16 -33q0 -11 -3.5 -22t-18 -25.5t-42 -34.5t-75.5 -50
l-107 -66l127 -215q5 -9 11.5 -15.5t14.5 -6.5q9 0 22 10t28.5 27.5t32.5 41.5t34 51l27 -17q-30 -47 -54.5 -80t-47 -55t-44 -32t-45.5 -10z" />
    <glyph glyph-name="l" unicode="l" horiz-adv-x="312" 
d="M243 689q7 20 6 26t-14 12l-64 31l2 6l209 66l-250 -717q-11 -30 -14 -45.5t9 -15.5q11 0 28 12t37 31.5t41 45t39 53.5l27 -16q-61 -94 -120 -142.5t-107 -48.5q-46 0 -50 28t16 86z" />
    <glyph glyph-name="l" unicode="&#x142;" horiz-adv-x="312" 
d="M243 689q7 20 6 26t-14 12l-64 31l2 6l209 66l-250 -717q-11 -30 -14 -45.5t9 -15.5q11 0 28 12t37 31.5t41 45t39 53.5l27 -16q-61 -94 -120 -142.5t-107 -48.5q-46 0 -50 28t16 86z" />
    <glyph glyph-name="l" unicode="&#x140;" horiz-adv-x="312" 
d="M243 689q7 20 6 26t-14 12l-64 31l2 6l209 66l-250 -717q-11 -30 -14 -45.5t9 -15.5q11 0 28 12t37 31.5t41 45t39 53.5l27 -16q-61 -94 -120 -142.5t-107 -48.5q-46 0 -50 28t16 86z" />
    <glyph glyph-name="l" unicode="&#x13e;" horiz-adv-x="312" 
d="M243 689q7 20 6 26t-14 12l-64 31l2 6l209 66l-250 -717q-11 -30 -14 -45.5t9 -15.5q11 0 28 12t37 31.5t41 45t39 53.5l27 -16q-61 -94 -120 -142.5t-107 -48.5q-46 0 -50 28t16 86z" />
    <glyph glyph-name="l" unicode="&#x13c;" horiz-adv-x="312" 
d="M243 689q7 20 6 26t-14 12l-64 31l2 6l209 66l-250 -717q-11 -30 -14 -45.5t9 -15.5q11 0 28 12t37 31.5t41 45t39 53.5l27 -16q-61 -94 -120 -142.5t-107 -48.5q-46 0 -50 28t16 86z" />
    <glyph glyph-name="l" unicode="&#x13a;" horiz-adv-x="312" 
d="M243 689q7 20 6 26t-14 12l-64 31l2 6l209 66l-250 -717q-11 -30 -14 -45.5t9 -15.5q11 0 28 12t37 31.5t41 45t39 53.5l27 -16q-61 -94 -120 -142.5t-107 -48.5q-46 0 -50 28t16 86z" />
    <glyph glyph-name="m" unicode="m" horiz-adv-x="904" 
d="M176 409q7 17 2 20.5t-31 -0.5l-63 -9l-3 27l221 68l6 -6l-71 -174h1q78 91 139.5 137t119.5 46q55 0 61 -46t-36 -137h1q78 91 139.5 137t119.5 46q55 0 61 -44.5t-26 -124.5l-96 -236q-12 -29 -14.5 -45t9.5 -16q11 0 28 12t37 31.5t41 45t39 53.5l27 -16
q-61 -94 -120 -142.5t-107 -48.5q-46 0 -54.5 27t14.5 85l96 236q25 62 26 91t-25 29q-22 0 -58 -24t-75 -65.5t-75 -97.5t-58 -120l-48 -139l-106 -20l134 346q24 62 25.5 91t-24.5 29q-22 0 -58 -24t-75 -65.5t-75 -97.5t-58 -120l-48 -139l-106 -20z" />
    <glyph glyph-name="n" unicode="n" horiz-adv-x="619" 
d="M176 409q7 17 2 20.5t-31 -0.5l-63 -9l-3 27l221 68l6 -6l-71 -174h1q78 91 139.5 137t119.5 46q55 0 61 -44.5t-26 -124.5l-96 -236q-12 -29 -14.5 -45t9.5 -16q11 0 28 12t37 31.5t41 45t39 53.5l27 -16q-61 -94 -120 -142.5t-107 -48.5q-46 0 -54.5 27t14.5 85l96 236
q25 62 26 91t-25 29q-22 0 -58 -24t-75 -65.5t-75 -97.5t-58 -120l-48 -139l-106 -20z" />
    <glyph glyph-name="n" unicode="&#x14b;" horiz-adv-x="619" 
d="M176 409q7 17 2 20.5t-31 -0.5l-63 -9l-3 27l221 68l6 -6l-71 -174h1q78 91 139.5 137t119.5 46q55 0 61 -44.5t-26 -124.5l-96 -236q-12 -29 -14.5 -45t9.5 -16q11 0 28 12t37 31.5t41 45t39 53.5l27 -16q-61 -94 -120 -142.5t-107 -48.5q-46 0 -54.5 27t14.5 85l96 236
q25 62 26 91t-25 29q-22 0 -58 -24t-75 -65.5t-75 -97.5t-58 -120l-48 -139l-106 -20z" />
    <glyph glyph-name="n" unicode="&#x148;" horiz-adv-x="619" 
d="M176 409q7 17 2 20.5t-31 -0.5l-63 -9l-3 27l221 68l6 -6l-71 -174h1q78 91 139.5 137t119.5 46q55 0 61 -44.5t-26 -124.5l-96 -236q-12 -29 -14.5 -45t9.5 -16q11 0 28 12t37 31.5t41 45t39 53.5l27 -16q-61 -94 -120 -142.5t-107 -48.5q-46 0 -54.5 27t14.5 85l96 236
q25 62 26 91t-25 29q-22 0 -58 -24t-75 -65.5t-75 -97.5t-58 -120l-48 -139l-106 -20z" />
    <glyph glyph-name="n" unicode="&#x146;" horiz-adv-x="619" 
d="M176 409q7 17 2 20.5t-31 -0.5l-63 -9l-3 27l221 68l6 -6l-71 -174h1q78 91 139.5 137t119.5 46q55 0 61 -44.5t-26 -124.5l-96 -236q-12 -29 -14.5 -45t9.5 -16q11 0 28 12t37 31.5t41 45t39 53.5l27 -16q-61 -94 -120 -142.5t-107 -48.5q-46 0 -54.5 27t14.5 85l96 236
q25 62 26 91t-25 29q-22 0 -58 -24t-75 -65.5t-75 -97.5t-58 -120l-48 -139l-106 -20z" />
    <glyph glyph-name="n" unicode="&#x144;" horiz-adv-x="619" 
d="M176 409q7 17 2 20.5t-31 -0.5l-63 -9l-3 27l221 68l6 -6l-71 -174h1q78 91 139.5 137t119.5 46q55 0 61 -44.5t-26 -124.5l-96 -236q-12 -29 -14.5 -45t9.5 -16q11 0 28 12t37 31.5t41 45t39 53.5l27 -16q-61 -94 -120 -142.5t-107 -48.5q-46 0 -54.5 27t14.5 85l96 236
q25 62 26 91t-25 29q-22 0 -58 -24t-75 -65.5t-75 -97.5t-58 -120l-48 -139l-106 -20z" />
    <glyph glyph-name="n" unicode="&#xf1;" horiz-adv-x="619" 
d="M176 409q7 17 2 20.5t-31 -0.5l-63 -9l-3 27l221 68l6 -6l-71 -174h1q78 91 139.5 137t119.5 46q55 0 61 -44.5t-26 -124.5l-96 -236q-12 -29 -14.5 -45t9.5 -16q11 0 28 12t37 31.5t41 45t39 53.5l27 -16q-61 -94 -120 -142.5t-107 -48.5q-46 0 -54.5 27t14.5 85l96 236
q25 62 26 91t-25 29q-22 0 -58 -24t-75 -65.5t-75 -97.5t-58 -120l-48 -139l-106 -20z" />
    <glyph glyph-name="o" unicode="o" horiz-adv-x="530" 
d="M173 -13q-42 0 -70.5 14t-46.5 36t-25.5 48.5t-7.5 52.5q0 46 15 91.5t40.5 88t59.5 79t71.5 63.5t76 42.5t74.5 15.5q42 0 70.5 -14t46.5 -36t25.5 -49t7.5 -52q0 -45 -15 -91t-40.5 -88.5t-59.5 -79t-71.5 -63.5t-76 -42.5t-74.5 -15.5zM196 27q33 0 61 18.5t51 49
t41 68.5t30.5 77t19 74.5t6.5 61.5q0 54 -17 78t-51 24q-32 0 -60.5 -18.5t-51.5 -49t-41 -68.5t-30.5 -77t-19 -74.5t-6.5 -61.5q0 -54 17 -78t51 -24z" />
    <glyph glyph-name="o" unicode="&#x1ecd;" horiz-adv-x="530" 
d="M173 -13q-42 0 -70.5 14t-46.5 36t-25.5 48.5t-7.5 52.5q0 46 15 91.5t40.5 88t59.5 79t71.5 63.5t76 42.5t74.5 15.5q42 0 70.5 -14t46.5 -36t25.5 -49t7.5 -52q0 -45 -15 -91t-40.5 -88.5t-59.5 -79t-71.5 -63.5t-76 -42.5t-74.5 -15.5zM196 27q33 0 61 18.5t51 49
t41 68.5t30.5 77t19 74.5t6.5 61.5q0 54 -17 78t-51 24q-32 0 -60.5 -18.5t-51.5 -49t-41 -68.5t-30.5 -77t-19 -74.5t-6.5 -61.5q0 -54 17 -78t51 -24z" />
    <glyph glyph-name="o" unicode="&#x153;" horiz-adv-x="530" 
d="M173 -13q-42 0 -70.5 14t-46.5 36t-25.5 48.5t-7.5 52.5q0 46 15 91.5t40.5 88t59.5 79t71.5 63.5t76 42.5t74.5 15.5q42 0 70.5 -14t46.5 -36t25.5 -49t7.5 -52q0 -45 -15 -91t-40.5 -88.5t-59.5 -79t-71.5 -63.5t-76 -42.5t-74.5 -15.5zM196 27q33 0 61 18.5t51 49
t41 68.5t30.5 77t19 74.5t6.5 61.5q0 54 -17 78t-51 24q-32 0 -60.5 -18.5t-51.5 -49t-41 -68.5t-30.5 -77t-19 -74.5t-6.5 -61.5q0 -54 17 -78t51 -24z" />
    <glyph glyph-name="o" unicode="&#x151;" horiz-adv-x="530" 
d="M173 -13q-42 0 -70.5 14t-46.5 36t-25.5 48.5t-7.5 52.5q0 46 15 91.5t40.5 88t59.5 79t71.5 63.5t76 42.5t74.5 15.5q42 0 70.5 -14t46.5 -36t25.5 -49t7.5 -52q0 -45 -15 -91t-40.5 -88.5t-59.5 -79t-71.5 -63.5t-76 -42.5t-74.5 -15.5zM196 27q33 0 61 18.5t51 49
t41 68.5t30.5 77t19 74.5t6.5 61.5q0 54 -17 78t-51 24q-32 0 -60.5 -18.5t-51.5 -49t-41 -68.5t-30.5 -77t-19 -74.5t-6.5 -61.5q0 -54 17 -78t51 -24z" />
    <glyph glyph-name="o" unicode="&#x14f;" horiz-adv-x="530" 
d="M173 -13q-42 0 -70.5 14t-46.5 36t-25.5 48.5t-7.5 52.5q0 46 15 91.5t40.5 88t59.5 79t71.5 63.5t76 42.5t74.5 15.5q42 0 70.5 -14t46.5 -36t25.5 -49t7.5 -52q0 -45 -15 -91t-40.5 -88.5t-59.5 -79t-71.5 -63.5t-76 -42.5t-74.5 -15.5zM196 27q33 0 61 18.5t51 49
t41 68.5t30.5 77t19 74.5t6.5 61.5q0 54 -17 78t-51 24q-32 0 -60.5 -18.5t-51.5 -49t-41 -68.5t-30.5 -77t-19 -74.5t-6.5 -61.5q0 -54 17 -78t51 -24z" />
    <glyph glyph-name="o" unicode="&#x14d;" horiz-adv-x="530" 
d="M173 -13q-42 0 -70.5 14t-46.5 36t-25.5 48.5t-7.5 52.5q0 46 15 91.5t40.5 88t59.5 79t71.5 63.5t76 42.5t74.5 15.5q42 0 70.5 -14t46.5 -36t25.5 -49t7.5 -52q0 -45 -15 -91t-40.5 -88.5t-59.5 -79t-71.5 -63.5t-76 -42.5t-74.5 -15.5zM196 27q33 0 61 18.5t51 49
t41 68.5t30.5 77t19 74.5t6.5 61.5q0 54 -17 78t-51 24q-32 0 -60.5 -18.5t-51.5 -49t-41 -68.5t-30.5 -77t-19 -74.5t-6.5 -61.5q0 -54 17 -78t51 -24z" />
    <glyph glyph-name="o" unicode="&#xf8;" horiz-adv-x="530" 
d="M173 -13q-42 0 -70.5 14t-46.5 36t-25.5 48.5t-7.5 52.5q0 46 15 91.5t40.5 88t59.5 79t71.5 63.5t76 42.5t74.5 15.5q42 0 70.5 -14t46.5 -36t25.5 -49t7.5 -52q0 -45 -15 -91t-40.5 -88.5t-59.5 -79t-71.5 -63.5t-76 -42.5t-74.5 -15.5zM196 27q33 0 61 18.5t51 49
t41 68.5t30.5 77t19 74.5t6.5 61.5q0 54 -17 78t-51 24q-32 0 -60.5 -18.5t-51.5 -49t-41 -68.5t-30.5 -77t-19 -74.5t-6.5 -61.5q0 -54 17 -78t51 -24z" />
    <glyph glyph-name="o" unicode="&#xf6;" horiz-adv-x="530" 
d="M173 -13q-42 0 -70.5 14t-46.5 36t-25.5 48.5t-7.5 52.5q0 46 15 91.5t40.5 88t59.5 79t71.5 63.5t76 42.5t74.5 15.5q42 0 70.5 -14t46.5 -36t25.5 -49t7.5 -52q0 -45 -15 -91t-40.5 -88.5t-59.5 -79t-71.5 -63.5t-76 -42.5t-74.5 -15.5zM196 27q33 0 61 18.5t51 49
t41 68.5t30.5 77t19 74.5t6.5 61.5q0 54 -17 78t-51 24q-32 0 -60.5 -18.5t-51.5 -49t-41 -68.5t-30.5 -77t-19 -74.5t-6.5 -61.5q0 -54 17 -78t51 -24z" />
    <glyph glyph-name="o" unicode="&#xf5;" horiz-adv-x="530" 
d="M173 -13q-42 0 -70.5 14t-46.5 36t-25.5 48.5t-7.5 52.5q0 46 15 91.5t40.5 88t59.5 79t71.5 63.5t76 42.5t74.5 15.5q42 0 70.5 -14t46.5 -36t25.5 -49t7.5 -52q0 -45 -15 -91t-40.5 -88.5t-59.5 -79t-71.5 -63.5t-76 -42.5t-74.5 -15.5zM196 27q33 0 61 18.5t51 49
t41 68.5t30.5 77t19 74.5t6.5 61.5q0 54 -17 78t-51 24q-32 0 -60.5 -18.5t-51.5 -49t-41 -68.5t-30.5 -77t-19 -74.5t-6.5 -61.5q0 -54 17 -78t51 -24z" />
    <glyph glyph-name="o" unicode="&#xf4;" horiz-adv-x="530" 
d="M173 -13q-42 0 -70.5 14t-46.5 36t-25.5 48.5t-7.5 52.5q0 46 15 91.5t40.5 88t59.5 79t71.5 63.5t76 42.5t74.5 15.5q42 0 70.5 -14t46.5 -36t25.5 -49t7.5 -52q0 -45 -15 -91t-40.5 -88.5t-59.5 -79t-71.5 -63.5t-76 -42.5t-74.5 -15.5zM196 27q33 0 61 18.5t51 49
t41 68.5t30.5 77t19 74.5t6.5 61.5q0 54 -17 78t-51 24q-32 0 -60.5 -18.5t-51.5 -49t-41 -68.5t-30.5 -77t-19 -74.5t-6.5 -61.5q0 -54 17 -78t51 -24z" />
    <glyph glyph-name="o" unicode="&#xf3;" horiz-adv-x="530" 
d="M173 -13q-42 0 -70.5 14t-46.5 36t-25.5 48.5t-7.5 52.5q0 46 15 91.5t40.5 88t59.5 79t71.5 63.5t76 42.5t74.5 15.5q42 0 70.5 -14t46.5 -36t25.5 -49t7.5 -52q0 -45 -15 -91t-40.5 -88.5t-59.5 -79t-71.5 -63.5t-76 -42.5t-74.5 -15.5zM196 27q33 0 61 18.5t51 49
t41 68.5t30.5 77t19 74.5t6.5 61.5q0 54 -17 78t-51 24q-32 0 -60.5 -18.5t-51.5 -49t-41 -68.5t-30.5 -77t-19 -74.5t-6.5 -61.5q0 -54 17 -78t51 -24z" />
    <glyph glyph-name="o" unicode="&#xf2;" horiz-adv-x="530" 
d="M173 -13q-42 0 -70.5 14t-46.5 36t-25.5 48.5t-7.5 52.5q0 46 15 91.5t40.5 88t59.5 79t71.5 63.5t76 42.5t74.5 15.5q42 0 70.5 -14t46.5 -36t25.5 -49t7.5 -52q0 -45 -15 -91t-40.5 -88.5t-59.5 -79t-71.5 -63.5t-76 -42.5t-74.5 -15.5zM196 27q33 0 61 18.5t51 49
t41 68.5t30.5 77t19 74.5t6.5 61.5q0 54 -17 78t-51 24q-32 0 -60.5 -18.5t-51.5 -49t-41 -68.5t-30.5 -77t-19 -74.5t-6.5 -61.5q0 -54 17 -78t51 -24z" />
    <glyph glyph-name="p" unicode="p" horiz-adv-x="568" 
d="M168 409q6 17 1.5 20.5t-30.5 -0.5l-63 -9l-3 27l216 68l6 -6l-41 -107h1q21 24 45 45t49.5 37t50.5 25t49 9q62 0 87.5 -34.5t23.5 -88.5q-2 -44 -19 -91t-44 -92.5t-62.5 -86t-74 -71.5t-78 -49t-75.5 -18q-25 0 -48 5.5t-37 13.5l-87 -254h-90zM214 24q47 0 89 34.5
t74 86.5t52 112.5t23 111.5q2 44 -12 68t-43 24q-33 0 -74 -28t-82 -77l-85 -250q-7 -20 -4.5 -35t11 -25.5t22 -16t29.5 -5.5z" />
    <glyph glyph-name="p" unicode="&#xfe;" horiz-adv-x="568" 
d="M168 409q6 17 1.5 20.5t-30.5 -0.5l-63 -9l-3 27l216 68l6 -6l-41 -107h1q21 24 45 45t49.5 37t50.5 25t49 9q62 0 87.5 -34.5t23.5 -88.5q-2 -44 -19 -91t-44 -92.5t-62.5 -86t-74 -71.5t-78 -49t-75.5 -18q-25 0 -48 5.5t-37 13.5l-87 -254h-90zM214 24q47 0 89 34.5
t74 86.5t52 112.5t23 111.5q2 44 -12 68t-43 24q-33 0 -74 -28t-82 -77l-85 -250q-7 -20 -4.5 -35t11 -25.5t22 -16t29.5 -5.5z" />
    <glyph glyph-name="q" unicode="q" horiz-adv-x="538" 
d="M299 68l51 123h-2q-81 -106 -146.5 -155t-115.5 -49q-44 0 -65.5 27t-21.5 67t18 88t48.5 96.5t70.5 94t83 80.5t87 56.5t83 21.5q19 0 39 -4.5t34 -15.5l79 36l6 -4l-264 -778h-90zM140 48q20 0 55 23.5t72.5 64t72 93t54.5 111.5l20 60q7 23 5 38.5t-10 24.5
t-19.5 12.5t-21.5 3.5q-27 0 -56.5 -16.5t-58 -44.5t-54.5 -65t-45.5 -78.5t-31 -84.5t-11.5 -82q0 -28 6.5 -44t22.5 -16z" />
    <glyph glyph-name="r" unicode="r" horiz-adv-x="450" 
d="M176 409q7 17 2 20.5t-31 -0.5l-63 -9l-3 27l221 68l6 -6q-28 -64 -51 -118q-10 -23 -19.5 -46t-18 -43t-15 -35.5t-9.5 -22.5h2q32 59 63 104t59 80q36 45 67.5 66.5t62.5 21.5q26 0 43.5 -14t17.5 -37q0 -25 -12.5 -39.5t-26.5 -19.5q-46 20 -78 27q-11 2 -16 0.5
t-13 -6.5q-20 -14 -41 -39q-35 -42 -82.5 -115t-89.5 -173l-30 -91l-108 -20z" />
    <glyph glyph-name="r" unicode="&#x159;" horiz-adv-x="450" 
d="M176 409q7 17 2 20.5t-31 -0.5l-63 -9l-3 27l221 68l6 -6q-28 -64 -51 -118q-10 -23 -19.5 -46t-18 -43t-15 -35.5t-9.5 -22.5h2q32 59 63 104t59 80q36 45 67.5 66.5t62.5 21.5q26 0 43.5 -14t17.5 -37q0 -25 -12.5 -39.5t-26.5 -19.5q-46 20 -78 27q-11 2 -16 0.5
t-13 -6.5q-20 -14 -41 -39q-35 -42 -82.5 -115t-89.5 -173l-30 -91l-108 -20z" />
    <glyph glyph-name="r" unicode="&#x157;" horiz-adv-x="450" 
d="M176 409q7 17 2 20.5t-31 -0.5l-63 -9l-3 27l221 68l6 -6q-28 -64 -51 -118q-10 -23 -19.5 -46t-18 -43t-15 -35.5t-9.5 -22.5h2q32 59 63 104t59 80q36 45 67.5 66.5t62.5 21.5q26 0 43.5 -14t17.5 -37q0 -25 -12.5 -39.5t-26.5 -19.5q-46 20 -78 27q-11 2 -16 0.5
t-13 -6.5q-20 -14 -41 -39q-35 -42 -82.5 -115t-89.5 -173l-30 -91l-108 -20z" />
    <glyph glyph-name="r" unicode="&#x155;" horiz-adv-x="450" 
d="M176 409q7 17 2 20.5t-31 -0.5l-63 -9l-3 27l221 68l6 -6q-28 -64 -51 -118q-10 -23 -19.5 -46t-18 -43t-15 -35.5t-9.5 -22.5h2q32 59 63 104t59 80q36 45 67.5 66.5t62.5 21.5q26 0 43.5 -14t17.5 -37q0 -25 -12.5 -39.5t-26.5 -19.5q-46 20 -78 27q-11 2 -16 0.5
t-13 -6.5q-20 -14 -41 -39q-35 -42 -82.5 -115t-89.5 -173l-30 -91l-108 -20z" />
    <glyph glyph-name="s" unicode="s" horiz-adv-x="401" 
d="M98 -13q-22 0 -43 6.5t-37 18t-25.5 27t-9.5 32.5q0 18 12.5 32.5t37.5 16.5q16 -17 30 -32.5t29 -27.5t30.5 -19t34.5 -7q32 0 52.5 17.5t20.5 48.5q0 18 -8.5 41t-26.5 48l-43 58q-18 26 -28.5 55t-10.5 59q0 35 17 64t44.5 49.5t61.5 32t68 11.5q21 0 41 -5.5
t35.5 -15.5t25 -23.5t9.5 -28.5q0 -19 -13.5 -34t-37.5 -17q-23 32 -52.5 56t-64.5 24q-29 0 -46.5 -15.5t-17.5 -39.5q0 -22 9 -43.5t29 -49.5l41 -58q25 -36 35.5 -62t10.5 -57q0 -34 -19 -63.5t-49 -51.5t-67.5 -34.5t-74.5 -12.5z" />
    <glyph glyph-name="s" unicode="&#x219;" horiz-adv-x="401" 
d="M98 -13q-22 0 -43 6.5t-37 18t-25.5 27t-9.5 32.5q0 18 12.5 32.5t37.5 16.5q16 -17 30 -32.5t29 -27.5t30.5 -19t34.5 -7q32 0 52.5 17.5t20.5 48.5q0 18 -8.5 41t-26.5 48l-43 58q-18 26 -28.5 55t-10.5 59q0 35 17 64t44.5 49.5t61.5 32t68 11.5q21 0 41 -5.5
t35.5 -15.5t25 -23.5t9.5 -28.5q0 -19 -13.5 -34t-37.5 -17q-23 32 -52.5 56t-64.5 24q-29 0 -46.5 -15.5t-17.5 -39.5q0 -22 9 -43.5t29 -49.5l41 -58q25 -36 35.5 -62t10.5 -57q0 -34 -19 -63.5t-49 -51.5t-67.5 -34.5t-74.5 -12.5z" />
    <glyph glyph-name="s" unicode="&#x161;" horiz-adv-x="401" 
d="M98 -13q-22 0 -43 6.5t-37 18t-25.5 27t-9.5 32.5q0 18 12.5 32.5t37.5 16.5q16 -17 30 -32.5t29 -27.5t30.5 -19t34.5 -7q32 0 52.5 17.5t20.5 48.5q0 18 -8.5 41t-26.5 48l-43 58q-18 26 -28.5 55t-10.5 59q0 35 17 64t44.5 49.5t61.5 32t68 11.5q21 0 41 -5.5
t35.5 -15.5t25 -23.5t9.5 -28.5q0 -19 -13.5 -34t-37.5 -17q-23 32 -52.5 56t-64.5 24q-29 0 -46.5 -15.5t-17.5 -39.5q0 -22 9 -43.5t29 -49.5l41 -58q25 -36 35.5 -62t10.5 -57q0 -34 -19 -63.5t-49 -51.5t-67.5 -34.5t-74.5 -12.5z" />
    <glyph glyph-name="s" unicode="&#x15f;" horiz-adv-x="401" 
d="M98 -13q-22 0 -43 6.5t-37 18t-25.5 27t-9.5 32.5q0 18 12.5 32.5t37.5 16.5q16 -17 30 -32.5t29 -27.5t30.5 -19t34.5 -7q32 0 52.5 17.5t20.5 48.5q0 18 -8.5 41t-26.5 48l-43 58q-18 26 -28.5 55t-10.5 59q0 35 17 64t44.5 49.5t61.5 32t68 11.5q21 0 41 -5.5
t35.5 -15.5t25 -23.5t9.5 -28.5q0 -19 -13.5 -34t-37.5 -17q-23 32 -52.5 56t-64.5 24q-29 0 -46.5 -15.5t-17.5 -39.5q0 -22 9 -43.5t29 -49.5l41 -58q25 -36 35.5 -62t10.5 -57q0 -34 -19 -63.5t-49 -51.5t-67.5 -34.5t-74.5 -12.5z" />
    <glyph glyph-name="s" unicode="&#x15d;" horiz-adv-x="401" 
d="M98 -13q-22 0 -43 6.5t-37 18t-25.5 27t-9.5 32.5q0 18 12.5 32.5t37.5 16.5q16 -17 30 -32.5t29 -27.5t30.5 -19t34.5 -7q32 0 52.5 17.5t20.5 48.5q0 18 -8.5 41t-26.5 48l-43 58q-18 26 -28.5 55t-10.5 59q0 35 17 64t44.5 49.5t61.5 32t68 11.5q21 0 41 -5.5
t35.5 -15.5t25 -23.5t9.5 -28.5q0 -19 -13.5 -34t-37.5 -17q-23 32 -52.5 56t-64.5 24q-29 0 -46.5 -15.5t-17.5 -39.5q0 -22 9 -43.5t29 -49.5l41 -58q25 -36 35.5 -62t10.5 -57q0 -34 -19 -63.5t-49 -51.5t-67.5 -34.5t-74.5 -12.5z" />
    <glyph glyph-name="s" unicode="&#x15b;" horiz-adv-x="401" 
d="M98 -13q-22 0 -43 6.5t-37 18t-25.5 27t-9.5 32.5q0 18 12.5 32.5t37.5 16.5q16 -17 30 -32.5t29 -27.5t30.5 -19t34.5 -7q32 0 52.5 17.5t20.5 48.5q0 18 -8.5 41t-26.5 48l-43 58q-18 26 -28.5 55t-10.5 59q0 35 17 64t44.5 49.5t61.5 32t68 11.5q21 0 41 -5.5
t35.5 -15.5t25 -23.5t9.5 -28.5q0 -19 -13.5 -34t-37.5 -17q-23 32 -52.5 56t-64.5 24q-29 0 -46.5 -15.5t-17.5 -39.5q0 -22 9 -43.5t29 -49.5l41 -58q25 -36 35.5 -62t10.5 -57q0 -34 -19 -63.5t-49 -51.5t-67.5 -34.5t-74.5 -12.5z" />
    <glyph glyph-name="s" unicode="&#xdf;" horiz-adv-x="401" 
d="M98 -13q-22 0 -43 6.5t-37 18t-25.5 27t-9.5 32.5q0 18 12.5 32.5t37.5 16.5q16 -17 30 -32.5t29 -27.5t30.5 -19t34.5 -7q32 0 52.5 17.5t20.5 48.5q0 18 -8.5 41t-26.5 48l-43 58q-18 26 -28.5 55t-10.5 59q0 35 17 64t44.5 49.5t61.5 32t68 11.5q21 0 41 -5.5
t35.5 -15.5t25 -23.5t9.5 -28.5q0 -19 -13.5 -34t-37.5 -17q-23 32 -52.5 56t-64.5 24q-29 0 -46.5 -15.5t-17.5 -39.5q0 -22 9 -43.5t29 -49.5l41 -58q25 -36 35.5 -62t10.5 -57q0 -34 -19 -63.5t-49 -51.5t-67.5 -34.5t-74.5 -12.5z" />
    <glyph glyph-name="t" unicode="t" horiz-adv-x="383" 
d="M149 113q-12 -30 -10.5 -45.5t20.5 -15.5q12 0 31 12t40.5 31.5t43.5 45t40 53.5l27 -16q-61 -94 -123.5 -142.5t-113.5 -48.5q-46 0 -60 26.5t9 85.5l134 351h-106l19 52h107l39 100h89l-38 -100h140l-20 -52h-140z" />
    <glyph glyph-name="t" unicode="&#x21b;" horiz-adv-x="383" 
d="M149 113q-12 -30 -10.5 -45.5t20.5 -15.5q12 0 31 12t40.5 31.5t43.5 45t40 53.5l27 -16q-61 -94 -123.5 -142.5t-113.5 -48.5q-46 0 -60 26.5t9 85.5l134 351h-106l19 52h107l39 100h89l-38 -100h140l-20 -52h-140z" />
    <glyph glyph-name="t" unicode="&#x167;" horiz-adv-x="383" 
d="M149 113q-12 -30 -10.5 -45.5t20.5 -15.5q12 0 31 12t40.5 31.5t43.5 45t40 53.5l27 -16q-61 -94 -123.5 -142.5t-113.5 -48.5q-46 0 -60 26.5t9 85.5l134 351h-106l19 52h107l39 100h89l-38 -100h140l-20 -52h-140z" />
    <glyph glyph-name="t" unicode="&#x165;" horiz-adv-x="383" 
d="M149 113q-12 -30 -10.5 -45.5t20.5 -15.5q12 0 31 12t40.5 31.5t43.5 45t40 53.5l27 -16q-61 -94 -123.5 -142.5t-113.5 -48.5q-46 0 -60 26.5t9 85.5l134 351h-106l19 52h107l39 100h89l-38 -100h140l-20 -52h-140z" />
    <glyph glyph-name="t" unicode="&#x163;" horiz-adv-x="383" 
d="M149 113q-12 -30 -10.5 -45.5t20.5 -15.5q12 0 31 12t40.5 31.5t43.5 45t40 53.5l27 -16q-61 -94 -123.5 -142.5t-113.5 -48.5q-46 0 -60 26.5t9 85.5l134 351h-106l19 52h107l39 100h89l-38 -100h140l-20 -52h-140z" />
    <glyph glyph-name="u" unicode="u" horiz-adv-x="615" 
d="M367 170h-2q-76 -90 -139 -136.5t-121 -46.5q-55 0 -61 44.5t26 124.5l104 253q7 17 2 20.5t-31 -0.5l-63 -9l-3 27l223 68l6 -6l-138 -339q-25 -62 -26 -91t25 -29q23 0 59.5 24.5t76 68.5t77.5 106t63 137l38 110l106 20l-155 -403q-11 -29 -14 -45t9 -16q11 0 28 12
t37 31.5t41 45t39 53.5l27 -16q-61 -94 -120 -142.5t-107 -48.5q-46 0 -50 27t17 85z" />
    <glyph glyph-name="u" unicode="&#x1ee5;" horiz-adv-x="615" 
d="M367 170h-2q-76 -90 -139 -136.5t-121 -46.5q-55 0 -61 44.5t26 124.5l104 253q7 17 2 20.5t-31 -0.5l-63 -9l-3 27l223 68l6 -6l-138 -339q-25 -62 -26 -91t25 -29q23 0 59.5 24.5t76 68.5t77.5 106t63 137l38 110l106 20l-155 -403q-11 -29 -14 -45t9 -16q11 0 28 12
t37 31.5t41 45t39 53.5l27 -16q-61 -94 -120 -142.5t-107 -48.5q-46 0 -50 27t17 85z" />
    <glyph glyph-name="u" unicode="&#x173;" horiz-adv-x="615" 
d="M367 170h-2q-76 -90 -139 -136.5t-121 -46.5q-55 0 -61 44.5t26 124.5l104 253q7 17 2 20.5t-31 -0.5l-63 -9l-3 27l223 68l6 -6l-138 -339q-25 -62 -26 -91t25 -29q23 0 59.5 24.5t76 68.5t77.5 106t63 137l38 110l106 20l-155 -403q-11 -29 -14 -45t9 -16q11 0 28 12
t37 31.5t41 45t39 53.5l27 -16q-61 -94 -120 -142.5t-107 -48.5q-46 0 -50 27t17 85z" />
    <glyph glyph-name="u" unicode="&#x171;" horiz-adv-x="615" 
d="M367 170h-2q-76 -90 -139 -136.5t-121 -46.5q-55 0 -61 44.5t26 124.5l104 253q7 17 2 20.5t-31 -0.5l-63 -9l-3 27l223 68l6 -6l-138 -339q-25 -62 -26 -91t25 -29q23 0 59.5 24.5t76 68.5t77.5 106t63 137l38 110l106 20l-155 -403q-11 -29 -14 -45t9 -16q11 0 28 12
t37 31.5t41 45t39 53.5l27 -16q-61 -94 -120 -142.5t-107 -48.5q-46 0 -50 27t17 85z" />
    <glyph glyph-name="u" unicode="&#x16f;" horiz-adv-x="615" 
d="M367 170h-2q-76 -90 -139 -136.5t-121 -46.5q-55 0 -61 44.5t26 124.5l104 253q7 17 2 20.5t-31 -0.5l-63 -9l-3 27l223 68l6 -6l-138 -339q-25 -62 -26 -91t25 -29q23 0 59.5 24.5t76 68.5t77.5 106t63 137l38 110l106 20l-155 -403q-11 -29 -14 -45t9 -16q11 0 28 12
t37 31.5t41 45t39 53.5l27 -16q-61 -94 -120 -142.5t-107 -48.5q-46 0 -50 27t17 85z" />
    <glyph glyph-name="u" unicode="&#x16d;" horiz-adv-x="615" 
d="M367 170h-2q-76 -90 -139 -136.5t-121 -46.5q-55 0 -61 44.5t26 124.5l104 253q7 17 2 20.5t-31 -0.5l-63 -9l-3 27l223 68l6 -6l-138 -339q-25 -62 -26 -91t25 -29q23 0 59.5 24.5t76 68.5t77.5 106t63 137l38 110l106 20l-155 -403q-11 -29 -14 -45t9 -16q11 0 28 12
t37 31.5t41 45t39 53.5l27 -16q-61 -94 -120 -142.5t-107 -48.5q-46 0 -50 27t17 85z" />
    <glyph glyph-name="u" unicode="&#x16b;" horiz-adv-x="615" 
d="M367 170h-2q-76 -90 -139 -136.5t-121 -46.5q-55 0 -61 44.5t26 124.5l104 253q7 17 2 20.5t-31 -0.5l-63 -9l-3 27l223 68l6 -6l-138 -339q-25 -62 -26 -91t25 -29q23 0 59.5 24.5t76 68.5t77.5 106t63 137l38 110l106 20l-155 -403q-11 -29 -14 -45t9 -16q11 0 28 12
t37 31.5t41 45t39 53.5l27 -16q-61 -94 -120 -142.5t-107 -48.5q-46 0 -50 27t17 85z" />
    <glyph glyph-name="u" unicode="&#x169;" horiz-adv-x="615" 
d="M367 170h-2q-76 -90 -139 -136.5t-121 -46.5q-55 0 -61 44.5t26 124.5l104 253q7 17 2 20.5t-31 -0.5l-63 -9l-3 27l223 68l6 -6l-138 -339q-25 -62 -26 -91t25 -29q23 0 59.5 24.5t76 68.5t77.5 106t63 137l38 110l106 20l-155 -403q-11 -29 -14 -45t9 -16q11 0 28 12
t37 31.5t41 45t39 53.5l27 -16q-61 -94 -120 -142.5t-107 -48.5q-46 0 -50 27t17 85z" />
    <glyph glyph-name="u" unicode="&#xfc;" horiz-adv-x="615" 
d="M367 170h-2q-76 -90 -139 -136.5t-121 -46.5q-55 0 -61 44.5t26 124.5l104 253q7 17 2 20.5t-31 -0.5l-63 -9l-3 27l223 68l6 -6l-138 -339q-25 -62 -26 -91t25 -29q23 0 59.5 24.5t76 68.5t77.5 106t63 137l38 110l106 20l-155 -403q-11 -29 -14 -45t9 -16q11 0 28 12
t37 31.5t41 45t39 53.5l27 -16q-61 -94 -120 -142.5t-107 -48.5q-46 0 -50 27t17 85z" />
    <glyph glyph-name="u" unicode="&#xfb;" horiz-adv-x="615" 
d="M367 170h-2q-76 -90 -139 -136.5t-121 -46.5q-55 0 -61 44.5t26 124.5l104 253q7 17 2 20.5t-31 -0.5l-63 -9l-3 27l223 68l6 -6l-138 -339q-25 -62 -26 -91t25 -29q23 0 59.5 24.5t76 68.5t77.5 106t63 137l38 110l106 20l-155 -403q-11 -29 -14 -45t9 -16q11 0 28 12
t37 31.5t41 45t39 53.5l27 -16q-61 -94 -120 -142.5t-107 -48.5q-46 0 -50 27t17 85z" />
    <glyph glyph-name="u" unicode="&#xfa;" horiz-adv-x="615" 
d="M367 170h-2q-76 -90 -139 -136.5t-121 -46.5q-55 0 -61 44.5t26 124.5l104 253q7 17 2 20.5t-31 -0.5l-63 -9l-3 27l223 68l6 -6l-138 -339q-25 -62 -26 -91t25 -29q23 0 59.5 24.5t76 68.5t77.5 106t63 137l38 110l106 20l-155 -403q-11 -29 -14 -45t9 -16q11 0 28 12
t37 31.5t41 45t39 53.5l27 -16q-61 -94 -120 -142.5t-107 -48.5q-46 0 -50 27t17 85z" />
    <glyph glyph-name="u" unicode="&#xf9;" horiz-adv-x="615" 
d="M367 170h-2q-76 -90 -139 -136.5t-121 -46.5q-55 0 -61 44.5t26 124.5l104 253q7 17 2 20.5t-31 -0.5l-63 -9l-3 27l223 68l6 -6l-138 -339q-25 -62 -26 -91t25 -29q23 0 59.5 24.5t76 68.5t77.5 106t63 137l38 110l106 20l-155 -403q-11 -29 -14 -45t9 -16q11 0 28 12
t37 31.5t41 45t39 53.5l27 -16q-61 -94 -120 -142.5t-107 -48.5q-46 0 -50 27t17 85z" />
    <glyph glyph-name="v" unicode="v" horiz-adv-x="514" 
d="M102 0q6 117 17.5 214.5t33.5 182.5q6 23 -0.5 29t-28.5 2l-60 -11l-6 26l209 72l6 -6q-13 -42 -25 -92.5t-22.5 -104t-17.5 -106.5t-9 -100q36 37 72.5 71.5t69 68t59 65t43.5 62.5q23 43 -2 117q7 13 22 20.5t35 7.5q25 0 38.5 -15.5t13.5 -35.5q0 -28 -18 -59t-50 -69
q-42 -50 -82 -90t-80 -78t-82 -79t-87 -92h-49z" />
    <glyph glyph-name="w" unicode="w" horiz-adv-x="769" 
d="M275 509q-13 -42 -26.5 -93t-25.5 -104.5t-21 -106.5t-12 -100q65 53 117.5 113t96.5 117q4 38 8 73t9 64l91 43q-15 -94 -24.5 -194.5t-14.5 -215.5q33 37 65.5 70t61.5 65.5t53 65t40 67.5q11 23 11 51t-13 66q7 13 22 20.5t35 7.5q25 0 38.5 -15.5t13.5 -35.5
q0 -28 -17 -58.5t-47 -69.5q-41 -55 -78 -95.5t-73.5 -77t-74 -75.5t-79.5 -91h-49q2 54 6 125t10 143q-26 -32 -59 -68t-69 -71.5t-71.5 -68.5t-65.5 -60h-44q10 117 27 214.5t39 182.5q6 23 -0.5 29t-28.5 2l-60 -11l-6 26l209 72z" />
    <glyph glyph-name="w" unicode="&#x1e85;" horiz-adv-x="769" 
d="M275 509q-13 -42 -26.5 -93t-25.5 -104.5t-21 -106.5t-12 -100q65 53 117.5 113t96.5 117q4 38 8 73t9 64l91 43q-15 -94 -24.5 -194.5t-14.5 -215.5q33 37 65.5 70t61.5 65.5t53 65t40 67.5q11 23 11 51t-13 66q7 13 22 20.5t35 7.5q25 0 38.5 -15.5t13.5 -35.5
q0 -28 -17 -58.5t-47 -69.5q-41 -55 -78 -95.5t-73.5 -77t-74 -75.5t-79.5 -91h-49q2 54 6 125t10 143q-26 -32 -59 -68t-69 -71.5t-71.5 -68.5t-65.5 -60h-44q10 117 27 214.5t39 182.5q6 23 -0.5 29t-28.5 2l-60 -11l-6 26l209 72z" />
    <glyph glyph-name="w" unicode="&#x1e83;" horiz-adv-x="769" 
d="M275 509q-13 -42 -26.5 -93t-25.5 -104.5t-21 -106.5t-12 -100q65 53 117.5 113t96.5 117q4 38 8 73t9 64l91 43q-15 -94 -24.5 -194.5t-14.5 -215.5q33 37 65.5 70t61.5 65.5t53 65t40 67.5q11 23 11 51t-13 66q7 13 22 20.5t35 7.5q25 0 38.5 -15.5t13.5 -35.5
q0 -28 -17 -58.5t-47 -69.5q-41 -55 -78 -95.5t-73.5 -77t-74 -75.5t-79.5 -91h-49q2 54 6 125t10 143q-26 -32 -59 -68t-69 -71.5t-71.5 -68.5t-65.5 -60h-44q10 117 27 214.5t39 182.5q6 23 -0.5 29t-28.5 2l-60 -11l-6 26l209 72z" />
    <glyph glyph-name="w" unicode="&#x1e81;" horiz-adv-x="769" 
d="M275 509q-13 -42 -26.5 -93t-25.5 -104.5t-21 -106.5t-12 -100q65 53 117.5 113t96.5 117q4 38 8 73t9 64l91 43q-15 -94 -24.5 -194.5t-14.5 -215.5q33 37 65.5 70t61.5 65.5t53 65t40 67.5q11 23 11 51t-13 66q7 13 22 20.5t35 7.5q25 0 38.5 -15.5t13.5 -35.5
q0 -28 -17 -58.5t-47 -69.5q-41 -55 -78 -95.5t-73.5 -77t-74 -75.5t-79.5 -91h-49q2 54 6 125t10 143q-26 -32 -59 -68t-69 -71.5t-71.5 -68.5t-65.5 -60h-44q10 117 27 214.5t39 182.5q6 23 -0.5 29t-28.5 2l-60 -11l-6 26l209 72z" />
    <glyph glyph-name="w" unicode="&#x175;" horiz-adv-x="769" 
d="M275 509q-13 -42 -26.5 -93t-25.5 -104.5t-21 -106.5t-12 -100q65 53 117.5 113t96.5 117q4 38 8 73t9 64l91 43q-15 -94 -24.5 -194.5t-14.5 -215.5q33 37 65.5 70t61.5 65.5t53 65t40 67.5q11 23 11 51t-13 66q7 13 22 20.5t35 7.5q25 0 38.5 -15.5t13.5 -35.5
q0 -28 -17 -58.5t-47 -69.5q-41 -55 -78 -95.5t-73.5 -77t-74 -75.5t-79.5 -91h-49q2 54 6 125t10 143q-26 -32 -59 -68t-69 -71.5t-71.5 -68.5t-65.5 -60h-44q10 117 27 214.5t39 182.5q6 23 -0.5 29t-28.5 2l-60 -11l-6 26l209 72z" />
    <glyph glyph-name="x" unicode="x" horiz-adv-x="591" 
d="M-32 54q0 20 15 36t35 14q36 -51 72 -51q16 0 29 10q6 5 17 15.5t27.5 30t39.5 50.5t54 76l-17 141q-6 48 -13 64t-21 16q-18 0 -47.5 -29t-61.5 -70l-26 19q53 70 101 106t91 36q15 0 25 -5t17 -17.5t11 -33.5t8 -52l10 -84q37 59 67.5 96.5t56 58.5t47.5 29t43 8
q35 0 56 -18t21 -49q0 -20 -15 -36t-35 -14q-36 51 -72 51q-16 0 -29 -10q-6 -5 -16.5 -15t-26.5 -29t-38.5 -48.5t-52.5 -73.5l18 -147q6 -48 12.5 -64t20.5 -16q18 0 47.5 29t61.5 70l26 -19q-53 -70 -101 -106t-91 -36q-15 0 -25 5t-16.5 17.5t-10.5 33.5t-8 52l-11 90
q-39 -61 -69.5 -99.5t-56.5 -60.5t-48.5 -30t-43.5 -8q-35 0 -56 18t-21 49z" />
    <glyph glyph-name="y" unicode="y" horiz-adv-x="547" 
d="M250 128l151 209q37 52 63 86.5t46 55.5t36 30t33 9q18 0 30.5 -12t12.5 -32q0 -12 -3.5 -22.5t-10.5 -15.5q-30 -9 -53 -18.5t-44.5 -24.5t-43.5 -39t-50 -63l-198 -279q-18 -24 -39 -53t-44.5 -57.5t-48 -55.5t-48.5 -48q-44 -39 -70 -52t-52 -13q-25 0 -35.5 12.5
t-10.5 28.5q0 17 6.5 29t17.5 16q15 -1 32 -1t33 2t30 5.5t22 9.5q39 26 76 69.5t73 100.5l-1 401q0 23 -5.5 26.5t-23.5 0.5l-60 -13l-6 26l182 72l6 -6z" />
    <glyph glyph-name="y" unicode="&#x1ef3;" horiz-adv-x="547" 
d="M250 128l151 209q37 52 63 86.5t46 55.5t36 30t33 9q18 0 30.5 -12t12.5 -32q0 -12 -3.5 -22.5t-10.5 -15.5q-30 -9 -53 -18.5t-44.5 -24.5t-43.5 -39t-50 -63l-198 -279q-18 -24 -39 -53t-44.5 -57.5t-48 -55.5t-48.5 -48q-44 -39 -70 -52t-52 -13q-25 0 -35.5 12.5
t-10.5 28.5q0 17 6.5 29t17.5 16q15 -1 32 -1t33 2t30 5.5t22 9.5q39 26 76 69.5t73 100.5l-1 401q0 23 -5.5 26.5t-23.5 0.5l-60 -13l-6 26l182 72l6 -6z" />
    <glyph glyph-name="y" unicode="&#x233;" horiz-adv-x="547" 
d="M250 128l151 209q37 52 63 86.5t46 55.5t36 30t33 9q18 0 30.5 -12t12.5 -32q0 -12 -3.5 -22.5t-10.5 -15.5q-30 -9 -53 -18.5t-44.5 -24.5t-43.5 -39t-50 -63l-198 -279q-18 -24 -39 -53t-44.5 -57.5t-48 -55.5t-48.5 -48q-44 -39 -70 -52t-52 -13q-25 0 -35.5 12.5
t-10.5 28.5q0 17 6.5 29t17.5 16q15 -1 32 -1t33 2t30 5.5t22 9.5q39 26 76 69.5t73 100.5l-1 401q0 23 -5.5 26.5t-23.5 0.5l-60 -13l-6 26l182 72l6 -6z" />
    <glyph glyph-name="y" unicode="&#x177;" horiz-adv-x="547" 
d="M250 128l151 209q37 52 63 86.5t46 55.5t36 30t33 9q18 0 30.5 -12t12.5 -32q0 -12 -3.5 -22.5t-10.5 -15.5q-30 -9 -53 -18.5t-44.5 -24.5t-43.5 -39t-50 -63l-198 -279q-18 -24 -39 -53t-44.5 -57.5t-48 -55.5t-48.5 -48q-44 -39 -70 -52t-52 -13q-25 0 -35.5 12.5
t-10.5 28.5q0 17 6.5 29t17.5 16q15 -1 32 -1t33 2t30 5.5t22 9.5q39 26 76 69.5t73 100.5l-1 401q0 23 -5.5 26.5t-23.5 0.5l-60 -13l-6 26l182 72l6 -6z" />
    <glyph glyph-name="y" unicode="&#xff;" horiz-adv-x="547" 
d="M250 128l151 209q37 52 63 86.5t46 55.5t36 30t33 9q18 0 30.5 -12t12.5 -32q0 -12 -3.5 -22.5t-10.5 -15.5q-30 -9 -53 -18.5t-44.5 -24.5t-43.5 -39t-50 -63l-198 -279q-18 -24 -39 -53t-44.5 -57.5t-48 -55.5t-48.5 -48q-44 -39 -70 -52t-52 -13q-25 0 -35.5 12.5
t-10.5 28.5q0 17 6.5 29t17.5 16q15 -1 32 -1t33 2t30 5.5t22 9.5q39 26 76 69.5t73 100.5l-1 401q0 23 -5.5 26.5t-23.5 0.5l-60 -13l-6 26l182 72l6 -6z" />
    <glyph glyph-name="y" unicode="&#xfd;" horiz-adv-x="547" 
d="M250 128l151 209q37 52 63 86.5t46 55.5t36 30t33 9q18 0 30.5 -12t12.5 -32q0 -12 -3.5 -22.5t-10.5 -15.5q-30 -9 -53 -18.5t-44.5 -24.5t-43.5 -39t-50 -63l-198 -279q-18 -24 -39 -53t-44.5 -57.5t-48 -55.5t-48.5 -48q-44 -39 -70 -52t-52 -13q-25 0 -35.5 12.5
t-10.5 28.5q0 17 6.5 29t17.5 16q15 -1 32 -1t33 2t30 5.5t22 9.5q39 26 76 69.5t73 100.5l-1 401q0 23 -5.5 26.5t-23.5 0.5l-60 -13l-6 26l182 72l6 -6z" />
    <glyph glyph-name="z" unicode="z" horiz-adv-x="523" 
d="M328 -37q-24 0 -53 13t-62.5 31t-70 37t-73.5 31q-2 -30 -9 -47.5t-15.5 -26.5t-17 -11.5t-14.5 -2.5q-14 0 -23 8.5t-9 22.5q0 16 12 34t46 47l343 293q-36 9 -66.5 20.5t-55 21.5t-43.5 16.5t-32 6.5q-16 0 -26 -7.5t-10 -23.5q0 -13 5.5 -23t13.5 -18t16 -15t14 -13
q0 -19 -15 -31t-36 -12q-27 0 -41.5 16.5t-14.5 40.5t9.5 43t24.5 34.5t33.5 28t36.5 23.5q20 13 34.5 17t26.5 2q18 -3 42 -11.5t49.5 -17t49.5 -15.5t42 -7q15 0 29 5.5t26 13.5t23 17t20 17l22 -25l-419 -359q31 -10 60 -25t56.5 -29.5t52 -24.5t46.5 -10q35 0 53.5 19
t35.5 59l28 -10q-32 -77 -63.5 -115t-80.5 -38z" />
    <glyph glyph-name="z" unicode="&#x17e;" horiz-adv-x="523" 
d="M328 -37q-24 0 -53 13t-62.5 31t-70 37t-73.5 31q-2 -30 -9 -47.5t-15.5 -26.5t-17 -11.5t-14.5 -2.5q-14 0 -23 8.5t-9 22.5q0 16 12 34t46 47l343 293q-36 9 -66.5 20.5t-55 21.5t-43.5 16.5t-32 6.5q-16 0 -26 -7.5t-10 -23.5q0 -13 5.5 -23t13.5 -18t16 -15t14 -13
q0 -19 -15 -31t-36 -12q-27 0 -41.5 16.5t-14.5 40.5t9.5 43t24.5 34.5t33.5 28t36.5 23.5q20 13 34.5 17t26.5 2q18 -3 42 -11.5t49.5 -17t49.5 -15.5t42 -7q15 0 29 5.5t26 13.5t23 17t20 17l22 -25l-419 -359q31 -10 60 -25t56.5 -29.5t52 -24.5t46.5 -10q35 0 53.5 19
t35.5 59l28 -10q-32 -77 -63.5 -115t-80.5 -38z" />
    <glyph glyph-name="z" unicode="&#x17c;" horiz-adv-x="523" 
d="M328 -37q-24 0 -53 13t-62.5 31t-70 37t-73.5 31q-2 -30 -9 -47.5t-15.5 -26.5t-17 -11.5t-14.5 -2.5q-14 0 -23 8.5t-9 22.5q0 16 12 34t46 47l343 293q-36 9 -66.5 20.5t-55 21.5t-43.5 16.5t-32 6.5q-16 0 -26 -7.5t-10 -23.5q0 -13 5.5 -23t13.5 -18t16 -15t14 -13
q0 -19 -15 -31t-36 -12q-27 0 -41.5 16.5t-14.5 40.5t9.5 43t24.5 34.5t33.5 28t36.5 23.5q20 13 34.5 17t26.5 2q18 -3 42 -11.5t49.5 -17t49.5 -15.5t42 -7q15 0 29 5.5t26 13.5t23 17t20 17l22 -25l-419 -359q31 -10 60 -25t56.5 -29.5t52 -24.5t46.5 -10q35 0 53.5 19
t35.5 59l28 -10q-32 -77 -63.5 -115t-80.5 -38z" />
    <glyph glyph-name="z" unicode="&#x17a;" horiz-adv-x="523" 
d="M328 -37q-24 0 -53 13t-62.5 31t-70 37t-73.5 31q-2 -30 -9 -47.5t-15.5 -26.5t-17 -11.5t-14.5 -2.5q-14 0 -23 8.5t-9 22.5q0 16 12 34t46 47l343 293q-36 9 -66.5 20.5t-55 21.5t-43.5 16.5t-32 6.5q-16 0 -26 -7.5t-10 -23.5q0 -13 5.5 -23t13.5 -18t16 -15t14 -13
q0 -19 -15 -31t-36 -12q-27 0 -41.5 16.5t-14.5 40.5t9.5 43t24.5 34.5t33.5 28t36.5 23.5q20 13 34.5 17t26.5 2q18 -3 42 -11.5t49.5 -17t49.5 -15.5t42 -7q15 0 29 5.5t26 13.5t23 17t20 17l22 -25l-419 -359q31 -10 60 -25t56.5 -29.5t52 -24.5t46.5 -10q35 0 53.5 19
t35.5 59l28 -10q-32 -77 -63.5 -115t-80.5 -38z" />
    <glyph glyph-name="uni00A0" unicode="&#xa0;" horiz-adv-x="280" 
 />
    <glyph glyph-name="uni00AD" unicode="&#xad;" horiz-adv-x="436" 
d="M86 295h294l-22 -65h-294z" />
    <glyph glyph-name="paragraph" unicode="&#xb6;" horiz-adv-x="594" 
d="M90 -193q-27 0 -49 12.5t-22 41.5q0 28 19.5 43t45.5 12q20 -27 43 -38.5t53 -11.5q18 0 32.5 6.5t27.5 22.5t25 42t24 64l99 302q-27 -8 -52.5 -12.5t-51.5 -4.5q-43 0 -75 13t-53.5 36.5t-32.5 54.5t-11 67q0 59 28 113.5t80.5 96t128 66.5t170.5 25h189l-11 -35
l-37 -2q-21 -1 -33.5 -4t-20.5 -10.5t-14 -21.5t-14 -38l-179 -549q-9 -28 -20 -59.5t-26.5 -62.5t-38.5 -59.5t-56 -50.5q-42 -28 -87 -43.5t-81 -15.5z" />
    <glyph glyph-name="periodcentered" unicode="&#xb7;" horiz-adv-x="290" 
d="M147 186q-31 0 -53 22.5t-22 55.5q0 31 22 53t53 22q33 0 55.5 -22t22.5 -53q0 -33 -22.5 -55.5t-55.5 -22.5z" />
    <glyph glyph-name="glyph65" horiz-adv-x="804" 
d="M356 -11q-69 0 -123.5 23.5t-91 66t-54.5 102t-13 131.5h595q7 28 10 56t3 55q0 72 -19 126t-52 90t-76.5 53.5t-92.5 17.5q-81 0 -157.5 -41.5t-131.5 -126.5l-31 17q22 45 57 85.5t81 70.5t103.5 48t126.5 18q67 0 124 -22.5t98 -64t64 -100t23 -129.5
q0 -99 -36.5 -186t-98 -151.5t-141.5 -101.5t-167 -37zM361 34q59 0 107 19t85 52t63 76t42 91h-471q-10 -114 36.5 -176t137.5 -62z" />
    <glyph glyph-name="glyph66" horiz-adv-x="337" 
d="M92 -13q-46 0 -54 27.5t15 84.5l124 310q7 17 2 20.5t-31 -0.5l-63 -9l-3 27l221 68l6 -6l-157 -396q-11 -29 -14 -45t9 -16q11 0 28 12t37 31.5t41 45t39 53.5l27 -16q-61 -94 -120 -142.5t-107 -48.5z" />
    <glyph glyph-name="glyph67" horiz-adv-x="291" 
d="M130 45q-13 -36 -24.5 -65t-24.5 -52.5t-30 -43t-42 -36.5q-17 -12 -39 -26t-47 -29.5t-51 -31t-50 -28.5l-13 24q43 31 75.5 55.5t58 53t46.5 66t42 93.5l143 387q6 17 1.5 20.5t-30.5 -0.5l-63 -9l-3 27l215 68l6 -6z" />
    <glyph glyph-name="uni0410" unicode="&#x410;" horiz-adv-x="749" 
d="M-95 35l38 2q15 1 28 7t27.5 19t31 33t38.5 49l479 636h36l27 -720q1 -15 8 -18t33 -5l33 -3l-10 -35h-276l10 35l48 3q28 1 38 6t9 29l-6 197h-269l-93 -127q-23 -31 -36 -51t-15.5 -32t5.5 -17t27 -6l44 -2l-10 -35h-255zM495 319l-9 301l-222 -301h231z" />
    <glyph glyph-name="uni0411" unicode="&#x411;" horiz-adv-x="696" 
d="M380 436q137 0 206.5 -46t69.5 -137q0 -52 -24.5 -98t-73 -80.5t-120.5 -54.5t-166 -20h-296l11 35l36 2q21 1 33.5 4t20.5 10.5t13.5 21.5t13.5 38l164 536q7 24 10 38t-0.5 21.5t-14 10.5t-31.5 4l-35 2l11 35h249l291 2l-47 -181h-30v45q0 34 -7.5 53t-29.5 28t-62 11
t-105 2h-53q-20 0 -27 -20l-80 -262h73zM207 110q-14 -43 1 -57.5t65 -14.5q69 0 119 17t82 46.5t47.5 68t15.5 82.5q0 34 -9.5 60.5t-31.5 44t-58 26.5t-89 9h-56z" />
    <glyph glyph-name="uni0412" unicode="&#x412;" horiz-adv-x="697" 
d="M-11 35l36 2q21 1 33.5 4t20.5 10.5t13.5 21.5t13.5 38l164 536q7 24 10.5 38t0 21.5t-14.5 10.5t-31 4l-36 2l11 35h238q129 0 190 -37.5t61 -101.5q0 -77 -62 -132t-173 -77v-1q32 -4 64.5 -15.5t59 -32t43.5 -49t17 -67.5q0 -44 -24.5 -87.5t-71.5 -78.5t-115 -57
t-155 -22h-304zM367 425q61 0 104 16.5t69.5 43.5t38.5 61t12 69q0 46 -33.5 75.5t-110.5 29.5q-19 0 -29.5 -1t-16 -3.5t-8 -7t-4.5 -11.5l-83 -272h61zM284 38q53 0 98 13t78 40t51.5 67t18.5 94q0 29 -9 53t-30 41.5t-56 27.5t-86 10h-55l-84 -274q-14 -43 1 -57.5
t69 -14.5h4z" />
    <glyph glyph-name="uni0403" unicode="&#x403;" horiz-adv-x="615" 
d="M-10 35l36 2q21 1 33.5 4t20.5 10.5t13.5 21.5t13.5 38l164 536q7 24 10 38t-0.5 21.5t-14.5 10.5t-31 4l-35 2l11 35h249l291 2l-47 -181h-30v45q0 34 -6.5 53t-27 28t-59.5 11t-104 2h-61q-11 0 -16.5 -4.5t-9.5 -15.5l-179 -587q-8 -26 -11 -40.5t2 -21.5t18.5 -8.5
t39.5 -2.5l42 -1l-11 -37h-312z" />
    <glyph glyph-name="uni0403" unicode="&#x492;" horiz-adv-x="615" 
d="M-10 35l36 2q21 1 33.5 4t20.5 10.5t13.5 21.5t13.5 38l164 536q7 24 10 38t-0.5 21.5t-14.5 10.5t-31 4l-35 2l11 35h249l291 2l-47 -181h-30v45q0 34 -6.5 53t-27 28t-59.5 11t-104 2h-61q-11 0 -16.5 -4.5t-9.5 -15.5l-179 -587q-8 -26 -11 -40.5t2 -21.5t18.5 -8.5
t39.5 -2.5l42 -1l-11 -37h-312z" />
    <glyph glyph-name="uni0403" unicode="&#x413;" horiz-adv-x="615" 
d="M-10 35l36 2q21 1 33.5 4t20.5 10.5t13.5 21.5t13.5 38l164 536q7 24 10 38t-0.5 21.5t-14.5 10.5t-31 4l-35 2l11 35h249l291 2l-47 -181h-30v45q0 34 -6.5 53t-27 28t-59.5 11t-104 2h-61q-11 0 -16.5 -4.5t-9.5 -15.5l-179 -587q-8 -26 -11 -40.5t2 -21.5t18.5 -8.5
t39.5 -2.5l42 -1l-11 -37h-312z" />
    <glyph glyph-name="uni0414" unicode="&#x414;" horiz-adv-x="806" 
d="M620 111q-7 -23 -10 -37t0.5 -21.5t14 -10t31.5 -2.5h45l-53 -199h-30l6 65q3 35 -4 54t-30 28t-64 10.5t-106 1.5h-164q-65 0 -107 -1.5t-70.5 -10.5t-47.5 -28t-37 -54l-34 -65h-30l69 199h62q48 52 90.5 118.5t81 144t71.5 164.5t61 180q7 24 10.5 38t0 21.5
t-14.5 10.5t-31 4l-35 2l10 35h606l-10 -35l-37 -2q-21 -1 -33.5 -4t-20.5 -10.5t-14 -21.5t-13 -38zM431 699q-69 -225 -145 -390t-167 -269h288q27 0 44.5 3t29.5 11t20 22t15 36l178 584q5 14 2 18t-17 4h-223q-18 0 -25 -19z" />
    <glyph glyph-name="uni0401" unicode="&#x401;" horiz-adv-x="710" 
d="M-11 35l36 2q21 1 33.5 4t20.5 10.5t13.5 21.5t13.5 38l164 536q7 24 10 38t-0.5 21.5t-14.5 10.5t-31 4l-35 2l11 35h242l291 2l-47 -181h-30v45q0 34 -6.5 53t-28 28t-62 11t-108.5 2h-46q-11 0 -16.5 -4.5t-9.5 -15.5l-88 -289h128q20 0 35.5 1.5t28.5 8.5t25.5 21.5
t27.5 40.5l21 39h30l-82 -268h-30l3 39q1 26 -2.5 40.5t-12.5 21.5t-23.5 8.5t-34.5 1.5h-128l-77 -251q-8 -26 -6.5 -40.5t11 -21.5t27.5 -8.5t43 -1.5h21q69 0 111.5 3.5t71 13t48.5 26t43 43.5l64 73h30l-112 -199h-584z" />
    <glyph glyph-name="uni0401" unicode="&#x415;" horiz-adv-x="710" 
d="M-11 35l36 2q21 1 33.5 4t20.5 10.5t13.5 21.5t13.5 38l164 536q7 24 10 38t-0.5 21.5t-14.5 10.5t-31 4l-35 2l11 35h242l291 2l-47 -181h-30v45q0 34 -6.5 53t-28 28t-62 11t-108.5 2h-46q-11 0 -16.5 -4.5t-9.5 -15.5l-88 -289h128q20 0 35.5 1.5t28.5 8.5t25.5 21.5
t27.5 40.5l21 39h30l-82 -268h-30l3 39q1 26 -2.5 40.5t-12.5 21.5t-23.5 8.5t-34.5 1.5h-128l-77 -251q-8 -26 -6.5 -40.5t11 -21.5t27.5 -8.5t43 -1.5h21q69 0 111.5 3.5t71 13t48.5 26t43 43.5l64 73h30l-112 -199h-584z" />
    <glyph glyph-name="uni0416" unicode="&#x416;" horiz-adv-x="1188" 
d="M-80 0l11 35l35 2q33 2 58 13t50 33l394 344l-105 194q-19 34 -34.5 54t-31.5 29.5t-34.5 12.5t-43.5 5l-17 1l11 35h268l-11 -35h-4q-31 0 -47 -4t-19 -16t5.5 -34.5t26.5 -58.5l90 -183q7 -14 13.5 -23t13.5 -15t15.5 -9t19.5 -5l83 272q7 24 10 38t-0.5 21.5t-14 10.5
t-31.5 4l-35 2l11 35h292l-11 -35l-37 -2q-21 -1 -33 -4t-20.5 -10.5t-14 -21.5t-12.5 -38l-82 -268q17 5 34 15.5t43 32.5l214 183q50 43 75.5 65.5t33 32t0 11t-24.5 2.5l-40 2l11 35h273l-11 -35l-30 -2q-24 -2 -43 -5.5t-39.5 -13.5t-47.5 -29t-68 -52l-246 -197
l191 -341q11 -20 28.5 -31.5t46.5 -13.5l35 -3l-11 -35h-177l-190 351l-66 -2l-73 -238q-8 -24 -11 -38t0.5 -21.5t14.5 -10.5t31 -4l36 -2l-11 -35h-292l11 35l36 2q21 1 33.5 4t20.5 10.5t13.5 21.5t13.5 38l73 237l-62 2l-400 -350h-194z" />
    <glyph glyph-name="uni0416" unicode="&#x496;" horiz-adv-x="1188" 
d="M-80 0l11 35l35 2q33 2 58 13t50 33l394 344l-105 194q-19 34 -34.5 54t-31.5 29.5t-34.5 12.5t-43.5 5l-17 1l11 35h268l-11 -35h-4q-31 0 -47 -4t-19 -16t5.5 -34.5t26.5 -58.5l90 -183q7 -14 13.5 -23t13.5 -15t15.5 -9t19.5 -5l83 272q7 24 10 38t-0.5 21.5t-14 10.5
t-31.5 4l-35 2l11 35h292l-11 -35l-37 -2q-21 -1 -33 -4t-20.5 -10.5t-14 -21.5t-12.5 -38l-82 -268q17 5 34 15.5t43 32.5l214 183q50 43 75.5 65.5t33 32t0 11t-24.5 2.5l-40 2l11 35h273l-11 -35l-30 -2q-24 -2 -43 -5.5t-39.5 -13.5t-47.5 -29t-68 -52l-246 -197
l191 -341q11 -20 28.5 -31.5t46.5 -13.5l35 -3l-11 -35h-177l-190 351l-66 -2l-73 -238q-8 -24 -11 -38t0.5 -21.5t14.5 -10.5t31 -4l36 -2l-11 -35h-292l11 35l36 2q21 1 33.5 4t20.5 10.5t13.5 21.5t13.5 38l73 237l-62 2l-400 -350h-194z" />
    <glyph glyph-name="uni0417" unicode="&#x417;" horiz-adv-x="695" 
d="M481 779q99 0 157.5 -42t58.5 -122q0 -92 -66.5 -143t-181.5 -63v-1q30 -4 61 -14.5t56.5 -31t42 -50.5t16.5 -73q0 -54 -26 -100.5t-73 -80t-112 -52.5t-143 -19q-74 0 -124 12.5t-87 25.5l15 186h27l32 -112q6 -20 18.5 -33.5t31 -21t42 -10.5t50.5 -3q52 0 95 15.5
t73.5 43t47 65t16.5 80.5q0 70 -39 108t-136 38h-68l15 46h68q55 0 100 13.5t76 38t48 58.5t17 76q0 58 -28 90t-87 32q-49 0 -95 -16.5t-88 -66.5l-76 -90h-27l88 182q35 12 89.5 23.5t115.5 11.5z" />
    <glyph glyph-name="uni0418" unicode="&#x418;" horiz-adv-x="905" 
d="M270 647q7 24 10 38t-0.5 21.5t-14 10.5t-31.5 4l-35 2l11 35h292l-11 -35l-37 -2q-21 -1 -33 -4t-20.5 -10.5t-14 -21.5t-12.5 -38l-141 -461l541 462q7 24 10 37.5t-0.5 21t-14 10.5t-31.5 4l-35 2l11 35h292l-11 -35l-37 -2q-21 -1 -33.5 -4t-20.5 -10.5t-14 -22
t-13 -39.5l-163 -534q-8 -24 -11 -38t0.5 -21.5t14.5 -10.5t31 -4l36 -2l-11 -35h-292l11 35l36 2q21 1 33.5 4t20.5 10.5t13.5 21.5t13.5 38l142 464l-541 -461l-1 -3q-8 -24 -11 -38t0.5 -21.5t14.5 -10.5t31 -4l36 -2l-11 -35h-292l11 35l36 2q21 1 33.5 4t20.5 10.5
t13.5 21.5t13.5 38z" />
    <glyph glyph-name="uni0418" unicode="&#x4e2;" horiz-adv-x="905" 
d="M270 647q7 24 10 38t-0.5 21.5t-14 10.5t-31.5 4l-35 2l11 35h292l-11 -35l-37 -2q-21 -1 -33 -4t-20.5 -10.5t-14 -21.5t-12.5 -38l-141 -461l541 462q7 24 10 37.5t-0.5 21t-14 10.5t-31.5 4l-35 2l11 35h292l-11 -35l-37 -2q-21 -1 -33.5 -4t-20.5 -10.5t-14 -22
t-13 -39.5l-163 -534q-8 -24 -11 -38t0.5 -21.5t14.5 -10.5t31 -4l36 -2l-11 -35h-292l11 35l36 2q21 1 33.5 4t20.5 10.5t13.5 21.5t13.5 38l142 464l-541 -461l-1 -3q-8 -24 -11 -38t0.5 -21.5t14.5 -10.5t31 -4l36 -2l-11 -35h-292l11 35l36 2q21 1 33.5 4t20.5 10.5
t13.5 21.5t13.5 38z" />
    <glyph glyph-name="uni0418" unicode="&#x419;" horiz-adv-x="905" 
d="M270 647q7 24 10 38t-0.5 21.5t-14 10.5t-31.5 4l-35 2l11 35h292l-11 -35l-37 -2q-21 -1 -33 -4t-20.5 -10.5t-14 -21.5t-12.5 -38l-141 -461l541 462q7 24 10 37.5t-0.5 21t-14 10.5t-31.5 4l-35 2l11 35h292l-11 -35l-37 -2q-21 -1 -33.5 -4t-20.5 -10.5t-14 -22
t-13 -39.5l-163 -534q-8 -24 -11 -38t0.5 -21.5t14.5 -10.5t31 -4l36 -2l-11 -35h-292l11 35l36 2q21 1 33.5 4t20.5 10.5t13.5 21.5t13.5 38l142 464l-541 -461l-1 -3q-8 -24 -11 -38t0.5 -21.5t14.5 -10.5t31 -4l36 -2l-11 -35h-292l11 35l36 2q21 1 33.5 4t20.5 10.5
t13.5 21.5t13.5 38z" />
    <glyph glyph-name="uni040C" unicode="&#x40c;" horiz-adv-x="821" 
d="M352 351l-69 -2l-73 -238q-8 -24 -11 -38t0.5 -21.5t14.5 -10.5t31 -4l36 -2l-11 -35h-292l11 35l36 2q21 1 33.5 4t20.5 10.5t13.5 21.5t13.5 38l164 536q7 24 10.5 38t0 21.5t-14.5 10.5t-31 4l-36 2l11 35h292l-11 -35l-36 -2q-21 -1 -33.5 -4t-20.5 -10.5t-14 -21.5
t-13 -38l-82 -268q17 6 33.5 17t43.5 31l244 183q53 39 79 61t32.5 33t-2 13.5t-25.5 3.5l-40 2l11 35h273l-11 -35l-30 -2q-24 -2 -42.5 -6t-39 -14.5t-47.5 -29.5t-69 -50l-273 -198l218 -340q13 -20 29.5 -31.5t45.5 -13.5l35 -3l-11 -35h-177z" />
    <glyph glyph-name="uni040C" unicode="&#x49a;" horiz-adv-x="821" 
d="M352 351l-69 -2l-73 -238q-8 -24 -11 -38t0.5 -21.5t14.5 -10.5t31 -4l36 -2l-11 -35h-292l11 35l36 2q21 1 33.5 4t20.5 10.5t13.5 21.5t13.5 38l164 536q7 24 10.5 38t0 21.5t-14.5 10.5t-31 4l-36 2l11 35h292l-11 -35l-36 -2q-21 -1 -33.5 -4t-20.5 -10.5t-14 -21.5
t-13 -38l-82 -268q17 6 33.5 17t43.5 31l244 183q53 39 79 61t32.5 33t-2 13.5t-25.5 3.5l-40 2l11 35h273l-11 -35l-30 -2q-24 -2 -42.5 -6t-39 -14.5t-47.5 -29.5t-69 -50l-273 -198l218 -340q13 -20 29.5 -31.5t45.5 -13.5l35 -3l-11 -35h-177z" />
    <glyph glyph-name="uni040C" unicode="&#x41a;" horiz-adv-x="821" 
d="M352 351l-69 -2l-73 -238q-8 -24 -11 -38t0.5 -21.5t14.5 -10.5t31 -4l36 -2l-11 -35h-292l11 35l36 2q21 1 33.5 4t20.5 10.5t13.5 21.5t13.5 38l164 536q7 24 10.5 38t0 21.5t-14.5 10.5t-31 4l-36 2l11 35h292l-11 -35l-36 -2q-21 -1 -33.5 -4t-20.5 -10.5t-14 -21.5
t-13 -38l-82 -268q17 6 33.5 17t43.5 31l244 183q53 39 79 61t32.5 33t-2 13.5t-25.5 3.5l-40 2l11 35h273l-11 -35l-30 -2q-24 -2 -42.5 -6t-39 -14.5t-47.5 -29.5t-69 -50l-273 -198l218 -340q13 -20 29.5 -31.5t45.5 -13.5l35 -3l-11 -35h-177z" />
    <glyph glyph-name="uni041B" unicode="&#x41b;" horiz-adv-x="808" 
d="M-35 36q0 11 4.5 23t14.5 22q26 5 51 12t54 22q26 14 54 45.5t60 92t69 156.5t81 238q7 24 10.5 38t0 21.5t-14.5 10.5t-32 4l-35 2l11 35h616l-11 -35l-37 -2q-21 -1 -33 -4t-20.5 -10.5t-14 -21.5t-12.5 -38l-164 -536q-8 -24 -11 -38t0.5 -21.5t14.5 -10.5t31 -4
l36 -2l-11 -35h-292l11 35l36 2q21 1 33.5 4t20.5 10.5t13.5 21.5t13.5 38l179 585q4 14 1.5 18t-16.5 4h-233q-20 0 -25 -19q-43 -140 -81.5 -247.5t-74 -186t-68.5 -131.5t-64 -85t-60.5 -45.5t-58.5 -13.5q-24 0 -35.5 13t-11.5 33z" />
    <glyph glyph-name="uni041C" unicode="&#x41c;" horiz-adv-x="1051" 
d="M326 644l-140 -423q-20 -64 -30 -100.5t-9.5 -55.5t11 -24t31.5 -5l36 -1l-10 -35h-256l10 35l38 1q21 0 35 5t26.5 24t27.5 55.5t37 101.5l147 422q9 26 12 41t-0.5 23t-14 10t-27.5 3l-37 2l10 35h190l84 -598l434 598h203l-10 -35l-39 -2q-18 -1 -30 -3t-20 -10
t-14.5 -23t-13.5 -41l-137 -533q-6 -24 -8.5 -38t1 -21.5t14 -10.5t30.5 -4l35 -2l-10 -35h-292l10 35l37 2q21 1 34 4t21 10.5t13.5 21.5t11.5 38l136 533l-471 -653h-14z" />
    <glyph glyph-name="uni041D" unicode="&#x41d;" horiz-adv-x="925" 
d="M270 647q7 24 10.5 38t0 21.5t-14.5 10.5t-31 4l-36 2l11 35h292l-11 -35l-36 -2q-21 -1 -33.5 -4t-20.5 -10.5t-14 -21.5t-13 -38l-73 -238h420l73 238q7 24 10.5 38t0 21.5t-14.5 10.5t-31 4l-36 2l11 35h292l-11 -35l-36 -2q-21 -1 -33.5 -4t-20.5 -10.5t-14 -21.5
t-13 -38l-164 -536q-8 -24 -11 -38t0.5 -21.5t14.5 -10.5t31 -4l36 -2l-11 -35h-292l11 35l36 2q21 1 33.5 4t20.5 10.5t13.5 21.5t13.5 38l76 250h-420l-76 -250q-8 -24 -11 -38t0.5 -21.5t14.5 -10.5t31 -4l36 -2l-11 -35h-292l11 35l36 2q21 1 33.5 4t20.5 10.5
t13.5 21.5t13.5 38z" />
    <glyph glyph-name="uni041D" unicode="&#x4a2;" horiz-adv-x="925" 
d="M270 647q7 24 10.5 38t0 21.5t-14.5 10.5t-31 4l-36 2l11 35h292l-11 -35l-36 -2q-21 -1 -33.5 -4t-20.5 -10.5t-14 -21.5t-13 -38l-73 -238h420l73 238q7 24 10.5 38t0 21.5t-14.5 10.5t-31 4l-36 2l11 35h292l-11 -35l-36 -2q-21 -1 -33.5 -4t-20.5 -10.5t-14 -21.5
t-13 -38l-164 -536q-8 -24 -11 -38t0.5 -21.5t14.5 -10.5t31 -4l36 -2l-11 -35h-292l11 35l36 2q21 1 33.5 4t20.5 10.5t13.5 21.5t13.5 38l76 250h-420l-76 -250q-8 -24 -11 -38t0.5 -21.5t14.5 -10.5t31 -4l36 -2l-11 -35h-292l11 35l36 2q21 1 33.5 4t20.5 10.5
t13.5 21.5t13.5 38z" />
    <glyph glyph-name="uni041E" unicode="&#x41e;" 
d="M394 -13q-71 0 -128 23t-98 64.5t-63 98.5t-22 126q0 92 38.5 178.5t103.5 153.5t151 107.5t182 40.5q70 0 127.5 -23t98 -64.5t63 -98.5t22.5 -126q0 -92 -38.5 -178.5t-103.5 -153.5t-151 -107.5t-182 -40.5zM400 32q60 0 109 21.5t88 57t67.5 82.5t47.5 98t28 102.5
t9 96.5q0 64 -14.5 110t-40.5 76t-62 44t-80 14q-60 0 -109 -21.5t-88 -57t-67.5 -82.5t-47.5 -98t-28 -102.5t-9 -96.5q0 -64 14.5 -110t40.5 -76t62 -44t80 -14z" />
    <glyph glyph-name="uni041F" unicode="&#x41f;" horiz-adv-x="903" 
d="M787 696q4 14 1.5 18t-16.5 4h-359q-20 0 -25 -19l-180 -588q-8 -24 -11 -38t0.5 -21.5t14.5 -10.5t31 -4l36 -2l-11 -35h-292l11 35l36 2q21 1 33.5 4t20.5 10.5t13.5 21.5t13.5 38l164 536q7 24 10 38t-0.5 21.5t-14 10.5t-31.5 4l-35 2l11 35h796l-11 -35l-37 -2
q-21 -1 -33 -4t-20.5 -10.5t-14 -21.5t-12.5 -38l-164 -536q-8 -24 -11 -38t0.5 -21.5t14.5 -10.5t31 -4l36 -2l-11 -35h-292l11 35l36 2q21 1 33.5 4t20.5 10.5t13.5 21.5t13.5 38z" />
    <glyph glyph-name="uni0420" unicode="&#x420;" horiz-adv-x="657" 
d="M-11 35l36 2q21 1 33.5 4t20.5 10.5t13.5 21.5t13.5 38l164 536q7 24 10.5 38t0 21.5t-14.5 10.5t-31 4l-36 2l11 35h267q51 0 95.5 -9t78 -29.5t53 -52t19.5 -76.5q0 -47 -22 -93t-66 -83t-111.5 -59.5t-158.5 -22.5h-36l11 35h33q63 0 107.5 20.5t72 53t40.5 71.5
t13 76q0 131 -151 131q-35 0 -48 -4t-18 -20l-179 -585q-8 -26 -11 -40.5t2 -21.5t19 -8.5t40 -2.5l41 -1l-11 -37h-312z" />
    <glyph glyph-name="uni0421" unicode="&#x421;" horiz-adv-x="785" 
d="M401 -13q-68 0 -126.5 19.5t-101.5 58.5t-68 97t-25 135q0 99 44.5 186.5t118.5 153t168.5 104t195.5 38.5q57 0 115.5 -8t96.5 -23l-10 -186h-27l-32 105q-7 22 -20 35.5t-32 20.5t-42 9t-49 2q-79 0 -153 -32.5t-131.5 -92.5t-92.5 -144.5t-35 -188.5
q0 -63 17.5 -109.5t48.5 -76.5t74 -44.5t94 -14.5q34 0 58.5 5t45.5 15.5t41 27t45 39.5l102 93h27l-97 -176q-49 -17 -110.5 -32.5t-139.5 -15.5z" />
    <glyph glyph-name="uni0422" unicode="&#x422;" horiz-adv-x="744" 
d="M142 37l42 1q26 1 41 2.5t24 8.5t15 21.5t14 40.5l186 607h-31q-65 0 -106 -2t-69 -11t-47 -28t-40 -53l-28 -45h-27l75 210h8q11 -10 23 -16t33.5 -9.5t55.5 -4.5t90 -1h254q55 0 90 1t58.5 4.5t39 9.5t32.5 16h8l-53 -210h-27v45q0 34 -7.5 53t-29.5 28t-62 11t-105 2
h-31l-186 -607q-8 -26 -11 -40.5t2 -21.5t19 -8.5t40 -2.5l42 -1l-12 -37h-332z" />
    <glyph glyph-name="uni040E" unicode="&#x40e;" horiz-adv-x="756" 
d="M540 357q-66 -77 -114.5 -135t-85 -99t-63 -67.5t-49 -41.5t-43 -21t-44.5 -6q-28 0 -43.5 11t-15.5 33q0 12 5 24.5t16 20.5q37 1 71.5 4.5t53.5 11.5q17 8 44.5 32.5t57.5 55.5l-105 497q-3 14 -7 22.5t-9 13t-12 6t-17 2.5l-32 2l11 35h282l-11 -35l-49 -2
q-14 -1 -23.5 -3t-15 -7t-6.5 -15.5t2 -27.5l78 -387l279 334q25 30 36 49.5t11 31.5t-9.5 17.5t-26.5 6.5l-43 3l11 35h251l-11 -35l-24 -2q-15 -1 -27 -5t-25.5 -15.5t-32 -32t-48.5 -55.5z" />
    <glyph glyph-name="uni040E" unicode="&#x4ee;" horiz-adv-x="756" 
d="M540 357q-66 -77 -114.5 -135t-85 -99t-63 -67.5t-49 -41.5t-43 -21t-44.5 -6q-28 0 -43.5 11t-15.5 33q0 12 5 24.5t16 20.5q37 1 71.5 4.5t53.5 11.5q17 8 44.5 32.5t57.5 55.5l-105 497q-3 14 -7 22.5t-9 13t-12 6t-17 2.5l-32 2l11 35h282l-11 -35l-49 -2
q-14 -1 -23.5 -3t-15 -7t-6.5 -15.5t2 -27.5l78 -387l279 334q25 30 36 49.5t11 31.5t-9.5 17.5t-26.5 6.5l-43 3l11 35h251l-11 -35l-24 -2q-15 -1 -27 -5t-25.5 -15.5t-32 -32t-48.5 -55.5z" />
    <glyph glyph-name="uni040E" unicode="&#x423;" horiz-adv-x="756" 
d="M540 357q-66 -77 -114.5 -135t-85 -99t-63 -67.5t-49 -41.5t-43 -21t-44.5 -6q-28 0 -43.5 11t-15.5 33q0 12 5 24.5t16 20.5q37 1 71.5 4.5t53.5 11.5q17 8 44.5 32.5t57.5 55.5l-105 497q-3 14 -7 22.5t-9 13t-12 6t-17 2.5l-32 2l11 35h282l-11 -35l-49 -2
q-14 -1 -23.5 -3t-15 -7t-6.5 -15.5t2 -27.5l78 -387l279 334q25 30 36 49.5t11 31.5t-9.5 17.5t-26.5 6.5l-43 3l11 35h251l-11 -35l-24 -2q-15 -1 -27 -5t-25.5 -15.5t-32 -32t-48.5 -55.5z" />
    <glyph glyph-name="uni0424" unicode="&#x424;" horiz-adv-x="966" 
d="M559 -20h-292l11 35l36 2q21 1 33.5 4t20.5 10.5t13.5 21.5t13.5 38q-71 3 -128 21t-97.5 48t-62.5 71.5t-22 92.5q0 78 38.5 141.5t105.5 108.5t155.5 71t189.5 30q6 21 8.5 33.5t-1.5 19.5t-15 9.5t-30 3.5l-36 2l11 35h292l-11 -35l-36 -2q-20 -1 -32 -3.5t-20 -9.5
t-13.5 -19.5t-12.5 -33.5q70 -3 127.5 -21t97.5 -48t62 -71.5t22 -92.5q0 -78 -38.5 -141.5t-105 -108.5t-155.5 -71t-189 -30q-8 -24 -11 -38t0.5 -21.5t14.5 -10.5t31 -4l36 -2zM207 335q0 -89 51 -140.5t150 -60.5l153 500q-82 -3 -147.5 -26t-111.5 -62.5t-70.5 -93.5
t-24.5 -117zM865 431q0 89 -51 140t-150 61l-152 -500q82 3 147 26t111 62.5t70.5 93.5t24.5 117z" />
    <glyph glyph-name="uni0425" unicode="&#x425;" horiz-adv-x="808" 
d="M-71 35l38 3q15 1 29 6.5t32 17.5t42 32.5t59 50.5l277 243l-138 309q-6 13 -13.5 17t-32.5 6l-33 3l11 35h283l-11 -35l-45 -3q-29 -2 -40 -8.5t-2 -26.5l103 -229l167 159q27 26 48 45.5t31.5 32.5t8 20t-21.5 8l-44 2l11 35h251l-11 -35l-38 -3q-15 -1 -29.5 -6.5
t-32.5 -17.5t-42 -32t-58 -51l-222 -198l159 -354q3 -6 6 -10t7.5 -6.5t12 -4t20.5 -2.5l33 -3l-11 -35h-283l11 35l45 3q29 2 40 8.5t2 26.5l-123 274l-221 -204q-27 -25 -48 -44.5t-31.5 -33t-8 -20.5t21.5 -8l44 -2l-11 -35h-253z" />
    <glyph glyph-name="uni0425" unicode="&#x4b2;" horiz-adv-x="808" 
d="M-71 35l38 3q15 1 29 6.5t32 17.5t42 32.5t59 50.5l277 243l-138 309q-6 13 -13.5 17t-32.5 6l-33 3l11 35h283l-11 -35l-45 -3q-29 -2 -40 -8.5t-2 -26.5l103 -229l167 159q27 26 48 45.5t31.5 32.5t8 20t-21.5 8l-44 2l11 35h251l-11 -35l-38 -3q-15 -1 -29.5 -6.5
t-32.5 -17.5t-42 -32t-58 -51l-222 -198l159 -354q3 -6 6 -10t7.5 -6.5t12 -4t20.5 -2.5l33 -3l-11 -35h-283l11 35l45 3q29 2 40 8.5t2 26.5l-123 274l-221 -204q-27 -25 -48 -44.5t-31.5 -33t-8 -20.5t21.5 -8l44 -2l-11 -35h-253z" />
    <glyph glyph-name="uni0426" unicode="&#x426;" horiz-adv-x="898" 
d="M740 -159h-30l6 65q3 35 -4 54t-30 28t-64 10.5t-106 1.5h-536l10 35l37 2q21 1 33.5 4t20.5 10.5t13.5 21.5t13.5 38l163 536q7 24 10.5 38t0 21.5t-14.5 10.5t-31 4l-35 2l10 35h292l-10 -35l-37 -2q-21 -1 -33.5 -4t-20.5 -10.5t-14 -21.5t-13 -38l-163 -535
q-7 -22 -7.5 -36t6.5 -22t23 -11t43 -3h226q27 0 44.5 3t29.5 11t20 22t15 36l163 535q7 24 10.5 38t0 21.5t-14.5 10.5t-31 4l-35 2l10 35h292l-10 -35l-37 -2q-21 -1 -33.5 -4t-20.5 -10.5t-14 -21.5t-13 -38l-163 -536q-7 -23 -10 -37t0.5 -21.5t14 -10t31.5 -2.5h45z
" />
    <glyph glyph-name="uni0427" unicode="&#x427;" horiz-adv-x="833" 
d="M238 647q7 24 10 38t-0.5 21.5t-14 10.5t-31.5 4l-35 2l11 35h292l-11 -35l-37 -2q-21 -1 -33 -4t-20.5 -10.5t-14 -21.5t-12.5 -38l-23 -75q-34 -111 -9 -162t126 -51q33 0 59.5 1.5t48 4.5t40 7t36.5 8l82 267q7 24 10 38t-0.5 21.5t-14 10.5t-31.5 4l-35 2l11 35h292
l-11 -35l-37 -2q-21 -1 -33 -4t-20.5 -10.5t-14 -21.5t-12.5 -38l-164 -536q-8 -24 -11 -38t0.5 -21.5t14.5 -10.5t31 -4l36 -2l-11 -35h-292l11 35l36 2q21 1 33.5 4t20.5 10.5t13.5 21.5t13.5 38l68 222q-39 -9 -79 -15.5t-98 -6.5q-152 0 -204 65.5t-10 197.5z" />
    <glyph glyph-name="uni0427" unicode="&#x4b6;" horiz-adv-x="833" 
d="M238 647q7 24 10 38t-0.5 21.5t-14 10.5t-31.5 4l-35 2l11 35h292l-11 -35l-37 -2q-21 -1 -33 -4t-20.5 -10.5t-14 -21.5t-12.5 -38l-23 -75q-34 -111 -9 -162t126 -51q33 0 59.5 1.5t48 4.5t40 7t36.5 8l82 267q7 24 10 38t-0.5 21.5t-14 10.5t-31.5 4l-35 2l11 35h292
l-11 -35l-37 -2q-21 -1 -33 -4t-20.5 -10.5t-14 -21.5t-12.5 -38l-164 -536q-8 -24 -11 -38t0.5 -21.5t14.5 -10.5t31 -4l36 -2l-11 -35h-292l11 35l36 2q21 1 33.5 4t20.5 10.5t13.5 21.5t13.5 38l68 222q-39 -9 -79 -15.5t-98 -6.5q-152 0 -204 65.5t-10 197.5z" />
    <glyph glyph-name="uni0428" unicode="&#x428;" horiz-adv-x="1207" 
d="M1076 0h-1100l11 35l36 2q21 1 33.5 4t20.5 10.5t13.5 21.5t13.5 38l164 536q7 24 10 38t-0.5 21.5t-14 10.5t-31.5 4l-35 2l11 35h292l-11 -35l-37 -2q-21 -1 -33 -4t-20.5 -10.5t-14 -21.5t-12.5 -38l-164 -535q-6 -22 -7 -36t6.5 -22t23 -11t42.5 -3h213l186 607
q7 24 10 38t-0.5 21.5t-14 10.5t-31.5 4l-35 2l11 35h292l-11 -35l-37 -2q-21 -1 -33 -4t-20.5 -10.5t-14 -21.5t-12.5 -38l-186 -607h213q27 0 45 3t30 11t20 22t14 36l164 535q7 24 10 38t-0.5 21.5t-14 10.5t-31.5 4l-35 2l11 35h292l-11 -35l-37 -2q-21 -1 -33 -4
t-20.5 -10.5t-14 -21.5t-12.5 -38l-164 -536q-8 -24 -11 -38t0.5 -21.5t14.5 -10.5t31 -4l36 -2z" />
    <glyph glyph-name="uni0428" unicode="&#x429;" horiz-adv-x="1207" 
d="M1076 0h-1100l11 35l36 2q21 1 33.5 4t20.5 10.5t13.5 21.5t13.5 38l164 536q7 24 10 38t-0.5 21.5t-14 10.5t-31.5 4l-35 2l11 35h292l-11 -35l-37 -2q-21 -1 -33 -4t-20.5 -10.5t-14 -21.5t-12.5 -38l-164 -535q-6 -22 -7 -36t6.5 -22t23 -11t42.5 -3h213l186 607
q7 24 10 38t-0.5 21.5t-14 10.5t-31.5 4l-35 2l11 35h292l-11 -35l-37 -2q-21 -1 -33 -4t-20.5 -10.5t-14 -21.5t-12.5 -38l-186 -607h213q27 0 45 3t30 11t20 22t14 36l164 535q7 24 10 38t-0.5 21.5t-14 10.5t-31.5 4l-35 2l11 35h292l-11 -35l-37 -2q-21 -1 -33 -4
t-20.5 -10.5t-14 -21.5t-12.5 -38l-164 -536q-8 -24 -11 -38t0.5 -21.5t14.5 -10.5t31 -4l36 -2z" />
    <glyph glyph-name="uni042A" unicode="&#x42a;" horiz-adv-x="834" 
d="M527 436q137 0 206.5 -46t69.5 -137q0 -52 -24.5 -98t-73.5 -80.5t-121 -54.5t-166 -20h-296l11 35l36 2q21 1 33.5 4t20.5 10.5t13.5 21.5t13.5 38l186 607q-48 -1 -79.5 -4.5t-54 -13t-39.5 -28t-36 -48.5l-28 -45h-30l63 181l291 -2h123l-11 -35l-37 -2q-21 -1 -33 -4
t-20.5 -10.5t-14 -21.5t-12.5 -38l-65 -211h74zM354 110q-14 -43 1 -57.5t65 -14.5q69 0 119 17t82 46.5t47.5 68t15.5 82.5q0 34 -9.5 60.5t-31.5 44t-58 26.5t-89 9h-56z" />
    <glyph glyph-name="uni042B" unicode="&#x42b;" horiz-adv-x="1029" 
d="M502 758l-11 -35l-37 -2q-21 -1 -33 -4t-20.5 -10.5t-14 -21.5t-12.5 -38l-65 -211h74q137 0 206.5 -46t69.5 -137q0 -52 -24.5 -98t-73.5 -80.5t-121 -54.5t-166 -20h-296l11 35l36 2q21 1 33.5 4t20.5 10.5t13.5 21.5t13.5 38l164 536q7 24 10 38t-0.5 21.5t-14 10.5
t-31.5 4l-35 2l11 35h292zM210 110q-14 -43 1 -57.5t65 -14.5q69 0 119 17t82 46.5t47.5 68t15.5 82.5q0 34 -9.5 60.5t-31.5 44t-58 26.5t-89 9h-56zM898 647q7 24 10.5 38t0 21.5t-14.5 10.5t-31 4l-36 2l11 35h292l-11 -35l-36 -2q-21 -1 -33.5 -4t-20.5 -10.5t-14 -21.5
t-13 -38l-164 -536q-8 -24 -11 -38t0.5 -21.5t14.5 -10.5t31 -4l36 -2l-11 -35h-292l11 35l36 2q21 1 33.5 4t20.5 10.5t13.5 21.5t13.5 38z" />
    <glyph glyph-name="uni042C" unicode="&#x42c;" horiz-adv-x="687" 
d="M499 758l-11 -35l-37 -2q-21 -1 -33 -4t-20.5 -10.5t-14 -21.5t-12.5 -38l-65 -211h74q137 0 206.5 -46t69.5 -137q0 -52 -24.5 -98t-73.5 -80.5t-121 -54.5t-166 -20h-296l11 35l36 2q21 1 33.5 4t20.5 10.5t13.5 21.5t13.5 38l164 536q7 24 10 38t-0.5 21.5t-14 10.5
t-31.5 4l-35 2l11 35h292zM207 110q-14 -43 1 -57.5t65 -14.5q69 0 119 17t82 46.5t47.5 68t15.5 82.5q0 34 -9.5 60.5t-31.5 44t-58 26.5t-89 9h-56z" />
    <glyph glyph-name="uni042D" unicode="&#x42d;" horiz-adv-x="770" 
d="M462 779q66 0 122 -20t97 -59t64.5 -97t23.5 -134q0 -106 -41 -194.5t-111.5 -152.5t-164.5 -99.5t-200 -35.5q-27 0 -55 2t-54.5 6t-50.5 10t-42 13l10 186h27l32 -105q7 -23 19.5 -36t29.5 -20t38.5 -9t45.5 -2q70 0 133.5 21t114.5 62t87.5 101.5t53.5 140.5h-200
q-20 0 -35.5 -1.5t-29 -8.5t-26 -21.5t-26.5 -40.5l-21 -39h-30l82 268h30l-3 -39q-2 -26 1.5 -40.5t12.5 -21.5t24 -8.5t35 -1.5h194q2 21 3.5 42.5t1.5 44.5q0 63 -16 109.5t-43 76.5t-64 44.5t-79 14.5q-30 0 -54.5 -4.5t-45.5 -15t-40.5 -27t-41.5 -40.5l-78 -86h-27
l80 182q43 15 97 25t120 10z" />
    <glyph glyph-name="uni042E" unicode="&#x42e;" horiz-adv-x="1185" 
d="M270 647q7 24 10 38t-0.5 21.5t-14.5 10.5t-31 4l-35 2l11 35h292l-11 -35l-37 -2q-21 -1 -33.5 -4t-20.5 -10.5t-13.5 -21.5t-12.5 -38l-73 -238h131q19 75 62.5 142.5t103 118t132.5 80t153 29.5q68 0 123.5 -23t95 -64.5t61 -98.5t21.5 -126q0 -92 -37.5 -178.5
t-101.5 -153.5t-148 -107.5t-178 -40.5q-68 0 -123.5 23t-95 64.5t-61 98.5t-21.5 126q0 16 1.5 31.5t3.5 30.5h-137l-76 -250q-8 -24 -11 -38t0.5 -21.5t14.5 -10.5t31 -4l36 -2l-11 -35h-292l11 35l36 2q21 1 33.5 4t20.5 10.5t13.5 21.5t13.5 38zM725 32q58 0 106 21.5
t85.5 57t65.5 82.5t46 98t27 102.5t9 96.5q0 64 -13.5 110t-38.5 76t-59 44t-76 14q-58 0 -106 -21.5t-85.5 -57t-65.5 -82.5t-46 -98t-27 -102.5t-9 -96.5q0 -64 13.5 -110t38.5 -76t59 -44t76 -14z" />
    <glyph glyph-name="uni042F" unicode="&#x42f;" horiz-adv-x="792" 
d="M474 350l-335 -350h-179l11 35l23 1q15 1 27.5 4t25 10.5t26.5 19.5t32 30l259 265q-67 11 -100.5 50t-33.5 87q0 55 30 101.5t81.5 81t120.5 54t147 19.5h284l-11 -35l-37 -2q-21 -1 -33 -4t-20.5 -10.5t-14 -21.5t-12.5 -38l-164 -536q-8 -24 -11 -38t0.5 -21.5
t14.5 -10.5t31 -4l36 -2l-11 -35h-302l11 37l33 1q26 1 41 2.5t24 8.5t15 21.5t14 40.5l73 239h-96zM676 697q2 7 1 11.5t-8 7t-22 3t-40 0.5q-67 0 -115.5 -16t-80.5 -45t-47.5 -69t-15.5 -87q0 -24 8 -45.5t26.5 -37t48.5 -24.5t74 -9q17 0 37.5 0.5t39.5 2.5z" />
    <glyph glyph-name="uni0402" unicode="&#x402;" horiz-adv-x="869" 
d="M128 37l42 1q26 1 41 2.5t24 8.5t15 21.5t14 40.5l186 607h-1q-65 0 -106 -2t-69 -11t-47 -28t-40 -53l-28 -45h-27l75 210h8q11 -10 23 -16t33.5 -9.5t55.5 -4.5t90 -1h234q55 0 90 1t58.5 4.5t39 9.5t32.5 16h8l-53 -210h-27v45q0 34 -7.5 53t-29.5 28t-62 11t-105 2
h-41l-104 -340q26 16 56 30.5t54 24.5q23 10 57 17.5t73 7.5q45 0 79 -16.5t53 -47.5t21.5 -75.5t-15.5 -100.5l-14 -43q-10 -30 -19.5 -53t-21.5 -42t-27.5 -34.5t-36.5 -30.5q-16 -11 -38 -25.5t-47 -29.5t-50.5 -30t-48.5 -28l-13 25q43 31 74 55t54.5 51.5t41 64.5
t35.5 94l11 36q11 36 11.5 66t-13 51t-41 32.5t-71.5 11.5q-57 0 -102.5 -17.5t-75.5 -39.5l-68 -221q-8 -26 -11 -40t2 -21t19 -9t40 -3l22 -1l-12 -37h-312z" />
    <glyph glyph-name="uni0404" unicode="&#x404;" horiz-adv-x="785" 
d="M401 -13q-68 0 -126.5 19.5t-101.5 58.5t-68 97t-25 135q0 99 44.5 186.5t118.5 153t168.5 104t195.5 38.5q57 0 115.5 -8t96.5 -23l-10 -186h-27l-32 105q-7 22 -20 35.5t-32 20.5t-42 9t-49 2q-65 0 -127.5 -22.5t-115.5 -65t-93 -102.5t-60 -135h208q20 0 35.5 1.5
t29 8.5t26 21.5t26.5 40.5l21 39h30l-82 -268h-30l3 39q2 26 -1.5 40.5t-12.5 21.5t-24 8.5t-35 1.5h-203q-4 -21 -5.5 -42.5t-1.5 -44.5q0 -63 17.5 -109.5t48.5 -76.5t74 -44.5t94 -14.5q34 0 58.5 5t45.5 15.5t41 27t45 39.5l102 93h27l-97 -176q-49 -17 -110.5 -32.5
t-139.5 -15.5z" />
    <glyph glyph-name="uni0405" unicode="&#x405;" horiz-adv-x="596" 
d="M203 -13q-27 0 -54.5 5t-52.5 13.5t-47 18t-37 18.5l38 217h26l20 -157q2 -14 6.5 -25.5t13.5 -19.5q17 -14 45 -20t62 -6q36 0 71 11t62.5 32.5t44.5 52t17 69.5q0 72 -73 142l-70 68q-38 37 -54.5 74t-16.5 78q0 43 20 83t57.5 71t91 49t121.5 18q54 0 96.5 -8.5
t73.5 -19.5l-39 -182h-25l-15 109q-3 21 -11 30.5t-25 15.5q-14 5 -35 8t-41 3q-39 0 -71 -10.5t-55 -29.5t-36 -44t-13 -55q0 -28 12 -55t39 -53l70 -68q19 -19 36.5 -38.5t31 -42.5t21 -50t7.5 -60q0 -48 -23.5 -92t-65 -77t-98.5 -53t-125 -20z" />
    <glyph glyph-name="uni0406" unicode="&#x406;" horiz-adv-x="401" 
d="M270 647q7 24 10.5 38t0 21.5t-14.5 10.5t-31 4l-36 2l11 35h292l-11 -35l-36 -2q-21 -1 -33.5 -4t-20.5 -10.5t-14 -21.5t-13 -38l-164 -536q-8 -24 -11 -38t0.5 -21.5t14.5 -10.5t31 -4l36 -2l-11 -35h-292l11 35l36 2q21 1 33.5 4t20.5 10.5t13.5 21.5t13.5 38z" />
    <glyph glyph-name="uni0406" unicode="&#x407;" horiz-adv-x="401" 
d="M270 647q7 24 10.5 38t0 21.5t-14.5 10.5t-31 4l-36 2l11 35h292l-11 -35l-36 -2q-21 -1 -33.5 -4t-20.5 -10.5t-14 -21.5t-13 -38l-164 -536q-8 -24 -11 -38t0.5 -21.5t14.5 -10.5t31 -4l36 -2l-11 -35h-292l11 35l36 2q21 1 33.5 4t20.5 10.5t13.5 21.5t13.5 38z" />
    <glyph glyph-name="uni0408" unicode="&#x408;" horiz-adv-x="392" 
d="M-72 -73q43 31 75 55t56 51.5t43 64.5t37 94l139 455q7 24 10.5 38t0 21.5t-14.5 10.5t-31 4l-36 2l11 35h292l-11 -35l-36 -2q-21 -1 -33.5 -4t-20.5 -10.5t-14 -21.5t-13 -38l-133 -435q-11 -37 -21.5 -66t-24 -52t-30.5 -42.5t-42 -36.5q-17 -12 -39 -26t-47 -29.5
t-51 -31t-50 -28.5z" />
    <glyph glyph-name="uni0409" unicode="&#x409;" horiz-adv-x="1077" 
d="M696 436h74q137 0 206.5 -46t69.5 -137q0 -52 -24.5 -98t-73.5 -80.5t-121 -54.5t-166 -20h-296l11 35l36 2q21 1 33.5 4t20.5 10.5t13.5 21.5t13.5 38l179 585q2 4 2 7.5v5.5q0 9 -17 9h-213q-20 0 -25 -19q-43 -140 -81.5 -247.5t-74 -186t-68.5 -131.5t-64 -85
t-60.5 -45.5t-58.5 -13.5q-24 0 -35.5 13t-11.5 33q0 11 4.5 23t14.5 22q26 5 51 12t54 22q26 14 54 45.5t60 92t69 156.5t81 238q5 18 8.5 30t3.5 20q0 14 -11 18t-37 6l-35 2l11 35h596l-11 -35l-37 -2q-21 -1 -33 -4t-20.5 -10.5t-14 -21.5t-12.5 -38zM597 110
q-14 -43 1 -57.5t65 -14.5q69 0 119 17t82 46.5t47.5 68t15.5 82.5q0 34 -9.5 60.5t-31.5 44t-58 26.5t-89 9h-56z" />
    <glyph glyph-name="uni040A" unicode="&#x40a;" horiz-adv-x="1152" 
d="M268 647q7 24 10.5 38t0 21.5t-14.5 10.5t-31 4l-36 2l11 35h292l-11 -35l-36 -2q-21 -1 -33.5 -4t-20.5 -10.5t-14 -21.5t-13 -38l-65 -214h360l65 214q7 24 10 38t-0.5 21.5t-14 10.5t-31.5 4l-35 2l11 35h292l-11 -35l-37 -2q-21 -1 -33 -4t-20 -10.5t-14 -21.5
t-13 -38l-66 -214h74q137 0 207 -44.5t70 -135.5q0 -52 -24.5 -98t-73.5 -80.5t-121 -54.5t-166 -20h-296l11 35l36 2q21 1 33.5 4t20.5 10.5t13.5 21.5t13.5 38l85 278h-360l-85 -278q-8 -24 -11 -38t0.5 -21.5t14.5 -10.5t31 -4l36 -2l-11 -35h-292l11 35l36 2
q21 1 33.5 4t20.5 10.5t13.5 21.5t13.5 38zM672 110q-13 -43 1.5 -57.5t64.5 -14.5q69 0 119 17t82 46.5t47.5 68t15.5 82.5q0 34 -9.5 60t-32 43t-58.5 25.5t-89 8.5h-56z" />
    <glyph glyph-name="uni040B" unicode="&#x40b;" horiz-adv-x="959" 
d="M148 37l42 1q26 1 41 2.5t24 8.5t15 21.5t14 40.5l186 607h-1q-65 0 -106 -2t-69 -11t-47 -28t-40 -53l-28 -45h-27l75 210h8q11 -10 23 -16t33.5 -9.5t55.5 -4.5t90 -1h234q55 0 90 1t58.5 4.5t39 9.5t32.5 16h8l-53 -210h-27v45q0 34 -7.5 53t-29.5 28t-62 11t-105 2
h-41l-104 -339q26 16 54 29.5t48 21.5q29 11 64 19.5t73 8.5q46 0 80.5 -14t54 -44.5t21 -78.5t-19.5 -117l-28 -91q-8 -26 -11 -40.5t0 -22t13.5 -10t30.5 -3.5l37 -2l-11 -35h-198l65 213q12 41 14 73.5t-10.5 55.5t-41 35t-76.5 12q-54 0 -97.5 -16.5t-75.5 -39.5
l-68 -222q-8 -26 -11 -40.5t2 -21.5t19 -8.5t40 -2.5l32 -1l-12 -37h-322z" />
    <glyph glyph-name="uni040F" unicode="&#x40f;" horiz-adv-x="882" 
d="M312 -94q6 31 4 49.5t-16.5 28.5t-45 13t-82.5 3h-196l10 35l37 2q21 1 33.5 4t20.5 10.5t13.5 21.5t13.5 38l163 536q7 24 10.5 38t0 21.5t-14.5 10.5t-31 4l-35 2l10 35h292l-10 -35l-37 -2q-21 -1 -33.5 -4t-20.5 -10.5t-14 -21.5t-13 -38l-163 -535q-7 -22 -7.5 -36
t6.5 -22t23 -11t43 -3h206q27 0 44.5 3t29.5 11t20 22t15 36l163 535q7 24 10.5 38t0 21.5t-14.5 10.5t-31 4l-35 2l10 35h292l-10 -35l-37 -2q-21 -1 -33.5 -4t-20.5 -10.5t-14 -21.5t-13 -38l-163 -536q-8 -24 -11 -38t0.5 -21.5t14.5 -10.5t31 -4l35 -2l-10 -35h-196
q-53 0 -85.5 -3t-53 -13t-33.5 -28.5t-26 -49.5l-28 -65h-30z" />
    <glyph glyph-name="uni0490" unicode="&#x490;" horiz-adv-x="621" 
d="M489 758q62 0 102 1.5t67 10.5t45.5 28t36.5 54l34 65h30l-68 -199h-322q-20 0 -27 -20l-179 -587q-8 -26 -11 -40.5t2 -21.5t19 -9t40 -2l51 -1l-11 -37h-322l11 35l36 2q21 1 33.5 4t20.5 10.5t13.5 21.5t13.5 38l164 536q7 24 10 38t-0.5 21.5t-14 10.5t-31.5 4l-35 2
l11 35h281z" />
    <glyph glyph-name="uni0462" unicode="&#x462;" horiz-adv-x="779" 
d="M600 758l-11 -35l-37 -2q-21 -1 -33.5 -4t-20.5 -10.5t-14 -21.5t-13 -38l-6 -19h26q55 0 90 1t58.5 4.5t39 9.5t32.5 16h8l-53 -210h-30l-1 45q0 33 -6.5 52t-26 28.5t-55 12t-94.5 1.5l-69 -225h99q134 0 199.5 -39.5t65.5 -112.5q0 -41 -25.5 -79.5t-73.5 -67.5
t-118.5 -46.5t-160.5 -17.5h-296l11 35l37 2q21 1 33.5 4t20.5 10.5t13.5 21.5t13.5 38l146 477q-59 0 -96 -2.5t-62.5 -11.5t-43.5 -28t-38 -52l-27 -45h-30l75 210h8q11 -10 23 -16t33.5 -9.5t55.5 -4.5t90 -1h24l6 19q7 24 10.5 38t0 21.5t-14.5 10.5t-31 4l-35 2l11 35
h292zM306 110q-14 -43 1 -57.5t65 -14.5q128 0 192.5 45t64.5 123q0 25 -9 46t-31.5 36t-60.5 23t-96 8h-61z" />
    <glyph glyph-name="uni0472" unicode="&#x472;" 
d="M394 -13q-71 0 -128 23t-98 64.5t-63 98.5t-22 126q0 92 38.5 178.5t103.5 153.5t151 107.5t182 40.5q70 0 127.5 -23t98 -64.5t63 -98.5t22.5 -126q0 -92 -38.5 -178.5t-103.5 -153.5t-151 -107.5t-182 -40.5zM400 32q69 0 124 28t96 73.5t68.5 103.5t42.5 117
q-65 -26 -112.5 -29.5t-85 4.5t-70.5 22t-69 23.5t-80 9t-104 -21.5q-4 -23 -5.5 -44.5t-1.5 -41.5q0 -64 14.5 -110t40.5 -76t62 -44t80 -14zM216 393q87 34 148.5 43t105.5 3.5t76 -20t61 -26.5t59.5 -17t71.5 9q5 27 8 53.5t3 51.5q0 64 -14.5 110t-40.5 76t-62 44
t-80 14q-72 0 -128.5 -30.5t-98 -79t-69 -109.5t-40.5 -122z" />
    <glyph glyph-name="uni0474" unicode="&#x474;" horiz-adv-x="765" 
d="M723 655q24 32 44 55.5t40.5 38.5t42.5 22.5t49 7.5q26 0 38.5 -14t12.5 -34q0 -11 -4.5 -22t-14.5 -19q-29 -2 -58.5 -5.5t-46.5 -10.5q-10 -4 -25 -16.5t-39 -44.5l-479 -626h-36l-27 710q-1 15 -8 18t-33 5l-33 3l10 35h276l-10 -35l-48 -3q-14 -1 -23.5 -2
t-14.5 -4.5t-7 -10t-2 -18.5l17 -538z" />
    <glyph glyph-name="uni04AE" unicode="&#x4ae;" horiz-adv-x="734" 
d="M133 37l43 1q26 1 41 2.5t24 8.5t15 21.5t14 40.5l68 222l-118 364q-4 13 -10.5 17.5t-31.5 6.5l-33 2l11 35h279l-11 -35l-48 -2q-29 -2 -41 -8t-4 -28l98 -301l221 231q53 55 60.5 80t-34.5 26l-39 2l11 35h255l-11 -35l-33 -2q-16 0 -29 -5t-28 -17t-35.5 -33
t-51.5 -53l-274 -282l-67 -220q-8 -26 -11 -40.5t2 -21.5t19 -8.5t40 -2.5l41 -1l-11 -37h-332z" />
    <glyph glyph-name="uni04AE" unicode="&#x4b0;" horiz-adv-x="734" 
d="M133 37l43 1q26 1 41 2.5t24 8.5t15 21.5t14 40.5l68 222l-118 364q-4 13 -10.5 17.5t-31.5 6.5l-33 2l11 35h279l-11 -35l-48 -2q-29 -2 -41 -8t-4 -28l98 -301l221 231q53 55 60.5 80t-34.5 26l-39 2l11 35h255l-11 -35l-33 -2q-16 0 -29 -5t-28 -17t-35.5 -33
t-51.5 -53l-274 -282l-67 -220q-8 -26 -11 -40.5t2 -21.5t19 -8.5t40 -2.5l41 -1l-11 -37h-332z" />
    <glyph glyph-name="uni04BA" unicode="&#x4ba;" horiz-adv-x="825" 
d="M673.959 110.993q-7 -23.998 -10 -37.998q-2.99902 -13.999 0.5 -21.498q3.5 -7.5 14 -10.5q10.499 -2.99902 31.498 -3.99902l34.9971 -2l-10.999 -34.998h-291.982l11 34.998l36.9971 2q20.999 1 32.998 3.99902q12 3 20.499 10.5q8.5 7.49902 13.999 21.498
q5.5 14 12.499 37.998l22.999 74.9951q33.998 110.993 8.99902 161.99q-24.998 50.9971 -125.992 50.9971q-32.998 0 -59.4961 -1.5t-47.9971 -4.5q-21.499 -2.99902 -39.998 -6.99902q-18.498 -4 -36.4971 -8l-81.9951 -266.983q-7 -23.998 -9.99902 -37.998
q-3 -13.999 0.499023 -21.498q3.5 -7.5 14 -10.5q10.499 -2.99902 31.498 -3.99902l34.9971 -2l-10.999 -34.998h-291.982l11 34.998l36.9971 2q20.999 1 32.998 3.99902q12 3 20.499 10.5q8.49902 7.49902 13.999 21.498q5.5 14 12.499 37.998l163.99 535.968
q8 23.998 10.999 37.9971q3 13.999 -0.5 21.499q-3.49902 7.49902 -14.499 10.499q-10.999 3 -30.998 4l-35.9971 2l10.999 34.998h291.982l-11 -34.998l-35.9971 -2q-20.999 -1 -33.498 -4q-12.5 -3 -20.499 -10.499q-8 -7.5 -13.499 -21.499
q-5.5 -13.999 -13.499 -37.9971l-67.9961 -221.987q38.9971 9 78.9951 15.499q39.9971 6.5 97.9941 6.5q151.99 0 203.987 -65.4961t9.99902 -197.488z" />
    <glyph glyph-name="uni04C0" unicode="&#x4c0;" horiz-adv-x="401" 
d="M270 647q7 24 10.5 38t0 21.5t-14.5 10.5t-31 4l-36 2l11 35h292l-11 -35l-36 -2q-21 -1 -33.5 -4t-20.5 -10.5t-14 -21.5t-13 -38l-164 -536q-8 -24 -11 -38t0.5 -21.5t14.5 -10.5t31 -4l36 -2l-11 -35h-292l11 35l36 2q21 1 33.5 4t20.5 10.5t13.5 21.5t13.5 38z" />
    <glyph glyph-name="uni04D8" unicode="&#x4d8;" horiz-adv-x="800" 
d="M356 -11q-69 0 -123.5 23.5t-91 66t-54.5 102t-13 131.5h595q7 28 10 56t3 55q0 72 -19 126t-52 90t-76.5 53.5t-92.5 17.5q-81 0 -157.5 -41.5t-131.5 -126.5l-31 17q22 45 57 85.5t81 70.5t103.5 48t126.5 18q67 0 124 -22.5t98 -64t64 -100t23 -129.5
q0 -99 -36.5 -186t-98 -151.5t-141.5 -101.5t-167 -37zM361 34q59 0 107 19t85 52t63 76t42 91h-471q-10 -114 36.5 -176t137.5 -62z" />
    <glyph glyph-name="uni04E8" unicode="&#x4e8;" 
d="M394 -13q-71 0 -128 23t-98 64.5t-63 98.5t-22 126q0 92 38.5 178.5t103.5 153.5t151 107.5t182 40.5q70 0 127.5 -23t98 -64.5t63 -98.5t22.5 -126q0 -92 -38.5 -178.5t-103.5 -153.5t-151 -107.5t-182 -40.5zM400 32q70 0 125.5 29t97 75.5t69 105.5t41.5 119h-523
q-4 -23 -5.5 -44t-1.5 -41q0 -64 14.5 -110t40.5 -76t62 -44t80 -14zM552 734q-70 0 -125 -28.5t-96 -74.5t-68.5 -104t-42.5 -118h522q4 21 5.5 41t1.5 40q0 64 -14.5 110t-40.5 76t-62 44t-80 14z" />
    <glyph glyph-name="uni0430" unicode="&#x430;" horiz-adv-x="565" 
d="M80 -13q-42 0 -61.5 28t-19.5 66q0 43 19 92.5t51 98t73 93t84.5 78.5t86.5 54.5t78 20.5q44 0 73 -16l72 32l6 -4l-156 -417q-11 -29 -14 -45t9 -16q11 0 28 12t37 31.5t41 45t39 53.5l27 -16q-61 -94 -120 -142.5t-107 -48.5q-46 0 -49 28t18 86l24 66h-1
q-26 -33 -55 -65.5t-59.5 -58t-61.5 -41t-62 -15.5zM141 48q16 0 46 21t64 58t67 87t56 109l36 94q6 15 4.5 26.5t-8 19t-16.5 11t-20 3.5q-27 0 -56.5 -16t-58 -44t-55 -65t-46 -78t-31.5 -84.5t-12 -84.5q0 -23 6.5 -40t23.5 -17z" />
    <glyph glyph-name="uni0431" unicode="&#x431;" horiz-adv-x="530" 
d="M484 269q-19 -61 -51.5 -113t-72.5 -89.5t-84 -58.5t-86 -21q-75 0 -113 50t-38 139q0 58 16 122t45 126.5t71 119.5t94.5 102t113.5 74.5t130 36.5q51 5 86 21t48 51h24q-11 -36 -26 -64.5t-37.5 -49t-55.5 -33t-80 -15.5q-36 -3 -61 -4.5t-42 -4t-29 -6.5t-22 -11
q-32 -23 -66 -77.5t-61 -126.5q18 15 39 29.5t44 26t46.5 18.5t46.5 7q42 0 72.5 -18.5t46.5 -52t17 -79t-15 -99.5zM199 28q30 0 55.5 15t47 41.5t38.5 63t31 79.5q34 108 20 170t-87 62q-32 0 -63.5 -19t-72.5 -55q-20 -61 -31.5 -123.5t-11.5 -117.5q0 -61 20.5 -88.5
t53.5 -27.5z" />
    <glyph glyph-name="uni0432" unicode="&#x432;" horiz-adv-x="500" 
d="M411 175q0 -34 -19.5 -67.5t-51 -60.5t-71.5 -43.5t-82 -16.5q-81 0 -119 34t-38 99q0 42 15 87.5t40.5 90t59 84.5t71.5 70t78 48t78 18q51 0 78.5 -21t27.5 -56q0 -31 -14.5 -56.5t-40 -46.5t-61 -37t-76.5 -27q63 -2 94 -28t31 -71zM348 483q-25 0 -52.5 -15.5
t-53.5 -45t-48 -70.5t-37 -92q63 13 106 34.5t69 46.5t37.5 52t11.5 52q0 17 -8.5 27.5t-24.5 10.5zM137 112q0 -39 13 -65t51 -26q23 0 43 14t34.5 35.5t22.5 48t8 51.5q0 38 -16 58.5t-54 20.5q-19 0 -41.5 -5t-47.5 -13q-6 -28 -9.5 -57.5t-3.5 -61.5z" />
    <glyph glyph-name="uni0433" unicode="&#x433;" horiz-adv-x="483" 
d="M178 -13q-78 0 -120.5 28.5t-42.5 82.5q0 27 9 50t31 43.5t57.5 40t89.5 41.5l54 22q56 23 86.5 54t30.5 75q0 29 -18.5 44t-48.5 15q-40 0 -65 -18t-56 -53l-42 -48l-26 6l59 130q35 10 70 14t63 4q29 0 55.5 -5t46.5 -17t32 -31t12 -46q0 -32 -13.5 -58.5t-37.5 -48
t-57 -39.5t-71 -33l-63 -25q-58 -23 -85.5 -53t-27.5 -69q0 -38 24 -54t55 -16q41 0 71.5 22.5t65.5 70.5l40 54l26 -6l-55 -145q-32 -14 -70 -23t-79 -9z" />
    <glyph glyph-name="uni0433" unicode="&#x493;" horiz-adv-x="483" 
d="M178 -13q-78 0 -120.5 28.5t-42.5 82.5q0 27 9 50t31 43.5t57.5 40t89.5 41.5l54 22q56 23 86.5 54t30.5 75q0 29 -18.5 44t-48.5 15q-40 0 -65 -18t-56 -53l-42 -48l-26 6l59 130q35 10 70 14t63 4q29 0 55.5 -5t46.5 -17t32 -31t12 -46q0 -32 -13.5 -58.5t-37.5 -48
t-57 -39.5t-71 -33l-63 -25q-58 -23 -85.5 -53t-27.5 -69q0 -38 24 -54t55 -16q41 0 71.5 22.5t65.5 70.5l40 54l26 -6l-55 -145q-32 -14 -70 -23t-79 -9z" />
    <glyph glyph-name="uni0433" unicode="&#x453;" horiz-adv-x="483" 
d="M178 -13q-78 0 -120.5 28.5t-42.5 82.5q0 27 9 50t31 43.5t57.5 40t89.5 41.5l54 22q56 23 86.5 54t30.5 75q0 29 -18.5 44t-48.5 15q-40 0 -65 -18t-56 -53l-42 -48l-26 6l59 130q35 10 70 14t63 4q29 0 55.5 -5t46.5 -17t32 -31t12 -46q0 -32 -13.5 -58.5t-37.5 -48
t-57 -39.5t-71 -33l-63 -25q-58 -23 -85.5 -53t-27.5 -69q0 -38 24 -54t55 -16q41 0 71.5 22.5t65.5 70.5l40 54l26 -6l-55 -145q-32 -14 -70 -23t-79 -9z" />
    <glyph glyph-name="uni0434" unicode="&#x434;" horiz-adv-x="535" 
d="M183 -13q-77 0 -115 38t-38 108q0 72 29.5 141t77.5 123.5t109 87.5t123 33q18 0 32 -3t22 -6q1 13 1.5 25.5t0.5 24.5q0 42 -5.5 78.5t-17.5 63.5t-31 42t-47 15q-30 0 -50 -9.5t-40 -29.5l-19 26q20 23 47.5 37.5t68.5 14.5q48 0 83.5 -23.5t58.5 -64t34 -93.5t11 -113
q0 -59 -9.5 -120t-28.5 -118.5t-47.5 -108t-65.5 -88t-83.5 -59.5t-100.5 -22zM135 124q0 -48 14 -73.5t46 -25.5q40 0 76.5 39.5t66 102t51 140t30.5 154.5q-16 19 -53 19q-53 0 -96 -33t-73 -84.5t-46 -114.5t-16 -124z" />
    <glyph glyph-name="uni0435" unicode="&#x435;" horiz-adv-x="442" 
d="M143 -13q-26 0 -49 8.5t-40 25.5t-27 42t-10 57q0 42 14.5 87.5t39.5 90t58.5 84.5t71 70t77 48t76.5 18q46 0 71 -21t25 -56q0 -44 -21.5 -73t-48.5 -48q-22 -6 -52 -14t-62.5 -15.5t-65.5 -15t-61 -13.5q-7 -26 -11 -54.5t-4 -57.5q0 -45 15 -73.5t52 -28.5
q41 0 79 35.5t76 95.5l26 -18q-23 -36 -47.5 -67.5t-52 -55.5t-60 -37.5t-69.5 -13.5zM330 483q-23 0 -48.5 -14.5t-50 -40t-46 -60.5t-36.5 -77q22 5 43 10.5t38 11.5q40 13 66.5 29t42.5 33.5t22 35t6 34.5t-9.5 27.5t-27.5 10.5z" />
    <glyph glyph-name="uni0435" unicode="&#x451;" horiz-adv-x="442" 
d="M143 -13q-26 0 -49 8.5t-40 25.5t-27 42t-10 57q0 42 14.5 87.5t39.5 90t58.5 84.5t71 70t77 48t76.5 18q46 0 71 -21t25 -56q0 -44 -21.5 -73t-48.5 -48q-22 -6 -52 -14t-62.5 -15.5t-65.5 -15t-61 -13.5q-7 -26 -11 -54.5t-4 -57.5q0 -45 15 -73.5t52 -28.5
q41 0 79 35.5t76 95.5l26 -18q-23 -36 -47.5 -67.5t-52 -55.5t-60 -37.5t-69.5 -13.5zM330 483q-23 0 -48.5 -14.5t-50 -40t-46 -60.5t-36.5 -77q22 5 43 10.5t38 11.5q40 13 66.5 29t42.5 33.5t22 35t6 34.5t-9.5 27.5t-27.5 10.5z" />
    <glyph glyph-name="uni0436" unicode="&#x436;" horiz-adv-x="918" 
d="M247 518q42 0 68.5 -34t26.5 -99q0 -57 -23 -121l99 13l83 217l103 22l-85 -225l101 14q21 42 49 80.5t60.5 68t69 47t75.5 17.5q24 0 41.5 -14.5t17.5 -43.5q0 -22 -14 -38t-34 -16q-13 24 -27.5 39.5t-36.5 15.5q-31 0 -59 -26t-49 -69.5t-33 -99.5t-12 -116
q0 -45 9 -73.5t33 -28.5q26 0 54 34t56 97l26 -18q-18 -38 -37 -70t-40.5 -55t-47 -36t-55.5 -13q-42 0 -68.5 34t-26.5 99q0 33 8.5 70.5t23.5 75.5l-98 -13l-92 -244l-106 -20l96 250l-98 -13q-20 -46 -48.5 -89t-63 -76.5t-74 -53.5t-80.5 -20q-24 0 -41.5 14.5
t-17.5 43.5q0 22 14 38t34 16q10 -23 26 -39t38 -16q31 0 59 26t49 69.5t33 99.5t12 116q0 45 -9 73.5t-33 28.5q-26 0 -54 -34t-56 -97l-26 18q18 38 37 70t40.5 55t47 36t55.5 13z" />
    <glyph glyph-name="uni0436" unicode="&#x497;" horiz-adv-x="918" 
d="M247 518q42 0 68.5 -34t26.5 -99q0 -57 -23 -121l99 13l83 217l103 22l-85 -225l101 14q21 42 49 80.5t60.5 68t69 47t75.5 17.5q24 0 41.5 -14.5t17.5 -43.5q0 -22 -14 -38t-34 -16q-13 24 -27.5 39.5t-36.5 15.5q-31 0 -59 -26t-49 -69.5t-33 -99.5t-12 -116
q0 -45 9 -73.5t33 -28.5q26 0 54 34t56 97l26 -18q-18 -38 -37 -70t-40.5 -55t-47 -36t-55.5 -13q-42 0 -68.5 34t-26.5 99q0 33 8.5 70.5t23.5 75.5l-98 -13l-92 -244l-106 -20l96 250l-98 -13q-20 -46 -48.5 -89t-63 -76.5t-74 -53.5t-80.5 -20q-24 0 -41.5 14.5
t-17.5 43.5q0 22 14 38t34 16q10 -23 26 -39t38 -16q31 0 59 26t49 69.5t33 99.5t12 116q0 45 -9 73.5t-33 28.5q-26 0 -54 -34t-56 -97l-26 18q18 38 37 70t40.5 55t47 36t55.5 13z" />
    <glyph glyph-name="uni0437" unicode="&#x437;" horiz-adv-x="435" 
d="M137 21q28 0 50.5 13t38 34t23.5 46t8 49q0 32 -16.5 56t-52.5 24q-16 0 -35 -4.5t-40 -11.5l3 36q58 12 97 30.5t63 40t34 45t10 45.5q0 17 -10.5 29t-40.5 12q-80 0 -159 -106l-26 18q18 28 40.5 53.5t50.5 45t60 31t68 11.5q55 0 82.5 -23t27.5 -58q0 -31 -13.5 -57
t-37 -47.5t-56 -38t-71.5 -26.5q63 -2 94 -28t31 -72q0 -34 -20.5 -66.5t-54.5 -58t-78 -41t-90 -15.5q-71 0 -104 22t-33 53q0 22 14 38t34 16q8 -15 19.5 -31.5t25.5 -30.5t30 -23.5t34 -9.5z" />
    <glyph glyph-name="uni0438" unicode="&#x438;" horiz-adv-x="615" 
d="M367 170h-2q-76 -90 -139 -136.5t-121 -46.5q-55 0 -61 44.5t26 124.5l104 253q7 17 2 20.5t-31 -0.5l-63 -9l-3 27l223 68l6 -6l-138 -339q-25 -62 -26 -91t25 -29q23 0 59.5 24.5t76 68.5t77.5 106t63 137l38 110l106 20l-155 -403q-11 -29 -14 -45t9 -16q11 0 28 12
t37 31.5t41 45t39 53.5l27 -16q-61 -94 -120 -142.5t-107 -48.5q-46 0 -50 27t17 85z" />
    <glyph glyph-name="uni0438" unicode="&#x4e3;" horiz-adv-x="615" 
d="M367 170h-2q-76 -90 -139 -136.5t-121 -46.5q-55 0 -61 44.5t26 124.5l104 253q7 17 2 20.5t-31 -0.5l-63 -9l-3 27l223 68l6 -6l-138 -339q-25 -62 -26 -91t25 -29q23 0 59.5 24.5t76 68.5t77.5 106t63 137l38 110l106 20l-155 -403q-11 -29 -14 -45t9 -16q11 0 28 12
t37 31.5t41 45t39 53.5l27 -16q-61 -94 -120 -142.5t-107 -48.5q-46 0 -50 27t17 85z" />
    <glyph glyph-name="uni0438" unicode="&#x439;" horiz-adv-x="615" 
d="M367 170h-2q-76 -90 -139 -136.5t-121 -46.5q-55 0 -61 44.5t26 124.5l104 253q7 17 2 20.5t-31 -0.5l-63 -9l-3 27l223 68l6 -6l-138 -339q-25 -62 -26 -91t25 -29q23 0 59.5 24.5t76 68.5t77.5 106t63 137l38 110l106 20l-155 -403q-11 -29 -14 -45t9 -16q11 0 28 12
t37 31.5t41 45t39 53.5l27 -16q-61 -94 -120 -142.5t-107 -48.5q-46 0 -50 27t17 85z" />
    <glyph glyph-name="uni043A" unicode="&#x43a;" horiz-adv-x="600" 
d="M394 -27q-23 0 -38.5 10.5t-30.5 40.5l-116 232l182 107q25 15 39.5 30.5t21.5 32t7.5 34t-0.5 37.5q3 9 15 15t27 6q20 0 37.5 -13t17.5 -33q0 -11 -3.5 -22.5t-17.5 -27t-42 -35.5t-76 -47l-120 -67l114 -214q5 -9 11.5 -15.5t14.5 -6.5q9 0 22 10t28.5 27.5t32.5 41.5
t34 51l27 -17q-30 -46 -54 -79.5t-45.5 -55t-42.5 -32t-45 -10.5zM169 409q7 17 2 20.5t-31 -0.5l-63 -9l-3 27l221 68l6 -6l-189 -500l-106 -20z" />
    <glyph glyph-name="uni043A" unicode="&#x49b;" horiz-adv-x="600" 
d="M394 -27q-23 0 -38.5 10.5t-30.5 40.5l-116 232l182 107q25 15 39.5 30.5t21.5 32t7.5 34t-0.5 37.5q3 9 15 15t27 6q20 0 37.5 -13t17.5 -33q0 -11 -3.5 -22.5t-17.5 -27t-42 -35.5t-76 -47l-120 -67l114 -214q5 -9 11.5 -15.5t14.5 -6.5q9 0 22 10t28.5 27.5t32.5 41.5
t34 51l27 -17q-30 -46 -54 -79.5t-45.5 -55t-42.5 -32t-45 -10.5zM169 409q7 17 2 20.5t-31 -0.5l-63 -9l-3 27l221 68l6 -6l-189 -500l-106 -20z" />
    <glyph glyph-name="uni043A" unicode="&#x45c;" horiz-adv-x="600" 
d="M394 -27q-23 0 -38.5 10.5t-30.5 40.5l-116 232l182 107q25 15 39.5 30.5t21.5 32t7.5 34t-0.5 37.5q3 9 15 15t27 6q20 0 37.5 -13t17.5 -33q0 -11 -3.5 -22.5t-17.5 -27t-42 -35.5t-76 -47l-120 -67l114 -214q5 -9 11.5 -15.5t14.5 -6.5q9 0 22 10t28.5 27.5t32.5 41.5
t34 51l27 -17q-30 -46 -54 -79.5t-45.5 -55t-42.5 -32t-45 -10.5zM169 409q7 17 2 20.5t-31 -0.5l-63 -9l-3 27l221 68l6 -6l-189 -500l-106 -20z" />
    <glyph glyph-name="uni043B" unicode="&#x43b;" horiz-adv-x="552" 
d="M407 459h-116l-117 -244q-31 -65 -57.5 -107.5t-50 -68t-44.5 -36t-41 -10.5q-18 0 -30.5 12t-12.5 32q0 12 3.5 22.5t10.5 15.5q37 12 65.5 24.5t54 36t50 61.5t54.5 101l76 161h-72l19 43h322l-150 -389q-11 -29 -14 -45t9 -16q11 0 28 12t37 31.5t41 45t39 53.5
l27 -16q-61 -94 -120 -142.5t-107 -48.5q-46 0 -50 27t17 85z" />
    <glyph glyph-name="uni043C" unicode="&#x43c;" horiz-adv-x="793" 
d="M635 424l-342 -432h-32l12 377l-98 -178q-30 -54 -52.5 -91.5t-42.5 -61t-39.5 -34.5t-42.5 -11q-18 0 -30.5 12t-12.5 32q0 12 3.5 22.5t10.5 15.5q31 7 55.5 16.5t46 26.5t42 44t43.5 69l116 212q-6 10 -32 6l-63 -9l-3 27l183 48l6 -9l-11 -371l286 357l129 24
l-155 -403q-11 -29 -14 -45t9 -16q11 0 28 12t37 31.5t41 45t39 53.5l27 -16q-61 -94 -120 -142.5t-107 -48.5q-46 0 -50 27t17 85z" />
    <glyph glyph-name="uni043D" unicode="&#x43d;" horiz-adv-x="602" 
d="M169 409q7 17 2 20.5t-31 -0.5l-63 -9l-3 27l221 68l6 -6l-98 -259l192 36l75 210l106 20l-155 -403q-11 -29 -14 -45t9 -16q11 0 28 12t37 31.5t41 45t39 53.5l27 -16q-61 -94 -120 -142.5t-107 -48.5q-46 0 -50 27t17 85l53 149l-192 -36l-77 -203l-106 -20z" />
    <glyph glyph-name="uni043D" unicode="&#x4a3;" horiz-adv-x="602" 
d="M169 409q7 17 2 20.5t-31 -0.5l-63 -9l-3 27l221 68l6 -6l-98 -259l192 36l75 210l106 20l-155 -403q-11 -29 -14 -45t9 -16q11 0 28 12t37 31.5t41 45t39 53.5l27 -16q-61 -94 -120 -142.5t-107 -48.5q-46 0 -50 27t17 85l53 149l-192 -36l-77 -203l-106 -20z" />
    <glyph glyph-name="uni043E" unicode="&#x43e;" horiz-adv-x="530" 
d="M173 -13q-42 0 -70.5 14t-46.5 36t-25.5 48.5t-7.5 52.5q0 46 15 91.5t40.5 88t59.5 79t71.5 63.5t76 42.5t74.5 15.5q42 0 70.5 -14t46.5 -36t25.5 -49t7.5 -52q0 -45 -15 -91t-40.5 -88.5t-59.5 -79t-71.5 -63.5t-76 -42.5t-74.5 -15.5zM196 27q33 0 61 18.5t51 49
t41 68.5t30.5 77t19 74.5t6.5 61.5q0 54 -17 78t-51 24q-32 0 -60.5 -18.5t-51.5 -49t-41 -68.5t-30.5 -77t-19 -74.5t-6.5 -61.5q0 -54 17 -78t51 -24z" />
    <glyph glyph-name="uni043F" unicode="&#x43f;" horiz-adv-x="619" 
d="M176 409q7 17 2 20.5t-31 -0.5l-63 -9l-3 27l221 68l6 -6l-71 -174h1q78 91 139.5 137t119.5 46q55 0 61 -44.5t-26 -124.5l-96 -236q-12 -29 -14.5 -45t9.5 -16q11 0 28 12t37 31.5t41 45t39 53.5l27 -16q-61 -94 -120 -142.5t-107 -48.5q-46 0 -54.5 27t14.5 85l96 236
q25 62 26 91t-25 29q-22 0 -58 -24t-75 -65.5t-75 -97.5t-58 -120l-48 -139l-106 -20z" />
    <glyph glyph-name="uni0440" unicode="&#x440;" horiz-adv-x="567" 
d="M168 409q6 17 1.5 20.5t-30.5 -0.5l-63 -9l-3 27l216 68l6 -6l-41 -107h1q21 24 45 45t49.5 37t50.5 25t49 9q62 0 87.5 -34.5t23.5 -88.5q-2 -44 -19 -91t-44 -92.5t-62.5 -86t-74 -71.5t-78 -49t-75.5 -18q-25 0 -48 5.5t-37 13.5l-87 -254h-90zM214 24q47 0 89 34.5
t74 86.5t52 112.5t23 111.5q2 44 -12 68t-43 24q-33 0 -74 -28t-82 -77l-85 -250q-7 -20 -4.5 -35t11 -25.5t22 -16t29.5 -5.5z" />
    <glyph glyph-name="uni0441" unicode="&#x441;" horiz-adv-x="433" 
d="M143 -13q-26 0 -49 8.5t-40 25.5t-27 42t-10 57q0 38 13.5 82.5t37.5 88.5t56.5 85t71 72.5t80 50.5t84.5 19q36 0 62.5 -16t26.5 -45q0 -22 -14 -38t-34 -16q-21 26 -47 42t-57 16q-35 0 -66.5 -26t-55 -69.5t-37.5 -99.5t-14 -116q0 -45 15 -73.5t52 -28.5
q41 0 79 35.5t76 95.5l26 -18q-23 -36 -47.5 -67.5t-52 -55.5t-60 -37.5t-69.5 -13.5z" />
    <glyph glyph-name="uni0442" unicode="&#x442;" horiz-adv-x="904" 
d="M176 409q7 17 2 20.5t-31 -0.5l-63 -9l-3 27l221 68l6 -6l-71 -174h1q78 91 139.5 137t119.5 46q55 0 61 -46t-36 -137h1q78 91 139.5 137t119.5 46q55 0 61 -44.5t-26 -124.5l-96 -236q-12 -29 -14.5 -45t9.5 -16q11 0 28 12t37 31.5t41 45t39 53.5l27 -16
q-61 -94 -120 -142.5t-107 -48.5q-46 0 -54.5 27t14.5 85l96 236q25 62 26 91t-25 29q-22 0 -58 -24t-75 -65.5t-75 -97.5t-58 -120l-48 -139l-106 -20l134 346q24 62 25.5 91t-24.5 29q-22 0 -58 -24t-75 -65.5t-75 -97.5t-58 -120l-48 -139l-106 -20z" />
    <glyph glyph-name="uni0443" unicode="&#x443;" horiz-adv-x="547" 
d="M250 128l151 209q37 52 63 86.5t46 55.5t36 30t33 9q18 0 30.5 -12t12.5 -32q0 -12 -3.5 -22.5t-10.5 -15.5q-30 -9 -53 -18.5t-44.5 -24.5t-43.5 -39t-50 -63l-198 -279q-18 -24 -39 -53t-44.5 -57.5t-48 -55.5t-48.5 -48q-44 -39 -70 -52t-52 -13q-25 0 -35.5 12.5
t-10.5 28.5q0 17 6.5 29t17.5 16q15 -1 32 -1t33 2t30 5.5t22 9.5q39 26 76 69.5t73 100.5l-1 401q0 23 -5.5 26.5t-23.5 0.5l-60 -13l-6 26l182 72l6 -6z" />
    <glyph glyph-name="uni0443" unicode="&#x4ef;" horiz-adv-x="547" 
d="M250 128l151 209q37 52 63 86.5t46 55.5t36 30t33 9q18 0 30.5 -12t12.5 -32q0 -12 -3.5 -22.5t-10.5 -15.5q-30 -9 -53 -18.5t-44.5 -24.5t-43.5 -39t-50 -63l-198 -279q-18 -24 -39 -53t-44.5 -57.5t-48 -55.5t-48.5 -48q-44 -39 -70 -52t-52 -13q-25 0 -35.5 12.5
t-10.5 28.5q0 17 6.5 29t17.5 16q15 -1 32 -1t33 2t30 5.5t22 9.5q39 26 76 69.5t73 100.5l-1 401q0 23 -5.5 26.5t-23.5 0.5l-60 -13l-6 26l182 72l6 -6z" />
    <glyph glyph-name="uni0443" unicode="&#x45e;" horiz-adv-x="547" 
d="M250 128l151 209q37 52 63 86.5t46 55.5t36 30t33 9q18 0 30.5 -12t12.5 -32q0 -12 -3.5 -22.5t-10.5 -15.5q-30 -9 -53 -18.5t-44.5 -24.5t-43.5 -39t-50 -63l-198 -279q-18 -24 -39 -53t-44.5 -57.5t-48 -55.5t-48.5 -48q-44 -39 -70 -52t-52 -13q-25 0 -35.5 12.5
t-10.5 28.5q0 17 6.5 29t17.5 16q15 -1 32 -1t33 2t30 5.5t22 9.5q39 26 76 69.5t73 100.5l-1 401q0 23 -5.5 26.5t-23.5 0.5l-60 -13l-6 26l182 72l6 -6z" />
    <glyph glyph-name="uni0444" unicode="&#x444;" horiz-adv-x="702" 
d="M488 517q54 -3 91.5 -19.5t60 -40t32.5 -52.5t10 -58q0 -65 -31.5 -126.5t-84 -111t-119.5 -82t-139 -38.5l-81 -237h-90l80 236q-54 3 -91.5 20.5t-60 42.5t-32.5 56t-10 61q0 63 31.5 123t84 108t119.5 79.5t139 38.5l59 172q7 20 6 26t-14 12l-64 31l2 6l209 66z
M128 159q0 -65 26 -94.5t77 -35.5l153 448q-47 -4 -84 -22t-65.5 -44.5t-49 -59.5t-33 -67.5t-18.5 -67t-6 -57.5zM577 356q0 60 -26 87.5t-77 32.5l-153 -448q47 4 84 22.5t65.5 46.5t49 62t33 69t18.5 68.5t6 59.5z" />
    <glyph glyph-name="uni0445" unicode="&#x445;" horiz-adv-x="591" 
d="M-32 54q0 20 15 36t35 14q36 -51 72 -51q16 0 29 10q6 5 17 15.5t27.5 30t39.5 50.5t54 76l-17 141q-6 48 -13 64t-21 16q-18 0 -47.5 -29t-61.5 -70l-26 19q53 70 101 106t91 36q15 0 25 -5t17 -17.5t11 -33.5t8 -52l10 -84q37 59 67.5 96.5t56 58.5t47.5 29t43 8
q35 0 56 -18t21 -49q0 -20 -15 -36t-35 -14q-36 51 -72 51q-16 0 -29 -10q-6 -5 -16.5 -15t-26.5 -29t-38.5 -48.5t-52.5 -73.5l18 -147q6 -48 12.5 -64t20.5 -16q18 0 47.5 29t61.5 70l26 -19q-53 -70 -101 -106t-91 -36q-15 0 -25 5t-16.5 17.5t-10.5 33.5t-8 52l-11 90
q-39 -61 -69.5 -99.5t-56.5 -60.5t-48.5 -30t-43.5 -8q-35 0 -56 18t-21 49z" />
    <glyph glyph-name="uni0445" unicode="&#x4b3;" horiz-adv-x="591" 
d="M-32 54q0 20 15 36t35 14q36 -51 72 -51q16 0 29 10q6 5 17 15.5t27.5 30t39.5 50.5t54 76l-17 141q-6 48 -13 64t-21 16q-18 0 -47.5 -29t-61.5 -70l-26 19q53 70 101 106t91 36q15 0 25 -5t17 -17.5t11 -33.5t8 -52l10 -84q37 59 67.5 96.5t56 58.5t47.5 29t43 8
q35 0 56 -18t21 -49q0 -20 -15 -36t-35 -14q-36 51 -72 51q-16 0 -29 -10q-6 -5 -16.5 -15t-26.5 -29t-38.5 -48.5t-52.5 -73.5l18 -147q6 -48 12.5 -64t20.5 -16q18 0 47.5 29t61.5 70l26 -19q-53 -70 -101 -106t-91 -36q-15 0 -25 5t-16.5 17.5t-10.5 33.5t-8 52l-11 90
q-39 -61 -69.5 -99.5t-56.5 -60.5t-48.5 -30t-43.5 -8q-35 0 -56 18t-21 49z" />
    <glyph glyph-name="uni0446" unicode="&#x446;" horiz-adv-x="626" 
d="M367 170h-2q-76 -90 -139 -136.5t-121 -46.5q-55 0 -61 44.5t26 124.5l104 253q7 17 2 20.5t-31 -0.5l-63 -9l-3 27l223 68l6 -6l-138 -339q-25 -62 -26 -91t25 -29q23 0 59.5 24.5t76 68.5t77.5 106t63 137l38 110l106 20l-155 -403q-11 -29 -14 -45t9 -16q11 0 28 12
t37 31.5t41 45t39 53.5l27 -16q-19 -36 -28 -61t-11.5 -44t0 -34t6.5 -32t8 -37.5t4 -50.5q0 -45 -31 -71.5t-103 -34.5l7 24q30 4 40.5 22.5t10.5 44.5q0 31 1 55.5t4.5 46t9.5 41.5t16 42q-90 -102 -161 -102q-46 0 -50 27t17 85z" />
    <glyph glyph-name="uni0447" unicode="&#x447;" horiz-adv-x="577" 
d="M375 296h-2q-57 -73 -106.5 -104t-99.5 -31q-60 0 -70.5 39.5t21.5 116.5l38 92q7 17 2 20.5t-31 -0.5l-63 -9l-3 27l223 68l6 -6l-81 -200q-18 -45 -18 -71.5t26 -26.5q22 0 51 16.5t60 51.5t61.5 88.5t55.5 128.5l106 20l-155 -403q-11 -29 -14 -45t9 -16q11 0 28 12
t37 31.5t41 45t39 53.5l27 -16q-61 -94 -120 -142.5t-107 -48.5q-46 0 -50 27t17 85z" />
    <glyph glyph-name="uni0447" unicode="&#x4b7;" horiz-adv-x="577" 
d="M375 296h-2q-57 -73 -106.5 -104t-99.5 -31q-60 0 -70.5 39.5t21.5 116.5l38 92q7 17 2 20.5t-31 -0.5l-63 -9l-3 27l223 68l6 -6l-81 -200q-18 -45 -18 -71.5t26 -26.5q22 0 51 16.5t60 51.5t61.5 88.5t55.5 128.5l106 20l-155 -403q-11 -29 -14 -45t9 -16q11 0 28 12
t37 31.5t41 45t39 53.5l27 -16q-61 -94 -120 -142.5t-107 -48.5q-46 0 -50 27t17 85z" />
    <glyph glyph-name="uni0448" unicode="&#x448;" horiz-adv-x="887" 
d="M357 170q-76 -90 -139 -136.5t-121 -46.5q-55 0 -61 44.5t26 124.5l104 253q7 17 2 20.5t-31 -0.5l-63 -9l-3 27l223 68l6 -6l-138 -339q-25 -62 -26 -91t25 -29q23 0 59 24.5t76 69t77.5 106t63.5 136.5l38 110l107 20l-140 -346q-25 -62 -26 -91t25 -29q23 0 59.5 24.5
t76 68.5t77.5 106t63 137l38 110l106 20l-155 -403q-11 -29 -14 -45t9 -16q11 0 28 12t37 31.5t41 45t39 53.5l27 -16q-61 -94 -120 -142.5t-107 -48.5q-46 0 -50 27t17 85l26 71h-2q-76 -90 -139 -136.5t-121 -46.5q-45 0 -53 41t20 106l15 36h-2z" />
    <glyph glyph-name="uni0448" unicode="&#x449;" horiz-adv-x="887" 
d="M357 170q-76 -90 -139 -136.5t-121 -46.5q-55 0 -61 44.5t26 124.5l104 253q7 17 2 20.5t-31 -0.5l-63 -9l-3 27l223 68l6 -6l-138 -339q-25 -62 -26 -91t25 -29q23 0 59 24.5t76 69t77.5 106t63.5 136.5l38 110l107 20l-140 -346q-25 -62 -26 -91t25 -29q23 0 59.5 24.5
t76 68.5t77.5 106t63 137l38 110l106 20l-155 -403q-11 -29 -14 -45t9 -16q11 0 28 12t37 31.5t41 45t39 53.5l27 -16q-61 -94 -120 -142.5t-107 -48.5q-46 0 -50 27t17 85l26 71h-2q-76 -90 -139 -136.5t-121 -46.5q-45 0 -53 41t20 106l15 36h-2z" />
    <glyph glyph-name="uni044A" unicode="&#x44a;" horiz-adv-x="497" 
d="M199 -13q-68 0 -99.5 30.5t-31.5 82.5q0 45 18.5 84t51 75t75.5 71t92 74q-34 4 -59.5 13t-45 18t-35.5 15.5t-31 6.5q-16 0 -26 -7.5t-10 -23.5q0 -13 5.5 -23t13.5 -18t16 -15t14 -13q0 -19 -15 -31t-36 -12q-27 0 -41.5 16.5t-14.5 40.5t9.5 43t24.5 34.5t33.5 28
t36.5 23.5q20 13 34.5 17t26.5 2q17 -3 35 -11t36.5 -17t36.5 -16t35 -7q15 0 29 5.5t26 13.5t23 17t20 17l22 -25q-63 -47 -114 -94.5t-90 -94.5q39 16 76 16q51 0 80 -31t29 -83q0 -39 -19.5 -78.5t-53.5 -71.5t-79.5 -52t-97.5 -20zM156 83q0 -32 12.5 -47t41.5 -15
q28 0 53.5 14.5t44.5 39.5t30 57.5t11 67.5q0 34 -15.5 54.5t-48.5 20.5q-14 0 -26.5 -3t-32.5 -14q-34 -48 -52 -92.5t-18 -82.5z" />
    <glyph glyph-name="uni044B" unicode="&#x44b;" horiz-adv-x="742" 
d="M610 496l106 20l-155 -403q-11 -29 -14 -45t9 -16q11 0 28 12t37 31.5t41 45t39 53.5l27 -16q-61 -94 -120 -142.5t-107 -48.5q-46 0 -50 27t17 85zM428 209q0 -39 -19.5 -78.5t-53.5 -71.5t-79.5 -52t-97.5 -20q-82 0 -111.5 52.5t9.5 149.5l90 220q7 17 2 20.5
t-31 -0.5l-63 -9l-3 27l223 68l6 -6l-88 -217q59 31 107 31q51 0 80 -31t29 -83zM189 21q27 0 51.5 14.5t42.5 39.5t29 57.5t11 67.5q0 34 -14 54.5t-45 20.5q-16 0 -29.5 -4t-38.5 -18l-41 -101q-11 -27 -16.5 -51t-2.5 -42t15.5 -28t37.5 -10z" />
    <glyph glyph-name="uni044C" unicode="&#x44c;" horiz-adv-x="476" 
d="M428 209q0 -39 -19.5 -78.5t-53.5 -71.5t-79.5 -52t-97.5 -20q-82 0 -111.5 52.5t9.5 149.5l90 220q7 17 2 20.5t-31 -0.5l-63 -9l-3 27l223 68l6 -6l-88 -217q59 31 107 31q51 0 80 -31t29 -83zM189 21q27 0 51.5 14.5t42.5 39.5t29 57.5t11 67.5q0 34 -14 54.5
t-45 20.5q-16 0 -29.5 -4t-38.5 -18l-41 -101q-11 -27 -16.5 -51t-2.5 -42t15.5 -28t37.5 -10z" />
    <glyph glyph-name="uni044D" unicode="&#x44d;" horiz-adv-x="432" 
d="M111 250l191 36q3 28 3 59q0 50 -15 81t-52 31q-34 0 -67 -26t-63 -72l-26 18q19 30 40.5 56t47 44.5t54.5 29.5t62 11q26 0 49 -9.5t40 -27.5t27 -45t10 -61q0 -42 -13.5 -87.5t-37.5 -88.5t-56.5 -81.5t-71 -67.5t-80.5 -46t-84 -17q-36 0 -62.5 14.5t-26.5 43.5
q0 22 14 38t34 16q21 -26 47 -40.5t57 -14.5q28 0 54.5 14.5t48 41.5t37.5 65t25 85l-197 -37z" />
    <glyph glyph-name="uni044E" unicode="&#x44e;" horiz-adv-x="769" 
d="M169 409q7 17 2 20.5t-31 -0.5l-63 -9l-3 27l221 68l6 -6l-98 -259l88 17q22 51 58 96.5t78 80t86.5 54.5t85.5 20q42 0 70.5 -14t46.5 -36t25.5 -49t7.5 -52q0 -45 -15 -91t-40.5 -88.5t-59.5 -79t-71.5 -63.5t-76 -42.5t-74.5 -15.5q-42 0 -70.5 14t-46.5 36
t-25.5 48.5t-7.5 52.5q0 46 15 91l-88 -17l-77 -203l-106 -20zM435 27q32 0 60.5 18.5t51.5 49t41 68.5t30.5 77t19 74.5t6.5 61.5q0 54 -17 78t-51 24q-32 0 -60.5 -18.5t-51.5 -49t-41 -68.5t-30.5 -77t-19 -74.5t-6.5 -61.5q0 -54 17 -78t51 -24z" />
    <glyph glyph-name="uni044F" unicode="&#x44f;" horiz-adv-x="543" 
d="M529 178q-61 -94 -120 -142.5t-107 -48.5q-46 0 -50 27t17 85l64 177l-95 -102q-47 -50 -80.5 -84.5t-59 -56t-45.5 -31t-40 -9.5q-18 0 -30.5 12t-12.5 32q0 12 3.5 22.5t10.5 15.5q43 12 76.5 23t64.5 28.5t62.5 43.5t71.5 67q-13 -8 -36.5 -16t-55.5 -8
q-30 0 -49.5 17.5t-19.5 53.5q0 37 23 78.5t60.5 76t84.5 57t96 22.5q47 0 75 -16l72 32l6 -4l-153 -417q-11 -29 -14 -45t9 -16q11 0 28 12t37 31.5t41 45t39 53.5zM353 477q-33 0 -61.5 -17.5t-50 -43t-33.5 -54.5t-12 -53q0 -23 10 -36t33 -13q45 0 77.5 32t55.5 94l9 25
q12 34 3.5 50t-31.5 16z" />
    <glyph glyph-name="uni0452" unicode="&#x452;" horiz-adv-x="529" 
d="M406 455q-22 0 -58 -24t-75 -65.5t-75 -97.5t-58 -120l-43 -140l-102 -19l216 621h-96l15 43h96l13 36q7 20 6 26t-14 12l-64 31l2 6l209 66l-61 -177h109l-15 -43h-109l-64 -185l-33 -96h1q83 97 144.5 143t119.5 46q55 0 61 -44.5t-26 -124.5l-123 -304
q-15 -36 -26.5 -65t-24 -52.5t-29 -43t-41.5 -36.5q-17 -12 -39 -26t-47 -29.5t-51 -31t-50 -28.5l-13 24q43 31 74 56t55.5 53.5t45 65.5t43.5 93l126 310q25 62 26 91t-25 29z" />
    <glyph glyph-name="uni0454" unicode="&#x454;" horiz-adv-x="433" 
d="M143 -13q-26 0 -49 8.5t-40 25.5t-27 42t-10 57q0 38 13.5 82.5t37.5 88.5t56.5 85t71 72.5t80 50.5t84.5 19q36 0 62.5 -16t26.5 -45q0 -22 -14 -38t-34 -16q-21 26 -47 42t-57 16q-27 0 -51.5 -15.5t-45 -42t-37 -62.5t-26.5 -77l205 38l-11 -37l-201 -38
q-6 -38 -6 -77q0 -45 15 -73.5t52 -28.5q41 0 79 35.5t76 95.5l26 -18q-23 -36 -47.5 -67.5t-52 -55.5t-60 -37.5t-69.5 -13.5z" />
    <glyph glyph-name="uni0455" unicode="&#x455;" horiz-adv-x="401" 
d="M98 -13q-22 0 -43 6.5t-37 18t-25.5 27t-9.5 32.5q0 18 12.5 32.5t37.5 16.5q16 -17 30 -32.5t29 -27.5t30.5 -19t34.5 -7q32 0 52.5 17.5t20.5 48.5q0 18 -8.5 41t-26.5 48l-43 58q-18 26 -28.5 55t-10.5 59q0 35 17 64t44.5 49.5t61.5 32t68 11.5q21 0 41 -5.5
t35.5 -15.5t25 -23.5t9.5 -28.5q0 -19 -13.5 -34t-37.5 -17q-23 32 -52.5 56t-64.5 24q-29 0 -46.5 -15.5t-17.5 -39.5q0 -22 9 -43.5t29 -49.5l41 -58q25 -36 35.5 -62t10.5 -57q0 -34 -19 -63.5t-49 -51.5t-67.5 -34.5t-74.5 -12.5z" />
    <glyph glyph-name="uni0456" unicode="&#x456;" horiz-adv-x="337" 
d="M92 -13q-46 0 -54 27.5t15 84.5l124 310q7 17 2 20.5t-31 -0.5l-63 -9l-3 27l221 68l6 -6l-157 -396q-11 -29 -14 -45t9 -16q11 0 28 12t37 31.5t41 45t39 53.5l27 -16q-61 -94 -120 -142.5t-107 -48.5zM325 653q-29 0 -48.5 20t-19.5 49t19.5 48.5t48.5 19.5t49 -19.5
t20 -48.5t-20 -49t-49 -20z" />
    <glyph glyph-name="uni0456" unicode="&#x457;" horiz-adv-x="337" 
d="M92 -13q-46 0 -54 27.5t15 84.5l124 310q7 17 2 20.5t-31 -0.5l-63 -9l-3 27l221 68l6 -6l-157 -396q-11 -29 -14 -45t9 -16q11 0 28 12t37 31.5t41 45t39 53.5l27 -16q-61 -94 -120 -142.5t-107 -48.5zM325 653q-29 0 -48.5 20t-19.5 49t19.5 48.5t48.5 19.5t49 -19.5
t20 -48.5t-20 -49t-49 -20z" />
    <glyph glyph-name="uni0458" unicode="&#x458;" horiz-adv-x="291" 
d="M130 45q-13 -36 -24.5 -65t-24.5 -52.5t-30 -43t-42 -36.5q-17 -12 -39 -26t-47 -29.5t-51 -31t-50 -28.5l-13 24q43 31 75.5 55.5t58 53t46.5 66t42 93.5l143 387q6 17 1.5 20.5t-30.5 -0.5l-63 -9l-3 27l215 68l6 -6zM308 653q-29 0 -48.5 20t-19.5 49t19.5 48.5
t48.5 19.5t49 -19.5t20 -48.5t-20 -49t-49 -20z" />
    <glyph glyph-name="uni0459" unicode="&#x459;" horiz-adv-x="690" 
d="M199 502h312l-85 -210q59 31 107 31q51 0 80 -31t29 -83q0 -39 -19.5 -78.5t-53.5 -71.5t-79.5 -52t-97.5 -20q-82 0 -111.5 52.5t9.5 149.5l110 270h-109l-117 -244q-31 -65 -57.5 -107.5t-50 -68t-44.5 -36t-41 -10.5q-18 0 -30.5 12t-12.5 32q0 12 3.5 22.5t10.5 15.5
q37 12 65.5 24.5t54 36t50 61.5t54.5 101l76 161h-72zM403 21q27 0 51.5 14.5t42.5 39.5t29 57.5t11 67.5q0 34 -14 54.5t-45 20.5q-16 0 -29.5 -4t-38.5 -18l-41 -101q-11 -27 -16.5 -51t-2.5 -42t15.5 -28t37.5 -10z" />
    <glyph glyph-name="uni045A" unicode="&#x45a;" horiz-adv-x="733" 
d="M169 409q7 17 2 20.5t-31 -0.5l-63 -9l-3 27l221 68l6 -6l-98 -259l181 34l76 212l106 20l-83 -216q29 10 56.5 16.5t53.5 6.5q51 0 80 -31t29 -83q0 -39 -19.5 -78.5t-53.5 -71.5t-79.5 -52t-97.5 -20q-82 0 -109.5 52t7.5 150l20 57l-181 -34l-77 -203l-106 -20z
M428 156q-11 -28 -16 -52.5t-2 -43t15.5 -29t37.5 -10.5q27 0 51.5 14.5t42.5 39.5t29 57.5t11 67.5q0 34 -14 54.5t-45 20.5q-16 0 -31 -1.5t-37 -8.5z" />
    <glyph glyph-name="uni045B" unicode="&#x45b;" horiz-adv-x="593" 
d="M240 689q7 20 6 26t-14 12l-64 31l2 6l209 66l-140 -405l-33 -96h1q83 97 144 143t120 46q55 0 61 -44.5t-26 -124.5l-96 -236q-12 -29 -14.5 -45t9.5 -16q11 0 28 12t37 31.5t41 45t39 53.5l27 -16q-61 -94 -120 -142.5t-107 -48.5q-46 0 -54.5 27t14.5 85l96 236
q25 62 26 91t-25 29q-22 0 -58 -24t-75 -65.5t-75 -97.5t-58 -120l-43 -140l-102 -19zM131 654h296l-15 -43h-296z" />
    <glyph glyph-name="uni045F" unicode="&#x45f;" horiz-adv-x="615" 
d="M270 0q-23 -44 -32.5 -78.5t-9.5 -57.5q0 -24 32 -27l-7 -24q-59 0 -83.5 13.5t-24.5 41.5q0 18 9 35t23.5 33.5t33.5 32t39 31.5h20zM367 170h-2q-76 -90 -139 -136.5t-121 -46.5q-55 0 -61 44.5t26 124.5l104 253q7 17 2 20.5t-31 -0.5l-63 -9l-3 27l223 68l6 -6
l-138 -339q-25 -62 -26 -91t25 -29q23 0 59.5 24.5t76 68.5t77.5 106t63 137l38 110l106 20l-155 -403q-11 -29 -14 -45t9 -16q11 0 28 12t37 31.5t41 45t39 53.5l27 -16q-61 -94 -120 -142.5t-107 -48.5q-46 0 -50 27t17 85z" />
    <glyph glyph-name="uni0491" unicode="&#x491;" horiz-adv-x="413" 
d="M299 465h-17q-12 0 -17 -4.5t-9 -15.5l-156 -445h-90l152 431q5 16 1.5 24t-29.5 10l-41 2l10 35h172q40 0 63 1.5t39.5 10.5t30 28t34.5 54l27 45h30l-61 -177z" />
    <glyph glyph-name="uni0463" unicode="&#x463;" horiz-adv-x="773" 
d="M725 209q0 -39 -19.5 -78.5t-53.5 -71.5t-79.5 -52t-97.5 -20q-82 0 -111.5 52.5t9.5 149.5l59 146q24 63 25.5 91.5t-24.5 28.5q-22 0 -58 -24t-75 -65.5t-75 -97.5t-58 -120l-48 -139l-106 -20l163 420q7 17 2 20.5t-31 -0.5l-63 -9l-3 27l221 68l6 -6l-71 -174h1
q78 91 139.5 137t119.5 46q55 0 61 -44.5t-26 -124.5l-23 -57q59 31 107 31q51 0 80 -31t29 -83zM452 152q-11 -27 -16.5 -51t-2.5 -42t15.5 -28t37.5 -10q27 0 51.5 14.5t42.5 39.5t29 57.5t11 67.5q0 34 -14 54.5t-45 20.5q-16 0 -29.5 -4t-38.5 -18z" />
    <glyph glyph-name="uni0473" unicode="&#x473;" horiz-adv-x="530" 
d="M173 -13q-42 0 -70.5 14t-46.5 36t-25.5 48.5t-7.5 52.5q0 46 15 91.5t40.5 88t59.5 79t71.5 63.5t76 42.5t74.5 15.5q42 0 70.5 -14t46.5 -36t25.5 -49t7.5 -52q0 -45 -15 -91t-40.5 -88.5t-59.5 -79t-71.5 -63.5t-76 -42.5t-74.5 -15.5zM196 27q31 0 58.5 17.5t50 46
t40.5 64.5t31 74q-33 -19 -57 -23.5t-42.5 -1t-33 12.5t-29 16.5t-30.5 11t-38 -3.5q-9 -32 -13.5 -61t-4.5 -51q0 -54 17 -78t51 -24zM156 275q40 18 68 23t48 2t34.5 -11.5t27 -15.5t25 -11t28.5 1q9 32 13.5 61.5t4.5 51.5q0 54 -17 78t-51 24q-32 0 -59 -17.5t-50 -46.5
t-41 -65.5t-31 -73.5z" />
    <glyph glyph-name="uni0475" unicode="&#x475;" horiz-adv-x="542" 
d="M161 -12h-34l13 418q1 19 -5 25t-24 2l-60 -13l-6 26l181 72l7 -6l-11 -385l196 279q22 31 40 52.5t34.5 35t32.5 19.5t33 6q20 0 29.5 -11t9.5 -26q0 -14 -7.5 -27.5t-20.5 -20.5q-40 -13 -64 -22t-38 -20q-15 -12 -29 -28t-28 -36z" />
    <glyph glyph-name="uni04AF" unicode="&#x4af;" horiz-adv-x="514" 
d="M197 1l-73 -249h-90l73 250l20 404q1 23 -5 26.5t-24 0.5l-60 -13l-6 26l182 72l6 -6l-24 -442l172 267q34 52 59.5 87t46.5 56t38 29.5t34 8.5q18 0 30.5 -12t12.5 -32q0 -12 -3.5 -22.5t-10.5 -15.5q-30 -9 -54 -18.5t-46 -24.5t-44 -39t-47 -63z" />
    <glyph glyph-name="uni04AF" unicode="&#x4b1;" horiz-adv-x="514" 
d="M197 1l-73 -249h-90l73 250l20 404q1 23 -5 26.5t-24 0.5l-60 -13l-6 26l182 72l6 -6l-24 -442l172 267q34 52 59.5 87t46.5 56t38 29.5t34 8.5q18 0 30.5 -12t12.5 -32q0 -12 -3.5 -22.5t-10.5 -15.5q-30 -9 -54 -18.5t-46 -24.5t-44 -39t-47 -63z" />
    <glyph glyph-name="uni04BB" unicode="&#x4bb;" horiz-adv-x="593" 
d="M240 689q7 20 6 26t-14 12l-64 31l2 6l209 66l-140 -405l-33 -96h1q83 97 144 143t120 46q55 0 61 -44.5t-26 -124.5l-96 -236q-12 -29 -14.5 -45t9.5 -16q11 0 28 12t37 31.5t41 45t39 53.5l27 -16q-61 -94 -120 -142.5t-107 -48.5q-46 0 -54.5 27t14.5 85l96 236
q25 62 26 91t-25 29q-22 0 -58 -24t-75 -65.5t-75 -97.5t-58 -120l-43 -140l-102 -19z" />
    <glyph glyph-name="uni04CF" unicode="&#x4cf;" horiz-adv-x="320" 
d="M279 729q5 16 2.5 24t-28.5 10l-42 2l13 35h250l-13 -35l-42 -2q-27 -2 -36 -10t-14 -24l-229 -658q-6 -16 -3 -24t29 -10l41 -2l-12 -35h-250l12 35l43 2q27 2 35.5 10t14.5 24z" />
    <glyph glyph-name="uni04D9" unicode="&#x4d9;" horiz-adv-x="471" 
d="M324.98 519.969q25.998 0 48.9971 -8.5q22.998 -8.49902 39.9971 -25.498t26.998 -41.998q10 -24.998 10 -56.9961q0 -41.998 -14.499 -87.4951t-39.498 -89.9941q-24.998 -44.4971 -58.4961 -84.4951q-33.498 -39.9971 -70.9961 -69.9951
q-37.4971 -29.999 -76.9951 -47.9971q-39.4971 -17.999 -76.4951 -17.999q-45.9971 0 -70.9961 20.998q-24.998 20.999 -24.998 55.9971q0 43.9971 21.499 72.9951q21.498 28.999 48.4961 47.9971q21.999 6 51.9971 13.999q29.998 8 62.4961 15.499q32.498 7.5 65.4961 15
q32.998 7.49902 60.9961 13.499q7 25.998 11 54.4961q3.99902 28.499 3.99902 57.4971q0 44.9971 -14.999 73.4951t-51.9961 28.498q-40.998 0 -78.9951 -35.4971q-37.998 -35.498 -75.9961 -95.4941l-25.998 17.998q22.999 35.998 47.4971 67.4961
q24.499 31.498 51.9971 55.4971q27.498 23.998 59.9961 37.4971q32.498 13.5 69.4961 13.5zM137.991 23.998q22.999 0 48.4971 14.5q25.499 14.499 49.9971 39.9971q24.499 25.499 45.9971 60.4961q21.499 34.998 36.498 76.9951q-21.999 -4.99902 -42.9971 -10.499
q-20.999 -5.49902 -37.998 -11.499q-39.9971 -12.999 -66.4961 -28.998q-26.498 -15.999 -42.4971 -33.498t-21.999 -34.998q-5.99902 -17.499 -5.99902 -34.498t9.49902 -27.498q9.49902 -10.5 27.498 -10.5z" />
    <glyph glyph-name="uni04E9" unicode="&#x4e9;" horiz-adv-x="530" 
d="M173 -13q-42 0 -70.5 14t-46.5 36t-25.5 48.5t-7.5 52.5q0 46 15 91.5t40.5 88t59.5 79t71.5 63.5t76 42.5t74.5 15.5q42 0 70.5 -14t46.5 -36t25.5 -49t7.5 -52q0 -45 -15 -91t-40.5 -88.5t-59.5 -79t-71.5 -63.5t-76 -42.5t-74.5 -15.5zM196 27q34 0 63.5 21t53.5 54
t42 74t30 82l-244 -36q-7 -26 -10 -50.5t-3 -42.5q0 -54 17 -78t51 -24zM337 478q-33 0 -61.5 -19.5t-52 -50.5t-42 -70t-30.5 -78l244 35q5 23 7.5 43.5t2.5 37.5q0 54 -17 78t-51 24z" />
    <glyph glyph-name="quoteright" unicode="&#x2019;" horiz-adv-x="271" 
d="M362 710q0 -35 -17 -68t-45.5 -62.5t-66 -54t-77.5 -41.5l-12 28q66 36 95.5 74t29.5 72q0 28 -18.5 45t-54.5 29q4 34 27 50.5t54 16.5q37 0 61 -23.5t24 -65.5z" />
    <glyph glyph-name="bullet" unicode="&#x2022;" horiz-adv-x="427" 
d="M250 258q-26 0 -49 10t-40 27t-27 40.5t-10 49.5t10 49t27 40t40 27t49 10t49 -10t40.5 -27t27.5 -40t10 -49t-10 -49.5t-27.5 -40.5t-40.5 -27t-49 -10z" />
    <glyph glyph-name="glyph166" horiz-adv-x="642" 
d="M-104 -267q-15 0 -30.5 5t-27.5 14t-19.5 20.5t-7.5 24.5q0 20 12.5 35t32.5 13q10 -7 23.5 -17.5t28 -20.5t29 -17t26.5 -7q6 0 14 4t15 14q6 8 13 22t16 38t19.5 62t22.5 94l95 433h-98l5 23l105 31q28 63 61 113t80 90q18 15 39.5 27.5t43 21.5t42 14t36.5 5
q17 0 28.5 -10t11.5 -26q0 -20 -12.5 -38t-33.5 -21q-19 8 -48 14.5t-52 6.5q-29 0 -52.5 -29t-37.5 -96l-16 -74h218q28 83 62 143t81 100q18 15 39 28t43 22.5t42 14.5t36 5q17 0 28.5 -10t11.5 -26q0 -20 -12.5 -38t-33.5 -21q-19 8 -48 14.5t-52 6.5q-29 0 -47.5 -27.5
t-33.5 -97.5l-25 -114h144l-12 -52h-144l-78 -342q-21 -93 -50.5 -156t-63 -101.5t-71 -54.5t-75.5 -16q-34 0 -55 19t-21 45q0 20 12.5 35t32.5 13q10 -9 21.5 -19.5t23.5 -20t24.5 -16t24.5 -6.5q6 0 14 4t15 14q6 8 13 22t16 38t19.5 62t22.5 94l85 386h-219l-88 -389
q-21 -93 -50 -156t-63.5 -101.5t-73 -54.5t-77.5 -16z" />
    <glyph glyph-name="glyph168" horiz-adv-x="647" 
d="M503 450h-255l-88 -389q-21 -93 -50 -156t-63.5 -101.5t-73 -54.5t-77.5 -16q-15 0 -30.5 5t-27.5 14t-19.5 20.5t-7.5 24.5q0 20 12.5 35t32.5 13q10 -7 23.5 -17.5t28 -20.5t29 -17t26.5 -7q6 0 14 4t15 14q6 8 13 22t16 38t19.5 62t22.5 94l95 433h-98l5 23l105 31
q28 83 61.5 142t80.5 99q18 15 39 28t43 22.5t42 14.5t36 5q17 0 28.5 -10t11.5 -26q0 -20 -12.5 -38t-33.5 -21q-19 8 -48 14.5t-52 6.5q-29 0 -47.5 -27.5t-33.5 -97.5l-25 -114h357l-155 -389q-11 -29 -14 -45t9 -16q11 0 28 12t37 31.5t41 45t39 53.5l27 -16
q-61 -94 -120 -142.5t-107 -48.5q-46 0 -54 27.5t15 84.5zM635 653q-29 0 -48.5 20t-19.5 49t19.5 48.5t48.5 19.5t49 -19.5t20 -48.5t-20 -49t-49 -20z" />
    <glyph glyph-name="glyph170" horiz-adv-x="956" 
d="M-104 -267q-15 0 -30.5 5t-27.5 14t-19.5 20.5t-7.5 24.5q0 20 12.5 35t32.5 13q10 -7 23.5 -17.5t28 -20.5t29 -17t26.5 -7q6 0 14 4t15 14q6 8 13 22t16 38t19.5 62t22.5 94l95 433h-98l5 23l105 31q28 63 61 113t80 90q18 15 39.5 27.5t43 21.5t42 14t36.5 5
q17 0 28.5 -10t11.5 -26q0 -20 -12.5 -38t-33.5 -21q-19 8 -48 14.5t-52 6.5q-29 0 -52.5 -29t-37.5 -96l-16 -74h218q28 83 62 143t81 100q18 15 39 28t43 22.5t42 14.5t36 5q17 0 28.5 -10t11.5 -26q0 -20 -12.5 -38t-33.5 -21q-19 8 -48 14.5t-52 6.5q-29 0 -47.5 -27.5
t-33.5 -97.5l-25 -114h357l-155 -389q-11 -29 -14 -45t9 -16q11 0 28 12t37 31.5t41 45t39 53.5l27 -16q-61 -94 -120 -142.5t-107 -48.5q-46 0 -54 27.5t15 84.5l140 351h-255l-78 -342q-21 -93 -50.5 -156t-63 -101.5t-71 -54.5t-75.5 -16q-34 0 -55 19t-21 45
q0 20 12.5 35t32.5 13q10 -9 21.5 -19.5t23.5 -20t24.5 -16t24.5 -6.5q6 0 14 4t15 14q6 8 13 22t16 38t19.5 62t22.5 94l85 386h-219l-88 -389q-21 -93 -50 -156t-63.5 -101.5t-73 -54.5t-77.5 -16zM944 653q-29 0 -48.5 20t-19.5 49t19.5 48.5t48.5 19.5t49 -19.5
t20 -48.5t-20 -49t-49 -20z" />
    <glyph glyph-name="glyph174" horiz-adv-x="0" 
d="M0 653q-29 0 -48.5 20t-19.5 49t19.5 48.5t48.5 19.5t49 -19.5t20 -48.5t-20 -49t-49 -20z" />
    <glyph glyph-name="glyph175" horiz-adv-x="0" 
d="M-141 658h296l-15 -43h-296z" />
    </font>
</defs>
</svg>
