<?xml version="1.0" standalone="no"?>
<!DOCTYPE svg PUBLIC "-//W3C//DTD SVG 1.1//EN" "http://www.w3.org/Graphics/SVG/1.1/DTD/svg11.dtd" >
<svg xmlns="http://www.w3.org/2000/svg" xmlns:xlink="http://www.w3.org/1999/xlink" version="1.1">
<metadata>
Created by Christoph Koeberlin (http://christoph.koe.berlin)
Copyright (c) 2017 Swiss Typefaces Sarl. All rights reserved.
</metadata>
<defs>
<font id="Font" horiz-adv-x="875" >
  <font-face 
    font-family="Font"
    font-weight="500"
    font-style="italic"
    font-stretch="normal"
    units-per-em="1000"
    panose-1="2 4 6 4 6 0 0 0 0 4"
    ascent="800"
    descent="-200"
    x-height="517"
    cap-height="758"
    bbox="-203 -268 1345 909"
    underline-thickness="65"
    underline-position="-130"
    slope="-17"
    unicode-range="U+0020-2022"
  />
<missing-glyph horiz-adv-x="640" 
d="M70 758h500v-758h-500v758zM320 396l217 343h-434zM89 30l221 349l-221 349v-698zM551 30v698l-220 -349zM537 19l-217 343l-217 -343h434z" />
    <glyph glyph-name="f_f.liga" unicode="ff" horiz-adv-x="673" 
d="M-106 -268q-35 0 -59 19.5t-24 45.5q0 20 13.5 36.5t37.5 16.5q11 -8 24 -18.5t27 -19.5t27.5 -15t25.5 -6q8 0 15 2.5t15 15.5l10 20t13 32t15 49t17 70l102 460h-95l7 28l102 34q26 66 61.5 112.5t82.5 87.5q51 42 98.5 62.5t79.5 20.5q23 0 35 -12t12 -30
q0 -22 -14.5 -43t-37.5 -28q-12 4 -27.5 7.5t-32 6.5t-31.5 5t-26 2q-14 0 -25 -5.5t-20.5 -20.5t-17.5 -41t-16 -67l-11 -57h212q26 77 61.5 133t83.5 96q51 42 98.5 63t79.5 21q22 0 34 -11.5t12 -29.5q0 -23 -14.5 -44t-37.5 -28q-12 4 -27.5 8t-31.5 7t-31 5t-26 2
q-14 0 -24 -5t-18 -20t-15.5 -41t-15.5 -68l-17 -88h149l-19 -62h-140l-71 -309q-23 -97 -57 -165.5t-73.5 -111.5t-81.5 -62.5t-79 -19.5q-36 0 -57 19.5t-21 45.5q0 20 14 36.5t37 16.5q11 -9 23 -19t24.5 -19t25 -15t24.5 -6q7 0 14.5 2.5t15.5 15.5q4 8 9.5 20t12.5 32
t15 49t17 71l93 419h-208l-80 -349q-23 -98 -57 -166t-74 -111t-82 -62.5t-80 -19.5z" />
    <glyph glyph-name="f_i.liga" unicode="fi" horiz-adv-x="661" 
d="M496 440h-229l-80 -349q-23 -98 -57 -166t-74 -111t-82 -62.5t-80 -19.5q-35 0 -59 19.5t-24 45.5q0 20 13.5 36.5t37.5 16.5q11 -8 24 -18.5t27 -19.5t27.5 -15t25.5 -6q8 0 15 2.5t15 15.5l10 20t13 32t15 49t17 70l102 460h-95l7 28l102 34q26 77 61.5 133t83.5 96
q50 42 94 63t74 21q22 0 33 -11.5t11 -29.5q0 -23 -13.5 -43t-36.5 -27q-23 8 -54 14t-53 6q-14 0 -24 -5t-18 -20t-15.5 -41t-15.5 -68l-17 -88h362l-153 -383q-12 -29 -13.5 -43.5t11.5 -14.5q10 0 25 10.5t32.5 28.5t37 43t37.5 54l31 -18q-59 -96 -119 -144t-116 -48
q-47 0 -60 29t12 92zM643 645q-32 0 -54.5 23t-22.5 56t22.5 55.5t54.5 22.5q34 0 56.5 -22.5t22.5 -55.5t-22.5 -56t-56.5 -23z" />
    <glyph glyph-name="f_f_i.liga" unicode="ffi" horiz-adv-x="984" 
d="M-106 -268q-35 0 -59 19.5t-24 45.5q0 20 13.5 36.5t37.5 16.5q11 -8 24 -18.5t27 -19.5t27.5 -15t25.5 -6q8 0 15 2.5t15 15.5l10 20t13 32t15 49t17 70l102 460h-95l7 28l102 34q26 66 61.5 112.5t82.5 87.5q51 42 98.5 62.5t79.5 20.5q23 0 35 -12t12 -30
q0 -22 -14.5 -43t-37.5 -28q-12 4 -27.5 7.5t-32 6.5t-31.5 5t-26 2q-14 0 -25 -5.5t-20.5 -20.5t-17.5 -41t-16 -67l-11 -57h212q26 77 61.5 133t83.5 96q51 42 94.5 63t73.5 21q22 0 33 -11.5t11 -29.5q0 -23 -13 -43t-36 -27q-24 8 -54.5 14t-52.5 6q-14 0 -24 -5
t-18 -20t-15.5 -41t-15.5 -68l-17 -88h361l-153 -383q-24 -58 -1 -58q9 0 24 10.5t32.5 28.5t37 43t37.5 54l32 -18q-60 -96 -120 -144t-115 -48q-47 0 -60.5 29t11.5 92l133 332h-229l-71 -309q-23 -97 -57 -165.5t-73.5 -111.5t-81.5 -62.5t-79 -19.5q-36 0 -57 19.5
t-21 45.5q0 20 14 36.5t37 16.5q11 -9 23 -19t24.5 -19t25 -15t24.5 -6q7 0 14.5 2.5t15.5 15.5q4 8 9.5 20t12.5 32t15 49t17 71l93 419h-208l-80 -349q-23 -98 -57 -166t-74 -111t-82 -62.5t-80 -19.5zM966 645q-32 0 -55 23t-23 56t23 55.5t55 22.5q33 0 56 -22.5
t23 -55.5t-23 -56t-56 -23z" />
    <glyph glyph-name="f_l.liga" unicode="fl" horiz-adv-x="659" 
d="M58 440l7 28l102 34q26 77 61.5 133t83.5 96q50 42 97.5 63t79.5 21q23 0 35 -11.5t12 -29.5q0 -23 -14.5 -44t-37.5 -28q-12 4 -27.5 8t-32 7t-31.5 5t-26 2q-14 0 -24 -5t-18 -20t-15.5 -41t-15.5 -68l-17 -88h150l-19 -62h-141l-80 -349q-23 -98 -57 -166t-74 -111
t-82 -62.5t-80 -19.5q-35 0 -59 19.5t-24 45.5q0 20 13.5 36.5t37.5 16.5q11 -8 24 -18.5t27 -19.5t27.5 -15t25.5 -6q8 0 15 2.5t15 15.5l10 20t13 32t15 49t17 70l102 460h-95zM562 660q10 28 10 37t-14 18l-56 35l2 6l233 76l-248 -713q-11 -30 -12.5 -44t11.5 -14
q9 0 24 10.5t32.5 28.5t37 43t37.5 54l32 -18q-60 -96 -120 -144t-115 -48q-47 0 -58 29t12 93z" />
    <glyph glyph-name="f_f_l.liga" unicode="ffl" horiz-adv-x="981" 
d="M884 660q10 28 10 37t-14 18l-33 20q-7 -11 -17.5 -20t-23.5 -13q-12 4 -27.5 8t-31.5 7t-31 5t-26 2q-14 0 -24 -5t-18 -20t-15.5 -41t-15.5 -68l-17 -88h149l-19 -62h-140l-71 -309q-23 -97 -57 -165.5t-73.5 -111.5t-81.5 -62.5t-79 -19.5q-36 0 -57 19.5t-21 45.5
q0 20 14 36.5t37 16.5q11 -9 23 -19t24.5 -19t25 -15t24.5 -6q7 0 14.5 2.5t15.5 15.5q4 8 9.5 20t12.5 32t15 49t17 71l93 419h-208l-80 -349q-23 -98 -57 -166t-74 -111t-82 -62.5t-80 -19.5q-35 0 -59 19.5t-24 45.5q0 20 13.5 36.5t37.5 16.5q11 -8 24 -18.5t27 -19.5
t27.5 -15t25.5 -6q8 0 15 2.5t15 15.5l10 20t13 32t15 49t17 70l102 460h-95l7 28l102 34q26 66 61.5 112.5t82.5 87.5q51 42 98.5 62.5t79.5 20.5q23 0 35 -12t12 -30q0 -22 -14.5 -43t-37.5 -28q-12 4 -27.5 7.5t-32 6.5t-31.5 5t-26 2q-14 0 -25 -5.5t-20.5 -20.5
t-17.5 -41t-16 -67l-11 -57h212q26 77 61.5 133t83.5 96q51 42 98.5 63t79.5 21q22 0 34 -11.5t12 -29.5q0 -5 -1 -8l202 66l-248 -713q-11 -30 -12.5 -44t11.5 -14q9 0 24 10.5t32.5 28.5t37 43t37.5 54l32 -18q-60 -96 -120 -144t-115 -48q-47 0 -58 29t12 93z" />
    <glyph glyph-name=".notdef" horiz-adv-x="640" 
d="M70 758h500v-758h-500v758zM320 396l217 343h-434zM89 30l221 349l-221 349v-698zM551 30v698l-220 -349zM537 19l-217 343l-217 -343h434z" />
    <glyph glyph-name="glyph1" horiz-adv-x="0" 
 />
    <glyph glyph-name="glyph2" horiz-adv-x="272" 
 />
    <glyph glyph-name="space" unicode=" " horiz-adv-x="272" 
 />
    <glyph glyph-name="comma" unicode="," horiz-adv-x="297" 
d="M195 63q0 -33 -16.5 -66.5t-46.5 -65t-71 -59t-90 -47.5l-13 33q62 32 95 69t33 76q0 52 -79 72q6 44 34 63t62 19q39 0 65.5 -24.5t26.5 -69.5z" />
    <glyph glyph-name="hyphen" unicode="-" horiz-adv-x="429" 
d="M84 299h294l-25 -73h-294z" />
    <glyph glyph-name="period" unicode="." horiz-adv-x="277" 
d="M91 -13q-35 0 -59.5 25t-24.5 63q0 35 24.5 59.5t59.5 24.5q38 0 63 -24.5t25 -59.5q0 -38 -25 -63t-63 -25z" />
    <glyph glyph-name="slash" unicode="/" horiz-adv-x="541" 
d="M578 806h89l-627 -858h-87z" />
    <glyph glyph-name="zero" unicode="0" horiz-adv-x="683" 
d="M274 -13q-53 0 -91.5 20t-64 54t-38 80t-12.5 99q0 58 16.5 120.5t46 122t69.5 113.5t87 94.5t99 64.5t106 24q52 0 91 -20t64.5 -54t38 -80.5t12.5 -98.5q0 -58 -16.5 -120.5t-46 -122t-69.5 -113.5t-87.5 -94.5t-99.5 -64.5t-105 -24zM281 31q41 0 78.5 28t70 75
t59 107t45 124.5t29 127.5t10.5 115q0 59 -20 93t-68 34q-41 0 -78.5 -28t-70 -75t-59.5 -107t-45.5 -124.5t-29 -127.5t-10.5 -115q0 -59 20.5 -93t68.5 -34z" />
    <glyph glyph-name="A" unicode="A" horiz-adv-x="757" 
d="M-89 40l34 3q17 1 30.5 7.5t30 23t39.5 45.5t58 76l430 575h56l28 -691q1 -20 10 -26t37 -9l34 -4l-12 -40h-299l12 40l49 4q15 1 24 3t13.5 6.5t6 12t1.5 20.5l-7 180h-259l-54 -73q-34 -46 -52.5 -74.5t-23 -44t4.5 -22t30 -8.5l39 -4l-12 -40h-260zM484 324l-10 279
l-205 -279h215z" />
    <glyph glyph-name="A" unicode="&#x104;" horiz-adv-x="757" 
d="M-89 40l34 3q17 1 30.5 7.5t30 23t39.5 45.5t58 76l430 575h56l28 -691q1 -20 10 -26t37 -9l34 -4l-12 -40h-299l12 40l49 4q15 1 24 3t13.5 6.5t6 12t1.5 20.5l-7 180h-259l-54 -73q-34 -46 -52.5 -74.5t-23 -44t4.5 -22t30 -8.5l39 -4l-12 -40h-260zM484 324l-10 279
l-205 -279h215z" />
    <glyph glyph-name="A" unicode="&#x102;" horiz-adv-x="757" 
d="M-89 40l34 3q17 1 30.5 7.5t30 23t39.5 45.5t58 76l430 575h56l28 -691q1 -20 10 -26t37 -9l34 -4l-12 -40h-299l12 40l49 4q15 1 24 3t13.5 6.5t6 12t1.5 20.5l-7 180h-259l-54 -73q-34 -46 -52.5 -74.5t-23 -44t4.5 -22t30 -8.5l39 -4l-12 -40h-260zM484 324l-10 279
l-205 -279h215z" />
    <glyph glyph-name="A" unicode="&#x100;" horiz-adv-x="757" 
d="M-89 40l34 3q17 1 30.5 7.5t30 23t39.5 45.5t58 76l430 575h56l28 -691q1 -20 10 -26t37 -9l34 -4l-12 -40h-299l12 40l49 4q15 1 24 3t13.5 6.5t6 12t1.5 20.5l-7 180h-259l-54 -73q-34 -46 -52.5 -74.5t-23 -44t4.5 -22t30 -8.5l39 -4l-12 -40h-260zM484 324l-10 279
l-205 -279h215z" />
    <glyph glyph-name="A" unicode="&#xc6;" horiz-adv-x="757" 
d="M-89 40l34 3q17 1 30.5 7.5t30 23t39.5 45.5t58 76l430 575h56l28 -691q1 -20 10 -26t37 -9l34 -4l-12 -40h-299l12 40l49 4q15 1 24 3t13.5 6.5t6 12t1.5 20.5l-7 180h-259l-54 -73q-34 -46 -52.5 -74.5t-23 -44t4.5 -22t30 -8.5l39 -4l-12 -40h-260zM484 324l-10 279
l-205 -279h215z" />
    <glyph glyph-name="A" unicode="&#xc5;" horiz-adv-x="757" 
d="M-89 40l34 3q17 1 30.5 7.5t30 23t39.5 45.5t58 76l430 575h56l28 -691q1 -20 10 -26t37 -9l34 -4l-12 -40h-299l12 40l49 4q15 1 24 3t13.5 6.5t6 12t1.5 20.5l-7 180h-259l-54 -73q-34 -46 -52.5 -74.5t-23 -44t4.5 -22t30 -8.5l39 -4l-12 -40h-260zM484 324l-10 279
l-205 -279h215z" />
    <glyph glyph-name="A" unicode="&#xc4;" horiz-adv-x="757" 
d="M-89 40l34 3q17 1 30.5 7.5t30 23t39.5 45.5t58 76l430 575h56l28 -691q1 -20 10 -26t37 -9l34 -4l-12 -40h-299l12 40l49 4q15 1 24 3t13.5 6.5t6 12t1.5 20.5l-7 180h-259l-54 -73q-34 -46 -52.5 -74.5t-23 -44t4.5 -22t30 -8.5l39 -4l-12 -40h-260zM484 324l-10 279
l-205 -279h215z" />
    <glyph glyph-name="A" unicode="&#xc3;" horiz-adv-x="757" 
d="M-89 40l34 3q17 1 30.5 7.5t30 23t39.5 45.5t58 76l430 575h56l28 -691q1 -20 10 -26t37 -9l34 -4l-12 -40h-299l12 40l49 4q15 1 24 3t13.5 6.5t6 12t1.5 20.5l-7 180h-259l-54 -73q-34 -46 -52.5 -74.5t-23 -44t4.5 -22t30 -8.5l39 -4l-12 -40h-260zM484 324l-10 279
l-205 -279h215z" />
    <glyph glyph-name="A" unicode="&#xc2;" horiz-adv-x="757" 
d="M-89 40l34 3q17 1 30.5 7.5t30 23t39.5 45.5t58 76l430 575h56l28 -691q1 -20 10 -26t37 -9l34 -4l-12 -40h-299l12 40l49 4q15 1 24 3t13.5 6.5t6 12t1.5 20.5l-7 180h-259l-54 -73q-34 -46 -52.5 -74.5t-23 -44t4.5 -22t30 -8.5l39 -4l-12 -40h-260zM484 324l-10 279
l-205 -279h215z" />
    <glyph glyph-name="A" unicode="&#xc1;" horiz-adv-x="757" 
d="M-89 40l34 3q17 1 30.5 7.5t30 23t39.5 45.5t58 76l430 575h56l28 -691q1 -20 10 -26t37 -9l34 -4l-12 -40h-299l12 40l49 4q15 1 24 3t13.5 6.5t6 12t1.5 20.5l-7 180h-259l-54 -73q-34 -46 -52.5 -74.5t-23 -44t4.5 -22t30 -8.5l39 -4l-12 -40h-260zM484 324l-10 279
l-205 -279h215z" />
    <glyph glyph-name="A" unicode="&#xc0;" horiz-adv-x="757" 
d="M-89 40l34 3q17 1 30.5 7.5t30 23t39.5 45.5t58 76l430 575h56l28 -691q1 -20 10 -26t37 -9l34 -4l-12 -40h-299l12 40l49 4q15 1 24 3t13.5 6.5t6 12t1.5 20.5l-7 180h-259l-54 -73q-34 -46 -52.5 -74.5t-23 -44t4.5 -22t30 -8.5l39 -4l-12 -40h-260zM484 324l-10 279
l-205 -279h215z" />
    <glyph glyph-name="B" unicode="B" horiz-adv-x="716" 
d="M-17 40l42 3q18 1 29.5 4t19 10t13 19t11.5 32l166 542q6 19 8 31.5t-1 19.5t-12.5 10t-27.5 4l-41 3l12 40h271q126 0 188.5 -37t62.5 -102q0 -42 -18.5 -75t-50 -58.5t-73 -43t-88.5 -26.5v-1q31 -5 62.5 -17.5t57 -33t42 -49t16.5 -65.5q0 -49 -27 -94t-76.5 -79.5
t-118.5 -55.5t-153 -21h-327zM378 429q57 0 97.5 16t66 42.5t37.5 60.5t12 69q0 44 -31.5 69.5t-106.5 25.5q-29 0 -37 -3.5t-13 -18.5l-80 -261h55zM284 45q60 0 106 16t77.5 44.5t48 68t16.5 87.5q0 57 -41 88.5t-139 32.5h-43l-82 -267q-14 -43 -3.5 -56.5t56.5 -13.5h4z
" />
    <glyph glyph-name="C" unicode="C" horiz-adv-x="788" 
d="M413 -13q-73 0 -134.5 21.5t-106.5 61.5t-70 97.5t-25 128.5q0 69 20.5 131.5t57.5 116t87.5 97t110 74.5t125.5 47.5t134 16.5q63 0 119 -8.5t94 -24.5l-14 -187h-36l-23 80q-15 52 -55 70t-101 18q-68 0 -136 -28.5t-122 -84t-87.5 -137t-33.5 -186.5q0 -65 17 -112.5
t47 -78.5t71.5 -46t89.5 -15q32 0 57.5 6t49 18.5t46 31t48.5 43.5l77 74h36l-101 -183q-50 -17 -108.5 -29.5t-133.5 -12.5z" />
    <glyph glyph-name="C" unicode="&#x10c;" horiz-adv-x="788" 
d="M413 -13q-73 0 -134.5 21.5t-106.5 61.5t-70 97.5t-25 128.5q0 69 20.5 131.5t57.5 116t87.5 97t110 74.5t125.5 47.5t134 16.5q63 0 119 -8.5t94 -24.5l-14 -187h-36l-23 80q-15 52 -55 70t-101 18q-68 0 -136 -28.5t-122 -84t-87.5 -137t-33.5 -186.5q0 -65 17 -112.5
t47 -78.5t71.5 -46t89.5 -15q32 0 57.5 6t49 18.5t46 31t48.5 43.5l77 74h36l-101 -183q-50 -17 -108.5 -29.5t-133.5 -12.5z" />
    <glyph glyph-name="C" unicode="&#x10a;" horiz-adv-x="788" 
d="M413 -13q-73 0 -134.5 21.5t-106.5 61.5t-70 97.5t-25 128.5q0 69 20.5 131.5t57.5 116t87.5 97t110 74.5t125.5 47.5t134 16.5q63 0 119 -8.5t94 -24.5l-14 -187h-36l-23 80q-15 52 -55 70t-101 18q-68 0 -136 -28.5t-122 -84t-87.5 -137t-33.5 -186.5q0 -65 17 -112.5
t47 -78.5t71.5 -46t89.5 -15q32 0 57.5 6t49 18.5t46 31t48.5 43.5l77 74h36l-101 -183q-50 -17 -108.5 -29.5t-133.5 -12.5z" />
    <glyph glyph-name="C" unicode="&#x108;" horiz-adv-x="788" 
d="M413 -13q-73 0 -134.5 21.5t-106.5 61.5t-70 97.5t-25 128.5q0 69 20.5 131.5t57.5 116t87.5 97t110 74.5t125.5 47.5t134 16.5q63 0 119 -8.5t94 -24.5l-14 -187h-36l-23 80q-15 52 -55 70t-101 18q-68 0 -136 -28.5t-122 -84t-87.5 -137t-33.5 -186.5q0 -65 17 -112.5
t47 -78.5t71.5 -46t89.5 -15q32 0 57.5 6t49 18.5t46 31t48.5 43.5l77 74h36l-101 -183q-50 -17 -108.5 -29.5t-133.5 -12.5z" />
    <glyph glyph-name="C" unicode="&#x106;" horiz-adv-x="788" 
d="M413 -13q-73 0 -134.5 21.5t-106.5 61.5t-70 97.5t-25 128.5q0 69 20.5 131.5t57.5 116t87.5 97t110 74.5t125.5 47.5t134 16.5q63 0 119 -8.5t94 -24.5l-14 -187h-36l-23 80q-15 52 -55 70t-101 18q-68 0 -136 -28.5t-122 -84t-87.5 -137t-33.5 -186.5q0 -65 17 -112.5
t47 -78.5t71.5 -46t89.5 -15q32 0 57.5 6t49 18.5t46 31t48.5 43.5l77 74h36l-101 -183q-50 -17 -108.5 -29.5t-133.5 -12.5z" />
    <glyph glyph-name="C" unicode="&#xc7;" horiz-adv-x="788" 
d="M413 -13q-73 0 -134.5 21.5t-106.5 61.5t-70 97.5t-25 128.5q0 69 20.5 131.5t57.5 116t87.5 97t110 74.5t125.5 47.5t134 16.5q63 0 119 -8.5t94 -24.5l-14 -187h-36l-23 80q-15 52 -55 70t-101 18q-68 0 -136 -28.5t-122 -84t-87.5 -137t-33.5 -186.5q0 -65 17 -112.5
t47 -78.5t71.5 -46t89.5 -15q32 0 57.5 6t49 18.5t46 31t48.5 43.5l77 74h36l-101 -183q-50 -17 -108.5 -29.5t-133.5 -12.5z" />
    <glyph glyph-name="D" unicode="D" horiz-adv-x="869" 
d="M-17 40l42 3q18 1 29.5 4t19 10t13 19t11.5 32l166 542q6 19 8 31.5t-1 19.5t-12.5 10t-27.5 4l-41 3l12 40h288q91 0 162.5 -20t121 -57t76 -90t26.5 -120q0 -89 -41.5 -174t-118.5 -151t-187 -106t-246 -40h-313zM301 47q115 0 197.5 40.5t134.5 105t76.5 144.5
t24.5 159q0 114 -64.5 165t-189.5 51q-24 0 -38.5 -1t-22.5 -3.5t-11.5 -7t-5.5 -11.5l-175 -571q-7 -22 -8 -35.5t5.5 -21.5t20.5 -11t38 -3h18z" />
    <glyph glyph-name="D" unicode="&#x110;" horiz-adv-x="869" 
d="M-17 40l42 3q18 1 29.5 4t19 10t13 19t11.5 32l166 542q6 19 8 31.5t-1 19.5t-12.5 10t-27.5 4l-41 3l12 40h288q91 0 162.5 -20t121 -57t76 -90t26.5 -120q0 -89 -41.5 -174t-118.5 -151t-187 -106t-246 -40h-313zM301 47q115 0 197.5 40.5t134.5 105t76.5 144.5
t24.5 159q0 114 -64.5 165t-189.5 51q-24 0 -38.5 -1t-22.5 -3.5t-11.5 -7t-5.5 -11.5l-175 -571q-7 -22 -8 -35.5t5.5 -21.5t20.5 -11t38 -3h18z" />
    <glyph glyph-name="D" unicode="&#x10e;" horiz-adv-x="869" 
d="M-17 40l42 3q18 1 29.5 4t19 10t13 19t11.5 32l166 542q6 19 8 31.5t-1 19.5t-12.5 10t-27.5 4l-41 3l12 40h288q91 0 162.5 -20t121 -57t76 -90t26.5 -120q0 -89 -41.5 -174t-118.5 -151t-187 -106t-246 -40h-313zM301 47q115 0 197.5 40.5t134.5 105t76.5 144.5
t24.5 159q0 114 -64.5 165t-189.5 51q-24 0 -38.5 -1t-22.5 -3.5t-11.5 -7t-5.5 -11.5l-175 -571q-7 -22 -8 -35.5t5.5 -21.5t20.5 -11t38 -3h18z" />
    <glyph glyph-name="D" unicode="&#xd0;" horiz-adv-x="869" 
d="M-17 40l42 3q18 1 29.5 4t19 10t13 19t11.5 32l166 542q6 19 8 31.5t-1 19.5t-12.5 10t-27.5 4l-41 3l12 40h288q91 0 162.5 -20t121 -57t76 -90t26.5 -120q0 -89 -41.5 -174t-118.5 -151t-187 -106t-246 -40h-313zM301 47q115 0 197.5 40.5t134.5 105t76.5 144.5
t24.5 159q0 114 -64.5 165t-189.5 51q-24 0 -38.5 -1t-22.5 -3.5t-11.5 -7t-5.5 -11.5l-175 -571q-7 -22 -8 -35.5t5.5 -21.5t20.5 -11t38 -3h18z" />
    <glyph glyph-name="E" unicode="E" horiz-adv-x="716" 
d="M-17 40l42 3q18 1 29.5 4t19 10t13 19t11.5 32l166 542q6 19 8 31.5t-1.5 19t-13 9.5t-27.5 5l-40 3l12 40h262l289 2l-49 -191h-37l-1 50q-1 32 -7.5 50t-27 27t-59 11.5t-102.5 2.5h-42q-20 0 -26 -20l-85 -280h115q22 0 37.5 2t28 9t23.5 21.5t25 38.5l22 40h38
l-84 -275h-38l3 41q2 25 -0.5 39t-11 21t-23.5 8.5t-37 1.5h-114l-71 -229q-9 -28 -9.5 -44t8 -24t25.5 -10t44 -2h15q63 0 103 3t68.5 12.5t50.5 26.5t47 45l64 71h38l-116 -206h-598z" />
    <glyph glyph-name="E" unicode="&#x11a;" horiz-adv-x="716" 
d="M-17 40l42 3q18 1 29.5 4t19 10t13 19t11.5 32l166 542q6 19 8 31.5t-1.5 19t-13 9.5t-27.5 5l-40 3l12 40h262l289 2l-49 -191h-37l-1 50q-1 32 -7.5 50t-27 27t-59 11.5t-102.5 2.5h-42q-20 0 -26 -20l-85 -280h115q22 0 37.5 2t28 9t23.5 21.5t25 38.5l22 40h38
l-84 -275h-38l3 41q2 25 -0.5 39t-11 21t-23.5 8.5t-37 1.5h-114l-71 -229q-9 -28 -9.5 -44t8 -24t25.5 -10t44 -2h15q63 0 103 3t68.5 12.5t50.5 26.5t47 45l64 71h38l-116 -206h-598z" />
    <glyph glyph-name="E" unicode="&#x118;" horiz-adv-x="716" 
d="M-17 40l42 3q18 1 29.5 4t19 10t13 19t11.5 32l166 542q6 19 8 31.5t-1.5 19t-13 9.5t-27.5 5l-40 3l12 40h262l289 2l-49 -191h-37l-1 50q-1 32 -7.5 50t-27 27t-59 11.5t-102.5 2.5h-42q-20 0 -26 -20l-85 -280h115q22 0 37.5 2t28 9t23.5 21.5t25 38.5l22 40h38
l-84 -275h-38l3 41q2 25 -0.5 39t-11 21t-23.5 8.5t-37 1.5h-114l-71 -229q-9 -28 -9.5 -44t8 -24t25.5 -10t44 -2h15q63 0 103 3t68.5 12.5t50.5 26.5t47 45l64 71h38l-116 -206h-598z" />
    <glyph glyph-name="E" unicode="&#x116;" horiz-adv-x="716" 
d="M-17 40l42 3q18 1 29.5 4t19 10t13 19t11.5 32l166 542q6 19 8 31.5t-1.5 19t-13 9.5t-27.5 5l-40 3l12 40h262l289 2l-49 -191h-37l-1 50q-1 32 -7.5 50t-27 27t-59 11.5t-102.5 2.5h-42q-20 0 -26 -20l-85 -280h115q22 0 37.5 2t28 9t23.5 21.5t25 38.5l22 40h38
l-84 -275h-38l3 41q2 25 -0.5 39t-11 21t-23.5 8.5t-37 1.5h-114l-71 -229q-9 -28 -9.5 -44t8 -24t25.5 -10t44 -2h15q63 0 103 3t68.5 12.5t50.5 26.5t47 45l64 71h38l-116 -206h-598z" />
    <glyph glyph-name="E" unicode="&#x114;" horiz-adv-x="716" 
d="M-17 40l42 3q18 1 29.5 4t19 10t13 19t11.5 32l166 542q6 19 8 31.5t-1.5 19t-13 9.5t-27.5 5l-40 3l12 40h262l289 2l-49 -191h-37l-1 50q-1 32 -7.5 50t-27 27t-59 11.5t-102.5 2.5h-42q-20 0 -26 -20l-85 -280h115q22 0 37.5 2t28 9t23.5 21.5t25 38.5l22 40h38
l-84 -275h-38l3 41q2 25 -0.5 39t-11 21t-23.5 8.5t-37 1.5h-114l-71 -229q-9 -28 -9.5 -44t8 -24t25.5 -10t44 -2h15q63 0 103 3t68.5 12.5t50.5 26.5t47 45l64 71h38l-116 -206h-598z" />
    <glyph glyph-name="E" unicode="&#x112;" horiz-adv-x="716" 
d="M-17 40l42 3q18 1 29.5 4t19 10t13 19t11.5 32l166 542q6 19 8 31.5t-1.5 19t-13 9.5t-27.5 5l-40 3l12 40h262l289 2l-49 -191h-37l-1 50q-1 32 -7.5 50t-27 27t-59 11.5t-102.5 2.5h-42q-20 0 -26 -20l-85 -280h115q22 0 37.5 2t28 9t23.5 21.5t25 38.5l22 40h38
l-84 -275h-38l3 41q2 25 -0.5 39t-11 21t-23.5 8.5t-37 1.5h-114l-71 -229q-9 -28 -9.5 -44t8 -24t25.5 -10t44 -2h15q63 0 103 3t68.5 12.5t50.5 26.5t47 45l64 71h38l-116 -206h-598z" />
    <glyph glyph-name="E" unicode="&#xcb;" horiz-adv-x="716" 
d="M-17 40l42 3q18 1 29.5 4t19 10t13 19t11.5 32l166 542q6 19 8 31.5t-1.5 19t-13 9.5t-27.5 5l-40 3l12 40h262l289 2l-49 -191h-37l-1 50q-1 32 -7.5 50t-27 27t-59 11.5t-102.5 2.5h-42q-20 0 -26 -20l-85 -280h115q22 0 37.5 2t28 9t23.5 21.5t25 38.5l22 40h38
l-84 -275h-38l3 41q2 25 -0.5 39t-11 21t-23.5 8.5t-37 1.5h-114l-71 -229q-9 -28 -9.5 -44t8 -24t25.5 -10t44 -2h15q63 0 103 3t68.5 12.5t50.5 26.5t47 45l64 71h38l-116 -206h-598z" />
    <glyph glyph-name="E" unicode="&#xca;" horiz-adv-x="716" 
d="M-17 40l42 3q18 1 29.5 4t19 10t13 19t11.5 32l166 542q6 19 8 31.5t-1.5 19t-13 9.5t-27.5 5l-40 3l12 40h262l289 2l-49 -191h-37l-1 50q-1 32 -7.5 50t-27 27t-59 11.5t-102.5 2.5h-42q-20 0 -26 -20l-85 -280h115q22 0 37.5 2t28 9t23.5 21.5t25 38.5l22 40h38
l-84 -275h-38l3 41q2 25 -0.5 39t-11 21t-23.5 8.5t-37 1.5h-114l-71 -229q-9 -28 -9.5 -44t8 -24t25.5 -10t44 -2h15q63 0 103 3t68.5 12.5t50.5 26.5t47 45l64 71h38l-116 -206h-598z" />
    <glyph glyph-name="E" unicode="&#xc9;" horiz-adv-x="716" 
d="M-17 40l42 3q18 1 29.5 4t19 10t13 19t11.5 32l166 542q6 19 8 31.5t-1.5 19t-13 9.5t-27.5 5l-40 3l12 40h262l289 2l-49 -191h-37l-1 50q-1 32 -7.5 50t-27 27t-59 11.5t-102.5 2.5h-42q-20 0 -26 -20l-85 -280h115q22 0 37.5 2t28 9t23.5 21.5t25 38.5l22 40h38
l-84 -275h-38l3 41q2 25 -0.5 39t-11 21t-23.5 8.5t-37 1.5h-114l-71 -229q-9 -28 -9.5 -44t8 -24t25.5 -10t44 -2h15q63 0 103 3t68.5 12.5t50.5 26.5t47 45l64 71h38l-116 -206h-598z" />
    <glyph glyph-name="E" unicode="&#xc8;" horiz-adv-x="716" 
d="M-17 40l42 3q18 1 29.5 4t19 10t13 19t11.5 32l166 542q6 19 8 31.5t-1.5 19t-13 9.5t-27.5 5l-40 3l12 40h262l289 2l-49 -191h-37l-1 50q-1 32 -7.5 50t-27 27t-59 11.5t-102.5 2.5h-42q-20 0 -26 -20l-85 -280h115q22 0 37.5 2t28 9t23.5 21.5t25 38.5l22 40h38
l-84 -275h-38l3 41q2 25 -0.5 39t-11 21t-23.5 8.5t-37 1.5h-114l-71 -229q-9 -28 -9.5 -44t8 -24t25.5 -10t44 -2h15q63 0 103 3t68.5 12.5t50.5 26.5t47 45l64 71h38l-116 -206h-598z" />
    <glyph glyph-name="F" unicode="F" horiz-adv-x="668" 
d="M-17 40l42 3q18 1 29.5 4t19 10t13 19t11.5 32l166 542q6 19 8 31.5t-1.5 19t-13 9.5t-27.5 5l-40 3l12 40h287l289 2l-48 -191h-38l-1 50q-1 32 -7.5 50t-26.5 27t-57 11.5t-100 2.5h-72q-20 0 -26 -20l-85 -280h140q22 0 37.5 2t28 9t23.5 21.5t25 38.5l22 40h38
l-84 -275h-38l3 41q2 25 -0.5 39t-11 21t-23.5 8.5t-37 1.5h-139l-76 -249q-6 -20 -8.5 -32t2 -19t15.5 -9t32 -3l53 -2l-12 -43h-337z" />
    <glyph glyph-name="G" unicode="G" horiz-adv-x="836" 
d="M414 -13q-68 0 -129.5 20t-107.5 59t-73 96.5t-27 133.5q0 69 20.5 131.5t57 116t86.5 97t109 74.5t124.5 47.5t132.5 16.5q63 0 119 -8.5t94 -24.5l-14 -187h-36l-22 80q-14 53 -55 70.5t-102 17.5q-67 0 -134 -28.5t-120 -84t-86.5 -137t-33.5 -186.5
q0 -65 16.5 -112.5t46 -79t69.5 -46.5t87 -15q28 0 58 5t53 13l65 203q6 19 8 31.5t-1 19.5t-13 10t-28 4l-60 3l12 40h331l-12 -40l-38 -3q-18 -2 -29.5 -5t-19 -10t-13 -19t-11.5 -31l-48 -152l-16 -71q-24 -4 -53.5 -12t-62.5 -16.5t-69.5 -14.5t-74.5 -6z" />
    <glyph glyph-name="G" unicode="&#x122;" horiz-adv-x="836" 
d="M414 -13q-68 0 -129.5 20t-107.5 59t-73 96.5t-27 133.5q0 69 20.5 131.5t57 116t86.5 97t109 74.5t124.5 47.5t132.5 16.5q63 0 119 -8.5t94 -24.5l-14 -187h-36l-22 80q-14 53 -55 70.5t-102 17.5q-67 0 -134 -28.5t-120 -84t-86.5 -137t-33.5 -186.5
q0 -65 16.5 -112.5t46 -79t69.5 -46.5t87 -15q28 0 58 5t53 13l65 203q6 19 8 31.5t-1 19.5t-13 10t-28 4l-60 3l12 40h331l-12 -40l-38 -3q-18 -2 -29.5 -5t-19 -10t-13 -19t-11.5 -31l-48 -152l-16 -71q-24 -4 -53.5 -12t-62.5 -16.5t-69.5 -14.5t-74.5 -6z" />
    <glyph glyph-name="G" unicode="&#x120;" horiz-adv-x="836" 
d="M414 -13q-68 0 -129.5 20t-107.5 59t-73 96.5t-27 133.5q0 69 20.5 131.5t57 116t86.5 97t109 74.5t124.5 47.5t132.5 16.5q63 0 119 -8.5t94 -24.5l-14 -187h-36l-22 80q-14 53 -55 70.5t-102 17.5q-67 0 -134 -28.5t-120 -84t-86.5 -137t-33.5 -186.5
q0 -65 16.5 -112.5t46 -79t69.5 -46.5t87 -15q28 0 58 5t53 13l65 203q6 19 8 31.5t-1 19.5t-13 10t-28 4l-60 3l12 40h331l-12 -40l-38 -3q-18 -2 -29.5 -5t-19 -10t-13 -19t-11.5 -31l-48 -152l-16 -71q-24 -4 -53.5 -12t-62.5 -16.5t-69.5 -14.5t-74.5 -6z" />
    <glyph glyph-name="G" unicode="&#x11e;" horiz-adv-x="836" 
d="M414 -13q-68 0 -129.5 20t-107.5 59t-73 96.5t-27 133.5q0 69 20.5 131.5t57 116t86.5 97t109 74.5t124.5 47.5t132.5 16.5q63 0 119 -8.5t94 -24.5l-14 -187h-36l-22 80q-14 53 -55 70.5t-102 17.5q-67 0 -134 -28.5t-120 -84t-86.5 -137t-33.5 -186.5
q0 -65 16.5 -112.5t46 -79t69.5 -46.5t87 -15q28 0 58 5t53 13l65 203q6 19 8 31.5t-1 19.5t-13 10t-28 4l-60 3l12 40h331l-12 -40l-38 -3q-18 -2 -29.5 -5t-19 -10t-13 -19t-11.5 -31l-48 -152l-16 -71q-24 -4 -53.5 -12t-62.5 -16.5t-69.5 -14.5t-74.5 -6z" />
    <glyph glyph-name="G" unicode="&#x11c;" horiz-adv-x="836" 
d="M414 -13q-68 0 -129.5 20t-107.5 59t-73 96.5t-27 133.5q0 69 20.5 131.5t57 116t86.5 97t109 74.5t124.5 47.5t132.5 16.5q63 0 119 -8.5t94 -24.5l-14 -187h-36l-22 80q-14 53 -55 70.5t-102 17.5q-67 0 -134 -28.5t-120 -84t-86.5 -137t-33.5 -186.5
q0 -65 16.5 -112.5t46 -79t69.5 -46.5t87 -15q28 0 58 5t53 13l65 203q6 19 8 31.5t-1 19.5t-13 10t-28 4l-60 3l12 40h331l-12 -40l-38 -3q-18 -2 -29.5 -5t-19 -10t-13 -19t-11.5 -31l-48 -152l-16 -71q-24 -4 -53.5 -12t-62.5 -16.5t-69.5 -14.5t-74.5 -6z" />
    <glyph glyph-name="H" unicode="H" horiz-adv-x="926" 
d="M264 650q6 19 8 31.5t-1 19.5t-12.5 10t-27.5 4l-41 3l12 40h317l-13 -40l-42 -3q-18 -1 -29.5 -4t-19 -10t-13 -19.5t-11.5 -31.5l-73 -239h390l73 239q6 19 8 31.5t-1 19.5t-12.5 10t-27.5 4l-42 3l13 40h316l-12 -40l-43 -3q-18 -1 -29.5 -4t-19 -10t-13 -19.5
t-11.5 -31.5l-166 -542q-6 -20 -8 -32t1 -19t12.5 -10t27.5 -4l41 -3l-12 -40h-316l12 40l42 3q18 1 30 4t19.5 10t13 19t11.5 32l76 248h-390l-76 -248q-6 -20 -8 -32t1 -19t12.5 -10t27.5 -4l41 -3l-12 -40h-317l13 40l42 3q18 1 29.5 4t19 10t13 19t11.5 32z" />
    <glyph glyph-name="H" unicode="&#x126;" horiz-adv-x="926" 
d="M264 650q6 19 8 31.5t-1 19.5t-12.5 10t-27.5 4l-41 3l12 40h317l-13 -40l-42 -3q-18 -1 -29.5 -4t-19 -10t-13 -19.5t-11.5 -31.5l-73 -239h390l73 239q6 19 8 31.5t-1 19.5t-12.5 10t-27.5 4l-42 3l13 40h316l-12 -40l-43 -3q-18 -1 -29.5 -4t-19 -10t-13 -19.5
t-11.5 -31.5l-166 -542q-6 -20 -8 -32t1 -19t12.5 -10t27.5 -4l41 -3l-12 -40h-316l12 40l42 3q18 1 30 4t19.5 10t13 19t11.5 32l76 248h-390l-76 -248q-6 -20 -8 -32t1 -19t12.5 -10t27.5 -4l41 -3l-12 -40h-317l13 40l42 3q18 1 29.5 4t19 10t13 19t11.5 32z" />
    <glyph glyph-name="H" unicode="&#x124;" horiz-adv-x="926" 
d="M264 650q6 19 8 31.5t-1 19.5t-12.5 10t-27.5 4l-41 3l12 40h317l-13 -40l-42 -3q-18 -1 -29.5 -4t-19 -10t-13 -19.5t-11.5 -31.5l-73 -239h390l73 239q6 19 8 31.5t-1 19.5t-12.5 10t-27.5 4l-42 3l13 40h316l-12 -40l-43 -3q-18 -1 -29.5 -4t-19 -10t-13 -19.5
t-11.5 -31.5l-166 -542q-6 -20 -8 -32t1 -19t12.5 -10t27.5 -4l41 -3l-12 -40h-316l12 40l42 3q18 1 30 4t19.5 10t13 19t11.5 32l76 248h-390l-76 -248q-6 -20 -8 -32t1 -19t12.5 -10t27.5 -4l41 -3l-12 -40h-317l13 40l42 3q18 1 29.5 4t19 10t13 19t11.5 32z" />
    <glyph glyph-name="I" unicode="I" horiz-adv-x="409" 
d="M264 650q6 19 8 31.5t-1 19.5t-12.5 10t-27.5 4l-41 3l12 40h317l-13 -40l-42 -3q-18 -1 -29.5 -4t-19 -10t-13 -19.5t-11.5 -31.5l-166 -542q-6 -20 -8 -32t1 -19t12.5 -10t27.5 -4l41 -3l-12 -40h-317l13 40l42 3q18 1 29.5 4t19 10t13 19t11.5 32z" />
    <glyph glyph-name="I" unicode="&#x1eca;" horiz-adv-x="409" 
d="M264 650q6 19 8 31.5t-1 19.5t-12.5 10t-27.5 4l-41 3l12 40h317l-13 -40l-42 -3q-18 -1 -29.5 -4t-19 -10t-13 -19.5t-11.5 -31.5l-166 -542q-6 -20 -8 -32t1 -19t12.5 -10t27.5 -4l41 -3l-12 -40h-317l13 40l42 3q18 1 29.5 4t19 10t13 19t11.5 32z" />
    <glyph glyph-name="I" unicode="&#x130;" horiz-adv-x="409" 
d="M264 650q6 19 8 31.5t-1 19.5t-12.5 10t-27.5 4l-41 3l12 40h317l-13 -40l-42 -3q-18 -1 -29.5 -4t-19 -10t-13 -19.5t-11.5 -31.5l-166 -542q-6 -20 -8 -32t1 -19t12.5 -10t27.5 -4l41 -3l-12 -40h-317l13 40l42 3q18 1 29.5 4t19 10t13 19t11.5 32z" />
    <glyph glyph-name="I" unicode="&#x12e;" horiz-adv-x="409" 
d="M264 650q6 19 8 31.5t-1 19.5t-12.5 10t-27.5 4l-41 3l12 40h317l-13 -40l-42 -3q-18 -1 -29.5 -4t-19 -10t-13 -19.5t-11.5 -31.5l-166 -542q-6 -20 -8 -32t1 -19t12.5 -10t27.5 -4l41 -3l-12 -40h-317l13 40l42 3q18 1 29.5 4t19 10t13 19t11.5 32z" />
    <glyph glyph-name="I" unicode="&#x12c;" horiz-adv-x="409" 
d="M264 650q6 19 8 31.5t-1 19.5t-12.5 10t-27.5 4l-41 3l12 40h317l-13 -40l-42 -3q-18 -1 -29.5 -4t-19 -10t-13 -19.5t-11.5 -31.5l-166 -542q-6 -20 -8 -32t1 -19t12.5 -10t27.5 -4l41 -3l-12 -40h-317l13 40l42 3q18 1 29.5 4t19 10t13 19t11.5 32z" />
    <glyph glyph-name="I" unicode="&#x12a;" horiz-adv-x="409" 
d="M264 650q6 19 8 31.5t-1 19.5t-12.5 10t-27.5 4l-41 3l12 40h317l-13 -40l-42 -3q-18 -1 -29.5 -4t-19 -10t-13 -19.5t-11.5 -31.5l-166 -542q-6 -20 -8 -32t1 -19t12.5 -10t27.5 -4l41 -3l-12 -40h-317l13 40l42 3q18 1 29.5 4t19 10t13 19t11.5 32z" />
    <glyph glyph-name="I" unicode="&#x128;" horiz-adv-x="409" 
d="M264 650q6 19 8 31.5t-1 19.5t-12.5 10t-27.5 4l-41 3l12 40h317l-13 -40l-42 -3q-18 -1 -29.5 -4t-19 -10t-13 -19.5t-11.5 -31.5l-166 -542q-6 -20 -8 -32t1 -19t12.5 -10t27.5 -4l41 -3l-12 -40h-317l13 40l42 3q18 1 29.5 4t19 10t13 19t11.5 32z" />
    <glyph glyph-name="I" unicode="&#xcf;" horiz-adv-x="409" 
d="M264 650q6 19 8 31.5t-1 19.5t-12.5 10t-27.5 4l-41 3l12 40h317l-13 -40l-42 -3q-18 -1 -29.5 -4t-19 -10t-13 -19.5t-11.5 -31.5l-166 -542q-6 -20 -8 -32t1 -19t12.5 -10t27.5 -4l41 -3l-12 -40h-317l13 40l42 3q18 1 29.5 4t19 10t13 19t11.5 32z" />
    <glyph glyph-name="I" unicode="&#xce;" horiz-adv-x="409" 
d="M264 650q6 19 8 31.5t-1 19.5t-12.5 10t-27.5 4l-41 3l12 40h317l-13 -40l-42 -3q-18 -1 -29.5 -4t-19 -10t-13 -19.5t-11.5 -31.5l-166 -542q-6 -20 -8 -32t1 -19t12.5 -10t27.5 -4l41 -3l-12 -40h-317l13 40l42 3q18 1 29.5 4t19 10t13 19t11.5 32z" />
    <glyph glyph-name="I" unicode="&#xcd;" horiz-adv-x="409" 
d="M264 650q6 19 8 31.5t-1 19.5t-12.5 10t-27.5 4l-41 3l12 40h317l-13 -40l-42 -3q-18 -1 -29.5 -4t-19 -10t-13 -19.5t-11.5 -31.5l-166 -542q-6 -20 -8 -32t1 -19t12.5 -10t27.5 -4l41 -3l-12 -40h-317l13 40l42 3q18 1 29.5 4t19 10t13 19t11.5 32z" />
    <glyph glyph-name="I" unicode="&#xcc;" horiz-adv-x="409" 
d="M264 650q6 19 8 31.5t-1 19.5t-12.5 10t-27.5 4l-41 3l12 40h317l-13 -40l-42 -3q-18 -1 -29.5 -4t-19 -10t-13 -19.5t-11.5 -31.5l-166 -542q-6 -20 -8 -32t1 -19t12.5 -10t27.5 -4l41 -3l-12 -40h-317l13 40l42 3q18 1 29.5 4t19 10t13 19t11.5 32z" />
    <glyph glyph-name="J" unicode="J" horiz-adv-x="403" 
d="M-88 -70q49 34 84 60.5t60.5 54.5t43.5 63t34 86l139 456q6 19 8 31.5t-1 19.5t-12.5 10t-27.5 4l-41 3l12 40h316l-12 -40l-42 -3q-18 -1 -30 -4t-19.5 -10t-13 -19.5t-11.5 -31.5l-134 -442q-12 -39 -25 -67.5t-29.5 -51t-38.5 -41t-50 -37.5q-17 -11 -39.5 -25.5
t-48 -30t-52 -31t-50.5 -29.5z" />
    <glyph glyph-name="J" unicode="&#x134;" horiz-adv-x="403" 
d="M-88 -70q49 34 84 60.5t60.5 54.5t43.5 63t34 86l139 456q6 19 8 31.5t-1 19.5t-12.5 10t-27.5 4l-41 3l12 40h316l-12 -40l-42 -3q-18 -1 -30 -4t-19.5 -10t-13 -19.5t-11.5 -31.5l-134 -442q-12 -39 -25 -67.5t-29.5 -51t-38.5 -41t-50 -37.5q-17 -11 -39.5 -25.5
t-48 -30t-52 -31t-50.5 -29.5z" />
    <glyph glyph-name="K" unicode="K" horiz-adv-x="838" 
d="M368 349l-70 -3l-73 -238q-6 -20 -8 -32t1 -19t12.5 -10t27.5 -4l41 -3l-12 -40h-317l13 40l42 3q18 1 29.5 4t19 10t13 19t11.5 32l166 542q6 19 8 31.5t-1 19.5t-12.5 10t-27.5 4l-41 3l12 40h317l-13 -40l-42 -3q-18 -1 -29.5 -4t-19 -10t-13 -19.5t-11.5 -31.5
l-82 -267q20 3 37 12.5t44 29.5l245 187q44 34 66.5 54t28.5 31t-1.5 14.5t-24.5 4.5l-40 2l12 40h285l-13 -40l-30 -2q-23 -2 -40 -5.5t-39 -15t-52.5 -32.5t-79.5 -57l-242 -177l210 -346q12 -20 23.5 -29t37.5 -11l41 -3l-13 -40h-194z" />
    <glyph glyph-name="K" unicode="&#x136;" horiz-adv-x="838" 
d="M368 349l-70 -3l-73 -238q-6 -20 -8 -32t1 -19t12.5 -10t27.5 -4l41 -3l-12 -40h-317l13 40l42 3q18 1 29.5 4t19 10t13 19t11.5 32l166 542q6 19 8 31.5t-1 19.5t-12.5 10t-27.5 4l-41 3l12 40h317l-13 -40l-42 -3q-18 -1 -29.5 -4t-19 -10t-13 -19.5t-11.5 -31.5
l-82 -267q20 3 37 12.5t44 29.5l245 187q44 34 66.5 54t28.5 31t-1.5 14.5t-24.5 4.5l-40 2l12 40h285l-13 -40l-30 -2q-23 -2 -40 -5.5t-39 -15t-52.5 -32.5t-79.5 -57l-242 -177l210 -346q12 -20 23.5 -29t37.5 -11l41 -3l-13 -40h-194z" />
    <glyph glyph-name="L" unicode="L" horiz-adv-x="656" 
d="M-17 40l42 3q18 1 30 4t19.5 10.5t13 19.5t11.5 32l165 541q6 19 8 31.5t-1 19.5t-12.5 10t-27.5 4l-41 3l12 40h317l-13 -40l-42 -3q-18 -1 -29.5 -4t-19 -10t-13 -19.5t-11.5 -31.5l-160 -520q-9 -29 -9.5 -45t8.5 -24.5t28.5 -10.5t51.5 -2q45 0 76.5 3t56.5 12
t46.5 26t46.5 46l63 71h37l-117 -206h-549z" />
    <glyph glyph-name="L" unicode="&#x141;" horiz-adv-x="656" 
d="M-17 40l42 3q18 1 30 4t19.5 10.5t13 19.5t11.5 32l165 541q6 19 8 31.5t-1 19.5t-12.5 10t-27.5 4l-41 3l12 40h317l-13 -40l-42 -3q-18 -1 -29.5 -4t-19 -10t-13 -19.5t-11.5 -31.5l-160 -520q-9 -29 -9.5 -45t8.5 -24.5t28.5 -10.5t51.5 -2q45 0 76.5 3t56.5 12
t46.5 26t46.5 46l63 71h37l-117 -206h-549z" />
    <glyph glyph-name="L" unicode="&#x13f;" horiz-adv-x="656" 
d="M-17 40l42 3q18 1 30 4t19.5 10.5t13 19.5t11.5 32l165 541q6 19 8 31.5t-1 19.5t-12.5 10t-27.5 4l-41 3l12 40h317l-13 -40l-42 -3q-18 -1 -29.5 -4t-19 -10t-13 -19.5t-11.5 -31.5l-160 -520q-9 -29 -9.5 -45t8.5 -24.5t28.5 -10.5t51.5 -2q45 0 76.5 3t56.5 12
t46.5 26t46.5 46l63 71h37l-117 -206h-549z" />
    <glyph glyph-name="L" unicode="&#x13d;" horiz-adv-x="656" 
d="M-17 40l42 3q18 1 30 4t19.5 10.5t13 19.5t11.5 32l165 541q6 19 8 31.5t-1 19.5t-12.5 10t-27.5 4l-41 3l12 40h317l-13 -40l-42 -3q-18 -1 -29.5 -4t-19 -10t-13 -19.5t-11.5 -31.5l-160 -520q-9 -29 -9.5 -45t8.5 -24.5t28.5 -10.5t51.5 -2q45 0 76.5 3t56.5 12
t46.5 26t46.5 46l63 71h37l-117 -206h-549z" />
    <glyph glyph-name="L" unicode="&#x13b;" horiz-adv-x="656" 
d="M-17 40l42 3q18 1 30 4t19.5 10.5t13 19.5t11.5 32l165 541q6 19 8 31.5t-1 19.5t-12.5 10t-27.5 4l-41 3l12 40h317l-13 -40l-42 -3q-18 -1 -29.5 -4t-19 -10t-13 -19.5t-11.5 -31.5l-160 -520q-9 -29 -9.5 -45t8.5 -24.5t28.5 -10.5t51.5 -2q45 0 76.5 3t56.5 12
t46.5 26t46.5 46l63 71h37l-117 -206h-549z" />
    <glyph glyph-name="L" unicode="&#x139;" horiz-adv-x="656" 
d="M-17 40l42 3q18 1 30 4t19.5 10.5t13 19.5t11.5 32l165 541q6 19 8 31.5t-1 19.5t-12.5 10t-27.5 4l-41 3l12 40h317l-13 -40l-42 -3q-18 -1 -29.5 -4t-19 -10t-13 -19.5t-11.5 -31.5l-160 -520q-9 -29 -9.5 -45t8.5 -24.5t28.5 -10.5t51.5 -2q45 0 76.5 3t56.5 12
t46.5 26t46.5 46l63 71h37l-117 -206h-549z" />
    <glyph glyph-name="M" unicode="M" horiz-adv-x="1055" 
d="M322 623l-128 -388q-22 -67 -32.5 -104.5t-9.5 -56.5t11.5 -24t30.5 -7l35 -3l-12 -40h-265l12 40l38 3q22 2 37 7t28.5 23.5t29 56.5t39.5 105l146 416q14 41 7 51.5t-39 12.5l-41 3l12 40h209l81 -571l410 571h224l-12 -40l-44 -3q-17 -1 -28 -3.5t-19 -9t-13.5 -18.5
t-10.5 -33l-139 -543q-5 -20 -6.5 -32t1.5 -18.5t12.5 -10t27.5 -4.5l40 -3l-12 -40h-316l12 40l43 3q18 1 30 4t19.5 10t12.5 19t10 32l132 512l-455 -629h-17z" />
    <glyph glyph-name="N" unicode="N" horiz-adv-x="925" 
d="M317 597l-111 -362q-21 -67 -30.5 -104t-8.5 -55.5t13 -23.5t35 -8l36 -4l-12 -40h-266l12 40l38 4q24 3 39.5 8t28 23.5t26 55.5t33.5 104l106 347q11 37 12 62t-8.5 40.5t-31 23.5t-54.5 10l12 40h173l355 -581l105 346q20 67 30 104t9 55.5t-13 23.5t-35 8l-36 4
l12 40h267l-12 -40l-39 -4q-24 -3 -39.5 -8t-28 -23.5t-26 -55.5t-33.5 -104l-162 -531h-29z" />
    <glyph glyph-name="N" unicode="&#x14a;" horiz-adv-x="925" 
d="M317 597l-111 -362q-21 -67 -30.5 -104t-8.5 -55.5t13 -23.5t35 -8l36 -4l-12 -40h-266l12 40l38 4q24 3 39.5 8t28 23.5t26 55.5t33.5 104l106 347q11 37 12 62t-8.5 40.5t-31 23.5t-54.5 10l12 40h173l355 -581l105 346q20 67 30 104t9 55.5t-13 23.5t-35 8l-36 4
l12 40h267l-12 -40l-39 -4q-24 -3 -39.5 -8t-28 -23.5t-26 -55.5t-33.5 -104l-162 -531h-29z" />
    <glyph glyph-name="N" unicode="&#x147;" horiz-adv-x="925" 
d="M317 597l-111 -362q-21 -67 -30.5 -104t-8.5 -55.5t13 -23.5t35 -8l36 -4l-12 -40h-266l12 40l38 4q24 3 39.5 8t28 23.5t26 55.5t33.5 104l106 347q11 37 12 62t-8.5 40.5t-31 23.5t-54.5 10l12 40h173l355 -581l105 346q20 67 30 104t9 55.5t-13 23.5t-35 8l-36 4
l12 40h267l-12 -40l-39 -4q-24 -3 -39.5 -8t-28 -23.5t-26 -55.5t-33.5 -104l-162 -531h-29z" />
    <glyph glyph-name="N" unicode="&#x145;" horiz-adv-x="925" 
d="M317 597l-111 -362q-21 -67 -30.5 -104t-8.5 -55.5t13 -23.5t35 -8l36 -4l-12 -40h-266l12 40l38 4q24 3 39.5 8t28 23.5t26 55.5t33.5 104l106 347q11 37 12 62t-8.5 40.5t-31 23.5t-54.5 10l12 40h173l355 -581l105 346q20 67 30 104t9 55.5t-13 23.5t-35 8l-36 4
l12 40h267l-12 -40l-39 -4q-24 -3 -39.5 -8t-28 -23.5t-26 -55.5t-33.5 -104l-162 -531h-29z" />
    <glyph glyph-name="N" unicode="&#x143;" horiz-adv-x="925" 
d="M317 597l-111 -362q-21 -67 -30.5 -104t-8.5 -55.5t13 -23.5t35 -8l36 -4l-12 -40h-266l12 40l38 4q24 3 39.5 8t28 23.5t26 55.5t33.5 104l106 347q11 37 12 62t-8.5 40.5t-31 23.5t-54.5 10l12 40h173l355 -581l105 346q20 67 30 104t9 55.5t-13 23.5t-35 8l-36 4
l12 40h267l-12 -40l-39 -4q-24 -3 -39.5 -8t-28 -23.5t-26 -55.5t-33.5 -104l-162 -531h-29z" />
    <glyph glyph-name="N" unicode="&#xd1;" horiz-adv-x="925" 
d="M317 597l-111 -362q-21 -67 -30.5 -104t-8.5 -55.5t13 -23.5t35 -8l36 -4l-12 -40h-266l12 40l38 4q24 3 39.5 8t28 23.5t26 55.5t33.5 104l106 347q11 37 12 62t-8.5 40.5t-31 23.5t-54.5 10l12 40h173l355 -581l105 346q20 67 30 104t9 55.5t-13 23.5t-35 8l-36 4
l12 40h267l-12 -40l-39 -4q-24 -3 -39.5 -8t-28 -23.5t-26 -55.5t-33.5 -104l-162 -531h-29z" />
    <glyph glyph-name="O" unicode="O" 
d="M403 -13q-70 0 -129.5 23t-102.5 64.5t-67 100.5t-24 131q0 58 16.5 115.5t47 110t73.5 97.5t95.5 78.5t113 52.5t127.5 19q70 0 129.5 -23t102.5 -64.5t67.5 -100.5t24.5 -131q0 -87 -36.5 -171.5t-100.5 -151.5t-150.5 -108.5t-186.5 -41.5zM408 37q55 0 101 21.5
t82.5 57.5t64 83t45.5 98t27 103.5t9 98.5q0 117 -51.5 173.5t-136.5 56.5q-55 0 -101 -21.5t-82.5 -57.5t-64 -83t-45.5 -98t-27 -103.5t-9 -98.5q0 -117 51 -173.5t137 -56.5z" />
    <glyph glyph-name="O" unicode="&#x1ecc;" 
d="M403 -13q-70 0 -129.5 23t-102.5 64.5t-67 100.5t-24 131q0 58 16.5 115.5t47 110t73.5 97.5t95.5 78.5t113 52.5t127.5 19q70 0 129.5 -23t102.5 -64.5t67.5 -100.5t24.5 -131q0 -87 -36.5 -171.5t-100.5 -151.5t-150.5 -108.5t-186.5 -41.5zM408 37q55 0 101 21.5
t82.5 57.5t64 83t45.5 98t27 103.5t9 98.5q0 117 -51.5 173.5t-136.5 56.5q-55 0 -101 -21.5t-82.5 -57.5t-64 -83t-45.5 -98t-27 -103.5t-9 -98.5q0 -117 51 -173.5t137 -56.5z" />
    <glyph glyph-name="O" unicode="&#x152;" 
d="M403 -13q-70 0 -129.5 23t-102.5 64.5t-67 100.5t-24 131q0 58 16.5 115.5t47 110t73.5 97.5t95.5 78.5t113 52.5t127.5 19q70 0 129.5 -23t102.5 -64.5t67.5 -100.5t24.5 -131q0 -87 -36.5 -171.5t-100.5 -151.5t-150.5 -108.5t-186.5 -41.5zM408 37q55 0 101 21.5
t82.5 57.5t64 83t45.5 98t27 103.5t9 98.5q0 117 -51.5 173.5t-136.5 56.5q-55 0 -101 -21.5t-82.5 -57.5t-64 -83t-45.5 -98t-27 -103.5t-9 -98.5q0 -117 51 -173.5t137 -56.5z" />
    <glyph glyph-name="O" unicode="&#x150;" 
d="M403 -13q-70 0 -129.5 23t-102.5 64.5t-67 100.5t-24 131q0 58 16.5 115.5t47 110t73.5 97.5t95.5 78.5t113 52.5t127.5 19q70 0 129.5 -23t102.5 -64.5t67.5 -100.5t24.5 -131q0 -87 -36.5 -171.5t-100.5 -151.5t-150.5 -108.5t-186.5 -41.5zM408 37q55 0 101 21.5
t82.5 57.5t64 83t45.5 98t27 103.5t9 98.5q0 117 -51.5 173.5t-136.5 56.5q-55 0 -101 -21.5t-82.5 -57.5t-64 -83t-45.5 -98t-27 -103.5t-9 -98.5q0 -117 51 -173.5t137 -56.5z" />
    <glyph glyph-name="O" unicode="&#x14e;" 
d="M403 -13q-70 0 -129.5 23t-102.5 64.5t-67 100.5t-24 131q0 58 16.5 115.5t47 110t73.5 97.5t95.5 78.5t113 52.5t127.5 19q70 0 129.5 -23t102.5 -64.5t67.5 -100.5t24.5 -131q0 -87 -36.5 -171.5t-100.5 -151.5t-150.5 -108.5t-186.5 -41.5zM408 37q55 0 101 21.5
t82.5 57.5t64 83t45.5 98t27 103.5t9 98.5q0 117 -51.5 173.5t-136.5 56.5q-55 0 -101 -21.5t-82.5 -57.5t-64 -83t-45.5 -98t-27 -103.5t-9 -98.5q0 -117 51 -173.5t137 -56.5z" />
    <glyph glyph-name="O" unicode="&#x14c;" 
d="M403 -13q-70 0 -129.5 23t-102.5 64.5t-67 100.5t-24 131q0 58 16.5 115.5t47 110t73.5 97.5t95.5 78.5t113 52.5t127.5 19q70 0 129.5 -23t102.5 -64.5t67.5 -100.5t24.5 -131q0 -87 -36.5 -171.5t-100.5 -151.5t-150.5 -108.5t-186.5 -41.5zM408 37q55 0 101 21.5
t82.5 57.5t64 83t45.5 98t27 103.5t9 98.5q0 117 -51.5 173.5t-136.5 56.5q-55 0 -101 -21.5t-82.5 -57.5t-64 -83t-45.5 -98t-27 -103.5t-9 -98.5q0 -117 51 -173.5t137 -56.5z" />
    <glyph glyph-name="O" unicode="&#xd8;" 
d="M403 -13q-70 0 -129.5 23t-102.5 64.5t-67 100.5t-24 131q0 58 16.5 115.5t47 110t73.5 97.5t95.5 78.5t113 52.5t127.5 19q70 0 129.5 -23t102.5 -64.5t67.5 -100.5t24.5 -131q0 -87 -36.5 -171.5t-100.5 -151.5t-150.5 -108.5t-186.5 -41.5zM408 37q55 0 101 21.5
t82.5 57.5t64 83t45.5 98t27 103.5t9 98.5q0 117 -51.5 173.5t-136.5 56.5q-55 0 -101 -21.5t-82.5 -57.5t-64 -83t-45.5 -98t-27 -103.5t-9 -98.5q0 -117 51 -173.5t137 -56.5z" />
    <glyph glyph-name="O" unicode="&#xd6;" 
d="M403 -13q-70 0 -129.5 23t-102.5 64.5t-67 100.5t-24 131q0 58 16.5 115.5t47 110t73.5 97.5t95.5 78.5t113 52.5t127.5 19q70 0 129.5 -23t102.5 -64.5t67.5 -100.5t24.5 -131q0 -87 -36.5 -171.5t-100.5 -151.5t-150.5 -108.5t-186.5 -41.5zM408 37q55 0 101 21.5
t82.5 57.5t64 83t45.5 98t27 103.5t9 98.5q0 117 -51.5 173.5t-136.5 56.5q-55 0 -101 -21.5t-82.5 -57.5t-64 -83t-45.5 -98t-27 -103.5t-9 -98.5q0 -117 51 -173.5t137 -56.5z" />
    <glyph glyph-name="O" unicode="&#xd5;" 
d="M403 -13q-70 0 -129.5 23t-102.5 64.5t-67 100.5t-24 131q0 58 16.5 115.5t47 110t73.5 97.5t95.5 78.5t113 52.5t127.5 19q70 0 129.5 -23t102.5 -64.5t67.5 -100.5t24.5 -131q0 -87 -36.5 -171.5t-100.5 -151.5t-150.5 -108.5t-186.5 -41.5zM408 37q55 0 101 21.5
t82.5 57.5t64 83t45.5 98t27 103.5t9 98.5q0 117 -51.5 173.5t-136.5 56.5q-55 0 -101 -21.5t-82.5 -57.5t-64 -83t-45.5 -98t-27 -103.5t-9 -98.5q0 -117 51 -173.5t137 -56.5z" />
    <glyph glyph-name="O" unicode="&#xd4;" 
d="M403 -13q-70 0 -129.5 23t-102.5 64.5t-67 100.5t-24 131q0 58 16.5 115.5t47 110t73.5 97.5t95.5 78.5t113 52.5t127.5 19q70 0 129.5 -23t102.5 -64.5t67.5 -100.5t24.5 -131q0 -87 -36.5 -171.5t-100.5 -151.5t-150.5 -108.5t-186.5 -41.5zM408 37q55 0 101 21.5
t82.5 57.5t64 83t45.5 98t27 103.5t9 98.5q0 117 -51.5 173.5t-136.5 56.5q-55 0 -101 -21.5t-82.5 -57.5t-64 -83t-45.5 -98t-27 -103.5t-9 -98.5q0 -117 51 -173.5t137 -56.5z" />
    <glyph glyph-name="O" unicode="&#xd3;" 
d="M403 -13q-70 0 -129.5 23t-102.5 64.5t-67 100.5t-24 131q0 58 16.5 115.5t47 110t73.5 97.5t95.5 78.5t113 52.5t127.5 19q70 0 129.5 -23t102.5 -64.5t67.5 -100.5t24.5 -131q0 -87 -36.5 -171.5t-100.5 -151.5t-150.5 -108.5t-186.5 -41.5zM408 37q55 0 101 21.5
t82.5 57.5t64 83t45.5 98t27 103.5t9 98.5q0 117 -51.5 173.5t-136.5 56.5q-55 0 -101 -21.5t-82.5 -57.5t-64 -83t-45.5 -98t-27 -103.5t-9 -98.5q0 -117 51 -173.5t137 -56.5z" />
    <glyph glyph-name="O" unicode="&#xd2;" 
d="M403 -13q-70 0 -129.5 23t-102.5 64.5t-67 100.5t-24 131q0 58 16.5 115.5t47 110t73.5 97.5t95.5 78.5t113 52.5t127.5 19q70 0 129.5 -23t102.5 -64.5t67.5 -100.5t24.5 -131q0 -87 -36.5 -171.5t-100.5 -151.5t-150.5 -108.5t-186.5 -41.5zM408 37q55 0 101 21.5
t82.5 57.5t64 83t45.5 98t27 103.5t9 98.5q0 117 -51.5 173.5t-136.5 56.5q-55 0 -101 -21.5t-82.5 -57.5t-64 -83t-45.5 -98t-27 -103.5t-9 -98.5q0 -117 51 -173.5t137 -56.5z" />
    <glyph glyph-name="P" unicode="P" horiz-adv-x="684" 
d="M-17 40l42 3q18 1 29.5 4t19 10t13 19t11.5 32l166 542q6 19 8 31.5t-1 19.5t-12.5 10t-27.5 4l-41 3l12 40h283q55 0 104 -9t85.5 -29t57.5 -52.5t21 -79.5q0 -50 -23 -95.5t-69.5 -81t-116.5 -56.5t-164 -21h-39l13 43h31q61 0 104 19.5t70.5 50t40 68t12.5 74.5
q0 66 -38.5 94.5t-112.5 28.5q-32 0 -43.5 -3.5t-15.5 -19.5l-177 -581q-6 -20 -8 -32.5t1.5 -19t15 -9t32.5 -3.5l53 -2l-12 -42h-337z" />
    <glyph glyph-name="P" unicode="&#xde;" horiz-adv-x="684" 
d="M-17 40l42 3q18 1 29.5 4t19 10t13 19t11.5 32l166 542q6 19 8 31.5t-1 19.5t-12.5 10t-27.5 4l-41 3l12 40h283q55 0 104 -9t85.5 -29t57.5 -52.5t21 -79.5q0 -50 -23 -95.5t-69.5 -81t-116.5 -56.5t-164 -21h-39l13 43h31q61 0 104 19.5t70.5 50t40 68t12.5 74.5
q0 66 -38.5 94.5t-112.5 28.5q-32 0 -43.5 -3.5t-15.5 -19.5l-177 -581q-6 -20 -8 -32.5t1.5 -19t15 -9t32.5 -3.5l53 -2l-12 -42h-337z" />
    <glyph glyph-name="Q" unicode="Q" 
d="M108 -144q0 8 2.5 17.5t10.5 20t23 21.5t41 20l155 57q-58 9 -105.5 35.5t-82 67t-53.5 94t-19 117.5q0 58 16.5 115.5t47 110t73.5 97.5t95.5 78.5t113 52.5t127.5 19q70 0 129.5 -23t102.5 -64.5t67.5 -100.5t24.5 -131q0 -57 -16.5 -114.5t-46.5 -109.5t-73 -97.5
t-95 -79t-112.5 -52.5t-126.5 -20l-186 -69q23 5 40 6t37 1q59 0 103 -6.5t80.5 -14t69 -13.5t69.5 -6q50 0 75.5 19t45.5 60l31 -11q-15 -39 -32 -71t-38 -55t-45.5 -35.5t-53.5 -12.5q-42 0 -89 18.5t-94.5 41t-92.5 41t-84 18.5q-28 0 -49 -10q-2 -38 -15.5 -55.5
t-32.5 -17.5q-15 0 -26.5 10.5t-11.5 30.5zM408 37q55 0 101 21.5t82.5 57.5t64 83t45.5 98t27 103.5t9 98.5q0 117 -51.5 173.5t-136.5 56.5q-55 0 -101 -21.5t-82.5 -57.5t-64 -83t-45.5 -98t-27 -103.5t-9 -98.5q0 -117 51 -173.5t137 -56.5z" />
    <glyph glyph-name="R" unicode="R" horiz-adv-x="773" 
d="M-17 40l42 3q18 1 29.5 4t19 10t13 19t11.5 32l166 542q6 19 8 31.5t-1 19.5t-12.5 10t-27.5 4l-41 3l12 40h263q140 0 215 -38.5t75 -119.5q0 -41 -18 -77.5t-52 -66t-82.5 -50.5t-109.5 -30l143 -276q16 -32 28.5 -44.5t36.5 -13.5l31 -2l-13 -40h-178l-169 358h-70
l-77 -250q-6 -20 -8.5 -32.5t1.5 -19t15.5 -9t32.5 -3.5l48 -2l-13 -42h-331zM315 405q3 -1 14 -1.5t23 -0.5h22.5h13.5q66 0 110 18t69.5 46.5t36 63t10.5 67.5q0 26 -7.5 47t-25.5 36t-47.5 23t-72.5 8q-35 0 -45 -4t-14 -19z" />
    <glyph glyph-name="R" unicode="&#x158;" horiz-adv-x="773" 
d="M-17 40l42 3q18 1 29.5 4t19 10t13 19t11.5 32l166 542q6 19 8 31.5t-1 19.5t-12.5 10t-27.5 4l-41 3l12 40h263q140 0 215 -38.5t75 -119.5q0 -41 -18 -77.5t-52 -66t-82.5 -50.5t-109.5 -30l143 -276q16 -32 28.5 -44.5t36.5 -13.5l31 -2l-13 -40h-178l-169 358h-70
l-77 -250q-6 -20 -8.5 -32.5t1.5 -19t15.5 -9t32.5 -3.5l48 -2l-13 -42h-331zM315 405q3 -1 14 -1.5t23 -0.5h22.5h13.5q66 0 110 18t69.5 46.5t36 63t10.5 67.5q0 26 -7.5 47t-25.5 36t-47.5 23t-72.5 8q-35 0 -45 -4t-14 -19z" />
    <glyph glyph-name="R" unicode="&#x156;" horiz-adv-x="773" 
d="M-17 40l42 3q18 1 29.5 4t19 10t13 19t11.5 32l166 542q6 19 8 31.5t-1 19.5t-12.5 10t-27.5 4l-41 3l12 40h263q140 0 215 -38.5t75 -119.5q0 -41 -18 -77.5t-52 -66t-82.5 -50.5t-109.5 -30l143 -276q16 -32 28.5 -44.5t36.5 -13.5l31 -2l-13 -40h-178l-169 358h-70
l-77 -250q-6 -20 -8.5 -32.5t1.5 -19t15.5 -9t32.5 -3.5l48 -2l-13 -42h-331zM315 405q3 -1 14 -1.5t23 -0.5h22.5h13.5q66 0 110 18t69.5 46.5t36 63t10.5 67.5q0 26 -7.5 47t-25.5 36t-47.5 23t-72.5 8q-35 0 -45 -4t-14 -19z" />
    <glyph glyph-name="R" unicode="&#x154;" horiz-adv-x="773" 
d="M-17 40l42 3q18 1 29.5 4t19 10t13 19t11.5 32l166 542q6 19 8 31.5t-1 19.5t-12.5 10t-27.5 4l-41 3l12 40h263q140 0 215 -38.5t75 -119.5q0 -41 -18 -77.5t-52 -66t-82.5 -50.5t-109.5 -30l143 -276q16 -32 28.5 -44.5t36.5 -13.5l31 -2l-13 -40h-178l-169 358h-70
l-77 -250q-6 -20 -8.5 -32.5t1.5 -19t15.5 -9t32.5 -3.5l48 -2l-13 -42h-331zM315 405q3 -1 14 -1.5t23 -0.5h22.5h13.5q66 0 110 18t69.5 46.5t36 63t10.5 67.5q0 26 -7.5 47t-25.5 36t-47.5 23t-72.5 8q-35 0 -45 -4t-14 -19z" />
    <glyph glyph-name="S" unicode="S" horiz-adv-x="594" 
d="M194 -13q-52 0 -101 15.5t-81 33.5l35 214h34l19 -136q2 -17 7 -30t14 -22q15 -14 40.5 -19t57.5 -5q37 0 70.5 11t58 31.5t39 49t14.5 63.5q0 39 -18 70t-53 63l-61 57q-42 40 -61.5 79t-19.5 85q0 48 22.5 90.5t62.5 74t96 49.5t122 18q52 0 92 -9.5t71 -20.5l-38 -181
h-33l-11 83q-4 26 -11.5 41t-22.5 23q-28 14 -71 14q-36 0 -66.5 -10t-52 -28t-33.5 -42.5t-12 -53.5q0 -28 11.5 -54.5t38.5 -52.5l61 -58q23 -22 43 -42.5t34.5 -43t23 -48.5t8.5 -59q0 -52 -23.5 -97.5t-66.5 -79.5t-104 -53.5t-135 -19.5z" />
    <glyph glyph-name="S" unicode="&#x218;" horiz-adv-x="594" 
d="M194 -13q-52 0 -101 15.5t-81 33.5l35 214h34l19 -136q2 -17 7 -30t14 -22q15 -14 40.5 -19t57.5 -5q37 0 70.5 11t58 31.5t39 49t14.5 63.5q0 39 -18 70t-53 63l-61 57q-42 40 -61.5 79t-19.5 85q0 48 22.5 90.5t62.5 74t96 49.5t122 18q52 0 92 -9.5t71 -20.5l-38 -181
h-33l-11 83q-4 26 -11.5 41t-22.5 23q-28 14 -71 14q-36 0 -66.5 -10t-52 -28t-33.5 -42.5t-12 -53.5q0 -28 11.5 -54.5t38.5 -52.5l61 -58q23 -22 43 -42.5t34.5 -43t23 -48.5t8.5 -59q0 -52 -23.5 -97.5t-66.5 -79.5t-104 -53.5t-135 -19.5z" />
    <glyph glyph-name="S" unicode="&#x160;" horiz-adv-x="594" 
d="M194 -13q-52 0 -101 15.5t-81 33.5l35 214h34l19 -136q2 -17 7 -30t14 -22q15 -14 40.5 -19t57.5 -5q37 0 70.5 11t58 31.5t39 49t14.5 63.5q0 39 -18 70t-53 63l-61 57q-42 40 -61.5 79t-19.5 85q0 48 22.5 90.5t62.5 74t96 49.5t122 18q52 0 92 -9.5t71 -20.5l-38 -181
h-33l-11 83q-4 26 -11.5 41t-22.5 23q-28 14 -71 14q-36 0 -66.5 -10t-52 -28t-33.5 -42.5t-12 -53.5q0 -28 11.5 -54.5t38.5 -52.5l61 -58q23 -22 43 -42.5t34.5 -43t23 -48.5t8.5 -59q0 -52 -23.5 -97.5t-66.5 -79.5t-104 -53.5t-135 -19.5z" />
    <glyph glyph-name="S" unicode="&#x15e;" horiz-adv-x="594" 
d="M194 -13q-52 0 -101 15.5t-81 33.5l35 214h34l19 -136q2 -17 7 -30t14 -22q15 -14 40.5 -19t57.5 -5q37 0 70.5 11t58 31.5t39 49t14.5 63.5q0 39 -18 70t-53 63l-61 57q-42 40 -61.5 79t-19.5 85q0 48 22.5 90.5t62.5 74t96 49.5t122 18q52 0 92 -9.5t71 -20.5l-38 -181
h-33l-11 83q-4 26 -11.5 41t-22.5 23q-28 14 -71 14q-36 0 -66.5 -10t-52 -28t-33.5 -42.5t-12 -53.5q0 -28 11.5 -54.5t38.5 -52.5l61 -58q23 -22 43 -42.5t34.5 -43t23 -48.5t8.5 -59q0 -52 -23.5 -97.5t-66.5 -79.5t-104 -53.5t-135 -19.5z" />
    <glyph glyph-name="S" unicode="&#x15c;" horiz-adv-x="594" 
d="M194 -13q-52 0 -101 15.5t-81 33.5l35 214h34l19 -136q2 -17 7 -30t14 -22q15 -14 40.5 -19t57.5 -5q37 0 70.5 11t58 31.5t39 49t14.5 63.5q0 39 -18 70t-53 63l-61 57q-42 40 -61.5 79t-19.5 85q0 48 22.5 90.5t62.5 74t96 49.5t122 18q52 0 92 -9.5t71 -20.5l-38 -181
h-33l-11 83q-4 26 -11.5 41t-22.5 23q-28 14 -71 14q-36 0 -66.5 -10t-52 -28t-33.5 -42.5t-12 -53.5q0 -28 11.5 -54.5t38.5 -52.5l61 -58q23 -22 43 -42.5t34.5 -43t23 -48.5t8.5 -59q0 -52 -23.5 -97.5t-66.5 -79.5t-104 -53.5t-135 -19.5z" />
    <glyph glyph-name="S" unicode="&#x15a;" horiz-adv-x="594" 
d="M194 -13q-52 0 -101 15.5t-81 33.5l35 214h34l19 -136q2 -17 7 -30t14 -22q15 -14 40.5 -19t57.5 -5q37 0 70.5 11t58 31.5t39 49t14.5 63.5q0 39 -18 70t-53 63l-61 57q-42 40 -61.5 79t-19.5 85q0 48 22.5 90.5t62.5 74t96 49.5t122 18q52 0 92 -9.5t71 -20.5l-38 -181
h-33l-11 83q-4 26 -11.5 41t-22.5 23q-28 14 -71 14q-36 0 -66.5 -10t-52 -28t-33.5 -42.5t-12 -53.5q0 -28 11.5 -54.5t38.5 -52.5l61 -58q23 -22 43 -42.5t34.5 -43t23 -48.5t8.5 -59q0 -52 -23.5 -97.5t-66.5 -79.5t-104 -53.5t-135 -19.5z" />
    <glyph glyph-name="T" unicode="T" horiz-adv-x="742" 
d="M135 42l50 3q21 1 34 4t21 9.5t14 19t12 33.5l183 599h-19q-61 0 -100 -2.5t-65.5 -11.5t-45.5 -27.5t-39 -49.5l-32 -50h-37l83 223h11q11 -11 22 -18t32.5 -10.5t59 -4.5t100.5 -1h216q63 0 101 1t61.5 4.5t39 10.5t33.5 18h10l-53 -223h-37l-1 50q-1 32 -8.5 50
t-28.5 27t-59 11.5t-99 2.5h-19l-183 -599q-6 -21 -8.5 -33.5t1.5 -19t15.5 -9.5t31.5 -4l50 -3l-14 -42h-346z" />
    <glyph glyph-name="T" unicode="&#x21a;" horiz-adv-x="742" 
d="M135 42l50 3q21 1 34 4t21 9.5t14 19t12 33.5l183 599h-19q-61 0 -100 -2.5t-65.5 -11.5t-45.5 -27.5t-39 -49.5l-32 -50h-37l83 223h11q11 -11 22 -18t32.5 -10.5t59 -4.5t100.5 -1h216q63 0 101 1t61.5 4.5t39 10.5t33.5 18h10l-53 -223h-37l-1 50q-1 32 -8.5 50
t-28.5 27t-59 11.5t-99 2.5h-19l-183 -599q-6 -21 -8.5 -33.5t1.5 -19t15.5 -9.5t31.5 -4l50 -3l-14 -42h-346z" />
    <glyph glyph-name="T" unicode="&#x166;" horiz-adv-x="742" 
d="M135 42l50 3q21 1 34 4t21 9.5t14 19t12 33.5l183 599h-19q-61 0 -100 -2.5t-65.5 -11.5t-45.5 -27.5t-39 -49.5l-32 -50h-37l83 223h11q11 -11 22 -18t32.5 -10.5t59 -4.5t100.5 -1h216q63 0 101 1t61.5 4.5t39 10.5t33.5 18h10l-53 -223h-37l-1 50q-1 32 -8.5 50
t-28.5 27t-59 11.5t-99 2.5h-19l-183 -599q-6 -21 -8.5 -33.5t1.5 -19t15.5 -9.5t31.5 -4l50 -3l-14 -42h-346z" />
    <glyph glyph-name="T" unicode="&#x164;" horiz-adv-x="742" 
d="M135 42l50 3q21 1 34 4t21 9.5t14 19t12 33.5l183 599h-19q-61 0 -100 -2.5t-65.5 -11.5t-45.5 -27.5t-39 -49.5l-32 -50h-37l83 223h11q11 -11 22 -18t32.5 -10.5t59 -4.5t100.5 -1h216q63 0 101 1t61.5 4.5t39 10.5t33.5 18h10l-53 -223h-37l-1 50q-1 32 -8.5 50
t-28.5 27t-59 11.5t-99 2.5h-19l-183 -599q-6 -21 -8.5 -33.5t1.5 -19t15.5 -9.5t31.5 -4l50 -3l-14 -42h-346z" />
    <glyph glyph-name="T" unicode="&#x162;" horiz-adv-x="742" 
d="M135 42l50 3q21 1 34 4t21 9.5t14 19t12 33.5l183 599h-19q-61 0 -100 -2.5t-65.5 -11.5t-45.5 -27.5t-39 -49.5l-32 -50h-37l83 223h11q11 -11 22 -18t32.5 -10.5t59 -4.5t100.5 -1h216q63 0 101 1t61.5 4.5t39 10.5t33.5 18h10l-53 -223h-37l-1 50q-1 32 -8.5 50
t-28.5 27t-59 11.5t-99 2.5h-19l-183 -599q-6 -21 -8.5 -33.5t1.5 -19t15.5 -9.5t31.5 -4l50 -3l-14 -42h-346z" />
    <glyph glyph-name="U" unicode="U" horiz-adv-x="844" 
d="M367 -13q-74 0 -128 18t-84.5 55.5t-35.5 96t19 138.5l108 355q6 19 8 31.5t-1 19.5t-12.5 10t-27.5 4l-41 3l12 40h317l-13 -40l-42 -3q-18 -1 -29.5 -4t-19 -10t-13 -19.5t-11.5 -31.5l-110 -357q-37 -119 0 -182t131 -63q106 0 173.5 60t108.5 192l68 223
q20 67 30 104.5t9 56.5t-12.5 24t-34.5 7l-37 3l13 40h268l-12 -40l-38 -3q-24 -2 -39.5 -7t-28 -24t-26 -56.5t-33.5 -104.5l-68 -223q-49 -161 -138.5 -237t-229.5 -76z" />
    <glyph glyph-name="U" unicode="&#x1ee4;" horiz-adv-x="844" 
d="M367 -13q-74 0 -128 18t-84.5 55.5t-35.5 96t19 138.5l108 355q6 19 8 31.5t-1 19.5t-12.5 10t-27.5 4l-41 3l12 40h317l-13 -40l-42 -3q-18 -1 -29.5 -4t-19 -10t-13 -19.5t-11.5 -31.5l-110 -357q-37 -119 0 -182t131 -63q106 0 173.5 60t108.5 192l68 223
q20 67 30 104.5t9 56.5t-12.5 24t-34.5 7l-37 3l13 40h268l-12 -40l-38 -3q-24 -2 -39.5 -7t-28 -24t-26 -56.5t-33.5 -104.5l-68 -223q-49 -161 -138.5 -237t-229.5 -76z" />
    <glyph glyph-name="U" unicode="&#x172;" horiz-adv-x="844" 
d="M367 -13q-74 0 -128 18t-84.5 55.5t-35.5 96t19 138.5l108 355q6 19 8 31.5t-1 19.5t-12.5 10t-27.5 4l-41 3l12 40h317l-13 -40l-42 -3q-18 -1 -29.5 -4t-19 -10t-13 -19.5t-11.5 -31.5l-110 -357q-37 -119 0 -182t131 -63q106 0 173.5 60t108.5 192l68 223
q20 67 30 104.5t9 56.5t-12.5 24t-34.5 7l-37 3l13 40h268l-12 -40l-38 -3q-24 -2 -39.5 -7t-28 -24t-26 -56.5t-33.5 -104.5l-68 -223q-49 -161 -138.5 -237t-229.5 -76z" />
    <glyph glyph-name="U" unicode="&#x170;" horiz-adv-x="844" 
d="M367 -13q-74 0 -128 18t-84.5 55.5t-35.5 96t19 138.5l108 355q6 19 8 31.5t-1 19.5t-12.5 10t-27.5 4l-41 3l12 40h317l-13 -40l-42 -3q-18 -1 -29.5 -4t-19 -10t-13 -19.5t-11.5 -31.5l-110 -357q-37 -119 0 -182t131 -63q106 0 173.5 60t108.5 192l68 223
q20 67 30 104.5t9 56.5t-12.5 24t-34.5 7l-37 3l13 40h268l-12 -40l-38 -3q-24 -2 -39.5 -7t-28 -24t-26 -56.5t-33.5 -104.5l-68 -223q-49 -161 -138.5 -237t-229.5 -76z" />
    <glyph glyph-name="U" unicode="&#x16e;" horiz-adv-x="844" 
d="M367 -13q-74 0 -128 18t-84.5 55.5t-35.5 96t19 138.5l108 355q6 19 8 31.5t-1 19.5t-12.5 10t-27.5 4l-41 3l12 40h317l-13 -40l-42 -3q-18 -1 -29.5 -4t-19 -10t-13 -19.5t-11.5 -31.5l-110 -357q-37 -119 0 -182t131 -63q106 0 173.5 60t108.5 192l68 223
q20 67 30 104.5t9 56.5t-12.5 24t-34.5 7l-37 3l13 40h268l-12 -40l-38 -3q-24 -2 -39.5 -7t-28 -24t-26 -56.5t-33.5 -104.5l-68 -223q-49 -161 -138.5 -237t-229.5 -76z" />
    <glyph glyph-name="U" unicode="&#x16c;" horiz-adv-x="844" 
d="M367 -13q-74 0 -128 18t-84.5 55.5t-35.5 96t19 138.5l108 355q6 19 8 31.5t-1 19.5t-12.5 10t-27.5 4l-41 3l12 40h317l-13 -40l-42 -3q-18 -1 -29.5 -4t-19 -10t-13 -19.5t-11.5 -31.5l-110 -357q-37 -119 0 -182t131 -63q106 0 173.5 60t108.5 192l68 223
q20 67 30 104.5t9 56.5t-12.5 24t-34.5 7l-37 3l13 40h268l-12 -40l-38 -3q-24 -2 -39.5 -7t-28 -24t-26 -56.5t-33.5 -104.5l-68 -223q-49 -161 -138.5 -237t-229.5 -76z" />
    <glyph glyph-name="U" unicode="&#x16a;" horiz-adv-x="844" 
d="M367 -13q-74 0 -128 18t-84.5 55.5t-35.5 96t19 138.5l108 355q6 19 8 31.5t-1 19.5t-12.5 10t-27.5 4l-41 3l12 40h317l-13 -40l-42 -3q-18 -1 -29.5 -4t-19 -10t-13 -19.5t-11.5 -31.5l-110 -357q-37 -119 0 -182t131 -63q106 0 173.5 60t108.5 192l68 223
q20 67 30 104.5t9 56.5t-12.5 24t-34.5 7l-37 3l13 40h268l-12 -40l-38 -3q-24 -2 -39.5 -7t-28 -24t-26 -56.5t-33.5 -104.5l-68 -223q-49 -161 -138.5 -237t-229.5 -76z" />
    <glyph glyph-name="U" unicode="&#x168;" horiz-adv-x="844" 
d="M367 -13q-74 0 -128 18t-84.5 55.5t-35.5 96t19 138.5l108 355q6 19 8 31.5t-1 19.5t-12.5 10t-27.5 4l-41 3l12 40h317l-13 -40l-42 -3q-18 -1 -29.5 -4t-19 -10t-13 -19.5t-11.5 -31.5l-110 -357q-37 -119 0 -182t131 -63q106 0 173.5 60t108.5 192l68 223
q20 67 30 104.5t9 56.5t-12.5 24t-34.5 7l-37 3l13 40h268l-12 -40l-38 -3q-24 -2 -39.5 -7t-28 -24t-26 -56.5t-33.5 -104.5l-68 -223q-49 -161 -138.5 -237t-229.5 -76z" />
    <glyph glyph-name="U" unicode="&#xdc;" horiz-adv-x="844" 
d="M367 -13q-74 0 -128 18t-84.5 55.5t-35.5 96t19 138.5l108 355q6 19 8 31.5t-1 19.5t-12.5 10t-27.5 4l-41 3l12 40h317l-13 -40l-42 -3q-18 -1 -29.5 -4t-19 -10t-13 -19.5t-11.5 -31.5l-110 -357q-37 -119 0 -182t131 -63q106 0 173.5 60t108.5 192l68 223
q20 67 30 104.5t9 56.5t-12.5 24t-34.5 7l-37 3l13 40h268l-12 -40l-38 -3q-24 -2 -39.5 -7t-28 -24t-26 -56.5t-33.5 -104.5l-68 -223q-49 -161 -138.5 -237t-229.5 -76z" />
    <glyph glyph-name="U" unicode="&#xdb;" horiz-adv-x="844" 
d="M367 -13q-74 0 -128 18t-84.5 55.5t-35.5 96t19 138.5l108 355q6 19 8 31.5t-1 19.5t-12.5 10t-27.5 4l-41 3l12 40h317l-13 -40l-42 -3q-18 -1 -29.5 -4t-19 -10t-13 -19.5t-11.5 -31.5l-110 -357q-37 -119 0 -182t131 -63q106 0 173.5 60t108.5 192l68 223
q20 67 30 104.5t9 56.5t-12.5 24t-34.5 7l-37 3l13 40h268l-12 -40l-38 -3q-24 -2 -39.5 -7t-28 -24t-26 -56.5t-33.5 -104.5l-68 -223q-49 -161 -138.5 -237t-229.5 -76z" />
    <glyph glyph-name="U" unicode="&#xda;" horiz-adv-x="844" 
d="M367 -13q-74 0 -128 18t-84.5 55.5t-35.5 96t19 138.5l108 355q6 19 8 31.5t-1 19.5t-12.5 10t-27.5 4l-41 3l12 40h317l-13 -40l-42 -3q-18 -1 -29.5 -4t-19 -10t-13 -19.5t-11.5 -31.5l-110 -357q-37 -119 0 -182t131 -63q106 0 173.5 60t108.5 192l68 223
q20 67 30 104.5t9 56.5t-12.5 24t-34.5 7l-37 3l13 40h268l-12 -40l-38 -3q-24 -2 -39.5 -7t-28 -24t-26 -56.5t-33.5 -104.5l-68 -223q-49 -161 -138.5 -237t-229.5 -76z" />
    <glyph glyph-name="U" unicode="&#xd9;" horiz-adv-x="844" 
d="M367 -13q-74 0 -128 18t-84.5 55.5t-35.5 96t19 138.5l108 355q6 19 8 31.5t-1 19.5t-12.5 10t-27.5 4l-41 3l12 40h317l-13 -40l-42 -3q-18 -1 -29.5 -4t-19 -10t-13 -19.5t-11.5 -31.5l-110 -357q-37 -119 0 -182t131 -63q106 0 173.5 60t108.5 192l68 223
q20 67 30 104.5t9 56.5t-12.5 24t-34.5 7l-37 3l13 40h268l-12 -40l-38 -3q-24 -2 -39.5 -7t-28 -24t-26 -56.5t-33.5 -104.5l-68 -223q-49 -161 -138.5 -237t-229.5 -76z" />
    <glyph glyph-name="V" unicode="V" horiz-adv-x="761" 
d="M220 679q-1 20 -8.5 26t-33.5 9l-39 4l12 40h303l-12 -40l-44 -4q-30 -3 -41 -9.5t-10 -32.5l19 -511l301 404q34 46 53 74.5t23.5 44t-4.5 22t-30 8.5l-39 4l12 40h260l-12 -40l-35 -3q-17 -2 -31 -8t-30.5 -22.5t-39 -45.5t-57.5 -76l-430 -570h-60z" />
    <glyph glyph-name="W" unicode="W" horiz-adv-x="1155" 
d="M220 679q-1 20 -8.5 26t-33.5 9l-39 4l12 40h303l-12 -40l-44 -4q-30 -3 -41 -9.5t-10 -32.5l19 -511l255 343l-10 254h237l-12 -40l-44 -4q-30 -3 -41 -9.5t-10 -32.5l19 -511l301 404q34 46 53 74.5t23.5 44t-4.5 22t-30 8.5l-38 4l11 40h260l-12 -40l-34 -3
q-18 -2 -31.5 -8t-30 -22.5t-39.5 -45.5t-58 -76l-430 -570h-59l-17 422l-318 -422h-60z" />
    <glyph glyph-name="W" unicode="&#x1e84;" horiz-adv-x="1155" 
d="M220 679q-1 20 -8.5 26t-33.5 9l-39 4l12 40h303l-12 -40l-44 -4q-30 -3 -41 -9.5t-10 -32.5l19 -511l255 343l-10 254h237l-12 -40l-44 -4q-30 -3 -41 -9.5t-10 -32.5l19 -511l301 404q34 46 53 74.5t23.5 44t-4.5 22t-30 8.5l-38 4l11 40h260l-12 -40l-34 -3
q-18 -2 -31.5 -8t-30 -22.5t-39.5 -45.5t-58 -76l-430 -570h-59l-17 422l-318 -422h-60z" />
    <glyph glyph-name="W" unicode="&#x1e82;" horiz-adv-x="1155" 
d="M220 679q-1 20 -8.5 26t-33.5 9l-39 4l12 40h303l-12 -40l-44 -4q-30 -3 -41 -9.5t-10 -32.5l19 -511l255 343l-10 254h237l-12 -40l-44 -4q-30 -3 -41 -9.5t-10 -32.5l19 -511l301 404q34 46 53 74.5t23.5 44t-4.5 22t-30 8.5l-38 4l11 40h260l-12 -40l-34 -3
q-18 -2 -31.5 -8t-30 -22.5t-39.5 -45.5t-58 -76l-430 -570h-59l-17 422l-318 -422h-60z" />
    <glyph glyph-name="W" unicode="&#x1e80;" horiz-adv-x="1155" 
d="M220 679q-1 20 -8.5 26t-33.5 9l-39 4l12 40h303l-12 -40l-44 -4q-30 -3 -41 -9.5t-10 -32.5l19 -511l255 343l-10 254h237l-12 -40l-44 -4q-30 -3 -41 -9.5t-10 -32.5l19 -511l301 404q34 46 53 74.5t23.5 44t-4.5 22t-30 8.5l-38 4l11 40h260l-12 -40l-34 -3
q-18 -2 -31.5 -8t-30 -22.5t-39.5 -45.5t-58 -76l-430 -570h-59l-17 422l-318 -422h-60z" />
    <glyph glyph-name="W" unicode="&#x174;" horiz-adv-x="1155" 
d="M220 679q-1 20 -8.5 26t-33.5 9l-39 4l12 40h303l-12 -40l-44 -4q-30 -3 -41 -9.5t-10 -32.5l19 -511l255 343l-10 254h237l-12 -40l-44 -4q-30 -3 -41 -9.5t-10 -32.5l19 -511l301 404q34 46 53 74.5t23.5 44t-4.5 22t-30 8.5l-38 4l11 40h260l-12 -40l-34 -3
q-18 -2 -31.5 -8t-30 -22.5t-39.5 -45.5t-58 -76l-430 -570h-59l-17 422l-318 -422h-60z" />
    <glyph glyph-name="X" unicode="X" horiz-adv-x="828" 
d="M-71 40l39 3q18 1 34 7t37.5 20t52.5 40t79 68l237 206l-133 295q-8 17 -18 25.5t-35 10.5l-35 3l13 40h311l-13 -40l-46 -4q-30 -2 -40 -11t0 -31l94 -207l130 124q39 38 63.5 62t34.5 38t4.5 20t-25.5 7l-40 2l13 40h274l-12 -40l-40 -3q-18 -2 -34 -7t-37.5 -19.5
t-52.5 -40t-79 -68.5l-179 -160l154 -341q8 -17 17.5 -25.5t35.5 -10.5l34 -3l-12 -40h-312l13 40l47 4q29 2 39 11t0 31l-114 252l-184 -169q-40 -37 -65 -61t-34.5 -38t-4.5 -20.5t25 -7.5l41 -2l-13 -40h-277z" />
    <glyph glyph-name="Y" unicode="Y" horiz-adv-x="754" 
d="M138 42l51 3q21 1 33.5 3.5t21 9t14 18.5t11.5 32l68 220l-111 351q-6 19 -13.5 26.5t-33.5 9.5l-34 3l12 40h310l-13 -40l-53 -3q-29 -2 -41 -11t-4 -32l90 -290l173 183q78 82 92.5 115.5t-31.5 35.5l-35 2l12 40h269l-13 -40l-30 -2q-20 -1 -36 -8t-37 -24
t-49.5 -46.5t-71.5 -74.5l-227 -235l-67 -220q-6 -20 -8 -32t2 -18.5t15 -9t32 -3.5l49 -3l-13 -42h-346z" />
    <glyph glyph-name="Y" unicode="&#x1ef2;" horiz-adv-x="754" 
d="M138 42l51 3q21 1 33.5 3.5t21 9t14 18.5t11.5 32l68 220l-111 351q-6 19 -13.5 26.5t-33.5 9.5l-34 3l12 40h310l-13 -40l-53 -3q-29 -2 -41 -11t-4 -32l90 -290l173 183q78 82 92.5 115.5t-31.5 35.5l-35 2l12 40h269l-13 -40l-30 -2q-20 -1 -36 -8t-37 -24
t-49.5 -46.5t-71.5 -74.5l-227 -235l-67 -220q-6 -20 -8 -32t2 -18.5t15 -9t32 -3.5l49 -3l-13 -42h-346z" />
    <glyph glyph-name="Y" unicode="&#x232;" horiz-adv-x="754" 
d="M138 42l51 3q21 1 33.5 3.5t21 9t14 18.5t11.5 32l68 220l-111 351q-6 19 -13.5 26.5t-33.5 9.5l-34 3l12 40h310l-13 -40l-53 -3q-29 -2 -41 -11t-4 -32l90 -290l173 183q78 82 92.5 115.5t-31.5 35.5l-35 2l12 40h269l-13 -40l-30 -2q-20 -1 -36 -8t-37 -24
t-49.5 -46.5t-71.5 -74.5l-227 -235l-67 -220q-6 -20 -8 -32t2 -18.5t15 -9t32 -3.5l49 -3l-13 -42h-346z" />
    <glyph glyph-name="Y" unicode="&#x178;" horiz-adv-x="754" 
d="M138 42l51 3q21 1 33.5 3.5t21 9t14 18.5t11.5 32l68 220l-111 351q-6 19 -13.5 26.5t-33.5 9.5l-34 3l12 40h310l-13 -40l-53 -3q-29 -2 -41 -11t-4 -32l90 -290l173 183q78 82 92.5 115.5t-31.5 35.5l-35 2l12 40h269l-13 -40l-30 -2q-20 -1 -36 -8t-37 -24
t-49.5 -46.5t-71.5 -74.5l-227 -235l-67 -220q-6 -20 -8 -32t2 -18.5t15 -9t32 -3.5l49 -3l-13 -42h-346z" />
    <glyph glyph-name="Y" unicode="&#x176;" horiz-adv-x="754" 
d="M138 42l51 3q21 1 33.5 3.5t21 9t14 18.5t11.5 32l68 220l-111 351q-6 19 -13.5 26.5t-33.5 9.5l-34 3l12 40h310l-13 -40l-53 -3q-29 -2 -41 -11t-4 -32l90 -290l173 183q78 82 92.5 115.5t-31.5 35.5l-35 2l12 40h269l-13 -40l-30 -2q-20 -1 -36 -8t-37 -24
t-49.5 -46.5t-71.5 -74.5l-227 -235l-67 -220q-6 -20 -8 -32t2 -18.5t15 -9t32 -3.5l49 -3l-13 -42h-346z" />
    <glyph glyph-name="Y" unicode="&#xdd;" horiz-adv-x="754" 
d="M138 42l51 3q21 1 33.5 3.5t21 9t14 18.5t11.5 32l68 220l-111 351q-6 19 -13.5 26.5t-33.5 9.5l-34 3l12 40h310l-13 -40l-53 -3q-29 -2 -41 -11t-4 -32l90 -290l173 183q78 82 92.5 115.5t-31.5 35.5l-35 2l12 40h269l-13 -40l-30 -2q-20 -1 -36 -8t-37 -24
t-49.5 -46.5t-71.5 -74.5l-227 -235l-67 -220q-6 -20 -8 -32t2 -18.5t15 -9t32 -3.5l49 -3l-13 -42h-346z" />
    <glyph glyph-name="Z" unicode="Z" horiz-adv-x="767" 
d="M694 710h-166q-68 0 -109 -3t-68.5 -12.5t-47.5 -27t-45 -45.5l-62 -70h-39l141 240h10q11 -11 25 -18t38 -10.5t61.5 -4.5t94.5 -1h365l-761 -710h216q68 0 109 3t68.5 12t47.5 26t45 46l62 71h39l-117 -206h-669z" />
    <glyph glyph-name="Z" unicode="&#x17d;" horiz-adv-x="767" 
d="M694 710h-166q-68 0 -109 -3t-68.5 -12.5t-47.5 -27t-45 -45.5l-62 -70h-39l141 240h10q11 -11 25 -18t38 -10.5t61.5 -4.5t94.5 -1h365l-761 -710h216q68 0 109 3t68.5 12t47.5 26t45 46l62 71h39l-117 -206h-669z" />
    <glyph glyph-name="Z" unicode="&#x17b;" horiz-adv-x="767" 
d="M694 710h-166q-68 0 -109 -3t-68.5 -12.5t-47.5 -27t-45 -45.5l-62 -70h-39l141 240h10q11 -11 25 -18t38 -10.5t61.5 -4.5t94.5 -1h365l-761 -710h216q68 0 109 3t68.5 12t47.5 26t45 46l62 71h39l-117 -206h-669z" />
    <glyph glyph-name="Z" unicode="&#x179;" horiz-adv-x="767" 
d="M694 710h-166q-68 0 -109 -3t-68.5 -12.5t-47.5 -27t-45 -45.5l-62 -70h-39l141 240h10q11 -11 25 -18t38 -10.5t61.5 -4.5t94.5 -1h365l-761 -710h216q68 0 109 3t68.5 12t47.5 26t45 46l62 71h39l-117 -206h-669z" />
    <glyph glyph-name="a" unicode="a" horiz-adv-x="581" 
d="M89 -13q-49 0 -70.5 28t-21.5 70q0 43 19 92t51 97.5t73 93t85 78.5t87.5 54t80.5 20q26 0 47 -6t34 -16l86 40l7 -6l-156 -413q-11 -29 -13 -43.5t11 -14.5q10 0 25 10.5t32.5 28.5t37 43t37.5 54l31 -18q-59 -96 -119 -144t-116 -48q-47 0 -53 29.5t17 92.5l22 60h-1
q-58 -85 -115.5 -133.5t-117.5 -48.5zM158 56q17 0 46 23t61 62t62.5 89.5t51.5 104.5l25 66q8 21 8 35.5t-5.5 23.5t-14.5 13t-19 4q-27 0 -55 -17t-55 -46t-51 -66.5t-42.5 -78t-29 -81.5t-10.5 -76q0 -24 6 -40t22 -16z" />
    <glyph glyph-name="a" unicode="&#x105;" horiz-adv-x="581" 
d="M89 -13q-49 0 -70.5 28t-21.5 70q0 43 19 92t51 97.5t73 93t85 78.5t87.5 54t80.5 20q26 0 47 -6t34 -16l86 40l7 -6l-156 -413q-11 -29 -13 -43.5t11 -14.5q10 0 25 10.5t32.5 28.5t37 43t37.5 54l31 -18q-59 -96 -119 -144t-116 -48q-47 0 -53 29.5t17 92.5l22 60h-1
q-58 -85 -115.5 -133.5t-117.5 -48.5zM158 56q17 0 46 23t61 62t62.5 89.5t51.5 104.5l25 66q8 21 8 35.5t-5.5 23.5t-14.5 13t-19 4q-27 0 -55 -17t-55 -46t-51 -66.5t-42.5 -78t-29 -81.5t-10.5 -76q0 -24 6 -40t22 -16z" />
    <glyph glyph-name="a" unicode="&#x103;" horiz-adv-x="581" 
d="M89 -13q-49 0 -70.5 28t-21.5 70q0 43 19 92t51 97.5t73 93t85 78.5t87.5 54t80.5 20q26 0 47 -6t34 -16l86 40l7 -6l-156 -413q-11 -29 -13 -43.5t11 -14.5q10 0 25 10.5t32.5 28.5t37 43t37.5 54l31 -18q-59 -96 -119 -144t-116 -48q-47 0 -53 29.5t17 92.5l22 60h-1
q-58 -85 -115.5 -133.5t-117.5 -48.5zM158 56q17 0 46 23t61 62t62.5 89.5t51.5 104.5l25 66q8 21 8 35.5t-5.5 23.5t-14.5 13t-19 4q-27 0 -55 -17t-55 -46t-51 -66.5t-42.5 -78t-29 -81.5t-10.5 -76q0 -24 6 -40t22 -16z" />
    <glyph glyph-name="a" unicode="&#x101;" horiz-adv-x="581" 
d="M89 -13q-49 0 -70.5 28t-21.5 70q0 43 19 92t51 97.5t73 93t85 78.5t87.5 54t80.5 20q26 0 47 -6t34 -16l86 40l7 -6l-156 -413q-11 -29 -13 -43.5t11 -14.5q10 0 25 10.5t32.5 28.5t37 43t37.5 54l31 -18q-59 -96 -119 -144t-116 -48q-47 0 -53 29.5t17 92.5l22 60h-1
q-58 -85 -115.5 -133.5t-117.5 -48.5zM158 56q17 0 46 23t61 62t62.5 89.5t51.5 104.5l25 66q8 21 8 35.5t-5.5 23.5t-14.5 13t-19 4q-27 0 -55 -17t-55 -46t-51 -66.5t-42.5 -78t-29 -81.5t-10.5 -76q0 -24 6 -40t22 -16z" />
    <glyph glyph-name="a" unicode="&#xe6;" horiz-adv-x="581" 
d="M89 -13q-49 0 -70.5 28t-21.5 70q0 43 19 92t51 97.5t73 93t85 78.5t87.5 54t80.5 20q26 0 47 -6t34 -16l86 40l7 -6l-156 -413q-11 -29 -13 -43.5t11 -14.5q10 0 25 10.5t32.5 28.5t37 43t37.5 54l31 -18q-59 -96 -119 -144t-116 -48q-47 0 -53 29.5t17 92.5l22 60h-1
q-58 -85 -115.5 -133.5t-117.5 -48.5zM158 56q17 0 46 23t61 62t62.5 89.5t51.5 104.5l25 66q8 21 8 35.5t-5.5 23.5t-14.5 13t-19 4q-27 0 -55 -17t-55 -46t-51 -66.5t-42.5 -78t-29 -81.5t-10.5 -76q0 -24 6 -40t22 -16z" />
    <glyph glyph-name="a" unicode="&#xe5;" horiz-adv-x="581" 
d="M89 -13q-49 0 -70.5 28t-21.5 70q0 43 19 92t51 97.5t73 93t85 78.5t87.5 54t80.5 20q26 0 47 -6t34 -16l86 40l7 -6l-156 -413q-11 -29 -13 -43.5t11 -14.5q10 0 25 10.5t32.5 28.5t37 43t37.5 54l31 -18q-59 -96 -119 -144t-116 -48q-47 0 -53 29.5t17 92.5l22 60h-1
q-58 -85 -115.5 -133.5t-117.5 -48.5zM158 56q17 0 46 23t61 62t62.5 89.5t51.5 104.5l25 66q8 21 8 35.5t-5.5 23.5t-14.5 13t-19 4q-27 0 -55 -17t-55 -46t-51 -66.5t-42.5 -78t-29 -81.5t-10.5 -76q0 -24 6 -40t22 -16z" />
    <glyph glyph-name="a" unicode="&#xe4;" horiz-adv-x="581" 
d="M89 -13q-49 0 -70.5 28t-21.5 70q0 43 19 92t51 97.5t73 93t85 78.5t87.5 54t80.5 20q26 0 47 -6t34 -16l86 40l7 -6l-156 -413q-11 -29 -13 -43.5t11 -14.5q10 0 25 10.5t32.5 28.5t37 43t37.5 54l31 -18q-59 -96 -119 -144t-116 -48q-47 0 -53 29.5t17 92.5l22 60h-1
q-58 -85 -115.5 -133.5t-117.5 -48.5zM158 56q17 0 46 23t61 62t62.5 89.5t51.5 104.5l25 66q8 21 8 35.5t-5.5 23.5t-14.5 13t-19 4q-27 0 -55 -17t-55 -46t-51 -66.5t-42.5 -78t-29 -81.5t-10.5 -76q0 -24 6 -40t22 -16z" />
    <glyph glyph-name="a" unicode="&#xe3;" horiz-adv-x="581" 
d="M89 -13q-49 0 -70.5 28t-21.5 70q0 43 19 92t51 97.5t73 93t85 78.5t87.5 54t80.5 20q26 0 47 -6t34 -16l86 40l7 -6l-156 -413q-11 -29 -13 -43.5t11 -14.5q10 0 25 10.5t32.5 28.5t37 43t37.5 54l31 -18q-59 -96 -119 -144t-116 -48q-47 0 -53 29.5t17 92.5l22 60h-1
q-58 -85 -115.5 -133.5t-117.5 -48.5zM158 56q17 0 46 23t61 62t62.5 89.5t51.5 104.5l25 66q8 21 8 35.5t-5.5 23.5t-14.5 13t-19 4q-27 0 -55 -17t-55 -46t-51 -66.5t-42.5 -78t-29 -81.5t-10.5 -76q0 -24 6 -40t22 -16z" />
    <glyph glyph-name="a" unicode="&#xe2;" horiz-adv-x="581" 
d="M89 -13q-49 0 -70.5 28t-21.5 70q0 43 19 92t51 97.5t73 93t85 78.5t87.5 54t80.5 20q26 0 47 -6t34 -16l86 40l7 -6l-156 -413q-11 -29 -13 -43.5t11 -14.5q10 0 25 10.5t32.5 28.5t37 43t37.5 54l31 -18q-59 -96 -119 -144t-116 -48q-47 0 -53 29.5t17 92.5l22 60h-1
q-58 -85 -115.5 -133.5t-117.5 -48.5zM158 56q17 0 46 23t61 62t62.5 89.5t51.5 104.5l25 66q8 21 8 35.5t-5.5 23.5t-14.5 13t-19 4q-27 0 -55 -17t-55 -46t-51 -66.5t-42.5 -78t-29 -81.5t-10.5 -76q0 -24 6 -40t22 -16z" />
    <glyph glyph-name="a" unicode="&#xe1;" horiz-adv-x="581" 
d="M89 -13q-49 0 -70.5 28t-21.5 70q0 43 19 92t51 97.5t73 93t85 78.5t87.5 54t80.5 20q26 0 47 -6t34 -16l86 40l7 -6l-156 -413q-11 -29 -13 -43.5t11 -14.5q10 0 25 10.5t32.5 28.5t37 43t37.5 54l31 -18q-59 -96 -119 -144t-116 -48q-47 0 -53 29.5t17 92.5l22 60h-1
q-58 -85 -115.5 -133.5t-117.5 -48.5zM158 56q17 0 46 23t61 62t62.5 89.5t51.5 104.5l25 66q8 21 8 35.5t-5.5 23.5t-14.5 13t-19 4q-27 0 -55 -17t-55 -46t-51 -66.5t-42.5 -78t-29 -81.5t-10.5 -76q0 -24 6 -40t22 -16z" />
    <glyph glyph-name="a" unicode="&#xe0;" horiz-adv-x="581" 
d="M89 -13q-49 0 -70.5 28t-21.5 70q0 43 19 92t51 97.5t73 93t85 78.5t87.5 54t80.5 20q26 0 47 -6t34 -16l86 40l7 -6l-156 -413q-11 -29 -13 -43.5t11 -14.5q10 0 25 10.5t32.5 28.5t37 43t37.5 54l31 -18q-59 -96 -119 -144t-116 -48q-47 0 -53 29.5t17 92.5l22 60h-1
q-58 -85 -115.5 -133.5t-117.5 -48.5zM158 56q17 0 46 23t61 62t62.5 89.5t51.5 104.5l25 66q8 21 8 35.5t-5.5 23.5t-14.5 13t-19 4q-27 0 -55 -17t-55 -46t-51 -66.5t-42.5 -78t-29 -81.5t-10.5 -76q0 -24 6 -40t22 -16z" />
    <glyph glyph-name="b" unicode="b" horiz-adv-x="559" 
d="M152 -13q-34 0 -61.5 7t-44.5 23t-21.5 41t7.5 60l184 542q10 28 9.5 37.5t-13.5 17.5l-56 35l2 6l233 76l-130 -380q-3 -9 -10.5 -27.5t-16 -39t-16.5 -38.5t-12 -25h2q70 95 132.5 146.5t125.5 51.5q49 0 74 -28t25 -74q0 -40 -18.5 -88t-50 -96t-73.5 -92.5t-87.5 -79
t-93 -55t-90.5 -20.5zM188 34q27 0 56 16t56 43.5t51 63.5t42 76t28.5 81t10.5 78q0 59 -31 59q-21 0 -55 -25t-69.5 -66t-67.5 -94t-51 -110l-19 -57q-6 -19 -4 -31.5t9.5 -20t19 -10.5t24.5 -3z" />
    <glyph glyph-name="c" unicode="c" horiz-adv-x="442" 
d="M148 -13q-57 0 -95 36t-38 102q0 43 15 89t41 90t60.5 83.5t73.5 69t80.5 46.5t81.5 17q17 0 33 -4t29 -12t20.5 -20.5t7.5 -28.5q0 -24 -16.5 -42.5t-44.5 -22.5q-22 26 -47.5 44.5t-57.5 18.5t-59 -24.5t-47.5 -65t-32 -91.5t-11.5 -103q0 -104 70 -104q38 0 74 32
t74 95l30 -18q-21 -36 -45.5 -69.5t-53.5 -60t-64 -42t-78 -15.5z" />
    <glyph glyph-name="c" unicode="&#x10d;" horiz-adv-x="442" 
d="M148 -13q-57 0 -95 36t-38 102q0 43 15 89t41 90t60.5 83.5t73.5 69t80.5 46.5t81.5 17q17 0 33 -4t29 -12t20.5 -20.5t7.5 -28.5q0 -24 -16.5 -42.5t-44.5 -22.5q-22 26 -47.5 44.5t-57.5 18.5t-59 -24.5t-47.5 -65t-32 -91.5t-11.5 -103q0 -104 70 -104q38 0 74 32
t74 95l30 -18q-21 -36 -45.5 -69.5t-53.5 -60t-64 -42t-78 -15.5z" />
    <glyph glyph-name="c" unicode="&#x10b;" horiz-adv-x="442" 
d="M148 -13q-57 0 -95 36t-38 102q0 43 15 89t41 90t60.5 83.5t73.5 69t80.5 46.5t81.5 17q17 0 33 -4t29 -12t20.5 -20.5t7.5 -28.5q0 -24 -16.5 -42.5t-44.5 -22.5q-22 26 -47.5 44.5t-57.5 18.5t-59 -24.5t-47.5 -65t-32 -91.5t-11.5 -103q0 -104 70 -104q38 0 74 32
t74 95l30 -18q-21 -36 -45.5 -69.5t-53.5 -60t-64 -42t-78 -15.5z" />
    <glyph glyph-name="c" unicode="&#x109;" horiz-adv-x="442" 
d="M148 -13q-57 0 -95 36t-38 102q0 43 15 89t41 90t60.5 83.5t73.5 69t80.5 46.5t81.5 17q17 0 33 -4t29 -12t20.5 -20.5t7.5 -28.5q0 -24 -16.5 -42.5t-44.5 -22.5q-22 26 -47.5 44.5t-57.5 18.5t-59 -24.5t-47.5 -65t-32 -91.5t-11.5 -103q0 -104 70 -104q38 0 74 32
t74 95l30 -18q-21 -36 -45.5 -69.5t-53.5 -60t-64 -42t-78 -15.5z" />
    <glyph glyph-name="c" unicode="&#x107;" horiz-adv-x="442" 
d="M148 -13q-57 0 -95 36t-38 102q0 43 15 89t41 90t60.5 83.5t73.5 69t80.5 46.5t81.5 17q17 0 33 -4t29 -12t20.5 -20.5t7.5 -28.5q0 -24 -16.5 -42.5t-44.5 -22.5q-22 26 -47.5 44.5t-57.5 18.5t-59 -24.5t-47.5 -65t-32 -91.5t-11.5 -103q0 -104 70 -104q38 0 74 32
t74 95l30 -18q-21 -36 -45.5 -69.5t-53.5 -60t-64 -42t-78 -15.5z" />
    <glyph glyph-name="c" unicode="&#xe7;" horiz-adv-x="442" 
d="M148 -13q-57 0 -95 36t-38 102q0 43 15 89t41 90t60.5 83.5t73.5 69t80.5 46.5t81.5 17q17 0 33 -4t29 -12t20.5 -20.5t7.5 -28.5q0 -24 -16.5 -42.5t-44.5 -22.5q-22 26 -47.5 44.5t-57.5 18.5t-59 -24.5t-47.5 -65t-32 -91.5t-11.5 -103q0 -104 70 -104q38 0 74 32
t74 95l30 -18q-21 -36 -45.5 -69.5t-53.5 -60t-64 -42t-78 -15.5z" />
    <glyph glyph-name="d" unicode="d" horiz-adv-x="607" 
d="M96 -13q-50 0 -75 27.5t-25 70.5q0 41 18.5 89.5t50 97t72 93.5t84.5 79.5t88.5 55t83.5 20.5q19 0 34.5 -4.5t26.5 -10.5l51 155q9 28 8.5 37.5t-13.5 17.5l-60 35l2 6l237 76l-239 -713q-10 -30 -12.5 -44t10.5 -14q10 0 25 10.5t32.5 28.5t37 43t37.5 54l31 -18
q-59 -96 -119 -144t-116 -48q-47 0 -54.5 29.5t15.5 92.5l28 76h-2q-70 -95 -132 -146.5t-125 -51.5zM160 56q22 0 55 25t68.5 66.5t67.5 94.5t52 109l17 49q7 20 5 34.5t-10 24.5t-19.5 14.5t-22.5 4.5q-41 0 -84 -35.5t-78.5 -89.5t-58 -117t-22.5 -118q0 -62 30 -62z" />
    <glyph glyph-name="d" unicode="&#x111;" horiz-adv-x="607" 
d="M96 -13q-50 0 -75 27.5t-25 70.5q0 41 18.5 89.5t50 97t72 93.5t84.5 79.5t88.5 55t83.5 20.5q19 0 34.5 -4.5t26.5 -10.5l51 155q9 28 8.5 37.5t-13.5 17.5l-60 35l2 6l237 76l-239 -713q-10 -30 -12.5 -44t10.5 -14q10 0 25 10.5t32.5 28.5t37 43t37.5 54l31 -18
q-59 -96 -119 -144t-116 -48q-47 0 -54.5 29.5t15.5 92.5l28 76h-2q-70 -95 -132 -146.5t-125 -51.5zM160 56q22 0 55 25t68.5 66.5t67.5 94.5t52 109l17 49q7 20 5 34.5t-10 24.5t-19.5 14.5t-22.5 4.5q-41 0 -84 -35.5t-78.5 -89.5t-58 -117t-22.5 -118q0 -62 30 -62z" />
    <glyph glyph-name="d" unicode="&#x10f;" horiz-adv-x="607" 
d="M96 -13q-50 0 -75 27.5t-25 70.5q0 41 18.5 89.5t50 97t72 93.5t84.5 79.5t88.5 55t83.5 20.5q19 0 34.5 -4.5t26.5 -10.5l51 155q9 28 8.5 37.5t-13.5 17.5l-60 35l2 6l237 76l-239 -713q-10 -30 -12.5 -44t10.5 -14q10 0 25 10.5t32.5 28.5t37 43t37.5 54l31 -18
q-59 -96 -119 -144t-116 -48q-47 0 -54.5 29.5t15.5 92.5l28 76h-2q-70 -95 -132 -146.5t-125 -51.5zM160 56q22 0 55 25t68.5 66.5t67.5 94.5t52 109l17 49q7 20 5 34.5t-10 24.5t-19.5 14.5t-22.5 4.5q-41 0 -84 -35.5t-78.5 -89.5t-58 -117t-22.5 -118q0 -62 30 -62z" />
    <glyph glyph-name="d" unicode="&#xf0;" horiz-adv-x="607" 
d="M96 -13q-50 0 -75 27.5t-25 70.5q0 41 18.5 89.5t50 97t72 93.5t84.5 79.5t88.5 55t83.5 20.5q19 0 34.5 -4.5t26.5 -10.5l51 155q9 28 8.5 37.5t-13.5 17.5l-60 35l2 6l237 76l-239 -713q-10 -30 -12.5 -44t10.5 -14q10 0 25 10.5t32.5 28.5t37 43t37.5 54l31 -18
q-59 -96 -119 -144t-116 -48q-47 0 -54.5 29.5t15.5 92.5l28 76h-2q-70 -95 -132 -146.5t-125 -51.5zM160 56q22 0 55 25t68.5 66.5t67.5 94.5t52 109l17 49q7 20 5 34.5t-10 24.5t-19.5 14.5t-22.5 4.5q-41 0 -84 -35.5t-78.5 -89.5t-58 -117t-22.5 -118q0 -62 30 -62z" />
    <glyph glyph-name="e" unicode="e" horiz-adv-x="454" 
d="M150 -13q-58 0 -97 36t-39 102q0 43 15.5 89t41.5 90t61 83.5t75 69t81.5 46.5t81.5 17q48 0 72.5 -21t24.5 -56q0 -44 -22 -73.5t-49 -48.5q-22 -6 -52.5 -14t-63.5 -15.5t-66 -15.5t-61 -14q-12 -45 -12 -93q0 -53 18.5 -78.5t53.5 -25.5q39 0 74.5 32t74.5 95l30 -18
q-21 -36 -45.5 -69.5t-54 -60t-64.5 -42t-78 -15.5zM329 477q-23 0 -47 -14t-46 -38t-41 -57t-32 -70q23 5 43.5 10t37.5 11q37 13 61 27.5t37.5 30.5t18.5 32t5 31q0 37 -37 37z" />
    <glyph glyph-name="e" unicode="&#x11b;" horiz-adv-x="454" 
d="M150 -13q-58 0 -97 36t-39 102q0 43 15.5 89t41.5 90t61 83.5t75 69t81.5 46.5t81.5 17q48 0 72.5 -21t24.5 -56q0 -44 -22 -73.5t-49 -48.5q-22 -6 -52.5 -14t-63.5 -15.5t-66 -15.5t-61 -14q-12 -45 -12 -93q0 -53 18.5 -78.5t53.5 -25.5q39 0 74.5 32t74.5 95l30 -18
q-21 -36 -45.5 -69.5t-54 -60t-64.5 -42t-78 -15.5zM329 477q-23 0 -47 -14t-46 -38t-41 -57t-32 -70q23 5 43.5 10t37.5 11q37 13 61 27.5t37.5 30.5t18.5 32t5 31q0 37 -37 37z" />
    <glyph glyph-name="e" unicode="&#x119;" horiz-adv-x="454" 
d="M150 -13q-58 0 -97 36t-39 102q0 43 15.5 89t41.5 90t61 83.5t75 69t81.5 46.5t81.5 17q48 0 72.5 -21t24.5 -56q0 -44 -22 -73.5t-49 -48.5q-22 -6 -52.5 -14t-63.5 -15.5t-66 -15.5t-61 -14q-12 -45 -12 -93q0 -53 18.5 -78.5t53.5 -25.5q39 0 74.5 32t74.5 95l30 -18
q-21 -36 -45.5 -69.5t-54 -60t-64.5 -42t-78 -15.5zM329 477q-23 0 -47 -14t-46 -38t-41 -57t-32 -70q23 5 43.5 10t37.5 11q37 13 61 27.5t37.5 30.5t18.5 32t5 31q0 37 -37 37z" />
    <glyph glyph-name="e" unicode="&#x117;" horiz-adv-x="454" 
d="M150 -13q-58 0 -97 36t-39 102q0 43 15.5 89t41.5 90t61 83.5t75 69t81.5 46.5t81.5 17q48 0 72.5 -21t24.5 -56q0 -44 -22 -73.5t-49 -48.5q-22 -6 -52.5 -14t-63.5 -15.5t-66 -15.5t-61 -14q-12 -45 -12 -93q0 -53 18.5 -78.5t53.5 -25.5q39 0 74.5 32t74.5 95l30 -18
q-21 -36 -45.5 -69.5t-54 -60t-64.5 -42t-78 -15.5zM329 477q-23 0 -47 -14t-46 -38t-41 -57t-32 -70q23 5 43.5 10t37.5 11q37 13 61 27.5t37.5 30.5t18.5 32t5 31q0 37 -37 37z" />
    <glyph glyph-name="e" unicode="&#x115;" horiz-adv-x="454" 
d="M150 -13q-58 0 -97 36t-39 102q0 43 15.5 89t41.5 90t61 83.5t75 69t81.5 46.5t81.5 17q48 0 72.5 -21t24.5 -56q0 -44 -22 -73.5t-49 -48.5q-22 -6 -52.5 -14t-63.5 -15.5t-66 -15.5t-61 -14q-12 -45 -12 -93q0 -53 18.5 -78.5t53.5 -25.5q39 0 74.5 32t74.5 95l30 -18
q-21 -36 -45.5 -69.5t-54 -60t-64.5 -42t-78 -15.5zM329 477q-23 0 -47 -14t-46 -38t-41 -57t-32 -70q23 5 43.5 10t37.5 11q37 13 61 27.5t37.5 30.5t18.5 32t5 31q0 37 -37 37z" />
    <glyph glyph-name="e" unicode="&#x113;" horiz-adv-x="454" 
d="M150 -13q-58 0 -97 36t-39 102q0 43 15.5 89t41.5 90t61 83.5t75 69t81.5 46.5t81.5 17q48 0 72.5 -21t24.5 -56q0 -44 -22 -73.5t-49 -48.5q-22 -6 -52.5 -14t-63.5 -15.5t-66 -15.5t-61 -14q-12 -45 -12 -93q0 -53 18.5 -78.5t53.5 -25.5q39 0 74.5 32t74.5 95l30 -18
q-21 -36 -45.5 -69.5t-54 -60t-64.5 -42t-78 -15.5zM329 477q-23 0 -47 -14t-46 -38t-41 -57t-32 -70q23 5 43.5 10t37.5 11q37 13 61 27.5t37.5 30.5t18.5 32t5 31q0 37 -37 37z" />
    <glyph glyph-name="e" unicode="&#xeb;" horiz-adv-x="454" 
d="M150 -13q-58 0 -97 36t-39 102q0 43 15.5 89t41.5 90t61 83.5t75 69t81.5 46.5t81.5 17q48 0 72.5 -21t24.5 -56q0 -44 -22 -73.5t-49 -48.5q-22 -6 -52.5 -14t-63.5 -15.5t-66 -15.5t-61 -14q-12 -45 -12 -93q0 -53 18.5 -78.5t53.5 -25.5q39 0 74.5 32t74.5 95l30 -18
q-21 -36 -45.5 -69.5t-54 -60t-64.5 -42t-78 -15.5zM329 477q-23 0 -47 -14t-46 -38t-41 -57t-32 -70q23 5 43.5 10t37.5 11q37 13 61 27.5t37.5 30.5t18.5 32t5 31q0 37 -37 37z" />
    <glyph glyph-name="e" unicode="&#xea;" horiz-adv-x="454" 
d="M150 -13q-58 0 -97 36t-39 102q0 43 15.5 89t41.5 90t61 83.5t75 69t81.5 46.5t81.5 17q48 0 72.5 -21t24.5 -56q0 -44 -22 -73.5t-49 -48.5q-22 -6 -52.5 -14t-63.5 -15.5t-66 -15.5t-61 -14q-12 -45 -12 -93q0 -53 18.5 -78.5t53.5 -25.5q39 0 74.5 32t74.5 95l30 -18
q-21 -36 -45.5 -69.5t-54 -60t-64.5 -42t-78 -15.5zM329 477q-23 0 -47 -14t-46 -38t-41 -57t-32 -70q23 5 43.5 10t37.5 11q37 13 61 27.5t37.5 30.5t18.5 32t5 31q0 37 -37 37z" />
    <glyph glyph-name="e" unicode="&#xe9;" horiz-adv-x="454" 
d="M150 -13q-58 0 -97 36t-39 102q0 43 15.5 89t41.5 90t61 83.5t75 69t81.5 46.5t81.5 17q48 0 72.5 -21t24.5 -56q0 -44 -22 -73.5t-49 -48.5q-22 -6 -52.5 -14t-63.5 -15.5t-66 -15.5t-61 -14q-12 -45 -12 -93q0 -53 18.5 -78.5t53.5 -25.5q39 0 74.5 32t74.5 95l30 -18
q-21 -36 -45.5 -69.5t-54 -60t-64.5 -42t-78 -15.5zM329 477q-23 0 -47 -14t-46 -38t-41 -57t-32 -70q23 5 43.5 10t37.5 11q37 13 61 27.5t37.5 30.5t18.5 32t5 31q0 37 -37 37z" />
    <glyph glyph-name="e" unicode="&#xe8;" horiz-adv-x="454" 
d="M150 -13q-58 0 -97 36t-39 102q0 43 15.5 89t41.5 90t61 83.5t75 69t81.5 46.5t81.5 17q48 0 72.5 -21t24.5 -56q0 -44 -22 -73.5t-49 -48.5q-22 -6 -52.5 -14t-63.5 -15.5t-66 -15.5t-61 -14q-12 -45 -12 -93q0 -53 18.5 -78.5t53.5 -25.5q39 0 74.5 32t74.5 95l30 -18
q-21 -36 -45.5 -69.5t-54 -60t-64.5 -42t-78 -15.5zM329 477q-23 0 -47 -14t-46 -38t-41 -57t-32 -70q23 5 43.5 10t37.5 11q37 13 61 27.5t37.5 30.5t18.5 32t5 31q0 37 -37 37z" />
    <glyph glyph-name="f" unicode="f" horiz-adv-x="351" 
d="M58 440l7 28l102 34q26 77 61.5 133t83.5 96q50 42 97.5 63t79.5 21q23 0 35 -11.5t12 -29.5q0 -23 -14.5 -44t-37.5 -28q-12 4 -27.5 8t-32 7t-31.5 5t-26 2q-14 0 -24 -5t-18 -20t-15.5 -41t-15.5 -68l-17 -88h150l-19 -62h-141l-80 -349q-23 -98 -57 -166t-74 -111
t-82 -62.5t-80 -19.5q-35 0 -59 19.5t-24 45.5q0 20 13.5 36.5t37.5 16.5q11 -8 24 -18.5t27 -19.5t27.5 -15t25.5 -6q8 0 15 2.5t15 15.5l10 20t13 32t15 49t17 70l102 460h-95z" />
    <glyph glyph-name="g" unicode="g" horiz-adv-x="503" 
d="M210 160q-32 0 -54 7l-24 -33q-9 -13 -8.5 -18t11.5 -11l145 -87q60 -35 90 -65t30 -64q0 -38 -21.5 -67t-58 -48.5t-84.5 -30t-100 -10.5q-57 0 -103.5 9.5t-80 27t-52 41t-18.5 51.5q0 24 15 44t41 37.5t60.5 32.5t74.5 29q-29 17 -43.5 32.5t-14.5 32.5t13.5 32.5
t42.5 32.5l65 39q-35 15 -53.5 43.5t-18.5 66.5q0 42 21.5 84.5t58 76t83.5 54.5t98 21q35 0 63 -10t47 -27l161 68l-27 -78q-5 -14 -12.5 -19.5t-24.5 -3.5l-80 13q19 -30 19 -67q0 -42 -21.5 -84.5t-58 -76t-83.5 -54.5t-98 -21zM242 192q24 0 44.5 16t35 43.5t22.5 63.5
t8 75q0 43 -14 70t-45 27q-24 0 -44.5 -16t-35 -43t-22.5 -63t-8 -76q0 -43 13.5 -70t45.5 -27zM-24 -124q0 -45 48.5 -75t141.5 -30q25 0 50.5 4t45 12t32 20t12.5 28q0 10 -4 19t-14.5 19t-28 21.5t-44.5 27.5l-114 66q-68 -24 -96.5 -52t-28.5 -60z" />
    <glyph glyph-name="g" unicode="&#x123;" horiz-adv-x="503" 
d="M210 160q-32 0 -54 7l-24 -33q-9 -13 -8.5 -18t11.5 -11l145 -87q60 -35 90 -65t30 -64q0 -38 -21.5 -67t-58 -48.5t-84.5 -30t-100 -10.5q-57 0 -103.5 9.5t-80 27t-52 41t-18.5 51.5q0 24 15 44t41 37.5t60.5 32.5t74.5 29q-29 17 -43.5 32.5t-14.5 32.5t13.5 32.5
t42.5 32.5l65 39q-35 15 -53.5 43.5t-18.5 66.5q0 42 21.5 84.5t58 76t83.5 54.5t98 21q35 0 63 -10t47 -27l161 68l-27 -78q-5 -14 -12.5 -19.5t-24.5 -3.5l-80 13q19 -30 19 -67q0 -42 -21.5 -84.5t-58 -76t-83.5 -54.5t-98 -21zM242 192q24 0 44.5 16t35 43.5t22.5 63.5
t8 75q0 43 -14 70t-45 27q-24 0 -44.5 -16t-35 -43t-22.5 -63t-8 -76q0 -43 13.5 -70t45.5 -27zM-24 -124q0 -45 48.5 -75t141.5 -30q25 0 50.5 4t45 12t32 20t12.5 28q0 10 -4 19t-14.5 19t-28 21.5t-44.5 27.5l-114 66q-68 -24 -96.5 -52t-28.5 -60z" />
    <glyph glyph-name="g" unicode="&#x121;" horiz-adv-x="503" 
d="M210 160q-32 0 -54 7l-24 -33q-9 -13 -8.5 -18t11.5 -11l145 -87q60 -35 90 -65t30 -64q0 -38 -21.5 -67t-58 -48.5t-84.5 -30t-100 -10.5q-57 0 -103.5 9.5t-80 27t-52 41t-18.5 51.5q0 24 15 44t41 37.5t60.5 32.5t74.5 29q-29 17 -43.5 32.5t-14.5 32.5t13.5 32.5
t42.5 32.5l65 39q-35 15 -53.5 43.5t-18.5 66.5q0 42 21.5 84.5t58 76t83.5 54.5t98 21q35 0 63 -10t47 -27l161 68l-27 -78q-5 -14 -12.5 -19.5t-24.5 -3.5l-80 13q19 -30 19 -67q0 -42 -21.5 -84.5t-58 -76t-83.5 -54.5t-98 -21zM242 192q24 0 44.5 16t35 43.5t22.5 63.5
t8 75q0 43 -14 70t-45 27q-24 0 -44.5 -16t-35 -43t-22.5 -63t-8 -76q0 -43 13.5 -70t45.5 -27zM-24 -124q0 -45 48.5 -75t141.5 -30q25 0 50.5 4t45 12t32 20t12.5 28q0 10 -4 19t-14.5 19t-28 21.5t-44.5 27.5l-114 66q-68 -24 -96.5 -52t-28.5 -60z" />
    <glyph glyph-name="g" unicode="&#x11f;" horiz-adv-x="503" 
d="M210 160q-32 0 -54 7l-24 -33q-9 -13 -8.5 -18t11.5 -11l145 -87q60 -35 90 -65t30 -64q0 -38 -21.5 -67t-58 -48.5t-84.5 -30t-100 -10.5q-57 0 -103.5 9.5t-80 27t-52 41t-18.5 51.5q0 24 15 44t41 37.5t60.5 32.5t74.5 29q-29 17 -43.5 32.5t-14.5 32.5t13.5 32.5
t42.5 32.5l65 39q-35 15 -53.5 43.5t-18.5 66.5q0 42 21.5 84.5t58 76t83.5 54.5t98 21q35 0 63 -10t47 -27l161 68l-27 -78q-5 -14 -12.5 -19.5t-24.5 -3.5l-80 13q19 -30 19 -67q0 -42 -21.5 -84.5t-58 -76t-83.5 -54.5t-98 -21zM242 192q24 0 44.5 16t35 43.5t22.5 63.5
t8 75q0 43 -14 70t-45 27q-24 0 -44.5 -16t-35 -43t-22.5 -63t-8 -76q0 -43 13.5 -70t45.5 -27zM-24 -124q0 -45 48.5 -75t141.5 -30q25 0 50.5 4t45 12t32 20t12.5 28q0 10 -4 19t-14.5 19t-28 21.5t-44.5 27.5l-114 66q-68 -24 -96.5 -52t-28.5 -60z" />
    <glyph glyph-name="g" unicode="&#x11d;" horiz-adv-x="503" 
d="M210 160q-32 0 -54 7l-24 -33q-9 -13 -8.5 -18t11.5 -11l145 -87q60 -35 90 -65t30 -64q0 -38 -21.5 -67t-58 -48.5t-84.5 -30t-100 -10.5q-57 0 -103.5 9.5t-80 27t-52 41t-18.5 51.5q0 24 15 44t41 37.5t60.5 32.5t74.5 29q-29 17 -43.5 32.5t-14.5 32.5t13.5 32.5
t42.5 32.5l65 39q-35 15 -53.5 43.5t-18.5 66.5q0 42 21.5 84.5t58 76t83.5 54.5t98 21q35 0 63 -10t47 -27l161 68l-27 -78q-5 -14 -12.5 -19.5t-24.5 -3.5l-80 13q19 -30 19 -67q0 -42 -21.5 -84.5t-58 -76t-83.5 -54.5t-98 -21zM242 192q24 0 44.5 16t35 43.5t22.5 63.5
t8 75q0 43 -14 70t-45 27q-24 0 -44.5 -16t-35 -43t-22.5 -63t-8 -76q0 -43 13.5 -70t45.5 -27zM-24 -124q0 -45 48.5 -75t141.5 -30q25 0 50.5 4t45 12t32 20t12.5 28q0 10 -4 19t-14.5 19t-28 21.5t-44.5 27.5l-114 66q-68 -24 -96.5 -52t-28.5 -60z" />
    <glyph glyph-name="h" unicode="h" horiz-adv-x="601" 
d="M223 660q10 28 10 37.5t-13 17.5l-57 35l2 6l234 76l-131 -379q-5 -14 -12 -33.5t-14.5 -38.5t-14 -35.5t-9.5 -23.5h2q40 52 74.5 89.5t65.5 61.5t59.5 35.5t58.5 11.5q31 0 47.5 -12t21 -34.5t-2.5 -53.5t-22 -69l-95 -232q-12 -29 -13.5 -43.5t11.5 -14.5
q10 0 25 10.5t32.5 28.5t37 43t37.5 54l31 -18q-59 -96 -119 -144t-116 -48q-47 0 -61 29t12 92l94 229q23 55 25 81t-21 26q-19 0 -50.5 -23.5t-66.5 -65t-70 -99t-60 -125.5l-38 -122l-127 -21z" />
    <glyph glyph-name="h" unicode="&#x127;" horiz-adv-x="601" 
d="M223 660q10 28 10 37.5t-13 17.5l-57 35l2 6l234 76l-131 -379q-5 -14 -12 -33.5t-14.5 -38.5t-14 -35.5t-9.5 -23.5h2q40 52 74.5 89.5t65.5 61.5t59.5 35.5t58.5 11.5q31 0 47.5 -12t21 -34.5t-2.5 -53.5t-22 -69l-95 -232q-12 -29 -13.5 -43.5t11.5 -14.5
q10 0 25 10.5t32.5 28.5t37 43t37.5 54l31 -18q-59 -96 -119 -144t-116 -48q-47 0 -61 29t12 92l94 229q23 55 25 81t-21 26q-19 0 -50.5 -23.5t-66.5 -65t-70 -99t-60 -125.5l-38 -122l-127 -21z" />
    <glyph glyph-name="h" unicode="&#x125;" horiz-adv-x="601" 
d="M223 660q10 28 10 37.5t-13 17.5l-57 35l2 6l234 76l-131 -379q-5 -14 -12 -33.5t-14.5 -38.5t-14 -35.5t-9.5 -23.5h2q40 52 74.5 89.5t65.5 61.5t59.5 35.5t58.5 11.5q31 0 47.5 -12t21 -34.5t-2.5 -53.5t-22 -69l-95 -232q-12 -29 -13.5 -43.5t11.5 -14.5
q10 0 25 10.5t32.5 28.5t37 43t37.5 54l31 -18q-59 -96 -119 -144t-116 -48q-47 0 -61 29t12 92l94 229q23 55 25 81t-21 26q-19 0 -50.5 -23.5t-66.5 -65t-70 -99t-60 -125.5l-38 -122l-127 -21z" />
    <glyph glyph-name="i" unicode="i" horiz-adv-x="346" 
d="M97 -13q-47 0 -60.5 29t11.5 92l114 285q9 22 4 26t-28 2l-59 -6l6 32l234 69l7 -6l-156 -391q-11 -29 -12.5 -43.5t11.5 -14.5q9 0 24 10.5t33 28.5t37 43t37 54l32 -18q-60 -96 -119.5 -144t-115.5 -48zM328 645q-32 0 -55 23t-23 56t23 55.5t55 22.5q33 0 56 -22.5
t23 -55.5t-23 -56t-56 -23z" />
    <glyph glyph-name="i" unicode="&#x1ecb;" horiz-adv-x="346" 
d="M97 -13q-47 0 -60.5 29t11.5 92l114 285q9 22 4 26t-28 2l-59 -6l6 32l234 69l7 -6l-156 -391q-11 -29 -12.5 -43.5t11.5 -14.5q9 0 24 10.5t33 28.5t37 43t37 54l32 -18q-60 -96 -119.5 -144t-115.5 -48zM328 645q-32 0 -55 23t-23 56t23 55.5t55 22.5q33 0 56 -22.5
t23 -55.5t-23 -56t-56 -23z" />
    <glyph glyph-name="i" unicode="&#x131;" horiz-adv-x="346" 
d="M97 -13q-47 0 -60.5 29t11.5 92l114 285q9 22 4 26t-28 2l-59 -6l6 32l234 69l7 -6l-156 -391q-11 -29 -12.5 -43.5t11.5 -14.5q9 0 24 10.5t33 28.5t37 43t37 54l32 -18q-60 -96 -119.5 -144t-115.5 -48zM328 645q-32 0 -55 23t-23 56t23 55.5t55 22.5q33 0 56 -22.5
t23 -55.5t-23 -56t-56 -23z" />
    <glyph glyph-name="i" unicode="&#x12f;" horiz-adv-x="346" 
d="M97 -13q-47 0 -60.5 29t11.5 92l114 285q9 22 4 26t-28 2l-59 -6l6 32l234 69l7 -6l-156 -391q-11 -29 -12.5 -43.5t11.5 -14.5q9 0 24 10.5t33 28.5t37 43t37 54l32 -18q-60 -96 -119.5 -144t-115.5 -48zM328 645q-32 0 -55 23t-23 56t23 55.5t55 22.5q33 0 56 -22.5
t23 -55.5t-23 -56t-56 -23z" />
    <glyph glyph-name="i" unicode="&#x12d;" horiz-adv-x="346" 
d="M97 -13q-47 0 -60.5 29t11.5 92l114 285q9 22 4 26t-28 2l-59 -6l6 32l234 69l7 -6l-156 -391q-11 -29 -12.5 -43.5t11.5 -14.5q9 0 24 10.5t33 28.5t37 43t37 54l32 -18q-60 -96 -119.5 -144t-115.5 -48zM328 645q-32 0 -55 23t-23 56t23 55.5t55 22.5q33 0 56 -22.5
t23 -55.5t-23 -56t-56 -23z" />
    <glyph glyph-name="i" unicode="&#x12b;" horiz-adv-x="346" 
d="M97 -13q-47 0 -60.5 29t11.5 92l114 285q9 22 4 26t-28 2l-59 -6l6 32l234 69l7 -6l-156 -391q-11 -29 -12.5 -43.5t11.5 -14.5q9 0 24 10.5t33 28.5t37 43t37 54l32 -18q-60 -96 -119.5 -144t-115.5 -48zM328 645q-32 0 -55 23t-23 56t23 55.5t55 22.5q33 0 56 -22.5
t23 -55.5t-23 -56t-56 -23z" />
    <glyph glyph-name="i" unicode="&#x129;" horiz-adv-x="346" 
d="M97 -13q-47 0 -60.5 29t11.5 92l114 285q9 22 4 26t-28 2l-59 -6l6 32l234 69l7 -6l-156 -391q-11 -29 -12.5 -43.5t11.5 -14.5q9 0 24 10.5t33 28.5t37 43t37 54l32 -18q-60 -96 -119.5 -144t-115.5 -48zM328 645q-32 0 -55 23t-23 56t23 55.5t55 22.5q33 0 56 -22.5
t23 -55.5t-23 -56t-56 -23z" />
    <glyph glyph-name="i" unicode="&#xef;" horiz-adv-x="346" 
d="M97 -13q-47 0 -60.5 29t11.5 92l114 285q9 22 4 26t-28 2l-59 -6l6 32l234 69l7 -6l-156 -391q-11 -29 -12.5 -43.5t11.5 -14.5q9 0 24 10.5t33 28.5t37 43t37 54l32 -18q-60 -96 -119.5 -144t-115.5 -48zM328 645q-32 0 -55 23t-23 56t23 55.5t55 22.5q33 0 56 -22.5
t23 -55.5t-23 -56t-56 -23z" />
    <glyph glyph-name="i" unicode="&#xee;" horiz-adv-x="346" 
d="M97 -13q-47 0 -60.5 29t11.5 92l114 285q9 22 4 26t-28 2l-59 -6l6 32l234 69l7 -6l-156 -391q-11 -29 -12.5 -43.5t11.5 -14.5q9 0 24 10.5t33 28.5t37 43t37 54l32 -18q-60 -96 -119.5 -144t-115.5 -48zM328 645q-32 0 -55 23t-23 56t23 55.5t55 22.5q33 0 56 -22.5
t23 -55.5t-23 -56t-56 -23z" />
    <glyph glyph-name="i" unicode="&#xed;" horiz-adv-x="346" 
d="M97 -13q-47 0 -60.5 29t11.5 92l114 285q9 22 4 26t-28 2l-59 -6l6 32l234 69l7 -6l-156 -391q-11 -29 -12.5 -43.5t11.5 -14.5q9 0 24 10.5t33 28.5t37 43t37 54l32 -18q-60 -96 -119.5 -144t-115.5 -48zM328 645q-32 0 -55 23t-23 56t23 55.5t55 22.5q33 0 56 -22.5
t23 -55.5t-23 -56t-56 -23z" />
    <glyph glyph-name="i" unicode="&#xec;" horiz-adv-x="346" 
d="M97 -13q-47 0 -60.5 29t11.5 92l114 285q9 22 4 26t-28 2l-59 -6l6 32l234 69l7 -6l-156 -391q-11 -29 -12.5 -43.5t11.5 -14.5q9 0 24 10.5t33 28.5t37 43t37 54l32 -18q-60 -96 -119.5 -144t-115.5 -48zM328 645q-32 0 -55 23t-23 56t23 55.5t55 22.5q33 0 56 -22.5
t23 -55.5t-23 -56t-56 -23z" />
    <glyph glyph-name="j" unicode="j" horiz-adv-x="303" 
d="M144 47q-15 -38 -28 -66t-28.5 -51t-36 -42t-48.5 -38q-17 -11 -40 -25.5t-48.5 -30t-52 -31t-50.5 -28.5l-15 30q43 31 75.5 55.5t58.5 53t47.5 66t43.5 93.5l140 362q8 21 3 25.5t-28 2.5l-58 -6l6 32l231 69l7 -6zM325 645q-32 0 -55 23t-23 56t23 55.5t55 22.5
q33 0 56 -22.5t23 -55.5t-23 -56t-56 -23z" />
    <glyph glyph-name="j" unicode="&#x237;" horiz-adv-x="303" 
d="M144 47q-15 -38 -28 -66t-28.5 -51t-36 -42t-48.5 -38q-17 -11 -40 -25.5t-48.5 -30t-52 -31t-50.5 -28.5l-15 30q43 31 75.5 55.5t58.5 53t47.5 66t43.5 93.5l140 362q8 21 3 25.5t-28 2.5l-58 -6l6 32l231 69l7 -6zM325 645q-32 0 -55 23t-23 56t23 55.5t55 22.5
q33 0 56 -22.5t23 -55.5t-23 -56t-56 -23z" />
    <glyph glyph-name="j" unicode="&#x135;" horiz-adv-x="303" 
d="M144 47q-15 -38 -28 -66t-28.5 -51t-36 -42t-48.5 -38q-17 -11 -40 -25.5t-48.5 -30t-52 -31t-50.5 -28.5l-15 30q43 31 75.5 55.5t58.5 53t47.5 66t43.5 93.5l140 362q8 21 3 25.5t-28 2.5l-58 -6l6 32l231 69l7 -6zM325 645q-32 0 -55 23t-23 56t23 55.5t55 22.5
q33 0 56 -22.5t23 -55.5t-23 -56t-56 -23z" />
    <glyph glyph-name="k" unicode="k" horiz-adv-x="589" 
d="M149 115l-31 -107l-128 -20l233 672q10 28 9.5 37.5t-13.5 17.5l-56 35l2 6l233 76zM379 -27q-29 0 -47.5 15t-32.5 46l-99 222l153 99q27 18 43 35t23.5 35t8.5 36t0 37q7 10 21 16t31 6q22 0 39 -13t17 -34q0 -11 -4 -22.5t-19.5 -27t-45.5 -37t-82 -53.5l-78 -48
l104 -212q7 -14 11.5 -19t12.5 -5q16 0 44 31t62 86l32 -20q-30 -48 -55 -81t-48 -53.5t-45 -29.5t-46 -9z" />
    <glyph glyph-name="k" unicode="&#x137;" horiz-adv-x="589" 
d="M149 115l-31 -107l-128 -20l233 672q10 28 9.5 37.5t-13.5 17.5l-56 35l2 6l233 76zM379 -27q-29 0 -47.5 15t-32.5 46l-99 222l153 99q27 18 43 35t23.5 35t8.5 36t0 37q7 10 21 16t31 6q22 0 39 -13t17 -34q0 -11 -4 -22.5t-19.5 -27t-45.5 -37t-82 -53.5l-78 -48
l104 -212q7 -14 11.5 -19t12.5 -5q16 0 44 31t62 86l32 -20q-30 -48 -55 -81t-48 -53.5t-45 -29.5t-46 -9z" />
    <glyph glyph-name="l" unicode="l" horiz-adv-x="323" 
d="M226 660q10 28 10 37t-14 18l-56 35l2 6l233 76l-248 -713q-11 -30 -12.5 -44t11.5 -14q9 0 24 10.5t32.5 28.5t37 43t37.5 54l32 -18q-60 -96 -120 -144t-115 -48q-47 0 -58 29t12 93z" />
    <glyph glyph-name="l" unicode="&#x142;" horiz-adv-x="323" 
d="M226 660q10 28 10 37t-14 18l-56 35l2 6l233 76l-248 -713q-11 -30 -12.5 -44t11.5 -14q9 0 24 10.5t32.5 28.5t37 43t37.5 54l32 -18q-60 -96 -120 -144t-115 -48q-47 0 -58 29t12 93z" />
    <glyph glyph-name="l" unicode="&#x140;" horiz-adv-x="323" 
d="M226 660q10 28 10 37t-14 18l-56 35l2 6l233 76l-248 -713q-11 -30 -12.5 -44t11.5 -14q9 0 24 10.5t32.5 28.5t37 43t37.5 54l32 -18q-60 -96 -120 -144t-115 -48q-47 0 -58 29t12 93z" />
    <glyph glyph-name="l" unicode="&#x13e;" horiz-adv-x="323" 
d="M226 660q10 28 10 37t-14 18l-56 35l2 6l233 76l-248 -713q-11 -30 -12.5 -44t11.5 -14q9 0 24 10.5t32.5 28.5t37 43t37.5 54l32 -18q-60 -96 -120 -144t-115 -48q-47 0 -58 29t12 93z" />
    <glyph glyph-name="l" unicode="&#x13c;" horiz-adv-x="323" 
d="M226 660q10 28 10 37t-14 18l-56 35l2 6l233 76l-248 -713q-11 -30 -12.5 -44t11.5 -14q9 0 24 10.5t32.5 28.5t37 43t37.5 54l32 -18q-60 -96 -120 -144t-115 -48q-47 0 -58 29t12 93z" />
    <glyph glyph-name="l" unicode="&#x13a;" horiz-adv-x="323" 
d="M226 660q10 28 10 37t-14 18l-56 35l2 6l233 76l-248 -713q-11 -30 -12.5 -44t11.5 -14q9 0 24 10.5t32.5 28.5t37 43t37.5 54l32 -18q-60 -96 -120 -144t-115 -48q-47 0 -58 29t12 93z" />
    <glyph glyph-name="m" unicode="m" horiz-adv-x="902" 
d="M162 393q8 22 3 26t-28 2l-58 -6l6 32l226 69l7 -6l-75 -184h2q78 101 137 147.5t117 46.5q63 0 66.5 -50t-43.5 -144h2q78 101 137.5 147.5t117.5 46.5q31 0 48 -12t21.5 -34.5t-2.5 -53.5t-22 -69l-95 -232q-12 -29 -13.5 -43.5t11.5 -14.5q9 0 24 10.5t33 28.5t37 43
t37 54l32 -18q-60 -96 -119.5 -144t-115.5 -48q-47 0 -61 29t12 92l94 229q23 55 24.5 81t-21.5 26q-19 0 -50 -23.5t-66 -65t-70 -99t-60 -125.5l-41 -122l-131 -21l135 349q21 55 24 81t-20 26q-19 0 -50.5 -23.5t-66.5 -65t-70 -99t-60 -125.5l-41 -121l-131 -22z" />
    <glyph glyph-name="n" unicode="n" horiz-adv-x="622" 
d="M162 393q8 22 3 26t-28 2l-58 -6l6 32l226 69l7 -6l-75 -184h2q78 101 137 147.5t117 46.5q31 0 48 -12t21.5 -34.5t-2.5 -53.5t-22 -69l-95 -232q-12 -29 -13.5 -43.5t11.5 -14.5q9 0 24 10.5t33 28.5t37 43t37 54l32 -18q-60 -96 -119.5 -144t-115.5 -48q-47 0 -61 29
t12 92l94 229q23 55 25 81t-21 26q-19 0 -50.5 -23.5t-66.5 -65t-70 -99t-60 -125.5l-41 -121l-131 -22z" />
    <glyph glyph-name="n" unicode="&#x14b;" horiz-adv-x="622" 
d="M162 393q8 22 3 26t-28 2l-58 -6l6 32l226 69l7 -6l-75 -184h2q78 101 137 147.5t117 46.5q31 0 48 -12t21.5 -34.5t-2.5 -53.5t-22 -69l-95 -232q-12 -29 -13.5 -43.5t11.5 -14.5q9 0 24 10.5t33 28.5t37 43t37 54l32 -18q-60 -96 -119.5 -144t-115.5 -48q-47 0 -61 29
t12 92l94 229q23 55 25 81t-21 26q-19 0 -50.5 -23.5t-66.5 -65t-70 -99t-60 -125.5l-41 -121l-131 -22z" />
    <glyph glyph-name="n" unicode="&#x148;" horiz-adv-x="622" 
d="M162 393q8 22 3 26t-28 2l-58 -6l6 32l226 69l7 -6l-75 -184h2q78 101 137 147.5t117 46.5q31 0 48 -12t21.5 -34.5t-2.5 -53.5t-22 -69l-95 -232q-12 -29 -13.5 -43.5t11.5 -14.5q9 0 24 10.5t33 28.5t37 43t37 54l32 -18q-60 -96 -119.5 -144t-115.5 -48q-47 0 -61 29
t12 92l94 229q23 55 25 81t-21 26q-19 0 -50.5 -23.5t-66.5 -65t-70 -99t-60 -125.5l-41 -121l-131 -22z" />
    <glyph glyph-name="n" unicode="&#x146;" horiz-adv-x="622" 
d="M162 393q8 22 3 26t-28 2l-58 -6l6 32l226 69l7 -6l-75 -184h2q78 101 137 147.5t117 46.5q31 0 48 -12t21.5 -34.5t-2.5 -53.5t-22 -69l-95 -232q-12 -29 -13.5 -43.5t11.5 -14.5q9 0 24 10.5t33 28.5t37 43t37 54l32 -18q-60 -96 -119.5 -144t-115.5 -48q-47 0 -61 29
t12 92l94 229q23 55 25 81t-21 26q-19 0 -50.5 -23.5t-66.5 -65t-70 -99t-60 -125.5l-41 -121l-131 -22z" />
    <glyph glyph-name="n" unicode="&#x144;" horiz-adv-x="622" 
d="M162 393q8 22 3 26t-28 2l-58 -6l6 32l226 69l7 -6l-75 -184h2q78 101 137 147.5t117 46.5q31 0 48 -12t21.5 -34.5t-2.5 -53.5t-22 -69l-95 -232q-12 -29 -13.5 -43.5t11.5 -14.5q9 0 24 10.5t33 28.5t37 43t37 54l32 -18q-60 -96 -119.5 -144t-115.5 -48q-47 0 -61 29
t12 92l94 229q23 55 25 81t-21 26q-19 0 -50.5 -23.5t-66.5 -65t-70 -99t-60 -125.5l-41 -121l-131 -22z" />
    <glyph glyph-name="n" unicode="&#xf1;" horiz-adv-x="622" 
d="M162 393q8 22 3 26t-28 2l-58 -6l6 32l226 69l7 -6l-75 -184h2q78 101 137 147.5t117 46.5q31 0 48 -12t21.5 -34.5t-2.5 -53.5t-22 -69l-95 -232q-12 -29 -13.5 -43.5t11.5 -14.5q9 0 24 10.5t33 28.5t37 43t37 54l32 -18q-60 -96 -119.5 -144t-115.5 -48q-47 0 -61 29
t12 92l94 229q23 55 25 81t-21 26q-19 0 -50.5 -23.5t-66.5 -65t-70 -99t-60 -125.5l-41 -121l-131 -22z" />
    <glyph glyph-name="o" unicode="o" horiz-adv-x="547" 
d="M178 -13q-41 0 -70.5 12.5t-49 33.5t-29 48.5t-9.5 56.5q0 47 15 93.5t41.5 89t61 79t74 63.5t80.5 42t80 15q40 0 70 -13t49.5 -34t29 -48.5t9.5 -56.5q0 -47 -15 -93.5t-41.5 -88.5t-61 -78.5t-74 -63.5t-80.5 -42t-80 -15zM207 33q41 0 76.5 35.5t61.5 88t41 113
t15 110.5q0 48 -13.5 71.5t-44.5 23.5q-27 0 -52 -16.5t-47 -44.5t-39.5 -63.5t-30 -74.5t-19.5 -77.5t-7 -71.5q0 -94 59 -94z" />
    <glyph glyph-name="o" unicode="&#x1ecd;" horiz-adv-x="547" 
d="M178 -13q-41 0 -70.5 12.5t-49 33.5t-29 48.5t-9.5 56.5q0 47 15 93.5t41.5 89t61 79t74 63.5t80.5 42t80 15q40 0 70 -13t49.5 -34t29 -48.5t9.5 -56.5q0 -47 -15 -93.5t-41.5 -88.5t-61 -78.5t-74 -63.5t-80.5 -42t-80 -15zM207 33q41 0 76.5 35.5t61.5 88t41 113
t15 110.5q0 48 -13.5 71.5t-44.5 23.5q-27 0 -52 -16.5t-47 -44.5t-39.5 -63.5t-30 -74.5t-19.5 -77.5t-7 -71.5q0 -94 59 -94z" />
    <glyph glyph-name="o" unicode="&#x153;" horiz-adv-x="547" 
d="M178 -13q-41 0 -70.5 12.5t-49 33.5t-29 48.5t-9.5 56.5q0 47 15 93.5t41.5 89t61 79t74 63.5t80.5 42t80 15q40 0 70 -13t49.5 -34t29 -48.5t9.5 -56.5q0 -47 -15 -93.5t-41.5 -88.5t-61 -78.5t-74 -63.5t-80.5 -42t-80 -15zM207 33q41 0 76.5 35.5t61.5 88t41 113
t15 110.5q0 48 -13.5 71.5t-44.5 23.5q-27 0 -52 -16.5t-47 -44.5t-39.5 -63.5t-30 -74.5t-19.5 -77.5t-7 -71.5q0 -94 59 -94z" />
    <glyph glyph-name="o" unicode="&#x151;" horiz-adv-x="547" 
d="M178 -13q-41 0 -70.5 12.5t-49 33.5t-29 48.5t-9.5 56.5q0 47 15 93.5t41.5 89t61 79t74 63.5t80.5 42t80 15q40 0 70 -13t49.5 -34t29 -48.5t9.5 -56.5q0 -47 -15 -93.5t-41.5 -88.5t-61 -78.5t-74 -63.5t-80.5 -42t-80 -15zM207 33q41 0 76.5 35.5t61.5 88t41 113
t15 110.5q0 48 -13.5 71.5t-44.5 23.5q-27 0 -52 -16.5t-47 -44.5t-39.5 -63.5t-30 -74.5t-19.5 -77.5t-7 -71.5q0 -94 59 -94z" />
    <glyph glyph-name="o" unicode="&#x14f;" horiz-adv-x="547" 
d="M178 -13q-41 0 -70.5 12.5t-49 33.5t-29 48.5t-9.5 56.5q0 47 15 93.5t41.5 89t61 79t74 63.5t80.5 42t80 15q40 0 70 -13t49.5 -34t29 -48.5t9.5 -56.5q0 -47 -15 -93.5t-41.5 -88.5t-61 -78.5t-74 -63.5t-80.5 -42t-80 -15zM207 33q41 0 76.5 35.5t61.5 88t41 113
t15 110.5q0 48 -13.5 71.5t-44.5 23.5q-27 0 -52 -16.5t-47 -44.5t-39.5 -63.5t-30 -74.5t-19.5 -77.5t-7 -71.5q0 -94 59 -94z" />
    <glyph glyph-name="o" unicode="&#x14d;" horiz-adv-x="547" 
d="M178 -13q-41 0 -70.5 12.5t-49 33.5t-29 48.5t-9.5 56.5q0 47 15 93.5t41.5 89t61 79t74 63.5t80.5 42t80 15q40 0 70 -13t49.5 -34t29 -48.5t9.5 -56.5q0 -47 -15 -93.5t-41.5 -88.5t-61 -78.5t-74 -63.5t-80.5 -42t-80 -15zM207 33q41 0 76.5 35.5t61.5 88t41 113
t15 110.5q0 48 -13.5 71.5t-44.5 23.5q-27 0 -52 -16.5t-47 -44.5t-39.5 -63.5t-30 -74.5t-19.5 -77.5t-7 -71.5q0 -94 59 -94z" />
    <glyph glyph-name="o" unicode="&#xf8;" horiz-adv-x="547" 
d="M178 -13q-41 0 -70.5 12.5t-49 33.5t-29 48.5t-9.5 56.5q0 47 15 93.5t41.5 89t61 79t74 63.5t80.5 42t80 15q40 0 70 -13t49.5 -34t29 -48.5t9.5 -56.5q0 -47 -15 -93.5t-41.5 -88.5t-61 -78.5t-74 -63.5t-80.5 -42t-80 -15zM207 33q41 0 76.5 35.5t61.5 88t41 113
t15 110.5q0 48 -13.5 71.5t-44.5 23.5q-27 0 -52 -16.5t-47 -44.5t-39.5 -63.5t-30 -74.5t-19.5 -77.5t-7 -71.5q0 -94 59 -94z" />
    <glyph glyph-name="o" unicode="&#xf6;" horiz-adv-x="547" 
d="M178 -13q-41 0 -70.5 12.5t-49 33.5t-29 48.5t-9.5 56.5q0 47 15 93.5t41.5 89t61 79t74 63.5t80.5 42t80 15q40 0 70 -13t49.5 -34t29 -48.5t9.5 -56.5q0 -47 -15 -93.5t-41.5 -88.5t-61 -78.5t-74 -63.5t-80.5 -42t-80 -15zM207 33q41 0 76.5 35.5t61.5 88t41 113
t15 110.5q0 48 -13.5 71.5t-44.5 23.5q-27 0 -52 -16.5t-47 -44.5t-39.5 -63.5t-30 -74.5t-19.5 -77.5t-7 -71.5q0 -94 59 -94z" />
    <glyph glyph-name="o" unicode="&#xf5;" horiz-adv-x="547" 
d="M178 -13q-41 0 -70.5 12.5t-49 33.5t-29 48.5t-9.5 56.5q0 47 15 93.5t41.5 89t61 79t74 63.5t80.5 42t80 15q40 0 70 -13t49.5 -34t29 -48.5t9.5 -56.5q0 -47 -15 -93.5t-41.5 -88.5t-61 -78.5t-74 -63.5t-80.5 -42t-80 -15zM207 33q41 0 76.5 35.5t61.5 88t41 113
t15 110.5q0 48 -13.5 71.5t-44.5 23.5q-27 0 -52 -16.5t-47 -44.5t-39.5 -63.5t-30 -74.5t-19.5 -77.5t-7 -71.5q0 -94 59 -94z" />
    <glyph glyph-name="o" unicode="&#xf4;" horiz-adv-x="547" 
d="M178 -13q-41 0 -70.5 12.5t-49 33.5t-29 48.5t-9.5 56.5q0 47 15 93.5t41.5 89t61 79t74 63.5t80.5 42t80 15q40 0 70 -13t49.5 -34t29 -48.5t9.5 -56.5q0 -47 -15 -93.5t-41.5 -88.5t-61 -78.5t-74 -63.5t-80.5 -42t-80 -15zM207 33q41 0 76.5 35.5t61.5 88t41 113
t15 110.5q0 48 -13.5 71.5t-44.5 23.5q-27 0 -52 -16.5t-47 -44.5t-39.5 -63.5t-30 -74.5t-19.5 -77.5t-7 -71.5q0 -94 59 -94z" />
    <glyph glyph-name="o" unicode="&#xf3;" horiz-adv-x="547" 
d="M178 -13q-41 0 -70.5 12.5t-49 33.5t-29 48.5t-9.5 56.5q0 47 15 93.5t41.5 89t61 79t74 63.5t80.5 42t80 15q40 0 70 -13t49.5 -34t29 -48.5t9.5 -56.5q0 -47 -15 -93.5t-41.5 -88.5t-61 -78.5t-74 -63.5t-80.5 -42t-80 -15zM207 33q41 0 76.5 35.5t61.5 88t41 113
t15 110.5q0 48 -13.5 71.5t-44.5 23.5q-27 0 -52 -16.5t-47 -44.5t-39.5 -63.5t-30 -74.5t-19.5 -77.5t-7 -71.5q0 -94 59 -94z" />
    <glyph glyph-name="o" unicode="&#xf2;" horiz-adv-x="547" 
d="M178 -13q-41 0 -70.5 12.5t-49 33.5t-29 48.5t-9.5 56.5q0 47 15 93.5t41.5 89t61 79t74 63.5t80.5 42t80 15q40 0 70 -13t49.5 -34t29 -48.5t9.5 -56.5q0 -47 -15 -93.5t-41.5 -88.5t-61 -78.5t-74 -63.5t-80.5 -42t-80 -15zM207 33q41 0 76.5 35.5t61.5 88t41 113
t15 110.5q0 48 -13.5 71.5t-44.5 23.5q-27 0 -52 -16.5t-47 -44.5t-39.5 -63.5t-30 -74.5t-19.5 -77.5t-7 -71.5q0 -94 59 -94z" />
    <glyph glyph-name="p" unicode="p" horiz-adv-x="588" 
d="M156 393q8 22 3 26t-28 2l-58 -6l6 32l226 69l7 -6l-40 -106h1q21 24 45 45t49.5 37t51.5 25t52 9q58 0 85.5 -34t25.5 -91q-1 -46 -18 -94t-45 -93.5t-64.5 -85.5t-76.5 -70t-81 -47.5t-78 -17.5q-23 0 -44.5 5.5t-35.5 13.5l-86 -254h-116zM227 29q46 0 86 35t70 86.5
t47.5 110t19.5 106.5q2 40 -10.5 62.5t-39.5 22.5q-29 0 -65 -26t-77 -75l-82 -239q-8 -23 -6 -39t10 -25.5t20.5 -14t26.5 -4.5z" />
    <glyph glyph-name="p" unicode="&#xfe;" horiz-adv-x="588" 
d="M156 393q8 22 3 26t-28 2l-58 -6l6 32l226 69l7 -6l-40 -106h1q21 24 45 45t49.5 37t51.5 25t52 9q58 0 85.5 -34t25.5 -91q-1 -46 -18 -94t-45 -93.5t-64.5 -85.5t-76.5 -70t-81 -47.5t-78 -17.5q-23 0 -44.5 5.5t-35.5 13.5l-86 -254h-116zM227 29q46 0 86 35t70 86.5
t47.5 110t19.5 106.5q2 40 -10.5 62.5t-39.5 22.5q-29 0 -65 -26t-77 -75l-82 -239q-8 -23 -6 -39t10 -25.5t20.5 -14t26.5 -4.5z" />
    <glyph glyph-name="q" unicode="q" horiz-adv-x="563" 
d="M296 41q4 12 12.5 32.5t17.5 42t17 40.5t13 29h-2q-71 -95 -133 -146.5t-125 -51.5q-49 0 -74 27.5t-25 70.5q0 41 18.5 89.5t49.5 97t71.5 93.5t84.5 79.5t88.5 55t83.5 20.5q19 0 41.5 -5t44.5 -19l93 43l8 -6l-268 -781h-114zM161 56q21 0 55 25t69.5 66t67.5 94.5
t51 109.5l16 48q7 21 4.5 35.5t-10 24.5t-18.5 14.5t-23 4.5q-41 0 -84 -35.5t-78 -89.5t-57.5 -117t-22.5 -118q0 -62 30 -62z" />
    <glyph glyph-name="r" unicode="r" horiz-adv-x="448" 
d="M162 393q8 22 3 26t-28 2l-58 -6l6 32l221 69l7 -6q-29 -69 -53 -125q-10 -24 -20 -47.5t-18 -43t-14 -33t-7 -17.5h3q31 63 64 114.5t62 86.5q34 41 61 57.5t55 16.5q29 0 46.5 -16t17.5 -42q0 -14 -5.5 -26t-13.5 -21.5t-17.5 -16t-17.5 -8.5q-22 12 -37.5 19.5
t-34.5 15.5q-14 6 -28.5 -6t-34.5 -38q-32 -42 -73.5 -111t-79.5 -162l-30 -97l-133 -22z" />
    <glyph glyph-name="r" unicode="&#x159;" horiz-adv-x="448" 
d="M162 393q8 22 3 26t-28 2l-58 -6l6 32l221 69l7 -6q-29 -69 -53 -125q-10 -24 -20 -47.5t-18 -43t-14 -33t-7 -17.5h3q31 63 64 114.5t62 86.5q34 41 61 57.5t55 16.5q29 0 46.5 -16t17.5 -42q0 -14 -5.5 -26t-13.5 -21.5t-17.5 -16t-17.5 -8.5q-22 12 -37.5 19.5
t-34.5 15.5q-14 6 -28.5 -6t-34.5 -38q-32 -42 -73.5 -111t-79.5 -162l-30 -97l-133 -22z" />
    <glyph glyph-name="r" unicode="&#x157;" horiz-adv-x="448" 
d="M162 393q8 22 3 26t-28 2l-58 -6l6 32l221 69l7 -6q-29 -69 -53 -125q-10 -24 -20 -47.5t-18 -43t-14 -33t-7 -17.5h3q31 63 64 114.5t62 86.5q34 41 61 57.5t55 16.5q29 0 46.5 -16t17.5 -42q0 -14 -5.5 -26t-13.5 -21.5t-17.5 -16t-17.5 -8.5q-22 12 -37.5 19.5
t-34.5 15.5q-14 6 -28.5 -6t-34.5 -38q-32 -42 -73.5 -111t-79.5 -162l-30 -97l-133 -22z" />
    <glyph glyph-name="r" unicode="&#x155;" horiz-adv-x="448" 
d="M162 393q8 22 3 26t-28 2l-58 -6l6 32l221 69l7 -6q-29 -69 -53 -125q-10 -24 -20 -47.5t-18 -43t-14 -33t-7 -17.5h3q31 63 64 114.5t62 86.5q34 41 61 57.5t55 16.5q29 0 46.5 -16t17.5 -42q0 -14 -5.5 -26t-13.5 -21.5t-17.5 -16t-17.5 -8.5q-22 12 -37.5 19.5
t-34.5 15.5q-14 6 -28.5 -6t-34.5 -38q-32 -42 -73.5 -111t-79.5 -162l-30 -97l-133 -22z" />
    <glyph glyph-name="s" unicode="s" horiz-adv-x="413" 
d="M110 -13q-27 0 -50 7t-40 19t-27 28.5t-10 34.5q0 23 17 42t46 19q13 -18 26.5 -35.5t28.5 -31t32 -22t37 -8.5q30 0 45 15.5t15 38.5q0 40 -43 95l-38 50q-44 58 -44 116q0 37 19.5 67.5t50 52t67.5 33.5t72 12q24 0 44.5 -5t36 -15t24.5 -23.5t9 -30.5q0 -23 -15.5 -41
t-43.5 -19q-22 33 -52.5 58.5t-66.5 25.5q-26 0 -40.5 -13t-14.5 -33q0 -19 10 -41t33 -54l38 -52q26 -36 38.5 -63t12.5 -58q0 -37 -20 -68t-51.5 -53.5t-70 -35t-75.5 -12.5z" />
    <glyph glyph-name="s" unicode="&#x219;" horiz-adv-x="413" 
d="M110 -13q-27 0 -50 7t-40 19t-27 28.5t-10 34.5q0 23 17 42t46 19q13 -18 26.5 -35.5t28.5 -31t32 -22t37 -8.5q30 0 45 15.5t15 38.5q0 40 -43 95l-38 50q-44 58 -44 116q0 37 19.5 67.5t50 52t67.5 33.5t72 12q24 0 44.5 -5t36 -15t24.5 -23.5t9 -30.5q0 -23 -15.5 -41
t-43.5 -19q-22 33 -52.5 58.5t-66.5 25.5q-26 0 -40.5 -13t-14.5 -33q0 -19 10 -41t33 -54l38 -52q26 -36 38.5 -63t12.5 -58q0 -37 -20 -68t-51.5 -53.5t-70 -35t-75.5 -12.5z" />
    <glyph glyph-name="s" unicode="&#x161;" horiz-adv-x="413" 
d="M110 -13q-27 0 -50 7t-40 19t-27 28.5t-10 34.5q0 23 17 42t46 19q13 -18 26.5 -35.5t28.5 -31t32 -22t37 -8.5q30 0 45 15.5t15 38.5q0 40 -43 95l-38 50q-44 58 -44 116q0 37 19.5 67.5t50 52t67.5 33.5t72 12q24 0 44.5 -5t36 -15t24.5 -23.5t9 -30.5q0 -23 -15.5 -41
t-43.5 -19q-22 33 -52.5 58.5t-66.5 25.5q-26 0 -40.5 -13t-14.5 -33q0 -19 10 -41t33 -54l38 -52q26 -36 38.5 -63t12.5 -58q0 -37 -20 -68t-51.5 -53.5t-70 -35t-75.5 -12.5z" />
    <glyph glyph-name="s" unicode="&#x15f;" horiz-adv-x="413" 
d="M110 -13q-27 0 -50 7t-40 19t-27 28.5t-10 34.5q0 23 17 42t46 19q13 -18 26.5 -35.5t28.5 -31t32 -22t37 -8.5q30 0 45 15.5t15 38.5q0 40 -43 95l-38 50q-44 58 -44 116q0 37 19.5 67.5t50 52t67.5 33.5t72 12q24 0 44.5 -5t36 -15t24.5 -23.5t9 -30.5q0 -23 -15.5 -41
t-43.5 -19q-22 33 -52.5 58.5t-66.5 25.5q-26 0 -40.5 -13t-14.5 -33q0 -19 10 -41t33 -54l38 -52q26 -36 38.5 -63t12.5 -58q0 -37 -20 -68t-51.5 -53.5t-70 -35t-75.5 -12.5z" />
    <glyph glyph-name="s" unicode="&#x15d;" horiz-adv-x="413" 
d="M110 -13q-27 0 -50 7t-40 19t-27 28.5t-10 34.5q0 23 17 42t46 19q13 -18 26.5 -35.5t28.5 -31t32 -22t37 -8.5q30 0 45 15.5t15 38.5q0 40 -43 95l-38 50q-44 58 -44 116q0 37 19.5 67.5t50 52t67.5 33.5t72 12q24 0 44.5 -5t36 -15t24.5 -23.5t9 -30.5q0 -23 -15.5 -41
t-43.5 -19q-22 33 -52.5 58.5t-66.5 25.5q-26 0 -40.5 -13t-14.5 -33q0 -19 10 -41t33 -54l38 -52q26 -36 38.5 -63t12.5 -58q0 -37 -20 -68t-51.5 -53.5t-70 -35t-75.5 -12.5z" />
    <glyph glyph-name="s" unicode="&#x15b;" horiz-adv-x="413" 
d="M110 -13q-27 0 -50 7t-40 19t-27 28.5t-10 34.5q0 23 17 42t46 19q13 -18 26.5 -35.5t28.5 -31t32 -22t37 -8.5q30 0 45 15.5t15 38.5q0 40 -43 95l-38 50q-44 58 -44 116q0 37 19.5 67.5t50 52t67.5 33.5t72 12q24 0 44.5 -5t36 -15t24.5 -23.5t9 -30.5q0 -23 -15.5 -41
t-43.5 -19q-22 33 -52.5 58.5t-66.5 25.5q-26 0 -40.5 -13t-14.5 -33q0 -19 10 -41t33 -54l38 -52q26 -36 38.5 -63t12.5 -58q0 -37 -20 -68t-51.5 -53.5t-70 -35t-75.5 -12.5z" />
    <glyph glyph-name="s" unicode="&#xdf;" horiz-adv-x="413" 
d="M110 -13q-27 0 -50 7t-40 19t-27 28.5t-10 34.5q0 23 17 42t46 19q13 -18 26.5 -35.5t28.5 -31t32 -22t37 -8.5q30 0 45 15.5t15 38.5q0 40 -43 95l-38 50q-44 58 -44 116q0 37 19.5 67.5t50 52t67.5 33.5t72 12q24 0 44.5 -5t36 -15t24.5 -23.5t9 -30.5q0 -23 -15.5 -41
t-43.5 -19q-22 33 -52.5 58.5t-66.5 25.5q-26 0 -40.5 -13t-14.5 -33q0 -19 10 -41t33 -54l38 -52q26 -36 38.5 -63t12.5 -58q0 -37 -20 -68t-51.5 -53.5t-70 -35t-75.5 -12.5z" />
    <glyph glyph-name="t" unicode="t" horiz-adv-x="394" 
d="M171 119q-11 -30 -10.5 -44t16.5 -14q10 0 27 10.5t36.5 28.5t40 43t38.5 54l32 -18q-60 -96 -124.5 -144t-121.5 -48q-47 0 -63 28.5t9 92.5l127 332h-103l24 62h103l41 106h115l-41 -106h134l-25 -62h-132z" />
    <glyph glyph-name="t" unicode="&#x21b;" horiz-adv-x="394" 
d="M171 119q-11 -30 -10.5 -44t16.5 -14q10 0 27 10.5t36.5 28.5t40 43t38.5 54l32 -18q-60 -96 -124.5 -144t-121.5 -48q-47 0 -63 28.5t9 92.5l127 332h-103l24 62h103l41 106h115l-41 -106h134l-25 -62h-132z" />
    <glyph glyph-name="t" unicode="&#x167;" horiz-adv-x="394" 
d="M171 119q-11 -30 -10.5 -44t16.5 -14q10 0 27 10.5t36.5 28.5t40 43t38.5 54l32 -18q-60 -96 -124.5 -144t-121.5 -48q-47 0 -63 28.5t9 92.5l127 332h-103l24 62h103l41 106h115l-41 -106h134l-25 -62h-132z" />
    <glyph glyph-name="t" unicode="&#x165;" horiz-adv-x="394" 
d="M171 119q-11 -30 -10.5 -44t16.5 -14q10 0 27 10.5t36.5 28.5t40 43t38.5 54l32 -18q-60 -96 -124.5 -144t-121.5 -48q-47 0 -63 28.5t9 92.5l127 332h-103l24 62h103l41 106h115l-41 -106h134l-25 -62h-132z" />
    <glyph glyph-name="t" unicode="&#x163;" horiz-adv-x="394" 
d="M171 119q-11 -30 -10.5 -44t16.5 -14q10 0 27 10.5t36.5 28.5t40 43t38.5 54l32 -18q-60 -96 -124.5 -144t-121.5 -48q-47 0 -63 28.5t9 92.5l127 332h-103l24 62h103l41 106h115l-41 -106h134l-25 -62h-132z" />
    <glyph glyph-name="u" unicode="u" horiz-adv-x="621" 
d="M366 181h-3q-77 -101 -137 -147.5t-118 -46.5q-32 0 -48.5 12.5t-20.5 34.5t2.5 53t21.5 69l96 237q9 22 3.5 26t-28.5 2l-58 -5l6 32l235 69l7 -7l-137 -340q-23 -56 -24.5 -81.5t21.5 -25.5q19 0 50.5 23.5t67 66.5t71.5 104t63 135l31 89l134 34l-153 -396
q-11 -29 -12.5 -43.5t10.5 -14.5q10 0 25 10.5t32.5 28.5t37 43t37.5 54l31 -18q-59 -96 -119 -144t-116 -48q-46 0 -55 29.5t17 91.5z" />
    <glyph glyph-name="u" unicode="&#x1ee5;" horiz-adv-x="621" 
d="M366 181h-3q-77 -101 -137 -147.5t-118 -46.5q-32 0 -48.5 12.5t-20.5 34.5t2.5 53t21.5 69l96 237q9 22 3.5 26t-28.5 2l-58 -5l6 32l235 69l7 -7l-137 -340q-23 -56 -24.5 -81.5t21.5 -25.5q19 0 50.5 23.5t67 66.5t71.5 104t63 135l31 89l134 34l-153 -396
q-11 -29 -12.5 -43.5t10.5 -14.5q10 0 25 10.5t32.5 28.5t37 43t37.5 54l31 -18q-59 -96 -119 -144t-116 -48q-46 0 -55 29.5t17 91.5z" />
    <glyph glyph-name="u" unicode="&#x173;" horiz-adv-x="621" 
d="M366 181h-3q-77 -101 -137 -147.5t-118 -46.5q-32 0 -48.5 12.5t-20.5 34.5t2.5 53t21.5 69l96 237q9 22 3.5 26t-28.5 2l-58 -5l6 32l235 69l7 -7l-137 -340q-23 -56 -24.5 -81.5t21.5 -25.5q19 0 50.5 23.5t67 66.5t71.5 104t63 135l31 89l134 34l-153 -396
q-11 -29 -12.5 -43.5t10.5 -14.5q10 0 25 10.5t32.5 28.5t37 43t37.5 54l31 -18q-59 -96 -119 -144t-116 -48q-46 0 -55 29.5t17 91.5z" />
    <glyph glyph-name="u" unicode="&#x171;" horiz-adv-x="621" 
d="M366 181h-3q-77 -101 -137 -147.5t-118 -46.5q-32 0 -48.5 12.5t-20.5 34.5t2.5 53t21.5 69l96 237q9 22 3.5 26t-28.5 2l-58 -5l6 32l235 69l7 -7l-137 -340q-23 -56 -24.5 -81.5t21.5 -25.5q19 0 50.5 23.5t67 66.5t71.5 104t63 135l31 89l134 34l-153 -396
q-11 -29 -12.5 -43.5t10.5 -14.5q10 0 25 10.5t32.5 28.5t37 43t37.5 54l31 -18q-59 -96 -119 -144t-116 -48q-46 0 -55 29.5t17 91.5z" />
    <glyph glyph-name="u" unicode="&#x16f;" horiz-adv-x="621" 
d="M366 181h-3q-77 -101 -137 -147.5t-118 -46.5q-32 0 -48.5 12.5t-20.5 34.5t2.5 53t21.5 69l96 237q9 22 3.5 26t-28.5 2l-58 -5l6 32l235 69l7 -7l-137 -340q-23 -56 -24.5 -81.5t21.5 -25.5q19 0 50.5 23.5t67 66.5t71.5 104t63 135l31 89l134 34l-153 -396
q-11 -29 -12.5 -43.5t10.5 -14.5q10 0 25 10.5t32.5 28.5t37 43t37.5 54l31 -18q-59 -96 -119 -144t-116 -48q-46 0 -55 29.5t17 91.5z" />
    <glyph glyph-name="u" unicode="&#x16d;" horiz-adv-x="621" 
d="M366 181h-3q-77 -101 -137 -147.5t-118 -46.5q-32 0 -48.5 12.5t-20.5 34.5t2.5 53t21.5 69l96 237q9 22 3.5 26t-28.5 2l-58 -5l6 32l235 69l7 -7l-137 -340q-23 -56 -24.5 -81.5t21.5 -25.5q19 0 50.5 23.5t67 66.5t71.5 104t63 135l31 89l134 34l-153 -396
q-11 -29 -12.5 -43.5t10.5 -14.5q10 0 25 10.5t32.5 28.5t37 43t37.5 54l31 -18q-59 -96 -119 -144t-116 -48q-46 0 -55 29.5t17 91.5z" />
    <glyph glyph-name="u" unicode="&#x16b;" horiz-adv-x="621" 
d="M366 181h-3q-77 -101 -137 -147.5t-118 -46.5q-32 0 -48.5 12.5t-20.5 34.5t2.5 53t21.5 69l96 237q9 22 3.5 26t-28.5 2l-58 -5l6 32l235 69l7 -7l-137 -340q-23 -56 -24.5 -81.5t21.5 -25.5q19 0 50.5 23.5t67 66.5t71.5 104t63 135l31 89l134 34l-153 -396
q-11 -29 -12.5 -43.5t10.5 -14.5q10 0 25 10.5t32.5 28.5t37 43t37.5 54l31 -18q-59 -96 -119 -144t-116 -48q-46 0 -55 29.5t17 91.5z" />
    <glyph glyph-name="u" unicode="&#x169;" horiz-adv-x="621" 
d="M366 181h-3q-77 -101 -137 -147.5t-118 -46.5q-32 0 -48.5 12.5t-20.5 34.5t2.5 53t21.5 69l96 237q9 22 3.5 26t-28.5 2l-58 -5l6 32l235 69l7 -7l-137 -340q-23 -56 -24.5 -81.5t21.5 -25.5q19 0 50.5 23.5t67 66.5t71.5 104t63 135l31 89l134 34l-153 -396
q-11 -29 -12.5 -43.5t10.5 -14.5q10 0 25 10.5t32.5 28.5t37 43t37.5 54l31 -18q-59 -96 -119 -144t-116 -48q-46 0 -55 29.5t17 91.5z" />
    <glyph glyph-name="u" unicode="&#xfc;" horiz-adv-x="621" 
d="M366 181h-3q-77 -101 -137 -147.5t-118 -46.5q-32 0 -48.5 12.5t-20.5 34.5t2.5 53t21.5 69l96 237q9 22 3.5 26t-28.5 2l-58 -5l6 32l235 69l7 -7l-137 -340q-23 -56 -24.5 -81.5t21.5 -25.5q19 0 50.5 23.5t67 66.5t71.5 104t63 135l31 89l134 34l-153 -396
q-11 -29 -12.5 -43.5t10.5 -14.5q10 0 25 10.5t32.5 28.5t37 43t37.5 54l31 -18q-59 -96 -119 -144t-116 -48q-46 0 -55 29.5t17 91.5z" />
    <glyph glyph-name="u" unicode="&#xfb;" horiz-adv-x="621" 
d="M366 181h-3q-77 -101 -137 -147.5t-118 -46.5q-32 0 -48.5 12.5t-20.5 34.5t2.5 53t21.5 69l96 237q9 22 3.5 26t-28.5 2l-58 -5l6 32l235 69l7 -7l-137 -340q-23 -56 -24.5 -81.5t21.5 -25.5q19 0 50.5 23.5t67 66.5t71.5 104t63 135l31 89l134 34l-153 -396
q-11 -29 -12.5 -43.5t10.5 -14.5q10 0 25 10.5t32.5 28.5t37 43t37.5 54l31 -18q-59 -96 -119 -144t-116 -48q-46 0 -55 29.5t17 91.5z" />
    <glyph glyph-name="u" unicode="&#xfa;" horiz-adv-x="621" 
d="M366 181h-3q-77 -101 -137 -147.5t-118 -46.5q-32 0 -48.5 12.5t-20.5 34.5t2.5 53t21.5 69l96 237q9 22 3.5 26t-28.5 2l-58 -5l6 32l235 69l7 -7l-137 -340q-23 -56 -24.5 -81.5t21.5 -25.5q19 0 50.5 23.5t67 66.5t71.5 104t63 135l31 89l134 34l-153 -396
q-11 -29 -12.5 -43.5t10.5 -14.5q10 0 25 10.5t32.5 28.5t37 43t37.5 54l31 -18q-59 -96 -119 -144t-116 -48q-46 0 -55 29.5t17 91.5z" />
    <glyph glyph-name="u" unicode="&#xf9;" horiz-adv-x="621" 
d="M366 181h-3q-77 -101 -137 -147.5t-118 -46.5q-32 0 -48.5 12.5t-20.5 34.5t2.5 53t21.5 69l96 237q9 22 3.5 26t-28.5 2l-58 -5l6 32l235 69l7 -7l-137 -340q-23 -56 -24.5 -81.5t21.5 -25.5q19 0 50.5 23.5t67 66.5t71.5 104t63 135l31 89l134 34l-153 -396
q-11 -29 -12.5 -43.5t10.5 -14.5q10 0 25 10.5t32.5 28.5t37 43t37.5 54l31 -18q-59 -96 -119 -144t-116 -48q-46 0 -55 29.5t17 91.5z" />
    <glyph glyph-name="v" unicode="v" horiz-adv-x="533" 
d="M100 0q6 117 17 213.5t33 181.5q5 20 0.5 26.5t-26.5 3.5l-60 -9l-6 33l227 67l9 -6q-13 -41 -25 -91.5t-22 -104t-17 -106.5t-10 -99q36 36 71.5 70.5t67 67t57.5 63t41 59.5q13 24 11.5 52t-13.5 70q8 13 24.5 21t37.5 8q23 0 42 -14t19 -42q0 -31 -30 -73t-80 -96
q-36 -39 -71 -73t-70 -68.5t-71.5 -71.5t-76.5 -82h-79z" />
    <glyph glyph-name="w" unicode="w" horiz-adv-x="800" 
d="M295 510q-13 -41 -25.5 -91.5t-23.5 -104t-19.5 -107t-11.5 -99.5q60 49 111 112t89 120q4 35 7.5 67t8.5 59l119 49q-15 -91 -25 -188.5t-15 -209.5q66 70 124 131t87 121q11 24 10.5 52t-12.5 70q18 29 63 29q23 0 41.5 -14t18.5 -42q0 -31 -30 -73t-78 -96
q-36 -41 -68.5 -75.5t-65 -68t-65.5 -70t-71 -81.5h-73q2 54 6 122.5t10 138.5q-50 -66 -114 -134.5t-128 -126.5h-72q8 117 22 213.5t36 181.5q5 20 0.5 26.5t-26.5 3.5l-60 -9l-5 33l229 67z" />
    <glyph glyph-name="w" unicode="&#x1e85;" horiz-adv-x="800" 
d="M295 510q-13 -41 -25.5 -91.5t-23.5 -104t-19.5 -107t-11.5 -99.5q60 49 111 112t89 120q4 35 7.5 67t8.5 59l119 49q-15 -91 -25 -188.5t-15 -209.5q66 70 124 131t87 121q11 24 10.5 52t-12.5 70q18 29 63 29q23 0 41.5 -14t18.5 -42q0 -31 -30 -73t-78 -96
q-36 -41 -68.5 -75.5t-65 -68t-65.5 -70t-71 -81.5h-73q2 54 6 122.5t10 138.5q-50 -66 -114 -134.5t-128 -126.5h-72q8 117 22 213.5t36 181.5q5 20 0.5 26.5t-26.5 3.5l-60 -9l-5 33l229 67z" />
    <glyph glyph-name="w" unicode="&#x1e83;" horiz-adv-x="800" 
d="M295 510q-13 -41 -25.5 -91.5t-23.5 -104t-19.5 -107t-11.5 -99.5q60 49 111 112t89 120q4 35 7.5 67t8.5 59l119 49q-15 -91 -25 -188.5t-15 -209.5q66 70 124 131t87 121q11 24 10.5 52t-12.5 70q18 29 63 29q23 0 41.5 -14t18.5 -42q0 -31 -30 -73t-78 -96
q-36 -41 -68.5 -75.5t-65 -68t-65.5 -70t-71 -81.5h-73q2 54 6 122.5t10 138.5q-50 -66 -114 -134.5t-128 -126.5h-72q8 117 22 213.5t36 181.5q5 20 0.5 26.5t-26.5 3.5l-60 -9l-5 33l229 67z" />
    <glyph glyph-name="w" unicode="&#x1e81;" horiz-adv-x="800" 
d="M295 510q-13 -41 -25.5 -91.5t-23.5 -104t-19.5 -107t-11.5 -99.5q60 49 111 112t89 120q4 35 7.5 67t8.5 59l119 49q-15 -91 -25 -188.5t-15 -209.5q66 70 124 131t87 121q11 24 10.5 52t-12.5 70q18 29 63 29q23 0 41.5 -14t18.5 -42q0 -31 -30 -73t-78 -96
q-36 -41 -68.5 -75.5t-65 -68t-65.5 -70t-71 -81.5h-73q2 54 6 122.5t10 138.5q-50 -66 -114 -134.5t-128 -126.5h-72q8 117 22 213.5t36 181.5q5 20 0.5 26.5t-26.5 3.5l-60 -9l-5 33l229 67z" />
    <glyph glyph-name="w" unicode="&#x175;" horiz-adv-x="800" 
d="M295 510q-13 -41 -25.5 -91.5t-23.5 -104t-19.5 -107t-11.5 -99.5q60 49 111 112t89 120q4 35 7.5 67t8.5 59l119 49q-15 -91 -25 -188.5t-15 -209.5q66 70 124 131t87 121q11 24 10.5 52t-12.5 70q18 29 63 29q23 0 41.5 -14t18.5 -42q0 -31 -30 -73t-78 -96
q-36 -41 -68.5 -75.5t-65 -68t-65.5 -70t-71 -81.5h-73q2 54 6 122.5t10 138.5q-50 -66 -114 -134.5t-128 -126.5h-72q8 117 22 213.5t36 181.5q5 20 0.5 26.5t-26.5 3.5l-60 -9l-5 33l229 67z" />
    <glyph glyph-name="x" unicode="x" horiz-adv-x="606" 
d="M-37 58q0 23 17.5 40.5t41.5 15.5q18 -25 35 -40.5t35 -15.5q15 0 28 10q7 5 17 14.5t26 27.5t38 46.5t52 72.5l-18 149q-5 42 -12 58t-21 16q-18 0 -47.5 -28t-61.5 -68l-28 23q54 70 104 105.5t94 35.5q18 0 31.5 -4.5t22.5 -17.5t15 -36.5t11 -61.5l8 -66
q37 57 66.5 93t55 57t48 28.5t44.5 7.5q35 0 59 -17.5t24 -52.5q0 -23 -17.5 -41t-41.5 -16q-18 25 -35 40.5t-35 15.5q-15 0 -28 -10q-7 -5 -17.5 -14.5t-26 -27.5t-37.5 -46.5t-52 -72.5l18 -149q5 -42 12 -57.5t21 -15.5q18 0 47 27.5t62 68.5l28 -24q-54 -69 -104 -105
t-94 -36q-19 0 -32 4.5t-22 18t-15.5 37t-10.5 61.5l-8 65q-37 -57 -66.5 -93t-55 -57t-48 -28.5t-44.5 -7.5q-35 0 -59 18t-24 53z" />
    <glyph glyph-name="y" unicode="y" horiz-adv-x="563" 
d="M272 141l137 198q36 52 62 86.5t47 55.5t39 30t36 9q23 0 36 -13.5t13 -34.5q0 -17 -6 -29t-14 -17q-32 -8 -56 -16t-45 -22t-41.5 -36.5t-45.5 -58.5l-198 -282q-17 -24 -38 -52t-44 -55.5t-46.5 -53.5t-46.5 -46q-78 -71 -134 -71q-28 0 -42.5 14t-14.5 37q0 17 8 31.5
t19 19.5q38 -8 75.5 -6.5t60.5 17.5q29 20 61 55.5t68 90.5l-8 407q-1 22 -6 26t-25 1l-56 -9l-5 33l204 68l6 -6v-371z" />
    <glyph glyph-name="y" unicode="&#x1ef3;" horiz-adv-x="563" 
d="M272 141l137 198q36 52 62 86.5t47 55.5t39 30t36 9q23 0 36 -13.5t13 -34.5q0 -17 -6 -29t-14 -17q-32 -8 -56 -16t-45 -22t-41.5 -36.5t-45.5 -58.5l-198 -282q-17 -24 -38 -52t-44 -55.5t-46.5 -53.5t-46.5 -46q-78 -71 -134 -71q-28 0 -42.5 14t-14.5 37q0 17 8 31.5
t19 19.5q38 -8 75.5 -6.5t60.5 17.5q29 20 61 55.5t68 90.5l-8 407q-1 22 -6 26t-25 1l-56 -9l-5 33l204 68l6 -6v-371z" />
    <glyph glyph-name="y" unicode="&#x233;" horiz-adv-x="563" 
d="M272 141l137 198q36 52 62 86.5t47 55.5t39 30t36 9q23 0 36 -13.5t13 -34.5q0 -17 -6 -29t-14 -17q-32 -8 -56 -16t-45 -22t-41.5 -36.5t-45.5 -58.5l-198 -282q-17 -24 -38 -52t-44 -55.5t-46.5 -53.5t-46.5 -46q-78 -71 -134 -71q-28 0 -42.5 14t-14.5 37q0 17 8 31.5
t19 19.5q38 -8 75.5 -6.5t60.5 17.5q29 20 61 55.5t68 90.5l-8 407q-1 22 -6 26t-25 1l-56 -9l-5 33l204 68l6 -6v-371z" />
    <glyph glyph-name="y" unicode="&#x177;" horiz-adv-x="563" 
d="M272 141l137 198q36 52 62 86.5t47 55.5t39 30t36 9q23 0 36 -13.5t13 -34.5q0 -17 -6 -29t-14 -17q-32 -8 -56 -16t-45 -22t-41.5 -36.5t-45.5 -58.5l-198 -282q-17 -24 -38 -52t-44 -55.5t-46.5 -53.5t-46.5 -46q-78 -71 -134 -71q-28 0 -42.5 14t-14.5 37q0 17 8 31.5
t19 19.5q38 -8 75.5 -6.5t60.5 17.5q29 20 61 55.5t68 90.5l-8 407q-1 22 -6 26t-25 1l-56 -9l-5 33l204 68l6 -6v-371z" />
    <glyph glyph-name="y" unicode="&#xff;" horiz-adv-x="563" 
d="M272 141l137 198q36 52 62 86.5t47 55.5t39 30t36 9q23 0 36 -13.5t13 -34.5q0 -17 -6 -29t-14 -17q-32 -8 -56 -16t-45 -22t-41.5 -36.5t-45.5 -58.5l-198 -282q-17 -24 -38 -52t-44 -55.5t-46.5 -53.5t-46.5 -46q-78 -71 -134 -71q-28 0 -42.5 14t-14.5 37q0 17 8 31.5
t19 19.5q38 -8 75.5 -6.5t60.5 17.5q29 20 61 55.5t68 90.5l-8 407q-1 22 -6 26t-25 1l-56 -9l-5 33l204 68l6 -6v-371z" />
    <glyph glyph-name="y" unicode="&#xfd;" horiz-adv-x="563" 
d="M272 141l137 198q36 52 62 86.5t47 55.5t39 30t36 9q23 0 36 -13.5t13 -34.5q0 -17 -6 -29t-14 -17q-32 -8 -56 -16t-45 -22t-41.5 -36.5t-45.5 -58.5l-198 -282q-17 -24 -38 -52t-44 -55.5t-46.5 -53.5t-46.5 -46q-78 -71 -134 -71q-28 0 -42.5 14t-14.5 37q0 17 8 31.5
t19 19.5q38 -8 75.5 -6.5t60.5 17.5q29 20 61 55.5t68 90.5l-8 407q-1 22 -6 26t-25 1l-56 -9l-5 33l204 68l6 -6v-371z" />
    <glyph glyph-name="z" unicode="z" horiz-adv-x="532" 
d="M336 -42q-26 0 -52.5 14.5t-57 34.5t-66 40t-77.5 31q-6 -29 -14.5 -47t-17.5 -28t-18 -13t-17 -3q-17 0 -26.5 9t-9.5 25t12 33.5t46 45.5l336 276q-35 9 -65 21t-54.5 22t-44 17t-33.5 7q-16 0 -26 -7.5t-10 -22.5q0 -21 16 -35.5t36 -29.5q1 -23 -14.5 -39t-37.5 -16
q-29 0 -43.5 18.5t-14.5 42.5t9.5 45.5t24.5 40.5t33.5 34.5t36.5 26.5q20 13 34.5 17t26.5 2q18 -2 44 -10t54.5 -18t55.5 -17.5t46 -7.5q32 0 57 17t45 34l26 -29l-411 -339q34 -8 62.5 -23.5t53 -31t46 -27t42.5 -11.5q35 0 54.5 23t36.5 63l34 -14q-32 -77 -70 -124
t-88 -47z" />
    <glyph glyph-name="z" unicode="&#x17e;" horiz-adv-x="532" 
d="M336 -42q-26 0 -52.5 14.5t-57 34.5t-66 40t-77.5 31q-6 -29 -14.5 -47t-17.5 -28t-18 -13t-17 -3q-17 0 -26.5 9t-9.5 25t12 33.5t46 45.5l336 276q-35 9 -65 21t-54.5 22t-44 17t-33.5 7q-16 0 -26 -7.5t-10 -22.5q0 -21 16 -35.5t36 -29.5q1 -23 -14.5 -39t-37.5 -16
q-29 0 -43.5 18.5t-14.5 42.5t9.5 45.5t24.5 40.5t33.5 34.5t36.5 26.5q20 13 34.5 17t26.5 2q18 -2 44 -10t54.5 -18t55.5 -17.5t46 -7.5q32 0 57 17t45 34l26 -29l-411 -339q34 -8 62.5 -23.5t53 -31t46 -27t42.5 -11.5q35 0 54.5 23t36.5 63l34 -14q-32 -77 -70 -124
t-88 -47z" />
    <glyph glyph-name="z" unicode="&#x17c;" horiz-adv-x="532" 
d="M336 -42q-26 0 -52.5 14.5t-57 34.5t-66 40t-77.5 31q-6 -29 -14.5 -47t-17.5 -28t-18 -13t-17 -3q-17 0 -26.5 9t-9.5 25t12 33.5t46 45.5l336 276q-35 9 -65 21t-54.5 22t-44 17t-33.5 7q-16 0 -26 -7.5t-10 -22.5q0 -21 16 -35.5t36 -29.5q1 -23 -14.5 -39t-37.5 -16
q-29 0 -43.5 18.5t-14.5 42.5t9.5 45.5t24.5 40.5t33.5 34.5t36.5 26.5q20 13 34.5 17t26.5 2q18 -2 44 -10t54.5 -18t55.5 -17.5t46 -7.5q32 0 57 17t45 34l26 -29l-411 -339q34 -8 62.5 -23.5t53 -31t46 -27t42.5 -11.5q35 0 54.5 23t36.5 63l34 -14q-32 -77 -70 -124
t-88 -47z" />
    <glyph glyph-name="z" unicode="&#x17a;" horiz-adv-x="532" 
d="M336 -42q-26 0 -52.5 14.5t-57 34.5t-66 40t-77.5 31q-6 -29 -14.5 -47t-17.5 -28t-18 -13t-17 -3q-17 0 -26.5 9t-9.5 25t12 33.5t46 45.5l336 276q-35 9 -65 21t-54.5 22t-44 17t-33.5 7q-16 0 -26 -7.5t-10 -22.5q0 -21 16 -35.5t36 -29.5q1 -23 -14.5 -39t-37.5 -16
q-29 0 -43.5 18.5t-14.5 42.5t9.5 45.5t24.5 40.5t33.5 34.5t36.5 26.5q20 13 34.5 17t26.5 2q18 -2 44 -10t54.5 -18t55.5 -17.5t46 -7.5q32 0 57 17t45 34l26 -29l-411 -339q34 -8 62.5 -23.5t53 -31t46 -27t42.5 -11.5q35 0 54.5 23t36.5 63l34 -14q-32 -77 -70 -124
t-88 -47z" />
    <glyph glyph-name="uni00A0" unicode="&#xa0;" horiz-adv-x="272" 
 />
    <glyph glyph-name="uni00AD" unicode="&#xad;" horiz-adv-x="429" 
d="M84 299h294l-25 -73h-294z" />
    <glyph glyph-name="paragraph" unicode="&#xb6;" horiz-adv-x="602" 
d="M81 -192q-29 0 -51.5 16t-22.5 45q0 26 18 45t50 17q20 -26 44 -40t54 -14q35 0 65.5 30.5t53.5 102.5l96 293q-27 -8 -52.5 -12.5t-51.5 -4.5q-43 0 -75 13t-53.5 36.5t-32.5 54.5t-11 67q0 59 28 113.5t80.5 96t128 66.5t170.5 25h200l-13 -40l-42 -3q-19 -2 -31 -5
t-19.5 -10t-13 -19t-11.5 -31l-179 -550q-9 -28 -21.5 -58t-30 -59.5t-41 -56.5t-55.5 -49q-47 -33 -95 -51t-86 -18z" />
    <glyph glyph-name="periodcentered" unicode="&#xb7;" horiz-adv-x="296" 
d="M150 176q-35 0 -59.5 25t-24.5 63q0 35 24.5 59.5t59.5 24.5q38 0 63 -24.5t25 -59.5q0 -38 -25 -63t-63 -25z" />
    <glyph glyph-name="glyph65" horiz-adv-x="804" 
d="M364 -11q-70 0 -127 23.5t-96 65.5t-58 100.5t-14 129.5h593q12 52 12 106q0 67 -18 119t-50 86.5t-76.5 52.5t-97.5 18q-85 0 -156.5 -44t-122.5 -119l-39 24q22 42 56.5 83.5t81 74t105.5 52.5t131 20q67 0 124.5 -22.5t99.5 -64.5t66 -102.5t24 -137.5
q0 -92 -35.5 -176.5t-95.5 -148.5t-139.5 -102t-167.5 -38zM375 39q52 0 95 17t77 47t59 69.5t41 84.5h-441q-9 -103 36 -160.5t133 -57.5z" />
    <glyph glyph-name="glyph66" horiz-adv-x="346" 
d="M97 -13q-47 0 -60.5 29t11.5 92l114 285q9 22 4 26t-28 2l-59 -6l6 32l234 69l7 -6l-156 -391q-11 -29 -12.5 -43.5t11.5 -14.5q9 0 24 10.5t33 28.5t37 43t37 54l32 -18q-60 -96 -119.5 -144t-115.5 -48z" />
    <glyph glyph-name="glyph67" horiz-adv-x="303" 
d="M144 47q-15 -38 -28 -66t-28.5 -51t-36 -42t-48.5 -38q-17 -11 -40 -25.5t-48.5 -30t-52 -31t-50.5 -28.5l-15 30q43 31 75.5 55.5t58.5 53t47.5 66t43.5 93.5l140 362q8 21 3 25.5t-28 2.5l-58 -6l6 32l231 69l7 -6z" />
    <glyph glyph-name="uni0410" unicode="&#x410;" horiz-adv-x="757" 
d="M-89 40l34 3q17 1 30.5 7.5t30 23t39.5 45.5t58 76l430 575h56l28 -691q1 -20 10 -26t37 -9l34 -4l-12 -40h-299l12 40l49 4q15 1 24 3t13.5 6.5t6 12t1.5 20.5l-7 180h-259l-54 -73q-34 -46 -52.5 -74.5t-23 -44t4.5 -22t30 -8.5l39 -4l-12 -40h-260zM484 324l-10 279
l-205 -279h215z" />
    <glyph glyph-name="uni0411" unicode="&#x411;" horiz-adv-x="722" 
d="M383 442q147 0 221.5 -47.5t74.5 -141.5q0 -54 -25.5 -100.5t-76 -80t-124 -53t-169.5 -19.5h-317l12 40l43 3q18 1 29 4t18.5 9.5t13.5 19t12 32.5l166 542q6 20 8 32t-1.5 19t-13.5 9.5t-28 4.5l-39 3l12 40h266l293 2l-48 -191h-39v50q-1 31 -8 49t-28 27.5t-59 12
t-100 2.5h-51q-20 0 -26 -20l-76 -248h60zM222 111q-13 -41 -1 -53.5t56 -12.5q66 0 115 15.5t81.5 43.5t49 65.5t16.5 81.5q0 35 -9.5 61t-32 43t-58.5 25.5t-89 8.5h-43z" />
    <glyph glyph-name="uni0412" unicode="&#x412;" horiz-adv-x="716" 
d="M-17 40l42 3q18 1 29.5 4t19 10t13 19t11.5 32l166 542q6 19 8 31.5t-1 19.5t-12.5 10t-27.5 4l-41 3l12 40h271q126 0 188.5 -37t62.5 -102q0 -42 -18.5 -75t-50 -58.5t-73 -43t-88.5 -26.5v-1q31 -5 62.5 -17.5t57 -33t42 -49t16.5 -65.5q0 -49 -27 -94t-76.5 -79.5
t-118.5 -55.5t-153 -21h-327zM378 429q57 0 97.5 16t66 42.5t37.5 60.5t12 69q0 44 -31.5 69.5t-106.5 25.5q-29 0 -37 -3.5t-13 -18.5l-80 -261h55zM284 45q60 0 106 16t77.5 44.5t48 68t16.5 87.5q0 57 -41 88.5t-139 32.5h-43l-82 -267q-14 -43 -3.5 -56.5t56.5 -13.5h4z
" />
    <glyph glyph-name="uni0403" unicode="&#x403;" horiz-adv-x="629" 
d="M-19 40l42 3q18 1 29.5 4t19.5 10t13.5 19t11.5 32l165 542q6 19 8 31.5t-1.5 19.5t-13 10t-27.5 4l-40 3l13 40h274l290 2l-49 -191h-38l-1 50q-1 32 -7.5 50t-26.5 27t-57 11.5t-100 2.5h-60q-20 0 -26 -20l-177 -582q-6 -20 -8.5 -32t2 -19t15.5 -9t32 -3l54 -2
l-13 -43h-336z" />
    <glyph glyph-name="uni0403" unicode="&#x492;" horiz-adv-x="629" 
d="M-19 40l42 3q18 1 29.5 4t19.5 10t13.5 19t11.5 32l165 542q6 19 8 31.5t-1.5 19.5t-13 10t-27.5 4l-40 3l13 40h274l290 2l-49 -191h-38l-1 50q-1 32 -7.5 50t-26.5 27t-57 11.5t-100 2.5h-60q-20 0 -26 -20l-177 -582q-6 -20 -8.5 -32t2 -19t15.5 -9t32 -3l54 -2
l-13 -43h-336z" />
    <glyph glyph-name="uni0403" unicode="&#x413;" horiz-adv-x="629" 
d="M-19 40l42 3q18 1 29.5 4t19.5 10t13.5 19t11.5 32l165 542q6 19 8 31.5t-1.5 19.5t-13 10t-27.5 4l-40 3l13 40h274l290 2l-49 -191h-38l-1 50q-1 32 -7.5 50t-26.5 27t-57 11.5t-100 2.5h-60q-20 0 -26 -20l-177 -582q-6 -20 -8.5 -32t2 -19t15.5 -9t32 -3l54 -2
l-13 -43h-336z" />
    <glyph glyph-name="uni0414" unicode="&#x414;" horiz-adv-x="801" 
d="M621 119q-7 -23 -10 -37t0.5 -21.5t14 -10t31.5 -2.5h45l-55 -207h-37l2 65q1 34 -4.5 53t-26 28t-59 11t-103.5 2h-172q-43 0 -75 -0.5t-55.5 -3.5t-40.5 -8.5t-31 -16t-25.5 -26.5t-24.5 -39l-38 -65h-36l71 207h67q94 104 167 258.5t130 340.5q13 40 8 53.5t-45 15.5
l-35 2l12 40h615l-12 -40l-43 -3q-17 -1 -28.5 -3.5t-19.5 -9.5t-13.5 -19t-11.5 -32zM424 691q-69 -224 -142 -382t-163 -261h267q27 0 44.5 3t29.5 11t20 22t15 36l173 568q4 12 2 17t-16 5h-205q-20 0 -25 -19z" />
    <glyph glyph-name="uni0401" unicode="&#x401;" horiz-adv-x="716" 
d="M-17 40l42 3q18 1 29.5 4t19 10t13 19t11.5 32l166 542q6 19 8 31.5t-1.5 19t-13 9.5t-27.5 5l-40 3l12 40h262l289 2l-49 -191h-37l-1 50q-1 32 -7.5 50t-27 27t-59 11.5t-102.5 2.5h-42q-20 0 -26 -20l-85 -280h115q22 0 37.5 2t28 9t23.5 21.5t25 38.5l22 40h38
l-84 -275h-38l3 41q2 25 -0.5 39t-11 21t-23.5 8.5t-37 1.5h-114l-71 -229q-9 -28 -9.5 -44t8 -24t25.5 -10t44 -2h15q63 0 103 3t68.5 12.5t50.5 26.5t47 45l64 71h38l-116 -206h-598z" />
    <glyph glyph-name="uni0401" unicode="&#x415;" horiz-adv-x="716" 
d="M-17 40l42 3q18 1 29.5 4t19 10t13 19t11.5 32l166 542q6 19 8 31.5t-1.5 19t-13 9.5t-27.5 5l-40 3l12 40h262l289 2l-49 -191h-37l-1 50q-1 32 -7.5 50t-27 27t-59 11.5t-102.5 2.5h-42q-20 0 -26 -20l-85 -280h115q22 0 37.5 2t28 9t23.5 21.5t25 38.5l22 40h38
l-84 -275h-38l3 41q2 25 -0.5 39t-11 21t-23.5 8.5t-37 1.5h-114l-71 -229q-9 -28 -9.5 -44t8 -24t25.5 -10t44 -2h15q63 0 103 3t68.5 12.5t50.5 26.5t47 45l64 71h38l-116 -206h-598z" />
    <glyph glyph-name="uni0416" unicode="&#x416;" horiz-adv-x="1225" 
d="M-73 0l12 40l42 3q28 2 46.5 10.5t41.5 29.5l406 363l-92 160q-23 40 -40.5 61.5t-34.5 32t-35 12.5t-41 4l-22 2l12 40h282l-13 -40l-21 -1q-24 0 -36.5 -4.5t-14.5 -16t5.5 -31.5t24.5 -53l95 -189q12 -23 25 -31t31 -11l83 269q6 19 8 31.5t-1.5 19.5t-13 10t-27.5 4
l-40 3l12 40h316l-12 -40l-43 -3q-18 -1 -29.5 -4t-19.5 -10t-13 -19.5t-11 -31.5l-82 -267q19 3 36.5 12t40.5 30l215 187q42 36 64 56.5t29 31t0 13t-24 3.5l-40 2l12 40h285l-13 -40l-30 -2q-23 -2 -40.5 -4.5t-39.5 -13t-52.5 -32t-78.5 -60.5l-216 -174l184 -349
q11 -20 23 -29t38 -11l41 -3l-13 -40h-194l-174 348l-64 -2l-73 -238q-6 -20 -8 -32t1.5 -19t13 -10t26.5 -4l42 -3l-13 -40h-316l13 40l42 3q18 1 29.5 4t19 10t13 19t11.5 32l73 239l-64 3l-387 -350h-212z" />
    <glyph glyph-name="uni0416" unicode="&#x496;" horiz-adv-x="1225" 
d="M-73 0l12 40l42 3q28 2 46.5 10.5t41.5 29.5l406 363l-92 160q-23 40 -40.5 61.5t-34.5 32t-35 12.5t-41 4l-22 2l12 40h282l-13 -40l-21 -1q-24 0 -36.5 -4.5t-14.5 -16t5.5 -31.5t24.5 -53l95 -189q12 -23 25 -31t31 -11l83 269q6 19 8 31.5t-1.5 19.5t-13 10t-27.5 4
l-40 3l12 40h316l-12 -40l-43 -3q-18 -1 -29.5 -4t-19.5 -10t-13 -19.5t-11 -31.5l-82 -267q19 3 36.5 12t40.5 30l215 187q42 36 64 56.5t29 31t0 13t-24 3.5l-40 2l12 40h285l-13 -40l-30 -2q-23 -2 -40.5 -4.5t-39.5 -13t-52.5 -32t-78.5 -60.5l-216 -174l184 -349
q11 -20 23 -29t38 -11l41 -3l-13 -40h-194l-174 348l-64 -2l-73 -238q-6 -20 -8 -32t1.5 -19t13 -10t26.5 -4l42 -3l-13 -40h-316l13 40l42 3q18 1 29.5 4t19 10t13 19t11.5 32l73 239l-64 3l-387 -350h-212z" />
    <glyph glyph-name="uni0417" unicode="&#x417;" horiz-adv-x="687" 
d="M468 779q107 0 168 -42t61 -121q0 -45 -17.5 -80.5t-49 -61.5t-75.5 -42.5t-98 -22.5v-1q30 -5 61 -16.5t56.5 -31.5t41.5 -48.5t16 -65.5q0 -60 -27.5 -108t-76 -81.5t-115 -51.5t-143.5 -18q-78 0 -127.5 9.5t-82.5 23.5l14 187h36l25 -87q7 -26 19.5 -42t30.5 -25
t41.5 -12t52.5 -3q43 0 81.5 13.5t67.5 40t46.5 64t17.5 85.5q0 66 -37.5 103t-122.5 37h-67l16 48h67q50 0 90 13.5t68 38t43 58.5t15 75q0 54 -25.5 84.5t-81.5 30.5q-24 0 -44 -5t-40 -16.5t-41 -29.5t-48 -44l-83 -80h-37l101 183q40 13 95 27.5t108 14.5z" />
    <glyph glyph-name="uni0418" unicode="&#x418;" horiz-adv-x="918" 
d="M262 650q6 19 8 31.5t-1.5 19.5t-13 10t-27.5 4l-40 3l12 40h316l-12 -40l-43 -3q-18 -1 -29.5 -4t-19.5 -10t-13 -19.5t-11 -31.5l-137 -448l518 434l4 14q6 19 8 31.5t-1.5 19.5t-13.5 10t-28 4l-40 3l13 40h316l-13 -40l-43 -3q-18 -1 -29.5 -4t-19 -10t-13 -19.5
t-11.5 -32.5l-165 -541q-6 -20 -8 -32t1 -19t12.5 -10t27.5 -4l41 -3l-12 -40h-316l12 40l42 3q18 1 29.5 4t19.5 10t13.5 19t11.5 32l137 447l-517 -432l-5 -15q-6 -20 -8 -32t1 -19t12.5 -10t27.5 -4l42 -3l-13 -40h-316l13 40l42 3q18 1 29.5 4t19 10t13 19t11.5 32z" />
    <glyph glyph-name="uni0418" unicode="&#x4e2;" horiz-adv-x="918" 
d="M262 650q6 19 8 31.5t-1.5 19.5t-13 10t-27.5 4l-40 3l12 40h316l-12 -40l-43 -3q-18 -1 -29.5 -4t-19.5 -10t-13 -19.5t-11 -31.5l-137 -448l518 434l4 14q6 19 8 31.5t-1.5 19.5t-13.5 10t-28 4l-40 3l13 40h316l-13 -40l-43 -3q-18 -1 -29.5 -4t-19 -10t-13 -19.5
t-11.5 -32.5l-165 -541q-6 -20 -8 -32t1 -19t12.5 -10t27.5 -4l41 -3l-12 -40h-316l12 40l42 3q18 1 29.5 4t19.5 10t13.5 19t11.5 32l137 447l-517 -432l-5 -15q-6 -20 -8 -32t1 -19t12.5 -10t27.5 -4l42 -3l-13 -40h-316l13 40l42 3q18 1 29.5 4t19 10t13 19t11.5 32z" />
    <glyph glyph-name="uni0418" unicode="&#x419;" horiz-adv-x="918" 
d="M262 650q6 19 8 31.5t-1.5 19.5t-13 10t-27.5 4l-40 3l12 40h316l-12 -40l-43 -3q-18 -1 -29.5 -4t-19.5 -10t-13 -19.5t-11 -31.5l-137 -448l518 434l4 14q6 19 8 31.5t-1.5 19.5t-13.5 10t-28 4l-40 3l13 40h316l-13 -40l-43 -3q-18 -1 -29.5 -4t-19 -10t-13 -19.5
t-11.5 -32.5l-165 -541q-6 -20 -8 -32t1 -19t12.5 -10t27.5 -4l41 -3l-12 -40h-316l12 40l42 3q18 1 29.5 4t19.5 10t13.5 19t11.5 32l137 447l-517 -432l-5 -15q-6 -20 -8 -32t1 -19t12.5 -10t27.5 -4l42 -3l-13 -40h-316l13 40l42 3q18 1 29.5 4t19 10t13 19t11.5 32z" />
    <glyph glyph-name="uni040C" unicode="&#x40c;" horiz-adv-x="838" 
d="M368 349l-70 -3l-73 -238q-6 -20 -8 -32t1 -19t12.5 -10t27.5 -4l41 -3l-12 -40h-317l13 40l42 3q18 1 29.5 4t19 10t13 19t11.5 32l166 542q6 19 8 31.5t-1 19.5t-12.5 10t-27.5 4l-41 3l12 40h317l-13 -40l-42 -3q-18 -1 -29.5 -4t-19 -10t-13 -19.5t-11.5 -31.5
l-82 -267q20 3 37 12.5t44 29.5l245 187q44 34 66.5 54t28.5 31t-1.5 14.5t-24.5 4.5l-40 2l12 40h285l-13 -40l-30 -2q-23 -2 -40 -5.5t-39 -15t-52.5 -32.5t-79.5 -57l-242 -177l210 -346q12 -20 23.5 -29t37.5 -11l41 -3l-13 -40h-194z" />
    <glyph glyph-name="uni040C" unicode="&#x49a;" horiz-adv-x="838" 
d="M368 349l-70 -3l-73 -238q-6 -20 -8 -32t1 -19t12.5 -10t27.5 -4l41 -3l-12 -40h-317l13 40l42 3q18 1 29.5 4t19 10t13 19t11.5 32l166 542q6 19 8 31.5t-1 19.5t-12.5 10t-27.5 4l-41 3l12 40h317l-13 -40l-42 -3q-18 -1 -29.5 -4t-19 -10t-13 -19.5t-11.5 -31.5
l-82 -267q20 3 37 12.5t44 29.5l245 187q44 34 66.5 54t28.5 31t-1.5 14.5t-24.5 4.5l-40 2l12 40h285l-13 -40l-30 -2q-23 -2 -40 -5.5t-39 -15t-52.5 -32.5t-79.5 -57l-242 -177l210 -346q12 -20 23.5 -29t37.5 -11l41 -3l-13 -40h-194z" />
    <glyph glyph-name="uni040C" unicode="&#x41a;" horiz-adv-x="838" 
d="M368 349l-70 -3l-73 -238q-6 -20 -8 -32t1 -19t12.5 -10t27.5 -4l41 -3l-12 -40h-317l13 40l42 3q18 1 29.5 4t19 10t13 19t11.5 32l166 542q6 19 8 31.5t-1 19.5t-12.5 10t-27.5 4l-41 3l12 40h317l-13 -40l-42 -3q-18 -1 -29.5 -4t-19 -10t-13 -19.5t-11.5 -31.5
l-82 -267q20 3 37 12.5t44 29.5l245 187q44 34 66.5 54t28.5 31t-1.5 14.5t-24.5 4.5l-40 2l12 40h285l-13 -40l-30 -2q-23 -2 -40 -5.5t-39 -15t-52.5 -32.5t-79.5 -57l-242 -177l210 -346q12 -20 23.5 -29t37.5 -11l41 -3l-13 -40h-194z" />
    <glyph glyph-name="uni041B" unicode="&#x41b;" horiz-adv-x="823" 
d="M-33 41q0 14 6 28t18 25q24 3 54 7.5t62 18.5q13 6 28.5 17.5t33 33.5t37.5 58.5t44.5 93t52.5 136t62 188.5q7 24 10 37t-1 19.5t-15 8.5t-31 3l-36 2l13 41h627l-12 -40l-42 -3q-18 -1 -29.5 -4t-19 -9.5t-13 -19t-11.5 -31.5l-167 -543q-6 -20 -8 -32t1 -19t12.5 -10
t27.5 -4l42 -3l-13 -40h-316l12 40l43 3q18 1 29.5 4t19 10t13 19t11.5 32l177 580q4 12 2 17t-16 5h-215q-18 0 -25 -21q-62 -203 -116.5 -337.5t-104 -215t-96 -113.5t-92.5 -33q-29 0 -44 14t-15 37z" />
    <glyph glyph-name="uni041C" unicode="&#x41c;" horiz-adv-x="1059" 
d="M322 623l-128 -388q-22 -67 -32.5 -104.5t-9.5 -56.5t11.5 -24t30.5 -7l35 -3l-12 -40h-265l12 40l38 3q22 2 37 7t28.5 23.5t29 56.5t39.5 105l146 416q14 41 7 51.5t-39 12.5l-41 3l12 40h209l81 -571l410 571h224l-12 -40l-44 -3q-17 -1 -28 -3.5t-19 -9t-13.5 -18.5
t-10.5 -33l-139 -543q-5 -20 -6.5 -32t1.5 -18.5t12.5 -10t27.5 -4.5l40 -3l-12 -40h-316l12 40l43 3q18 1 30 4t19.5 10t12.5 19t10 32l132 512l-455 -629h-17z" />
    <glyph glyph-name="uni041D" unicode="&#x41d;" horiz-adv-x="926" 
d="M264 650q6 19 8 31.5t-1 19.5t-12.5 10t-27.5 4l-41 3l12 40h317l-13 -40l-42 -3q-18 -1 -29.5 -4t-19 -10t-13 -19.5t-11.5 -31.5l-73 -239h390l73 239q6 19 8 31.5t-1 19.5t-12.5 10t-27.5 4l-42 3l13 40h316l-12 -40l-43 -3q-18 -1 -29.5 -4t-19 -10t-13 -19.5
t-11.5 -31.5l-166 -542q-6 -20 -8 -32t1 -19t12.5 -10t27.5 -4l41 -3l-12 -40h-316l12 40l42 3q18 1 30 4t19.5 10t13 19t11.5 32l76 248h-390l-76 -248q-6 -20 -8 -32t1 -19t12.5 -10t27.5 -4l41 -3l-12 -40h-317l13 40l42 3q18 1 29.5 4t19 10t13 19t11.5 32z" />
    <glyph glyph-name="uni041D" unicode="&#x4a2;" horiz-adv-x="926" 
d="M264 650q6 19 8 31.5t-1 19.5t-12.5 10t-27.5 4l-41 3l12 40h317l-13 -40l-42 -3q-18 -1 -29.5 -4t-19 -10t-13 -19.5t-11.5 -31.5l-73 -239h390l73 239q6 19 8 31.5t-1 19.5t-12.5 10t-27.5 4l-42 3l13 40h316l-12 -40l-43 -3q-18 -1 -29.5 -4t-19 -10t-13 -19.5
t-11.5 -31.5l-166 -542q-6 -20 -8 -32t1 -19t12.5 -10t27.5 -4l41 -3l-12 -40h-316l12 40l42 3q18 1 30 4t19.5 10t13 19t11.5 32l76 248h-390l-76 -248q-6 -20 -8 -32t1 -19t12.5 -10t27.5 -4l41 -3l-12 -40h-317l13 40l42 3q18 1 29.5 4t19 10t13 19t11.5 32z" />
    <glyph glyph-name="uni041E" unicode="&#x41e;" 
d="M403 -13q-70 0 -129.5 23t-102.5 64.5t-67 100.5t-24 131q0 58 16.5 115.5t47 110t73.5 97.5t95.5 78.5t113 52.5t127.5 19q70 0 129.5 -23t102.5 -64.5t67.5 -100.5t24.5 -131q0 -87 -36.5 -171.5t-100.5 -151.5t-150.5 -108.5t-186.5 -41.5zM408 37q55 0 101 21.5
t82.5 57.5t64 83t45.5 98t27 103.5t9 98.5q0 117 -51.5 173.5t-136.5 56.5q-55 0 -101 -21.5t-82.5 -57.5t-64 -83t-45.5 -98t-27 -103.5t-9 -98.5q0 -117 51 -173.5t137 -56.5z" />
    <glyph glyph-name="uni041F" unicode="&#x41f;" horiz-adv-x="903" 
d="M769 688q4 12 2 17t-16 5h-330q-20 0 -26 -20l-178 -582q-6 -20 -8 -32t1 -19t12.5 -10t27.5 -4l42 -3l-13 -40h-316l12 40l43 3q18 1 29.5 4t19 10t13 19t11.5 32l166 542q6 19 8 31.5t-1.5 19.5t-13 10t-27.5 4l-40 3l12 40h813l-13 -40l-43 -3q-18 -1 -29.5 -4
t-19 -10t-12.5 -19.5t-11 -31.5l-166 -542q-13 -39 -7.5 -51t40.5 -14l41 -3l-12 -40h-317l13 40l42 3q18 1 29.5 4t19 10t13 19t11.5 32z" />
    <glyph glyph-name="uni0420" unicode="&#x420;" horiz-adv-x="684" 
d="M-17 40l42 3q18 1 29.5 4t19 10t13 19t11.5 32l166 542q6 19 8 31.5t-1 19.5t-12.5 10t-27.5 4l-41 3l12 40h283q55 0 104 -9t85.5 -29t57.5 -52.5t21 -79.5q0 -50 -23 -95.5t-69.5 -81t-116.5 -56.5t-164 -21h-39l13 43h31q61 0 104 19.5t70.5 50t40 68t12.5 74.5
q0 66 -38.5 94.5t-112.5 28.5q-32 0 -43.5 -3.5t-15.5 -19.5l-177 -581q-6 -20 -8 -32.5t1.5 -19t15 -9t32.5 -3.5l53 -2l-12 -42h-337z" />
    <glyph glyph-name="uni0421" unicode="&#x421;" horiz-adv-x="788" 
d="M413 -13q-73 0 -134.5 21.5t-106.5 61.5t-70 97.5t-25 128.5q0 69 20.5 131.5t57.5 116t87.5 97t110 74.5t125.5 47.5t134 16.5q63 0 119 -8.5t94 -24.5l-14 -187h-36l-23 80q-15 52 -55 70t-101 18q-68 0 -136 -28.5t-122 -84t-87.5 -137t-33.5 -186.5q0 -65 17 -112.5
t47 -78.5t71.5 -46t89.5 -15q32 0 57.5 6t49 18.5t46 31t48.5 43.5l77 74h36l-101 -183q-50 -17 -108.5 -29.5t-133.5 -12.5z" />
    <glyph glyph-name="uni0422" unicode="&#x422;" horiz-adv-x="742" 
d="M135 42l50 3q21 1 34 4t21 9.5t14 19t12 33.5l183 599h-19q-61 0 -100 -2.5t-65.5 -11.5t-45.5 -27.5t-39 -49.5l-32 -50h-37l83 223h11q11 -11 22 -18t32.5 -10.5t59 -4.5t100.5 -1h216q63 0 101 1t61.5 4.5t39 10.5t33.5 18h10l-53 -223h-37l-1 50q-1 32 -8.5 50
t-28.5 27t-59 11.5t-99 2.5h-19l-183 -599q-6 -21 -8.5 -33.5t1.5 -19t15.5 -9.5t31.5 -4l50 -3l-14 -42h-346z" />
    <glyph glyph-name="uni040E" unicode="&#x40e;" horiz-adv-x="774" 
d="M549 357q-66 -77 -114.5 -135t-85 -99t-63.5 -67.5t-49.5 -41.5t-43.5 -21t-45 -6q-30 0 -46 14t-16 38q0 13 5.5 27t17.5 25q17 1 37 2t39 3t35 4.5t26 6.5q15 6 35 25t49 48l-103 467q-5 21 -9.5 34t-10.5 20t-14.5 10t-20.5 4l-29 3l12 40h311l-12 -40l-50 -3
q-15 -1 -25 -4t-15.5 -10.5t-5.5 -21.5t5 -36l73 -343l264 315q24 28 34.5 46.5t10.5 29t-10 15.5t-28 7l-42 5l13 40h256l-12 -40l-24 -3q-16 -2 -28 -6t-26 -15t-32.5 -30t-45.5 -51z" />
    <glyph glyph-name="uni040E" unicode="&#x4ee;" horiz-adv-x="774" 
d="M549 357q-66 -77 -114.5 -135t-85 -99t-63.5 -67.5t-49.5 -41.5t-43.5 -21t-45 -6q-30 0 -46 14t-16 38q0 13 5.5 27t17.5 25q17 1 37 2t39 3t35 4.5t26 6.5q15 6 35 25t49 48l-103 467q-5 21 -9.5 34t-10.5 20t-14.5 10t-20.5 4l-29 3l12 40h311l-12 -40l-50 -3
q-15 -1 -25 -4t-15.5 -10.5t-5.5 -21.5t5 -36l73 -343l264 315q24 28 34.5 46.5t10.5 29t-10 15.5t-28 7l-42 5l13 40h256l-12 -40l-24 -3q-16 -2 -28 -6t-26 -15t-32.5 -30t-45.5 -51z" />
    <glyph glyph-name="uni040E" unicode="&#x423;" horiz-adv-x="774" 
d="M549 357q-66 -77 -114.5 -135t-85 -99t-63.5 -67.5t-49.5 -41.5t-43.5 -21t-45 -6q-30 0 -46 14t-16 38q0 13 5.5 27t17.5 25q17 1 37 2t39 3t35 4.5t26 6.5q15 6 35 25t49 48l-103 467q-5 21 -9.5 34t-10.5 20t-14.5 10t-20.5 4l-29 3l12 40h311l-12 -40l-50 -3
q-15 -1 -25 -4t-15.5 -10.5t-5.5 -21.5t5 -36l73 -343l264 315q24 28 34.5 46.5t10.5 29t-10 15.5t-28 7l-42 5l13 40h256l-12 -40l-24 -3q-16 -2 -28 -6t-26 -15t-32.5 -30t-45.5 -51z" />
    <glyph glyph-name="uni0424" unicode="&#x424;" horiz-adv-x="975" 
d="M566 -21h-316l12 40l43 3q18 1 29.5 4t19 10t13 19t11.5 32l2 7q-145 8 -225.5 68t-80.5 164q0 74 36 136t100 107t153 71.5t194 31.5q12 38 7 50t-40 14l-41 3l12 40h316l-12 -40l-43 -3q-18 -1 -29.5 -4t-19 -10t-13 -19t-11.5 -31q146 -8 226.5 -68t80.5 -164
q0 -74 -36 -136t-100.5 -107t-153.5 -72t-194 -31l-2 -7q-6 -20 -8 -32t1 -19t12.5 -10t27.5 -4l41 -3zM219 331q0 -84 44.5 -130t132.5 -57l147 480q-78 -4 -138.5 -28t-101.5 -63t-62.5 -91t-21.5 -111zM845 435q0 84 -44.5 130t-132.5 57l-147 -480q78 4 138.5 28
t101.5 63t62.5 91t21.5 111z" />
    <glyph glyph-name="uni0425" unicode="&#x425;" horiz-adv-x="828" 
d="M-71 40l39 3q18 1 34 7t37.5 20t52.5 40t79 68l237 206l-133 295q-8 17 -18 25.5t-35 10.5l-35 3l13 40h311l-13 -40l-46 -4q-30 -2 -40 -11t0 -31l94 -207l130 124q39 38 63.5 62t34.5 38t4.5 20t-25.5 7l-40 2l13 40h274l-12 -40l-40 -3q-18 -2 -34 -7t-37.5 -19.5
t-52.5 -40t-79 -68.5l-179 -160l154 -341q8 -17 17.5 -25.5t35.5 -10.5l34 -3l-12 -40h-312l13 40l47 4q29 2 39 11t0 31l-114 252l-184 -169q-40 -37 -65 -61t-34.5 -38t-4.5 -20.5t25 -7.5l41 -2l-13 -40h-277z" />
    <glyph glyph-name="uni0425" unicode="&#x4b2;" horiz-adv-x="828" 
d="M-71 40l39 3q18 1 34 7t37.5 20t52.5 40t79 68l237 206l-133 295q-8 17 -18 25.5t-35 10.5l-35 3l13 40h311l-13 -40l-46 -4q-30 -2 -40 -11t0 -31l94 -207l130 124q39 38 63.5 62t34.5 38t4.5 20t-25.5 7l-40 2l13 40h274l-12 -40l-40 -3q-18 -2 -34 -7t-37.5 -19.5
t-52.5 -40t-79 -68.5l-179 -160l154 -341q8 -17 17.5 -25.5t35.5 -10.5l34 -3l-12 -40h-312l13 40l47 4q29 2 39 11t0 31l-114 252l-184 -169q-40 -37 -65 -61t-34.5 -38t-4.5 -20.5t25 -7.5l41 -2l-13 -40h-277z" />
    <glyph glyph-name="uni0426" unicode="&#x426;" horiz-adv-x="902" 
d="M747 -159h-37l2 65q1 34 -4.5 53t-26 28t-59 11t-103.5 2h-552l12 40l43 3q18 1 29.5 4t19 10t13 19t11.5 32l165 542q6 19 8 31.5t-1 19.5t-12.5 10t-27.5 4l-41 3l12 40h316l-12 -40l-42 -3q-18 -1 -30 -4t-19.5 -10t-13 -19.5t-11.5 -31.5l-169 -554q-8 -28 -1 -38
t42 -10h259q34 0 48 10t22 38l169 554q13 39 7.5 51t-40.5 14l-40 3l11 40h317l-12 -40l-43 -3q-18 -1 -29.5 -4t-19 -10t-13 -19.5t-11.5 -31.5l-165 -542q-12 -38 -5.5 -49t44.5 -11h45z" />
    <glyph glyph-name="uni0427" unicode="&#x427;" horiz-adv-x="849" 
d="M240 650q12 38 6 50t-44 15l-36 2l12 41h317l-13 -41l-38 -2q-20 -2 -32.5 -5t-20.5 -10t-13.5 -19.5t-11.5 -31.5l-23 -77q-33 -107 -7 -156.5t125 -49.5q54 0 91.5 4.5t69.5 12.5l81 267q6 19 8 31.5t-1 19.5t-13 10t-28 4l-40 3l13 40h316l-13 -40l-43 -3
q-18 -1 -29.5 -4t-19 -10t-12.5 -19.5t-11 -31.5l-166 -542q-13 -39 -7.5 -51t40.5 -14l41 -3l-12 -40h-316l12 40l42 3q18 1 29.5 4t19.5 10t13.5 19t11.5 32l67 221q-36 -8 -75 -13t-93 -5q-154 0 -208 64.5t-13 197.5z" />
    <glyph glyph-name="uni0427" unicode="&#x4b6;" horiz-adv-x="849" 
d="M240 650q12 38 6 50t-44 15l-36 2l12 41h317l-13 -41l-38 -2q-20 -2 -32.5 -5t-20.5 -10t-13.5 -19.5t-11.5 -31.5l-23 -77q-33 -107 -7 -156.5t125 -49.5q54 0 91.5 4.5t69.5 12.5l81 267q6 19 8 31.5t-1 19.5t-13 10t-28 4l-40 3l13 40h316l-13 -40l-43 -3
q-18 -1 -29.5 -4t-19 -10t-12.5 -19.5t-11 -31.5l-166 -542q-13 -39 -7.5 -51t40.5 -14l41 -3l-12 -40h-316l12 40l42 3q18 1 29.5 4t19.5 10t13.5 19t11.5 32l67 221q-36 -8 -75 -13t-93 -5q-154 0 -208 64.5t-13 197.5z" />
    <glyph glyph-name="uni0428" unicode="&#x428;" horiz-adv-x="1224" 
d="M1101 0h-1134l12 40l43 3q18 1 29.5 4t19 10t13 19t11.5 32l166 542q6 19 8 31.5t-1.5 19.5t-13 10t-27.5 4l-40 3l12 40h316l-12 -40l-43 -3q-18 -1 -29.5 -4t-19.5 -10t-13 -19.5t-11 -31.5l-165 -539q-11 -37 -1 -50t52 -13h212l185 602q6 19 8 31.5t-1.5 19.5t-13 10
t-27.5 4l-41 3l13 40h316l-13 -40l-43 -3q-18 -1 -29.5 -4t-19 -10t-12.5 -19.5t-11 -31.5l-185 -602h214q42 0 59.5 13t28.5 50l165 539q6 19 8 31.5t-1 19.5t-13 10t-28 4l-40 3l12 40h317l-13 -40l-43 -3q-18 -1 -29.5 -4t-19 -10t-12.5 -19.5t-11 -31.5l-166 -542
q-13 -39 -7.5 -51t40.5 -14l41 -3z" />
    <glyph glyph-name="uni0428" unicode="&#x429;" horiz-adv-x="1224" 
d="M1101 0h-1134l12 40l43 3q18 1 29.5 4t19 10t13 19t11.5 32l166 542q6 19 8 31.5t-1.5 19.5t-13 10t-27.5 4l-40 3l12 40h316l-12 -40l-43 -3q-18 -1 -29.5 -4t-19.5 -10t-13 -19.5t-11 -31.5l-165 -539q-11 -37 -1 -50t52 -13h212l185 602q6 19 8 31.5t-1.5 19.5t-13 10
t-27.5 4l-41 3l13 40h316l-13 -40l-43 -3q-18 -1 -29.5 -4t-19 -10t-12.5 -19.5t-11 -31.5l-185 -602h214q42 0 59.5 13t28.5 50l165 539q6 19 8 31.5t-1 19.5t-13 10t-28 4l-40 3l12 40h317l-13 -40l-43 -3q-18 -1 -29.5 -4t-19 -10t-12.5 -19.5t-11 -31.5l-166 -542
q-13 -39 -7.5 -51t40.5 -14l41 -3z" />
    <glyph glyph-name="uni042A" unicode="&#x42a;" horiz-adv-x="847" 
d="M516 442q146 0 220.5 -47.5t74.5 -141.5q0 -54 -25.5 -100.5t-76 -80t-124 -53t-169.5 -19.5h-317l12 40l43 3q17 1 28.5 4t19 9.5t13.5 19t12 32.5l184 601q-46 -1 -76.5 -4.5t-52 -13.5t-37.5 -27t-34 -45l-31 -50h-39l68 191l293 -2h145l-12 -40l-44 -3
q-18 -1 -29.5 -4t-19 -10t-12.5 -19.5t-11 -31.5l-64 -208h61zM354 111q-13 -41 -1 -53.5t57 -12.5q66 0 115 15.5t81.5 43.5t48.5 65.5t16 81.5q0 35 -9.5 61t-31.5 43t-58.5 25.5t-89.5 8.5h-43z" />
    <glyph glyph-name="uni042B" unicode="&#x42b;" horiz-adv-x="1064" 
d="M517 758l-13 -40l-43 -3q-18 -1 -29.5 -4t-19 -10t-12.5 -19.5t-11 -31.5l-64 -208h60q147 0 221.5 -47.5t74.5 -141.5q0 -54 -25.5 -100.5t-76 -80t-124.5 -53t-170 -19.5h-316l12 40l43 3q17 1 28.5 4t19 9.5t13.5 19t12 32.5l165 542q6 20 8 32t-1.5 19t-13.5 9.5
t-28 4.5l-39 3l13 40h316zM224 111q-13 -41 -1 -53.5t56 -12.5q66 0 115 15.5t81.5 43.5t49 65.5t16.5 81.5q0 34 -9.5 60t-32 43.5t-58.5 26t-89 8.5h-43zM919 650q6 19 8 31.5t-1 19.5t-12.5 10t-27.5 4l-41 3l12 40h317l-13 -40l-42 -3q-18 -1 -29.5 -4t-19 -10
t-13 -19.5t-11.5 -31.5l-166 -542q-6 -20 -8 -32t1 -19t12.5 -10t27.5 -4l41 -3l-12 -40h-317l13 40l42 3q18 1 29.5 4t19 10t13 19t11.5 32z" />
    <glyph glyph-name="uni042C" unicode="&#x42c;" horiz-adv-x="714" 
d="M515 758l-13 -40l-43 -3q-18 -1 -29.5 -4t-19 -10t-12.5 -19.5t-11 -31.5l-64 -208h60q147 0 221.5 -47.5t74.5 -141.5q0 -54 -25.5 -100.5t-76 -80t-124.5 -53t-170 -19.5h-316l12 40l43 3q17 1 28.5 4t19 9.5t13.5 19t12 32.5l165 542q6 20 8 32t-1.5 19t-13.5 9.5
t-28 4.5l-39 3l13 40h316zM222 111q-13 -41 -1 -53.5t56 -12.5q66 0 115 15.5t81.5 43.5t49 65.5t16.5 81.5q0 34 -9.5 60t-32 43.5t-58.5 26t-89 8.5h-43z" />
    <glyph glyph-name="uni042D" unicode="&#x42d;" horiz-adv-x="795" 
d="M468 779q72 0 132 -21.5t103.5 -61.5t68 -97.5t24.5 -128.5q0 -109 -42.5 -198t-114.5 -152.5t-167 -98t-199 -34.5q-66 0 -121 9t-93 24l12 196h33l25 -89q7 -26 19 -43t30 -27t42.5 -14t55.5 -4q64 0 124 19.5t109 58.5t84.5 98.5t51.5 139.5h-201q-22 0 -37.5 -1.5
t-28.5 -8.5t-24.5 -21t-24.5 -39l-21 -41h-39l85 275h38l-3 -38q-2 -26 0.5 -40.5t10.5 -21.5t22.5 -9t37.5 -2h193q3 31 3 67q0 65 -16 112.5t-44 78.5t-66 46t-81 15q-30 0 -55.5 -6t-48.5 -18t-46.5 -30.5t-48.5 -43.5l-77 -75h-36l101 183q46 15 103.5 28.5t126.5 13.5z
" />
    <glyph glyph-name="uni042E" unicode="&#x42e;" horiz-adv-x="1196" 
d="M262 650q6 19 8 31.5t-1.5 19.5t-13 10t-27.5 4l-40 3l12 40h316l-12 -40l-43 -3q-18 -1 -30 -4t-19.5 -10t-12.5 -19.5t-11 -31.5l-73 -239h120q19 73 60.5 139.5t100.5 117.5t132.5 81t156.5 30q68 0 125.5 -23t99 -64.5t65 -100.5t23.5 -131q0 -87 -36 -171.5
t-98 -151.5t-147 -108.5t-182 -41.5q-68 0 -125.5 23t-99 64.5t-65 100.5t-23.5 131q0 24 3 50h-127l-76 -248q-6 -20 -8 -32t1 -19t12.5 -10t27.5 -4l42 -3l-13 -40h-316l13 40l42 3q18 1 29.5 4t19 10t13 19t11.5 32zM739 37q54 0 98.5 21.5t80 57.5t62 83t44 98
t26.5 103.5t9 98.5q0 117 -49 173.5t-129 56.5q-54 0 -98.5 -21.5t-80 -57.5t-62 -83t-44 -98t-26.5 -103.5t-9 -98.5q0 -117 49 -173.5t129 -56.5z" />
    <glyph glyph-name="uni042F" unicode="&#x42f;" horiz-adv-x="815" 
d="M492 344l-331 -344h-203l12 40l25 2q24 2 48.5 13.5t56.5 44.5l261 263q-69 15 -100 53t-31 87q0 55 29.5 101.5t81.5 80.5t123 53.5t153 19.5h307l-12 -40l-43 -3q-18 -1 -29 -4t-19 -10t-13.5 -19t-11.5 -32l-166 -543q-6 -20 -8 -32t2 -19t13.5 -9.5t25.5 -3.5l42 -3
l-13 -40h-331l13 42l49 2q20 1 33 3t21.5 8.5t14.5 18.5t12 33l72 237h-84zM682 689q2 7 1 11.5t-8 7t-22 3t-40 0.5q-60 0 -105 -15t-76 -42.5t-46.5 -66t-15.5 -84.5q0 -50 32.5 -82t111.5 -32q17 0 37.5 0.5t39.5 2.5z" />
    <glyph glyph-name="uni0402" unicode="&#x402;" horiz-adv-x="900" 
d="M128 42l50 3q20 1 33 3.5t21.5 9.5t14 19.5t11.5 33.5l184 599h-16q-55 0 -91.5 -2.5t-62.5 -11.5t-45 -26.5t-38 -48.5l-32 -52h-37l83 223h10q10 -11 21.5 -17.5t32.5 -10.5t54.5 -5t89.5 -1h234q55 0 90.5 1t59 4.5t39.5 10.5t34 18h10l-53 -223h-37l-1 52
q0 29 -7 46.5t-26.5 27t-55 12.5t-94.5 3h-36l-99 -324q26 16 56 30.5t54 24.5q23 10 57 17.5t73 7.5q48 0 84.5 -16.5t57.5 -47.5t24 -76t-15 -103l-12 -38q-11 -34 -22.5 -58t-27 -43t-36 -36t-48.5 -36q-15 -11 -38 -25t-49.5 -30t-53.5 -31.5t-50 -28.5l-16 32
q51 34 85.5 61.5t59 56t41 61.5t30.5 80l12 38q12 39 13 69.5t-10.5 52t-38 32.5t-70.5 11q-54 0 -100 -16.5t-75 -39.5l-69 -224q-7 -22 -8.5 -34.5t3 -19.5t15.5 -9t30 -3l39 -3l-14 -42h-336z" />
    <glyph glyph-name="uni0404" unicode="&#x404;" horiz-adv-x="788" 
d="M413 -13q-73 0 -134.5 21.5t-106.5 61.5t-70 97.5t-25 128.5q0 69 20.5 131.5t57.5 116t87.5 97t110 74.5t125.5 47.5t134 16.5q63 0 119 -8.5t94 -24.5l-14 -187h-36l-23 80q-15 52 -55 70t-101 18q-58 0 -115.5 -20.5t-107.5 -60.5t-87.5 -99t-55.5 -136h199
q22 0 37.5 1.5t28.5 8.5t24 21t25 39l21 41h39l-85 -275h-38l3 38q2 25 -0.5 40t-10.5 22t-23 9t-37 2h-192q-2 -17 -3 -33.5t-1 -33.5q0 -65 17 -112.5t47 -78.5t71.5 -46t89.5 -15q32 0 57.5 6t49 18.5t46 31t48.5 43.5l77 74h36l-101 -183q-50 -17 -108.5 -29.5
t-133.5 -12.5z" />
    <glyph glyph-name="uni0405" unicode="&#x405;" horiz-adv-x="594" 
d="M194 -13q-52 0 -101 15.5t-81 33.5l35 214h34l19 -136q2 -17 7 -30t14 -22q15 -14 40.5 -19t57.5 -5q37 0 70.5 11t58 31.5t39 49t14.5 63.5q0 39 -18 70t-53 63l-61 57q-42 40 -61.5 79t-19.5 85q0 48 22.5 90.5t62.5 74t96 49.5t122 18q52 0 92 -9.5t71 -20.5l-38 -181
h-33l-11 83q-4 26 -11.5 41t-22.5 23q-28 14 -71 14q-36 0 -66.5 -10t-52 -28t-33.5 -42.5t-12 -53.5q0 -28 11.5 -54.5t38.5 -52.5l61 -58q23 -22 43 -42.5t34.5 -43t23 -48.5t8.5 -59q0 -52 -23.5 -97.5t-66.5 -79.5t-104 -53.5t-135 -19.5z" />
    <glyph glyph-name="uni0406" unicode="&#x406;" horiz-adv-x="409" 
d="M264 650q6 19 8 31.5t-1 19.5t-12.5 10t-27.5 4l-41 3l12 40h317l-13 -40l-42 -3q-18 -1 -29.5 -4t-19 -10t-13 -19.5t-11.5 -31.5l-166 -542q-6 -20 -8 -32t1 -19t12.5 -10t27.5 -4l41 -3l-12 -40h-317l13 40l42 3q18 1 29.5 4t19 10t13 19t11.5 32z" />
    <glyph glyph-name="uni0406" unicode="&#x407;" horiz-adv-x="409" 
d="M264 650q6 19 8 31.5t-1 19.5t-12.5 10t-27.5 4l-41 3l12 40h317l-13 -40l-42 -3q-18 -1 -29.5 -4t-19 -10t-13 -19.5t-11.5 -31.5l-166 -542q-6 -20 -8 -32t1 -19t12.5 -10t27.5 -4l41 -3l-12 -40h-317l13 40l42 3q18 1 29.5 4t19 10t13 19t11.5 32z" />
    <glyph glyph-name="uni0408" unicode="&#x408;" horiz-adv-x="403" 
d="M-88 -70q49 34 84 60.5t60.5 54.5t43.5 63t34 86l139 456q6 19 8 31.5t-1 19.5t-12.5 10t-27.5 4l-41 3l12 40h316l-12 -40l-42 -3q-18 -1 -30 -4t-19.5 -10t-13 -19.5t-11.5 -31.5l-134 -442q-12 -39 -25 -67.5t-29.5 -51t-38.5 -41t-50 -37.5q-17 -11 -39.5 -25.5
t-48 -30t-52 -31t-50.5 -29.5z" />
    <glyph glyph-name="uni0409" unicode="&#x409;" horiz-adv-x="1108" 
d="M907 758l-12 -40l-42 -3q-18 -1 -29 -4t-19 -9.5t-13.5 -19t-11.5 -31.5l-64 -208h61q146 0 220.5 -47t74.5 -141q0 -54 -25.5 -100.5t-76 -80.5t-124 -53.5t-169.5 -19.5h-317l12 41l43 3q17 1 28.5 3.5t19 9.5t13.5 19t12 33l179 590q3 10 -17 10h-190q-18 0 -25 -21
q-62 -203 -116.5 -337.5t-104 -215t-96 -113.5t-92.5 -33q-29 0 -44 14t-15 37q0 14 6 28t18 25q24 3 54 7.5t62 18.5q13 6 28.5 17.5t33 33.5t37.5 58.5t44.5 93t52.5 136t62 188.5q7 24 10 37t-1 19.5t-15 8.5t-31 3l-36 2l13 41h602zM615 113q-13 -41 -1 -54t57 -13
q66 0 115 15.5t81.5 43.5t48.5 65.5t16 81.5q0 35 -9.5 61t-31.5 43t-58.5 25.5t-89.5 8.5h-43z" />
    <glyph glyph-name="uni040A" unicode="&#x40a;" horiz-adv-x="1182" 
d="M261 650q6 19 8 31.5t-1 19.5t-13 10t-28 4l-40 3l12 40h316l-12 -40l-43 -3q-18 -1 -29.5 -4t-19.5 -10t-13 -19.5t-11 -31.5l-68 -221h345l68 221q6 20 7.5 32t-2 19t-13.5 9.5t-28 4.5l-39 3l13 40h316l-13 -40l-43 -3q-18 -1 -29.5 -4t-19 -10.5t-12.5 -19.5t-11 -31
l-68 -221h60q146 0 221 -45.5t75 -136.5q0 -53 -25.5 -98t-75 -78t-123 -52t-168.5 -19h-316l12 40l43 3q17 1 28.5 4t19 9.5t13.5 19t12 32.5l82 268h-345l-82 -268q-6 -20 -8 -32t1 -19t12.5 -10t27.5 -4l42 -3l-13 -40h-316l12 40l43 3q18 1 29.5 4t19 10t13 19t11.5 32z
M693 111q-12 -41 -0.5 -53.5t55.5 -12.5q65 0 113.5 15t80.5 42t48 63.5t16 78.5q0 34 -9.5 58.5t-32 41t-58.5 24.5t-89 8h-43z" />
    <glyph glyph-name="uni040B" unicode="&#x40b;" horiz-adv-x="980" 
d="M135 42l51 3q20 1 33 3.5t21 9.5t14 19.5t12 33.5l183 599h-5q-56 0 -92.5 -2.5t-62.5 -11.5t-44.5 -26.5t-37.5 -48.5l-33 -52h-37l82 223h11q10 -11 22 -17.5t32.5 -10.5t54.5 -5t90 -1h234q55 0 90 1t58.5 4.5t39.5 10.5t33 18h11l-53 -223h-37l-1 52q0 29 -7 46.5
t-26.5 27t-55 12.5t-94.5 3h-46l-99 -324q26 16 55 30.5t51 22.5q26 11 61 19t73 8q47 0 84 -14t58 -44t24.5 -77t-16.5 -113l-32 -106q-7 -22 -9.5 -35t0.5 -20t12 -9.5t25 -3.5l46 -3l-12 -41h-223l66 218q13 41 15 73.5t-9.5 54.5t-38.5 33.5t-73 11.5q-51 0 -97 -16
t-75 -40l-69 -224q-7 -22 -8.5 -35t3 -19.5t15.5 -8.5t31 -3l53 -3l-13 -42h-351z" />
    <glyph glyph-name="uni040F" unicode="&#x40f;" horiz-adv-x="891" 
d="M311 -90q4 30 2.5 47.5t-17 27t-47.5 12.5t-87 3h-195l12 40l43 3q18 1 29.5 4t19 10t13 19t11.5 32l165 542q6 19 8 31.5t-1 19.5t-12.5 10t-27.5 4l-41 3l12 40h316l-12 -40l-42 -3q-18 -1 -30 -4t-19.5 -10t-13 -19.5t-11.5 -31.5l-164 -539q-11 -37 -1.5 -50
t51.5 -13h221q21 0 35.5 3t24.5 10t16.5 19.5t11.5 30.5l165 539q6 19 8 31.5t-1 19.5t-12.5 10t-27.5 4l-41 3l12 40h316l-12 -40l-43 -3q-18 -1 -29.5 -4t-19 -10t-13 -19.5t-11.5 -31.5l-165 -542q-6 -20 -8 -32t1 -19t12.5 -10t27.5 -4l41 -3l-12 -40h-194q-56 0 -90 -3
t-55.5 -12.5t-34.5 -27t-26 -47.5l-30 -69h-39z" />
    <glyph glyph-name="uni0490" unicode="&#x490;" horiz-adv-x="636" 
d="M501 758q60 0 99 2t65.5 11t44 27t35.5 50l35 61h38l-70 -199h-323q-20 0 -26 -20l-178 -582q-6 -21 -8 -33.5t2 -19.5t14.5 -9t28.5 -2l60 -3l-12 -41h-339l12 40l43 3q18 1 29 4t18.5 9.5t13.5 19t12 32.5l166 542q6 20 8 32t-1.5 19t-13.5 9.5t-28 4.5l-39 3l12 40
h302z" />
    <glyph glyph-name="uni0462" unicode="&#x462;" horiz-adv-x="821" 
d="M632 758l-13 -40l-43 -3q-18 -1 -29.5 -4t-19 -10t-13 -19.5t-11.5 -31.5l-7 -22h14q59 0 95.5 1t59.5 5t38.5 10.5t32.5 17.5h10l-54 -223h-38l-2 50q0 31 -6 49.5t-24.5 27.5t-52 11.5t-87.5 2.5l-65 -211h93q276 0 276 -160q0 -47 -29 -85.5t-80.5 -66t-122.5 -42.5
t-156 -15h-316l12 40l44 3q17 1 28 4t19 9.5t13.5 19t12.5 32.5l145 472q-55 0 -90.5 -2.5t-59.5 -12t-41.5 -27.5t-36.5 -49l-31 -50h-39l83 223h11q10 -11 21.5 -17.5t32.5 -10.5t56.5 -5t94.5 -1h13l7 22q6 20 8 32t-1.5 19t-13.5 9.5t-28 4.5l-39 3l13 40h316zM339 116
q-14 -43 0.5 -57t60.5 -14q124 0 184 44.5t60 116.5q0 27 -9.5 47.5t-32.5 34.5t-61 21t-95 7h-46z" />
    <glyph glyph-name="uni0472" unicode="&#x472;" 
d="M403 -13q-70 0 -129.5 23t-102.5 64.5t-67 100.5t-24 131q0 58 16.5 115.5t47 110t73.5 97.5t95.5 78.5t113 52.5t127.5 19q70 0 129.5 -23t102.5 -64.5t67.5 -100.5t24.5 -131q0 -87 -36.5 -171.5t-100.5 -151.5t-150.5 -108.5t-186.5 -41.5zM408 37q63 0 114 28t90 73
t65.5 103t41.5 118q-65 -31 -112.5 -37.5t-85.5 -0.5t-69.5 19t-64.5 23.5t-71 12t-88 -15.5q-4 -25 -6 -48t-2 -45q0 -117 51 -173.5t137 -56.5zM236 401q77 33 133.5 42.5t99.5 4.5t75 -18t61 -24.5t57.5 -16.5t64.5 8q5 27 7.5 52.5t2.5 49.5q0 117 -51.5 173.5
t-136.5 56.5q-65 0 -116.5 -28.5t-90.5 -75t-65.5 -105.5t-40.5 -119z" />
    <glyph glyph-name="uni0474" unicode="&#x474;" horiz-adv-x="781" 
d="M715 630q56 76 98 112.5t90 36.5q31 0 46 -15t15 -37q0 -13 -5.5 -27.5t-19.5 -25.5q-12 -1 -28 -2l-32 -2t-30 -3t-21 -5q-15 -6 -31.5 -23.5t-43.5 -54.5l-446 -591h-60l-27 686q-1 20 -8.5 26.5t-33.5 8.5l-39 4l12 40h303l-12 -40l-44 -4q-30 -2 -41 -9t-10 -33
l19 -511z" />
    <glyph glyph-name="uni04AE" unicode="&#x4ae;" horiz-adv-x="754" 
d="M138 42l51 3q21 1 33.5 3.5t21 9t14 18.5t11.5 32l68 220l-111 351q-6 19 -13.5 26.5t-33.5 9.5l-34 3l12 40h310l-13 -40l-53 -3q-29 -2 -41 -11t-4 -32l90 -290l173 183q78 82 92.5 115.5t-31.5 35.5l-35 2l12 40h269l-13 -40l-30 -2q-20 -1 -36 -8t-37 -24
t-49.5 -46.5t-71.5 -74.5l-227 -235l-67 -220q-6 -20 -8 -32t2 -18.5t15 -9t32 -3.5l49 -3l-13 -42h-346z" />
    <glyph glyph-name="uni04AE" unicode="&#x4b0;" horiz-adv-x="754" 
d="M138 42l51 3q21 1 33.5 3.5t21 9t14 18.5t11.5 32l68 220l-111 351q-6 19 -13.5 26.5t-33.5 9.5l-34 3l12 40h310l-13 -40l-53 -3q-29 -2 -41 -11t-4 -32l90 -290l173 183q78 82 92.5 115.5t-31.5 35.5l-35 2l12 40h269l-13 -40l-30 -2q-20 -1 -36 -8t-37 -24
t-49.5 -46.5t-71.5 -74.5l-227 -235l-67 -220q-6 -20 -8 -32t2 -18.5t15 -9t32 -3.5l49 -3l-13 -42h-346z" />
    <glyph glyph-name="uni04BA" unicode="&#x4ba;" horiz-adv-x="842" 
d="M685.958 107.993q-11.999 -37.9971 -5.99902 -49.9971q5.99902 -11.999 43.9971 -14.999l35.9971 -2l-11.999 -40.9971h-316.98l12.999 40.9971l37.998 2q19.999 2 32.498 5t20.499 9.99902q7.99902 7 13.499 19.499q5.49902 12.499 11.499 31.498l22.999 76.9951
q32.998 106.994 6.99902 156.491q-25.998 49.4971 -124.992 49.4971q-53.9971 0 -91.4941 -4.5q-37.498 -4.5 -69.4961 -12.499l-80.9951 -266.984q-6 -18.999 -7.99902 -31.498q-2 -12.499 0.999023 -19.499q3 -6.99902 13 -9.99902q9.99902 -3 27.998 -4l39.9971 -2.99902
l-12.999 -39.998h-315.98l12.999 39.998l42.9971 2.99902q17.999 1 29.499 4q11.499 3 18.998 9.99902q7.5 7 12.5 19.499q4.99902 12.499 10.999 31.498l165.99 541.967q12.999 38.998 7.49902 50.9971q-5.49902 11.999 -40.4971 13.999l-40.998 3l12 39.998h315.98
l-12 -39.998l-41.9971 -3q-17.999 -1 -29.498 -3.99902q-11.499 -3 -19.499 -10q-7.99902 -6.99902 -13.499 -18.999q-5.5 -11.999 -11.499 -31.998l-66.9961 -220.986q35.998 8 74.9951 12.999q38.998 5 92.9941 5q153.991 0 207.987 -64.4961
q53.9971 -64.4961 13 -197.488z" />
    <glyph glyph-name="uni04C0" unicode="&#x4c0;" horiz-adv-x="409" 
d="M264 650q6 19 8 31.5t-1 19.5t-12.5 10t-27.5 4l-41 3l12 40h317l-13 -40l-42 -3q-18 -1 -29.5 -4t-19 -10t-13 -19.5t-11.5 -31.5l-166 -542q-6 -20 -8 -32t1 -19t12.5 -10t27.5 -4l41 -3l-12 -40h-317l13 40l42 3q18 1 29.5 4t19 10t13 19t11.5 32z" />
    <glyph glyph-name="uni04D8" unicode="&#x4d8;" horiz-adv-x="800" 
d="M364 -11q-70 0 -127 23.5t-96 65.5t-58 100.5t-14 129.5h593q12 52 12 106q0 67 -18 119t-50 86.5t-76.5 52.5t-97.5 18q-85 0 -156.5 -44t-122.5 -119l-39 24q22 42 56.5 83.5t81 74t105.5 52.5t131 20q67 0 124.5 -22.5t99.5 -64.5t66 -102.5t24 -137.5
q0 -92 -35.5 -176.5t-95.5 -148.5t-139.5 -102t-167.5 -38zM375 39q52 0 95 17t77 47t59 69.5t41 84.5h-441q-9 -103 36 -160.5t133 -57.5z" />
    <glyph glyph-name="uni04E8" unicode="&#x4e8;" 
d="M403 -13q-70 0 -129.5 23t-102.5 64.5t-67 100.5t-24 131q0 58 16.5 115.5t47 110t73.5 97.5t95.5 78.5t113 52.5t127.5 19q70 0 129.5 -23t102.5 -64.5t67.5 -100.5t24.5 -131q0 -87 -36.5 -171.5t-100.5 -151.5t-150.5 -108.5t-186.5 -41.5zM408 37q63 0 114 27.5
t89.5 72.5t65 102t41.5 117h-491q-4 -23 -5.5 -45.5t-1.5 -43.5q0 -117 51 -173.5t137 -56.5zM549 729q-63 0 -114 -27.5t-89.5 -72.5t-65 -102t-41.5 -116h490q4 23 6 45t2 43q0 117 -51.5 173.5t-136.5 56.5z" />
    <glyph glyph-name="uni0430" unicode="&#x430;" horiz-adv-x="581" 
d="M89 -13q-49 0 -70.5 28t-21.5 70q0 43 19 92t51 97.5t73 93t85 78.5t87.5 54t80.5 20q26 0 47 -6t34 -16l86 40l7 -6l-156 -413q-11 -29 -13 -43.5t11 -14.5q10 0 25 10.5t32.5 28.5t37 43t37.5 54l31 -18q-59 -96 -119 -144t-116 -48q-47 0 -53 29.5t17 92.5l22 60h-1
q-58 -85 -115.5 -133.5t-117.5 -48.5zM158 56q17 0 46 23t61 62t62.5 89.5t51.5 104.5l25 66q8 21 8 35.5t-5.5 23.5t-14.5 13t-19 4q-27 0 -55 -17t-55 -46t-51 -66.5t-42.5 -78t-29 -81.5t-10.5 -76q0 -24 6 -40t22 -16z" />
    <glyph glyph-name="uni0431" unicode="&#x431;" horiz-adv-x="549" 
d="M524 368q0 -72 -29.5 -141t-76.5 -122t-106 -85.5t-118 -32.5q-79 0 -119.5 45.5t-40.5 128.5q0 60 15 124.5t44.5 127t73 120t100.5 104.5t126.5 80t151.5 46q48 7 79.5 20.5t47.5 45.5h28q-14 -38 -30.5 -69t-40.5 -53.5t-58 -35.5t-83 -16q-35 -2 -60 -2.5t-43 -1.5
t-31 -3.5t-24 -9.5q-35 -23 -67 -79.5t-58 -131.5q18 17 39.5 33.5t44.5 29t49 20.5t53 8q63 0 98 -42t35 -108zM212 33q27 0 51 17t44.5 44.5t37 63t28 73.5t17.5 75t6 68q0 82 -67 82q-29 0 -62 -19.5t-77 -57.5q-17 -62 -27.5 -125.5t-10.5 -122.5q0 -51 17 -74.5
t43 -23.5z" />
    <glyph glyph-name="uni0432" unicode="&#x432;" horiz-adv-x="512" 
d="M428 174q0 -34 -20 -67.5t-53.5 -60t-76.5 -43t-89 -16.5q-81 0 -123.5 36t-42.5 102q0 43 15.5 89t42 90t61.5 83.5t75 69t82 46.5t82 17q57 0 85.5 -21t28.5 -56q0 -58 -54.5 -101.5t-151.5 -66.5q72 0 105.5 -26.5t33.5 -74.5zM340 477q-26 0 -50.5 -16.5t-46.5 -45
t-40 -66.5t-30 -81q55 13 93.5 32t62.5 42t35 48t11 50q0 37 -35 37zM150 111q0 -39 12.5 -62t44.5 -23q21 0 38.5 12.5t30.5 33t20 46t7 51.5q0 36 -13.5 57.5t-51.5 21.5q-17 0 -35.5 -4t-38.5 -10q-14 -62 -14 -123z" />
    <glyph glyph-name="uni0433" unicode="&#x433;" horiz-adv-x="492" 
d="M178 -13q-73 0 -119 28t-46 83q0 30 10 54.5t31.5 46t56 40.5t83.5 37l48 19q60 23 91.5 52.5t31.5 74.5q0 53 -65 53q-17 0 -31.5 -4.5t-28 -14t-28 -23.5t-30.5 -33l-39 -44l-36 6l69 136q35 10 70.5 14.5t64.5 4.5q70 0 115.5 -26t45.5 -80q0 -60 -49 -103t-134 -75
l-55 -21q-59 -22 -86 -52t-27 -69q0 -32 20.5 -47t49.5 -15q38 0 68.5 21.5t68.5 70.5l41 54l36 -6l-67 -150q-35 -14 -76 -23t-84 -9z" />
    <glyph glyph-name="uni0433" unicode="&#x493;" horiz-adv-x="492" 
d="M178 -13q-73 0 -119 28t-46 83q0 30 10 54.5t31.5 46t56 40.5t83.5 37l48 19q60 23 91.5 52.5t31.5 74.5q0 53 -65 53q-17 0 -31.5 -4.5t-28 -14t-28 -23.5t-30.5 -33l-39 -44l-36 6l69 136q35 10 70.5 14.5t64.5 4.5q70 0 115.5 -26t45.5 -80q0 -60 -49 -103t-134 -75
l-55 -21q-59 -22 -86 -52t-27 -69q0 -32 20.5 -47t49.5 -15q38 0 68.5 21.5t68.5 70.5l41 54l36 -6l-67 -150q-35 -14 -76 -23t-84 -9z" />
    <glyph glyph-name="uni0433" unicode="&#x453;" horiz-adv-x="492" 
d="M178 -13q-73 0 -119 28t-46 83q0 30 10 54.5t31.5 46t56 40.5t83.5 37l48 19q60 23 91.5 52.5t31.5 74.5q0 53 -65 53q-17 0 -31.5 -4.5t-28 -14t-28 -23.5t-30.5 -33l-39 -44l-36 6l69 136q35 10 70.5 14.5t64.5 4.5q70 0 115.5 -26t45.5 -80q0 -60 -49 -103t-134 -75
l-55 -21q-59 -22 -86 -52t-27 -69q0 -32 20.5 -47t49.5 -15q38 0 68.5 21.5t68.5 70.5l41 54l36 -6l-67 -150q-35 -14 -76 -23t-84 -9z" />
    <glyph glyph-name="uni0434" unicode="&#x434;" horiz-adv-x="543" 
d="M180 -13q-74 0 -115.5 38t-41.5 114q0 45 14 90.5t38.5 88t58 79.5t73 64.5t83 43t87.5 15.5q20 0 40 -5v20q0 48 -6 88t-19 69.5t-33.5 46t-50.5 16.5q-48 0 -87 -30l-18 29q26 22 58.5 35t73.5 13q50 0 88.5 -22.5t64.5 -61.5t39 -92t13 -113q0 -107 -27.5 -202.5
t-75.5 -167.5t-114 -114t-143 -42zM152 125q0 -44 11.5 -68.5t41.5 -24.5q36 0 70.5 34.5t63 93t48.5 136t27 164.5q-16 19 -48 19q-48 0 -87.5 -34t-67.5 -86t-43.5 -114.5t-15.5 -119.5z" />
    <glyph glyph-name="uni0435" unicode="&#x435;" horiz-adv-x="454" 
d="M150 -13q-58 0 -97 36t-39 102q0 43 15.5 89t41.5 90t61 83.5t75 69t81.5 46.5t81.5 17q48 0 72.5 -21t24.5 -56q0 -44 -22 -73.5t-49 -48.5q-22 -6 -52.5 -14t-63.5 -15.5t-66 -15.5t-61 -14q-12 -45 -12 -93q0 -53 18.5 -78.5t53.5 -25.5q39 0 74.5 32t74.5 95l30 -18
q-21 -36 -45.5 -69.5t-54 -60t-64.5 -42t-78 -15.5zM329 477q-23 0 -47 -14t-46 -38t-41 -57t-32 -70q23 5 43.5 10t37.5 11q37 13 61 27.5t37.5 30.5t18.5 32t5 31q0 37 -37 37z" />
    <glyph glyph-name="uni0435" unicode="&#x451;" horiz-adv-x="454" 
d="M150 -13q-58 0 -97 36t-39 102q0 43 15.5 89t41.5 90t61 83.5t75 69t81.5 46.5t81.5 17q48 0 72.5 -21t24.5 -56q0 -44 -22 -73.5t-49 -48.5q-22 -6 -52.5 -14t-63.5 -15.5t-66 -15.5t-61 -14q-12 -45 -12 -93q0 -53 18.5 -78.5t53.5 -25.5q39 0 74.5 32t74.5 95l30 -18
q-21 -36 -45.5 -69.5t-54 -60t-64.5 -42t-78 -15.5zM329 477q-23 0 -47 -14t-46 -38t-41 -57t-32 -70q23 5 43.5 10t37.5 11q37 13 61 27.5t37.5 30.5t18.5 32t5 31q0 37 -37 37z" />
    <glyph glyph-name="uni0436" unicode="&#x436;" horiz-adv-x="935" 
d="M253 520q46 0 72 -35.5t24 -102.5q-2 -29 -9 -59.5t-18 -60.5l91 13l83 216l130 23l-84 -220l97 15q23 43 52.5 81.5t62.5 67t68 45.5t68 17q27 0 47.5 -14.5t19.5 -47.5q-1 -14 -6.5 -26.5t-14.5 -21t-20 -13.5t-22 -4q-12 26 -26 43t-34 17q-26 0 -49 -24.5
t-41.5 -64.5t-30 -91t-12.5 -104q-6 -104 36 -104q46 0 101 127l32 -18q-17 -40 -37 -74.5t-43 -59.5t-50.5 -39t-60.5 -14q-46 0 -72.5 36t-23.5 102q2 33 11 68t23 70l-92 -14l-91 -239l-132 -22l93 242l-92 -13q-23 -46 -53 -88t-64.5 -73.5t-71.5 -50t-72 -18.5
q-14 0 -26 3.5t-21.5 11t-15 19.5t-4.5 29q1 14 6.5 26t14.5 21t20 13.5t22 3.5q11 -26 25.5 -42.5t34.5 -16.5q25 0 48.5 24.5t42 64.5t29.5 90.5t13 103.5q6 105 -36 105q-47 0 -101 -127l-32 18q17 40 36.5 74t43 59t51 39t60.5 14z" />
    <glyph glyph-name="uni0436" unicode="&#x497;" horiz-adv-x="935" 
d="M253 520q46 0 72 -35.5t24 -102.5q-2 -29 -9 -59.5t-18 -60.5l91 13l83 216l130 23l-84 -220l97 15q23 43 52.5 81.5t62.5 67t68 45.5t68 17q27 0 47.5 -14.5t19.5 -47.5q-1 -14 -6.5 -26.5t-14.5 -21t-20 -13.5t-22 -4q-12 26 -26 43t-34 17q-26 0 -49 -24.5
t-41.5 -64.5t-30 -91t-12.5 -104q-6 -104 36 -104q46 0 101 127l32 -18q-17 -40 -37 -74.5t-43 -59.5t-50.5 -39t-60.5 -14q-46 0 -72.5 36t-23.5 102q2 33 11 68t23 70l-92 -14l-91 -239l-132 -22l93 242l-92 -13q-23 -46 -53 -88t-64.5 -73.5t-71.5 -50t-72 -18.5
q-14 0 -26 3.5t-21.5 11t-15 19.5t-4.5 29q1 14 6.5 26t14.5 21t20 13.5t22 3.5q11 -26 25.5 -42.5t34.5 -16.5q25 0 48.5 24.5t42 64.5t29.5 90.5t13 103.5q6 105 -36 105q-47 0 -101 -127l-32 18q17 40 36.5 74t43 59t51 39t60.5 14z" />
    <glyph glyph-name="uni0437" unicode="&#x437;" horiz-adv-x="457" 
d="M159 28q25 0 45 11.5t34 30t21.5 42t7.5 46.5q0 37 -16 61t-50 24q-17 0 -35.5 -4.5t-37.5 -9.5l7 38q52 11 88.5 27t59.5 35.5t33.5 41t10.5 42.5q0 18 -11 29.5t-39 11.5q-42 0 -81 -26.5t-71 -72.5l-30 18q17 28 40 55t52.5 47t64.5 32.5t76 12.5q56 0 84.5 -23
t28.5 -61q0 -54 -47.5 -97.5t-131.5 -65.5q66 -2 96 -28.5t30 -74.5q0 -35 -21 -67.5t-56.5 -58.5t-81.5 -41.5t-95 -15.5q-68 0 -107.5 22t-39.5 64q0 32 22 49t47 15q8 -20 18 -39.5t22.5 -35t28 -25t34.5 -9.5z" />
    <glyph glyph-name="uni0438" unicode="&#x438;" horiz-adv-x="621" 
d="M366 181h-3q-77 -101 -137 -147.5t-118 -46.5q-32 0 -48.5 12.5t-20.5 34.5t2.5 53t21.5 69l96 237q9 22 3.5 26t-28.5 2l-58 -5l6 32l235 69l7 -7l-137 -340q-23 -56 -24.5 -81.5t21.5 -25.5q19 0 50.5 23.5t67 66.5t71.5 104t63 135l31 89l134 34l-153 -396
q-11 -29 -12.5 -43.5t10.5 -14.5q10 0 25 10.5t32.5 28.5t37 43t37.5 54l31 -18q-59 -96 -119 -144t-116 -48q-46 0 -55 29.5t17 91.5z" />
    <glyph glyph-name="uni0438" unicode="&#x4e3;" horiz-adv-x="621" 
d="M366 181h-3q-77 -101 -137 -147.5t-118 -46.5q-32 0 -48.5 12.5t-20.5 34.5t2.5 53t21.5 69l96 237q9 22 3.5 26t-28.5 2l-58 -5l6 32l235 69l7 -7l-137 -340q-23 -56 -24.5 -81.5t21.5 -25.5q19 0 50.5 23.5t67 66.5t71.5 104t63 135l31 89l134 34l-153 -396
q-11 -29 -12.5 -43.5t10.5 -14.5q10 0 25 10.5t32.5 28.5t37 43t37.5 54l31 -18q-59 -96 -119 -144t-116 -48q-46 0 -55 29.5t17 91.5z" />
    <glyph glyph-name="uni0438" unicode="&#x439;" horiz-adv-x="621" 
d="M366 181h-3q-77 -101 -137 -147.5t-118 -46.5q-32 0 -48.5 12.5t-20.5 34.5t2.5 53t21.5 69l96 237q9 22 3.5 26t-28.5 2l-58 -5l6 32l235 69l7 -7l-137 -340q-23 -56 -24.5 -81.5t21.5 -25.5q19 0 50.5 23.5t67 66.5t71.5 104t63 135l31 89l134 34l-153 -396
q-11 -29 -12.5 -43.5t10.5 -14.5q10 0 25 10.5t32.5 28.5t37 43t37.5 54l31 -18q-59 -96 -119 -144t-116 -48q-46 0 -55 29.5t17 91.5z" />
    <glyph glyph-name="uni043A" unicode="&#x43a;" horiz-adv-x="604" 
d="M397 -27q-30 0 -49 15t-32 46l-94 222l165 99q27 16 43 33.5t23.5 35.5t8.5 36.5t-1 37.5q7 11 20.5 16.5t30.5 5.5q22 0 40 -13t18 -34q0 -11 -4 -23t-19 -28t-45 -37.5t-83 -51.5l-89 -50l97 -210q6 -14 11.5 -19t13.5 -5q15 0 42.5 31t61.5 86l32 -20q-29 -48 -54 -81
t-47.5 -53.5t-44 -29.5t-45.5 -9zM152 393q9 22 4 26t-28 2l-59 -6l6 32l236 69l7 -6l-191 -500l-131 -22z" />
    <glyph glyph-name="uni043A" unicode="&#x49b;" horiz-adv-x="604" 
d="M397 -27q-30 0 -49 15t-32 46l-94 222l165 99q27 16 43 33.5t23.5 35.5t8.5 36.5t-1 37.5q7 11 20.5 16.5t30.5 5.5q22 0 40 -13t18 -34q0 -11 -4 -23t-19 -28t-45 -37.5t-83 -51.5l-89 -50l97 -210q6 -14 11.5 -19t13.5 -5q15 0 42.5 31t61.5 86l32 -20q-29 -48 -54 -81
t-47.5 -53.5t-44 -29.5t-45.5 -9zM152 393q9 22 4 26t-28 2l-59 -6l6 32l236 69l7 -6l-191 -500l-131 -22z" />
    <glyph glyph-name="uni043A" unicode="&#x45c;" horiz-adv-x="604" 
d="M397 -27q-30 0 -49 15t-32 46l-94 222l165 99q27 16 43 33.5t23.5 35.5t8.5 36.5t-1 37.5q7 11 20.5 16.5t30.5 5.5q22 0 40 -13t18 -34q0 -11 -4 -23t-19 -28t-45 -37.5t-83 -51.5l-89 -50l97 -210q6 -14 11.5 -19t13.5 -5q15 0 42.5 31t61.5 86l32 -20q-29 -48 -54 -81
t-47.5 -53.5t-44 -29.5t-45.5 -9zM152 393q9 22 4 26t-28 2l-59 -6l6 32l236 69l7 -6l-191 -500l-131 -22z" />
    <glyph glyph-name="uni043B" unicode="&#x43b;" horiz-adv-x="582" 
d="M414 444h-110l-109 -230q-30 -62 -57.5 -105t-53 -70t-48.5 -39t-43 -12q-23 0 -37 14t-14 35q0 14 7 27.5t15 18.5q35 7 62.5 17t52 30.5t48.5 55.5t52 93l80 165h-77l24 58h352l-149 -383q-11 -29 -12.5 -43.5t11.5 -14.5q9 0 24 10.5t32.5 28.5t37 43t37.5 54l32 -18
q-60 -96 -120 -144t-115 -48q-29 0 -44 8.5t-19.5 24t-0.5 38t15 50.5z" />
    <glyph glyph-name="uni043C" unicode="&#x43c;" horiz-adv-x="817" 
d="M632 400l-332 -408h-30l13 364l-98 -177q-30 -54 -54 -90.5t-45.5 -59t-41.5 -32t-42 -9.5q-23 0 -37 14.5t-14 34.5q0 14 7 27.5t15 18.5q33 6 57.5 14t45.5 23t40.5 39t41.5 63l117 206q-5 4 -13.5 4.5t-22.5 -0.5l-59 -6l-3 29l211 61l7 -8l-13 -342l264 318l151 31
l-153 -396q-11 -29 -13 -43.5t11 -14.5q10 0 25 10.5t32.5 28.5t37 43t37.5 54l31 -18q-59 -96 -119 -144t-116 -48q-28 0 -43 8.5t-19.5 24t-0.5 38t15 50.5z" />
    <glyph glyph-name="uni043D" unicode="&#x43d;" horiz-adv-x="614" 
d="M158 393q9 22 3.5 26t-28.5 2l-58 -6l6 32l236 69l7 -6l-97 -253l159 28l74 196l134 34l-153 -396q-11 -29 -12.5 -43.5t11.5 -14.5q9 0 24 10.5t32.5 28.5t37 43t37.5 54l32 -18q-60 -96 -120 -144t-115 -48q-29 0 -44 8.5t-19.5 24t0 38t15.5 50.5l50 132l-160 -28
l-77 -202l-132 -22z" />
    <glyph glyph-name="uni043D" unicode="&#x4a3;" horiz-adv-x="614" 
d="M158 393q9 22 3.5 26t-28.5 2l-58 -6l6 32l236 69l7 -6l-97 -253l159 28l74 196l134 34l-153 -396q-11 -29 -12.5 -43.5t11.5 -14.5q9 0 24 10.5t32.5 28.5t37 43t37.5 54l32 -18q-60 -96 -120 -144t-115 -48q-29 0 -44 8.5t-19.5 24t0 38t15.5 50.5l50 132l-160 -28
l-77 -202l-132 -22z" />
    <glyph glyph-name="uni043E" unicode="&#x43e;" horiz-adv-x="547" 
d="M178 -13q-41 0 -70.5 12.5t-49 33.5t-29 48.5t-9.5 56.5q0 47 15 93.5t41.5 89t61 79t74 63.5t80.5 42t80 15q40 0 70 -13t49.5 -34t29 -48.5t9.5 -56.5q0 -47 -15 -93.5t-41.5 -88.5t-61 -78.5t-74 -63.5t-80.5 -42t-80 -15zM207 33q41 0 76.5 35.5t61.5 88t41 113
t15 110.5q0 48 -13.5 71.5t-44.5 23.5q-27 0 -52 -16.5t-47 -44.5t-39.5 -63.5t-30 -74.5t-19.5 -77.5t-7 -71.5q0 -94 59 -94z" />
    <glyph glyph-name="uni043F" unicode="&#x43f;" horiz-adv-x="622" 
d="M162 393q8 22 3 26t-28 2l-58 -6l6 32l226 69l7 -6l-75 -184h2q78 101 137 147.5t117 46.5q31 0 48 -12t21.5 -34.5t-2.5 -53.5t-22 -69l-95 -232q-12 -29 -13.5 -43.5t11.5 -14.5q9 0 24 10.5t33 28.5t37 43t37 54l32 -18q-60 -96 -119.5 -144t-115.5 -48q-47 0 -61 29
t12 92l94 229q23 55 25 81t-21 26q-19 0 -50.5 -23.5t-66.5 -65t-70 -99t-60 -125.5l-41 -121l-131 -22z" />
    <glyph glyph-name="uni0440" unicode="&#x440;" horiz-adv-x="587" 
d="M156 393q8 22 3 26t-28 2l-58 -6l6 32l226 69l7 -6l-40 -106h1q21 24 45 45t49.5 37t51.5 25t52 9q58 0 85.5 -34t25.5 -91q-1 -46 -18 -94t-45 -93.5t-64.5 -85.5t-76.5 -70t-81 -47.5t-78 -17.5q-23 0 -44.5 5.5t-35.5 13.5l-86 -254h-116zM227 29q46 0 86 35t70 86.5
t47.5 110t19.5 106.5q2 40 -10.5 62.5t-39.5 22.5q-29 0 -65 -26t-77 -75l-82 -239q-8 -23 -6 -39t10 -25.5t20.5 -14t26.5 -4.5z" />
    <glyph glyph-name="uni0441" unicode="&#x441;" horiz-adv-x="442" 
d="M148 -13q-57 0 -95 36t-38 102q0 43 15 89t41 90t60.5 83.5t73.5 69t80.5 46.5t81.5 17q17 0 33 -4t29 -12t20.5 -20.5t7.5 -28.5q0 -24 -16.5 -42.5t-44.5 -22.5q-22 26 -47.5 44.5t-57.5 18.5t-59 -24.5t-47.5 -65t-32 -91.5t-11.5 -103q0 -104 70 -104q38 0 74 32
t74 95l30 -18q-21 -36 -45.5 -69.5t-53.5 -60t-64 -42t-78 -15.5z" />
    <glyph glyph-name="uni0442" unicode="&#x442;" horiz-adv-x="902" 
d="M162 393q8 22 3 26t-28 2l-58 -6l6 32l226 69l7 -6l-75 -184h2q78 101 137 147.5t117 46.5q63 0 66.5 -50t-43.5 -144h2q78 101 137.5 147.5t117.5 46.5q31 0 48 -12t21.5 -34.5t-2.5 -53.5t-22 -69l-95 -232q-12 -29 -13.5 -43.5t11.5 -14.5q9 0 24 10.5t33 28.5t37 43
t37 54l32 -18q-60 -96 -119.5 -144t-115.5 -48q-47 0 -61 29t12 92l94 229q23 55 24.5 81t-21.5 26q-19 0 -50 -23.5t-66 -65t-70 -99t-60 -125.5l-41 -122l-131 -21l135 349q21 55 24 81t-20 26q-19 0 -50.5 -23.5t-66.5 -65t-70 -99t-60 -125.5l-41 -121l-131 -22z" />
    <glyph glyph-name="uni0443" unicode="&#x443;" horiz-adv-x="563" 
d="M272 141l137 198q36 52 62 86.5t47 55.5t39 30t36 9q23 0 36 -13.5t13 -34.5q0 -17 -6 -29t-14 -17q-32 -8 -56 -16t-45 -22t-41.5 -36.5t-45.5 -58.5l-198 -282q-17 -24 -38 -52t-44 -55.5t-46.5 -53.5t-46.5 -46q-78 -71 -134 -71q-28 0 -42.5 14t-14.5 37q0 17 8 31.5
t19 19.5q38 -8 75.5 -6.5t60.5 17.5q29 20 61 55.5t68 90.5l-8 407q-1 22 -6 26t-25 1l-56 -9l-5 33l204 68l6 -6v-371z" />
    <glyph glyph-name="uni0443" unicode="&#x4ef;" horiz-adv-x="563" 
d="M272 141l137 198q36 52 62 86.5t47 55.5t39 30t36 9q23 0 36 -13.5t13 -34.5q0 -17 -6 -29t-14 -17q-32 -8 -56 -16t-45 -22t-41.5 -36.5t-45.5 -58.5l-198 -282q-17 -24 -38 -52t-44 -55.5t-46.5 -53.5t-46.5 -46q-78 -71 -134 -71q-28 0 -42.5 14t-14.5 37q0 17 8 31.5
t19 19.5q38 -8 75.5 -6.5t60.5 17.5q29 20 61 55.5t68 90.5l-8 407q-1 22 -6 26t-25 1l-56 -9l-5 33l204 68l6 -6v-371z" />
    <glyph glyph-name="uni0443" unicode="&#x45e;" horiz-adv-x="563" 
d="M272 141l137 198q36 52 62 86.5t47 55.5t39 30t36 9q23 0 36 -13.5t13 -34.5q0 -17 -6 -29t-14 -17q-32 -8 -56 -16t-45 -22t-41.5 -36.5t-45.5 -58.5l-198 -282q-17 -24 -38 -52t-44 -55.5t-46.5 -53.5t-46.5 -46q-78 -71 -134 -71q-28 0 -42.5 14t-14.5 37q0 17 8 31.5
t19 19.5q38 -8 75.5 -6.5t60.5 17.5q29 20 61 55.5t68 90.5l-8 407q-1 22 -6 26t-25 1l-56 -9l-5 33l204 68l6 -6v-371z" />
    <glyph glyph-name="uni0444" unicode="&#x444;" horiz-adv-x="737" 
d="M518 520q55 -2 93.5 -18t63 -40.5t35.5 -55t11 -63.5q0 -65 -31.5 -126.5t-84.5 -110.5t-122.5 -80.5t-144.5 -37.5l-80 -236h-116l80 235q-55 2 -93.5 18.5t-62.5 42t-35 57t-11 63.5q0 65 31.5 126t85 109t123 79.5t144.5 36.5l48 141q10 28 10 37t-14 18l-56 35l2 6
l230 76zM148 157q0 -51 20.5 -82.5t70.5 -39.5l150 440q-62 -4 -107 -36.5t-75 -79.5t-44.5 -101t-14.5 -101zM592 355q0 51 -20.5 81t-69.5 37l-149 -439q61 4 106 36.5t74.5 80t44 102t14.5 102.5z" />
    <glyph glyph-name="uni0445" unicode="&#x445;" horiz-adv-x="606" 
d="M-37 58q0 23 17.5 40.5t41.5 15.5q18 -25 35 -40.5t35 -15.5q15 0 28 10q7 5 17 14.5t26 27.5t38 46.5t52 72.5l-18 149q-5 42 -12 58t-21 16q-18 0 -47.5 -28t-61.5 -68l-28 23q54 70 104 105.5t94 35.5q18 0 31.5 -4.5t22.5 -17.5t15 -36.5t11 -61.5l8 -66
q37 57 66.5 93t55 57t48 28.5t44.5 7.5q35 0 59 -17.5t24 -52.5q0 -23 -17.5 -41t-41.5 -16q-18 25 -35 40.5t-35 15.5q-15 0 -28 -10q-7 -5 -17.5 -14.5t-26 -27.5t-37.5 -46.5t-52 -72.5l18 -149q5 -42 12 -57.5t21 -15.5q18 0 47 27.5t62 68.5l28 -24q-54 -69 -104 -105
t-94 -36q-19 0 -32 4.5t-22 18t-15.5 37t-10.5 61.5l-8 65q-37 -57 -66.5 -93t-55 -57t-48 -28.5t-44.5 -7.5q-35 0 -59 18t-24 53z" />
    <glyph glyph-name="uni0445" unicode="&#x4b3;" horiz-adv-x="606" 
d="M-37 58q0 23 17.5 40.5t41.5 15.5q18 -25 35 -40.5t35 -15.5q15 0 28 10q7 5 17 14.5t26 27.5t38 46.5t52 72.5l-18 149q-5 42 -12 58t-21 16q-18 0 -47.5 -28t-61.5 -68l-28 23q54 70 104 105.5t94 35.5q18 0 31.5 -4.5t22.5 -17.5t15 -36.5t11 -61.5l8 -66
q37 57 66.5 93t55 57t48 28.5t44.5 7.5q35 0 59 -17.5t24 -52.5q0 -23 -17.5 -41t-41.5 -16q-18 25 -35 40.5t-35 15.5q-15 0 -28 -10q-7 -5 -17.5 -14.5t-26 -27.5t-37.5 -46.5t-52 -72.5l18 -149q5 -42 12 -57.5t21 -15.5q18 0 47 27.5t62 68.5l28 -24q-54 -69 -104 -105
t-94 -36q-19 0 -32 4.5t-22 18t-15.5 37t-10.5 61.5l-8 65q-37 -57 -66.5 -93t-55 -57t-48 -28.5t-44.5 -7.5q-35 0 -59 18t-24 53z" />
    <glyph glyph-name="uni0446" unicode="&#x446;" horiz-adv-x="634" 
d="M366 181h-3q-77 -101 -137 -147.5t-118 -46.5q-32 0 -48.5 12.5t-20.5 34.5t2.5 53t21.5 69l96 237q9 22 3.5 26t-28.5 2l-58 -5l6 32l235 69l7 -7l-137 -340q-23 -56 -24.5 -81.5t21.5 -25.5q19 0 50.5 23.5t67 66.5t71.5 104t63 135l31 89l134 34l-153 -396
q-11 -29 -12.5 -43.5t10.5 -14.5q10 0 25 10.5t32.5 28.5t37 43t37.5 54l31 -18q-26 -46 -34.5 -75t-8.5 -54t4 -53.5t4 -74.5q0 -49 -34 -76t-115 -34l8 25q30 5 40.5 20.5t10.5 40.5q0 50 8 87.5t28 77.5q-75 -76 -146 -76q-46 0 -55 29.5t17 91.5z" />
    <glyph glyph-name="uni0447" unicode="&#x447;" horiz-adv-x="583" 
d="M295 116q4 9 15.5 39t24.5 62q15 38 32 82h-3q-56 -77 -106 -108.5t-99 -31.5q-63 0 -72.5 43.5t20.5 118.5l30 72q8 22 3 26.5t-28 1.5l-58 -5l6 32l235 69l7 -7l-76 -186q-19 -47 -20.5 -71.5t21.5 -24.5q17 0 42.5 16t53.5 47.5t55.5 79t50.5 110.5l135 34l-153 -396
q-11 -29 -13 -43.5t11 -14.5q9 0 24 10.5t33 28.5t37 43t37 54l32 -18q-60 -96 -119.5 -144t-115.5 -48q-52 0 -60 31t18 98z" />
    <glyph glyph-name="uni0447" unicode="&#x4b7;" horiz-adv-x="583" 
d="M295 116q4 9 15.5 39t24.5 62q15 38 32 82h-3q-56 -77 -106 -108.5t-99 -31.5q-63 0 -72.5 43.5t20.5 118.5l30 72q8 22 3 26.5t-28 1.5l-58 -5l6 32l235 69l7 -7l-76 -186q-19 -47 -20.5 -71.5t21.5 -24.5q17 0 42.5 16t53.5 47.5t55.5 79t50.5 110.5l135 34l-153 -396
q-11 -29 -13 -43.5t11 -14.5q9 0 24 10.5t33 28.5t37 43t37 54l32 -18q-60 -96 -119.5 -144t-115.5 -48q-52 0 -60 31t18 98z" />
    <glyph glyph-name="uni0448" unicode="&#x448;" horiz-adv-x="888" 
d="M356 181q-77 -101 -137.5 -147.5t-118.5 -46.5q-31 0 -47.5 12.5t-20.5 34.5t2.5 53t21.5 69l95 237q9 22 4 26.5t-28 1.5l-59 -5l6 32l236 69l7 -7l-137 -340q-22 -56 -24.5 -81.5t20.5 -25.5q19 0 50.5 23.5t67 67t71.5 104t63 134.5l31 89l135 34l-137 -345
q-22 -56 -24.5 -81.5t20.5 -25.5q19 0 51 23.5t67.5 66.5t70.5 103.5t61 135.5l31 89l135 34l-154 -396q-11 -29 -12.5 -43.5t11.5 -14.5q9 0 24 10.5t33 28.5t37 43t37 54l32 -18q-60 -96 -119.5 -144t-115.5 -48q-47 0 -55.5 29.5t16.5 91.5l30 73h-3q-77 -100 -136 -147
t-117 -47q-50 0 -59.5 39.5t16.5 99.5l24 55h-2z" />
    <glyph glyph-name="uni0448" unicode="&#x449;" horiz-adv-x="888" 
d="M356 181q-77 -101 -137.5 -147.5t-118.5 -46.5q-31 0 -47.5 12.5t-20.5 34.5t2.5 53t21.5 69l95 237q9 22 4 26.5t-28 1.5l-59 -5l6 32l236 69l7 -7l-137 -340q-22 -56 -24.5 -81.5t20.5 -25.5q19 0 50.5 23.5t67 67t71.5 104t63 134.5l31 89l135 34l-137 -345
q-22 -56 -24.5 -81.5t20.5 -25.5q19 0 51 23.5t67.5 66.5t70.5 103.5t61 135.5l31 89l135 34l-154 -396q-11 -29 -12.5 -43.5t11.5 -14.5q9 0 24 10.5t33 28.5t37 43t37 54l32 -18q-60 -96 -119.5 -144t-115.5 -48q-47 0 -55.5 29.5t16.5 91.5l30 73h-3q-77 -100 -136 -147
t-117 -47q-50 0 -59.5 39.5t16.5 99.5l24 55h-2z" />
    <glyph glyph-name="uni044A" unicode="&#x44a;" horiz-adv-x="520" 
d="M223 -13q-80 0 -116 34.5t-36 86.5q0 44 18.5 81.5t50 70.5t73.5 63.5t90 62.5q-39 4 -66 13.5t-47 19.5t-35 17t-30 7q-16 0 -26 -7.5t-10 -22.5q0 -20 16 -32t33 -26q1 -23 -14 -39t-38 -16q-27 0 -41 17.5t-14 40.5t9.5 44t24.5 39.5t33.5 33.5t36.5 26q20 13 34.5 16
t26.5 3q16 0 34.5 -8.5t38 -18t39.5 -18t38 -8.5q32 0 57 17t45 34l27 -29q-55 -45 -103 -89t-86 -89q16 5 34 8.5t38 3.5q59 0 89.5 -31t30.5 -85q0 -37 -18.5 -76t-52.5 -71t-80.5 -52.5t-103.5 -20.5zM183 83q0 -29 11 -42t37 -13q25 0 47.5 14.5t39.5 38.5t26.5 56
t9.5 67q0 31 -13.5 50.5t-41.5 19.5q-16 0 -28 -4t-23 -9q-31 -45 -48 -89t-17 -89z" />
    <glyph glyph-name="uni044B" unicode="&#x44b;" horiz-adv-x="767" 
d="M613 481l135 34l-153 -396q-11 -29 -13 -43.5t11 -14.5q9 0 24 10.5t33 28.5t37 43t37 54l32 -18q-60 -96 -119.5 -144t-115.5 -48t-63 32.5t15 88.5zM445 207q0 -37 -18.5 -76t-52.5 -71t-81 -52.5t-104 -20.5q-48 0 -80 14.5t-47 40.5t-13.5 62.5t19.5 81.5l83 207
q9 22 4 26.5t-28 1.5l-59 -5l6 32l236 69l7 -7l-83 -207q18 8 41 14t50 6q59 0 89.5 -31t30.5 -85zM198 28q25 0 46.5 14.5t38 38.5t26 56t9.5 67q0 31 -13 50.5t-39 19.5q-15 0 -26.5 -3.5t-22.5 -8.5l-47 -117q-21 -53 -18 -85t46 -32z" />
    <glyph glyph-name="uni044C" unicode="&#x44c;" horiz-adv-x="486" 
d="M445 207q0 -37 -18.5 -76t-52.5 -71t-81 -52.5t-104 -20.5q-48 0 -80 14.5t-47 40.5t-13.5 62.5t19.5 81.5l83 207q9 22 4 26.5t-28 1.5l-59 -5l6 32l236 69l7 -7l-83 -207q18 8 41 14t50 6q59 0 89.5 -31t30.5 -85zM198 28q25 0 46.5 14.5t38 38.5t26 56t9.5 67
q0 31 -13 50.5t-39 19.5q-15 0 -26.5 -3.5t-22.5 -8.5l-47 -117q-21 -53 -18 -85t46 -32z" />
    <glyph glyph-name="uni044D" unicode="&#x44d;" horiz-adv-x="449" 
d="M124 258l179 31q1 11 1.5 22t0.5 22q0 110 -70 110q-65 0 -127 -98l-30 18q18 31 40 59t49 50t59.5 35t71.5 13q57 0 95 -37t38 -106q0 -46 -15 -93t-41 -90.5t-60.5 -81t-73.5 -65.5t-80.5 -44t-81.5 -16q-17 0 -33 3.5t-29 11t-20.5 19.5t-7.5 29q0 12 5 24t13 21.5
t19.5 15.5t23.5 5q22 -26 47.5 -43.5t57.5 -17.5q25 0 47.5 14.5t41.5 40t32.5 60.5t21.5 77l-187 -33z" />
    <glyph glyph-name="uni044E" unicode="&#x44e;" horiz-adv-x="793" 
d="M152 393q9 22 4 26t-28 2l-59 -6l6 32l236 69l7 -6l-97 -253l78 14q23 51 59 96.5t79.5 79.5t90.5 53.5t91 19.5q40 0 69.5 -13t48.5 -34t28.5 -48.5t9.5 -56.5q0 -47 -15 -93.5t-41 -88.5t-60.5 -78.5t-73.5 -63.5t-80 -42t-80 -15q-41 0 -70 12.5t-48.5 33.5
t-28.5 48.5t-9 56.5q0 22 3.5 44t9.5 43l-78 -13l-77 -202l-131 -22zM454 33q27 0 51.5 16.5t46 44t39 63t30 74t19 77.5t6.5 72q0 95 -56 95q-27 0 -51.5 -16.5t-46 -44.5t-39 -63.5t-30 -74.5t-19 -77.5t-6.5 -71.5q0 -94 56 -94z" />
    <glyph glyph-name="uni044F" unicode="&#x44f;" horiz-adv-x="575" 
d="M555 179q-59 -96 -119 -144t-116 -48q-28 0 -43 8.5t-19.5 24t-0.5 38t15 50.5l61 161l-90 -99q-47 -52 -79.5 -87t-56.5 -56t-43.5 -30t-40.5 -9q-24 0 -38.5 15t-14.5 35q0 16 6.5 28.5t16.5 20.5q41 9 74 18.5t63 25t60 39t65 58.5q-13 -8 -36 -16t-54 -8
q-33 0 -53.5 18.5t-20.5 55.5q0 42 26 85t66.5 78t90.5 57t97 22q26 0 47.5 -6t35.5 -16l88 40l7 -6l-155 -413q-11 -29 -13 -43.5t11 -14.5q10 0 25 10.5t32.5 28.5t37 43t37.5 54zM357 477q-28 0 -54 -17.5t-46 -43t-32 -55t-12 -54.5q0 -18 8 -30.5t29 -12.5
q43 0 74.5 32t50.5 83l7 19q16 43 6 61t-31 18z" />
    <glyph glyph-name="uni0452" unicode="&#x452;" horiz-adv-x="533" 
d="M402 444q-19 0 -50.5 -23.5t-66.5 -65t-70 -99t-60 -125.5l-38 -122l-127 -21l210 605h-89l17 47h88l7 20q10 28 10 37.5t-13 17.5l-57 35l2 6l234 76l-66 -192h108l-16 -47h-109l-48 -140q-5 -14 -12 -33.5t-14.5 -38.5t-14 -35.5t-9.5 -23.5h2q40 52 75 89.5t66 61.5
t59.5 35.5t57.5 11.5q31 0 47.5 -12t21 -34.5t-2.5 -53.5t-22 -69l-124 -304q-15 -38 -28.5 -66t-28.5 -51t-35 -42t-48 -38q-17 -11 -40 -25.5t-49 -30t-52.5 -31t-50.5 -28.5l-14 30q43 31 75 56t57 53.5t46 65.5t44 93l124 304q23 55 25 81t-21 26z" />
    <glyph glyph-name="uni0454" unicode="&#x454;" horiz-adv-x="442" 
d="M148 -13q-57 0 -95 36t-38 102q0 43 15 89t41 90t60.5 83.5t73.5 69t80.5 46.5t81.5 17q17 0 33 -4t29 -12t20.5 -20.5t7.5 -28.5q0 -24 -16.5 -42.5t-44.5 -22.5q-22 26 -47.5 44.5t-57.5 18.5q-24 0 -45.5 -14.5t-39.5 -39.5t-32 -58.5t-22 -71.5l199 34l-13 -43
l-194 -34q-3 -29 -3 -57q0 -104 70 -104q38 0 74 32t74 95l30 -18q-21 -36 -45.5 -69.5t-53.5 -60t-64 -42t-78 -15.5z" />
    <glyph glyph-name="uni0455" unicode="&#x455;" horiz-adv-x="413" 
d="M110 -13q-27 0 -50 7t-40 19t-27 28.5t-10 34.5q0 23 17 42t46 19q13 -18 26.5 -35.5t28.5 -31t32 -22t37 -8.5q30 0 45 15.5t15 38.5q0 40 -43 95l-38 50q-44 58 -44 116q0 37 19.5 67.5t50 52t67.5 33.5t72 12q24 0 44.5 -5t36 -15t24.5 -23.5t9 -30.5q0 -23 -15.5 -41
t-43.5 -19q-22 33 -52.5 58.5t-66.5 25.5q-26 0 -40.5 -13t-14.5 -33q0 -19 10 -41t33 -54l38 -52q26 -36 38.5 -63t12.5 -58q0 -37 -20 -68t-51.5 -53.5t-70 -35t-75.5 -12.5z" />
    <glyph glyph-name="uni0456" unicode="&#x456;" horiz-adv-x="346" 
d="M97 -13q-47 0 -60.5 29t11.5 92l114 285q9 22 4 26t-28 2l-59 -6l6 32l234 69l7 -6l-156 -391q-11 -29 -12.5 -43.5t11.5 -14.5q9 0 24 10.5t33 28.5t37 43t37 54l32 -18q-60 -96 -119.5 -144t-115.5 -48zM328 645q-32 0 -55 23t-23 56t23 55.5t55 22.5q33 0 56 -22.5
t23 -55.5t-23 -56t-56 -23z" />
    <glyph glyph-name="uni0456" unicode="&#x457;" horiz-adv-x="346" 
d="M97 -13q-47 0 -60.5 29t11.5 92l114 285q9 22 4 26t-28 2l-59 -6l6 32l234 69l7 -6l-156 -391q-11 -29 -12.5 -43.5t11.5 -14.5q9 0 24 10.5t33 28.5t37 43t37 54l32 -18q-60 -96 -119.5 -144t-115.5 -48zM328 645q-32 0 -55 23t-23 56t23 55.5t55 22.5q33 0 56 -22.5
t23 -55.5t-23 -56t-56 -23z" />
    <glyph glyph-name="uni0458" unicode="&#x458;" horiz-adv-x="303" 
d="M144 47q-15 -38 -28 -66t-28.5 -51t-36 -42t-48.5 -38q-17 -11 -40 -25.5t-48.5 -30t-52 -31t-50.5 -28.5l-15 30q43 31 75.5 55.5t58.5 53t47.5 66t43.5 93.5l140 362q8 21 3 25.5t-28 2.5l-58 -6l6 32l231 69l7 -6zM325 645q-32 0 -55 23t-23 56t23 55.5t55 22.5
q33 0 56 -22.5t23 -55.5t-23 -56t-56 -23z" />
    <glyph glyph-name="uni0459" unicode="&#x459;" horiz-adv-x="716" 
d="M206 502h337l-80 -199q18 8 41.5 14t50.5 6q59 0 89.5 -31t30.5 -85q0 -37 -18.5 -76t-52.5 -71t-81 -52.5t-104 -20.5q-48 0 -80 14.5t-47 40.5t-13.5 62.5t19.5 81.5l103 258h-97l-109 -230q-30 -62 -57.5 -105t-53 -70t-48.5 -39t-43 -12q-23 0 -37 14t-14 35
q0 14 7 27.5t15 18.5q35 7 62.5 17t52 30.5t48.5 55.5t52 93l80 165h-77zM428 28q25 0 46.5 14.5t38 38.5t26 56t9.5 67q0 31 -13 50.5t-39 19.5q-15 0 -26.5 -3.5t-22.5 -8.5l-47 -117q-21 -53 -18 -85t46 -32z" />
    <glyph glyph-name="uni045A" unicode="&#x45a;" horiz-adv-x="748" 
d="M152 393q9 22 4 26t-28 2l-59 -6l6 32l236 69l7 -6l-97 -253l154 27l74 197l134 34l-81 -209q18 6 42 11.5t51 5.5q59 0 89.5 -31t30.5 -85q0 -37 -18.5 -76t-52.5 -71t-80.5 -52.5t-103.5 -20.5q-49 0 -80.5 14t-46.5 40.5t-13.5 63t18.5 81.5l20 53l-154 -27l-77 -202
l-131 -22zM441 148q-20 -54 -16.5 -87t43.5 -33q25 0 47 14.5t38.5 38.5t26 56t9.5 67q0 31 -13.5 50.5t-39.5 19.5q-14 0 -26 -2.5t-23 -5.5z" />
    <glyph glyph-name="uni045B" unicode="&#x45b;" horiz-adv-x="601" 
d="M223 660q10 28 10 37.5t-13 17.5l-57 35l2 6l234 76l-131 -379q-5 -14 -12 -33.5t-14.5 -38.5t-14 -35.5t-9.5 -23.5h2q40 52 74.5 89.5t65.5 61.5t59.5 35.5t58.5 11.5q31 0 47.5 -12t21 -34.5t-2.5 -53.5t-22 -69l-95 -232q-12 -29 -13.5 -43.5t11.5 -14.5
q10 0 25 10.5t32.5 28.5t37 43t37.5 54l31 -18q-59 -96 -119 -144t-116 -48q-47 0 -61 29t12 92l94 229q23 55 25 81t-21 26q-19 0 -50.5 -23.5t-66.5 -65t-70 -99t-60 -125.5l-38 -122l-127 -21zM128 640h314l-17 -46h-313z" />
    <glyph glyph-name="uni045F" unicode="&#x45f;" horiz-adv-x="621" 
d="M273 0q-21 -41 -30.5 -73t-9.5 -53q0 -27 32 -32l-8 -30q-64 0 -90 14t-26 44q0 36 31.5 67t73.5 63h27zM366 181h-3q-77 -101 -137 -147.5t-118 -46.5q-32 0 -48.5 12.5t-20.5 34.5t2.5 53t21.5 69l96 237q9 22 3.5 26t-28.5 2l-58 -5l6 32l235 69l7 -7l-137 -340
q-23 -56 -24.5 -81.5t21.5 -25.5q19 0 50.5 23.5t67 66.5t71.5 104t63 135l31 89l134 34l-153 -396q-11 -29 -12.5 -43.5t10.5 -14.5q10 0 25 10.5t32.5 28.5t37 43t37.5 54l31 -18q-59 -96 -119 -144t-116 -48q-46 0 -55 29.5t17 91.5z" />
    <glyph glyph-name="uni0491" unicode="&#x491;" horiz-adv-x="433" 
d="M318 459h-16q-12 0 -17.5 -4.5t-9.5 -15.5l-155 -439h-115l151 425q6 17 2.5 25t-23.5 10l-44 3l13 39h191q36 0 60.5 4t42 14.5t31.5 28.5t30 47l25 45h37l-63 -184z" />
    <glyph glyph-name="uni0463" unicode="&#x463;" horiz-adv-x="776" 
d="M734 207q0 -37 -18.5 -76t-52 -71t-80.5 -52.5t-104 -20.5q-48 0 -80 14.5t-47 40.5t-13.5 62.5t19.5 81.5l62 151q22 55 24.5 81t-20.5 26q-19 0 -50.5 -23.5t-66.5 -65t-70 -99t-60 -125.5l-41 -121l-131 -22l157 405q8 22 3 26t-28 2l-58 -6l6 32l226 69l7 -6
l-75 -184h2q78 101 137 147.5t117 46.5q31 0 48 -12t21.5 -34.5t-2.5 -53.5t-22 -69l-19 -47q18 8 40.5 13.5t49.5 5.5q59 0 89 -31t30 -85zM460 145q-22 -54 -18.5 -85.5t46.5 -31.5q25 0 46.5 14.5t38 38.5t26 56t9.5 67q0 31 -13 50.5t-39 19.5q-15 0 -26 -3t-22 -8z" />
    <glyph glyph-name="uni0473" unicode="&#x473;" horiz-adv-x="547" 
d="M178 -13q-41 0 -70.5 12.5t-49 33.5t-29 48.5t-9.5 56.5q0 47 15 93.5t41.5 89t61 79t74 63.5t80.5 42t80 15q40 0 70 -13t49.5 -34t29 -48.5t9.5 -56.5q0 -47 -15 -93.5t-41.5 -88.5t-61 -78.5t-74 -63.5t-80.5 -42t-80 -15zM174 276q37 18 63.5 23t45.5 2.5t32 -10
t24 -15t21.5 -12t23.5 -0.5q17 62 17 116q0 48 -13.5 71.5t-44.5 23.5q-27 0 -52 -16.5t-47 -44.5t-39.5 -63.5t-30.5 -74.5zM207 33q27 0 51.5 16t46 43t39 62.5t30.5 73.5q-32 -20 -54.5 -25t-40 -2t-31 11.5t-26 16.5t-26.5 12.5t-32 -0.5q-8 -30 -12 -59t-4 -55
q0 -94 59 -94z" />
    <glyph glyph-name="uni0475" unicode="&#x475;" horiz-adv-x="565" 
d="M194 -6h-71l10 406q0 18 -5.5 23.5t-23.5 2.5l-58 -9l-5 33l203 68l7 -6l-9 -381l184 267q43 62 76.5 92.5t73.5 30.5q27 0 39 -14.5t12 -31.5q0 -15 -5 -26.5t-14 -21.5q-36 -7 -61.5 -14t-45 -16.5t-35 -24.5t-31.5 -38z" />
    <glyph glyph-name="uni04AF" unicode="&#x4af;" horiz-adv-x="541" 
d="M217 5l-76 -253h-115l74 246l18 401q1 22 -5 26t-26 1l-56 -9l-5 33l204 68l7 -6l-26 -439l162 266q33 53 58.5 88t47.5 55.5t41 29t37 8.5q23 0 36 -13.5t13 -34.5q0 -17 -6 -29t-14 -17q-32 -8 -56.5 -16t-46 -22t-42 -36.5t-42.5 -58.5z" />
    <glyph glyph-name="uni04AF" unicode="&#x4b1;" horiz-adv-x="541" 
d="M217 5l-76 -253h-115l74 246l18 401q1 22 -5 26t-26 1l-56 -9l-5 33l204 68l7 -6l-26 -439l162 266q33 53 58.5 88t47.5 55.5t41 29t37 8.5q23 0 36 -13.5t13 -34.5q0 -17 -6 -29t-14 -17q-32 -8 -56.5 -16t-46 -22t-42 -36.5t-42.5 -58.5z" />
    <glyph glyph-name="uni04BB" unicode="&#x4bb;" horiz-adv-x="601" 
d="M223 660q10 28 10 37.5t-13 17.5l-57 35l2 6l234 76l-131 -379q-5 -14 -12 -33.5t-14.5 -38.5t-14 -35.5t-9.5 -23.5h2q40 52 74.5 89.5t65.5 61.5t59.5 35.5t58.5 11.5q31 0 47.5 -12t21 -34.5t-2.5 -53.5t-22 -69l-95 -232q-12 -29 -13.5 -43.5t11.5 -14.5
q10 0 25 10.5t32.5 28.5t37 43t37.5 54l31 -18q-59 -96 -119 -144t-116 -48q-47 0 -61 29t12 92l94 229q23 55 25 81t-21 26q-19 0 -50.5 -23.5t-66.5 -65t-70 -99t-60 -125.5l-38 -122l-127 -21z" />
    <glyph glyph-name="uni04CF" unicode="&#x4cf;" horiz-adv-x="335" 
d="M286 723q6 17 3 25t-23 10l-44 3l15 39h269l-15 -39l-46 -3q-21 -2 -29.5 -10t-14.5 -25l-238 -646q-6 -17 -3.5 -25t22.5 -10l44 -3l-14 -39h-269l14 39l46 3q22 2 30.5 10t14.5 25z" />
    <glyph glyph-name="uni04D9" unicode="&#x4d9;" horiz-adv-x="486" 
d="M333.979 520.968q57.9971 0 96.9941 -35.9971q38.998 -35.998 38.998 -101.994q0 -42.9971 -15.499 -88.9941q-15.499 -45.998 -41.498 -89.9951q-25.998 -43.9971 -60.9961 -83.4951q-34.998 -39.4971 -74.9951 -68.9951q-39.998 -29.498 -81.4951 -46.4971
q-41.498 -16.999 -81.4951 -16.999q-47.9971 0 -72.4961 20.998q-24.498 20.999 -24.498 55.9971q0 43.9971 21.999 73.4951q21.998 29.499 48.9961 48.4971q21.999 6 52.4971 13.999q30.498 8 63.4961 15.499q32.998 7.5 65.9961 15.5q32.998 7.99902 60.9961 13.999
q12 44.9971 12 92.9941q0 52.9971 -18.499 78.4951t-53.4971 25.498q-38.9971 0 -74.4951 -31.998t-74.4961 -94.9941l-29.998 17.999q20.999 35.998 45.4971 69.4961q24.499 33.498 53.9971 59.9961t64.4961 41.9971t77.9951 15.499zM154.99 30.998
q22.999 0 46.9971 13.999q23.999 13.999 45.9971 37.998q21.999 23.998 40.998 56.9961t31.998 69.9961q-22.999 -5 -43.4971 -9.99902q-20.499 -5 -37.498 -11q-36.998 -12.999 -60.9961 -27.498q-23.999 -14.499 -37.498 -30.498t-18.499 -31.998
q-4.99902 -15.999 -4.99902 -30.998q0 -36.998 36.9971 -36.998z" />
    <glyph glyph-name="uni04E9" unicode="&#x4e9;" horiz-adv-x="547" 
d="M178 -13q-41 0 -70.5 12.5t-49 33.5t-29 48.5t-9.5 56.5q0 47 15 93.5t41.5 89t61 79t74 63.5t80.5 42t80 15q40 0 70 -13t49.5 -34t29 -48.5t9.5 -56.5q0 -47 -15 -93.5t-41.5 -88.5t-61 -78.5t-74 -63.5t-80.5 -42t-80 -15zM343 475q-29 0 -55 -18.5t-48.5 -49
t-40.5 -69.5t-30 -80l222 34q5 23 7.5 45.5t2.5 42.5q0 48 -13.5 71.5t-44.5 23.5zM207 33q28 0 54.5 18t48.5 48t40 68.5t30 79.5l-222 -33q-5 -23 -7.5 -45t-2.5 -42q0 -94 59 -94z" />
    <glyph glyph-name="quoteright" unicode="&#x2019;" horiz-adv-x="281" 
d="M375 703q0 -33 -16.5 -66.5t-46.5 -65t-71 -59t-90 -47.5l-13 33q62 32 95 69t33 76q0 52 -79 72q6 44 34 63t62 19q39 0 65.5 -24.5t26.5 -69.5z" />
    <glyph glyph-name="bullet" unicode="&#x2022;" horiz-adv-x="421" 
d="M247 258q-26 0 -49 10t-40 27t-27 40.5t-10 49.5t10 49t27 40t40 27t49 10t49 -10t40.5 -27t27.5 -40t10 -49t-10 -49.5t-27.5 -40.5t-40.5 -27t-49 -10z" />
    <glyph glyph-name="glyph166" horiz-adv-x="673" 
d="M-106 -268q-35 0 -59 19.5t-24 45.5q0 20 13.5 36.5t37.5 16.5q11 -8 24 -18.5t27 -19.5t27.5 -15t25.5 -6q8 0 15 2.5t15 15.5l10 20t13 32t15 49t17 70l102 460h-95l7 28l102 34q26 66 61.5 112.5t82.5 87.5q51 42 98.5 62.5t79.5 20.5q23 0 35 -12t12 -30
q0 -22 -14.5 -43t-37.5 -28q-12 4 -27.5 7.5t-32 6.5t-31.5 5t-26 2q-14 0 -25 -5.5t-20.5 -20.5t-17.5 -41t-16 -67l-11 -57h212q26 77 61.5 133t83.5 96q51 42 98.5 63t79.5 21q22 0 34 -11.5t12 -29.5q0 -23 -14.5 -44t-37.5 -28q-12 4 -27.5 8t-31.5 7t-31 5t-26 2
q-14 0 -24 -5t-18 -20t-15.5 -41t-15.5 -68l-17 -88h149l-19 -62h-140l-71 -309q-23 -97 -57 -165.5t-73.5 -111.5t-81.5 -62.5t-79 -19.5q-36 0 -57 19.5t-21 45.5q0 20 14 36.5t37 16.5q11 -9 23 -19t24.5 -19t25 -15t24.5 -6q7 0 14.5 2.5t15.5 15.5q4 8 9.5 20t12.5 32
t15 49t17 71l93 419h-208l-80 -349q-23 -98 -57 -166t-74 -111t-82 -62.5t-80 -19.5z" />
    <glyph glyph-name="glyph168" horiz-adv-x="661" 
d="M496 440h-229l-80 -349q-23 -98 -57 -166t-74 -111t-82 -62.5t-80 -19.5q-35 0 -59 19.5t-24 45.5q0 20 13.5 36.5t37.5 16.5q11 -8 24 -18.5t27 -19.5t27.5 -15t25.5 -6q8 0 15 2.5t15 15.5l10 20t13 32t15 49t17 70l102 460h-95l7 28l102 34q26 77 61.5 133t83.5 96
q50 42 94 63t74 21q22 0 33 -11.5t11 -29.5q0 -23 -13.5 -43t-36.5 -27q-23 8 -54 14t-53 6q-14 0 -24 -5t-18 -20t-15.5 -41t-15.5 -68l-17 -88h362l-153 -383q-12 -29 -13.5 -43.5t11.5 -14.5q10 0 25 10.5t32.5 28.5t37 43t37.5 54l31 -18q-59 -96 -119 -144t-116 -48
q-47 0 -60 29t12 92zM643 645q-32 0 -54.5 23t-22.5 56t22.5 55.5t54.5 22.5q34 0 56.5 -22.5t22.5 -55.5t-22.5 -56t-56.5 -23z" />
    <glyph glyph-name="glyph170" horiz-adv-x="984" 
d="M-106 -268q-35 0 -59 19.5t-24 45.5q0 20 13.5 36.5t37.5 16.5q11 -8 24 -18.5t27 -19.5t27.5 -15t25.5 -6q8 0 15 2.5t15 15.5l10 20t13 32t15 49t17 70l102 460h-95l7 28l102 34q26 66 61.5 112.5t82.5 87.5q51 42 98.5 62.5t79.5 20.5q23 0 35 -12t12 -30
q0 -22 -14.5 -43t-37.5 -28q-12 4 -27.5 7.5t-32 6.5t-31.5 5t-26 2q-14 0 -25 -5.5t-20.5 -20.5t-17.5 -41t-16 -67l-11 -57h212q26 77 61.5 133t83.5 96q51 42 94.5 63t73.5 21q22 0 33 -11.5t11 -29.5q0 -23 -13 -43t-36 -27q-24 8 -54.5 14t-52.5 6q-14 0 -24 -5
t-18 -20t-15.5 -41t-15.5 -68l-17 -88h361l-153 -383q-24 -58 -1 -58q9 0 24 10.5t32.5 28.5t37 43t37.5 54l32 -18q-60 -96 -120 -144t-115 -48q-47 0 -60.5 29t11.5 92l133 332h-229l-71 -309q-23 -97 -57 -165.5t-73.5 -111.5t-81.5 -62.5t-79 -19.5q-36 0 -57 19.5
t-21 45.5q0 20 14 36.5t37 16.5q11 -9 23 -19t24.5 -19t25 -15t24.5 -6q7 0 14.5 2.5t15.5 15.5q4 8 9.5 20t12.5 32t15 49t17 71l93 419h-208l-80 -349q-23 -98 -57 -166t-74 -111t-82 -62.5t-80 -19.5zM966 645q-32 0 -55 23t-23 56t23 55.5t55 22.5q33 0 56 -22.5
t23 -55.5t-23 -56t-56 -23z" />
    <glyph glyph-name="glyph174" horiz-adv-x="0" 
d="M0 645q-32 0 -55 23t-23 56t23 55.5t55 22.5q33 0 56 -22.5t23 -55.5t-23 -56t-56 -23z" />
    <glyph glyph-name="glyph175" horiz-adv-x="0" 
d="M-151 636h314l-17 -46h-313z" />
    </font>
</defs>
</svg>
