<?xml version="1.0" encoding="UTF-8" standalone="no"?>
<!DOCTYPE svg PUBLIC "-//W3C//DTD SVG 1.1//EN"
 "http://www.w3.org/Graphics/SVG/1.1/DTD/svg11.dtd">
<!-- Generated by graphviz version 2.44.1 (20200629.0846)
 -->
<!-- Title: G Pages: 1 -->
<svg width="1890pt" height="925pt"
 viewBox="0.00 0.00 1890.20 925.20" xmlns="http://www.w3.org/2000/svg" xmlns:xlink="http://www.w3.org/1999/xlink">
<g id="graph0" class="graph" transform="scale(1 1) rotate(0) translate(21.6 903.6)">
<title>G</title>
<polygon fill="#111111" stroke="transparent" points="-21.6,21.6 -21.6,-903.6 1868.6,-903.6 1868.6,21.6 -21.6,21.6"/>
<!-- ../../dom/modules/assign.js -->
<g id="node1" class="node">
<title>../../dom/modules/assign.js</title>
<path fill="none" stroke="#c6c5fe" d="M916.33,-726C916.33,-726 753.67,-726 753.67,-726 749.83,-726 746,-722.17 746,-718.33 746,-718.33 746,-710.67 746,-710.67 746,-706.83 749.83,-703 753.67,-703 753.67,-703 916.33,-703 916.33,-703 920.17,-703 924,-706.83 924,-710.67 924,-710.67 924,-718.33 924,-718.33 924,-722.17 920.17,-726 916.33,-726"/>
<text text-anchor="middle" x="835" y="-710.8" font-family="Arial" font-size="14.00" fill="#c6c5fe">../../dom/modules/assign.js</text>
</g>
<!-- ../../fn/modules/curry.js -->
<g id="node2" class="node">
<title>../../fn/modules/curry.js</title>
<path fill="none" stroke="#c6c5fe" d="M1643.83,-352C1643.83,-352 1507.17,-352 1507.17,-352 1503.33,-352 1499.5,-348.17 1499.5,-344.33 1499.5,-344.33 1499.5,-336.67 1499.5,-336.67 1499.5,-332.83 1503.33,-329 1507.17,-329 1507.17,-329 1643.83,-329 1643.83,-329 1647.67,-329 1651.5,-332.83 1651.5,-336.67 1651.5,-336.67 1651.5,-344.33 1651.5,-344.33 1651.5,-348.17 1647.67,-352 1643.83,-352"/>
<text text-anchor="middle" x="1575.5" y="-336.8" font-family="Arial" font-size="14.00" fill="#c6c5fe">../../fn/modules/curry.js</text>
</g>
<!-- ../../dom/modules/assign.js&#45;&gt;../../fn/modules/curry.js -->
<g id="edge1" class="edge">
<title>../../dom/modules/assign.js&#45;&gt;../../fn/modules/curry.js</title>
<path fill="none" stroke="#757575" d="M924.19,-706.74C1078.71,-691.31 1389.02,-651.5 1463,-575.5 1521.73,-515.16 1451.93,-459.32 1499,-389.5 1508.31,-375.68 1522.97,-364.87 1536.9,-356.97"/>
<polygon fill="#757575" stroke="#757575" points="1538.7,-359.97 1545.89,-352.18 1535.41,-353.79 1538.7,-359.97"/>
</g>
<!-- ../../fn/modules/id.js -->
<g id="node3" class="node">
<title>../../fn/modules/id.js</title>
<path fill="none" stroke="#cfffac" d="M1153.33,-626C1153.33,-626 1034.67,-626 1034.67,-626 1030.83,-626 1027,-622.17 1027,-618.33 1027,-618.33 1027,-610.67 1027,-610.67 1027,-606.83 1030.83,-603 1034.67,-603 1034.67,-603 1153.33,-603 1153.33,-603 1157.17,-603 1161,-606.83 1161,-610.67 1161,-610.67 1161,-618.33 1161,-618.33 1161,-622.17 1157.17,-626 1153.33,-626"/>
<text text-anchor="middle" x="1094" y="-610.8" font-family="Arial" font-size="14.00" fill="#cfffac">../../fn/modules/id.js</text>
</g>
<!-- ../../dom/modules/assign.js&#45;&gt;../../fn/modules/id.js -->
<g id="edge2" class="edge">
<title>../../dom/modules/assign.js&#45;&gt;../../fn/modules/id.js</title>
<path fill="none" stroke="#757575" d="M924.21,-703.94C937.09,-700.22 949.78,-695.22 961,-688.5 982.39,-675.7 976.33,-659.43 997,-645.5 1006.87,-638.85 1018.27,-633.54 1029.68,-629.34"/>
<polygon fill="#757575" stroke="#757575" points="1030.92,-632.61 1039.25,-626.06 1028.65,-625.99 1030.92,-632.61"/>
</g>
<!-- ../../fn/modules/noop.js -->
<g id="node4" class="node">
<title>../../fn/modules/noop.js</title>
<path fill="none" stroke="#cfffac" d="M1644.33,-422C1644.33,-422 1506.67,-422 1506.67,-422 1502.83,-422 1499,-418.17 1499,-414.33 1499,-414.33 1499,-406.67 1499,-406.67 1499,-402.83 1502.83,-399 1506.67,-399 1506.67,-399 1644.33,-399 1644.33,-399 1648.17,-399 1652,-402.83 1652,-406.67 1652,-406.67 1652,-414.33 1652,-414.33 1652,-418.17 1648.17,-422 1644.33,-422"/>
<text text-anchor="middle" x="1575.5" y="-406.8" font-family="Arial" font-size="14.00" fill="#cfffac">../../fn/modules/noop.js</text>
</g>
<!-- ../../dom/modules/assign.js&#45;&gt;../../fn/modules/noop.js -->
<g id="edge3" class="edge">
<title>../../dom/modules/assign.js&#45;&gt;../../fn/modules/noop.js</title>
<path fill="none" stroke="#757575" d="M924.19,-719.77C1076.06,-727.07 1378.79,-733.31 1463,-673.5 1545.12,-615.18 1567.12,-483.86 1572.7,-432.08"/>
<polygon fill="#757575" stroke="#757575" points="1576.2,-432.32 1573.69,-422.03 1569.23,-431.64 1576.2,-432.32"/>
</g>
<!-- ../../fn/modules/overload.js -->
<g id="node5" class="node">
<title>../../fn/modules/overload.js</title>
<path fill="none" stroke="#cfffac" d="M1173.83,-764C1173.83,-764 1014.17,-764 1014.17,-764 1010.33,-764 1006.5,-760.17 1006.5,-756.33 1006.5,-756.33 1006.5,-748.67 1006.5,-748.67 1006.5,-744.83 1010.33,-741 1014.17,-741 1014.17,-741 1173.83,-741 1173.83,-741 1177.67,-741 1181.5,-744.83 1181.5,-748.67 1181.5,-748.67 1181.5,-756.33 1181.5,-756.33 1181.5,-760.17 1177.67,-764 1173.83,-764"/>
<text text-anchor="middle" x="1094" y="-748.8" font-family="Arial" font-size="14.00" fill="#cfffac">../../fn/modules/overload.js</text>
</g>
<!-- ../../dom/modules/assign.js&#45;&gt;../../fn/modules/overload.js -->
<g id="edge4" class="edge">
<title>../../dom/modules/assign.js&#45;&gt;../../fn/modules/overload.js</title>
<path fill="none" stroke="#757575" d="M913.81,-726C942.61,-730.26 975.46,-735.12 1005.1,-739.5"/>
<polygon fill="#757575" stroke="#757575" points="1004.61,-742.97 1015.02,-740.97 1005.63,-736.04 1004.61,-742.97"/>
</g>
<!-- ../../fn/modules/cache.js -->
<g id="node13" class="node">
<title>../../fn/modules/cache.js</title>
<path fill="none" stroke="#cfffac" d="M1839.33,-578C1839.33,-578 1695.67,-578 1695.67,-578 1691.83,-578 1688,-574.17 1688,-570.33 1688,-570.33 1688,-562.67 1688,-562.67 1688,-558.83 1691.83,-555 1695.67,-555 1695.67,-555 1839.33,-555 1839.33,-555 1843.17,-555 1847,-558.83 1847,-562.67 1847,-562.67 1847,-570.33 1847,-570.33 1847,-574.17 1843.17,-578 1839.33,-578"/>
<text text-anchor="middle" x="1767.5" y="-562.8" font-family="Arial" font-size="14.00" fill="#cfffac">../../fn/modules/cache.js</text>
</g>
<!-- ../../fn/modules/curry.js&#45;&gt;../../fn/modules/cache.js -->
<g id="edge20" class="edge">
<title>../../fn/modules/curry.js&#45;&gt;../../fn/modules/cache.js</title>
<path fill="none" stroke="#757575" d="M1599.44,-352.03C1615.41,-360.82 1636.54,-374.02 1652,-389.5 1700.48,-438.06 1739.37,-510.43 1756.71,-545.69"/>
<polygon fill="#757575" stroke="#757575" points="1753.7,-547.51 1761.2,-554.99 1760,-544.46 1753.7,-547.51"/>
</g>
<!-- ../../dom/modules/create.js -->
<g id="node6" class="node">
<title>../../dom/modules/create.js</title>
<path fill="none" stroke="#c6c5fe" d="M621.33,-706C621.33,-706 460.67,-706 460.67,-706 456.83,-706 453,-702.17 453,-698.33 453,-698.33 453,-690.67 453,-690.67 453,-686.83 456.83,-683 460.67,-683 460.67,-683 621.33,-683 621.33,-683 625.17,-683 629,-686.83 629,-690.67 629,-690.67 629,-698.33 629,-698.33 629,-702.17 625.17,-706 621.33,-706"/>
<text text-anchor="middle" x="541" y="-690.8" font-family="Arial" font-size="14.00" fill="#c6c5fe">../../dom/modules/create.js</text>
</g>
<!-- ../../dom/modules/create.js&#45;&gt;../../dom/modules/assign.js -->
<g id="edge5" class="edge">
<title>../../dom/modules/create.js&#45;&gt;../../dom/modules/assign.js</title>
<path fill="none" stroke="#757575" d="M629.21,-700.47C662.79,-702.77 701.34,-705.41 735.87,-707.78"/>
<polygon fill="#757575" stroke="#757575" points="735.76,-711.28 745.97,-708.47 736.24,-704.3 735.76,-711.28"/>
</g>
<!-- ../../dom/modules/create.js&#45;&gt;../../fn/modules/id.js -->
<g id="edge6" class="edge">
<title>../../dom/modules/create.js&#45;&gt;../../fn/modules/id.js</title>
<path fill="none" stroke="#757575" d="M629.03,-691.68C714.31,-687.68 847.62,-678.13 961,-655.5 969.73,-653.76 1012.67,-640.27 1047.24,-629.23"/>
<polygon fill="#757575" stroke="#757575" points="1048.73,-632.42 1057.19,-626.04 1046.6,-625.76 1048.73,-632.42"/>
</g>
<!-- ../../dom/modules/create.js&#45;&gt;../../fn/modules/overload.js -->
<g id="edge7" class="edge">
<title>../../dom/modules/create.js&#45;&gt;../../fn/modules/overload.js</title>
<path fill="none" stroke="#757575" d="M561.14,-706.19C591.28,-723.83 652.22,-756.48 709,-768.5 816.92,-791.34 945.61,-778.01 1023.22,-765.7"/>
<polygon fill="#757575" stroke="#757575" points="1024.05,-769.11 1033.36,-764.05 1022.93,-762.2 1024.05,-769.11"/>
</g>
<!-- ../../fn/modules/to&#45;type.js -->
<g id="node7" class="node">
<title>../../fn/modules/to&#45;type.js</title>
<path fill="none" stroke="#cfffac" d="M909.33,-882C909.33,-882 760.67,-882 760.67,-882 756.83,-882 753,-878.17 753,-874.33 753,-874.33 753,-866.67 753,-866.67 753,-862.83 756.83,-859 760.67,-859 760.67,-859 909.33,-859 909.33,-859 913.17,-859 917,-862.83 917,-866.67 917,-866.67 917,-874.33 917,-874.33 917,-878.17 913.17,-882 909.33,-882"/>
<text text-anchor="middle" x="835" y="-866.8" font-family="Arial" font-size="14.00" fill="#cfffac">../../fn/modules/to&#45;type.js</text>
</g>
<!-- ../../dom/modules/create.js&#45;&gt;../../fn/modules/to&#45;type.js -->
<g id="edge8" class="edge">
<title>../../dom/modules/create.js&#45;&gt;../../fn/modules/to&#45;type.js</title>
<path fill="none" stroke="#757575" d="M551.09,-706.11C574.14,-734.67 638.06,-808.6 709,-844.5 719.58,-849.86 731.21,-854.11 742.97,-857.49"/>
<polygon fill="#757575" stroke="#757575" points="742.3,-860.93 752.86,-860.12 744.1,-854.16 742.3,-860.93"/>
</g>
<!-- ../../dom/modules/element.js -->
<g id="node8" class="node">
<title>../../dom/modules/element.js</title>
<path fill="none" stroke="#c6c5fe" d="M345.83,-646C345.83,-646 173.17,-646 173.17,-646 169.33,-646 165.5,-642.17 165.5,-638.33 165.5,-638.33 165.5,-630.67 165.5,-630.67 165.5,-626.83 169.33,-623 173.17,-623 173.17,-623 345.83,-623 345.83,-623 349.67,-623 353.5,-626.83 353.5,-630.67 353.5,-630.67 353.5,-638.33 353.5,-638.33 353.5,-642.17 349.67,-646 345.83,-646"/>
<text text-anchor="middle" x="259.5" y="-630.8" font-family="Arial" font-size="14.00" fill="#c6c5fe">../../dom/modules/element.js</text>
</g>
<!-- ../../dom/modules/element.js&#45;&gt;../../dom/modules/create.js -->
<g id="edge9" class="edge">
<title>../../dom/modules/element.js&#45;&gt;../../dom/modules/create.js</title>
<path fill="none" stroke="#757575" d="M314.39,-646.07C360.69,-656.01 427.53,-670.36 476.43,-680.85"/>
<polygon fill="#757575" stroke="#757575" points="475.76,-684.29 486.28,-682.97 477.23,-677.45 475.76,-684.29"/>
</g>
<!-- ../../dom/modules/request&#45;template.js -->
<g id="node9" class="node">
<title>../../dom/modules/request&#45;template.js</title>
<path fill="none" stroke="#c6c5fe" d="M653.83,-646C653.83,-646 428.17,-646 428.17,-646 424.33,-646 420.5,-642.17 420.5,-638.33 420.5,-638.33 420.5,-630.67 420.5,-630.67 420.5,-626.83 424.33,-623 428.17,-623 428.17,-623 653.83,-623 653.83,-623 657.67,-623 661.5,-626.83 661.5,-630.67 661.5,-630.67 661.5,-638.33 661.5,-638.33 661.5,-642.17 657.67,-646 653.83,-646"/>
<text text-anchor="middle" x="541" y="-630.8" font-family="Arial" font-size="14.00" fill="#c6c5fe">../../dom/modules/request&#45;template.js</text>
</g>
<!-- ../../dom/modules/element.js&#45;&gt;../../dom/modules/request&#45;template.js -->
<g id="edge10" class="edge">
<title>../../dom/modules/element.js&#45;&gt;../../dom/modules/request&#45;template.js</title>
<path fill="none" stroke="#757575" d="M353.57,-634.5C371.83,-634.5 391.28,-634.5 410.48,-634.5"/>
<polygon fill="#757575" stroke="#757575" points="410.49,-638 420.49,-634.5 410.49,-631 410.49,-638"/>
</g>
<!-- ../../dom/modules/parse.js -->
<g id="node11" class="node">
<title>../../dom/modules/parse.js</title>
<path fill="none" stroke="#cfffac" d="M913.83,-646C913.83,-646 756.17,-646 756.17,-646 752.33,-646 748.5,-642.17 748.5,-638.33 748.5,-638.33 748.5,-630.67 748.5,-630.67 748.5,-626.83 752.33,-623 756.17,-623 756.17,-623 913.83,-623 913.83,-623 917.67,-623 921.5,-626.83 921.5,-630.67 921.5,-630.67 921.5,-638.33 921.5,-638.33 921.5,-642.17 917.67,-646 913.83,-646"/>
<text text-anchor="middle" x="835" y="-630.8" font-family="Arial" font-size="14.00" fill="#cfffac">../../dom/modules/parse.js</text>
</g>
<!-- ../../dom/modules/request&#45;template.js&#45;&gt;../../dom/modules/parse.js -->
<g id="edge11" class="edge">
<title>../../dom/modules/request&#45;template.js&#45;&gt;../../dom/modules/parse.js</title>
<path fill="none" stroke="#757575" d="M661.61,-634.5C686.97,-634.5 713.42,-634.5 737.78,-634.5"/>
<polygon fill="#757575" stroke="#757575" points="738.08,-638 748.08,-634.5 738.08,-631 738.08,-638"/>
</g>
<!-- ../../dom/modules/request.js -->
<g id="node12" class="node">
<title>../../dom/modules/request.js</title>
<path fill="none" stroke="#c6c5fe" d="M919.33,-566C919.33,-566 750.67,-566 750.67,-566 746.83,-566 743,-562.17 743,-558.33 743,-558.33 743,-550.67 743,-550.67 743,-546.83 746.83,-543 750.67,-543 750.67,-543 919.33,-543 919.33,-543 923.17,-543 927,-546.83 927,-550.67 927,-550.67 927,-558.33 927,-558.33 927,-562.17 923.17,-566 919.33,-566"/>
<text text-anchor="middle" x="835" y="-550.8" font-family="Arial" font-size="14.00" fill="#c6c5fe">../../dom/modules/request.js</text>
</g>
<!-- ../../dom/modules/request&#45;template.js&#45;&gt;../../dom/modules/request.js -->
<g id="edge12" class="edge">
<title>../../dom/modules/request&#45;template.js&#45;&gt;../../dom/modules/request.js</title>
<path fill="none" stroke="#757575" d="M584.15,-622.95C636.44,-608.63 725.6,-584.2 782.06,-568.73"/>
<polygon fill="#757575" stroke="#757575" points="783.15,-572.06 791.87,-566.04 781.3,-565.31 783.15,-572.06"/>
</g>
<!-- ../../dom/modules/request&#45;template.js&#45;&gt;../../fn/modules/cache.js -->
<g id="edge13" class="edge">
<title>../../dom/modules/request&#45;template.js&#45;&gt;../../fn/modules/cache.js</title>
<path fill="none" stroke="#757575" d="M619.65,-646.03C638.87,-651.96 658.18,-660.93 673,-674.5 704.47,-703.31 674.54,-738.33 709,-763.5 847.21,-864.46 921.85,-792.5 1093,-792.5 1093,-792.5 1093,-792.5 1346,-792.5 1520.58,-792.5 1692.55,-639.49 1748.02,-585.27"/>
<polygon fill="#757575" stroke="#757575" points="1750.7,-587.54 1755.34,-578.02 1745.77,-582.57 1750.7,-587.54"/>
</g>
<!-- ../../dom/modules/event.js -->
<g id="node10" class="node">
<title>../../dom/modules/event.js</title>
<path fill="none" stroke="#cfffac" d="M619.33,-23C619.33,-23 462.67,-23 462.67,-23 458.83,-23 455,-19.17 455,-15.33 455,-15.33 455,-7.67 455,-7.67 455,-3.83 458.83,0 462.67,0 462.67,0 619.33,0 619.33,0 623.17,0 627,-3.83 627,-7.67 627,-7.67 627,-15.33 627,-15.33 627,-19.17 623.17,-23 619.33,-23"/>
<text text-anchor="middle" x="541" y="-7.8" font-family="Arial" font-size="14.00" fill="#cfffac">../../dom/modules/event.js</text>
</g>
<!-- ../../dom/modules/request.js&#45;&gt;../../fn/modules/id.js -->
<g id="edge15" class="edge">
<title>../../dom/modules/request.js&#45;&gt;../../fn/modules/id.js</title>
<path fill="none" stroke="#757575" d="M894.32,-566.04C915.38,-570.36 939.3,-575.45 961,-580.5 987.34,-586.63 1016.46,-594.06 1040.63,-600.41"/>
<polygon fill="#757575" stroke="#757575" points="1039.76,-603.8 1050.32,-602.96 1041.55,-597.03 1039.76,-603.8"/>
</g>
<!-- ../../fn/modules/choose.js -->
<g id="node14" class="node">
<title>../../fn/modules/choose.js</title>
<path fill="none" stroke="#c6c5fe" d="M1169.83,-566C1169.83,-566 1018.17,-566 1018.17,-566 1014.33,-566 1010.5,-562.17 1010.5,-558.33 1010.5,-558.33 1010.5,-550.67 1010.5,-550.67 1010.5,-546.83 1014.33,-543 1018.17,-543 1018.17,-543 1169.83,-543 1169.83,-543 1173.67,-543 1177.5,-546.83 1177.5,-550.67 1177.5,-550.67 1177.5,-558.33 1177.5,-558.33 1177.5,-562.17 1173.67,-566 1169.83,-566"/>
<text text-anchor="middle" x="1094" y="-550.8" font-family="Arial" font-size="14.00" fill="#c6c5fe">../../fn/modules/choose.js</text>
</g>
<!-- ../../dom/modules/request.js&#45;&gt;../../fn/modules/choose.js -->
<g id="edge14" class="edge">
<title>../../dom/modules/request.js&#45;&gt;../../fn/modules/choose.js</title>
<path fill="none" stroke="#757575" d="M927.33,-554.5C950.94,-554.5 976.38,-554.5 1000.07,-554.5"/>
<polygon fill="#757575" stroke="#757575" points="1000.1,-558 1010.1,-554.5 1000.1,-551 1000.1,-558"/>
</g>
<!-- ../../fn/modules/nothing.js -->
<g id="node15" class="node">
<title>../../fn/modules/nothing.js</title>
<path fill="none" stroke="#c6c5fe" d="M1169.83,-442C1169.83,-442 1018.17,-442 1018.17,-442 1014.33,-442 1010.5,-438.17 1010.5,-434.33 1010.5,-434.33 1010.5,-426.67 1010.5,-426.67 1010.5,-422.83 1014.33,-419 1018.17,-419 1018.17,-419 1169.83,-419 1169.83,-419 1173.67,-419 1177.5,-422.83 1177.5,-426.67 1177.5,-426.67 1177.5,-434.33 1177.5,-434.33 1177.5,-438.17 1173.67,-442 1169.83,-442"/>
<text text-anchor="middle" x="1094" y="-426.8" font-family="Arial" font-size="14.00" fill="#c6c5fe">../../fn/modules/nothing.js</text>
</g>
<!-- ../../dom/modules/request.js&#45;&gt;../../fn/modules/nothing.js -->
<g id="edge16" class="edge">
<title>../../dom/modules/request.js&#45;&gt;../../fn/modules/nothing.js</title>
<path fill="none" stroke="#757575" d="M927.02,-545.54C938.72,-542.77 950.33,-539.17 961,-534.5 1007.34,-514.2 1051.46,-473.68 1075.11,-449.65"/>
<polygon fill="#757575" stroke="#757575" points="1077.89,-451.81 1082.32,-442.19 1072.86,-446.95 1077.89,-451.81"/>
</g>
<!-- ../../fn/modules/lists/rest.js -->
<g id="node18" class="node">
<title>../../fn/modules/lists/rest.js</title>
<path fill="none" stroke="#cfffac" d="M1423.83,-566C1423.83,-566 1266.17,-566 1266.17,-566 1262.33,-566 1258.5,-562.17 1258.5,-558.33 1258.5,-558.33 1258.5,-550.67 1258.5,-550.67 1258.5,-546.83 1262.33,-543 1266.17,-543 1266.17,-543 1423.83,-543 1423.83,-543 1427.67,-543 1431.5,-546.83 1431.5,-550.67 1431.5,-550.67 1431.5,-558.33 1431.5,-558.33 1431.5,-562.17 1427.67,-566 1423.83,-566"/>
<text text-anchor="middle" x="1345" y="-550.8" font-family="Arial" font-size="14.00" fill="#cfffac">../../fn/modules/lists/rest.js</text>
</g>
<!-- ../../fn/modules/choose.js&#45;&gt;../../fn/modules/lists/rest.js -->
<g id="edge19" class="edge">
<title>../../fn/modules/choose.js&#45;&gt;../../fn/modules/lists/rest.js</title>
<path fill="none" stroke="#757575" d="M1177.57,-554.5C1200.13,-554.5 1224.78,-554.5 1248.03,-554.5"/>
<polygon fill="#757575" stroke="#757575" points="1248.25,-558 1258.25,-554.5 1248.24,-551 1248.25,-558"/>
</g>
<!-- ../../fn/modules/nothing.js&#45;&gt;../../fn/modules/noop.js -->
<g id="edge28" class="edge">
<title>../../fn/modules/nothing.js&#45;&gt;../../fn/modules/noop.js</title>
<path fill="none" stroke="#757575" d="M1177.7,-427.05C1264.55,-423.43 1400.48,-417.76 1488.54,-414.09"/>
<polygon fill="#757575" stroke="#757575" points="1488.92,-417.57 1498.76,-413.66 1488.63,-410.58 1488.92,-417.57"/>
</g>
<!-- ../../dom/modules/trigger.js -->
<g id="node16" class="node">
<title>../../dom/modules/trigger.js</title>
<path fill="none" stroke="#c6c5fe" d="M339.83,-64C339.83,-64 179.17,-64 179.17,-64 175.33,-64 171.5,-60.17 171.5,-56.33 171.5,-56.33 171.5,-48.67 171.5,-48.67 171.5,-44.83 175.33,-41 179.17,-41 179.17,-41 339.83,-41 339.83,-41 343.67,-41 347.5,-44.83 347.5,-48.67 347.5,-48.67 347.5,-56.33 347.5,-56.33 347.5,-60.17 343.67,-64 339.83,-64"/>
<text text-anchor="middle" x="259.5" y="-48.8" font-family="Arial" font-size="14.00" fill="#c6c5fe">../../dom/modules/trigger.js</text>
</g>
<!-- ../../dom/modules/trigger.js&#45;&gt;../../dom/modules/event.js -->
<g id="edge17" class="edge">
<title>../../dom/modules/trigger.js&#45;&gt;../../dom/modules/event.js</title>
<path fill="none" stroke="#757575" d="M339.1,-40.97C374.08,-35.84 415.42,-29.77 451.48,-24.48"/>
<polygon fill="#757575" stroke="#757575" points="452.12,-27.93 461.51,-23.01 451.1,-21 452.12,-27.93"/>
</g>
<!-- ../../fn/modules/by.js -->
<g id="node17" class="node">
<title>../../fn/modules/by.js</title>
<path fill="none" stroke="#c6c5fe" d="M1405.83,-294C1405.83,-294 1284.17,-294 1284.17,-294 1280.33,-294 1276.5,-290.17 1276.5,-286.33 1276.5,-286.33 1276.5,-278.67 1276.5,-278.67 1276.5,-274.83 1280.33,-271 1284.17,-271 1284.17,-271 1405.83,-271 1405.83,-271 1409.67,-271 1413.5,-274.83 1413.5,-278.67 1413.5,-278.67 1413.5,-286.33 1413.5,-286.33 1413.5,-290.17 1409.67,-294 1405.83,-294"/>
<text text-anchor="middle" x="1345" y="-278.8" font-family="Arial" font-size="14.00" fill="#c6c5fe">../../fn/modules/by.js</text>
</g>
<!-- ../../fn/modules/by.js&#45;&gt;../../fn/modules/curry.js -->
<g id="edge18" class="edge">
<title>../../fn/modules/by.js&#45;&gt;../../fn/modules/curry.js</title>
<path fill="none" stroke="#757575" d="M1391.42,-294.03C1428.17,-303.36 1480.09,-316.53 1519.25,-326.48"/>
<polygon fill="#757575" stroke="#757575" points="1518.61,-329.93 1529.17,-328.99 1520.34,-323.14 1518.61,-329.93"/>
</g>
<!-- ../../fn/modules/denormalisers.js -->
<g id="node19" class="node">
<title>../../fn/modules/denormalisers.js</title>
<path fill="none" stroke="#c6c5fe" d="M931.83,-325C931.83,-325 738.17,-325 738.17,-325 734.33,-325 730.5,-321.17 730.5,-317.33 730.5,-317.33 730.5,-309.67 730.5,-309.67 730.5,-305.83 734.33,-302 738.17,-302 738.17,-302 931.83,-302 931.83,-302 935.67,-302 939.5,-305.83 939.5,-309.67 939.5,-309.67 939.5,-317.33 939.5,-317.33 939.5,-321.17 935.67,-325 931.83,-325"/>
<text text-anchor="middle" x="835" y="-309.8" font-family="Arial" font-size="14.00" fill="#c6c5fe">../../fn/modules/denormalisers.js</text>
</g>
<!-- ../../fn/modules/maths/cubic&#45;bezier.js -->
<g id="node20" class="node">
<title>../../fn/modules/maths/cubic&#45;bezier.js</title>
<path fill="none" stroke="#c6c5fe" d="M1455.33,-352C1455.33,-352 1234.67,-352 1234.67,-352 1230.83,-352 1227,-348.17 1227,-344.33 1227,-344.33 1227,-336.67 1227,-336.67 1227,-332.83 1230.83,-329 1234.67,-329 1234.67,-329 1455.33,-329 1455.33,-329 1459.17,-329 1463,-332.83 1463,-336.67 1463,-336.67 1463,-344.33 1463,-344.33 1463,-348.17 1459.17,-352 1455.33,-352"/>
<text text-anchor="middle" x="1345" y="-336.8" font-family="Arial" font-size="14.00" fill="#c6c5fe">../../fn/modules/maths/cubic&#45;bezier.js</text>
</g>
<!-- ../../fn/modules/denormalisers.js&#45;&gt;../../fn/modules/maths/cubic&#45;bezier.js -->
<g id="edge21" class="edge">
<title>../../fn/modules/denormalisers.js&#45;&gt;../../fn/modules/maths/cubic&#45;bezier.js</title>
<path fill="none" stroke="#757575" d="M939.72,-319.01C1019.83,-323.27 1131.09,-329.18 1216.61,-333.73"/>
<polygon fill="#757575" stroke="#757575" points="1216.48,-337.23 1226.65,-334.26 1216.85,-330.24 1216.48,-337.23"/>
</g>
<!-- ../../fn/modules/normalisers.js -->
<g id="node21" class="node">
<title>../../fn/modules/normalisers.js</title>
<path fill="none" stroke="#c6c5fe" d="M1183.33,-401C1183.33,-401 1004.67,-401 1004.67,-401 1000.83,-401 997,-397.17 997,-393.33 997,-393.33 997,-385.67 997,-385.67 997,-381.83 1000.83,-378 1004.67,-378 1004.67,-378 1183.33,-378 1183.33,-378 1187.17,-378 1191,-381.83 1191,-385.67 1191,-385.67 1191,-393.33 1191,-393.33 1191,-397.17 1187.17,-401 1183.33,-401"/>
<text text-anchor="middle" x="1094" y="-385.8" font-family="Arial" font-size="14.00" fill="#c6c5fe">../../fn/modules/normalisers.js</text>
</g>
<!-- ../../fn/modules/denormalisers.js&#45;&gt;../../fn/modules/normalisers.js -->
<g id="edge22" class="edge">
<title>../../fn/modules/denormalisers.js&#45;&gt;../../fn/modules/normalisers.js</title>
<path fill="none" stroke="#757575" d="M914.41,-325.01C930.18,-328.65 946.38,-333.38 961,-339.5 978.74,-346.93 979.49,-355.55 997,-363.5 1006.93,-368.01 1017.81,-371.88 1028.55,-375.14"/>
<polygon fill="#757575" stroke="#757575" points="1027.78,-378.56 1038.36,-377.98 1029.72,-371.84 1027.78,-378.56"/>
</g>
<!-- ../../fn/modules/types.js -->
<g id="node22" class="node">
<title>../../fn/modules/types.js</title>
<path fill="none" stroke="#c6c5fe" d="M1414.83,-401C1414.83,-401 1275.17,-401 1275.17,-401 1271.33,-401 1267.5,-397.17 1267.5,-393.33 1267.5,-393.33 1267.5,-385.67 1267.5,-385.67 1267.5,-381.83 1271.33,-378 1275.17,-378 1275.17,-378 1414.83,-378 1414.83,-378 1418.67,-378 1422.5,-381.83 1422.5,-385.67 1422.5,-385.67 1422.5,-393.33 1422.5,-393.33 1422.5,-397.17 1418.67,-401 1414.83,-401"/>
<text text-anchor="middle" x="1345" y="-385.8" font-family="Arial" font-size="14.00" fill="#c6c5fe">../../fn/modules/types.js</text>
</g>
<!-- ../../fn/modules/denormalisers.js&#45;&gt;../../fn/modules/types.js -->
<g id="edge23" class="edge">
<title>../../fn/modules/denormalisers.js&#45;&gt;../../fn/modules/types.js</title>
<path fill="none" stroke="#757575" d="M912.88,-325C1005.43,-338.85 1160.47,-362.04 1257.23,-376.52"/>
<polygon fill="#757575" stroke="#757575" points="1256.87,-380 1267.28,-378.02 1257.91,-373.08 1256.87,-380"/>
</g>
<!-- ../../fn/modules/maths/cubic&#45;bezier.js&#45;&gt;../../fn/modules/curry.js -->
<g id="edge25" class="edge">
<title>../../fn/modules/maths/cubic&#45;bezier.js&#45;&gt;../../fn/modules/curry.js</title>
<path fill="none" stroke="#757575" d="M1463.26,-340.5C1471.99,-340.5 1480.69,-340.5 1489.16,-340.5"/>
<polygon fill="#757575" stroke="#757575" points="1489.37,-344 1499.37,-340.5 1489.37,-337 1489.37,-344"/>
</g>
<!-- ../../fn/modules/normalisers.js&#45;&gt;../../fn/modules/maths/cubic&#45;bezier.js -->
<g id="edge26" class="edge">
<title>../../fn/modules/normalisers.js&#45;&gt;../../fn/modules/maths/cubic&#45;bezier.js</title>
<path fill="none" stroke="#757575" d="M1153.69,-377.95C1190.12,-370.78 1237.1,-361.54 1275.26,-354.03"/>
<polygon fill="#757575" stroke="#757575" points="1276.13,-357.42 1285.27,-352.06 1274.78,-350.55 1276.13,-357.42"/>
</g>
<!-- ../../fn/modules/normalisers.js&#45;&gt;../../fn/modules/types.js -->
<g id="edge27" class="edge">
<title>../../fn/modules/normalisers.js&#45;&gt;../../fn/modules/types.js</title>
<path fill="none" stroke="#757575" d="M1191.27,-389.5C1212.91,-389.5 1235.75,-389.5 1256.99,-389.5"/>
<polygon fill="#757575" stroke="#757575" points="1257.27,-393 1267.27,-389.5 1257.27,-386 1257.27,-393"/>
</g>
<!-- ../../fn/modules/types.js&#45;&gt;../../fn/modules/noop.js -->
<g id="edge33" class="edge">
<title>../../fn/modules/types.js&#45;&gt;../../fn/modules/noop.js</title>
<path fill="none" stroke="#757575" d="M1422.72,-396.55C1443.88,-398.5 1466.96,-400.62 1488.6,-402.61"/>
<polygon fill="#757575" stroke="#757575" points="1488.48,-406.11 1498.76,-403.54 1489.12,-399.14 1488.48,-406.11"/>
</g>
<!-- ../../fn/modules/get.js -->
<g id="node23" class="node">
<title>../../fn/modules/get.js</title>
<path fill="none" stroke="#c6c5fe" d="M1408.33,-105C1408.33,-105 1281.67,-105 1281.67,-105 1277.83,-105 1274,-101.17 1274,-97.33 1274,-97.33 1274,-89.67 1274,-89.67 1274,-85.83 1277.83,-82 1281.67,-82 1281.67,-82 1408.33,-82 1408.33,-82 1412.17,-82 1416,-85.83 1416,-89.67 1416,-89.67 1416,-97.33 1416,-97.33 1416,-101.17 1412.17,-105 1408.33,-105"/>
<text text-anchor="middle" x="1345" y="-89.8" font-family="Arial" font-size="14.00" fill="#c6c5fe">../../fn/modules/get.js</text>
</g>
<!-- ../../fn/modules/get.js&#45;&gt;../../fn/modules/curry.js -->
<g id="edge24" class="edge">
<title>../../fn/modules/get.js&#45;&gt;../../fn/modules/curry.js</title>
<path fill="none" stroke="#757575" d="M1416.01,-98.69C1432.69,-102.59 1449.53,-109.02 1463,-119.5 1529.9,-171.54 1559.9,-274.58 1570.15,-319.14"/>
<polygon fill="#757575" stroke="#757575" points="1566.73,-319.89 1572.29,-328.91 1573.57,-318.39 1566.73,-319.89"/>
</g>
<!-- ../../fn/modules/lists/remove.js -->
<g id="node24" class="node">
<title>../../fn/modules/lists/remove.js</title>
<path fill="none" stroke="#cfffac" d="M631.33,-105C631.33,-105 450.67,-105 450.67,-105 446.83,-105 443,-101.17 443,-97.33 443,-97.33 443,-89.67 443,-89.67 443,-85.83 446.83,-82 450.67,-82 450.67,-82 631.33,-82 631.33,-82 635.17,-82 639,-85.83 639,-89.67 639,-89.67 639,-97.33 639,-97.33 639,-101.17 635.17,-105 631.33,-105"/>
<text text-anchor="middle" x="541" y="-89.8" font-family="Arial" font-size="14.00" fill="#cfffac">../../fn/modules/lists/remove.js</text>
</g>
<!-- ../../fn/modules/maths/to&#45;db.js -->
<g id="node25" class="node">
<title>../../fn/modules/maths/to&#45;db.js</title>
<path fill="none" stroke="#cfffac" d="M924.83,-525C924.83,-525 745.17,-525 745.17,-525 741.33,-525 737.5,-521.17 737.5,-517.33 737.5,-517.33 737.5,-509.67 737.5,-509.67 737.5,-505.83 741.33,-502 745.17,-502 745.17,-502 924.83,-502 924.83,-502 928.67,-502 932.5,-505.83 932.5,-509.67 932.5,-509.67 932.5,-517.33 932.5,-517.33 932.5,-521.17 928.67,-525 924.83,-525"/>
<text text-anchor="middle" x="835" y="-509.8" font-family="Arial" font-size="14.00" fill="#cfffac">../../fn/modules/maths/to&#45;db.js</text>
</g>
<!-- ../../fn/modules/maths/to&#45;gain.js -->
<g id="node26" class="node">
<title>../../fn/modules/maths/to&#45;gain.js</title>
<path fill="none" stroke="#cfffac" d="M930.33,-484C930.33,-484 739.67,-484 739.67,-484 735.83,-484 732,-480.17 732,-476.33 732,-476.33 732,-468.67 732,-468.67 732,-464.83 735.83,-461 739.67,-461 739.67,-461 930.33,-461 930.33,-461 934.17,-461 938,-464.83 938,-468.67 938,-468.67 938,-476.33 938,-476.33 938,-480.17 934.17,-484 930.33,-484"/>
<text text-anchor="middle" x="835" y="-468.8" font-family="Arial" font-size="14.00" fill="#cfffac">../../fn/modules/maths/to&#45;gain.js</text>
</g>
<!-- ../../fn/modules/observer/observe.js -->
<g id="node27" class="node">
<title>../../fn/modules/observer/observe.js</title>
<path fill="none" stroke="#c6c5fe" d="M365.33,-145C365.33,-145 153.67,-145 153.67,-145 149.83,-145 146,-141.17 146,-137.33 146,-137.33 146,-129.67 146,-129.67 146,-125.83 149.83,-122 153.67,-122 153.67,-122 365.33,-122 365.33,-122 369.17,-122 373,-125.83 373,-129.67 373,-129.67 373,-137.33 373,-137.33 373,-141.17 369.17,-145 365.33,-145"/>
<text text-anchor="middle" x="259.5" y="-129.8" font-family="Arial" font-size="14.00" fill="#c6c5fe">../../fn/modules/observer/observe.js</text>
</g>
<!-- ../../fn/modules/observer/observe.js&#45;&gt;../../fn/modules/noop.js -->
<g id="edge30" class="edge">
<title>../../fn/modules/observer/observe.js&#45;&gt;../../fn/modules/noop.js</title>
<path fill="none" stroke="#757575" d="M373.13,-133.5C488.77,-133.5 673.95,-133.5 834,-133.5 834,-133.5 834,-133.5 1095,-133.5 1268.17,-133.5 1339.7,-139.91 1463,-261.5 1496.34,-294.37 1470.02,-323.72 1499,-360.5 1509.85,-374.28 1525.59,-385.54 1539.88,-393.87"/>
<polygon fill="#757575" stroke="#757575" points="1538.56,-397.14 1549.01,-398.91 1541.95,-391.01 1538.56,-397.14"/>
</g>
<!-- ../../fn/modules/observer/observe.js&#45;&gt;../../fn/modules/lists/remove.js -->
<g id="edge29" class="edge">
<title>../../fn/modules/observer/observe.js&#45;&gt;../../fn/modules/lists/remove.js</title>
<path fill="none" stroke="#757575" d="M340.97,-121.98C374.87,-117.13 414.5,-111.46 449.42,-106.46"/>
<polygon fill="#757575" stroke="#757575" points="450.21,-109.89 459.62,-105 449.22,-102.96 450.21,-109.89"/>
</g>
<!-- ../../fn/modules/observer/observer.js -->
<g id="node28" class="node">
<title>../../fn/modules/observer/observer.js</title>
<path fill="none" stroke="#cfffac" d="M648.83,-185C648.83,-185 433.17,-185 433.17,-185 429.33,-185 425.5,-181.17 425.5,-177.33 425.5,-177.33 425.5,-169.67 425.5,-169.67 425.5,-165.83 429.33,-162 433.17,-162 433.17,-162 648.83,-162 648.83,-162 652.67,-162 656.5,-165.83 656.5,-169.67 656.5,-169.67 656.5,-177.33 656.5,-177.33 656.5,-181.17 652.67,-185 648.83,-185"/>
<text text-anchor="middle" x="541" y="-169.8" font-family="Arial" font-size="14.00" fill="#cfffac">../../fn/modules/observer/observer.js</text>
</g>
<!-- ../../fn/modules/observer/observe.js&#45;&gt;../../fn/modules/observer/observer.js -->
<g id="edge31" class="edge">
<title>../../fn/modules/observer/observe.js&#45;&gt;../../fn/modules/observer/observer.js</title>
<path fill="none" stroke="#757575" d="M340.97,-145.02C374.87,-149.87 414.5,-155.54 449.42,-160.54"/>
<polygon fill="#757575" stroke="#757575" points="449.22,-164.04 459.62,-162 450.21,-157.11 449.22,-164.04"/>
</g>
<!-- ../../fn/modules/observer/parse&#45;selector.js -->
<g id="node29" class="node">
<title>../../fn/modules/observer/parse&#45;selector.js</title>
<path fill="none" stroke="#cfffac" d="M665.33,-64C665.33,-64 416.67,-64 416.67,-64 412.83,-64 409,-60.17 409,-56.33 409,-56.33 409,-48.67 409,-48.67 409,-44.83 412.83,-41 416.67,-41 416.67,-41 665.33,-41 665.33,-41 669.17,-41 673,-44.83 673,-48.67 673,-48.67 673,-56.33 673,-56.33 673,-60.17 669.17,-64 665.33,-64"/>
<text text-anchor="middle" x="541" y="-48.8" font-family="Arial" font-size="14.00" fill="#cfffac">../../fn/modules/observer/parse&#45;selector.js</text>
</g>
<!-- ../../fn/modules/observer/observe.js&#45;&gt;../../fn/modules/observer/parse&#45;selector.js -->
<g id="edge32" class="edge">
<title>../../fn/modules/observer/observe.js&#45;&gt;../../fn/modules/observer/parse&#45;selector.js</title>
<path fill="none" stroke="#757575" d="M283.81,-121.88C312.54,-108.04 363.21,-85.2 409,-72.5 417.79,-70.06 427,-67.9 436.29,-65.98"/>
<polygon fill="#757575" stroke="#757575" points="437.25,-69.36 446.39,-64 435.9,-62.49 437.25,-69.36"/>
</g>
<!-- ../../fn/modules/privates.js -->
<g id="node30" class="node">
<title>../../fn/modules/privates.js</title>
<path fill="none" stroke="#cfffac" d="M618.33,-226C618.33,-226 463.67,-226 463.67,-226 459.83,-226 456,-222.17 456,-218.33 456,-218.33 456,-210.67 456,-210.67 456,-206.83 459.83,-203 463.67,-203 463.67,-203 618.33,-203 618.33,-203 622.17,-203 626,-206.83 626,-210.67 626,-210.67 626,-218.33 626,-218.33 626,-222.17 622.17,-226 618.33,-226"/>
<text text-anchor="middle" x="541" y="-210.8" font-family="Arial" font-size="14.00" fill="#cfffac">../../fn/modules/privates.js</text>
</g>
<!-- ../../fn/modules/request&#45;tick.js -->
<g id="node31" class="node">
<title>../../fn/modules/request&#45;tick.js</title>
<path fill="none" stroke="#cfffac" d="M629.83,-344C629.83,-344 452.17,-344 452.17,-344 448.33,-344 444.5,-340.17 444.5,-336.33 444.5,-336.33 444.5,-328.67 444.5,-328.67 444.5,-324.83 448.33,-321 452.17,-321 452.17,-321 629.83,-321 629.83,-321 633.67,-321 637.5,-324.83 637.5,-328.67 637.5,-328.67 637.5,-336.33 637.5,-336.33 637.5,-340.17 633.67,-344 629.83,-344"/>
<text text-anchor="middle" x="541" y="-328.8" font-family="Arial" font-size="14.00" fill="#cfffac">../../fn/modules/request&#45;tick.js</text>
</g>
<!-- ../../fn/modules/strings/to&#45;camel&#45;case.js -->
<g id="node32" class="node">
<title>../../fn/modules/strings/to&#45;camel&#45;case.js</title>
<path fill="none" stroke="#cfffac" d="M953.33,-443C953.33,-443 716.67,-443 716.67,-443 712.83,-443 709,-439.17 709,-435.33 709,-435.33 709,-427.67 709,-427.67 709,-423.83 712.83,-420 716.67,-420 716.67,-420 953.33,-420 953.33,-420 957.17,-420 961,-423.83 961,-427.67 961,-427.67 961,-435.33 961,-435.33 961,-439.17 957.17,-443 953.33,-443"/>
<text text-anchor="middle" x="835" y="-427.8" font-family="Arial" font-size="14.00" fill="#cfffac">../../fn/modules/strings/to&#45;camel&#45;case.js</text>
</g>
<!-- attributes.js -->
<g id="node33" class="node">
<title>attributes.js</title>
<path fill="none" stroke="#c6c5fe" d="M294.83,-285C294.83,-285 224.17,-285 224.17,-285 220.33,-285 216.5,-281.17 216.5,-277.33 216.5,-277.33 216.5,-269.67 216.5,-269.67 216.5,-265.83 220.33,-262 224.17,-262 224.17,-262 294.83,-262 294.83,-262 298.67,-262 302.5,-265.83 302.5,-269.67 302.5,-269.67 302.5,-277.33 302.5,-277.33 302.5,-281.17 298.67,-285 294.83,-285"/>
<text text-anchor="middle" x="259.5" y="-269.8" font-family="Arial" font-size="14.00" fill="#c6c5fe">attributes.js</text>
</g>
<!-- attributes.js&#45;&gt;../../fn/modules/nothing.js -->
<g id="edge36" class="edge">
<title>attributes.js&#45;&gt;../../fn/modules/nothing.js</title>
<path fill="none" stroke="#757575" d="M302.69,-276.87C325.15,-280.34 352.32,-287.35 373,-301.5 395.9,-317.17 385.07,-338.46 409,-352.5 515.39,-414.9 838.66,-394.81 961,-410.5 977.09,-412.56 994.24,-414.99 1010.68,-417.43"/>
<polygon fill="#757575" stroke="#757575" points="1010.4,-420.93 1020.81,-418.95 1011.44,-414.01 1010.4,-420.93"/>
</g>
<!-- attributes.js&#45;&gt;../../fn/modules/by.js -->
<g id="edge34" class="edge">
<title>attributes.js&#45;&gt;../../fn/modules/by.js</title>
<path fill="none" stroke="#757575" d="M302.64,-273.85C465.18,-275.2 1052.86,-280.08 1266.05,-281.85"/>
<polygon fill="#757575" stroke="#757575" points="1266.19,-285.35 1276.22,-281.94 1266.25,-278.35 1266.19,-285.35"/>
</g>
<!-- attributes.js&#45;&gt;../../fn/modules/get.js -->
<g id="edge35" class="edge">
<title>attributes.js&#45;&gt;../../fn/modules/get.js</title>
<path fill="none" stroke="#757575" d="M302.56,-271.1C377.38,-266.47 538.41,-254.94 673,-234.5 903.19,-199.55 1173.34,-135.69 1288.01,-107.51"/>
<polygon fill="#757575" stroke="#757575" points="1289.09,-110.85 1297.96,-105.05 1287.41,-104.05 1289.09,-110.85"/>
</g>
<!-- attributes.js&#45;&gt;../../fn/modules/observer/observer.js -->
<g id="edge37" class="edge">
<title>attributes.js&#45;&gt;../../fn/modules/observer/observer.js</title>
<path fill="none" stroke="#757575" d="M277.44,-261.84C304.13,-244.08 358.18,-210.5 409,-193.5 415.9,-191.19 423.09,-189.15 430.41,-187.34"/>
<polygon fill="#757575" stroke="#757575" points="431.48,-190.68 440.43,-185.02 429.9,-183.87 431.48,-190.68"/>
</g>
<!-- attributes.js&#45;&gt;../../fn/modules/privates.js -->
<g id="edge38" class="edge">
<title>attributes.js&#45;&gt;../../fn/modules/privates.js</title>
<path fill="none" stroke="#757575" d="M302.69,-263.86C332.38,-257.14 373.08,-248.06 409,-240.5 428.9,-236.32 450.53,-231.95 470.38,-228.01"/>
<polygon fill="#757575" stroke="#757575" points="471.14,-231.43 480.27,-226.06 469.78,-224.56 471.14,-231.43"/>
</g>
<!-- attributes.js&#45;&gt;../../fn/modules/request&#45;tick.js -->
<g id="edge39" class="edge">
<title>attributes.js&#45;&gt;../../fn/modules/request&#45;tick.js</title>
<path fill="none" stroke="#757575" d="M302.69,-283.14C332.38,-289.86 373.08,-298.94 409,-306.5 428.9,-310.68 450.53,-315.05 470.38,-318.99"/>
<polygon fill="#757575" stroke="#757575" points="469.78,-322.44 480.27,-320.94 471.14,-315.57 469.78,-322.44"/>
</g>
<!-- control.js -->
<g id="node34" class="node">
<title>control.js</title>
<path fill="none" stroke="#c6c5fe" d="M568.83,-443C568.83,-443 513.17,-443 513.17,-443 509.33,-443 505.5,-439.17 505.5,-435.33 505.5,-435.33 505.5,-427.67 505.5,-427.67 505.5,-423.83 509.33,-420 513.17,-420 513.17,-420 568.83,-420 568.83,-420 572.67,-420 576.5,-423.83 576.5,-427.67 576.5,-427.67 576.5,-435.33 576.5,-435.33 576.5,-439.17 572.67,-443 568.83,-443"/>
<text text-anchor="middle" x="541" y="-427.8" font-family="Arial" font-size="14.00" fill="#c6c5fe">control.js</text>
</g>
<!-- attributes.js&#45;&gt;control.js -->
<g id="edge40" class="edge">
<title>attributes.js&#45;&gt;control.js</title>
<path fill="none" stroke="#757575" d="M275.09,-285.06C296.93,-302.53 339.15,-336.95 373,-368.5 389.78,-384.14 388.84,-394.55 409,-405.5 435.44,-419.86 468.74,-426.34 495.15,-429.24"/>
<polygon fill="#757575" stroke="#757575" points="494.98,-432.74 505.27,-430.22 495.65,-425.78 494.98,-432.74"/>
</g>
<!-- control.js&#45;&gt;../../fn/modules/id.js -->
<g id="edge42" class="edge">
<title>control.js&#45;&gt;../../fn/modules/id.js</title>
<path fill="none" stroke="#757575" d="M550.99,-443.09C573.81,-471.52 637.26,-544.63 709,-575.5 762.6,-598.57 920.98,-608.3 1016.78,-612.16"/>
<polygon fill="#757575" stroke="#757575" points="1016.87,-615.67 1027,-612.56 1017.14,-608.67 1016.87,-615.67"/>
</g>
<!-- control.js&#45;&gt;../../fn/modules/overload.js -->
<g id="edge46" class="edge">
<title>control.js&#45;&gt;../../fn/modules/overload.js</title>
<path fill="none" stroke="#757575" d="M552.4,-443.03C576.8,-470.65 638.3,-543.61 673,-614.5 697.67,-664.89 664.78,-700.97 709,-735.5 752.1,-769.15 897.37,-766.69 996.34,-760.55"/>
<polygon fill="#757575" stroke="#757575" points="996.62,-764.04 1006.37,-759.91 996.17,-757.06 996.62,-764.04"/>
</g>
<!-- control.js&#45;&gt;../../fn/modules/denormalisers.js -->
<g id="edge41" class="edge">
<title>control.js&#45;&gt;../../fn/modules/denormalisers.js</title>
<path fill="none" stroke="#757575" d="M559.2,-419.73C588.6,-400.17 650.94,-360.98 709,-339.5 722.05,-334.67 736.21,-330.65 750.16,-327.33"/>
<polygon fill="#757575" stroke="#757575" points="751.29,-330.66 760.26,-325.03 749.73,-323.84 751.29,-330.66"/>
</g>
<!-- control.js&#45;&gt;../../fn/modules/normalisers.js -->
<g id="edge45" class="edge">
<title>control.js&#45;&gt;../../fn/modules/normalisers.js</title>
<path fill="none" stroke="#757575" d="M576.79,-426.4C610.51,-421.63 663.16,-414.63 709,-410.5 802.71,-402.06 909.61,-396.55 986.78,-393.3"/>
<polygon fill="#757575" stroke="#757575" points="987.15,-396.78 997,-392.87 986.86,-389.79 987.15,-396.78"/>
</g>
<!-- control.js&#45;&gt;../../fn/modules/maths/to&#45;db.js -->
<g id="edge43" class="edge">
<title>control.js&#45;&gt;../../fn/modules/maths/to&#45;db.js</title>
<path fill="none" stroke="#757575" d="M568.09,-443.02C600.52,-456.91 657.85,-480.05 709,-493.5 718.33,-495.95 728.13,-498.15 737.97,-500.11"/>
<polygon fill="#757575" stroke="#757575" points="737.32,-503.55 747.8,-501.99 738.64,-496.68 737.32,-503.55"/>
</g>
<!-- control.js&#45;&gt;../../fn/modules/maths/to&#45;gain.js -->
<g id="edge44" class="edge">
<title>control.js&#45;&gt;../../fn/modules/maths/to&#45;gain.js</title>
<path fill="none" stroke="#757575" d="M576.64,-436.36C617.12,-442.05 685.7,-451.68 741.89,-459.57"/>
<polygon fill="#757575" stroke="#757575" points="741.48,-463.04 751.87,-460.97 742.46,-456.11 741.48,-463.04"/>
</g>
<!-- control.js&#45;&gt;../../fn/modules/strings/to&#45;camel&#45;case.js -->
<g id="edge47" class="edge">
<title>control.js&#45;&gt;../../fn/modules/strings/to&#45;camel&#45;case.js</title>
<path fill="none" stroke="#757575" d="M576.64,-431.5C607.12,-431.5 653.54,-431.5 698.6,-431.5"/>
<polygon fill="#757575" stroke="#757575" points="698.79,-435 708.79,-431.5 698.79,-428 698.79,-435"/>
</g>
<!-- range&#45;control.js -->
<g id="node35" class="node">
<title>range&#45;control.js</title>
<path fill="none" stroke="#c6c5fe" d="M102.33,-274C102.33,-274 7.67,-274 7.67,-274 3.83,-274 0,-270.17 0,-266.33 0,-266.33 0,-258.67 0,-258.67 0,-254.83 3.83,-251 7.67,-251 7.67,-251 102.33,-251 102.33,-251 106.17,-251 110,-254.83 110,-258.67 110,-258.67 110,-266.33 110,-266.33 110,-270.17 106.17,-274 102.33,-274"/>
<text text-anchor="middle" x="55" y="-258.8" font-family="Arial" font-size="14.00" fill="#c6c5fe">range&#45;control.js</text>
</g>
<!-- range&#45;control.js&#45;&gt;../../dom/modules/create.js -->
<g id="edge48" class="edge">
<title>range&#45;control.js&#45;&gt;../../dom/modules/create.js</title>
<path fill="none" stroke="#757575" d="M56.88,-274.07C61.62,-333.41 86.26,-602.87 146,-655.5 238.68,-737.15 395.38,-723.39 480.56,-707.93"/>
<polygon fill="#757575" stroke="#757575" points="481.4,-711.33 490.58,-706.05 480.11,-704.46 481.4,-711.33"/>
</g>
<!-- range&#45;control.js&#45;&gt;../../dom/modules/element.js -->
<g id="edge49" class="edge">
<title>range&#45;control.js&#45;&gt;../../dom/modules/element.js</title>
<path fill="none" stroke="#757575" d="M62.28,-274.04C90.98,-326.76 209.8,-545.03 247.19,-613.71"/>
<polygon fill="#757575" stroke="#757575" points="244.23,-615.62 252.09,-622.72 250.38,-612.27 244.23,-615.62"/>
</g>
<!-- range&#45;control.js&#45;&gt;../../dom/modules/trigger.js -->
<g id="edge50" class="edge">
<title>range&#45;control.js&#45;&gt;../../dom/modules/trigger.js</title>
<path fill="none" stroke="#757575" d="M60.39,-250.94C71.21,-223.73 101.54,-154.77 146,-112.5 166.35,-93.15 194.16,-78.24 217.04,-68.13"/>
<polygon fill="#757575" stroke="#757575" points="218.69,-71.23 226.51,-64.09 215.94,-64.79 218.69,-71.23"/>
</g>
<!-- range&#45;control.js&#45;&gt;../../fn/modules/observer/observe.js -->
<g id="edge51" class="edge">
<title>range&#45;control.js&#45;&gt;../../fn/modules/observer/observe.js</title>
<path fill="none" stroke="#757575" d="M64.36,-250.87C78.86,-231.5 110.53,-192.59 146,-170.5 161.32,-160.96 179.36,-153.61 196.45,-148.07"/>
<polygon fill="#757575" stroke="#757575" points="197.85,-151.31 206.38,-145.02 195.79,-144.61 197.85,-151.31"/>
</g>
<!-- range&#45;control.js&#45;&gt;../../fn/modules/observer/observer.js -->
<g id="edge52" class="edge">
<title>range&#45;control.js&#45;&gt;../../fn/modules/observer/observer.js</title>
<path fill="none" stroke="#757575" d="M80.28,-250.89C98.08,-242.84 123.05,-232.53 146,-226.5 234.32,-203.28 336.59,-189.9 414.8,-182.4"/>
<polygon fill="#757575" stroke="#757575" points="415.55,-185.84 425.18,-181.42 414.9,-178.87 415.55,-185.84"/>
</g>
<!-- range&#45;control.js&#45;&gt;../../fn/modules/privates.js -->
<g id="edge53" class="edge">
<title>range&#45;control.js&#45;&gt;../../fn/modules/privates.js</title>
<path fill="none" stroke="#757575" d="M110.24,-256.34C122.03,-255.04 134.43,-253.7 146,-252.5 248.42,-241.87 365.93,-230.67 445.77,-223.2"/>
<polygon fill="#757575" stroke="#757575" points="446.17,-226.68 455.8,-222.26 445.52,-219.71 446.17,-226.68"/>
</g>
<!-- range&#45;control.js&#45;&gt;attributes.js -->
<g id="edge54" class="edge">
<title>range&#45;control.js&#45;&gt;attributes.js</title>
<path fill="none" stroke="#757575" d="M110,-265.43C139.77,-267.05 176.55,-269.05 206.07,-270.65"/>
<polygon fill="#757575" stroke="#757575" points="206,-274.15 216.18,-271.2 206.38,-267.16 206,-274.15"/>
</g>
<!-- range&#45;control.js&#45;&gt;control.js -->
<g id="edge55" class="edge">
<title>range&#45;control.js&#45;&gt;control.js</title>
<path fill="none" stroke="#757575" d="M80.25,-274.2C136.67,-300.99 281.66,-367.44 409,-405.5 437.21,-413.93 469.68,-420.4 495.23,-424.77"/>
<polygon fill="#757575" stroke="#757575" points="494.92,-428.27 505.36,-426.46 496.08,-421.36 494.92,-428.27"/>
</g>
</g>
</svg>
