<?xml version="1.0" encoding="UTF-8" standalone="no"?>
<!DOCTYPE svg PUBLIC "-//W3C//DTD SVG 1.1//EN"
 "http://www.w3.org/Graphics/SVG/1.1/DTD/svg11.dtd">
<!-- Generated by graphviz version 2.44.1 (20200629.0846)
 -->
<!-- Title: G Pages: 1 -->
<svg width="1828pt" height="822pt"
 viewBox="0.00 0.00 1828.20 821.70" xmlns="http://www.w3.org/2000/svg" xmlns:xlink="http://www.w3.org/1999/xlink">
<g id="graph0" class="graph" transform="scale(1 1) rotate(0) translate(21.6 800.1)">
<title>G</title>
<polygon fill="#111111" stroke="transparent" points="-21.6,21.6 -21.6,-800.1 1806.6,-800.1 1806.6,21.6 -21.6,21.6"/>
<!-- ../../dom/modules/assign.js -->
<g id="node1" class="node">
<title>../../dom/modules/assign.js</title>
<path fill="none" stroke="#c6c5fe" d="M854.33,-621C854.33,-621 691.67,-621 691.67,-621 687.83,-621 684,-617.17 684,-613.33 684,-613.33 684,-605.67 684,-605.67 684,-601.83 687.83,-598 691.67,-598 691.67,-598 854.33,-598 854.33,-598 858.17,-598 862,-601.83 862,-605.67 862,-605.67 862,-613.33 862,-613.33 862,-617.17 858.17,-621 854.33,-621"/>
<text text-anchor="middle" x="773" y="-605.8" font-family="Arial" font-size="14.00" fill="#c6c5fe">../../dom/modules/assign.js</text>
</g>
<!-- ../../fn/modules/curry.js -->
<g id="node2" class="node">
<title>../../fn/modules/curry.js</title>
<path fill="none" stroke="#c6c5fe" d="M1581.83,-204C1581.83,-204 1445.17,-204 1445.17,-204 1441.33,-204 1437.5,-200.17 1437.5,-196.33 1437.5,-196.33 1437.5,-188.67 1437.5,-188.67 1437.5,-184.83 1441.33,-181 1445.17,-181 1445.17,-181 1581.83,-181 1581.83,-181 1585.67,-181 1589.5,-184.83 1589.5,-188.67 1589.5,-188.67 1589.5,-196.33 1589.5,-196.33 1589.5,-200.17 1585.67,-204 1581.83,-204"/>
<text text-anchor="middle" x="1513.5" y="-188.8" font-family="Arial" font-size="14.00" fill="#c6c5fe">../../fn/modules/curry.js</text>
</g>
<!-- ../../dom/modules/assign.js&#45;&gt;../../fn/modules/curry.js -->
<g id="edge1" class="edge">
<title>../../dom/modules/assign.js&#45;&gt;../../fn/modules/curry.js</title>
<path fill="none" stroke="#757575" d="M862.1,-600.96C1015.7,-584.34 1323.57,-542.78 1401,-470.5 1442.33,-431.92 1416.62,-401.23 1437,-348.5 1456.3,-298.58 1485.23,-242.71 1501.09,-213.26"/>
<polygon fill="#757575" stroke="#757575" points="1504.24,-214.8 1505.94,-204.34 1498.09,-211.46 1504.24,-214.8"/>
</g>
<!-- ../../fn/modules/id.js -->
<g id="node3" class="node">
<title>../../fn/modules/id.js</title>
<path fill="none" stroke="#cfffac" d="M1091.33,-507C1091.33,-507 972.67,-507 972.67,-507 968.83,-507 965,-503.17 965,-499.33 965,-499.33 965,-491.67 965,-491.67 965,-487.83 968.83,-484 972.67,-484 972.67,-484 1091.33,-484 1091.33,-484 1095.17,-484 1099,-487.83 1099,-491.67 1099,-491.67 1099,-499.33 1099,-499.33 1099,-503.17 1095.17,-507 1091.33,-507"/>
<text text-anchor="middle" x="1032" y="-491.8" font-family="Arial" font-size="14.00" fill="#cfffac">../../fn/modules/id.js</text>
</g>
<!-- ../../dom/modules/assign.js&#45;&gt;../../fn/modules/id.js -->
<g id="edge2" class="edge">
<title>../../dom/modules/assign.js&#45;&gt;../../fn/modules/id.js</title>
<path fill="none" stroke="#757575" d="M862.21,-598.94C875.09,-595.22 887.78,-590.22 899,-583.5 920.39,-570.7 915.25,-555.7 935,-540.5 950.88,-528.28 970.61,-518.32 988.04,-510.9"/>
<polygon fill="#757575" stroke="#757575" points="989.53,-514.07 997.45,-507.04 986.87,-507.59 989.53,-514.07"/>
</g>
<!-- ../../fn/modules/noop.js -->
<g id="node4" class="node">
<title>../../fn/modules/noop.js</title>
<path fill="none" stroke="#cfffac" d="M1582.33,-380C1582.33,-380 1444.67,-380 1444.67,-380 1440.83,-380 1437,-376.17 1437,-372.33 1437,-372.33 1437,-364.67 1437,-364.67 1437,-360.83 1440.83,-357 1444.67,-357 1444.67,-357 1582.33,-357 1582.33,-357 1586.17,-357 1590,-360.83 1590,-364.67 1590,-364.67 1590,-372.33 1590,-372.33 1590,-376.17 1586.17,-380 1582.33,-380"/>
<text text-anchor="middle" x="1513.5" y="-364.8" font-family="Arial" font-size="14.00" fill="#cfffac">../../fn/modules/noop.js</text>
</g>
<!-- ../../dom/modules/assign.js&#45;&gt;../../fn/modules/noop.js -->
<g id="edge3" class="edge">
<title>../../dom/modules/assign.js&#45;&gt;../../fn/modules/noop.js</title>
<path fill="none" stroke="#757575" d="M862.16,-613.85C1013.24,-619.68 1313.81,-623.62 1401,-568.5 1466.53,-527.07 1496.93,-432.69 1507.69,-390.08"/>
<polygon fill="#757575" stroke="#757575" points="1511.13,-390.74 1510.06,-380.2 1504.32,-389.11 1511.13,-390.74"/>
</g>
<!-- ../../fn/modules/overload.js -->
<g id="node5" class="node">
<title>../../fn/modules/overload.js</title>
<path fill="none" stroke="#cfffac" d="M1111.83,-659C1111.83,-659 952.17,-659 952.17,-659 948.33,-659 944.5,-655.17 944.5,-651.33 944.5,-651.33 944.5,-643.67 944.5,-643.67 944.5,-639.83 948.33,-636 952.17,-636 952.17,-636 1111.83,-636 1111.83,-636 1115.67,-636 1119.5,-639.83 1119.5,-643.67 1119.5,-643.67 1119.5,-651.33 1119.5,-651.33 1119.5,-655.17 1115.67,-659 1111.83,-659"/>
<text text-anchor="middle" x="1032" y="-643.8" font-family="Arial" font-size="14.00" fill="#cfffac">../../fn/modules/overload.js</text>
</g>
<!-- ../../dom/modules/assign.js&#45;&gt;../../fn/modules/overload.js -->
<g id="edge4" class="edge">
<title>../../dom/modules/assign.js&#45;&gt;../../fn/modules/overload.js</title>
<path fill="none" stroke="#757575" d="M851.81,-621C880.61,-625.26 913.46,-630.12 943.1,-634.5"/>
<polygon fill="#757575" stroke="#757575" points="942.61,-637.97 953.02,-635.97 943.63,-631.04 942.61,-637.97"/>
</g>
<!-- ../../fn/modules/cache.js -->
<g id="node13" class="node">
<title>../../fn/modules/cache.js</title>
<path fill="none" stroke="#cfffac" d="M1777.33,-441C1777.33,-441 1633.67,-441 1633.67,-441 1629.83,-441 1626,-437.17 1626,-433.33 1626,-433.33 1626,-425.67 1626,-425.67 1626,-421.83 1629.83,-418 1633.67,-418 1633.67,-418 1777.33,-418 1777.33,-418 1781.17,-418 1785,-421.83 1785,-425.67 1785,-425.67 1785,-433.33 1785,-433.33 1785,-437.17 1781.17,-441 1777.33,-441"/>
<text text-anchor="middle" x="1705.5" y="-425.8" font-family="Arial" font-size="14.00" fill="#cfffac">../../fn/modules/cache.js</text>
</g>
<!-- ../../fn/modules/curry.js&#45;&gt;../../fn/modules/cache.js -->
<g id="edge20" class="edge">
<title>../../fn/modules/curry.js&#45;&gt;../../fn/modules/cache.js</title>
<path fill="none" stroke="#757575" d="M1523.92,-204.25C1554.44,-242.33 1650.83,-362.55 1688.85,-409.98"/>
<polygon fill="#757575" stroke="#757575" points="1686.26,-412.34 1695.25,-417.96 1691.72,-407.96 1686.26,-412.34"/>
</g>
<!-- ../../dom/modules/create.js -->
<g id="node6" class="node">
<title>../../dom/modules/create.js</title>
<path fill="none" stroke="#c6c5fe" d="M570.83,-601C570.83,-601 410.17,-601 410.17,-601 406.33,-601 402.5,-597.17 402.5,-593.33 402.5,-593.33 402.5,-585.67 402.5,-585.67 402.5,-581.83 406.33,-578 410.17,-578 410.17,-578 570.83,-578 570.83,-578 574.67,-578 578.5,-581.83 578.5,-585.67 578.5,-585.67 578.5,-593.33 578.5,-593.33 578.5,-597.17 574.67,-601 570.83,-601"/>
<text text-anchor="middle" x="490.5" y="-585.8" font-family="Arial" font-size="14.00" fill="#c6c5fe">../../dom/modules/create.js</text>
</g>
<!-- ../../dom/modules/create.js&#45;&gt;../../dom/modules/assign.js -->
<g id="edge5" class="edge">
<title>../../dom/modules/create.js&#45;&gt;../../dom/modules/assign.js</title>
<path fill="none" stroke="#757575" d="M578.71,-595.72C608.77,-597.86 642.63,-600.28 673.52,-602.48"/>
<polygon fill="#757575" stroke="#757575" points="673.65,-606 683.87,-603.22 674.15,-599.01 673.65,-606"/>
</g>
<!-- ../../dom/modules/create.js&#45;&gt;../../fn/modules/id.js -->
<g id="edge6" class="edge">
<title>../../dom/modules/create.js&#45;&gt;../../fn/modules/id.js</title>
<path fill="none" stroke="#757575" d="M578.63,-588.66C662.01,-586.11 790.76,-577.58 899,-550.5 934.82,-541.54 973.58,-524.43 999.76,-511.66"/>
<polygon fill="#757575" stroke="#757575" points="1001.41,-514.75 1008.81,-507.17 998.3,-508.48 1001.41,-514.75"/>
</g>
<!-- ../../dom/modules/create.js&#45;&gt;../../fn/modules/overload.js -->
<g id="edge7" class="edge">
<title>../../dom/modules/create.js&#45;&gt;../../fn/modules/overload.js</title>
<path fill="none" stroke="#757575" d="M498.31,-601.34C517.13,-632.68 573.33,-717.5 647,-748.5 750.23,-791.94 792.92,-784.43 899,-748.5 946.64,-732.37 990.6,-691.38 1013.8,-666.87"/>
<polygon fill="#757575" stroke="#757575" points="1016.63,-668.96 1020.85,-659.24 1011.49,-664.21 1016.63,-668.96"/>
</g>
<!-- ../../fn/modules/to&#45;type.js -->
<g id="node7" class="node">
<title>../../fn/modules/to&#45;type.js</title>
<path fill="none" stroke="#cfffac" d="M847.33,-739C847.33,-739 698.67,-739 698.67,-739 694.83,-739 691,-735.17 691,-731.33 691,-731.33 691,-723.67 691,-723.67 691,-719.83 694.83,-716 698.67,-716 698.67,-716 847.33,-716 847.33,-716 851.17,-716 855,-719.83 855,-723.67 855,-723.67 855,-731.33 855,-731.33 855,-735.17 851.17,-739 847.33,-739"/>
<text text-anchor="middle" x="773" y="-723.8" font-family="Arial" font-size="14.00" fill="#cfffac">../../fn/modules/to&#45;type.js</text>
</g>
<!-- ../../dom/modules/create.js&#45;&gt;../../fn/modules/to&#45;type.js -->
<g id="edge8" class="edge">
<title>../../dom/modules/create.js&#45;&gt;../../fn/modules/to&#45;type.js</title>
<path fill="none" stroke="#757575" d="M503.67,-601.1C528.48,-624.06 587.62,-675.36 647,-701.5 657.86,-706.28 669.64,-710.2 681.48,-713.4"/>
<polygon fill="#757575" stroke="#757575" points="680.87,-716.86 691.42,-715.93 682.6,-710.07 680.87,-716.86"/>
</g>
<!-- ../../dom/modules/element.js -->
<g id="node8" class="node">
<title>../../dom/modules/element.js</title>
<path fill="none" stroke="#c6c5fe" d="M326.33,-541C326.33,-541 153.67,-541 153.67,-541 149.83,-541 146,-537.17 146,-533.33 146,-533.33 146,-525.67 146,-525.67 146,-521.83 149.83,-518 153.67,-518 153.67,-518 326.33,-518 326.33,-518 330.17,-518 334,-521.83 334,-525.67 334,-525.67 334,-533.33 334,-533.33 334,-537.17 330.17,-541 326.33,-541"/>
<text text-anchor="middle" x="240" y="-525.8" font-family="Arial" font-size="14.00" fill="#c6c5fe">../../dom/modules/element.js</text>
</g>
<!-- ../../dom/modules/element.js&#45;&gt;../../dom/modules/create.js -->
<g id="edge9" class="edge">
<title>../../dom/modules/element.js&#45;&gt;../../dom/modules/create.js</title>
<path fill="none" stroke="#757575" d="M288.91,-541.07C329.74,-550.93 388.51,-565.12 431.89,-575.59"/>
<polygon fill="#757575" stroke="#757575" points="431.19,-579.02 441.73,-577.97 432.83,-572.22 431.19,-579.02"/>
</g>
<!-- ../../dom/modules/request&#45;template.js -->
<g id="node9" class="node">
<title>../../dom/modules/request&#45;template.js</title>
<path fill="none" stroke="#c6c5fe" d="M603.33,-541C603.33,-541 377.67,-541 377.67,-541 373.83,-541 370,-537.17 370,-533.33 370,-533.33 370,-525.67 370,-525.67 370,-521.83 373.83,-518 377.67,-518 377.67,-518 603.33,-518 603.33,-518 607.17,-518 611,-521.83 611,-525.67 611,-525.67 611,-533.33 611,-533.33 611,-537.17 607.17,-541 603.33,-541"/>
<text text-anchor="middle" x="490.5" y="-525.8" font-family="Arial" font-size="14.00" fill="#c6c5fe">../../dom/modules/request&#45;template.js</text>
</g>
<!-- ../../dom/modules/element.js&#45;&gt;../../dom/modules/request&#45;template.js -->
<g id="edge10" class="edge">
<title>../../dom/modules/element.js&#45;&gt;../../dom/modules/request&#45;template.js</title>
<path fill="none" stroke="#757575" d="M334.24,-529.5C342.55,-529.5 351.07,-529.5 359.62,-529.5"/>
<polygon fill="#757575" stroke="#757575" points="359.66,-533 369.66,-529.5 359.66,-526 359.66,-533"/>
</g>
<!-- ../../dom/modules/parse.js -->
<g id="node11" class="node">
<title>../../dom/modules/parse.js</title>
<path fill="none" stroke="#cfffac" d="M851.83,-541C851.83,-541 694.17,-541 694.17,-541 690.33,-541 686.5,-537.17 686.5,-533.33 686.5,-533.33 686.5,-525.67 686.5,-525.67 686.5,-521.83 690.33,-518 694.17,-518 694.17,-518 851.83,-518 851.83,-518 855.67,-518 859.5,-521.83 859.5,-525.67 859.5,-525.67 859.5,-533.33 859.5,-533.33 859.5,-537.17 855.67,-541 851.83,-541"/>
<text text-anchor="middle" x="773" y="-525.8" font-family="Arial" font-size="14.00" fill="#cfffac">../../dom/modules/parse.js</text>
</g>
<!-- ../../dom/modules/request&#45;template.js&#45;&gt;../../dom/modules/parse.js -->
<g id="edge11" class="edge">
<title>../../dom/modules/request&#45;template.js&#45;&gt;../../dom/modules/parse.js</title>
<path fill="none" stroke="#757575" d="M611.27,-529.5C632.9,-529.5 655.19,-529.5 676.02,-529.5"/>
<polygon fill="#757575" stroke="#757575" points="676.13,-533 686.13,-529.5 676.13,-526 676.13,-533"/>
</g>
<!-- ../../dom/modules/request.js -->
<g id="node12" class="node">
<title>../../dom/modules/request.js</title>
<path fill="none" stroke="#c6c5fe" d="M857.33,-461C857.33,-461 688.67,-461 688.67,-461 684.83,-461 681,-457.17 681,-453.33 681,-453.33 681,-445.67 681,-445.67 681,-441.83 684.83,-438 688.67,-438 688.67,-438 857.33,-438 857.33,-438 861.17,-438 865,-441.83 865,-445.67 865,-445.67 865,-453.33 865,-453.33 865,-457.17 861.17,-461 857.33,-461"/>
<text text-anchor="middle" x="773" y="-445.8" font-family="Arial" font-size="14.00" fill="#c6c5fe">../../dom/modules/request.js</text>
</g>
<!-- ../../dom/modules/request&#45;template.js&#45;&gt;../../dom/modules/request.js -->
<g id="edge12" class="edge">
<title>../../dom/modules/request&#45;template.js&#45;&gt;../../dom/modules/request.js</title>
<path fill="none" stroke="#757575" d="M531.99,-517.95C582.12,-503.65 667.51,-479.3 721.77,-463.83"/>
<polygon fill="#757575" stroke="#757575" points="722.87,-467.15 731.52,-461.04 720.95,-460.42 722.87,-467.15"/>
</g>
<!-- ../../dom/modules/request&#45;template.js&#45;&gt;../../fn/modules/cache.js -->
<g id="edge13" class="edge">
<title>../../dom/modules/request&#45;template.js&#45;&gt;../../fn/modules/cache.js</title>
<path fill="none" stroke="#757575" d="M558.67,-541.03C577.42,-546.96 596.58,-555.94 611,-569.5 642.08,-598.73 612.54,-633.33 647,-658.5 716.1,-708.98 945.42,-687.5 1031,-687.5 1031,-687.5 1031,-687.5 1284,-687.5 1466.42,-687.5 1636.36,-508.92 1688.32,-448.91"/>
<polygon fill="#757575" stroke="#757575" points="1691.02,-451.13 1694.86,-441.26 1685.7,-446.58 1691.02,-451.13"/>
</g>
<!-- ../../dom/modules/event.js -->
<g id="node10" class="node">
<title>../../dom/modules/event.js</title>
<path fill="none" stroke="#cfffac" d="M568.83,-23C568.83,-23 412.17,-23 412.17,-23 408.33,-23 404.5,-19.17 404.5,-15.33 404.5,-15.33 404.5,-7.67 404.5,-7.67 404.5,-3.83 408.33,0 412.17,0 412.17,0 568.83,0 568.83,0 572.67,0 576.5,-3.83 576.5,-7.67 576.5,-7.67 576.5,-15.33 576.5,-15.33 576.5,-19.17 572.67,-23 568.83,-23"/>
<text text-anchor="middle" x="490.5" y="-7.8" font-family="Arial" font-size="14.00" fill="#cfffac">../../dom/modules/event.js</text>
</g>
<!-- ../../dom/modules/request.js&#45;&gt;../../fn/modules/id.js -->
<g id="edge15" class="edge">
<title>../../dom/modules/request.js&#45;&gt;../../fn/modules/id.js</title>
<path fill="none" stroke="#757575" d="M838.52,-461.05C874.26,-467.45 918.88,-475.43 956.15,-482.1"/>
<polygon fill="#757575" stroke="#757575" points="955.99,-485.63 966.45,-483.95 957.23,-478.74 955.99,-485.63"/>
</g>
<!-- ../../fn/modules/choose.js -->
<g id="node14" class="node">
<title>../../fn/modules/choose.js</title>
<path fill="none" stroke="#c6c5fe" d="M1107.83,-461C1107.83,-461 956.17,-461 956.17,-461 952.33,-461 948.5,-457.17 948.5,-453.33 948.5,-453.33 948.5,-445.67 948.5,-445.67 948.5,-441.83 952.33,-438 956.17,-438 956.17,-438 1107.83,-438 1107.83,-438 1111.67,-438 1115.5,-441.83 1115.5,-445.67 1115.5,-445.67 1115.5,-453.33 1115.5,-453.33 1115.5,-457.17 1111.67,-461 1107.83,-461"/>
<text text-anchor="middle" x="1032" y="-445.8" font-family="Arial" font-size="14.00" fill="#c6c5fe">../../fn/modules/choose.js</text>
</g>
<!-- ../../dom/modules/request.js&#45;&gt;../../fn/modules/choose.js -->
<g id="edge14" class="edge">
<title>../../dom/modules/request.js&#45;&gt;../../fn/modules/choose.js</title>
<path fill="none" stroke="#757575" d="M865.33,-449.5C888.94,-449.5 914.38,-449.5 938.07,-449.5"/>
<polygon fill="#757575" stroke="#757575" points="938.1,-453 948.1,-449.5 938.1,-446 938.1,-453"/>
</g>
<!-- ../../fn/modules/nothing.js -->
<g id="node15" class="node">
<title>../../fn/modules/nothing.js</title>
<path fill="none" stroke="#c6c5fe" d="M1107.83,-380C1107.83,-380 956.17,-380 956.17,-380 952.33,-380 948.5,-376.17 948.5,-372.33 948.5,-372.33 948.5,-364.67 948.5,-364.67 948.5,-360.83 952.33,-357 956.17,-357 956.17,-357 1107.83,-357 1107.83,-357 1111.67,-357 1115.5,-360.83 1115.5,-364.67 1115.5,-364.67 1115.5,-372.33 1115.5,-372.33 1115.5,-376.17 1111.67,-380 1107.83,-380"/>
<text text-anchor="middle" x="1032" y="-364.8" font-family="Arial" font-size="14.00" fill="#c6c5fe">../../fn/modules/nothing.js</text>
</g>
<!-- ../../dom/modules/request.js&#45;&gt;../../fn/modules/nothing.js -->
<g id="edge16" class="edge">
<title>../../dom/modules/request.js&#45;&gt;../../fn/modules/nothing.js</title>
<path fill="none" stroke="#757575" d="M864.8,-437.99C876.42,-435.63 888.07,-432.83 899,-429.5 935.78,-418.29 975.51,-398.83 1001.67,-384.9"/>
<polygon fill="#757575" stroke="#757575" points="1003.53,-387.88 1010.66,-380.05 1000.2,-381.72 1003.53,-387.88"/>
</g>
<!-- ../../fn/modules/lists/rest.js -->
<g id="node18" class="node">
<title>../../fn/modules/lists/rest.js</title>
<path fill="none" stroke="#cfffac" d="M1361.83,-461C1361.83,-461 1204.17,-461 1204.17,-461 1200.33,-461 1196.5,-457.17 1196.5,-453.33 1196.5,-453.33 1196.5,-445.67 1196.5,-445.67 1196.5,-441.83 1200.33,-438 1204.17,-438 1204.17,-438 1361.83,-438 1361.83,-438 1365.67,-438 1369.5,-441.83 1369.5,-445.67 1369.5,-445.67 1369.5,-453.33 1369.5,-453.33 1369.5,-457.17 1365.67,-461 1361.83,-461"/>
<text text-anchor="middle" x="1283" y="-445.8" font-family="Arial" font-size="14.00" fill="#cfffac">../../fn/modules/lists/rest.js</text>
</g>
<!-- ../../fn/modules/choose.js&#45;&gt;../../fn/modules/lists/rest.js -->
<g id="edge19" class="edge">
<title>../../fn/modules/choose.js&#45;&gt;../../fn/modules/lists/rest.js</title>
<path fill="none" stroke="#757575" d="M1115.57,-449.5C1138.13,-449.5 1162.78,-449.5 1186.03,-449.5"/>
<polygon fill="#757575" stroke="#757575" points="1186.25,-453 1196.25,-449.5 1186.24,-446 1186.25,-453"/>
</g>
<!-- ../../fn/modules/nothing.js&#45;&gt;../../fn/modules/noop.js -->
<g id="edge29" class="edge">
<title>../../fn/modules/nothing.js&#45;&gt;../../fn/modules/noop.js</title>
<path fill="none" stroke="#757575" d="M1115.7,-368.5C1202.55,-368.5 1338.48,-368.5 1426.54,-368.5"/>
<polygon fill="#757575" stroke="#757575" points="1426.76,-372 1436.76,-368.5 1426.76,-365 1426.76,-372"/>
</g>
<!-- ../../dom/modules/trigger.js -->
<g id="node16" class="node">
<title>../../dom/modules/trigger.js</title>
<path fill="none" stroke="#c6c5fe" d="M320.33,-43C320.33,-43 159.67,-43 159.67,-43 155.83,-43 152,-39.17 152,-35.33 152,-35.33 152,-27.67 152,-27.67 152,-23.83 155.83,-20 159.67,-20 159.67,-20 320.33,-20 320.33,-20 324.17,-20 328,-23.83 328,-27.67 328,-27.67 328,-35.33 328,-35.33 328,-39.17 324.17,-43 320.33,-43"/>
<text text-anchor="middle" x="240" y="-27.8" font-family="Arial" font-size="14.00" fill="#c6c5fe">../../dom/modules/trigger.js</text>
</g>
<!-- ../../dom/modules/trigger.js&#45;&gt;../../dom/modules/event.js -->
<g id="edge17" class="edge">
<title>../../dom/modules/trigger.js&#45;&gt;../../dom/modules/event.js</title>
<path fill="none" stroke="#757575" d="M328.26,-24.48C349.51,-22.77 372.35,-20.93 393.96,-19.19"/>
<polygon fill="#757575" stroke="#757575" points="394.43,-22.66 404.12,-18.37 393.87,-15.69 394.43,-22.66"/>
</g>
<!-- ../../fn/modules/by.js -->
<g id="node17" class="node">
<title>../../fn/modules/by.js</title>
<path fill="none" stroke="#c6c5fe" d="M1092.83,-143C1092.83,-143 971.17,-143 971.17,-143 967.33,-143 963.5,-139.17 963.5,-135.33 963.5,-135.33 963.5,-127.67 963.5,-127.67 963.5,-123.83 967.33,-120 971.17,-120 971.17,-120 1092.83,-120 1092.83,-120 1096.67,-120 1100.5,-123.83 1100.5,-127.67 1100.5,-127.67 1100.5,-135.33 1100.5,-135.33 1100.5,-139.17 1096.67,-143 1092.83,-143"/>
<text text-anchor="middle" x="1032" y="-127.8" font-family="Arial" font-size="14.00" fill="#c6c5fe">../../fn/modules/by.js</text>
</g>
<!-- ../../fn/modules/by.js&#45;&gt;../../fn/modules/curry.js -->
<g id="edge18" class="edge">
<title>../../fn/modules/by.js&#45;&gt;../../fn/modules/curry.js</title>
<path fill="none" stroke="#757575" d="M1100.61,-128.81C1175.04,-127.27 1297.83,-128.95 1401,-150.5 1428.04,-156.15 1457.21,-167.33 1478.93,-176.74"/>
<polygon fill="#757575" stroke="#757575" points="1477.79,-180.06 1488.35,-180.91 1480.63,-173.66 1477.79,-180.06"/>
</g>
<!-- ../../fn/modules/denormalisers.js -->
<g id="node19" class="node">
<title>../../fn/modules/denormalisers.js</title>
<path fill="none" stroke="#c6c5fe" d="M869.83,-258C869.83,-258 676.17,-258 676.17,-258 672.33,-258 668.5,-254.17 668.5,-250.33 668.5,-250.33 668.5,-242.67 668.5,-242.67 668.5,-238.83 672.33,-235 676.17,-235 676.17,-235 869.83,-235 869.83,-235 873.67,-235 877.5,-238.83 877.5,-242.67 877.5,-242.67 877.5,-250.33 877.5,-250.33 877.5,-254.17 873.67,-258 869.83,-258"/>
<text text-anchor="middle" x="773" y="-242.8" font-family="Arial" font-size="14.00" fill="#c6c5fe">../../fn/modules/denormalisers.js</text>
</g>
<!-- ../../fn/modules/maths/cubic&#45;bezier.js -->
<g id="node20" class="node">
<title>../../fn/modules/maths/cubic&#45;bezier.js</title>
<path fill="none" stroke="#c6c5fe" d="M1393.33,-224C1393.33,-224 1172.67,-224 1172.67,-224 1168.83,-224 1165,-220.17 1165,-216.33 1165,-216.33 1165,-208.67 1165,-208.67 1165,-204.83 1168.83,-201 1172.67,-201 1172.67,-201 1393.33,-201 1393.33,-201 1397.17,-201 1401,-204.83 1401,-208.67 1401,-208.67 1401,-216.33 1401,-216.33 1401,-220.17 1397.17,-224 1393.33,-224"/>
<text text-anchor="middle" x="1283" y="-208.8" font-family="Arial" font-size="14.00" fill="#c6c5fe">../../fn/modules/maths/cubic&#45;bezier.js</text>
</g>
<!-- ../../fn/modules/denormalisers.js&#45;&gt;../../fn/modules/maths/cubic&#45;bezier.js -->
<g id="edge21" class="edge">
<title>../../fn/modules/denormalisers.js&#45;&gt;../../fn/modules/maths/cubic&#45;bezier.js</title>
<path fill="none" stroke="#757575" d="M867.55,-235C889.64,-232.57 913.13,-230.22 935,-228.5 1007.48,-222.78 1088.64,-218.9 1154.24,-216.4"/>
<polygon fill="#757575" stroke="#757575" points="1154.77,-219.88 1164.63,-216.01 1154.51,-212.88 1154.77,-219.88"/>
</g>
<!-- ../../fn/modules/normalisers.js -->
<g id="node21" class="node">
<title>../../fn/modules/normalisers.js</title>
<path fill="none" stroke="#c6c5fe" d="M1121.33,-261C1121.33,-261 942.67,-261 942.67,-261 938.83,-261 935,-257.17 935,-253.33 935,-253.33 935,-245.67 935,-245.67 935,-241.83 938.83,-238 942.67,-238 942.67,-238 1121.33,-238 1121.33,-238 1125.17,-238 1129,-241.83 1129,-245.67 1129,-245.67 1129,-253.33 1129,-253.33 1129,-257.17 1125.17,-261 1121.33,-261"/>
<text text-anchor="middle" x="1032" y="-245.8" font-family="Arial" font-size="14.00" fill="#c6c5fe">../../fn/modules/normalisers.js</text>
</g>
<!-- ../../fn/modules/denormalisers.js&#45;&gt;../../fn/modules/normalisers.js -->
<g id="edge22" class="edge">
<title>../../fn/modules/denormalisers.js&#45;&gt;../../fn/modules/normalisers.js</title>
<path fill="none" stroke="#757575" d="M877.79,-247.71C893.22,-247.89 909.14,-248.08 924.62,-248.26"/>
<polygon fill="#757575" stroke="#757575" points="924.68,-251.76 934.72,-248.38 924.76,-244.76 924.68,-251.76"/>
</g>
<!-- ../../fn/modules/types.js -->
<g id="node22" class="node">
<title>../../fn/modules/types.js</title>
<path fill="none" stroke="#c6c5fe" d="M1352.83,-301C1352.83,-301 1213.17,-301 1213.17,-301 1209.33,-301 1205.5,-297.17 1205.5,-293.33 1205.5,-293.33 1205.5,-285.67 1205.5,-285.67 1205.5,-281.83 1209.33,-278 1213.17,-278 1213.17,-278 1352.83,-278 1352.83,-278 1356.67,-278 1360.5,-281.83 1360.5,-285.67 1360.5,-285.67 1360.5,-293.33 1360.5,-293.33 1360.5,-297.17 1356.67,-301 1352.83,-301"/>
<text text-anchor="middle" x="1283" y="-285.8" font-family="Arial" font-size="14.00" fill="#c6c5fe">../../fn/modules/types.js</text>
</g>
<!-- ../../fn/modules/denormalisers.js&#45;&gt;../../fn/modules/types.js -->
<g id="edge23" class="edge">
<title>../../fn/modules/denormalisers.js&#45;&gt;../../fn/modules/types.js</title>
<path fill="none" stroke="#757575" d="M845.57,-258.04C873.42,-262.19 905.64,-266.56 935,-269.5 1023.42,-278.35 1124.93,-283.63 1195.22,-286.53"/>
<polygon fill="#757575" stroke="#757575" points="1195.23,-290.03 1205.36,-286.94 1195.51,-283.04 1195.23,-290.03"/>
</g>
<!-- ../../fn/modules/maths/cubic&#45;bezier.js&#45;&gt;../../fn/modules/curry.js -->
<g id="edge26" class="edge">
<title>../../fn/modules/maths/cubic&#45;bezier.js&#45;&gt;../../fn/modules/curry.js</title>
<path fill="none" stroke="#757575" d="M1401.26,-202.24C1409.99,-201.47 1418.69,-200.71 1427.16,-199.97"/>
<polygon fill="#757575" stroke="#757575" points="1427.72,-203.43 1437.37,-199.08 1427.11,-196.46 1427.72,-203.43"/>
</g>
<!-- ../../fn/modules/normalisers.js&#45;&gt;../../fn/modules/maths/cubic&#45;bezier.js -->
<g id="edge27" class="edge">
<title>../../fn/modules/normalisers.js&#45;&gt;../../fn/modules/maths/cubic&#45;bezier.js</title>
<path fill="none" stroke="#757575" d="M1110.42,-238C1136.99,-234.05 1166.92,-229.6 1194.26,-225.54"/>
<polygon fill="#757575" stroke="#757575" points="1194.82,-228.99 1204.2,-224.06 1193.79,-222.07 1194.82,-228.99"/>
</g>
<!-- ../../fn/modules/normalisers.js&#45;&gt;../../fn/modules/types.js -->
<g id="edge28" class="edge">
<title>../../fn/modules/normalisers.js&#45;&gt;../../fn/modules/types.js</title>
<path fill="none" stroke="#757575" d="M1104.69,-261.02C1134.63,-265.83 1169.59,-271.44 1200.5,-276.41"/>
<polygon fill="#757575" stroke="#757575" points="1199.96,-279.87 1210.39,-278 1201.07,-272.95 1199.96,-279.87"/>
</g>
<!-- ../../fn/modules/types.js&#45;&gt;../../fn/modules/noop.js -->
<g id="edge30" class="edge">
<title>../../fn/modules/types.js&#45;&gt;../../fn/modules/noop.js</title>
<path fill="none" stroke="#757575" d="M1317.72,-301.16C1358,-315.08 1425.45,-338.4 1469.46,-353.62"/>
<polygon fill="#757575" stroke="#757575" points="1468.42,-356.96 1479.02,-356.92 1470.71,-350.35 1468.42,-356.96"/>
</g>
<!-- ../../fn/modules/get.js -->
<g id="node23" class="node">
<title>../../fn/modules/get.js</title>
<path fill="none" stroke="#c6c5fe" d="M1346.33,-103C1346.33,-103 1219.67,-103 1219.67,-103 1215.83,-103 1212,-99.17 1212,-95.33 1212,-95.33 1212,-87.67 1212,-87.67 1212,-83.83 1215.83,-80 1219.67,-80 1219.67,-80 1346.33,-80 1346.33,-80 1350.17,-80 1354,-83.83 1354,-87.67 1354,-87.67 1354,-95.33 1354,-95.33 1354,-99.17 1350.17,-103 1346.33,-103"/>
<text text-anchor="middle" x="1283" y="-87.8" font-family="Arial" font-size="14.00" fill="#c6c5fe">../../fn/modules/get.js</text>
</g>
<!-- ../../fn/modules/get.js&#45;&gt;../../fn/modules/curry.js -->
<g id="edge24" class="edge">
<title>../../fn/modules/get.js&#45;&gt;../../fn/modules/curry.js</title>
<path fill="none" stroke="#757575" d="M1354.02,-102.59C1369.83,-106.31 1386.28,-111.18 1401,-117.5 1435.07,-132.12 1469.8,-157.49 1491.25,-174.63"/>
<polygon fill="#757575" stroke="#757575" points="1489.09,-177.38 1499.06,-180.97 1493.51,-171.95 1489.09,-177.38"/>
</g>
<!-- ../../fn/modules/maths/clamp.js -->
<g id="node24" class="node">
<title>../../fn/modules/maths/clamp.js</title>
<path fill="none" stroke="#c6c5fe" d="M1375.83,-183C1375.83,-183 1190.17,-183 1190.17,-183 1186.33,-183 1182.5,-179.17 1182.5,-175.33 1182.5,-175.33 1182.5,-167.67 1182.5,-167.67 1182.5,-163.83 1186.33,-160 1190.17,-160 1190.17,-160 1375.83,-160 1375.83,-160 1379.67,-160 1383.5,-163.83 1383.5,-167.67 1383.5,-167.67 1383.5,-175.33 1383.5,-175.33 1383.5,-179.17 1379.67,-183 1375.83,-183"/>
<text text-anchor="middle" x="1283" y="-167.8" font-family="Arial" font-size="14.00" fill="#c6c5fe">../../fn/modules/maths/clamp.js</text>
</g>
<!-- ../../fn/modules/maths/clamp.js&#45;&gt;../../fn/modules/curry.js -->
<g id="edge25" class="edge">
<title>../../fn/modules/maths/clamp.js&#45;&gt;../../fn/modules/curry.js</title>
<path fill="none" stroke="#757575" d="M1383.56,-180.65C1398.08,-181.98 1412.91,-183.35 1427.11,-184.65"/>
<polygon fill="#757575" stroke="#757575" points="1427.05,-188.16 1437.33,-185.59 1427.69,-181.19 1427.05,-188.16"/>
</g>
<!-- ../../fn/modules/maths/to&#45;db.js -->
<g id="node25" class="node">
<title>../../fn/modules/maths/to&#45;db.js</title>
<path fill="none" stroke="#cfffac" d="M862.83,-379C862.83,-379 683.17,-379 683.17,-379 679.33,-379 675.5,-375.17 675.5,-371.33 675.5,-371.33 675.5,-363.67 675.5,-363.67 675.5,-359.83 679.33,-356 683.17,-356 683.17,-356 862.83,-356 862.83,-356 866.67,-356 870.5,-359.83 870.5,-363.67 870.5,-363.67 870.5,-371.33 870.5,-371.33 870.5,-375.17 866.67,-379 862.83,-379"/>
<text text-anchor="middle" x="773" y="-363.8" font-family="Arial" font-size="14.00" fill="#cfffac">../../fn/modules/maths/to&#45;db.js</text>
</g>
<!-- ../../fn/modules/maths/to&#45;gain.js -->
<g id="node26" class="node">
<title>../../fn/modules/maths/to&#45;gain.js</title>
<path fill="none" stroke="#cfffac" d="M868.33,-338C868.33,-338 677.67,-338 677.67,-338 673.83,-338 670,-334.17 670,-330.33 670,-330.33 670,-322.67 670,-322.67 670,-318.83 673.83,-315 677.67,-315 677.67,-315 868.33,-315 868.33,-315 872.17,-315 876,-318.83 876,-322.67 876,-322.67 876,-330.33 876,-330.33 876,-334.17 872.17,-338 868.33,-338"/>
<text text-anchor="middle" x="773" y="-322.8" font-family="Arial" font-size="14.00" fill="#cfffac">../../fn/modules/maths/to&#45;gain.js</text>
</g>
<!-- ../../fn/modules/privates.js -->
<g id="node27" class="node">
<title>../../fn/modules/privates.js</title>
<path fill="none" stroke="#cfffac" d="M567.83,-64C567.83,-64 413.17,-64 413.17,-64 409.33,-64 405.5,-60.17 405.5,-56.33 405.5,-56.33 405.5,-48.67 405.5,-48.67 405.5,-44.83 409.33,-41 413.17,-41 413.17,-41 567.83,-41 567.83,-41 571.67,-41 575.5,-44.83 575.5,-48.67 575.5,-48.67 575.5,-56.33 575.5,-56.33 575.5,-60.17 571.67,-64 567.83,-64"/>
<text text-anchor="middle" x="490.5" y="-48.8" font-family="Arial" font-size="14.00" fill="#cfffac">../../fn/modules/privates.js</text>
</g>
<!-- ../../fn/modules/request&#45;tick.js -->
<g id="node28" class="node">
<title>../../fn/modules/request&#45;tick.js</title>
<path fill="none" stroke="#cfffac" d="M579.33,-182C579.33,-182 401.67,-182 401.67,-182 397.83,-182 394,-178.17 394,-174.33 394,-174.33 394,-166.67 394,-166.67 394,-162.83 397.83,-159 401.67,-159 401.67,-159 579.33,-159 579.33,-159 583.17,-159 587,-162.83 587,-166.67 587,-166.67 587,-174.33 587,-174.33 587,-178.17 583.17,-182 579.33,-182"/>
<text text-anchor="middle" x="490.5" y="-166.8" font-family="Arial" font-size="14.00" fill="#cfffac">../../fn/modules/request&#45;tick.js</text>
</g>
<!-- ../../fn/modules/strings/to&#45;camel&#45;case.js -->
<g id="node29" class="node">
<title>../../fn/modules/strings/to&#45;camel&#45;case.js</title>
<path fill="none" stroke="#cfffac" d="M891.33,-420C891.33,-420 654.67,-420 654.67,-420 650.83,-420 647,-416.17 647,-412.33 647,-412.33 647,-404.67 647,-404.67 647,-400.83 650.83,-397 654.67,-397 654.67,-397 891.33,-397 891.33,-397 895.17,-397 899,-400.83 899,-404.67 899,-404.67 899,-412.33 899,-412.33 899,-416.17 895.17,-420 891.33,-420"/>
<text text-anchor="middle" x="773" y="-404.8" font-family="Arial" font-size="14.00" fill="#cfffac">../../fn/modules/strings/to&#45;camel&#45;case.js</text>
</g>
<!-- attributes.js -->
<g id="node30" class="node">
<title>attributes.js</title>
<path fill="none" stroke="#c6c5fe" d="M275.33,-182C275.33,-182 204.67,-182 204.67,-182 200.83,-182 197,-178.17 197,-174.33 197,-174.33 197,-166.67 197,-166.67 197,-162.83 200.83,-159 204.67,-159 204.67,-159 275.33,-159 275.33,-159 279.17,-159 283,-162.83 283,-166.67 283,-166.67 283,-174.33 283,-174.33 283,-178.17 279.17,-182 275.33,-182"/>
<text text-anchor="middle" x="240" y="-166.8" font-family="Arial" font-size="14.00" fill="#c6c5fe">attributes.js</text>
</g>
<!-- attributes.js&#45;&gt;../../fn/modules/nothing.js -->
<g id="edge33" class="edge">
<title>attributes.js&#45;&gt;../../fn/modules/nothing.js</title>
<path fill="none" stroke="#757575" d="M283.14,-181.62C356.63,-200.76 513.18,-240.37 647,-266.5 758.23,-288.22 790.71,-272.07 899,-305.5 936.17,-316.97 976.12,-337.27 1002.21,-351.73"/>
<polygon fill="#757575" stroke="#757575" points="1000.74,-354.91 1011.17,-356.76 1004.17,-348.81 1000.74,-354.91"/>
</g>
<!-- attributes.js&#45;&gt;../../fn/modules/by.js -->
<g id="edge31" class="edge">
<title>attributes.js&#45;&gt;../../fn/modules/by.js</title>
<path fill="none" stroke="#757575" d="M283.23,-162.16C308.33,-157.57 340.86,-152.26 370,-149.5 580.1,-129.63 829.31,-129.01 953.12,-130.25"/>
<polygon fill="#757575" stroke="#757575" points="953.22,-133.75 963.26,-130.36 953.3,-126.75 953.22,-133.75"/>
</g>
<!-- attributes.js&#45;&gt;../../fn/modules/get.js -->
<g id="edge32" class="edge">
<title>attributes.js&#45;&gt;../../fn/modules/get.js</title>
<path fill="none" stroke="#757575" d="M271.5,-158.92C297.32,-149.69 335.52,-137.37 370,-131.5 673.66,-79.78 1041.91,-83.54 1201.65,-88.34"/>
<polygon fill="#757575" stroke="#757575" points="1201.76,-91.85 1211.87,-88.66 1201.98,-84.85 1201.76,-91.85"/>
</g>
<!-- attributes.js&#45;&gt;../../fn/modules/privates.js -->
<g id="edge34" class="edge">
<title>attributes.js&#45;&gt;../../fn/modules/privates.js</title>
<path fill="none" stroke="#757575" d="M272.77,-158.96C291.77,-151.09 315.7,-139.39 334,-124.5 354.14,-108.11 348.01,-92.3 370,-78.5 377.94,-73.52 386.7,-69.48 395.75,-66.21"/>
<polygon fill="#757575" stroke="#757575" points="396.88,-69.52 405.28,-63.07 394.69,-62.87 396.88,-69.52"/>
</g>
<!-- attributes.js&#45;&gt;../../fn/modules/request&#45;tick.js -->
<g id="edge35" class="edge">
<title>attributes.js&#45;&gt;../../fn/modules/request&#45;tick.js</title>
<path fill="none" stroke="#757575" d="M283.15,-170.5C310.76,-170.5 348.14,-170.5 383.51,-170.5"/>
<polygon fill="#757575" stroke="#757575" points="383.91,-174 393.91,-170.5 383.91,-167 383.91,-174"/>
</g>
<!-- control.js -->
<g id="node31" class="node">
<title>control.js</title>
<path fill="none" stroke="#c6c5fe" d="M518.33,-338C518.33,-338 462.67,-338 462.67,-338 458.83,-338 455,-334.17 455,-330.33 455,-330.33 455,-322.67 455,-322.67 455,-318.83 458.83,-315 462.67,-315 462.67,-315 518.33,-315 518.33,-315 522.17,-315 526,-318.83 526,-322.67 526,-322.67 526,-330.33 526,-330.33 526,-334.17 522.17,-338 518.33,-338"/>
<text text-anchor="middle" x="490.5" y="-322.8" font-family="Arial" font-size="14.00" fill="#c6c5fe">control.js</text>
</g>
<!-- attributes.js&#45;&gt;control.js -->
<g id="edge36" class="edge">
<title>attributes.js&#45;&gt;control.js</title>
<path fill="none" stroke="#757575" d="M259.68,-182.23C303.23,-209.57 411.65,-277.63 462.45,-309.52"/>
<polygon fill="#757575" stroke="#757575" points="460.61,-312.5 470.94,-314.85 464.34,-306.57 460.61,-312.5"/>
</g>
<!-- control.js&#45;&gt;../../fn/modules/id.js -->
<g id="edge38" class="edge">
<title>control.js&#45;&gt;../../fn/modules/id.js</title>
<path fill="none" stroke="#757575" d="M499.61,-338.24C520.24,-367.02 578.04,-440.85 647,-470.5 746.77,-513.39 874.65,-511.89 954.73,-505.08"/>
<polygon fill="#757575" stroke="#757575" points="955.09,-508.57 964.74,-504.18 954.46,-501.59 955.09,-508.57"/>
</g>
<!-- control.js&#45;&gt;../../fn/modules/overload.js -->
<g id="edge42" class="edge">
<title>control.js&#45;&gt;../../fn/modules/overload.js</title>
<path fill="none" stroke="#757575" d="M500.91,-338.21C523,-366.22 578.78,-439.95 611,-509.5 634.58,-560.41 602.78,-595.97 647,-630.5 690.1,-664.15 835.37,-661.69 934.34,-655.55"/>
<polygon fill="#757575" stroke="#757575" points="934.62,-659.04 944.37,-654.91 934.17,-652.06 934.62,-659.04"/>
</g>
<!-- control.js&#45;&gt;../../fn/modules/denormalisers.js -->
<g id="edge37" class="edge">
<title>control.js&#45;&gt;../../fn/modules/denormalisers.js</title>
<path fill="none" stroke="#757575" d="M526.18,-316.61C575.26,-302.61 665.31,-276.93 721.73,-260.84"/>
<polygon fill="#757575" stroke="#757575" points="722.85,-264.16 731.51,-258.05 720.93,-257.42 722.85,-264.16"/>
</g>
<!-- control.js&#45;&gt;../../fn/modules/normalisers.js -->
<g id="edge41" class="edge">
<title>control.js&#45;&gt;../../fn/modules/normalisers.js</title>
<path fill="none" stroke="#757575" d="M518.53,-314.94C543.71,-303.52 581.67,-284.58 611,-262.5 629.33,-248.7 625.86,-234.43 647,-225.5 762.49,-176.73 915.02,-212.37 988.22,-234.86"/>
<polygon fill="#757575" stroke="#757575" points="987.42,-238.28 998.01,-237.94 989.52,-231.6 987.42,-238.28"/>
</g>
<!-- control.js&#45;&gt;../../fn/modules/maths/to&#45;db.js -->
<g id="edge39" class="edge">
<title>control.js&#45;&gt;../../fn/modules/maths/to&#45;db.js</title>
<path fill="none" stroke="#757575" d="M526.18,-331.57C565.08,-337.25 629.7,-346.7 682.93,-354.48"/>
<polygon fill="#757575" stroke="#757575" points="682.66,-357.98 693.06,-355.96 683.68,-351.05 682.66,-357.98"/>
</g>
<!-- control.js&#45;&gt;../../fn/modules/maths/to&#45;gain.js -->
<g id="edge40" class="edge">
<title>control.js&#45;&gt;../../fn/modules/maths/to&#45;gain.js</title>
<path fill="none" stroke="#757575" d="M526.18,-326.5C559.57,-326.5 611.91,-326.5 659.72,-326.5"/>
<polygon fill="#757575" stroke="#757575" points="659.85,-330 669.85,-326.5 659.85,-323 659.85,-330"/>
</g>
<!-- control.js&#45;&gt;../../fn/modules/strings/to&#45;camel&#45;case.js -->
<g id="edge43" class="edge">
<title>control.js&#45;&gt;../../fn/modules/strings/to&#45;camel&#45;case.js</title>
<path fill="none" stroke="#757575" d="M515.7,-338.1C545.8,-352.06 599.09,-375.29 647,-388.5 655.71,-390.9 664.85,-393.05 674.06,-394.96"/>
<polygon fill="#757575" stroke="#757575" points="673.56,-398.43 684.05,-396.94 674.92,-391.56 673.56,-398.43"/>
</g>
<!-- range&#45;control.js -->
<g id="node32" class="node">
<title>range&#45;control.js</title>
<path fill="none" stroke="#c6c5fe" d="M102.33,-260C102.33,-260 7.67,-260 7.67,-260 3.83,-260 0,-256.17 0,-252.33 0,-252.33 0,-244.67 0,-244.67 0,-240.83 3.83,-237 7.67,-237 7.67,-237 102.33,-237 102.33,-237 106.17,-237 110,-240.83 110,-244.67 110,-244.67 110,-252.33 110,-252.33 110,-256.17 106.17,-260 102.33,-260"/>
<text text-anchor="middle" x="55" y="-244.8" font-family="Arial" font-size="14.00" fill="#c6c5fe">range&#45;control.js</text>
</g>
<!-- range&#45;control.js&#45;&gt;../../dom/modules/create.js -->
<g id="edge44" class="edge">
<title>range&#45;control.js&#45;&gt;../../dom/modules/create.js</title>
<path fill="none" stroke="#757575" d="M57.77,-260.31C65.65,-311.24 99.23,-511.34 146,-550.5 221.86,-614.02 342.45,-611.91 418.72,-602.35"/>
<polygon fill="#757575" stroke="#757575" points="419.26,-605.81 428.71,-601.02 418.34,-598.87 419.26,-605.81"/>
</g>
<!-- range&#45;control.js&#45;&gt;../../dom/modules/element.js -->
<g id="edge45" class="edge">
<title>range&#45;control.js&#45;&gt;../../dom/modules/element.js</title>
<path fill="none" stroke="#757575" d="M63.63,-260.22C91.77,-303.42 189.92,-454.14 225.77,-509.18"/>
<polygon fill="#757575" stroke="#757575" points="222.95,-511.26 231.34,-517.73 228.81,-507.44 222.95,-511.26"/>
</g>
<!-- range&#45;control.js&#45;&gt;../../dom/modules/trigger.js -->
<g id="edge46" class="edge">
<title>range&#45;control.js&#45;&gt;../../dom/modules/trigger.js</title>
<path fill="none" stroke="#757575" d="M60.87,-236.73C72.51,-209.63 104.09,-141.7 146,-96.5 164.04,-77.05 188.83,-60.07 208.29,-48.35"/>
<polygon fill="#757575" stroke="#757575" points="210.23,-51.27 217.08,-43.19 206.68,-45.24 210.23,-51.27"/>
</g>
<!-- range&#45;control.js&#45;&gt;../../fn/modules/maths/clamp.js -->
<g id="edge47" class="edge">
<title>range&#45;control.js&#45;&gt;../../fn/modules/maths/clamp.js</title>
<path fill="none" stroke="#757575" d="M110.12,-243.01C214.07,-232.64 448.9,-210.1 647,-197.5 831.13,-185.79 1045.65,-178.29 1172.3,-174.49"/>
<polygon fill="#757575" stroke="#757575" points="1172.5,-177.98 1182.39,-174.19 1172.29,-170.99 1172.5,-177.98"/>
</g>
<!-- range&#45;control.js&#45;&gt;../../fn/modules/privates.js -->
<g id="edge48" class="edge">
<title>range&#45;control.js&#45;&gt;../../fn/modules/privates.js</title>
<path fill="none" stroke="#757575" d="M63.45,-236.9C77.27,-216.31 108.84,-173.31 146,-149.5 221.99,-100.8 322.7,-76.11 395.41,-63.88"/>
<polygon fill="#757575" stroke="#757575" points="396.17,-67.31 405.47,-62.24 395.04,-60.4 396.17,-67.31"/>
</g>
<!-- range&#45;control.js&#45;&gt;attributes.js -->
<g id="edge49" class="edge">
<title>range&#45;control.js&#45;&gt;attributes.js</title>
<path fill="none" stroke="#757575" d="M83,-236.99C114.63,-223.51 167.17,-201.12 202.43,-186.09"/>
<polygon fill="#757575" stroke="#757575" points="204.06,-189.2 211.89,-182.06 201.32,-182.76 204.06,-189.2"/>
</g>
<!-- range&#45;control.js&#45;&gt;control.js -->
<g id="edge50" class="edge">
<title>range&#45;control.js&#45;&gt;control.js</title>
<path fill="none" stroke="#757575" d="M110.03,-258.22C196.48,-273.78 364.32,-303.98 444.61,-318.42"/>
<polygon fill="#757575" stroke="#757575" points="444.41,-321.94 454.87,-320.27 445.65,-315.05 444.41,-321.94"/>
</g>
</g>
</svg>
