<?xml version="1.0" encoding="UTF-8" standalone="no"?>
<!DOCTYPE svg PUBLIC "-//W3C//DTD SVG 1.1//EN"
 "http://www.w3.org/Graphics/SVG/1.1/DTD/svg11.dtd">
<!-- Generated by graphviz version 2.44.1 (20200629.0846)
 -->
<!-- Title: G Pages: 1 -->
<svg width="1841pt" height="849pt"
 viewBox="0.00 0.00 1841.20 849.09" xmlns="http://www.w3.org/2000/svg" xmlns:xlink="http://www.w3.org/1999/xlink">
<g id="graph0" class="graph" transform="scale(1 1) rotate(0) translate(21.6 827.49)">
<title>G</title>
<polygon fill="#111111" stroke="transparent" points="-21.6,21.6 -21.6,-827.49 1819.6,-827.49 1819.6,21.6 -21.6,21.6"/>
<!-- ../../dom/modules/assign.js -->
<g id="node1" class="node">
<title>../../dom/modules/assign.js</title>
<path fill="none" stroke="#c6c5fe" d="M867.33,-574.47C867.33,-574.47 704.67,-574.47 704.67,-574.47 700.83,-574.47 697,-570.64 697,-566.81 697,-566.81 697,-559.14 697,-559.14 697,-555.31 700.83,-551.47 704.67,-551.47 704.67,-551.47 867.33,-551.47 867.33,-551.47 871.17,-551.47 875,-555.31 875,-559.14 875,-559.14 875,-566.81 875,-566.81 875,-570.64 871.17,-574.47 867.33,-574.47"/>
<text text-anchor="middle" x="786" y="-559.27" font-family="Arial" font-size="14.00" fill="#c6c5fe">../../dom/modules/assign.js</text>
</g>
<!-- ../../fn/modules/curry.js -->
<g id="node2" class="node">
<title>../../fn/modules/curry.js</title>
<path fill="none" stroke="#c6c5fe" d="M1594.83,-125.47C1594.83,-125.47 1458.17,-125.47 1458.17,-125.47 1454.33,-125.47 1450.5,-121.64 1450.5,-117.81 1450.5,-117.81 1450.5,-110.14 1450.5,-110.14 1450.5,-106.31 1454.33,-102.47 1458.17,-102.47 1458.17,-102.47 1594.83,-102.47 1594.83,-102.47 1598.67,-102.47 1602.5,-106.31 1602.5,-110.14 1602.5,-110.14 1602.5,-117.81 1602.5,-117.81 1602.5,-121.64 1598.67,-125.47 1594.83,-125.47"/>
<text text-anchor="middle" x="1526.5" y="-110.27" font-family="Arial" font-size="14.00" fill="#c6c5fe">../../fn/modules/curry.js</text>
</g>
<!-- ../../dom/modules/assign.js&#45;&gt;../../fn/modules/curry.js -->
<g id="edge1" class="edge">
<title>../../dom/modules/assign.js&#45;&gt;../../fn/modules/curry.js</title>
<path fill="none" stroke="#757575" d="M820.59,-551.39C845.85,-542.55 881.25,-529.91 912,-517.97 928.16,-511.7 931.94,-509.5 948,-502.97 1033.93,-468.02 1060.86,-470.93 1142,-425.97 1273.25,-353.26 1300.29,-323.88 1414,-225.97 1449.34,-195.55 1486.9,-156.15 1508.16,-133.11"/>
<polygon fill="#757575" stroke="#757575" points="1510.79,-135.42 1514.97,-125.69 1505.63,-130.69 1510.79,-135.42"/>
</g>
<!-- ../../fn/modules/id.js -->
<g id="node3" class="node">
<title>../../fn/modules/id.js</title>
<path fill="none" stroke="#cfffac" d="M1104.33,-653.47C1104.33,-653.47 985.67,-653.47 985.67,-653.47 981.83,-653.47 978,-649.64 978,-645.81 978,-645.81 978,-638.14 978,-638.14 978,-634.31 981.83,-630.47 985.67,-630.47 985.67,-630.47 1104.33,-630.47 1104.33,-630.47 1108.17,-630.47 1112,-634.31 1112,-638.14 1112,-638.14 1112,-645.81 1112,-645.81 1112,-649.64 1108.17,-653.47 1104.33,-653.47"/>
<text text-anchor="middle" x="1045" y="-638.27" font-family="Arial" font-size="14.00" fill="#cfffac">../../fn/modules/id.js</text>
</g>
<!-- ../../dom/modules/assign.js&#45;&gt;../../fn/modules/id.js -->
<g id="edge2" class="edge">
<title>../../dom/modules/assign.js&#45;&gt;../../fn/modules/id.js</title>
<path fill="none" stroke="#757575" d="M853.4,-574.51C872.49,-578.44 893.22,-583.3 912,-588.97 946.11,-599.28 983.7,-614.8 1010.01,-626.39"/>
<polygon fill="#757575" stroke="#757575" points="1008.61,-629.6 1019.17,-630.46 1011.45,-623.2 1008.61,-629.6"/>
</g>
<!-- ../../fn/modules/noop.js -->
<g id="node4" class="node">
<title>../../fn/modules/noop.js</title>
<path fill="none" stroke="#cfffac" d="M1595.33,-534.47C1595.33,-534.47 1457.67,-534.47 1457.67,-534.47 1453.83,-534.47 1450,-530.64 1450,-526.81 1450,-526.81 1450,-519.14 1450,-519.14 1450,-515.31 1453.83,-511.47 1457.67,-511.47 1457.67,-511.47 1595.33,-511.47 1595.33,-511.47 1599.17,-511.47 1603,-515.31 1603,-519.14 1603,-519.14 1603,-526.81 1603,-526.81 1603,-530.64 1599.17,-534.47 1595.33,-534.47"/>
<text text-anchor="middle" x="1526.5" y="-519.27" font-family="Arial" font-size="14.00" fill="#cfffac">../../fn/modules/noop.js</text>
</g>
<!-- ../../dom/modules/assign.js&#45;&gt;../../fn/modules/noop.js -->
<g id="edge3" class="edge">
<title>../../dom/modules/assign.js&#45;&gt;../../fn/modules/noop.js</title>
<path fill="none" stroke="#757575" d="M875.15,-561.64C996.62,-559.26 1222.24,-552.96 1414,-536.97 1422.31,-536.28 1430.96,-535.43 1439.6,-534.49"/>
<polygon fill="#757575" stroke="#757575" points="1440.17,-537.95 1449.72,-533.35 1439.39,-530.99 1440.17,-537.95"/>
</g>
<!-- ../../fn/modules/overload.js -->
<g id="node5" class="node">
<title>../../fn/modules/overload.js</title>
<path fill="none" stroke="#cfffac" d="M1124.83,-416.47C1124.83,-416.47 965.17,-416.47 965.17,-416.47 961.33,-416.47 957.5,-412.64 957.5,-408.81 957.5,-408.81 957.5,-401.14 957.5,-401.14 957.5,-397.31 961.33,-393.47 965.17,-393.47 965.17,-393.47 1124.83,-393.47 1124.83,-393.47 1128.67,-393.47 1132.5,-397.31 1132.5,-401.14 1132.5,-401.14 1132.5,-408.81 1132.5,-408.81 1132.5,-412.64 1128.67,-416.47 1124.83,-416.47"/>
<text text-anchor="middle" x="1045" y="-401.27" font-family="Arial" font-size="14.00" fill="#cfffac">../../fn/modules/overload.js</text>
</g>
<!-- ../../dom/modules/assign.js&#45;&gt;../../fn/modules/overload.js -->
<g id="edge4" class="edge">
<title>../../dom/modules/assign.js&#45;&gt;../../fn/modules/overload.js</title>
<path fill="none" stroke="#757575" d="M818.95,-551.44C845.77,-540.7 884.06,-522.76 912,-498.97 932.58,-481.46 927.12,-467.13 948,-449.97 963.12,-437.55 982.24,-427.69 999.43,-420.4"/>
<polygon fill="#757575" stroke="#757575" points="1000.79,-423.62 1008.74,-416.61 998.16,-417.13 1000.79,-423.62"/>
</g>
<!-- ../../fn/modules/cache.js -->
<g id="node13" class="node">
<title>../../fn/modules/cache.js</title>
<path fill="none" stroke="#cfffac" d="M1790.33,-460.47C1790.33,-460.47 1646.67,-460.47 1646.67,-460.47 1642.83,-460.47 1639,-456.64 1639,-452.81 1639,-452.81 1639,-445.14 1639,-445.14 1639,-441.31 1642.83,-437.47 1646.67,-437.47 1646.67,-437.47 1790.33,-437.47 1790.33,-437.47 1794.17,-437.47 1798,-441.31 1798,-445.14 1798,-445.14 1798,-452.81 1798,-452.81 1798,-456.64 1794.17,-460.47 1790.33,-460.47"/>
<text text-anchor="middle" x="1718.5" y="-445.27" font-family="Arial" font-size="14.00" fill="#cfffac">../../fn/modules/cache.js</text>
</g>
<!-- ../../fn/modules/curry.js&#45;&gt;../../fn/modules/cache.js -->
<g id="edge20" class="edge">
<title>../../fn/modules/curry.js&#45;&gt;../../fn/modules/cache.js</title>
<path fill="none" stroke="#757575" d="M1534.04,-125.51C1561.78,-174.42 1669.96,-365.16 1705.86,-428.44"/>
<polygon fill="#757575" stroke="#757575" points="1702.81,-430.17 1710.79,-437.14 1708.9,-426.72 1702.81,-430.17"/>
</g>
<!-- ../../dom/modules/create.js -->
<g id="node6" class="node">
<title>../../dom/modules/create.js</title>
<path fill="none" stroke="#c6c5fe" d="M583.83,-616.47C583.83,-616.47 423.17,-616.47 423.17,-616.47 419.33,-616.47 415.5,-612.64 415.5,-608.81 415.5,-608.81 415.5,-601.14 415.5,-601.14 415.5,-597.31 419.33,-593.47 423.17,-593.47 423.17,-593.47 583.83,-593.47 583.83,-593.47 587.67,-593.47 591.5,-597.31 591.5,-601.14 591.5,-601.14 591.5,-608.81 591.5,-608.81 591.5,-612.64 587.67,-616.47 583.83,-616.47"/>
<text text-anchor="middle" x="503.5" y="-601.27" font-family="Arial" font-size="14.00" fill="#c6c5fe">../../dom/modules/create.js</text>
</g>
<!-- ../../dom/modules/create.js&#45;&gt;../../dom/modules/assign.js -->
<g id="edge5" class="edge">
<title>../../dom/modules/create.js&#45;&gt;../../dom/modules/assign.js</title>
<path fill="none" stroke="#757575" d="M581.52,-593.44C617.54,-588.05 660.61,-581.6 697.82,-576.03"/>
<polygon fill="#757575" stroke="#757575" points="698.78,-579.42 708.15,-574.48 697.74,-572.5 698.78,-579.42"/>
</g>
<!-- ../../dom/modules/create.js&#45;&gt;../../fn/modules/id.js -->
<g id="edge6" class="edge">
<title>../../dom/modules/create.js&#45;&gt;../../fn/modules/id.js</title>
<path fill="none" stroke="#757575" d="M527.19,-616.59C556.82,-631.05 610.72,-654.94 660,-663.97 770,-684.14 900.43,-668.5 977.47,-655.28"/>
<polygon fill="#757575" stroke="#757575" points="978.27,-658.69 987.52,-653.52 977.06,-651.8 978.27,-658.69"/>
</g>
<!-- ../../dom/modules/create.js&#45;&gt;../../fn/modules/overload.js -->
<g id="edge7" class="edge">
<title>../../dom/modules/create.js&#45;&gt;../../fn/modules/overload.js</title>
<path fill="none" stroke="#757575" d="M591.5,-597.78C602.87,-594.75 614.02,-590.61 624,-584.97 645.41,-572.89 639.43,-556.43 660,-542.97 758,-478.86 802.59,-507.75 912,-465.97 921.8,-462.23 974.48,-437.65 1010.25,-420.86"/>
<polygon fill="#757575" stroke="#757575" points="1011.83,-423.98 1019.4,-416.56 1008.86,-417.65 1011.83,-423.98"/>
</g>
<!-- ../../fn/modules/to&#45;type.js -->
<g id="node7" class="node">
<title>../../fn/modules/to&#45;type.js</title>
<path fill="none" stroke="#cfffac" d="M860.33,-654.47C860.33,-654.47 711.67,-654.47 711.67,-654.47 707.83,-654.47 704,-650.64 704,-646.81 704,-646.81 704,-639.14 704,-639.14 704,-635.31 707.83,-631.47 711.67,-631.47 711.67,-631.47 860.33,-631.47 860.33,-631.47 864.17,-631.47 868,-635.31 868,-639.14 868,-639.14 868,-646.81 868,-646.81 868,-650.64 864.17,-654.47 860.33,-654.47"/>
<text text-anchor="middle" x="786" y="-639.27" font-family="Arial" font-size="14.00" fill="#cfffac">../../fn/modules/to&#45;type.js</text>
</g>
<!-- ../../dom/modules/create.js&#45;&gt;../../fn/modules/to&#45;type.js -->
<g id="edge8" class="edge">
<title>../../dom/modules/create.js&#45;&gt;../../fn/modules/to&#45;type.js</title>
<path fill="none" stroke="#757575" d="M589.42,-616.48C622.3,-620.93 660.01,-626.04 693.49,-630.58"/>
<polygon fill="#757575" stroke="#757575" points="693.35,-634.09 703.73,-631.96 694.29,-627.15 693.35,-634.09"/>
</g>
<!-- ../../dom/modules/element.js -->
<g id="node8" class="node">
<title>../../dom/modules/element.js</title>
<path fill="none" stroke="#c6c5fe" d="M332.83,-616.47C332.83,-616.47 160.17,-616.47 160.17,-616.47 156.33,-616.47 152.5,-612.64 152.5,-608.81 152.5,-608.81 152.5,-601.14 152.5,-601.14 152.5,-597.31 156.33,-593.47 160.17,-593.47 160.17,-593.47 332.83,-593.47 332.83,-593.47 336.67,-593.47 340.5,-597.31 340.5,-601.14 340.5,-601.14 340.5,-608.81 340.5,-608.81 340.5,-612.64 336.67,-616.47 332.83,-616.47"/>
<text text-anchor="middle" x="246.5" y="-601.27" font-family="Arial" font-size="14.00" fill="#c6c5fe">../../dom/modules/element.js</text>
</g>
<!-- ../../dom/modules/element.js&#45;&gt;../../dom/modules/create.js -->
<g id="edge9" class="edge">
<title>../../dom/modules/element.js&#45;&gt;../../dom/modules/create.js</title>
<path fill="none" stroke="#757575" d="M340.64,-604.97C361.55,-604.97 383.79,-604.97 404.87,-604.97"/>
<polygon fill="#757575" stroke="#757575" points="405.12,-608.47 415.12,-604.97 405.12,-601.47 405.12,-608.47"/>
</g>
<!-- ../../dom/modules/request&#45;template.js -->
<g id="node9" class="node">
<title>../../dom/modules/request&#45;template.js</title>
<path fill="none" stroke="#c6c5fe" d="M616.33,-754.47C616.33,-754.47 390.67,-754.47 390.67,-754.47 386.83,-754.47 383,-750.64 383,-746.81 383,-746.81 383,-739.14 383,-739.14 383,-735.31 386.83,-731.47 390.67,-731.47 390.67,-731.47 616.33,-731.47 616.33,-731.47 620.17,-731.47 624,-735.31 624,-739.14 624,-739.14 624,-746.81 624,-746.81 624,-750.64 620.17,-754.47 616.33,-754.47"/>
<text text-anchor="middle" x="503.5" y="-739.27" font-family="Arial" font-size="14.00" fill="#c6c5fe">../../dom/modules/request&#45;template.js</text>
</g>
<!-- ../../dom/modules/element.js&#45;&gt;../../dom/modules/request&#45;template.js -->
<g id="edge10" class="edge">
<title>../../dom/modules/element.js&#45;&gt;../../dom/modules/request&#45;template.js</title>
<path fill="none" stroke="#757575" d="M268.8,-616.5C314.08,-641.01 420.03,-698.34 472.27,-726.62"/>
<polygon fill="#757575" stroke="#757575" points="470.62,-729.7 481.08,-731.38 473.95,-723.54 470.62,-729.7"/>
</g>
<!-- ../../dom/modules/parse.js -->
<g id="node11" class="node">
<title>../../dom/modules/parse.js</title>
<path fill="none" stroke="#cfffac" d="M864.83,-775.47C864.83,-775.47 707.17,-775.47 707.17,-775.47 703.33,-775.47 699.5,-771.64 699.5,-767.81 699.5,-767.81 699.5,-760.14 699.5,-760.14 699.5,-756.31 703.33,-752.47 707.17,-752.47 707.17,-752.47 864.83,-752.47 864.83,-752.47 868.67,-752.47 872.5,-756.31 872.5,-760.14 872.5,-760.14 872.5,-767.81 872.5,-767.81 872.5,-771.64 868.67,-775.47 864.83,-775.47"/>
<text text-anchor="middle" x="786" y="-760.27" font-family="Arial" font-size="14.00" fill="#cfffac">../../dom/modules/parse.js</text>
</g>
<!-- ../../dom/modules/request&#45;template.js&#45;&gt;../../dom/modules/parse.js -->
<g id="edge11" class="edge">
<title>../../dom/modules/request&#45;template.js&#45;&gt;../../dom/modules/parse.js</title>
<path fill="none" stroke="#757575" d="M624.27,-751.94C645.9,-753.56 668.19,-755.23 689.02,-756.79"/>
<polygon fill="#757575" stroke="#757575" points="688.89,-760.29 699.13,-757.54 689.42,-753.31 688.89,-760.29"/>
</g>
<!-- ../../dom/modules/request.js -->
<g id="node12" class="node">
<title>../../dom/modules/request.js</title>
<path fill="none" stroke="#c6c5fe" d="M870.33,-734.47C870.33,-734.47 701.67,-734.47 701.67,-734.47 697.83,-734.47 694,-730.64 694,-726.81 694,-726.81 694,-719.14 694,-719.14 694,-715.31 697.83,-711.47 701.67,-711.47 701.67,-711.47 870.33,-711.47 870.33,-711.47 874.17,-711.47 878,-715.31 878,-719.14 878,-719.14 878,-726.81 878,-726.81 878,-730.64 874.17,-734.47 870.33,-734.47"/>
<text text-anchor="middle" x="786" y="-719.27" font-family="Arial" font-size="14.00" fill="#c6c5fe">../../dom/modules/request.js</text>
</g>
<!-- ../../dom/modules/request&#45;template.js&#45;&gt;../../dom/modules/request.js -->
<g id="edge12" class="edge">
<title>../../dom/modules/request&#45;template.js&#45;&gt;../../dom/modules/request.js</title>
<path fill="none" stroke="#757575" d="M624.27,-734.43C643.96,-733.03 664.2,-731.59 683.4,-730.22"/>
<polygon fill="#757575" stroke="#757575" points="683.91,-733.69 693.63,-729.49 683.41,-726.71 683.91,-733.69"/>
</g>
<!-- ../../dom/modules/request&#45;template.js&#45;&gt;../../fn/modules/cache.js -->
<g id="edge13" class="edge">
<title>../../dom/modules/request&#45;template.js&#45;&gt;../../fn/modules/cache.js</title>
<path fill="none" stroke="#757575" d="M538.93,-754.56C570.14,-764.51 617.6,-778.28 660,-784.97 828.78,-811.63 873.12,-803.97 1044,-803.97 1044,-803.97 1044,-803.97 1297,-803.97 1505.47,-803.97 1664.06,-546.06 1706.34,-469.9"/>
<polygon fill="#757575" stroke="#757575" points="1709.6,-471.24 1711.33,-460.79 1703.46,-467.88 1709.6,-471.24"/>
</g>
<!-- ../../dom/modules/event.js -->
<g id="node10" class="node">
<title>../../dom/modules/event.js</title>
<path fill="none" stroke="#cfffac" d="M864.33,-456.47C864.33,-456.47 707.67,-456.47 707.67,-456.47 703.83,-456.47 700,-452.64 700,-448.81 700,-448.81 700,-441.14 700,-441.14 700,-437.31 703.83,-433.47 707.67,-433.47 707.67,-433.47 864.33,-433.47 864.33,-433.47 868.17,-433.47 872,-437.31 872,-441.14 872,-441.14 872,-448.81 872,-448.81 872,-452.64 868.17,-456.47 864.33,-456.47"/>
<text text-anchor="middle" x="786" y="-441.27" font-family="Arial" font-size="14.00" fill="#cfffac">../../dom/modules/event.js</text>
</g>
<!-- ../../dom/modules/request.js&#45;&gt;../../fn/modules/id.js -->
<g id="edge15" class="edge">
<title>../../dom/modules/request.js&#45;&gt;../../fn/modules/id.js</title>
<path fill="none" stroke="#757575" d="M854.09,-711.46C873,-707.55 893.47,-702.7 912,-696.97 946.64,-686.26 984.73,-669.87 1011.04,-657.76"/>
<polygon fill="#757575" stroke="#757575" points="1012.59,-660.91 1020.18,-653.52 1009.64,-654.56 1012.59,-660.91"/>
</g>
<!-- ../../fn/modules/choose.js -->
<g id="node14" class="node">
<title>../../fn/modules/choose.js</title>
<path fill="none" stroke="#c6c5fe" d="M1120.83,-734.47C1120.83,-734.47 969.17,-734.47 969.17,-734.47 965.33,-734.47 961.5,-730.64 961.5,-726.81 961.5,-726.81 961.5,-719.14 961.5,-719.14 961.5,-715.31 965.33,-711.47 969.17,-711.47 969.17,-711.47 1120.83,-711.47 1120.83,-711.47 1124.67,-711.47 1128.5,-715.31 1128.5,-719.14 1128.5,-719.14 1128.5,-726.81 1128.5,-726.81 1128.5,-730.64 1124.67,-734.47 1120.83,-734.47"/>
<text text-anchor="middle" x="1045" y="-719.27" font-family="Arial" font-size="14.00" fill="#c6c5fe">../../fn/modules/choose.js</text>
</g>
<!-- ../../dom/modules/request.js&#45;&gt;../../fn/modules/choose.js -->
<g id="edge14" class="edge">
<title>../../dom/modules/request.js&#45;&gt;../../fn/modules/choose.js</title>
<path fill="none" stroke="#757575" d="M878.33,-722.97C901.94,-722.97 927.38,-722.97 951.07,-722.97"/>
<polygon fill="#757575" stroke="#757575" points="951.1,-726.47 961.1,-722.97 951.1,-719.47 951.1,-726.47"/>
</g>
<!-- ../../fn/modules/nothing.js -->
<g id="node15" class="node">
<title>../../fn/modules/nothing.js</title>
<path fill="none" stroke="#c6c5fe" d="M1120.83,-534.47C1120.83,-534.47 969.17,-534.47 969.17,-534.47 965.33,-534.47 961.5,-530.64 961.5,-526.81 961.5,-526.81 961.5,-519.14 961.5,-519.14 961.5,-515.31 965.33,-511.47 969.17,-511.47 969.17,-511.47 1120.83,-511.47 1120.83,-511.47 1124.67,-511.47 1128.5,-515.31 1128.5,-519.14 1128.5,-519.14 1128.5,-526.81 1128.5,-526.81 1128.5,-530.64 1124.67,-534.47 1120.83,-534.47"/>
<text text-anchor="middle" x="1045" y="-519.27" font-family="Arial" font-size="14.00" fill="#c6c5fe">../../fn/modules/nothing.js</text>
</g>
<!-- ../../dom/modules/request.js&#45;&gt;../../fn/modules/nothing.js -->
<g id="edge16" class="edge">
<title>../../dom/modules/request.js&#45;&gt;../../fn/modules/nothing.js</title>
<path fill="none" stroke="#757575" d="M820.97,-711.42C847.4,-701.42 884.14,-685.22 912,-663.97 931.55,-649.06 931.43,-640.14 948,-621.97 974.06,-593.39 1005.46,-561.46 1025.08,-541.79"/>
<polygon fill="#757575" stroke="#757575" points="1027.64,-544.18 1032.23,-534.64 1022.69,-539.23 1027.64,-544.18"/>
</g>
<!-- ../../fn/modules/lists/rest.js -->
<g id="node18" class="node">
<title>../../fn/modules/lists/rest.js</title>
<path fill="none" stroke="#cfffac" d="M1374.83,-734.47C1374.83,-734.47 1217.17,-734.47 1217.17,-734.47 1213.33,-734.47 1209.5,-730.64 1209.5,-726.81 1209.5,-726.81 1209.5,-719.14 1209.5,-719.14 1209.5,-715.31 1213.33,-711.47 1217.17,-711.47 1217.17,-711.47 1374.83,-711.47 1374.83,-711.47 1378.67,-711.47 1382.5,-715.31 1382.5,-719.14 1382.5,-719.14 1382.5,-726.81 1382.5,-726.81 1382.5,-730.64 1378.67,-734.47 1374.83,-734.47"/>
<text text-anchor="middle" x="1296" y="-719.27" font-family="Arial" font-size="14.00" fill="#cfffac">../../fn/modules/lists/rest.js</text>
</g>
<!-- ../../fn/modules/choose.js&#45;&gt;../../fn/modules/lists/rest.js -->
<g id="edge19" class="edge">
<title>../../fn/modules/choose.js&#45;&gt;../../fn/modules/lists/rest.js</title>
<path fill="none" stroke="#757575" d="M1128.57,-722.97C1151.13,-722.97 1175.78,-722.97 1199.03,-722.97"/>
<polygon fill="#757575" stroke="#757575" points="1199.25,-726.47 1209.25,-722.97 1199.24,-719.47 1199.25,-726.47"/>
</g>
<!-- ../../fn/modules/nothing.js&#45;&gt;../../fn/modules/noop.js -->
<g id="edge29" class="edge">
<title>../../fn/modules/nothing.js&#45;&gt;../../fn/modules/noop.js</title>
<path fill="none" stroke="#757575" d="M1128.7,-522.97C1215.55,-522.97 1351.48,-522.97 1439.54,-522.97"/>
<polygon fill="#757575" stroke="#757575" points="1439.76,-526.47 1449.76,-522.97 1439.76,-519.47 1439.76,-526.47"/>
</g>
<!-- ../../dom/modules/trigger.js -->
<g id="node16" class="node">
<title>../../dom/modules/trigger.js</title>
<path fill="none" stroke="#c6c5fe" d="M583.83,-495.47C583.83,-495.47 423.17,-495.47 423.17,-495.47 419.33,-495.47 415.5,-491.64 415.5,-487.81 415.5,-487.81 415.5,-480.14 415.5,-480.14 415.5,-476.31 419.33,-472.47 423.17,-472.47 423.17,-472.47 583.83,-472.47 583.83,-472.47 587.67,-472.47 591.5,-476.31 591.5,-480.14 591.5,-480.14 591.5,-487.81 591.5,-487.81 591.5,-491.64 587.67,-495.47 583.83,-495.47"/>
<text text-anchor="middle" x="503.5" y="-480.27" font-family="Arial" font-size="14.00" fill="#c6c5fe">../../dom/modules/trigger.js</text>
</g>
<!-- ../../dom/modules/trigger.js&#45;&gt;../../dom/modules/event.js -->
<g id="edge17" class="edge">
<title>../../dom/modules/trigger.js&#45;&gt;../../dom/modules/event.js</title>
<path fill="none" stroke="#757575" d="M587.52,-472.43C620.32,-467.87 658.15,-462.61 691.87,-457.92"/>
<polygon fill="#757575" stroke="#757575" points="692.77,-461.33 702.19,-456.49 691.81,-454.4 692.77,-461.33"/>
</g>
<!-- ../../fn/modules/by.js -->
<g id="node17" class="node">
<title>../../fn/modules/by.js</title>
<path fill="none" stroke="#c6c5fe" d="M1356.83,-104.47C1356.83,-104.47 1235.17,-104.47 1235.17,-104.47 1231.33,-104.47 1227.5,-100.64 1227.5,-96.81 1227.5,-96.81 1227.5,-89.14 1227.5,-89.14 1227.5,-85.31 1231.33,-81.47 1235.17,-81.47 1235.17,-81.47 1356.83,-81.47 1356.83,-81.47 1360.67,-81.47 1364.5,-85.31 1364.5,-89.14 1364.5,-89.14 1364.5,-96.81 1364.5,-96.81 1364.5,-100.64 1360.67,-104.47 1356.83,-104.47"/>
<text text-anchor="middle" x="1296" y="-89.27" font-family="Arial" font-size="14.00" fill="#c6c5fe">../../fn/modules/by.js</text>
</g>
<!-- ../../fn/modules/by.js&#45;&gt;../../fn/modules/curry.js -->
<g id="edge18" class="edge">
<title>../../fn/modules/by.js&#45;&gt;../../fn/modules/curry.js</title>
<path fill="none" stroke="#757575" d="M1364.63,-99.19C1388.34,-101.37 1415.29,-103.84 1440.25,-106.14"/>
<polygon fill="#757575" stroke="#757575" points="1440.17,-109.65 1450.45,-107.08 1440.81,-102.68 1440.17,-109.65"/>
</g>
<!-- ../../fn/modules/denormalisers.js -->
<g id="node19" class="node">
<title>../../fn/modules/denormalisers.js</title>
<path fill="none" stroke="#c6c5fe" d="M882.83,-139.47C882.83,-139.47 689.17,-139.47 689.17,-139.47 685.33,-139.47 681.5,-135.64 681.5,-131.81 681.5,-131.81 681.5,-124.14 681.5,-124.14 681.5,-120.31 685.33,-116.47 689.17,-116.47 689.17,-116.47 882.83,-116.47 882.83,-116.47 886.67,-116.47 890.5,-120.31 890.5,-124.14 890.5,-124.14 890.5,-131.81 890.5,-131.81 890.5,-135.64 886.67,-139.47 882.83,-139.47"/>
<text text-anchor="middle" x="786" y="-124.27" font-family="Arial" font-size="14.00" fill="#c6c5fe">../../fn/modules/denormalisers.js</text>
</g>
<!-- ../../fn/modules/maths/cubic&#45;bezier.js -->
<g id="node20" class="node">
<title>../../fn/modules/maths/cubic&#45;bezier.js</title>
<path fill="none" stroke="#c6c5fe" d="M1406.33,-145.47C1406.33,-145.47 1185.67,-145.47 1185.67,-145.47 1181.83,-145.47 1178,-141.64 1178,-137.81 1178,-137.81 1178,-130.14 1178,-130.14 1178,-126.31 1181.83,-122.47 1185.67,-122.47 1185.67,-122.47 1406.33,-122.47 1406.33,-122.47 1410.17,-122.47 1414,-126.31 1414,-130.14 1414,-130.14 1414,-137.81 1414,-137.81 1414,-141.64 1410.17,-145.47 1406.33,-145.47"/>
<text text-anchor="middle" x="1296" y="-130.27" font-family="Arial" font-size="14.00" fill="#c6c5fe">../../fn/modules/maths/cubic&#45;bezier.js</text>
</g>
<!-- ../../fn/modules/denormalisers.js&#45;&gt;../../fn/modules/maths/cubic&#45;bezier.js -->
<g id="edge21" class="edge">
<title>../../fn/modules/denormalisers.js&#45;&gt;../../fn/modules/maths/cubic&#45;bezier.js</title>
<path fill="none" stroke="#757575" d="M890.72,-129.2C970.83,-130.14 1082.09,-131.46 1167.61,-132.47"/>
<polygon fill="#757575" stroke="#757575" points="1167.61,-135.97 1177.65,-132.59 1167.69,-128.97 1167.61,-135.97"/>
</g>
<!-- ../../fn/modules/normalisers.js -->
<g id="node21" class="node">
<title>../../fn/modules/normalisers.js</title>
<path fill="none" stroke="#c6c5fe" d="M1134.33,-217.47C1134.33,-217.47 955.67,-217.47 955.67,-217.47 951.83,-217.47 948,-213.64 948,-209.81 948,-209.81 948,-202.14 948,-202.14 948,-198.31 951.83,-194.47 955.67,-194.47 955.67,-194.47 1134.33,-194.47 1134.33,-194.47 1138.17,-194.47 1142,-198.31 1142,-202.14 1142,-202.14 1142,-209.81 1142,-209.81 1142,-213.64 1138.17,-217.47 1134.33,-217.47"/>
<text text-anchor="middle" x="1045" y="-202.27" font-family="Arial" font-size="14.00" fill="#c6c5fe">../../fn/modules/normalisers.js</text>
</g>
<!-- ../../fn/modules/denormalisers.js&#45;&gt;../../fn/modules/normalisers.js -->
<g id="edge22" class="edge">
<title>../../fn/modules/denormalisers.js&#45;&gt;../../fn/modules/normalisers.js</title>
<path fill="none" stroke="#757575" d="M889.76,-139.49C897.45,-141.83 904.95,-144.63 912,-147.97 931.34,-157.14 929.17,-169.79 948,-179.97 956.34,-184.48 965.52,-188.25 974.8,-191.4"/>
<polygon fill="#757575" stroke="#757575" points="973.88,-194.78 984.47,-194.45 975.99,-188.1 973.88,-194.78"/>
</g>
<!-- ../../fn/modules/types.js -->
<g id="node22" class="node">
<title>../../fn/modules/types.js</title>
<path fill="none" stroke="#c6c5fe" d="M1365.83,-217.47C1365.83,-217.47 1226.17,-217.47 1226.17,-217.47 1222.33,-217.47 1218.5,-213.64 1218.5,-209.81 1218.5,-209.81 1218.5,-202.14 1218.5,-202.14 1218.5,-198.31 1222.33,-194.47 1226.17,-194.47 1226.17,-194.47 1365.83,-194.47 1365.83,-194.47 1369.67,-194.47 1373.5,-198.31 1373.5,-202.14 1373.5,-202.14 1373.5,-209.81 1373.5,-209.81 1373.5,-213.64 1369.67,-217.47 1365.83,-217.47"/>
<text text-anchor="middle" x="1296" y="-202.27" font-family="Arial" font-size="14.00" fill="#c6c5fe">../../fn/modules/types.js</text>
</g>
<!-- ../../fn/modules/denormalisers.js&#45;&gt;../../fn/modules/types.js -->
<g id="edge23" class="edge">
<title>../../fn/modules/denormalisers.js&#45;&gt;../../fn/modules/types.js</title>
<path fill="none" stroke="#757575" d="M861.96,-139.48C954.72,-153.73 1112.31,-177.92 1209.63,-192.87"/>
<polygon fill="#757575" stroke="#757575" points="1209.32,-196.36 1219.74,-194.42 1210.38,-189.44 1209.32,-196.36"/>
</g>
<!-- ../../fn/modules/maths/cubic&#45;bezier.js&#45;&gt;../../fn/modules/curry.js -->
<g id="edge26" class="edge">
<title>../../fn/modules/maths/cubic&#45;bezier.js&#45;&gt;../../fn/modules/curry.js</title>
<path fill="none" stroke="#757575" d="M1414.26,-123.71C1422.99,-122.95 1431.69,-122.18 1440.16,-121.44"/>
<polygon fill="#757575" stroke="#757575" points="1440.72,-124.91 1450.37,-120.55 1440.11,-117.93 1440.72,-124.91"/>
</g>
<!-- ../../fn/modules/normalisers.js&#45;&gt;../../fn/modules/maths/cubic&#45;bezier.js -->
<g id="edge27" class="edge">
<title>../../fn/modules/normalisers.js&#45;&gt;../../fn/modules/maths/cubic&#45;bezier.js</title>
<path fill="none" stroke="#757575" d="M1086.01,-194.41C1129.39,-181.86 1198.68,-161.83 1245.47,-148.3"/>
<polygon fill="#757575" stroke="#757575" points="1246.46,-151.65 1255.09,-145.51 1244.51,-144.93 1246.46,-151.65"/>
</g>
<!-- ../../fn/modules/normalisers.js&#45;&gt;../../fn/modules/types.js -->
<g id="edge28" class="edge">
<title>../../fn/modules/normalisers.js&#45;&gt;../../fn/modules/types.js</title>
<path fill="none" stroke="#757575" d="M1142.27,-205.97C1163.91,-205.97 1186.75,-205.97 1207.99,-205.97"/>
<polygon fill="#757575" stroke="#757575" points="1208.27,-209.47 1218.27,-205.97 1208.27,-202.47 1208.27,-209.47"/>
</g>
<!-- ../../fn/modules/types.js&#45;&gt;../../fn/modules/noop.js -->
<g id="edge30" class="edge">
<title>../../fn/modules/types.js&#45;&gt;../../fn/modules/noop.js</title>
<path fill="none" stroke="#757575" d="M1305.4,-217.63C1339.48,-264.91 1467.64,-442.7 1511.03,-502.9"/>
<polygon fill="#757575" stroke="#757575" points="1508.33,-505.14 1517.02,-511.21 1514.01,-501.05 1508.33,-505.14"/>
</g>
<!-- ../../fn/modules/get.js -->
<g id="node23" class="node">
<title>../../fn/modules/get.js</title>
<path fill="none" stroke="#c6c5fe" d="M1359.33,-63.47C1359.33,-63.47 1232.67,-63.47 1232.67,-63.47 1228.83,-63.47 1225,-59.64 1225,-55.81 1225,-55.81 1225,-48.14 1225,-48.14 1225,-44.31 1228.83,-40.47 1232.67,-40.47 1232.67,-40.47 1359.33,-40.47 1359.33,-40.47 1363.17,-40.47 1367,-44.31 1367,-48.14 1367,-48.14 1367,-55.81 1367,-55.81 1367,-59.64 1363.17,-63.47 1359.33,-63.47"/>
<text text-anchor="middle" x="1296" y="-48.27" font-family="Arial" font-size="14.00" fill="#c6c5fe">../../fn/modules/get.js</text>
</g>
<!-- ../../fn/modules/get.js&#45;&gt;../../fn/modules/curry.js -->
<g id="edge24" class="edge">
<title>../../fn/modules/get.js&#45;&gt;../../fn/modules/curry.js</title>
<path fill="none" stroke="#757575" d="M1367.08,-61.71C1382.65,-64.49 1398.98,-67.9 1414,-71.97 1439.8,-78.97 1467.96,-89.6 1489.52,-98.42"/>
<polygon fill="#757575" stroke="#757575" points="1488.36,-101.72 1498.94,-102.32 1491.04,-95.26 1488.36,-101.72"/>
</g>
<!-- ../../fn/modules/maths/clamp.js -->
<g id="node24" class="node">
<title>../../fn/modules/maths/clamp.js</title>
<path fill="none" stroke="#c6c5fe" d="M339.33,-180.47C339.33,-180.47 153.67,-180.47 153.67,-180.47 149.83,-180.47 146,-176.64 146,-172.81 146,-172.81 146,-165.14 146,-165.14 146,-161.31 149.83,-157.47 153.67,-157.47 153.67,-157.47 339.33,-157.47 339.33,-157.47 343.17,-157.47 347,-161.31 347,-165.14 347,-165.14 347,-172.81 347,-172.81 347,-176.64 343.17,-180.47 339.33,-180.47"/>
<text text-anchor="middle" x="246.5" y="-165.27" font-family="Arial" font-size="14.00" fill="#c6c5fe">../../fn/modules/maths/clamp.js</text>
</g>
<!-- ../../fn/modules/maths/clamp.js&#45;&gt;../../fn/modules/curry.js -->
<g id="edge25" class="edge">
<title>../../fn/modules/maths/clamp.js&#45;&gt;../../fn/modules/curry.js</title>
<path fill="none" stroke="#757575" d="M255.72,-157.43C274.72,-131.82 324.55,-70.48 383,-44.97 547.3,26.73 605.73,-11.97 785,-11.97 785,-11.97 785,-11.97 1046,-11.97 1209.77,-11.97 1259.92,24.53 1414,-30.97 1451.65,-44.53 1487.3,-75.35 1507.75,-95.38"/>
<polygon fill="#757575" stroke="#757575" points="1505.28,-97.86 1514.82,-102.47 1510.24,-92.91 1505.28,-97.86"/>
</g>
<!-- ../../fn/modules/maths/to&#45;db.js -->
<g id="node25" class="node">
<title>../../fn/modules/maths/to&#45;db.js</title>
<path fill="none" stroke="#cfffac" d="M875.83,-262.47C875.83,-262.47 696.17,-262.47 696.17,-262.47 692.33,-262.47 688.5,-258.64 688.5,-254.81 688.5,-254.81 688.5,-247.14 688.5,-247.14 688.5,-243.31 692.33,-239.47 696.17,-239.47 696.17,-239.47 875.83,-239.47 875.83,-239.47 879.67,-239.47 883.5,-243.31 883.5,-247.14 883.5,-247.14 883.5,-254.81 883.5,-254.81 883.5,-258.64 879.67,-262.47 875.83,-262.47"/>
<text text-anchor="middle" x="786" y="-247.27" font-family="Arial" font-size="14.00" fill="#cfffac">../../fn/modules/maths/to&#45;db.js</text>
</g>
<!-- ../../fn/modules/maths/to&#45;gain.js -->
<g id="node26" class="node">
<title>../../fn/modules/maths/to&#45;gain.js</title>
<path fill="none" stroke="#cfffac" d="M881.33,-221.47C881.33,-221.47 690.67,-221.47 690.67,-221.47 686.83,-221.47 683,-217.64 683,-213.81 683,-213.81 683,-206.14 683,-206.14 683,-202.31 686.83,-198.47 690.67,-198.47 690.67,-198.47 881.33,-198.47 881.33,-198.47 885.17,-198.47 889,-202.31 889,-206.14 889,-206.14 889,-213.81 889,-213.81 889,-217.64 885.17,-221.47 881.33,-221.47"/>
<text text-anchor="middle" x="786" y="-206.27" font-family="Arial" font-size="14.00" fill="#cfffac">../../fn/modules/maths/to&#45;gain.js</text>
</g>
<!-- ../../fn/modules/privates.js -->
<g id="node27" class="node">
<title>../../fn/modules/privates.js</title>
<path fill="none" stroke="#cfffac" d="M580.83,-575.47C580.83,-575.47 426.17,-575.47 426.17,-575.47 422.33,-575.47 418.5,-571.64 418.5,-567.81 418.5,-567.81 418.5,-560.14 418.5,-560.14 418.5,-556.31 422.33,-552.47 426.17,-552.47 426.17,-552.47 580.83,-552.47 580.83,-552.47 584.67,-552.47 588.5,-556.31 588.5,-560.14 588.5,-560.14 588.5,-567.81 588.5,-567.81 588.5,-571.64 584.67,-575.47 580.83,-575.47"/>
<text text-anchor="middle" x="503.5" y="-560.27" font-family="Arial" font-size="14.00" fill="#cfffac">../../fn/modules/privates.js</text>
</g>
<!-- ../../fn/modules/request&#45;tick.js -->
<g id="node28" class="node">
<title>../../fn/modules/request&#45;tick.js</title>
<path fill="none" stroke="#cfffac" d="M592.33,-454.47C592.33,-454.47 414.67,-454.47 414.67,-454.47 410.83,-454.47 407,-450.64 407,-446.81 407,-446.81 407,-439.14 407,-439.14 407,-435.31 410.83,-431.47 414.67,-431.47 414.67,-431.47 592.33,-431.47 592.33,-431.47 596.17,-431.47 600,-435.31 600,-439.14 600,-439.14 600,-446.81 600,-446.81 600,-450.64 596.17,-454.47 592.33,-454.47"/>
<text text-anchor="middle" x="503.5" y="-439.27" font-family="Arial" font-size="14.00" fill="#cfffac">../../fn/modules/request&#45;tick.js</text>
</g>
<!-- ../../fn/modules/strings/to&#45;camel&#45;case.js -->
<g id="node29" class="node">
<title>../../fn/modules/strings/to&#45;camel&#45;case.js</title>
<path fill="none" stroke="#cfffac" d="M904.33,-180.47C904.33,-180.47 667.67,-180.47 667.67,-180.47 663.83,-180.47 660,-176.64 660,-172.81 660,-172.81 660,-165.14 660,-165.14 660,-161.31 663.83,-157.47 667.67,-157.47 667.67,-157.47 904.33,-157.47 904.33,-157.47 908.17,-157.47 912,-161.31 912,-165.14 912,-165.14 912,-172.81 912,-172.81 912,-176.64 908.17,-180.47 904.33,-180.47"/>
<text text-anchor="middle" x="786" y="-165.27" font-family="Arial" font-size="14.00" fill="#cfffac">../../fn/modules/strings/to&#45;camel&#45;case.js</text>
</g>
<!-- attributes.js -->
<g id="node30" class="node">
<title>attributes.js</title>
<path fill="none" stroke="#c6c5fe" d="M281.83,-454.47C281.83,-454.47 211.17,-454.47 211.17,-454.47 207.33,-454.47 203.5,-450.64 203.5,-446.81 203.5,-446.81 203.5,-439.14 203.5,-439.14 203.5,-435.31 207.33,-431.47 211.17,-431.47 211.17,-431.47 281.83,-431.47 281.83,-431.47 285.67,-431.47 289.5,-435.31 289.5,-439.14 289.5,-439.14 289.5,-446.81 289.5,-446.81 289.5,-450.64 285.67,-454.47 281.83,-454.47"/>
<text text-anchor="middle" x="246.5" y="-439.27" font-family="Arial" font-size="14.00" fill="#c6c5fe">attributes.js</text>
</g>
<!-- attributes.js&#45;&gt;../../fn/modules/overload.js -->
<g id="edge35" class="edge">
<title>attributes.js&#45;&gt;../../fn/modules/overload.js</title>
<path fill="none" stroke="#757575" d="M289.76,-435.41C316.42,-430.97 351.61,-425.71 383,-422.97 583.01,-405.55 818.24,-403.53 947.22,-404"/>
<polygon fill="#757575" stroke="#757575" points="947.44,-407.5 957.46,-404.05 947.47,-400.5 947.44,-407.5"/>
</g>
<!-- attributes.js&#45;&gt;../../fn/modules/nothing.js -->
<g id="edge34" class="edge">
<title>attributes.js&#45;&gt;../../fn/modules/nothing.js</title>
<path fill="none" stroke="#757575" d="M266.37,-454.59C291.77,-469.52 338.9,-494.73 383,-504.97 581.15,-550.99 821.69,-541.93 951,-531.99"/>
<polygon fill="#757575" stroke="#757575" points="951.56,-535.45 961.25,-531.18 951.01,-528.47 951.56,-535.45"/>
</g>
<!-- attributes.js&#45;&gt;../../dom/modules/trigger.js -->
<g id="edge31" class="edge">
<title>attributes.js&#45;&gt;../../dom/modules/trigger.js</title>
<path fill="none" stroke="#757575" d="M289.61,-449.74C325.17,-455.46 377.14,-463.82 420.83,-470.84"/>
<polygon fill="#757575" stroke="#757575" points="420.45,-474.33 430.88,-472.46 421.56,-467.42 420.45,-474.33"/>
</g>
<!-- attributes.js&#45;&gt;../../fn/modules/by.js -->
<g id="edge32" class="edge">
<title>attributes.js&#45;&gt;../../fn/modules/by.js</title>
<path fill="none" stroke="#757575" d="M253.24,-431.07C269.49,-398.38 318.85,-305.97 383,-249.97 487.38,-158.87 525.73,-141.16 660,-106.97 855.47,-57.21 1095.8,-71.41 1217.09,-83.58"/>
<polygon fill="#757575" stroke="#757575" points="1217.08,-87.1 1227.38,-84.63 1217.79,-80.13 1217.08,-87.1"/>
</g>
<!-- attributes.js&#45;&gt;../../fn/modules/get.js -->
<g id="edge33" class="edge">
<title>attributes.js&#45;&gt;../../fn/modules/get.js</title>
<path fill="none" stroke="#757575" d="M251.93,-431.27C273.76,-373.8 369.23,-123.83 383,-112.97 510.47,-12.49 1016.58,-33.65 1214.79,-46.2"/>
<polygon fill="#757575" stroke="#757575" points="1214.64,-49.7 1224.85,-46.85 1215.09,-42.71 1214.64,-49.7"/>
</g>
<!-- attributes.js&#45;&gt;../../fn/modules/privates.js -->
<g id="edge36" class="edge">
<title>attributes.js&#45;&gt;../../fn/modules/privates.js</title>
<path fill="none" stroke="#757575" d="M289.78,-453.13C308.74,-459.21 330.5,-468.45 347,-481.97 369.89,-500.73 358.69,-521.1 383,-537.97 390.83,-543.41 399.59,-547.74 408.71,-551.18"/>
<polygon fill="#757575" stroke="#757575" points="407.73,-554.55 418.33,-554.46 409.99,-547.92 407.73,-554.55"/>
</g>
<!-- attributes.js&#45;&gt;../../fn/modules/request&#45;tick.js -->
<g id="edge37" class="edge">
<title>attributes.js&#45;&gt;../../fn/modules/request&#45;tick.js</title>
<path fill="none" stroke="#757575" d="M289.61,-442.97C318.83,-442.97 359.12,-442.97 396.79,-442.97"/>
<polygon fill="#757575" stroke="#757575" points="396.82,-446.47 406.82,-442.97 396.82,-439.47 396.82,-446.47"/>
</g>
<!-- control.js -->
<g id="node31" class="node">
<title>control.js</title>
<path fill="none" stroke="#c6c5fe" d="M531.33,-282.47C531.33,-282.47 475.67,-282.47 475.67,-282.47 471.83,-282.47 468,-278.64 468,-274.81 468,-274.81 468,-267.14 468,-267.14 468,-263.31 471.83,-259.47 475.67,-259.47 475.67,-259.47 531.33,-259.47 531.33,-259.47 535.17,-259.47 539,-263.31 539,-267.14 539,-267.14 539,-274.81 539,-274.81 539,-278.64 535.17,-282.47 531.33,-282.47"/>
<text text-anchor="middle" x="503.5" y="-267.27" font-family="Arial" font-size="14.00" fill="#c6c5fe">control.js</text>
</g>
<!-- attributes.js&#45;&gt;control.js -->
<g id="edge38" class="edge">
<title>attributes.js&#45;&gt;control.js</title>
<path fill="none" stroke="#757575" d="M264.63,-431.42C308.54,-401.8 425.32,-323.03 477.13,-288.08"/>
<polygon fill="#757575" stroke="#757575" points="479.11,-290.97 485.45,-282.48 475.2,-285.17 479.11,-290.97"/>
</g>
<!-- control.js&#45;&gt;../../fn/modules/id.js -->
<g id="edge40" class="edge">
<title>control.js&#45;&gt;../../fn/modules/id.js</title>
<path fill="none" stroke="#757575" d="M516.84,-282.68C541.29,-306.6 595.93,-363.84 624,-422.97 655.44,-489.21 606.37,-533.97 660,-583.97 662.81,-586.59 856.36,-614.9 967.56,-630.97"/>
<polygon fill="#757575" stroke="#757575" points="967.33,-634.48 977.73,-632.44 968.33,-627.55 967.33,-634.48"/>
</g>
<!-- control.js&#45;&gt;../../fn/modules/overload.js -->
<g id="edge44" class="edge">
<title>control.js&#45;&gt;../../fn/modules/overload.js</title>
<path fill="none" stroke="#757575" d="M539.08,-275.82C609.97,-286.21 776.51,-313 912,-352.97 945.73,-362.92 982.89,-377.95 1009.16,-389.29"/>
<polygon fill="#757575" stroke="#757575" points="1008.11,-392.65 1018.67,-393.44 1010.91,-386.23 1008.11,-392.65"/>
</g>
<!-- control.js&#45;&gt;../../fn/modules/denormalisers.js -->
<g id="edge39" class="edge">
<title>control.js&#45;&gt;../../fn/modules/denormalisers.js</title>
<path fill="none" stroke="#757575" d="M515.22,-259.11C538.71,-233.97 597.6,-175.39 660,-147.97 664.66,-145.93 669.5,-144.09 674.45,-142.43"/>
<polygon fill="#757575" stroke="#757575" points="675.55,-145.76 684.08,-139.47 673.49,-139.06 675.55,-145.76"/>
</g>
<!-- control.js&#45;&gt;../../fn/modules/normalisers.js -->
<g id="edge43" class="edge">
<title>control.js&#45;&gt;../../fn/modules/normalisers.js</title>
<path fill="none" stroke="#757575" d="M539.18,-276.19C610.25,-285.76 777.12,-302.38 912,-270.97 951.44,-261.79 992.65,-239.05 1018.32,-223.07"/>
<polygon fill="#757575" stroke="#757575" points="1020.48,-225.85 1027.04,-217.53 1016.72,-219.94 1020.48,-225.85"/>
</g>
<!-- control.js&#45;&gt;../../fn/modules/maths/to&#45;db.js -->
<g id="edge41" class="edge">
<title>control.js&#45;&gt;../../fn/modules/maths/to&#45;db.js</title>
<path fill="none" stroke="#757575" d="M539.18,-268.5C573.87,-266.03 629.02,-262.1 678.3,-258.58"/>
<polygon fill="#757575" stroke="#757575" points="678.67,-262.06 688.4,-257.86 678.17,-255.08 678.67,-262.06"/>
</g>
<!-- control.js&#45;&gt;../../fn/modules/maths/to&#45;gain.js -->
<g id="edge42" class="edge">
<title>control.js&#45;&gt;../../fn/modules/maths/to&#45;gain.js</title>
<path fill="none" stroke="#757575" d="M539.16,-260.78C570.52,-251.81 618.07,-238.83 660,-229.97 671.42,-227.56 683.49,-225.29 695.44,-223.2"/>
<polygon fill="#757575" stroke="#757575" points="696.16,-226.63 705.43,-221.49 694.98,-219.73 696.16,-226.63"/>
</g>
<!-- control.js&#45;&gt;../../fn/modules/strings/to&#45;camel&#45;case.js -->
<g id="edge45" class="edge">
<title>control.js&#45;&gt;../../fn/modules/strings/to&#45;camel&#45;case.js</title>
<path fill="none" stroke="#757575" d="M521.84,-259.38C549.7,-241.33 606.73,-206.74 660,-188.97 666.88,-186.68 674.06,-184.64 681.36,-182.84"/>
<polygon fill="#757575" stroke="#757575" points="682.41,-186.19 691.35,-180.52 680.82,-179.37 682.41,-186.19"/>
</g>
<!-- range&#45;control.js -->
<g id="node32" class="node">
<title>range&#45;control.js</title>
<path fill="none" stroke="#c6c5fe" d="M102.33,-496.47C102.33,-496.47 7.67,-496.47 7.67,-496.47 3.83,-496.47 0,-492.64 0,-488.81 0,-488.81 0,-481.14 0,-481.14 0,-477.31 3.83,-473.47 7.67,-473.47 7.67,-473.47 102.33,-473.47 102.33,-473.47 106.17,-473.47 110,-477.31 110,-481.14 110,-481.14 110,-488.81 110,-488.81 110,-492.64 106.17,-496.47 102.33,-496.47"/>
<text text-anchor="middle" x="55" y="-481.27" font-family="Arial" font-size="14.00" fill="#c6c5fe">range&#45;control.js</text>
</g>
<!-- range&#45;control.js&#45;&gt;../../fn/modules/overload.js -->
<g id="edge49" class="edge">
<title>range&#45;control.js&#45;&gt;../../fn/modules/overload.js</title>
<path fill="none" stroke="#757575" d="M68.2,-473.35C84.48,-458.66 114.87,-433.97 146,-422.97 467.17,-309.54 571.48,-391.24 912,-398.97 923.35,-399.23 935.25,-399.61 947.06,-400.06"/>
<polygon fill="#757575" stroke="#757575" points="947.26,-403.57 957.39,-400.47 947.54,-396.58 947.26,-403.57"/>
</g>
<!-- range&#45;control.js&#45;&gt;../../dom/modules/create.js -->
<g id="edge46" class="edge">
<title>range&#45;control.js&#45;&gt;../../dom/modules/create.js</title>
<path fill="none" stroke="#757575" d="M74.26,-496.65C91.97,-507.49 119.91,-523.36 146,-532.97 230.88,-564.24 332.41,-583.06 405.36,-593.58"/>
<polygon fill="#757575" stroke="#757575" points="405.07,-597.07 415.46,-595 406.05,-590.14 405.07,-597.07"/>
</g>
<!-- range&#45;control.js&#45;&gt;../../dom/modules/element.js -->
<g id="edge47" class="edge">
<title>range&#45;control.js&#45;&gt;../../dom/modules/element.js</title>
<path fill="none" stroke="#757575" d="M65.64,-496.59C80.98,-514.41 112.64,-548.56 146,-568.97 160.14,-577.63 176.69,-584.65 192.17,-590.13"/>
<polygon fill="#757575" stroke="#757575" points="191.06,-593.44 201.65,-593.33 193.3,-586.81 191.06,-593.44"/>
</g>
<!-- range&#45;control.js&#45;&gt;../../fn/modules/maths/clamp.js -->
<g id="edge48" class="edge">
<title>range&#45;control.js&#45;&gt;../../fn/modules/maths/clamp.js</title>
<path fill="none" stroke="#757575" d="M62.97,-473.35C91.17,-426.32 197.08,-249.72 233.28,-189.35"/>
<polygon fill="#757575" stroke="#757575" points="236.33,-191.08 238.47,-180.7 230.32,-187.48 236.33,-191.08"/>
</g>
<!-- range&#45;control.js&#45;&gt;../../fn/modules/privates.js -->
<g id="edge50" class="edge">
<title>range&#45;control.js&#45;&gt;../../fn/modules/privates.js</title>
<path fill="none" stroke="#757575" d="M110.3,-494.58C189.63,-508.62 337.51,-534.78 427.27,-550.66"/>
<polygon fill="#757575" stroke="#757575" points="426.93,-554.16 437.38,-552.45 428.15,-547.26 426.93,-554.16"/>
</g>
<!-- range&#45;control.js&#45;&gt;attributes.js -->
<g id="edge51" class="edge">
<title>range&#45;control.js&#45;&gt;attributes.js</title>
<path fill="none" stroke="#757575" d="M108.03,-473.44C134.65,-467.54 166.96,-460.38 193.57,-454.48"/>
<polygon fill="#757575" stroke="#757575" points="194.46,-457.87 203.46,-452.29 192.94,-451.04 194.46,-457.87"/>
</g>
</g>
</svg>
