<?xml version="1.0" encoding="UTF-8" standalone="no"?>
<!DOCTYPE svg PUBLIC "-//W3C//DTD SVG 1.1//EN"
 "http://www.w3.org/Graphics/SVG/1.1/DTD/svg11.dtd">
<!-- Generated by graphviz version 2.44.1 (20200629.0846)
 -->
<!-- Title: G Pages: 1 -->
<svg width="1828pt" height="768pt"
 viewBox="0.00 0.00 1828.20 768.34" xmlns="http://www.w3.org/2000/svg" xmlns:xlink="http://www.w3.org/1999/xlink">
<g id="graph0" class="graph" transform="scale(1 1) rotate(0) translate(21.6 746.74)">
<title>G</title>
<polygon fill="#111111" stroke="transparent" points="-21.6,21.6 -21.6,-746.74 1806.6,-746.74 1806.6,21.6 -21.6,21.6"/>
<!-- ../../dom/modules/assign.js -->
<g id="node1" class="node">
<title>../../dom/modules/assign.js</title>
<path fill="none" stroke="#c6c5fe" d="M854.33,-620C854.33,-620 691.67,-620 691.67,-620 687.83,-620 684,-616.17 684,-612.33 684,-612.33 684,-604.67 684,-604.67 684,-600.83 687.83,-597 691.67,-597 691.67,-597 854.33,-597 854.33,-597 858.17,-597 862,-600.83 862,-604.67 862,-604.67 862,-612.33 862,-612.33 862,-616.17 858.17,-620 854.33,-620"/>
<text text-anchor="middle" x="773" y="-604.8" font-family="Arial" font-size="14.00" fill="#c6c5fe">../../dom/modules/assign.js</text>
</g>
<!-- ../../fn/modules/curry.js -->
<g id="node2" class="node">
<title>../../fn/modules/curry.js</title>
<path fill="none" stroke="#c6c5fe" d="M1581.83,-303C1581.83,-303 1445.17,-303 1445.17,-303 1441.33,-303 1437.5,-299.17 1437.5,-295.33 1437.5,-295.33 1437.5,-287.67 1437.5,-287.67 1437.5,-283.83 1441.33,-280 1445.17,-280 1445.17,-280 1581.83,-280 1581.83,-280 1585.67,-280 1589.5,-283.83 1589.5,-287.67 1589.5,-287.67 1589.5,-295.33 1589.5,-295.33 1589.5,-299.17 1585.67,-303 1581.83,-303"/>
<text text-anchor="middle" x="1513.5" y="-287.8" font-family="Arial" font-size="14.00" fill="#c6c5fe">../../fn/modules/curry.js</text>
</g>
<!-- ../../dom/modules/assign.js&#45;&gt;../../fn/modules/curry.js -->
<g id="edge1" class="edge">
<title>../../dom/modules/assign.js&#45;&gt;../../fn/modules/curry.js</title>
<path fill="none" stroke="#757575" d="M862.29,-611.61C1014.31,-615.24 1317.27,-614.29 1401,-553.5 1482.06,-494.65 1504.65,-364.82 1510.55,-313.24"/>
<polygon fill="#757575" stroke="#757575" points="1514.04,-313.52 1511.6,-303.21 1507.08,-312.79 1514.04,-313.52"/>
</g>
<!-- ../../fn/modules/id.js -->
<g id="node3" class="node">
<title>../../fn/modules/id.js</title>
<path fill="none" stroke="#cfffac" d="M1091.33,-481C1091.33,-481 972.67,-481 972.67,-481 968.83,-481 965,-477.17 965,-473.33 965,-473.33 965,-465.67 965,-465.67 965,-461.83 968.83,-458 972.67,-458 972.67,-458 1091.33,-458 1091.33,-458 1095.17,-458 1099,-461.83 1099,-465.67 1099,-465.67 1099,-473.33 1099,-473.33 1099,-477.17 1095.17,-481 1091.33,-481"/>
<text text-anchor="middle" x="1032" y="-465.8" font-family="Arial" font-size="14.00" fill="#cfffac">../../fn/modules/id.js</text>
</g>
<!-- ../../dom/modules/assign.js&#45;&gt;../../fn/modules/id.js -->
<g id="edge2" class="edge">
<title>../../dom/modules/assign.js&#45;&gt;../../fn/modules/id.js</title>
<path fill="none" stroke="#757575" d="M862.22,-604.56C875.32,-601.17 888.06,-596.06 899,-588.5 925.52,-570.15 912.3,-548.41 935,-525.5 951.69,-508.66 974.48,-495.08 993.67,-485.52"/>
<polygon fill="#757575" stroke="#757575" points="995.26,-488.63 1002.75,-481.15 992.22,-482.33 995.26,-488.63"/>
</g>
<!-- ../../fn/modules/noop.js -->
<g id="node4" class="node">
<title>../../fn/modules/noop.js</title>
<path fill="none" stroke="#cfffac" d="M1582.33,-223C1582.33,-223 1444.67,-223 1444.67,-223 1440.83,-223 1437,-219.17 1437,-215.33 1437,-215.33 1437,-207.67 1437,-207.67 1437,-203.83 1440.83,-200 1444.67,-200 1444.67,-200 1582.33,-200 1582.33,-200 1586.17,-200 1590,-203.83 1590,-207.67 1590,-207.67 1590,-215.33 1590,-215.33 1590,-219.17 1586.17,-223 1582.33,-223"/>
<text text-anchor="middle" x="1513.5" y="-207.8" font-family="Arial" font-size="14.00" fill="#cfffac">../../fn/modules/noop.js</text>
</g>
<!-- ../../dom/modules/assign.js&#45;&gt;../../fn/modules/noop.js -->
<g id="edge3" class="edge">
<title>../../dom/modules/assign.js&#45;&gt;../../fn/modules/noop.js</title>
<path fill="none" stroke="#757575" d="M862.24,-603.72C998.17,-591.48 1258.04,-547.86 1401,-392.5 1438.99,-351.21 1405.59,-317.99 1437,-271.5 1448.75,-254.11 1467.11,-239.36 1482.77,-228.83"/>
<polygon fill="#757575" stroke="#757575" points="1485.11,-231.5 1491.62,-223.14 1481.32,-225.61 1485.11,-231.5"/>
</g>
<!-- ../../fn/modules/overload.js -->
<g id="node5" class="node">
<title>../../fn/modules/overload.js</title>
<path fill="none" stroke="#cfffac" d="M1111.83,-660C1111.83,-660 952.17,-660 952.17,-660 948.33,-660 944.5,-656.17 944.5,-652.33 944.5,-652.33 944.5,-644.67 944.5,-644.67 944.5,-640.83 948.33,-637 952.17,-637 952.17,-637 1111.83,-637 1111.83,-637 1115.67,-637 1119.5,-640.83 1119.5,-644.67 1119.5,-644.67 1119.5,-652.33 1119.5,-652.33 1119.5,-656.17 1115.67,-660 1111.83,-660"/>
<text text-anchor="middle" x="1032" y="-644.8" font-family="Arial" font-size="14.00" fill="#cfffac">../../fn/modules/overload.js</text>
</g>
<!-- ../../dom/modules/assign.js&#45;&gt;../../fn/modules/overload.js -->
<g id="edge4" class="edge">
<title>../../dom/modules/assign.js&#45;&gt;../../fn/modules/overload.js</title>
<path fill="none" stroke="#757575" d="M847.99,-620.02C878.9,-624.83 914.97,-630.44 946.88,-635.41"/>
<polygon fill="#757575" stroke="#757575" points="946.67,-638.92 957.09,-637 947.74,-632 946.67,-638.92"/>
</g>
<!-- ../../fn/modules/cache.js -->
<g id="node13" class="node">
<title>../../fn/modules/cache.js</title>
<path fill="none" stroke="#cfffac" d="M1777.33,-323C1777.33,-323 1633.67,-323 1633.67,-323 1629.83,-323 1626,-319.17 1626,-315.33 1626,-315.33 1626,-307.67 1626,-307.67 1626,-303.83 1629.83,-300 1633.67,-300 1633.67,-300 1777.33,-300 1777.33,-300 1781.17,-300 1785,-303.83 1785,-307.67 1785,-307.67 1785,-315.33 1785,-315.33 1785,-319.17 1781.17,-323 1777.33,-323"/>
<text text-anchor="middle" x="1705.5" y="-307.8" font-family="Arial" font-size="14.00" fill="#cfffac">../../fn/modules/cache.js</text>
</g>
<!-- ../../fn/modules/curry.js&#45;&gt;../../fn/modules/cache.js -->
<g id="edge20" class="edge">
<title>../../fn/modules/curry.js&#45;&gt;../../fn/modules/cache.js</title>
<path fill="none" stroke="#757575" d="M1589.59,-299.4C1598.17,-300.31 1606.97,-301.23 1615.7,-302.15"/>
<polygon fill="#757575" stroke="#757575" points="1615.58,-305.66 1625.9,-303.23 1616.32,-298.7 1615.58,-305.66"/>
</g>
<!-- ../../dom/modules/create.js -->
<g id="node6" class="node">
<title>../../dom/modules/create.js</title>
<path fill="none" stroke="#c6c5fe" d="M570.83,-558C570.83,-558 410.17,-558 410.17,-558 406.33,-558 402.5,-554.17 402.5,-550.33 402.5,-550.33 402.5,-542.67 402.5,-542.67 402.5,-538.83 406.33,-535 410.17,-535 410.17,-535 570.83,-535 570.83,-535 574.67,-535 578.5,-538.83 578.5,-542.67 578.5,-542.67 578.5,-550.33 578.5,-550.33 578.5,-554.17 574.67,-558 570.83,-558"/>
<text text-anchor="middle" x="490.5" y="-542.8" font-family="Arial" font-size="14.00" fill="#c6c5fe">../../dom/modules/create.js</text>
</g>
<!-- ../../dom/modules/create.js&#45;&gt;../../dom/modules/assign.js -->
<g id="edge5" class="edge">
<title>../../dom/modules/create.js&#45;&gt;../../dom/modules/assign.js</title>
<path fill="none" stroke="#757575" d="M578.3,-558C589.46,-560.57 600.62,-563.7 611,-567.5 628.39,-573.87 629.56,-582.26 647,-588.5 655.59,-591.57 664.67,-594.17 673.87,-596.37"/>
<polygon fill="#757575" stroke="#757575" points="673.36,-599.84 683.88,-598.61 674.89,-593.01 673.36,-599.84"/>
</g>
<!-- ../../dom/modules/create.js&#45;&gt;../../fn/modules/id.js -->
<g id="edge6" class="edge">
<title>../../dom/modules/create.js&#45;&gt;../../fn/modules/id.js</title>
<path fill="none" stroke="#757575" d="M578.84,-543.26C661.83,-539.04 789.81,-529.52 899,-508.5 929.45,-502.64 962.95,-492.7 988.58,-484.32"/>
<polygon fill="#757575" stroke="#757575" points="989.96,-487.55 998.35,-481.08 987.75,-480.91 989.96,-487.55"/>
</g>
<!-- ../../dom/modules/create.js&#45;&gt;../../fn/modules/overload.js -->
<g id="edge7" class="edge">
<title>../../dom/modules/create.js&#45;&gt;../../fn/modules/overload.js</title>
<path fill="none" stroke="#757575" d="M578.64,-552.56C590.17,-555.95 601.33,-560.75 611,-567.5 637.13,-585.74 619.79,-612.92 647,-629.5 693.45,-657.8 836.4,-657.76 934.15,-654"/>
<polygon fill="#757575" stroke="#757575" points="934.5,-657.49 944.35,-653.59 934.22,-650.5 934.5,-657.49"/>
</g>
<!-- ../../fn/modules/to&#45;type.js -->
<g id="node7" class="node">
<title>../../fn/modules/to&#45;type.js</title>
<path fill="none" stroke="#cfffac" d="M847.33,-579C847.33,-579 698.67,-579 698.67,-579 694.83,-579 691,-575.17 691,-571.33 691,-571.33 691,-563.67 691,-563.67 691,-559.83 694.83,-556 698.67,-556 698.67,-556 847.33,-556 847.33,-556 851.17,-556 855,-559.83 855,-563.67 855,-563.67 855,-571.33 855,-571.33 855,-575.17 851.17,-579 847.33,-579"/>
<text text-anchor="middle" x="773" y="-563.8" font-family="Arial" font-size="14.00" fill="#cfffac">../../fn/modules/to&#45;type.js</text>
</g>
<!-- ../../dom/modules/create.js&#45;&gt;../../fn/modules/to&#45;type.js -->
<g id="edge8" class="edge">
<title>../../dom/modules/create.js&#45;&gt;../../fn/modules/to&#45;type.js</title>
<path fill="none" stroke="#757575" d="M578.71,-553.03C611.07,-555.45 647.84,-558.2 680.56,-560.65"/>
<polygon fill="#757575" stroke="#757575" points="680.35,-564.15 690.58,-561.4 680.87,-557.17 680.35,-564.15"/>
</g>
<!-- ../../dom/modules/element.js -->
<g id="node8" class="node">
<title>../../dom/modules/element.js</title>
<path fill="none" stroke="#c6c5fe" d="M326.33,-518C326.33,-518 153.67,-518 153.67,-518 149.83,-518 146,-514.17 146,-510.33 146,-510.33 146,-502.67 146,-502.67 146,-498.83 149.83,-495 153.67,-495 153.67,-495 326.33,-495 326.33,-495 330.17,-495 334,-498.83 334,-502.67 334,-502.67 334,-510.33 334,-510.33 334,-514.17 330.17,-518 326.33,-518"/>
<text text-anchor="middle" x="240" y="-502.8" font-family="Arial" font-size="14.00" fill="#c6c5fe">../../dom/modules/element.js</text>
</g>
<!-- ../../dom/modules/element.js&#45;&gt;../../dom/modules/create.js -->
<g id="edge9" class="edge">
<title>../../dom/modules/element.js&#45;&gt;../../dom/modules/create.js</title>
<path fill="none" stroke="#757575" d="M312.54,-518.02C342.3,-522.81 377.01,-528.39 407.77,-533.34"/>
<polygon fill="#757575" stroke="#757575" points="407.6,-536.86 418.03,-535 408.72,-529.95 407.6,-536.86"/>
</g>
<!-- ../../dom/modules/request&#45;template.js -->
<g id="node9" class="node">
<title>../../dom/modules/request&#45;template.js</title>
<path fill="none" stroke="#c6c5fe" d="M603.33,-480C603.33,-480 377.67,-480 377.67,-480 373.83,-480 370,-476.17 370,-472.33 370,-472.33 370,-464.67 370,-464.67 370,-460.83 373.83,-457 377.67,-457 377.67,-457 603.33,-457 603.33,-457 607.17,-457 611,-460.83 611,-464.67 611,-464.67 611,-472.33 611,-472.33 611,-476.17 607.17,-480 603.33,-480"/>
<text text-anchor="middle" x="490.5" y="-464.8" font-family="Arial" font-size="14.00" fill="#c6c5fe">../../dom/modules/request&#45;template.js</text>
</g>
<!-- ../../dom/modules/element.js&#45;&gt;../../dom/modules/request&#45;template.js -->
<g id="edge10" class="edge">
<title>../../dom/modules/element.js&#45;&gt;../../dom/modules/request&#45;template.js</title>
<path fill="none" stroke="#757575" d="M316.23,-495C343.96,-490.76 375.57,-485.92 404.13,-481.55"/>
<polygon fill="#757575" stroke="#757575" points="404.74,-485 414.09,-480.03 403.68,-478.08 404.74,-485"/>
</g>
<!-- ../../dom/modules/parse.js -->
<g id="node11" class="node">
<title>../../dom/modules/parse.js</title>
<path fill="none" stroke="#cfffac" d="M851.83,-499C851.83,-499 694.17,-499 694.17,-499 690.33,-499 686.5,-495.17 686.5,-491.33 686.5,-491.33 686.5,-483.67 686.5,-483.67 686.5,-479.83 690.33,-476 694.17,-476 694.17,-476 851.83,-476 851.83,-476 855.67,-476 859.5,-479.83 859.5,-483.67 859.5,-483.67 859.5,-491.33 859.5,-491.33 859.5,-495.17 855.67,-499 851.83,-499"/>
<text text-anchor="middle" x="773" y="-483.8" font-family="Arial" font-size="14.00" fill="#cfffac">../../dom/modules/parse.js</text>
</g>
<!-- ../../dom/modules/request&#45;template.js&#45;&gt;../../dom/modules/parse.js -->
<g id="edge11" class="edge">
<title>../../dom/modules/request&#45;template.js&#45;&gt;../../dom/modules/parse.js</title>
<path fill="none" stroke="#757575" d="M611.27,-476.61C632.9,-478.08 655.19,-479.59 676.02,-481"/>
<polygon fill="#757575" stroke="#757575" points="675.91,-484.5 686.13,-481.68 676.39,-477.52 675.91,-484.5"/>
</g>
<!-- ../../dom/modules/request.js -->
<g id="node12" class="node">
<title>../../dom/modules/request.js</title>
<path fill="none" stroke="#c6c5fe" d="M857.33,-381C857.33,-381 688.67,-381 688.67,-381 684.83,-381 681,-377.17 681,-373.33 681,-373.33 681,-365.67 681,-365.67 681,-361.83 684.83,-358 688.67,-358 688.67,-358 857.33,-358 857.33,-358 861.17,-358 865,-361.83 865,-365.67 865,-365.67 865,-373.33 865,-373.33 865,-377.17 861.17,-381 857.33,-381"/>
<text text-anchor="middle" x="773" y="-365.8" font-family="Arial" font-size="14.00" fill="#c6c5fe">../../dom/modules/request.js</text>
</g>
<!-- ../../dom/modules/request&#45;template.js&#45;&gt;../../dom/modules/request.js -->
<g id="edge12" class="edge">
<title>../../dom/modules/request&#45;template.js&#45;&gt;../../dom/modules/request.js</title>
<path fill="none" stroke="#757575" d="M529.62,-456.96C553.17,-449.68 583.96,-439.91 611,-430.5 653.08,-415.85 700.75,-397.58 733.23,-384.87"/>
<polygon fill="#757575" stroke="#757575" points="734.77,-388.02 742.8,-381.11 732.21,-381.51 734.77,-388.02"/>
</g>
<!-- ../../dom/modules/request&#45;template.js&#45;&gt;../../fn/modules/cache.js -->
<g id="edge13" class="edge">
<title>../../dom/modules/request&#45;template.js&#45;&gt;../../fn/modules/cache.js</title>
<path fill="none" stroke="#757575" d="M561.46,-456.91C579.2,-451.28 597.13,-442.92 611,-430.5 640.35,-404.22 614.36,-371.56 647,-349.5 666.96,-336.01 1364.73,-319.1 1615.7,-313.45"/>
<polygon fill="#757575" stroke="#757575" points="1615.96,-316.94 1625.88,-313.22 1615.8,-309.94 1615.96,-316.94"/>
</g>
<!-- ../../dom/modules/event.js -->
<g id="node10" class="node">
<title>../../dom/modules/event.js</title>
<path fill="none" stroke="#cfffac" d="M568.83,-599C568.83,-599 412.17,-599 412.17,-599 408.33,-599 404.5,-595.17 404.5,-591.33 404.5,-591.33 404.5,-583.67 404.5,-583.67 404.5,-579.83 408.33,-576 412.17,-576 412.17,-576 568.83,-576 568.83,-576 572.67,-576 576.5,-579.83 576.5,-583.67 576.5,-583.67 576.5,-591.33 576.5,-591.33 576.5,-595.17 572.67,-599 568.83,-599"/>
<text text-anchor="middle" x="490.5" y="-583.8" font-family="Arial" font-size="14.00" fill="#cfffac">../../dom/modules/event.js</text>
</g>
<!-- ../../dom/modules/request.js&#45;&gt;../../fn/modules/id.js -->
<g id="edge15" class="edge">
<title>../../dom/modules/request.js&#45;&gt;../../fn/modules/id.js</title>
<path fill="none" stroke="#757575" d="M848.1,-381.01C865.11,-384.72 882.91,-389.48 899,-395.5 938.4,-410.24 980.15,-435.49 1005.9,-452.34"/>
<polygon fill="#757575" stroke="#757575" points="1004.04,-455.31 1014.31,-457.92 1007.91,-449.47 1004.04,-455.31"/>
</g>
<!-- ../../fn/modules/choose.js -->
<g id="node14" class="node">
<title>../../fn/modules/choose.js</title>
<path fill="none" stroke="#c6c5fe" d="M1107.83,-383C1107.83,-383 956.17,-383 956.17,-383 952.33,-383 948.5,-379.17 948.5,-375.33 948.5,-375.33 948.5,-367.67 948.5,-367.67 948.5,-363.83 952.33,-360 956.17,-360 956.17,-360 1107.83,-360 1107.83,-360 1111.67,-360 1115.5,-363.83 1115.5,-367.67 1115.5,-367.67 1115.5,-375.33 1115.5,-375.33 1115.5,-379.17 1111.67,-383 1107.83,-383"/>
<text text-anchor="middle" x="1032" y="-367.8" font-family="Arial" font-size="14.00" fill="#c6c5fe">../../fn/modules/choose.js</text>
</g>
<!-- ../../dom/modules/request.js&#45;&gt;../../fn/modules/choose.js -->
<g id="edge14" class="edge">
<title>../../dom/modules/request.js&#45;&gt;../../fn/modules/choose.js</title>
<path fill="none" stroke="#757575" d="M865.33,-370.21C888.94,-370.39 914.38,-370.59 938.07,-370.78"/>
<polygon fill="#757575" stroke="#757575" points="938.07,-374.28 948.1,-370.85 938.13,-367.28 938.07,-374.28"/>
</g>
<!-- ../../fn/modules/nothing.js -->
<g id="node15" class="node">
<title>../../fn/modules/nothing.js</title>
<path fill="none" stroke="#c6c5fe" d="M1107.83,-223C1107.83,-223 956.17,-223 956.17,-223 952.33,-223 948.5,-219.17 948.5,-215.33 948.5,-215.33 948.5,-207.67 948.5,-207.67 948.5,-203.83 952.33,-200 956.17,-200 956.17,-200 1107.83,-200 1107.83,-200 1111.67,-200 1115.5,-203.83 1115.5,-207.67 1115.5,-207.67 1115.5,-215.33 1115.5,-215.33 1115.5,-219.17 1111.67,-223 1107.83,-223"/>
<text text-anchor="middle" x="1032" y="-207.8" font-family="Arial" font-size="14.00" fill="#c6c5fe">../../fn/modules/nothing.js</text>
</g>
<!-- ../../dom/modules/request.js&#45;&gt;../../fn/modules/nothing.js -->
<g id="edge16" class="edge">
<title>../../dom/modules/request.js&#45;&gt;../../fn/modules/nothing.js</title>
<path fill="none" stroke="#757575" d="M792.9,-357.88C837.73,-330.32 950.71,-260.86 1003.28,-228.54"/>
<polygon fill="#757575" stroke="#757575" points="1005.39,-231.35 1012.07,-223.14 1001.72,-225.39 1005.39,-231.35"/>
</g>
<!-- ../../fn/modules/lists/rest.js -->
<g id="node18" class="node">
<title>../../fn/modules/lists/rest.js</title>
<path fill="none" stroke="#cfffac" d="M1361.83,-383C1361.83,-383 1204.17,-383 1204.17,-383 1200.33,-383 1196.5,-379.17 1196.5,-375.33 1196.5,-375.33 1196.5,-367.67 1196.5,-367.67 1196.5,-363.83 1200.33,-360 1204.17,-360 1204.17,-360 1361.83,-360 1361.83,-360 1365.67,-360 1369.5,-363.83 1369.5,-367.67 1369.5,-367.67 1369.5,-375.33 1369.5,-375.33 1369.5,-379.17 1365.67,-383 1361.83,-383"/>
<text text-anchor="middle" x="1283" y="-367.8" font-family="Arial" font-size="14.00" fill="#cfffac">../../fn/modules/lists/rest.js</text>
</g>
<!-- ../../fn/modules/choose.js&#45;&gt;../../fn/modules/lists/rest.js -->
<g id="edge19" class="edge">
<title>../../fn/modules/choose.js&#45;&gt;../../fn/modules/lists/rest.js</title>
<path fill="none" stroke="#757575" d="M1115.57,-371.5C1138.13,-371.5 1162.78,-371.5 1186.03,-371.5"/>
<polygon fill="#757575" stroke="#757575" points="1186.25,-375 1196.25,-371.5 1186.24,-368 1186.25,-375"/>
</g>
<!-- ../../fn/modules/nothing.js&#45;&gt;../../fn/modules/noop.js -->
<g id="edge29" class="edge">
<title>../../fn/modules/nothing.js&#45;&gt;../../fn/modules/noop.js</title>
<path fill="none" stroke="#757575" d="M1115.7,-211.5C1202.55,-211.5 1338.48,-211.5 1426.54,-211.5"/>
<polygon fill="#757575" stroke="#757575" points="1426.76,-215 1436.76,-211.5 1426.76,-208 1426.76,-215"/>
</g>
<!-- ../../dom/modules/trigger.js -->
<g id="node16" class="node">
<title>../../dom/modules/trigger.js</title>
<path fill="none" stroke="#c6c5fe" d="M320.33,-599C320.33,-599 159.67,-599 159.67,-599 155.83,-599 152,-595.17 152,-591.33 152,-591.33 152,-583.67 152,-583.67 152,-579.83 155.83,-576 159.67,-576 159.67,-576 320.33,-576 320.33,-576 324.17,-576 328,-579.83 328,-583.67 328,-583.67 328,-591.33 328,-591.33 328,-595.17 324.17,-599 320.33,-599"/>
<text text-anchor="middle" x="240" y="-583.8" font-family="Arial" font-size="14.00" fill="#c6c5fe">../../dom/modules/trigger.js</text>
</g>
<!-- ../../dom/modules/trigger.js&#45;&gt;../../dom/modules/event.js -->
<g id="edge17" class="edge">
<title>../../dom/modules/trigger.js&#45;&gt;../../dom/modules/event.js</title>
<path fill="none" stroke="#757575" d="M328.26,-587.5C349.51,-587.5 372.35,-587.5 393.96,-587.5"/>
<polygon fill="#757575" stroke="#757575" points="394.12,-591 404.12,-587.5 394.12,-584 394.12,-591"/>
</g>
<!-- ../../fn/modules/by.js -->
<g id="node17" class="node">
<title>../../fn/modules/by.js</title>
<path fill="none" stroke="#c6c5fe" d="M1092.83,-303C1092.83,-303 971.17,-303 971.17,-303 967.33,-303 963.5,-299.17 963.5,-295.33 963.5,-295.33 963.5,-287.67 963.5,-287.67 963.5,-283.83 967.33,-280 971.17,-280 971.17,-280 1092.83,-280 1092.83,-280 1096.67,-280 1100.5,-283.83 1100.5,-287.67 1100.5,-287.67 1100.5,-295.33 1100.5,-295.33 1100.5,-299.17 1096.67,-303 1092.83,-303"/>
<text text-anchor="middle" x="1032" y="-287.8" font-family="Arial" font-size="14.00" fill="#c6c5fe">../../fn/modules/by.js</text>
</g>
<!-- ../../fn/modules/by.js&#45;&gt;../../fn/modules/curry.js -->
<g id="edge18" class="edge">
<title>../../fn/modules/by.js&#45;&gt;../../fn/modules/curry.js</title>
<path fill="none" stroke="#757575" d="M1100.68,-291.5C1186.28,-291.5 1333.72,-291.5 1427.01,-291.5"/>
<polygon fill="#757575" stroke="#757575" points="1427.27,-295 1437.27,-291.5 1427.27,-288 1427.27,-295"/>
</g>
<!-- ../../fn/modules/denormalisers.js -->
<g id="node19" class="node">
<title>../../fn/modules/denormalisers.js</title>
<path fill="none" stroke="#c6c5fe" d="M869.83,-185C869.83,-185 676.17,-185 676.17,-185 672.33,-185 668.5,-181.17 668.5,-177.33 668.5,-177.33 668.5,-169.67 668.5,-169.67 668.5,-165.83 672.33,-162 676.17,-162 676.17,-162 869.83,-162 869.83,-162 873.67,-162 877.5,-165.83 877.5,-169.67 877.5,-169.67 877.5,-177.33 877.5,-177.33 877.5,-181.17 873.67,-185 869.83,-185"/>
<text text-anchor="middle" x="773" y="-169.8" font-family="Arial" font-size="14.00" fill="#c6c5fe">../../fn/modules/denormalisers.js</text>
</g>
<!-- ../../fn/modules/maths/cubic&#45;bezier.js -->
<g id="node20" class="node">
<title>../../fn/modules/maths/cubic&#45;bezier.js</title>
<path fill="none" stroke="#c6c5fe" d="M1393.33,-183C1393.33,-183 1172.67,-183 1172.67,-183 1168.83,-183 1165,-179.17 1165,-175.33 1165,-175.33 1165,-167.67 1165,-167.67 1165,-163.83 1168.83,-160 1172.67,-160 1172.67,-160 1393.33,-160 1393.33,-160 1397.17,-160 1401,-163.83 1401,-167.67 1401,-167.67 1401,-175.33 1401,-175.33 1401,-179.17 1397.17,-183 1393.33,-183"/>
<text text-anchor="middle" x="1283" y="-167.8" font-family="Arial" font-size="14.00" fill="#c6c5fe">../../fn/modules/maths/cubic&#45;bezier.js</text>
</g>
<!-- ../../fn/modules/denormalisers.js&#45;&gt;../../fn/modules/maths/cubic&#45;bezier.js -->
<g id="edge21" class="edge">
<title>../../fn/modules/denormalisers.js&#45;&gt;../../fn/modules/maths/cubic&#45;bezier.js</title>
<path fill="none" stroke="#757575" d="M877.72,-173.09C957.83,-172.78 1069.09,-172.34 1154.61,-172"/>
<polygon fill="#757575" stroke="#757575" points="1154.66,-175.5 1164.65,-171.96 1154.64,-168.5 1154.66,-175.5"/>
</g>
<!-- ../../fn/modules/normalisers.js -->
<g id="node21" class="node">
<title>../../fn/modules/normalisers.js</title>
<path fill="none" stroke="#c6c5fe" d="M1121.33,-143C1121.33,-143 942.67,-143 942.67,-143 938.83,-143 935,-139.17 935,-135.33 935,-135.33 935,-127.67 935,-127.67 935,-123.83 938.83,-120 942.67,-120 942.67,-120 1121.33,-120 1121.33,-120 1125.17,-120 1129,-123.83 1129,-127.67 1129,-127.67 1129,-135.33 1129,-135.33 1129,-139.17 1125.17,-143 1121.33,-143"/>
<text text-anchor="middle" x="1032" y="-127.8" font-family="Arial" font-size="14.00" fill="#c6c5fe">../../fn/modules/normalisers.js</text>
</g>
<!-- ../../fn/modules/denormalisers.js&#45;&gt;../../fn/modules/normalisers.js -->
<g id="edge22" class="edge">
<title>../../fn/modules/denormalisers.js&#45;&gt;../../fn/modules/normalisers.js</title>
<path fill="none" stroke="#757575" d="M844.57,-161.97C877.43,-156.6 916.69,-150.18 950.69,-144.62"/>
<polygon fill="#757575" stroke="#757575" points="951.29,-148.07 960.59,-143.01 950.16,-141.17 951.29,-148.07"/>
</g>
<!-- ../../fn/modules/types.js -->
<g id="node22" class="node">
<title>../../fn/modules/types.js</title>
<path fill="none" stroke="#c6c5fe" d="M1352.83,-142C1352.83,-142 1213.17,-142 1213.17,-142 1209.33,-142 1205.5,-138.17 1205.5,-134.33 1205.5,-134.33 1205.5,-126.67 1205.5,-126.67 1205.5,-122.83 1209.33,-119 1213.17,-119 1213.17,-119 1352.83,-119 1352.83,-119 1356.67,-119 1360.5,-122.83 1360.5,-126.67 1360.5,-126.67 1360.5,-134.33 1360.5,-134.33 1360.5,-138.17 1356.67,-142 1352.83,-142"/>
<text text-anchor="middle" x="1283" y="-126.8" font-family="Arial" font-size="14.00" fill="#c6c5fe">../../fn/modules/types.js</text>
</g>
<!-- ../../fn/modules/denormalisers.js&#45;&gt;../../fn/modules/types.js -->
<g id="edge23" class="edge">
<title>../../fn/modules/denormalisers.js&#45;&gt;../../fn/modules/types.js</title>
<path fill="none" stroke="#757575" d="M877.64,-162.04C885.09,-159.43 892.29,-156.29 899,-152.5 920.4,-140.41 912.66,-120.77 935,-110.5 1013.33,-74.47 1042.96,-104.9 1129,-110.5 1151.82,-111.99 1176.43,-114.7 1199.11,-117.67"/>
<polygon fill="#757575" stroke="#757575" points="1198.66,-121.14 1209.04,-119 1199.59,-114.2 1198.66,-121.14"/>
</g>
<!-- ../../fn/modules/maths/cubic&#45;bezier.js&#45;&gt;../../fn/modules/curry.js -->
<g id="edge26" class="edge">
<title>../../fn/modules/maths/cubic&#45;bezier.js&#45;&gt;../../fn/modules/curry.js</title>
<path fill="none" stroke="#757575" d="M1306.94,-183.09C1330.58,-195.08 1368.46,-214.41 1401,-231.5 1428.58,-245.99 1459.81,-262.83 1482.18,-274.98"/>
<polygon fill="#757575" stroke="#757575" points="1480.73,-278.17 1491.19,-279.87 1484.08,-272.02 1480.73,-278.17"/>
</g>
<!-- ../../fn/modules/normalisers.js&#45;&gt;../../fn/modules/maths/cubic&#45;bezier.js -->
<g id="edge27" class="edge">
<title>../../fn/modules/normalisers.js&#45;&gt;../../fn/modules/maths/cubic&#45;bezier.js</title>
<path fill="none" stroke="#757575" d="M1104.69,-143.02C1134.63,-147.83 1169.59,-153.44 1200.5,-158.41"/>
<polygon fill="#757575" stroke="#757575" points="1199.96,-161.87 1210.39,-160 1201.07,-154.95 1199.96,-161.87"/>
</g>
<!-- ../../fn/modules/normalisers.js&#45;&gt;../../fn/modules/types.js -->
<g id="edge28" class="edge">
<title>../../fn/modules/normalisers.js&#45;&gt;../../fn/modules/types.js</title>
<path fill="none" stroke="#757575" d="M1129.27,-131.11C1150.91,-131.03 1173.75,-130.93 1194.99,-130.85"/>
<polygon fill="#757575" stroke="#757575" points="1195.28,-134.35 1205.27,-130.81 1195.26,-127.35 1195.28,-134.35"/>
</g>
<!-- ../../fn/modules/types.js&#45;&gt;../../fn/modules/noop.js -->
<g id="edge30" class="edge">
<title>../../fn/modules/types.js&#45;&gt;../../fn/modules/noop.js</title>
<path fill="none" stroke="#757575" d="M1360.76,-139.87C1374.37,-142.59 1388.25,-146.06 1401,-150.5 1432.18,-161.35 1465,-180.36 1486.89,-194.28"/>
<polygon fill="#757575" stroke="#757575" points="1485.27,-197.4 1495.57,-199.89 1489.08,-191.52 1485.27,-197.4"/>
</g>
<!-- ../../fn/modules/get.js -->
<g id="node23" class="node">
<title>../../fn/modules/get.js</title>
<path fill="none" stroke="#c6c5fe" d="M1346.33,-263C1346.33,-263 1219.67,-263 1219.67,-263 1215.83,-263 1212,-259.17 1212,-255.33 1212,-255.33 1212,-247.67 1212,-247.67 1212,-243.83 1215.83,-240 1219.67,-240 1219.67,-240 1346.33,-240 1346.33,-240 1350.17,-240 1354,-243.83 1354,-247.67 1354,-247.67 1354,-255.33 1354,-255.33 1354,-259.17 1350.17,-263 1346.33,-263"/>
<text text-anchor="middle" x="1283" y="-247.8" font-family="Arial" font-size="14.00" fill="#c6c5fe">../../fn/modules/get.js</text>
</g>
<!-- ../../fn/modules/get.js&#45;&gt;../../fn/modules/curry.js -->
<g id="edge24" class="edge">
<title>../../fn/modules/get.js&#45;&gt;../../fn/modules/curry.js</title>
<path fill="none" stroke="#757575" d="M1349.79,-263.02C1376.91,-267.76 1408.51,-273.3 1436.61,-278.21"/>
<polygon fill="#757575" stroke="#757575" points="1436.33,-281.72 1446.78,-280 1437.54,-274.82 1436.33,-281.72"/>
</g>
<!-- ../../fn/modules/maths/clamp.js -->
<g id="node24" class="node">
<title>../../fn/modules/maths/clamp.js</title>
<path fill="none" stroke="#c6c5fe" d="M1375.83,-683C1375.83,-683 1190.17,-683 1190.17,-683 1186.33,-683 1182.5,-679.17 1182.5,-675.33 1182.5,-675.33 1182.5,-667.67 1182.5,-667.67 1182.5,-663.83 1186.33,-660 1190.17,-660 1190.17,-660 1375.83,-660 1375.83,-660 1379.67,-660 1383.5,-663.83 1383.5,-667.67 1383.5,-667.67 1383.5,-675.33 1383.5,-675.33 1383.5,-679.17 1379.67,-683 1375.83,-683"/>
<text text-anchor="middle" x="1283" y="-667.8" font-family="Arial" font-size="14.00" fill="#c6c5fe">../../fn/modules/maths/clamp.js</text>
</g>
<!-- ../../fn/modules/maths/clamp.js&#45;&gt;../../fn/modules/curry.js -->
<g id="edge25" class="edge">
<title>../../fn/modules/maths/clamp.js&#45;&gt;../../fn/modules/curry.js</title>
<path fill="none" stroke="#757575" d="M1319.46,-659.95C1345.32,-649.85 1379.48,-632.81 1401,-607.5 1478.39,-516.49 1503.37,-368.16 1510.22,-313.03"/>
<polygon fill="#757575" stroke="#757575" points="1513.71,-313.35 1511.39,-303.01 1506.76,-312.53 1513.71,-313.35"/>
</g>
<!-- ../../fn/modules/maths/to&#45;db.js -->
<g id="node25" class="node">
<title>../../fn/modules/maths/to&#45;db.js</title>
<path fill="none" stroke="#cfffac" d="M862.83,-64C862.83,-64 683.17,-64 683.17,-64 679.33,-64 675.5,-60.17 675.5,-56.33 675.5,-56.33 675.5,-48.67 675.5,-48.67 675.5,-44.83 679.33,-41 683.17,-41 683.17,-41 862.83,-41 862.83,-41 866.67,-41 870.5,-44.83 870.5,-48.67 870.5,-48.67 870.5,-56.33 870.5,-56.33 870.5,-60.17 866.67,-64 862.83,-64"/>
<text text-anchor="middle" x="773" y="-48.8" font-family="Arial" font-size="14.00" fill="#cfffac">../../fn/modules/maths/to&#45;db.js</text>
</g>
<!-- ../../fn/modules/maths/to&#45;gain.js -->
<g id="node26" class="node">
<title>../../fn/modules/maths/to&#45;gain.js</title>
<path fill="none" stroke="#cfffac" d="M868.33,-23C868.33,-23 677.67,-23 677.67,-23 673.83,-23 670,-19.17 670,-15.33 670,-15.33 670,-7.67 670,-7.67 670,-3.83 673.83,0 677.67,0 677.67,0 868.33,0 868.33,0 872.17,0 876,-3.83 876,-7.67 876,-7.67 876,-15.33 876,-15.33 876,-19.17 872.17,-23 868.33,-23"/>
<text text-anchor="middle" x="773" y="-7.8" font-family="Arial" font-size="14.00" fill="#cfffac">../../fn/modules/maths/to&#45;gain.js</text>
</g>
<!-- ../../fn/modules/privates.js -->
<g id="node27" class="node">
<title>../../fn/modules/privates.js</title>
<path fill="none" stroke="#cfffac" d="M567.83,-421C567.83,-421 413.17,-421 413.17,-421 409.33,-421 405.5,-417.17 405.5,-413.33 405.5,-413.33 405.5,-405.67 405.5,-405.67 405.5,-401.83 409.33,-398 413.17,-398 413.17,-398 567.83,-398 567.83,-398 571.67,-398 575.5,-401.83 575.5,-405.67 575.5,-405.67 575.5,-413.33 575.5,-413.33 575.5,-417.17 571.67,-421 567.83,-421"/>
<text text-anchor="middle" x="490.5" y="-405.8" font-family="Arial" font-size="14.00" fill="#cfffac">../../fn/modules/privates.js</text>
</g>
<!-- ../../fn/modules/request&#45;tick.js -->
<g id="node28" class="node">
<title>../../fn/modules/request&#45;tick.js</title>
<path fill="none" stroke="#cfffac" d="M579.33,-303C579.33,-303 401.67,-303 401.67,-303 397.83,-303 394,-299.17 394,-295.33 394,-295.33 394,-287.67 394,-287.67 394,-283.83 397.83,-280 401.67,-280 401.67,-280 579.33,-280 579.33,-280 583.17,-280 587,-283.83 587,-287.67 587,-287.67 587,-295.33 587,-295.33 587,-299.17 583.17,-303 579.33,-303"/>
<text text-anchor="middle" x="490.5" y="-287.8" font-family="Arial" font-size="14.00" fill="#cfffac">../../fn/modules/request&#45;tick.js</text>
</g>
<!-- ../../fn/modules/strings/to&#45;camel&#45;case.js -->
<g id="node29" class="node">
<title>../../fn/modules/strings/to&#45;camel&#45;case.js</title>
<path fill="none" stroke="#cfffac" d="M891.33,-144C891.33,-144 654.67,-144 654.67,-144 650.83,-144 647,-140.17 647,-136.33 647,-136.33 647,-128.67 647,-128.67 647,-124.83 650.83,-121 654.67,-121 654.67,-121 891.33,-121 891.33,-121 895.17,-121 899,-124.83 899,-128.67 899,-128.67 899,-136.33 899,-136.33 899,-140.17 895.17,-144 891.33,-144"/>
<text text-anchor="middle" x="773" y="-128.8" font-family="Arial" font-size="14.00" fill="#cfffac">../../fn/modules/strings/to&#45;camel&#45;case.js</text>
</g>
<!-- attributes.js -->
<g id="node30" class="node">
<title>attributes.js</title>
<path fill="none" stroke="#c6c5fe" d="M275.33,-303C275.33,-303 204.67,-303 204.67,-303 200.83,-303 197,-299.17 197,-295.33 197,-295.33 197,-287.67 197,-287.67 197,-283.83 200.83,-280 204.67,-280 204.67,-280 275.33,-280 275.33,-280 279.17,-280 283,-283.83 283,-287.67 283,-287.67 283,-295.33 283,-295.33 283,-299.17 279.17,-303 275.33,-303"/>
<text text-anchor="middle" x="240" y="-287.8" font-family="Arial" font-size="14.00" fill="#c6c5fe">attributes.js</text>
</g>
<!-- attributes.js&#45;&gt;../../fn/modules/nothing.js -->
<g id="edge33" class="edge">
<title>attributes.js&#45;&gt;../../fn/modules/nothing.js</title>
<path fill="none" stroke="#757575" d="M262.13,-279.87C287.07,-266.82 330.18,-246.32 370,-237.5 568.7,-193.51 809.03,-197.96 938.15,-204.87"/>
<polygon fill="#757575" stroke="#757575" points="938.22,-208.38 948.39,-205.44 938.6,-201.39 938.22,-208.38"/>
</g>
<!-- attributes.js&#45;&gt;../../fn/modules/by.js -->
<g id="edge31" class="edge">
<title>attributes.js&#45;&gt;../../fn/modules/by.js</title>
<path fill="none" stroke="#757575" d="M283.2,-300.14C308.3,-304.83 340.82,-310.14 370,-312.5 476.76,-321.13 503.92,-315.18 611,-312.5 730.58,-309.51 869.13,-301.75 953.39,-296.54"/>
<polygon fill="#757575" stroke="#757575" points="953.62,-300.04 963.39,-295.92 953.19,-293.05 953.62,-300.04"/>
</g>
<!-- attributes.js&#45;&gt;../../fn/modules/get.js -->
<g id="edge32" class="edge">
<title>attributes.js&#45;&gt;../../fn/modules/get.js</title>
<path fill="none" stroke="#757575" d="M283.24,-283.51C308.35,-279.12 340.88,-274.07 370,-271.5 676.23,-244.52 1042.42,-246.96 1201.56,-249.71"/>
<polygon fill="#757575" stroke="#757575" points="1201.68,-253.21 1211.74,-249.89 1201.81,-246.22 1201.68,-253.21"/>
</g>
<!-- attributes.js&#45;&gt;../../fn/modules/privates.js -->
<g id="edge34" class="edge">
<title>attributes.js&#45;&gt;../../fn/modules/privates.js</title>
<path fill="none" stroke="#757575" d="M265.28,-303.03C309.91,-324.22 405.06,-369.4 455.87,-393.53"/>
<polygon fill="#757575" stroke="#757575" points="454.59,-396.8 465.12,-397.92 457.59,-390.47 454.59,-396.8"/>
</g>
<!-- attributes.js&#45;&gt;../../fn/modules/request&#45;tick.js -->
<g id="edge35" class="edge">
<title>attributes.js&#45;&gt;../../fn/modules/request&#45;tick.js</title>
<path fill="none" stroke="#757575" d="M283.15,-291.5C310.76,-291.5 348.14,-291.5 383.51,-291.5"/>
<polygon fill="#757575" stroke="#757575" points="383.91,-295 393.91,-291.5 383.91,-288 383.91,-295"/>
</g>
<!-- control.js -->
<g id="node31" class="node">
<title>control.js</title>
<path fill="none" stroke="#c6c5fe" d="M518.33,-185C518.33,-185 462.67,-185 462.67,-185 458.83,-185 455,-181.17 455,-177.33 455,-177.33 455,-169.67 455,-169.67 455,-165.83 458.83,-162 462.67,-162 462.67,-162 518.33,-162 518.33,-162 522.17,-162 526,-165.83 526,-169.67 526,-169.67 526,-177.33 526,-177.33 526,-181.17 522.17,-185 518.33,-185"/>
<text text-anchor="middle" x="490.5" y="-169.8" font-family="Arial" font-size="14.00" fill="#c6c5fe">control.js</text>
</g>
<!-- attributes.js&#45;&gt;control.js -->
<g id="edge36" class="edge">
<title>attributes.js&#45;&gt;control.js</title>
<path fill="none" stroke="#757575" d="M257.92,-279.93C276.65,-267.06 307.67,-245.56 334,-226.5 350.2,-214.77 351.81,-207.82 370,-199.5 393.55,-188.73 421.78,-182.32 444.89,-178.56"/>
<polygon fill="#757575" stroke="#757575" points="445.42,-182.02 454.78,-177.06 444.37,-175.1 445.42,-182.02"/>
</g>
<!-- control.js&#45;&gt;../../fn/modules/id.js -->
<g id="edge38" class="edge">
<title>control.js&#45;&gt;../../fn/modules/id.js</title>
<path fill="none" stroke="#757575" d="M512.45,-185.27C539.18,-201.36 585.07,-232.68 611,-271.5 641.69,-317.45 605.57,-353.94 647,-390.5 732.19,-465.68 788.06,-408.97 899,-433.5 926.93,-439.68 957.79,-448.01 982.64,-455.1"/>
<polygon fill="#757575" stroke="#757575" points="981.97,-458.55 992.55,-457.95 983.91,-451.82 981.97,-458.55"/>
</g>
<!-- control.js&#45;&gt;../../fn/modules/overload.js -->
<g id="edge42" class="edge">
<title>control.js&#45;&gt;../../fn/modules/overload.js</title>
<path fill="none" stroke="#757575" d="M512.83,-185.02C539.99,-200.84 586.33,-231.87 611,-271.5 648.15,-331.17 595.72,-377.43 647,-425.5 729.84,-503.16 802.37,-407.87 899,-467.5 962.5,-506.69 1004.96,-588.8 1022.25,-627.48"/>
<polygon fill="#757575" stroke="#757575" points="1019.08,-628.98 1026.28,-636.75 1025.5,-626.19 1019.08,-628.98"/>
</g>
<!-- control.js&#45;&gt;../../fn/modules/denormalisers.js -->
<g id="edge37" class="edge">
<title>control.js&#45;&gt;../../fn/modules/denormalisers.js</title>
<path fill="none" stroke="#757575" d="M526.18,-173.5C559.22,-173.5 610.84,-173.5 658.25,-173.5"/>
<polygon fill="#757575" stroke="#757575" points="658.3,-177 668.3,-173.5 658.3,-170 658.3,-177"/>
</g>
<!-- control.js&#45;&gt;../../fn/modules/normalisers.js -->
<g id="edge41" class="edge">
<title>control.js&#45;&gt;../../fn/modules/normalisers.js</title>
<path fill="none" stroke="#757575" d="M512.85,-161.95C542.11,-146.83 596.77,-121.15 647,-111.5 756.33,-90.51 886.17,-105.35 963.4,-118.25"/>
<polygon fill="#757575" stroke="#757575" points="963.04,-121.74 973.48,-119.97 964.21,-114.84 963.04,-121.74"/>
</g>
<!-- control.js&#45;&gt;../../fn/modules/maths/to&#45;db.js -->
<g id="edge39" class="edge">
<title>control.js&#45;&gt;../../fn/modules/maths/to&#45;db.js</title>
<path fill="none" stroke="#757575" d="M506.45,-161.9C533.14,-141.79 591.4,-100.5 647,-78.5 659.24,-73.66 672.52,-69.66 685.71,-66.39"/>
<polygon fill="#757575" stroke="#757575" points="686.82,-69.72 695.75,-64.01 685.22,-62.9 686.82,-69.72"/>
</g>
<!-- control.js&#45;&gt;../../fn/modules/maths/to&#45;gain.js -->
<g id="edge40" class="edge">
<title>control.js&#45;&gt;../../fn/modules/maths/to&#45;gain.js</title>
<path fill="none" stroke="#757575" d="M500.14,-161.91C521.54,-134.14 580.15,-63.74 647,-31.5 651.29,-29.43 655.75,-27.57 660.32,-25.89"/>
<polygon fill="#757575" stroke="#757575" points="661.46,-29.2 669.83,-22.71 659.24,-22.56 661.46,-29.2"/>
</g>
<!-- control.js&#45;&gt;../../fn/modules/strings/to&#45;camel&#45;case.js -->
<g id="edge43" class="edge">
<title>control.js&#45;&gt;../../fn/modules/strings/to&#45;camel&#45;case.js</title>
<path fill="none" stroke="#757575" d="M526.18,-168.43C565.08,-162.75 629.7,-153.3 682.93,-145.52"/>
<polygon fill="#757575" stroke="#757575" points="683.68,-148.95 693.06,-144.04 682.66,-142.02 683.68,-148.95"/>
</g>
<!-- range&#45;control.js -->
<g id="node32" class="node">
<title>range&#45;control.js</title>
<path fill="none" stroke="#c6c5fe" d="M102.33,-538C102.33,-538 7.67,-538 7.67,-538 3.83,-538 0,-534.17 0,-530.33 0,-530.33 0,-522.67 0,-522.67 0,-518.83 3.83,-515 7.67,-515 7.67,-515 102.33,-515 102.33,-515 106.17,-515 110,-518.83 110,-522.67 110,-522.67 110,-530.33 110,-530.33 110,-534.17 106.17,-538 102.33,-538"/>
<text text-anchor="middle" x="55" y="-522.8" font-family="Arial" font-size="14.00" fill="#c6c5fe">range&#45;control.js</text>
</g>
<!-- range&#45;control.js&#45;&gt;../../fn/modules/overload.js -->
<g id="edge48" class="edge">
<title>range&#45;control.js&#45;&gt;../../fn/modules/overload.js</title>
<path fill="none" stroke="#757575" d="M64.68,-538.27C79.17,-556.89 110.25,-592.65 146,-608.5 426.23,-732.71 806.51,-687.77 961.22,-661.76"/>
<polygon fill="#757575" stroke="#757575" points="962.26,-665.14 971.52,-660 961.08,-658.24 962.26,-665.14"/>
</g>
<!-- range&#45;control.js&#45;&gt;../../dom/modules/create.js -->
<g id="edge44" class="edge">
<title>range&#45;control.js&#45;&gt;../../dom/modules/create.js</title>
<path fill="none" stroke="#757575" d="M110.03,-528.99C180.44,-532.24 304.83,-537.98 391.95,-542"/>
<polygon fill="#757575" stroke="#757575" points="391.96,-545.5 402.11,-542.47 392.28,-538.51 391.96,-545.5"/>
</g>
<!-- range&#45;control.js&#45;&gt;../../dom/modules/element.js -->
<g id="edge45" class="edge">
<title>range&#45;control.js&#45;&gt;../../dom/modules/element.js</title>
<path fill="none" stroke="#757575" d="M110.41,-520.55C118.44,-519.68 126.92,-518.75 135.55,-517.81"/>
<polygon fill="#757575" stroke="#757575" points="136.17,-521.26 145.73,-516.69 135.41,-514.3 136.17,-521.26"/>
</g>
<!-- range&#45;control.js&#45;&gt;../../dom/modules/trigger.js -->
<g id="edge46" class="edge">
<title>range&#45;control.js&#45;&gt;../../dom/modules/trigger.js</title>
<path fill="none" stroke="#757575" d="M84.98,-538.11C102.51,-544.97 125.4,-553.63 146,-560.5 159.09,-564.87 173.35,-569.21 186.68,-573.09"/>
<polygon fill="#757575" stroke="#757575" points="186.08,-576.56 196.65,-575.97 188.01,-569.83 186.08,-576.56"/>
</g>
<!-- range&#45;control.js&#45;&gt;../../fn/modules/maths/clamp.js -->
<g id="edge47" class="edge">
<title>range&#45;control.js&#45;&gt;../../fn/modules/maths/clamp.js</title>
<path fill="none" stroke="#757575" d="M61,-538.18C72.27,-562.97 102.09,-620.92 146,-649.5 276.96,-734.75 333.24,-724.5 489.5,-724.5 489.5,-724.5 489.5,-724.5 774,-724.5 927.45,-724.5 1105.58,-700.28 1204.9,-684.59"/>
<polygon fill="#757575" stroke="#757575" points="1205.53,-688.03 1214.85,-683 1204.42,-681.12 1205.53,-688.03"/>
</g>
<!-- range&#45;control.js&#45;&gt;../../fn/modules/privates.js -->
<g id="edge49" class="edge">
<title>range&#45;control.js&#45;&gt;../../fn/modules/privates.js</title>
<path fill="none" stroke="#757575" d="M78.81,-514.85C96.71,-506.08 122.46,-494.28 146,-486.5 234.21,-457.33 338.79,-435.65 409.19,-422.85"/>
<polygon fill="#757575" stroke="#757575" points="410.1,-426.24 419.32,-421.03 408.86,-419.36 410.1,-426.24"/>
</g>
<!-- range&#45;control.js&#45;&gt;attributes.js -->
<g id="edge50" class="edge">
<title>range&#45;control.js&#45;&gt;attributes.js</title>
<path fill="none" stroke="#757575" d="M65.07,-514.85C94.41,-477.18 186.88,-358.44 223.67,-311.18"/>
<polygon fill="#757575" stroke="#757575" points="226.49,-313.26 229.87,-303.22 220.96,-308.96 226.49,-313.26"/>
</g>
<!-- range&#45;control.js&#45;&gt;control.js -->
<g id="edge51" class="edge">
<title>range&#45;control.js&#45;&gt;control.js</title>
<path fill="none" stroke="#757575" d="M56.58,-514.95C59.21,-475.13 73.29,-342.18 146,-271.5 228.54,-191.26 371.98,-175.86 444.6,-173.45"/>
<polygon fill="#757575" stroke="#757575" points="444.89,-176.95 454.79,-173.19 444.7,-169.95 444.89,-176.95"/>
</g>
</g>
</svg>
