<?xml version="1.0" encoding="UTF-8" standalone="no"?>
<!DOCTYPE svg PUBLIC "-//W3C//DTD SVG 1.1//EN"
 "http://www.w3.org/Graphics/SVG/1.1/DTD/svg11.dtd">
<!-- Generated by graphviz version 2.44.1 (20200629.0846)
 -->
<!-- Title: G Pages: 1 -->
<svg width="2315pt" height="1115pt"
 viewBox="0.00 0.00 2315.20 1115.18" xmlns="http://www.w3.org/2000/svg" xmlns:xlink="http://www.w3.org/1999/xlink">
<g id="graph0" class="graph" transform="scale(1 1) rotate(0) translate(21.6 1093.58)">
<title>G</title>
<polygon fill="#111111" stroke="transparent" points="-21.6,21.6 -21.6,-1093.58 2293.6,-1093.58 2293.6,21.6 -21.6,21.6"/>
<!-- ../../dom/modules/assign.js -->
<g id="node1" class="node">
<title>../../dom/modules/assign.js</title>
<path fill="none" stroke="#c6c5fe" d="M1082.83,-884.48C1082.83,-884.48 920.17,-884.48 920.17,-884.48 916.33,-884.48 912.5,-880.64 912.5,-876.81 912.5,-876.81 912.5,-869.14 912.5,-869.14 912.5,-865.31 916.33,-861.48 920.17,-861.48 920.17,-861.48 1082.83,-861.48 1082.83,-861.48 1086.67,-861.48 1090.5,-865.31 1090.5,-869.14 1090.5,-869.14 1090.5,-876.81 1090.5,-876.81 1090.5,-880.64 1086.67,-884.48 1082.83,-884.48"/>
<text text-anchor="middle" x="1001.5" y="-869.28" font-family="Arial" font-size="14.00" fill="#c6c5fe">../../dom/modules/assign.js</text>
</g>
<!-- ../../fn/modules/curry.js -->
<g id="node2" class="node">
<title>../../fn/modules/curry.js</title>
<path fill="none" stroke="#c6c5fe" d="M2068.83,-889.48C2068.83,-889.48 1932.17,-889.48 1932.17,-889.48 1928.33,-889.48 1924.5,-885.64 1924.5,-881.81 1924.5,-881.81 1924.5,-874.14 1924.5,-874.14 1924.5,-870.31 1928.33,-866.48 1932.17,-866.48 1932.17,-866.48 2068.83,-866.48 2068.83,-866.48 2072.67,-866.48 2076.5,-870.31 2076.5,-874.14 2076.5,-874.14 2076.5,-881.81 2076.5,-881.81 2076.5,-885.64 2072.67,-889.48 2068.83,-889.48"/>
<text text-anchor="middle" x="2000.5" y="-874.28" font-family="Arial" font-size="14.00" fill="#c6c5fe">../../fn/modules/curry.js</text>
</g>
<!-- ../../dom/modules/assign.js&#45;&gt;../../fn/modules/curry.js -->
<g id="edge1" class="edge">
<title>../../dom/modules/assign.js&#45;&gt;../../fn/modules/curry.js</title>
<path fill="none" stroke="#757575" d="M1090.54,-873.42C1280.49,-874.37 1726.71,-876.61 1914.18,-877.55"/>
<polygon fill="#757575" stroke="#757575" points="1914.25,-881.05 1924.26,-877.6 1914.28,-874.05 1914.25,-881.05"/>
</g>
<!-- ../../fn/modules/id.js -->
<g id="node3" class="node">
<title>../../fn/modules/id.js</title>
<path fill="none" stroke="#cfffac" d="M1319.33,-770.48C1319.33,-770.48 1200.67,-770.48 1200.67,-770.48 1196.83,-770.48 1193,-766.64 1193,-762.81 1193,-762.81 1193,-755.14 1193,-755.14 1193,-751.31 1196.83,-747.48 1200.67,-747.48 1200.67,-747.48 1319.33,-747.48 1319.33,-747.48 1323.17,-747.48 1327,-751.31 1327,-755.14 1327,-755.14 1327,-762.81 1327,-762.81 1327,-766.64 1323.17,-770.48 1319.33,-770.48"/>
<text text-anchor="middle" x="1260" y="-755.28" font-family="Arial" font-size="14.00" fill="#cfffac">../../fn/modules/id.js</text>
</g>
<!-- ../../dom/modules/assign.js&#45;&gt;../../fn/modules/id.js -->
<g id="edge2" class="edge">
<title>../../dom/modules/assign.js&#45;&gt;../../fn/modules/id.js</title>
<path fill="none" stroke="#757575" d="M1084.06,-861.46C1089.01,-859.1 1093.72,-856.3 1098,-852.98 1126.59,-830.81 1104.97,-801.57 1134,-779.98 1148.02,-769.55 1165.37,-763.57 1182.64,-760.28"/>
<polygon fill="#757575" stroke="#757575" points="1183.46,-763.69 1192.77,-758.64 1182.34,-756.78 1183.46,-763.69"/>
</g>
<!-- ../../fn/modules/noop.js -->
<g id="node4" class="node">
<title>../../fn/modules/noop.js</title>
<path fill="none" stroke="#cfffac" d="M2069.33,-294.48C2069.33,-294.48 1931.67,-294.48 1931.67,-294.48 1927.83,-294.48 1924,-290.64 1924,-286.81 1924,-286.81 1924,-279.14 1924,-279.14 1924,-275.31 1927.83,-271.48 1931.67,-271.48 1931.67,-271.48 2069.33,-271.48 2069.33,-271.48 2073.17,-271.48 2077,-275.31 2077,-279.14 2077,-279.14 2077,-286.81 2077,-286.81 2077,-290.64 2073.17,-294.48 2069.33,-294.48"/>
<text text-anchor="middle" x="2000.5" y="-279.28" font-family="Arial" font-size="14.00" fill="#cfffac">../../fn/modules/noop.js</text>
</g>
<!-- ../../dom/modules/assign.js&#45;&gt;../../fn/modules/noop.js -->
<g id="edge3" class="edge">
<title>../../dom/modules/assign.js&#45;&gt;../../fn/modules/noop.js</title>
<path fill="none" stroke="#757575" d="M1090.68,-869.78C1236.15,-863.8 1519.9,-848.91 1616,-820.98 1746.95,-782.92 1802.03,-784.84 1888,-678.98 1982.93,-562.08 1997.12,-369.12 1999.18,-304.68"/>
<polygon fill="#757575" stroke="#757575" points="2002.68,-304.59 1999.43,-294.51 1995.68,-304.42 2002.68,-304.59"/>
</g>
<!-- ../../fn/modules/overload.js -->
<g id="node5" class="node">
<title>../../fn/modules/overload.js</title>
<path fill="none" stroke="#cfffac" d="M1339.83,-729.48C1339.83,-729.48 1180.17,-729.48 1180.17,-729.48 1176.33,-729.48 1172.5,-725.64 1172.5,-721.81 1172.5,-721.81 1172.5,-714.14 1172.5,-714.14 1172.5,-710.31 1176.33,-706.48 1180.17,-706.48 1180.17,-706.48 1339.83,-706.48 1339.83,-706.48 1343.67,-706.48 1347.5,-710.31 1347.5,-714.14 1347.5,-714.14 1347.5,-721.81 1347.5,-721.81 1347.5,-725.64 1343.67,-729.48 1339.83,-729.48"/>
<text text-anchor="middle" x="1260" y="-714.28" font-family="Arial" font-size="14.00" fill="#cfffac">../../fn/modules/overload.js</text>
</g>
<!-- ../../dom/modules/assign.js&#45;&gt;../../fn/modules/overload.js -->
<g id="edge4" class="edge">
<title>../../dom/modules/assign.js&#45;&gt;../../fn/modules/overload.js</title>
<path fill="none" stroke="#757575" d="M1086.01,-861.46C1090.32,-859.08 1094.36,-856.27 1098,-852.98 1137.39,-817.32 1093.9,-773.84 1134,-738.98 1142.33,-731.74 1152.19,-726.53 1162.66,-722.83"/>
<polygon fill="#757575" stroke="#757575" points="1163.89,-726.11 1172.43,-719.84 1161.84,-719.42 1163.89,-726.11"/>
</g>
<!-- ../../fn/modules/cache.js -->
<g id="node16" class="node">
<title>../../fn/modules/cache.js</title>
<path fill="none" stroke="#cfffac" d="M2264.33,-889.48C2264.33,-889.48 2120.67,-889.48 2120.67,-889.48 2116.83,-889.48 2113,-885.64 2113,-881.81 2113,-881.81 2113,-874.14 2113,-874.14 2113,-870.31 2116.83,-866.48 2120.67,-866.48 2120.67,-866.48 2264.33,-866.48 2264.33,-866.48 2268.17,-866.48 2272,-870.31 2272,-874.14 2272,-874.14 2272,-881.81 2272,-881.81 2272,-885.64 2268.17,-889.48 2264.33,-889.48"/>
<text text-anchor="middle" x="2192.5" y="-874.28" font-family="Arial" font-size="14.00" fill="#cfffac">../../fn/modules/cache.js</text>
</g>
<!-- ../../fn/modules/curry.js&#45;&gt;../../fn/modules/cache.js -->
<g id="edge36" class="edge">
<title>../../fn/modules/curry.js&#45;&gt;../../fn/modules/cache.js</title>
<path fill="none" stroke="#757575" d="M2076.59,-877.98C2085.17,-877.98 2093.97,-877.98 2102.7,-877.98"/>
<polygon fill="#757575" stroke="#757575" points="2102.9,-881.48 2112.9,-877.98 2102.9,-874.48 2102.9,-881.48"/>
</g>
<!-- ../../dom/modules/create.js -->
<g id="node6" class="node">
<title>../../dom/modules/create.js</title>
<path fill="none" stroke="#c6c5fe" d="M828.83,-765.48C828.83,-765.48 668.17,-765.48 668.17,-765.48 664.33,-765.48 660.5,-761.64 660.5,-757.81 660.5,-757.81 660.5,-750.14 660.5,-750.14 660.5,-746.31 664.33,-742.48 668.17,-742.48 668.17,-742.48 828.83,-742.48 828.83,-742.48 832.67,-742.48 836.5,-746.31 836.5,-750.14 836.5,-750.14 836.5,-757.81 836.5,-757.81 836.5,-761.64 832.67,-765.48 828.83,-765.48"/>
<text text-anchor="middle" x="748.5" y="-750.28" font-family="Arial" font-size="14.00" fill="#c6c5fe">../../dom/modules/create.js</text>
</g>
<!-- ../../dom/modules/create.js&#45;&gt;../../dom/modules/assign.js -->
<g id="edge5" class="edge">
<title>../../dom/modules/create.js&#45;&gt;../../dom/modules/assign.js</title>
<path fill="none" stroke="#757575" d="M776.96,-765.58C802.1,-776.86 839.74,-795.4 869,-816.98 887.21,-830.4 885.1,-842.21 905,-852.98 908.25,-854.73 911.63,-856.33 915.11,-857.79"/>
<polygon fill="#757575" stroke="#757575" points="913.9,-861.08 924.49,-861.34 916.37,-854.53 913.9,-861.08"/>
</g>
<!-- ../../dom/modules/create.js&#45;&gt;../../fn/modules/id.js -->
<g id="edge6" class="edge">
<title>../../dom/modules/create.js&#45;&gt;../../fn/modules/id.js</title>
<path fill="none" stroke="#757575" d="M836.58,-763.2C858.86,-765.18 882.8,-766.98 905,-767.98 990.69,-771.83 1012.26,-770.37 1098,-767.98 1125.67,-767.2 1155.98,-765.68 1182.76,-764.11"/>
<polygon fill="#757575" stroke="#757575" points="1183.07,-767.6 1192.84,-763.51 1182.65,-760.61 1183.07,-767.6"/>
</g>
<!-- ../../dom/modules/create.js&#45;&gt;../../fn/modules/overload.js -->
<g id="edge7" class="edge">
<title>../../dom/modules/create.js&#45;&gt;../../fn/modules/overload.js</title>
<path fill="none" stroke="#757575" d="M836.59,-750.45C907.14,-747.31 1009.06,-742.09 1098,-734.98 1118.8,-733.31 1141.08,-731.18 1162.22,-729"/>
<polygon fill="#757575" stroke="#757575" points="1162.59,-732.48 1172.18,-727.96 1161.87,-725.52 1162.59,-732.48"/>
</g>
<!-- ../../fn/modules/to&#45;type.js -->
<g id="node7" class="node">
<title>../../fn/modules/to&#45;type.js</title>
<path fill="none" stroke="#cfffac" d="M1075.83,-725.48C1075.83,-725.48 927.17,-725.48 927.17,-725.48 923.33,-725.48 919.5,-721.64 919.5,-717.81 919.5,-717.81 919.5,-710.14 919.5,-710.14 919.5,-706.31 923.33,-702.48 927.17,-702.48 927.17,-702.48 1075.83,-702.48 1075.83,-702.48 1079.67,-702.48 1083.5,-706.31 1083.5,-710.14 1083.5,-710.14 1083.5,-717.81 1083.5,-717.81 1083.5,-721.64 1079.67,-725.48 1075.83,-725.48"/>
<text text-anchor="middle" x="1001.5" y="-710.28" font-family="Arial" font-size="14.00" fill="#cfffac">../../fn/modules/to&#45;type.js</text>
</g>
<!-- ../../dom/modules/create.js&#45;&gt;../../fn/modules/to&#45;type.js -->
<g id="edge8" class="edge">
<title>../../dom/modules/create.js&#45;&gt;../../fn/modules/to&#45;type.js</title>
<path fill="none" stroke="#757575" d="M821.76,-742.46C851.95,-737.65 887.18,-732.03 918.35,-727.07"/>
<polygon fill="#757575" stroke="#757575" points="918.99,-730.51 928.31,-725.48 917.89,-723.6 918.99,-730.51"/>
</g>
<!-- ../../dom/modules/element.js -->
<g id="node8" class="node">
<title>../../dom/modules/element.js</title>
<path fill="none" stroke="#c6c5fe" d="M573.83,-765.48C573.83,-765.48 401.17,-765.48 401.17,-765.48 397.33,-765.48 393.5,-761.64 393.5,-757.81 393.5,-757.81 393.5,-750.14 393.5,-750.14 393.5,-746.31 397.33,-742.48 401.17,-742.48 401.17,-742.48 573.83,-742.48 573.83,-742.48 577.67,-742.48 581.5,-746.31 581.5,-750.14 581.5,-750.14 581.5,-757.81 581.5,-757.81 581.5,-761.64 577.67,-765.48 573.83,-765.48"/>
<text text-anchor="middle" x="487.5" y="-750.28" font-family="Arial" font-size="14.00" fill="#c6c5fe">../../dom/modules/element.js</text>
</g>
<!-- ../../dom/modules/element.js&#45;&gt;../../dom/modules/create.js -->
<g id="edge9" class="edge">
<title>../../dom/modules/element.js&#45;&gt;../../dom/modules/create.js</title>
<path fill="none" stroke="#757575" d="M581.64,-753.98C603.9,-753.98 627.72,-753.98 650.16,-753.98"/>
<polygon fill="#757575" stroke="#757575" points="650.37,-757.48 660.37,-753.98 650.37,-750.48 650.37,-757.48"/>
</g>
<!-- ../../dom/modules/request&#45;template.js -->
<g id="node9" class="node">
<title>../../dom/modules/request&#45;template.js</title>
<path fill="none" stroke="#c6c5fe" d="M861.33,-928.48C861.33,-928.48 635.67,-928.48 635.67,-928.48 631.83,-928.48 628,-924.64 628,-920.81 628,-920.81 628,-913.14 628,-913.14 628,-909.31 631.83,-905.48 635.67,-905.48 635.67,-905.48 861.33,-905.48 861.33,-905.48 865.17,-905.48 869,-909.31 869,-913.14 869,-913.14 869,-920.81 869,-920.81 869,-924.64 865.17,-928.48 861.33,-928.48"/>
<text text-anchor="middle" x="748.5" y="-913.28" font-family="Arial" font-size="14.00" fill="#c6c5fe">../../dom/modules/request&#45;template.js</text>
</g>
<!-- ../../dom/modules/element.js&#45;&gt;../../dom/modules/request&#45;template.js -->
<g id="edge10" class="edge">
<title>../../dom/modules/element.js&#45;&gt;../../dom/modules/request&#45;template.js</title>
<path fill="none" stroke="#757575" d="M502.16,-765.49C526.48,-785.68 579.31,-828.15 628,-857.98 655,-874.51 687.28,-890.23 711.48,-901.28"/>
<polygon fill="#757575" stroke="#757575" points="710.1,-904.5 720.66,-905.42 712.98,-898.11 710.1,-904.5"/>
</g>
<!-- ../../dom/modules/request&#45;template.js&#45;&gt;../../fn/modules/cache.js -->
<g id="edge28" class="edge">
<title>../../dom/modules/request&#45;template.js&#45;&gt;../../fn/modules/cache.js</title>
<path fill="none" stroke="#757575" d="M762.85,-928.81C788.34,-950.56 846.61,-996.4 905,-1014.98 1055.15,-1062.74 1101.44,-1033.98 1259,-1033.98 1259,-1033.98 1259,-1033.98 1771,-1033.98 1929.08,-1033.98 2100.89,-935.87 2165.23,-895.26"/>
<polygon fill="#757575" stroke="#757575" points="2167.39,-898.03 2173.93,-889.7 2163.62,-892.13 2167.39,-898.03"/>
</g>
<!-- ../../dom/modules/parse.js -->
<g id="node21" class="node">
<title>../../dom/modules/parse.js</title>
<path fill="none" stroke="#cfffac" d="M1080.33,-1005.48C1080.33,-1005.48 922.67,-1005.48 922.67,-1005.48 918.83,-1005.48 915,-1001.64 915,-997.81 915,-997.81 915,-990.14 915,-990.14 915,-986.31 918.83,-982.48 922.67,-982.48 922.67,-982.48 1080.33,-982.48 1080.33,-982.48 1084.17,-982.48 1088,-986.31 1088,-990.14 1088,-990.14 1088,-997.81 1088,-997.81 1088,-1001.64 1084.17,-1005.48 1080.33,-1005.48"/>
<text text-anchor="middle" x="1001.5" y="-990.28" font-family="Arial" font-size="14.00" fill="#cfffac">../../dom/modules/parse.js</text>
</g>
<!-- ../../dom/modules/request&#45;template.js&#45;&gt;../../dom/modules/parse.js -->
<g id="edge26" class="edge">
<title>../../dom/modules/request&#45;template.js&#45;&gt;../../dom/modules/parse.js</title>
<path fill="none" stroke="#757575" d="M783.01,-928.52C814.4,-939.19 862.68,-955.28 905,-967.98 918.38,-971.99 932.89,-976.07 946.46,-979.78"/>
<polygon fill="#757575" stroke="#757575" points="945.58,-983.17 956.15,-982.41 947.41,-976.41 945.58,-983.17"/>
</g>
<!-- ../../dom/modules/request.js -->
<g id="node22" class="node">
<title>../../dom/modules/request.js</title>
<path fill="none" stroke="#c6c5fe" d="M1085.83,-843.48C1085.83,-843.48 917.17,-843.48 917.17,-843.48 913.33,-843.48 909.5,-839.64 909.5,-835.81 909.5,-835.81 909.5,-828.14 909.5,-828.14 909.5,-824.31 913.33,-820.48 917.17,-820.48 917.17,-820.48 1085.83,-820.48 1085.83,-820.48 1089.67,-820.48 1093.5,-824.31 1093.5,-828.14 1093.5,-828.14 1093.5,-835.81 1093.5,-835.81 1093.5,-839.64 1089.67,-843.48 1085.83,-843.48"/>
<text text-anchor="middle" x="1001.5" y="-828.28" font-family="Arial" font-size="14.00" fill="#c6c5fe">../../dom/modules/request.js</text>
</g>
<!-- ../../dom/modules/request&#45;template.js&#45;&gt;../../dom/modules/request.js -->
<g id="edge27" class="edge">
<title>../../dom/modules/request&#45;template.js&#45;&gt;../../dom/modules/request.js</title>
<path fill="none" stroke="#757575" d="M773.79,-905.43C803.98,-891.44 857.36,-867.89 905,-852.98 913.24,-850.4 921.97,-848.01 930.68,-845.85"/>
<polygon fill="#757575" stroke="#757575" points="931.57,-849.24 940.48,-843.5 929.94,-842.43 931.57,-849.24"/>
</g>
<!-- ../../dom/modules/event.js -->
<g id="node10" class="node">
<title>../../dom/modules/event.js</title>
<path fill="none" stroke="#cfffac" d="M1338.33,-293.48C1338.33,-293.48 1181.67,-293.48 1181.67,-293.48 1177.83,-293.48 1174,-289.64 1174,-285.81 1174,-285.81 1174,-278.14 1174,-278.14 1174,-274.31 1177.83,-270.48 1181.67,-270.48 1181.67,-270.48 1338.33,-270.48 1338.33,-270.48 1342.17,-270.48 1346,-274.31 1346,-278.14 1346,-278.14 1346,-285.81 1346,-285.81 1346,-289.64 1342.17,-293.48 1338.33,-293.48"/>
<text text-anchor="middle" x="1260" y="-278.28" font-family="Arial" font-size="14.00" fill="#cfffac">../../dom/modules/event.js</text>
</g>
<!-- ../../dom/modules/events.js -->
<g id="node11" class="node">
<title>../../dom/modules/events.js</title>
<path fill="none" stroke="#c6c5fe" d="M830.33,-196.48C830.33,-196.48 666.67,-196.48 666.67,-196.48 662.83,-196.48 659,-192.64 659,-188.81 659,-188.81 659,-181.14 659,-181.14 659,-177.31 662.83,-173.48 666.67,-173.48 666.67,-173.48 830.33,-173.48 830.33,-173.48 834.17,-173.48 838,-177.31 838,-181.14 838,-181.14 838,-188.81 838,-188.81 838,-192.64 834.17,-196.48 830.33,-196.48"/>
<text text-anchor="middle" x="748.5" y="-181.28" font-family="Arial" font-size="14.00" fill="#c6c5fe">../../dom/modules/events.js</text>
</g>
<!-- ../../dom/modules/events.js&#45;&gt;../../dom/modules/event.js -->
<g id="edge11" class="edge">
<title>../../dom/modules/events.js&#45;&gt;../../dom/modules/event.js</title>
<path fill="none" stroke="#757575" d="M809.95,-196.48C904.62,-214.51 1087.45,-249.31 1188.16,-268.49"/>
<polygon fill="#757575" stroke="#757575" points="1187.76,-271.98 1198.24,-270.41 1189.07,-265.1 1187.76,-271.98"/>
</g>
<!-- ../../dom/modules/features.js -->
<g id="node12" class="node">
<title>../../dom/modules/features.js</title>
<path fill="none" stroke="#c6c5fe" d="M1087.83,-55.48C1087.83,-55.48 915.17,-55.48 915.17,-55.48 911.33,-55.48 907.5,-51.64 907.5,-47.81 907.5,-47.81 907.5,-40.14 907.5,-40.14 907.5,-36.31 911.33,-32.48 915.17,-32.48 915.17,-32.48 1087.83,-32.48 1087.83,-32.48 1091.67,-32.48 1095.5,-36.31 1095.5,-40.14 1095.5,-40.14 1095.5,-47.81 1095.5,-47.81 1095.5,-51.64 1091.67,-55.48 1087.83,-55.48"/>
<text text-anchor="middle" x="1001.5" y="-40.28" font-family="Arial" font-size="14.00" fill="#c6c5fe">../../dom/modules/features.js</text>
</g>
<!-- ../../dom/modules/events.js&#45;&gt;../../dom/modules/features.js -->
<g id="edge12" class="edge">
<title>../../dom/modules/events.js&#45;&gt;../../dom/modules/features.js</title>
<path fill="none" stroke="#757575" d="M761.23,-173.26C785.71,-149.48 844.98,-95.43 905,-66.98 911.93,-63.69 919.38,-60.85 926.95,-58.39"/>
<polygon fill="#757575" stroke="#757575" points="928,-61.73 936.56,-55.49 925.98,-55.03 928,-61.73"/>
</g>
<!-- ../../fn/modules/stream.js -->
<g id="node13" class="node">
<title>../../fn/modules/stream.js</title>
<path fill="none" stroke="#c6c5fe" d="M1334.83,-177.48C1334.83,-177.48 1185.17,-177.48 1185.17,-177.48 1181.33,-177.48 1177.5,-173.64 1177.5,-169.81 1177.5,-169.81 1177.5,-162.14 1177.5,-162.14 1177.5,-158.31 1181.33,-154.48 1185.17,-154.48 1185.17,-154.48 1334.83,-154.48 1334.83,-154.48 1338.67,-154.48 1342.5,-158.31 1342.5,-162.14 1342.5,-162.14 1342.5,-169.81 1342.5,-169.81 1342.5,-173.64 1338.67,-177.48 1334.83,-177.48"/>
<text text-anchor="middle" x="1260" y="-162.28" font-family="Arial" font-size="14.00" fill="#c6c5fe">../../fn/modules/stream.js</text>
</g>
<!-- ../../dom/modules/events.js&#45;&gt;../../fn/modules/stream.js -->
<g id="edge13" class="edge">
<title>../../dom/modules/events.js&#45;&gt;../../fn/modules/stream.js</title>
<path fill="none" stroke="#757575" d="M838.25,-181.67C930.31,-178.23 1073.6,-172.89 1166.88,-169.41"/>
<polygon fill="#757575" stroke="#757575" points="1167.3,-172.9 1177.16,-169.03 1167.03,-165.9 1167.3,-172.9"/>
</g>
<!-- ../../fn/modules/stream.wait.js -->
<g id="node14" class="node">
<title>../../fn/modules/stream.wait.js</title>
<path fill="none" stroke="#c6c5fe" d="M1090.33,-99.48C1090.33,-99.48 912.67,-99.48 912.67,-99.48 908.83,-99.48 905,-95.64 905,-91.81 905,-91.81 905,-84.14 905,-84.14 905,-80.31 908.83,-76.48 912.67,-76.48 912.67,-76.48 1090.33,-76.48 1090.33,-76.48 1094.17,-76.48 1098,-80.31 1098,-84.14 1098,-84.14 1098,-91.81 1098,-91.81 1098,-95.64 1094.17,-99.48 1090.33,-99.48"/>
<text text-anchor="middle" x="1001.5" y="-84.28" font-family="Arial" font-size="14.00" fill="#c6c5fe">../../fn/modules/stream.wait.js</text>
</g>
<!-- ../../dom/modules/events.js&#45;&gt;../../fn/modules/stream.wait.js -->
<g id="edge14" class="edge">
<title>../../dom/modules/events.js&#45;&gt;../../fn/modules/stream.wait.js</title>
<path fill="none" stroke="#757575" d="M779.28,-173.47C824.44,-156.01 910.34,-122.82 960.78,-103.33"/>
<polygon fill="#757575" stroke="#757575" points="962.3,-106.49 970.37,-99.62 959.78,-99.96 962.3,-106.49"/>
</g>
<!-- ../../dom/modules/prefix.js -->
<g id="node15" class="node">
<title>../../dom/modules/prefix.js</title>
<path fill="none" stroke="#cfffac" d="M1338.33,-55.48C1338.33,-55.48 1181.67,-55.48 1181.67,-55.48 1177.83,-55.48 1174,-51.64 1174,-47.81 1174,-47.81 1174,-40.14 1174,-40.14 1174,-36.31 1177.83,-32.48 1181.67,-32.48 1181.67,-32.48 1338.33,-32.48 1338.33,-32.48 1342.17,-32.48 1346,-36.31 1346,-40.14 1346,-40.14 1346,-47.81 1346,-47.81 1346,-51.64 1342.17,-55.48 1338.33,-55.48"/>
<text text-anchor="middle" x="1260" y="-40.28" font-family="Arial" font-size="14.00" fill="#cfffac">../../dom/modules/prefix.js</text>
</g>
<!-- ../../dom/modules/features.js&#45;&gt;../../dom/modules/prefix.js -->
<g id="edge15" class="edge">
<title>../../dom/modules/features.js&#45;&gt;../../dom/modules/prefix.js</title>
<path fill="none" stroke="#757575" d="M1095.83,-43.98C1117.94,-43.98 1141.55,-43.98 1163.74,-43.98"/>
<polygon fill="#757575" stroke="#757575" points="1163.83,-47.48 1173.83,-43.98 1163.83,-40.48 1163.83,-47.48"/>
</g>
<!-- ../../dom/modules/features.js&#45;&gt;../../fn/modules/cache.js -->
<g id="edge16" class="edge">
<title>../../dom/modules/features.js&#45;&gt;../../fn/modules/cache.js</title>
<path fill="none" stroke="#757575" d="M1065.86,-32.46C1087.42,-28.92 1111.7,-25.33 1134,-22.98 1303.95,-5.03 1347.1,-2.98 1518,-2.98 1518,-2.98 1518,-2.98 1771,-2.98 1823.37,-2.98 1842.48,8.93 1888,-16.98 2007.83,-85.17 2020.83,-137.06 2077,-262.98 2173.77,-479.91 2188.76,-775.06 2191.08,-856.44"/>
<polygon fill="#757575" stroke="#757575" points="2187.58,-856.57 2191.33,-866.48 2194.58,-856.39 2187.58,-856.57"/>
</g>
<!-- ../../fn/modules/stream.js&#45;&gt;../../fn/modules/noop.js -->
<g id="edge56" class="edge">
<title>../../fn/modules/stream.js&#45;&gt;../../fn/modules/noop.js</title>
<path fill="none" stroke="#757575" d="M1282.34,-154.45C1312.44,-138.9 1369.56,-112.02 1422,-101.98 1523.78,-82.49 1797.99,-68.62 1888,-119.98 1944.11,-151.99 1978.02,-225.16 1992.02,-261.58"/>
<polygon fill="#757575" stroke="#757575" points="1988.83,-263.05 1995.58,-271.21 1995.4,-260.62 1988.83,-263.05"/>
</g>
<!-- ../../fn/modules/nothing.js -->
<g id="node24" class="node">
<title>../../fn/modules/nothing.js</title>
<path fill="none" stroke="#c6c5fe" d="M1845.83,-355.48C1845.83,-355.48 1694.17,-355.48 1694.17,-355.48 1690.33,-355.48 1686.5,-351.64 1686.5,-347.81 1686.5,-347.81 1686.5,-340.14 1686.5,-340.14 1686.5,-336.31 1690.33,-332.48 1694.17,-332.48 1694.17,-332.48 1845.83,-332.48 1845.83,-332.48 1849.67,-332.48 1853.5,-336.31 1853.5,-340.14 1853.5,-340.14 1853.5,-347.81 1853.5,-347.81 1853.5,-351.64 1849.67,-355.48 1845.83,-355.48"/>
<text text-anchor="middle" x="1770" y="-340.28" font-family="Arial" font-size="14.00" fill="#c6c5fe">../../fn/modules/nothing.js</text>
</g>
<!-- ../../fn/modules/stream.js&#45;&gt;../../fn/modules/nothing.js -->
<g id="edge57" class="edge">
<title>../../fn/modules/stream.js&#45;&gt;../../fn/modules/nothing.js</title>
<path fill="none" stroke="#757575" d="M1289.72,-177.58C1321.64,-190.18 1374.91,-210.34 1422,-223.98 1506.83,-248.55 1543.75,-216.18 1616,-266.98 1640.51,-284.21 1627.08,-307.35 1652,-323.98 1659.55,-329.02 1667.97,-332.91 1676.74,-335.91"/>
<polygon fill="#757575" stroke="#757575" points="1675.77,-339.28 1686.36,-338.82 1677.8,-332.58 1675.77,-339.28"/>
</g>
<!-- ../../fn/modules/fn.js -->
<g id="node34" class="node">
<title>../../fn/modules/fn.js</title>
<path fill="none" stroke="#c6c5fe" d="M1578.33,-214.48C1578.33,-214.48 1459.67,-214.48 1459.67,-214.48 1455.83,-214.48 1452,-210.64 1452,-206.81 1452,-206.81 1452,-199.14 1452,-199.14 1452,-195.31 1455.83,-191.48 1459.67,-191.48 1459.67,-191.48 1578.33,-191.48 1578.33,-191.48 1582.17,-191.48 1586,-195.31 1586,-199.14 1586,-199.14 1586,-206.81 1586,-206.81 1586,-210.64 1582.17,-214.48 1578.33,-214.48"/>
<text text-anchor="middle" x="1519" y="-199.28" font-family="Arial" font-size="14.00" fill="#c6c5fe">../../fn/modules/fn.js</text>
</g>
<!-- ../../fn/modules/stream.js&#45;&gt;../../fn/modules/fn.js -->
<g id="edge54" class="edge">
<title>../../fn/modules/stream.js&#45;&gt;../../fn/modules/fn.js</title>
<path fill="none" stroke="#757575" d="M1340.91,-177.48C1373.08,-182.11 1410.03,-187.43 1441.82,-192.01"/>
<polygon fill="#757575" stroke="#757575" points="1441.55,-195.51 1451.95,-193.47 1442.55,-188.58 1441.55,-195.51"/>
</g>
<!-- ../../fn/modules/to&#45;array.js -->
<g id="node37" class="node">
<title>../../fn/modules/to&#45;array.js</title>
<path fill="none" stroke="#cfffac" d="M1846.83,-152.48C1846.83,-152.48 1693.17,-152.48 1693.17,-152.48 1689.33,-152.48 1685.5,-148.64 1685.5,-144.81 1685.5,-144.81 1685.5,-137.14 1685.5,-137.14 1685.5,-133.31 1689.33,-129.48 1693.17,-129.48 1693.17,-129.48 1846.83,-129.48 1846.83,-129.48 1850.67,-129.48 1854.5,-133.31 1854.5,-137.14 1854.5,-137.14 1854.5,-144.81 1854.5,-144.81 1854.5,-148.64 1850.67,-152.48 1846.83,-152.48"/>
<text text-anchor="middle" x="1770" y="-137.28" font-family="Arial" font-size="14.00" fill="#cfffac">../../fn/modules/to&#45;array.js</text>
</g>
<!-- ../../fn/modules/stream.js&#45;&gt;../../fn/modules/to&#45;array.js -->
<g id="edge61" class="edge">
<title>../../fn/modules/stream.js&#45;&gt;../../fn/modules/to&#45;array.js</title>
<path fill="none" stroke="#757575" d="M1342.62,-161.96C1433.41,-157.49 1579.83,-150.29 1675.25,-145.59"/>
<polygon fill="#757575" stroke="#757575" points="1675.66,-149.07 1685.47,-145.09 1675.31,-142.08 1675.66,-149.07"/>
</g>
<!-- ../../fn/modules/lists/core.js -->
<g id="node39" class="node">
<title>../../fn/modules/lists/core.js</title>
<path fill="none" stroke="#c6c5fe" d="M1599.33,-134.48C1599.33,-134.48 1438.67,-134.48 1438.67,-134.48 1434.83,-134.48 1431,-130.64 1431,-126.81 1431,-126.81 1431,-119.14 1431,-119.14 1431,-115.31 1434.83,-111.48 1438.67,-111.48 1438.67,-111.48 1599.33,-111.48 1599.33,-111.48 1603.17,-111.48 1607,-115.31 1607,-119.14 1607,-119.14 1607,-126.81 1607,-126.81 1607,-130.64 1603.17,-134.48 1599.33,-134.48"/>
<text text-anchor="middle" x="1519" y="-119.28" font-family="Arial" font-size="14.00" fill="#c6c5fe">../../fn/modules/lists/core.js</text>
</g>
<!-- ../../fn/modules/stream.js&#45;&gt;../../fn/modules/lists/core.js -->
<g id="edge55" class="edge">
<title>../../fn/modules/stream.js&#45;&gt;../../fn/modules/lists/core.js</title>
<path fill="none" stroke="#757575" d="M1329.87,-154.45C1363.43,-148.84 1403.97,-142.06 1438.8,-136.23"/>
<polygon fill="#757575" stroke="#757575" points="1439.65,-139.63 1448.94,-134.53 1438.5,-132.73 1439.65,-139.63"/>
</g>
<!-- ../../fn/modules/now.js -->
<g id="node43" class="node">
<title>../../fn/modules/now.js</title>
<path fill="none" stroke="#cfffac" d="M1835.83,-422.48C1835.83,-422.48 1704.17,-422.48 1704.17,-422.48 1700.33,-422.48 1696.5,-418.64 1696.5,-414.81 1696.5,-414.81 1696.5,-407.14 1696.5,-407.14 1696.5,-403.31 1700.33,-399.48 1704.17,-399.48 1704.17,-399.48 1835.83,-399.48 1835.83,-399.48 1839.67,-399.48 1843.5,-403.31 1843.5,-407.14 1843.5,-407.14 1843.5,-414.81 1843.5,-414.81 1843.5,-418.64 1839.67,-422.48 1835.83,-422.48"/>
<text text-anchor="middle" x="1770" y="-407.28" font-family="Arial" font-size="14.00" fill="#cfffac">../../fn/modules/now.js</text>
</g>
<!-- ../../fn/modules/stream.js&#45;&gt;../../fn/modules/now.js -->
<g id="edge58" class="edge">
<title>../../fn/modules/stream.js&#45;&gt;../../fn/modules/now.js</title>
<path fill="none" stroke="#757575" d="M1289.15,-177.51C1315.23,-188.75 1354.61,-207.15 1386,-227.98 1403.6,-239.65 1403.1,-249.56 1422,-258.98 1500.97,-298.3 1545.02,-248.59 1616,-300.98 1642.26,-320.36 1627.39,-343.54 1652,-364.98 1668.2,-379.08 1689.23,-389.14 1708.98,-396.18"/>
<polygon fill="#757575" stroke="#757575" points="1707.96,-399.52 1718.55,-399.39 1710.19,-392.89 1707.96,-399.52"/>
</g>
<!-- ../../fn/modules/privates.js -->
<g id="node44" class="node">
<title>../../fn/modules/privates.js</title>
<path fill="none" stroke="#cfffac" d="M1596.33,-332.48C1596.33,-332.48 1441.67,-332.48 1441.67,-332.48 1437.83,-332.48 1434,-328.64 1434,-324.81 1434,-324.81 1434,-317.14 1434,-317.14 1434,-313.31 1437.83,-309.48 1441.67,-309.48 1441.67,-309.48 1596.33,-309.48 1596.33,-309.48 1600.17,-309.48 1604,-313.31 1604,-317.14 1604,-317.14 1604,-324.81 1604,-324.81 1604,-328.64 1600.17,-332.48 1596.33,-332.48"/>
<text text-anchor="middle" x="1519" y="-317.28" font-family="Arial" font-size="14.00" fill="#cfffac">../../fn/modules/privates.js</text>
</g>
<!-- ../../fn/modules/stream.js&#45;&gt;../../fn/modules/privates.js -->
<g id="edge59" class="edge">
<title>../../fn/modules/stream.js&#45;&gt;../../fn/modules/privates.js</title>
<path fill="none" stroke="#757575" d="M1298.3,-177.57C1325.28,-187.48 1361.2,-203.97 1386,-227.98 1410.29,-251.49 1395.53,-273.95 1422,-294.98 1427.06,-298.99 1432.69,-302.39 1438.61,-305.26"/>
<polygon fill="#757575" stroke="#757575" points="1437.56,-308.62 1448.13,-309.36 1440.33,-302.19 1437.56,-308.62"/>
</g>
<!-- ../../fn/modules/timer.js -->
<g id="node46" class="node">
<title>../../fn/modules/timer.js</title>
<path fill="none" stroke="#c6c5fe" d="M1587.83,-450.48C1587.83,-450.48 1450.17,-450.48 1450.17,-450.48 1446.33,-450.48 1442.5,-446.64 1442.5,-442.81 1442.5,-442.81 1442.5,-435.14 1442.5,-435.14 1442.5,-431.31 1446.33,-427.48 1450.17,-427.48 1450.17,-427.48 1587.83,-427.48 1587.83,-427.48 1591.67,-427.48 1595.5,-431.31 1595.5,-435.14 1595.5,-435.14 1595.5,-442.81 1595.5,-442.81 1595.5,-446.64 1591.67,-450.48 1587.83,-450.48"/>
<text text-anchor="middle" x="1519" y="-435.28" font-family="Arial" font-size="14.00" fill="#c6c5fe">../../fn/modules/timer.js</text>
</g>
<!-- ../../fn/modules/stream.js&#45;&gt;../../fn/modules/timer.js -->
<g id="edge60" class="edge">
<title>../../fn/modules/stream.js&#45;&gt;../../fn/modules/timer.js</title>
<path fill="none" stroke="#757575" d="M1282.17,-177.72C1309.33,-193.71 1356.46,-224.64 1386,-261.98 1410.19,-292.55 1399.94,-309.83 1422,-341.98 1443.19,-372.84 1474.8,-402.56 1495.89,-420.79"/>
<polygon fill="#757575" stroke="#757575" points="1493.8,-423.61 1503.68,-427.42 1498.33,-418.27 1493.8,-423.61"/>
</g>
<!-- ../../fn/modules/stream.wait.js&#45;&gt;../../fn/modules/stream.js -->
<g id="edge63" class="edge">
<title>../../fn/modules/stream.wait.js&#45;&gt;../../fn/modules/stream.js</title>
<path fill="none" stroke="#757575" d="M1046.84,-99.59C1062.99,-103.94 1081.37,-109.03 1098,-113.98 1137.93,-125.85 1183.03,-140.53 1215.32,-151.26"/>
<polygon fill="#757575" stroke="#757575" points="1214.32,-154.61 1224.91,-154.46 1216.53,-147.97 1214.32,-154.61"/>
</g>
<!-- ../../fn/modules/choke.js -->
<g id="node27" class="node">
<title>../../fn/modules/choke.js</title>
<path fill="none" stroke="#c6c5fe" d="M1590.83,-54.48C1590.83,-54.48 1447.17,-54.48 1447.17,-54.48 1443.33,-54.48 1439.5,-50.64 1439.5,-46.81 1439.5,-46.81 1439.5,-39.14 1439.5,-39.14 1439.5,-35.31 1443.33,-31.48 1447.17,-31.48 1447.17,-31.48 1590.83,-31.48 1590.83,-31.48 1594.67,-31.48 1598.5,-35.31 1598.5,-39.14 1598.5,-39.14 1598.5,-46.81 1598.5,-46.81 1598.5,-50.64 1594.67,-54.48 1590.83,-54.48"/>
<text text-anchor="middle" x="1519" y="-39.28" font-family="Arial" font-size="14.00" fill="#c6c5fe">../../fn/modules/choke.js</text>
</g>
<!-- ../../fn/modules/stream.wait.js&#45;&gt;../../fn/modules/choke.js -->
<g id="edge62" class="edge">
<title>../../fn/modules/stream.wait.js&#45;&gt;../../fn/modules/choke.js</title>
<path fill="none" stroke="#757575" d="M1098.07,-84.52C1175.79,-81.11 1288.2,-74.79 1386,-63.98 1404.67,-61.91 1424.73,-59.05 1443.44,-56.11"/>
<polygon fill="#757575" stroke="#757575" points="1444.06,-59.55 1453.38,-54.52 1442.95,-52.64 1444.06,-59.55"/>
</g>
<!-- ../../dom/modules/gestures.js -->
<g id="node17" class="node">
<title>../../dom/modules/gestures.js</title>
<path fill="none" stroke="#c6c5fe" d="M334.33,-213.48C334.33,-213.48 158.67,-213.48 158.67,-213.48 154.83,-213.48 151,-209.64 151,-205.81 151,-205.81 151,-198.14 151,-198.14 151,-194.31 154.83,-190.48 158.67,-190.48 158.67,-190.48 334.33,-190.48 334.33,-190.48 338.17,-190.48 342,-194.31 342,-198.14 342,-198.14 342,-205.81 342,-205.81 342,-209.64 338.17,-213.48 334.33,-213.48"/>
<text text-anchor="middle" x="246.5" y="-198.28" font-family="Arial" font-size="14.00" fill="#c6c5fe">../../dom/modules/gestures.js</text>
</g>
<!-- ../../dom/modules/gestures.js&#45;&gt;../../dom/modules/events.js -->
<g id="edge17" class="edge">
<title>../../dom/modules/gestures.js&#45;&gt;../../dom/modules/events.js</title>
<path fill="none" stroke="#757575" d="M342.13,-198.76C429.78,-195.78 559.63,-191.36 648.61,-188.34"/>
<polygon fill="#757575" stroke="#757575" points="648.83,-191.83 658.71,-187.99 648.6,-184.84 648.83,-191.83"/>
</g>
<!-- ../../dom/modules/gestures.js&#45;&gt;../../fn/modules/stream.js -->
<g id="edge19" class="edge">
<title>../../dom/modules/gestures.js&#45;&gt;../../fn/modules/stream.js</title>
<path fill="none" stroke="#757575" d="M342.24,-191.28C355.91,-189.8 369.81,-188.32 383,-186.98 491.8,-175.85 518.75,-169.09 628,-163.98 734.99,-158.96 761.89,-163.7 869,-163.98 970.9,-164.24 1087.77,-164.88 1166.8,-165.37"/>
<polygon fill="#757575" stroke="#757575" points="1167.18,-168.87 1177.21,-165.43 1167.23,-161.87 1167.18,-168.87"/>
</g>
<!-- ../../dom/modules/parse&#45;value.js -->
<g id="node18" class="node">
<title>../../dom/modules/parse&#45;value.js</title>
<path fill="none" stroke="#c6c5fe" d="M584.33,-627.48C584.33,-627.48 390.67,-627.48 390.67,-627.48 386.83,-627.48 383,-623.64 383,-619.81 383,-619.81 383,-612.14 383,-612.14 383,-608.31 386.83,-604.48 390.67,-604.48 390.67,-604.48 584.33,-604.48 584.33,-604.48 588.17,-604.48 592,-608.31 592,-612.14 592,-612.14 592,-619.81 592,-619.81 592,-623.64 588.17,-627.48 584.33,-627.48"/>
<text text-anchor="middle" x="487.5" y="-612.28" font-family="Arial" font-size="14.00" fill="#c6c5fe">../../dom/modules/parse&#45;value.js</text>
</g>
<!-- ../../dom/modules/gestures.js&#45;&gt;../../dom/modules/parse&#45;value.js -->
<g id="edge18" class="edge">
<title>../../dom/modules/gestures.js&#45;&gt;../../dom/modules/parse&#45;value.js</title>
<path fill="none" stroke="#757575" d="M254.14,-213.48C286.97,-270.35 432.03,-521.62 474.67,-595.49"/>
<polygon fill="#757575" stroke="#757575" points="471.75,-597.42 479.78,-604.33 477.81,-593.92 471.75,-597.42"/>
</g>
<!-- ../../dom/modules/parse&#45;value.js&#45;&gt;../../fn/modules/id.js -->
<g id="edge22" class="edge">
<title>../../dom/modules/parse&#45;value.js&#45;&gt;../../fn/modules/id.js</title>
<path fill="none" stroke="#757575" d="M548.1,-627.54C572.77,-632.09 601.71,-637.14 628,-640.98 680,-648.56 1051.99,-668.59 1098,-693.98 1120.43,-706.35 1111.87,-726.09 1134,-738.98 1148.76,-747.57 1166.09,-752.79 1183.06,-755.9"/>
<polygon fill="#757575" stroke="#757575" points="1182.56,-759.36 1192.99,-757.49 1183.67,-752.45 1182.56,-759.36"/>
</g>
<!-- ../../dom/modules/parse&#45;value.js&#45;&gt;../../fn/modules/overload.js -->
<g id="edge23" class="edge">
<title>../../dom/modules/parse&#45;value.js&#45;&gt;../../fn/modules/overload.js</title>
<path fill="none" stroke="#757575" d="M592.05,-619.82C753.82,-626.38 1052.73,-640.87 1098,-659.98 1117.72,-668.3 1114.87,-682.36 1134,-691.98 1143.3,-696.65 1153.4,-700.49 1163.69,-703.64"/>
<polygon fill="#757575" stroke="#757575" points="1163.02,-707.08 1173.6,-706.45 1164.93,-700.35 1163.02,-707.08"/>
</g>
<!-- ../../dom/modules/parse&#45;value.js&#45;&gt;../../fn/modules/to&#45;type.js -->
<g id="edge25" class="edge">
<title>../../dom/modules/parse&#45;value.js&#45;&gt;../../fn/modules/to&#45;type.js</title>
<path fill="none" stroke="#757575" d="M535.86,-627.54C554.23,-633.25 574.91,-641.26 592,-651.98 611.17,-664 607.41,-678.59 628,-687.98 717.06,-728.56 830.63,-730.32 908.82,-724.93"/>
<polygon fill="#757575" stroke="#757575" points="909.42,-728.39 919.14,-724.16 908.9,-721.41 909.42,-728.39"/>
</g>
<!-- ../../dom/modules/parse&#45;value.js&#45;&gt;../../dom/modules/events.js -->
<g id="edge20" class="edge">
<title>../../dom/modules/parse&#45;value.js&#45;&gt;../../dom/modules/events.js</title>
<path fill="none" stroke="#757575" d="M495.43,-604.45C530.61,-545.91 689.57,-281.37 735.21,-205.42"/>
<polygon fill="#757575" stroke="#757575" points="738.28,-207.12 740.43,-196.74 732.28,-203.51 738.28,-207.12"/>
</g>
<!-- ../../dom/modules/style.js -->
<g id="node19" class="node">
<title>../../dom/modules/style.js</title>
<path fill="none" stroke="#cfffac" d="M824.33,-607.48C824.33,-607.48 672.67,-607.48 672.67,-607.48 668.83,-607.48 665,-603.64 665,-599.81 665,-599.81 665,-592.14 665,-592.14 665,-588.31 668.83,-584.48 672.67,-584.48 672.67,-584.48 824.33,-584.48 824.33,-584.48 828.17,-584.48 832,-588.31 832,-592.14 832,-592.14 832,-599.81 832,-599.81 832,-603.64 828.17,-607.48 824.33,-607.48"/>
<text text-anchor="middle" x="748.5" y="-592.28" font-family="Arial" font-size="14.00" fill="#cfffac">../../dom/modules/style.js</text>
</g>
<!-- ../../dom/modules/parse&#45;value.js&#45;&gt;../../dom/modules/style.js -->
<g id="edge21" class="edge">
<title>../../dom/modules/parse&#45;value.js&#45;&gt;../../dom/modules/style.js</title>
<path fill="none" stroke="#757575" d="M592.35,-607.96C612.94,-606.37 634.43,-604.71 654.62,-603.15"/>
<polygon fill="#757575" stroke="#757575" points="655.03,-606.63 664.74,-602.37 654.5,-599.65 655.03,-606.63"/>
</g>
<!-- ../../fn/modules/parse&#45;value.js -->
<g id="node20" class="node">
<title>../../fn/modules/parse&#45;value.js</title>
<path fill="none" stroke="#c6c5fe" d="M837.83,-848.48C837.83,-848.48 659.17,-848.48 659.17,-848.48 655.33,-848.48 651.5,-844.64 651.5,-840.81 651.5,-840.81 651.5,-833.14 651.5,-833.14 651.5,-829.31 655.33,-825.48 659.17,-825.48 659.17,-825.48 837.83,-825.48 837.83,-825.48 841.67,-825.48 845.5,-829.31 845.5,-833.14 845.5,-833.14 845.5,-840.81 845.5,-840.81 845.5,-844.64 841.67,-848.48 837.83,-848.48"/>
<text text-anchor="middle" x="748.5" y="-833.28" font-family="Arial" font-size="14.00" fill="#c6c5fe">../../fn/modules/parse&#45;value.js</text>
</g>
<!-- ../../dom/modules/parse&#45;value.js&#45;&gt;../../fn/modules/parse&#45;value.js -->
<g id="edge24" class="edge">
<title>../../dom/modules/parse&#45;value.js&#45;&gt;../../fn/modules/parse&#45;value.js</title>
<path fill="none" stroke="#757575" d="M498.74,-627.65C530.89,-664.32 627.76,-774.79 628,-774.98 652.69,-794.32 684.33,-810.42 708.85,-821.36"/>
<polygon fill="#757575" stroke="#757575" points="707.64,-824.65 718.2,-825.44 710.44,-818.24 707.64,-824.65"/>
</g>
<!-- ../../fn/modules/parse&#45;value.js&#45;&gt;../../fn/modules/curry.js -->
<g id="edge53" class="edge">
<title>../../fn/modules/parse&#45;value.js&#45;&gt;../../fn/modules/curry.js</title>
<path fill="none" stroke="#757575" d="M774.69,-848.52C799.2,-860 837.29,-878.54 869,-896.98 885.62,-906.64 886.79,-914.8 905,-920.98 1204.38,-1022.42 1300.23,-953.46 1616,-938.98 1737.27,-933.41 1769.07,-938.33 1888,-913.98 1912.43,-908.97 1939.03,-900.51 1960.12,-893.04"/>
<polygon fill="#757575" stroke="#757575" points="1961.48,-896.27 1969.69,-889.59 1959.1,-889.69 1961.48,-896.27"/>
</g>
<!-- ../../dom/modules/request.js&#45;&gt;../../fn/modules/id.js -->
<g id="edge30" class="edge">
<title>../../dom/modules/request.js&#45;&gt;../../fn/modules/id.js</title>
<path fill="none" stroke="#757575" d="M1058.26,-820.41C1071.62,-816.66 1085.6,-811.9 1098,-805.98 1115.81,-797.47 1115.79,-787.59 1134,-779.98 1149.22,-773.61 1166.24,-769.18 1182.7,-766.09"/>
<polygon fill="#757575" stroke="#757575" points="1183.6,-769.48 1192.86,-764.33 1182.41,-762.58 1183.6,-769.48"/>
</g>
<!-- ../../fn/modules/choose.js -->
<g id="node23" class="node">
<title>../../fn/modules/choose.js</title>
<path fill="none" stroke="#c6c5fe" d="M1335.83,-811.48C1335.83,-811.48 1184.17,-811.48 1184.17,-811.48 1180.33,-811.48 1176.5,-807.64 1176.5,-803.81 1176.5,-803.81 1176.5,-796.14 1176.5,-796.14 1176.5,-792.31 1180.33,-788.48 1184.17,-788.48 1184.17,-788.48 1335.83,-788.48 1335.83,-788.48 1339.67,-788.48 1343.5,-792.31 1343.5,-796.14 1343.5,-796.14 1343.5,-803.81 1343.5,-803.81 1343.5,-807.64 1339.67,-811.48 1335.83,-811.48"/>
<text text-anchor="middle" x="1260" y="-796.28" font-family="Arial" font-size="14.00" fill="#c6c5fe">../../fn/modules/choose.js</text>
</g>
<!-- ../../dom/modules/request.js&#45;&gt;../../fn/modules/choose.js -->
<g id="edge29" class="edge">
<title>../../dom/modules/request.js&#45;&gt;../../fn/modules/choose.js</title>
<path fill="none" stroke="#757575" d="M1093.65,-820.6C1117.22,-817.66 1142.6,-814.5 1166.25,-811.55"/>
<polygon fill="#757575" stroke="#757575" points="1166.77,-815.01 1176.26,-810.3 1165.9,-808.06 1166.77,-815.01"/>
</g>
<!-- ../../dom/modules/request.js&#45;&gt;../../fn/modules/nothing.js -->
<g id="edge31" class="edge">
<title>../../dom/modules/request.js&#45;&gt;../../fn/modules/nothing.js</title>
<path fill="none" stroke="#757575" d="M1018.05,-820.23C1039.12,-803.51 1076.56,-770.89 1098,-734.98 1125.88,-688.26 1095.49,-656.41 1134,-617.98 1216.89,-535.25 1303.59,-624.18 1386,-540.98 1425.78,-500.81 1380.57,-457.44 1422,-418.98 1427.17,-414.17 1602.66,-377.83 1702.04,-357.55"/>
<polygon fill="#757575" stroke="#757575" points="1702.9,-360.95 1712,-355.52 1701.51,-354.09 1702.9,-360.95"/>
</g>
<!-- ../../fn/modules/lists/rest.js -->
<g id="node28" class="node">
<title>../../fn/modules/lists/rest.js</title>
<path fill="none" stroke="#cfffac" d="M1597.83,-811.48C1597.83,-811.48 1440.17,-811.48 1440.17,-811.48 1436.33,-811.48 1432.5,-807.64 1432.5,-803.81 1432.5,-803.81 1432.5,-796.14 1432.5,-796.14 1432.5,-792.31 1436.33,-788.48 1440.17,-788.48 1440.17,-788.48 1597.83,-788.48 1597.83,-788.48 1601.67,-788.48 1605.5,-792.31 1605.5,-796.14 1605.5,-796.14 1605.5,-803.81 1605.5,-803.81 1605.5,-807.64 1601.67,-811.48 1597.83,-811.48"/>
<text text-anchor="middle" x="1519" y="-796.28" font-family="Arial" font-size="14.00" fill="#cfffac">../../fn/modules/lists/rest.js</text>
</g>
<!-- ../../fn/modules/choose.js&#45;&gt;../../fn/modules/lists/rest.js -->
<g id="edge35" class="edge">
<title>../../fn/modules/choose.js&#45;&gt;../../fn/modules/lists/rest.js</title>
<path fill="none" stroke="#757575" d="M1343.73,-799.98C1368.73,-799.98 1396.39,-799.98 1422.17,-799.98"/>
<polygon fill="#757575" stroke="#757575" points="1422.33,-803.48 1432.33,-799.98 1422.33,-796.48 1422.33,-803.48"/>
</g>
<!-- ../../fn/modules/nothing.js&#45;&gt;../../fn/modules/noop.js -->
<g id="edge52" class="edge">
<title>../../fn/modules/nothing.js&#45;&gt;../../fn/modules/noop.js</title>
<path fill="none" stroke="#757575" d="M1850.41,-332.42C1863.07,-330 1875.95,-327.19 1888,-323.98 1913.58,-317.15 1941.53,-306.86 1963.05,-298.3"/>
<polygon fill="#757575" stroke="#757575" points="1964.49,-301.49 1972.46,-294.51 1961.87,-295 1964.49,-301.49"/>
</g>
<!-- ../../dom/modules/trigger.js -->
<g id="node25" class="node">
<title>../../dom/modules/trigger.js</title>
<path fill="none" stroke="#c6c5fe" d="M1081.83,-293.48C1081.83,-293.48 921.17,-293.48 921.17,-293.48 917.33,-293.48 913.5,-289.64 913.5,-285.81 913.5,-285.81 913.5,-278.14 913.5,-278.14 913.5,-274.31 917.33,-270.48 921.17,-270.48 921.17,-270.48 1081.83,-270.48 1081.83,-270.48 1085.67,-270.48 1089.5,-274.31 1089.5,-278.14 1089.5,-278.14 1089.5,-285.81 1089.5,-285.81 1089.5,-289.64 1085.67,-293.48 1081.83,-293.48"/>
<text text-anchor="middle" x="1001.5" y="-278.28" font-family="Arial" font-size="14.00" fill="#c6c5fe">../../dom/modules/trigger.js</text>
</g>
<!-- ../../dom/modules/trigger.js&#45;&gt;../../dom/modules/event.js -->
<g id="edge32" class="edge">
<title>../../dom/modules/trigger.js&#45;&gt;../../dom/modules/event.js</title>
<path fill="none" stroke="#757575" d="M1089.7,-281.98C1113.46,-281.98 1139.33,-281.98 1163.52,-281.98"/>
<polygon fill="#757575" stroke="#757575" points="1163.78,-285.48 1173.78,-281.98 1163.78,-278.48 1163.78,-285.48"/>
</g>
<!-- ../../fn/modules/by.js -->
<g id="node26" class="node">
<title>../../fn/modules/by.js</title>
<path fill="none" stroke="#c6c5fe" d="M1579.83,-929.48C1579.83,-929.48 1458.17,-929.48 1458.17,-929.48 1454.33,-929.48 1450.5,-925.64 1450.5,-921.81 1450.5,-921.81 1450.5,-914.14 1450.5,-914.14 1450.5,-910.31 1454.33,-906.48 1458.17,-906.48 1458.17,-906.48 1579.83,-906.48 1579.83,-906.48 1583.67,-906.48 1587.5,-910.31 1587.5,-914.14 1587.5,-914.14 1587.5,-921.81 1587.5,-921.81 1587.5,-925.64 1583.67,-929.48 1579.83,-929.48"/>
<text text-anchor="middle" x="1519" y="-914.28" font-family="Arial" font-size="14.00" fill="#c6c5fe">../../fn/modules/by.js</text>
</g>
<!-- ../../fn/modules/by.js&#45;&gt;../../fn/modules/curry.js -->
<g id="edge33" class="edge">
<title>../../fn/modules/by.js&#45;&gt;../../fn/modules/curry.js</title>
<path fill="none" stroke="#757575" d="M1587.58,-914.31C1661.47,-910.04 1783.3,-902.24 1888,-891.98 1896.53,-891.14 1905.43,-890.18 1914.3,-889.16"/>
<polygon fill="#757575" stroke="#757575" points="1914.77,-892.63 1924.29,-887.98 1913.95,-885.67 1914.77,-892.63"/>
</g>
<!-- ../../fn/modules/choke.js&#45;&gt;../../fn/modules/noop.js -->
<g id="edge34" class="edge">
<title>../../fn/modules/choke.js&#45;&gt;../../fn/modules/noop.js</title>
<path fill="none" stroke="#757575" d="M1574.48,-31.44C1651.2,-18.37 1792.4,-6.27 1888,-68.98 1957.09,-114.29 1985.91,-216.81 1995.49,-261.49"/>
<polygon fill="#757575" stroke="#757575" points="1992.07,-262.19 1997.49,-271.3 1998.93,-260.8 1992.07,-262.19"/>
</g>
<!-- ../../fn/modules/compose.js -->
<g id="node29" class="node">
<title>../../fn/modules/compose.js</title>
<path fill="none" stroke="#cfffac" d="M1851.83,-193.48C1851.83,-193.48 1688.17,-193.48 1688.17,-193.48 1684.33,-193.48 1680.5,-189.64 1680.5,-185.81 1680.5,-185.81 1680.5,-178.14 1680.5,-178.14 1680.5,-174.31 1684.33,-170.48 1688.17,-170.48 1688.17,-170.48 1851.83,-170.48 1851.83,-170.48 1855.67,-170.48 1859.5,-174.31 1859.5,-178.14 1859.5,-178.14 1859.5,-185.81 1859.5,-185.81 1859.5,-189.64 1855.67,-193.48 1851.83,-193.48"/>
<text text-anchor="middle" x="1770" y="-178.28" font-family="Arial" font-size="14.00" fill="#cfffac">../../fn/modules/compose.js</text>
</g>
<!-- ../../fn/modules/denormalisers.js -->
<g id="node30" class="node">
<title>../../fn/modules/denormalisers.js</title>
<path fill="none" stroke="#c6c5fe" d="M1356.83,-649.48C1356.83,-649.48 1163.17,-649.48 1163.17,-649.48 1159.33,-649.48 1155.5,-645.64 1155.5,-641.81 1155.5,-641.81 1155.5,-634.14 1155.5,-634.14 1155.5,-630.31 1159.33,-626.48 1163.17,-626.48 1163.17,-626.48 1356.83,-626.48 1356.83,-626.48 1360.67,-626.48 1364.5,-630.31 1364.5,-634.14 1364.5,-634.14 1364.5,-641.81 1364.5,-641.81 1364.5,-645.64 1360.67,-649.48 1356.83,-649.48"/>
<text text-anchor="middle" x="1260" y="-634.28" font-family="Arial" font-size="14.00" fill="#c6c5fe">../../fn/modules/denormalisers.js</text>
</g>
<!-- ../../fn/modules/maths/cubic&#45;bezier.js -->
<g id="node31" class="node">
<title>../../fn/modules/maths/cubic&#45;bezier.js</title>
<path fill="none" stroke="#c6c5fe" d="M1880.33,-669.48C1880.33,-669.48 1659.67,-669.48 1659.67,-669.48 1655.83,-669.48 1652,-665.64 1652,-661.81 1652,-661.81 1652,-654.14 1652,-654.14 1652,-650.31 1655.83,-646.48 1659.67,-646.48 1659.67,-646.48 1880.33,-646.48 1880.33,-646.48 1884.17,-646.48 1888,-650.31 1888,-654.14 1888,-654.14 1888,-661.81 1888,-661.81 1888,-665.64 1884.17,-669.48 1880.33,-669.48"/>
<text text-anchor="middle" x="1770" y="-654.28" font-family="Arial" font-size="14.00" fill="#c6c5fe">../../fn/modules/maths/cubic&#45;bezier.js</text>
</g>
<!-- ../../fn/modules/denormalisers.js&#45;&gt;../../fn/modules/maths/cubic&#45;bezier.js -->
<g id="edge37" class="edge">
<title>../../fn/modules/denormalisers.js&#45;&gt;../../fn/modules/maths/cubic&#45;bezier.js</title>
<path fill="none" stroke="#757575" d="M1364.72,-642.06C1444.83,-645.21 1556.09,-649.59 1641.61,-652.96"/>
<polygon fill="#757575" stroke="#757575" points="1641.52,-656.46 1651.65,-653.36 1641.79,-649.46 1641.52,-656.46"/>
</g>
<!-- ../../fn/modules/normalisers.js -->
<g id="node32" class="node">
<title>../../fn/modules/normalisers.js</title>
<path fill="none" stroke="#c6c5fe" d="M1608.33,-629.48C1608.33,-629.48 1429.67,-629.48 1429.67,-629.48 1425.83,-629.48 1422,-625.64 1422,-621.81 1422,-621.81 1422,-614.14 1422,-614.14 1422,-610.31 1425.83,-606.48 1429.67,-606.48 1429.67,-606.48 1608.33,-606.48 1608.33,-606.48 1612.17,-606.48 1616,-610.31 1616,-614.14 1616,-614.14 1616,-621.81 1616,-621.81 1616,-625.64 1612.17,-629.48 1608.33,-629.48"/>
<text text-anchor="middle" x="1519" y="-614.28" font-family="Arial" font-size="14.00" fill="#c6c5fe">../../fn/modules/normalisers.js</text>
</g>
<!-- ../../fn/modules/denormalisers.js&#45;&gt;../../fn/modules/normalisers.js -->
<g id="edge38" class="edge">
<title>../../fn/modules/denormalisers.js&#45;&gt;../../fn/modules/normalisers.js</title>
<path fill="none" stroke="#757575" d="M1364.79,-629.9C1380.22,-628.7 1396.14,-627.46 1411.62,-626.25"/>
<polygon fill="#757575" stroke="#757575" points="1412.02,-629.73 1421.72,-625.47 1411.48,-622.76 1412.02,-629.73"/>
</g>
<!-- ../../fn/modules/types.js -->
<g id="node33" class="node">
<title>../../fn/modules/types.js</title>
<path fill="none" stroke="#c6c5fe" d="M1839.83,-589.48C1839.83,-589.48 1700.17,-589.48 1700.17,-589.48 1696.33,-589.48 1692.5,-585.64 1692.5,-581.81 1692.5,-581.81 1692.5,-574.14 1692.5,-574.14 1692.5,-570.31 1696.33,-566.48 1700.17,-566.48 1700.17,-566.48 1839.83,-566.48 1839.83,-566.48 1843.67,-566.48 1847.5,-570.31 1847.5,-574.14 1847.5,-574.14 1847.5,-581.81 1847.5,-581.81 1847.5,-585.64 1843.67,-589.48 1839.83,-589.48"/>
<text text-anchor="middle" x="1770" y="-574.28" font-family="Arial" font-size="14.00" fill="#c6c5fe">../../fn/modules/types.js</text>
</g>
<!-- ../../fn/modules/denormalisers.js&#45;&gt;../../fn/modules/types.js -->
<g id="edge39" class="edge">
<title>../../fn/modules/denormalisers.js&#45;&gt;../../fn/modules/types.js</title>
<path fill="none" stroke="#757575" d="M1298.98,-626.41C1331.35,-617.07 1379.29,-604.46 1422,-597.98 1510,-584.63 1611.78,-580.02 1682.26,-578.51"/>
<polygon fill="#757575" stroke="#757575" points="1682.49,-582.01 1692.42,-578.31 1682.36,-575.01 1682.49,-582.01"/>
</g>
<!-- ../../fn/modules/maths/cubic&#45;bezier.js&#45;&gt;../../fn/modules/curry.js -->
<g id="edge49" class="edge">
<title>../../fn/modules/maths/cubic&#45;bezier.js&#45;&gt;../../fn/modules/curry.js</title>
<path fill="none" stroke="#757575" d="M1792.74,-669.66C1817.4,-683.53 1858.07,-708.29 1888,-735.98 1929.31,-774.2 1967.53,-828.67 1986.67,-857.78"/>
<polygon fill="#757575" stroke="#757575" points="1983.81,-859.81 1992.19,-866.29 1989.68,-856 1983.81,-859.81"/>
</g>
<!-- ../../fn/modules/normalisers.js&#45;&gt;../../fn/modules/maths/cubic&#45;bezier.js -->
<g id="edge50" class="edge">
<title>../../fn/modules/normalisers.js&#45;&gt;../../fn/modules/maths/cubic&#45;bezier.js</title>
<path fill="none" stroke="#757575" d="M1591.69,-629.49C1621.63,-634.3 1656.59,-639.92 1687.5,-644.88"/>
<polygon fill="#757575" stroke="#757575" points="1686.96,-648.34 1697.39,-646.47 1688.07,-641.43 1686.96,-648.34"/>
</g>
<!-- ../../fn/modules/normalisers.js&#45;&gt;../../fn/modules/types.js -->
<g id="edge51" class="edge">
<title>../../fn/modules/normalisers.js&#45;&gt;../../fn/modules/types.js</title>
<path fill="none" stroke="#757575" d="M1591.69,-606.46C1621.63,-601.65 1656.59,-596.03 1687.5,-591.07"/>
<polygon fill="#757575" stroke="#757575" points="1688.07,-594.52 1697.39,-589.48 1686.96,-587.61 1688.07,-594.52"/>
</g>
<!-- ../../fn/modules/types.js&#45;&gt;../../fn/modules/noop.js -->
<g id="edge67" class="edge">
<title>../../fn/modules/types.js&#45;&gt;../../fn/modules/noop.js</title>
<path fill="none" stroke="#757575" d="M1789.02,-566.38C1813.64,-549.87 1858.14,-517.63 1888,-481.98 1936.34,-424.25 1974.38,-342.51 1990.75,-304.26"/>
<polygon fill="#757575" stroke="#757575" points="1994.13,-305.25 1994.79,-294.68 1987.68,-302.54 1994.13,-305.25"/>
</g>
<!-- ../../fn/modules/fn.js&#45;&gt;../../fn/modules/noop.js -->
<g id="edge42" class="edge">
<title>../../fn/modules/fn.js&#45;&gt;../../fn/modules/noop.js</title>
<path fill="none" stroke="#757575" d="M1586.29,-205.09C1660.61,-208.58 1784.29,-217.81 1888,-241.98 1914.13,-248.07 1942.49,-258.55 1964.07,-267.4"/>
<polygon fill="#757575" stroke="#757575" points="1962.9,-270.7 1973.48,-271.32 1965.6,-264.24 1962.9,-270.7"/>
</g>
<!-- ../../fn/modules/fn.js&#45;&gt;../../fn/modules/nothing.js -->
<g id="edge43" class="edge">
<title>../../fn/modules/fn.js&#45;&gt;../../fn/modules/nothing.js</title>
<path fill="none" stroke="#757575" d="M1586.2,-212.03C1597.09,-215.88 1607.56,-221.32 1616,-228.98 1649.45,-259.31 1617.15,-295.27 1652,-323.98 1659.24,-329.94 1667.61,-334.42 1676.47,-337.74"/>
<polygon fill="#757575" stroke="#757575" points="1675.66,-341.16 1686.26,-340.92 1677.82,-334.5 1675.66,-341.16"/>
</g>
<!-- ../../fn/modules/fn.js&#45;&gt;../../fn/modules/compose.js -->
<g id="edge40" class="edge">
<title>../../fn/modules/fn.js&#45;&gt;../../fn/modules/compose.js</title>
<path fill="none" stroke="#757575" d="M1586.07,-197.4C1611.74,-195.24 1641.68,-192.71 1669.83,-190.34"/>
<polygon fill="#757575" stroke="#757575" points="1670.43,-193.8 1680.1,-189.47 1669.85,-186.83 1670.43,-193.8"/>
</g>
<!-- ../../fn/modules/latest.js -->
<g id="node35" class="node">
<title>../../fn/modules/latest.js</title>
<path fill="none" stroke="#cfffac" d="M1839.83,-273.48C1839.83,-273.48 1700.17,-273.48 1700.17,-273.48 1696.33,-273.48 1692.5,-269.64 1692.5,-265.81 1692.5,-265.81 1692.5,-258.14 1692.5,-258.14 1692.5,-254.31 1696.33,-250.48 1700.17,-250.48 1700.17,-250.48 1839.83,-250.48 1839.83,-250.48 1843.67,-250.48 1847.5,-254.31 1847.5,-258.14 1847.5,-258.14 1847.5,-265.81 1847.5,-265.81 1847.5,-269.64 1843.67,-273.48 1839.83,-273.48"/>
<text text-anchor="middle" x="1770" y="-258.28" font-family="Arial" font-size="14.00" fill="#cfffac">../../fn/modules/latest.js</text>
</g>
<!-- ../../fn/modules/fn.js&#45;&gt;../../fn/modules/latest.js -->
<g id="edge41" class="edge">
<title>../../fn/modules/fn.js&#45;&gt;../../fn/modules/latest.js</title>
<path fill="none" stroke="#757575" d="M1564.83,-214.5C1590.35,-220.97 1622.92,-229.11 1652,-235.98 1669.35,-240.07 1688.2,-244.34 1705.59,-248.2"/>
<polygon fill="#757575" stroke="#757575" points="1705.12,-251.68 1715.64,-250.43 1706.63,-244.85 1705.12,-251.68"/>
</g>
<!-- ../../fn/modules/strings/prepend.js -->
<g id="node36" class="node">
<title>../../fn/modules/strings/prepend.js</title>
<path fill="none" stroke="#c6c5fe" d="M1870.33,-314.48C1870.33,-314.48 1669.67,-314.48 1669.67,-314.48 1665.83,-314.48 1662,-310.64 1662,-306.81 1662,-306.81 1662,-299.14 1662,-299.14 1662,-295.31 1665.83,-291.48 1669.67,-291.48 1669.67,-291.48 1870.33,-291.48 1870.33,-291.48 1874.17,-291.48 1878,-295.31 1878,-299.14 1878,-299.14 1878,-306.81 1878,-306.81 1878,-310.64 1874.17,-314.48 1870.33,-314.48"/>
<text text-anchor="middle" x="1770" y="-299.28" font-family="Arial" font-size="14.00" fill="#c6c5fe">../../fn/modules/strings/prepend.js</text>
</g>
<!-- ../../fn/modules/fn.js&#45;&gt;../../fn/modules/strings/prepend.js -->
<g id="edge44" class="edge">
<title>../../fn/modules/fn.js&#45;&gt;../../fn/modules/strings/prepend.js</title>
<path fill="none" stroke="#757575" d="M1586.11,-214.11C1596.71,-217.75 1607.1,-222.57 1616,-228.98 1639.41,-245.82 1627.81,-267.26 1652,-282.98 1654.19,-284.4 1656.46,-285.73 1658.78,-286.98"/>
<polygon fill="#757575" stroke="#757575" points="1657.45,-290.22 1667.99,-291.37 1660.46,-283.91 1657.45,-290.22"/>
</g>
<!-- ../../fn/modules/fn.js&#45;&gt;../../fn/modules/to&#45;array.js -->
<g id="edge45" class="edge">
<title>../../fn/modules/fn.js&#45;&gt;../../fn/modules/to&#45;array.js</title>
<path fill="none" stroke="#757575" d="M1568.3,-191.45C1583.7,-187.36 1600.71,-182.41 1616,-176.98 1632.5,-171.11 1635.24,-166.05 1652,-160.98 1659.71,-158.64 1667.8,-156.56 1675.96,-154.69"/>
<polygon fill="#757575" stroke="#757575" points="1676.91,-158.07 1685.94,-152.53 1675.43,-151.23 1676.91,-158.07"/>
</g>
<!-- ../../fn/modules/strings/prepend.js&#45;&gt;../../fn/modules/curry.js -->
<g id="edge64" class="edge">
<title>../../fn/modules/strings/prepend.js&#45;&gt;../../fn/modules/curry.js</title>
<path fill="none" stroke="#757575" d="M1875.87,-314.6C1880.23,-317.26 1884.31,-320.37 1888,-323.98 1966.06,-400.41 1992.69,-763.14 1998.29,-856.19"/>
<polygon fill="#757575" stroke="#757575" points="1994.81,-856.6 1998.89,-866.38 2001.8,-856.19 1994.81,-856.6"/>
</g>
<!-- ../../fn/modules/get.js -->
<g id="node38" class="node">
<title>../../fn/modules/get.js</title>
<path fill="none" stroke="#c6c5fe" d="M1582.33,-709.48C1582.33,-709.48 1455.67,-709.48 1455.67,-709.48 1451.83,-709.48 1448,-705.64 1448,-701.81 1448,-701.81 1448,-694.14 1448,-694.14 1448,-690.31 1451.83,-686.48 1455.67,-686.48 1455.67,-686.48 1582.33,-686.48 1582.33,-686.48 1586.17,-686.48 1590,-690.31 1590,-694.14 1590,-694.14 1590,-701.81 1590,-701.81 1590,-705.64 1586.17,-709.48 1582.33,-709.48"/>
<text text-anchor="middle" x="1519" y="-694.28" font-family="Arial" font-size="14.00" fill="#c6c5fe">../../fn/modules/get.js</text>
</g>
<!-- ../../fn/modules/get.js&#45;&gt;../../fn/modules/curry.js -->
<g id="edge46" class="edge">
<title>../../fn/modules/get.js&#45;&gt;../../fn/modules/curry.js</title>
<path fill="none" stroke="#757575" d="M1550.72,-709.51C1634.27,-740.87 1865.59,-827.71 1959.3,-862.89"/>
<polygon fill="#757575" stroke="#757575" points="1958.13,-866.18 1968.72,-866.42 1960.59,-859.63 1958.13,-866.18"/>
</g>
<!-- ../../fn/modules/lists/core.js&#45;&gt;../../fn/modules/to&#45;array.js -->
<g id="edge47" class="edge">
<title>../../fn/modules/lists/core.js&#45;&gt;../../fn/modules/to&#45;array.js</title>
<path fill="none" stroke="#757575" d="M1607.09,-129.27C1629.1,-130.86 1652.83,-132.58 1675.16,-134.19"/>
<polygon fill="#757575" stroke="#757575" points="1675.09,-137.7 1685.31,-134.93 1675.59,-130.71 1675.09,-137.7"/>
</g>
<!-- ../../fn/modules/maths/clamp.js -->
<g id="node40" class="node">
<title>../../fn/modules/maths/clamp.js</title>
<path fill="none" stroke="#c6c5fe" d="M339.33,-952.48C339.33,-952.48 153.67,-952.48 153.67,-952.48 149.83,-952.48 146,-948.64 146,-944.81 146,-944.81 146,-937.14 146,-937.14 146,-933.31 149.83,-929.48 153.67,-929.48 153.67,-929.48 339.33,-929.48 339.33,-929.48 343.17,-929.48 347,-933.31 347,-937.14 347,-937.14 347,-944.81 347,-944.81 347,-948.64 343.17,-952.48 339.33,-952.48"/>
<text text-anchor="middle" x="246.5" y="-937.28" font-family="Arial" font-size="14.00" fill="#c6c5fe">../../fn/modules/maths/clamp.js</text>
</g>
<!-- ../../fn/modules/maths/clamp.js&#45;&gt;../../fn/modules/curry.js -->
<g id="edge48" class="edge">
<title>../../fn/modules/maths/clamp.js&#45;&gt;../../fn/modules/curry.js</title>
<path fill="none" stroke="#757575" d="M272.65,-952.49C344.86,-984.45 559.73,-1071.98 747.5,-1071.98 747.5,-1071.98 747.5,-1071.98 1002.5,-1071.98 1400.47,-1071.98 1510.84,-1065.99 1888,-938.98 1919.43,-928.39 1952.38,-909.21 1974.24,-895.17"/>
<polygon fill="#757575" stroke="#757575" points="1976.16,-898.1 1982.61,-889.7 1972.33,-892.25 1976.16,-898.1"/>
</g>
<!-- ../../fn/modules/maths/to&#45;db.js -->
<g id="node41" class="node">
<title>../../fn/modules/maths/to&#45;db.js</title>
<path fill="none" stroke="#cfffac" d="M1349.83,-531.48C1349.83,-531.48 1170.17,-531.48 1170.17,-531.48 1166.33,-531.48 1162.5,-527.64 1162.5,-523.81 1162.5,-523.81 1162.5,-516.14 1162.5,-516.14 1162.5,-512.31 1166.33,-508.48 1170.17,-508.48 1170.17,-508.48 1349.83,-508.48 1349.83,-508.48 1353.67,-508.48 1357.5,-512.31 1357.5,-516.14 1357.5,-516.14 1357.5,-523.81 1357.5,-523.81 1357.5,-527.64 1353.67,-531.48 1349.83,-531.48"/>
<text text-anchor="middle" x="1260" y="-516.28" font-family="Arial" font-size="14.00" fill="#cfffac">../../fn/modules/maths/to&#45;db.js</text>
</g>
<!-- ../../fn/modules/maths/to&#45;gain.js -->
<g id="node42" class="node">
<title>../../fn/modules/maths/to&#45;gain.js</title>
<path fill="none" stroke="#cfffac" d="M1355.33,-490.48C1355.33,-490.48 1164.67,-490.48 1164.67,-490.48 1160.83,-490.48 1157,-486.64 1157,-482.81 1157,-482.81 1157,-475.14 1157,-475.14 1157,-471.31 1160.83,-467.48 1164.67,-467.48 1164.67,-467.48 1355.33,-467.48 1355.33,-467.48 1359.17,-467.48 1363,-471.31 1363,-475.14 1363,-475.14 1363,-482.81 1363,-482.81 1363,-486.64 1359.17,-490.48 1355.33,-490.48"/>
<text text-anchor="middle" x="1260" y="-475.28" font-family="Arial" font-size="14.00" fill="#cfffac">../../fn/modules/maths/to&#45;gain.js</text>
</g>
<!-- ../../fn/modules/request&#45;tick.js -->
<g id="node45" class="node">
<title>../../fn/modules/request&#45;tick.js</title>
<path fill="none" stroke="#cfffac" d="M1858.83,-472.48C1858.83,-472.48 1681.17,-472.48 1681.17,-472.48 1677.33,-472.48 1673.5,-468.64 1673.5,-464.81 1673.5,-464.81 1673.5,-457.14 1673.5,-457.14 1673.5,-453.31 1677.33,-449.48 1681.17,-449.48 1681.17,-449.48 1858.83,-449.48 1858.83,-449.48 1862.67,-449.48 1866.5,-453.31 1866.5,-457.14 1866.5,-457.14 1866.5,-464.81 1866.5,-464.81 1866.5,-468.64 1862.67,-472.48 1858.83,-472.48"/>
<text text-anchor="middle" x="1770" y="-457.28" font-family="Arial" font-size="14.00" fill="#cfffac">../../fn/modules/request&#45;tick.js</text>
</g>
<!-- ../../fn/modules/timer.js&#45;&gt;../../fn/modules/now.js -->
<g id="edge65" class="edge">
<title>../../fn/modules/timer.js&#45;&gt;../../fn/modules/now.js</title>
<path fill="none" stroke="#757575" d="M1595.72,-430.46C1624.26,-427.25 1656.87,-423.59 1686.04,-420.31"/>
<polygon fill="#757575" stroke="#757575" points="1686.65,-423.76 1696.2,-419.16 1685.87,-416.8 1686.65,-423.76"/>
</g>
<!-- ../../fn/modules/timer.js&#45;&gt;../../fn/modules/request&#45;tick.js -->
<g id="edge66" class="edge">
<title>../../fn/modules/timer.js&#45;&gt;../../fn/modules/request&#45;tick.js</title>
<path fill="none" stroke="#757575" d="M1595.72,-445.67C1617.04,-447.55 1640.61,-449.63 1663.33,-451.64"/>
<polygon fill="#757575" stroke="#757575" points="1663.09,-455.13 1673.36,-452.53 1663.7,-448.16 1663.09,-455.13"/>
</g>
<!-- ../../fn/modules/strings/to&#45;camel&#45;case.js -->
<g id="node47" class="node">
<title>../../fn/modules/strings/to&#45;camel&#45;case.js</title>
<path fill="none" stroke="#cfffac" d="M1378.33,-449.48C1378.33,-449.48 1141.67,-449.48 1141.67,-449.48 1137.83,-449.48 1134,-445.64 1134,-441.81 1134,-441.81 1134,-434.14 1134,-434.14 1134,-430.31 1137.83,-426.48 1141.67,-426.48 1141.67,-426.48 1378.33,-426.48 1378.33,-426.48 1382.17,-426.48 1386,-430.31 1386,-434.14 1386,-434.14 1386,-441.81 1386,-441.81 1386,-445.64 1382.17,-449.48 1378.33,-449.48"/>
<text text-anchor="middle" x="1260" y="-434.28" font-family="Arial" font-size="14.00" fill="#cfffac">../../fn/modules/strings/to&#45;camel&#45;case.js</text>
</g>
<!-- attributes.js -->
<g id="node48" class="node">
<title>attributes.js</title>
<path fill="none" stroke="#c6c5fe" d="M783.83,-489.48C783.83,-489.48 713.17,-489.48 713.17,-489.48 709.33,-489.48 705.5,-485.64 705.5,-481.81 705.5,-481.81 705.5,-474.14 705.5,-474.14 705.5,-470.31 709.33,-466.48 713.17,-466.48 713.17,-466.48 783.83,-466.48 783.83,-466.48 787.67,-466.48 791.5,-470.31 791.5,-474.14 791.5,-474.14 791.5,-481.81 791.5,-481.81 791.5,-485.64 787.67,-489.48 783.83,-489.48"/>
<text text-anchor="middle" x="748.5" y="-474.28" font-family="Arial" font-size="14.00" fill="#c6c5fe">attributes.js</text>
</g>
<!-- attributes.js&#45;&gt;../../fn/modules/overload.js -->
<g id="edge72" class="edge">
<title>attributes.js&#45;&gt;../../fn/modules/overload.js</title>
<path fill="none" stroke="#757575" d="M777.54,-489.53C808.43,-502 859.72,-521.95 905,-535.98 989.43,-562.13 1033.11,-523.96 1098,-583.98 1135.14,-618.33 1096.2,-658.35 1134,-691.98 1142.3,-699.36 1152.15,-704.86 1162.62,-708.91"/>
<polygon fill="#757575" stroke="#757575" points="1161.79,-712.32 1172.38,-712.24 1164.05,-705.7 1161.79,-712.32"/>
</g>
<!-- attributes.js&#45;&gt;../../fn/modules/nothing.js -->
<g id="edge71" class="edge">
<title>attributes.js&#45;&gt;../../fn/modules/nothing.js</title>
<path fill="none" stroke="#757575" d="M773.1,-466.47C803.04,-452.4 856.59,-429 905,-416.98 1179.3,-348.85 1515.99,-341.39 1676.01,-342.25"/>
<polygon fill="#757575" stroke="#757575" points="1676.27,-345.75 1686.29,-342.32 1676.31,-338.75 1676.27,-345.75"/>
</g>
<!-- attributes.js&#45;&gt;../../dom/modules/trigger.js -->
<g id="edge68" class="edge">
<title>attributes.js&#45;&gt;../../dom/modules/trigger.js</title>
<path fill="none" stroke="#757575" d="M766.19,-466.25C790.89,-448.28 837.65,-411.91 869,-372.98 889.71,-347.25 879.02,-328.36 905,-307.98 910.27,-303.84 916.14,-300.36 922.32,-297.44"/>
<polygon fill="#757575" stroke="#757575" points="923.71,-300.65 931.56,-293.53 920.98,-294.21 923.71,-300.65"/>
</g>
<!-- attributes.js&#45;&gt;../../fn/modules/by.js -->
<g id="edge69" class="edge">
<title>attributes.js&#45;&gt;../../fn/modules/by.js</title>
<path fill="none" stroke="#757575" d="M772.53,-489.61C800.58,-505.14 846.94,-535.44 869,-575.98 902.99,-638.44 852.9,-845.57 905,-893.98 943.34,-929.6 1284.19,-924.67 1440.4,-920.46"/>
<polygon fill="#757575" stroke="#757575" points="1440.52,-923.95 1450.42,-920.18 1440.33,-916.96 1440.52,-923.95"/>
</g>
<!-- attributes.js&#45;&gt;../../fn/modules/get.js -->
<g id="edge70" class="edge">
<title>attributes.js&#45;&gt;../../fn/modules/get.js</title>
<path fill="none" stroke="#757575" d="M791.68,-484.85C884.14,-499.93 1096.56,-534.7 1098,-535.98 1140.62,-573.77 1090.2,-622.56 1134,-658.98 1156.84,-677.96 1332.2,-689.36 1437.88,-694.57"/>
<polygon fill="#757575" stroke="#757575" points="1437.73,-698.06 1447.88,-695.05 1438.07,-691.07 1437.73,-698.06"/>
</g>
<!-- attributes.js&#45;&gt;../../fn/modules/privates.js -->
<g id="edge73" class="edge">
<title>attributes.js&#45;&gt;../../fn/modules/privates.js</title>
<path fill="none" stroke="#757575" d="M762.69,-466.38C798.66,-434.78 896.4,-349.33 905,-345.98 996.68,-310.17 1275.47,-313.03 1423.43,-317.39"/>
<polygon fill="#757575" stroke="#757575" points="1423.75,-320.91 1433.85,-317.71 1423.96,-313.91 1423.75,-320.91"/>
</g>
<!-- attributes.js&#45;&gt;../../fn/modules/request&#45;tick.js -->
<g id="edge74" class="edge">
<title>attributes.js&#45;&gt;../../fn/modules/request&#45;tick.js</title>
<path fill="none" stroke="#757575" d="M791.64,-469.21C862.12,-455.04 1008.54,-427.71 1134,-417.98 1245.66,-409.32 1284.25,-371.18 1386,-417.98 1408.34,-428.25 1399.68,-449.67 1422,-459.98 1516.49,-503.6 1641.47,-488.8 1712.76,-474.57"/>
<polygon fill="#757575" stroke="#757575" points="1713.79,-477.93 1722.88,-472.48 1712.38,-471.07 1713.79,-477.93"/>
</g>
<!-- control.js -->
<g id="node49" class="node">
<title>control.js</title>
<path fill="none" stroke="#c6c5fe" d="M1029.33,-493.48C1029.33,-493.48 973.67,-493.48 973.67,-493.48 969.83,-493.48 966,-489.64 966,-485.81 966,-485.81 966,-478.14 966,-478.14 966,-474.31 969.83,-470.48 973.67,-470.48 973.67,-470.48 1029.33,-470.48 1029.33,-470.48 1033.17,-470.48 1037,-474.31 1037,-478.14 1037,-478.14 1037,-485.81 1037,-485.81 1037,-489.64 1033.17,-493.48 1029.33,-493.48"/>
<text text-anchor="middle" x="1001.5" y="-478.28" font-family="Arial" font-size="14.00" fill="#c6c5fe">control.js</text>
</g>
<!-- attributes.js&#45;&gt;control.js -->
<g id="edge75" class="edge">
<title>attributes.js&#45;&gt;control.js</title>
<path fill="none" stroke="#757575" d="M791.51,-478.65C836.92,-479.37 909.02,-480.52 955.55,-481.26"/>
<polygon fill="#757575" stroke="#757575" points="955.59,-484.76 965.64,-481.42 955.7,-477.76 955.59,-484.76"/>
</g>
<!-- control.js&#45;&gt;../../fn/modules/id.js -->
<g id="edge77" class="edge">
<title>control.js&#45;&gt;../../fn/modules/id.js</title>
<path fill="none" stroke="#757575" d="M1009.02,-493.5C1024.86,-521.64 1066.39,-596.19 1098,-659.98 1115.13,-694.55 1103.31,-715.6 1134,-738.98 1147.96,-749.61 1165.37,-755.55 1182.71,-758.7"/>
<polygon fill="#757575" stroke="#757575" points="1182.48,-762.21 1192.9,-760.25 1183.53,-755.29 1182.48,-762.21"/>
</g>
<!-- control.js&#45;&gt;../../fn/modules/overload.js -->
<g id="edge81" class="edge">
<title>control.js&#45;&gt;../../fn/modules/overload.js</title>
<path fill="none" stroke="#757575" d="M1028.81,-493.5C1050.32,-504.18 1080.02,-522.04 1098,-545.98 1129.66,-588.11 1099.28,-619.32 1134,-658.98 1152.28,-679.86 1179.55,-693.91 1203.97,-703.05"/>
<polygon fill="#757575" stroke="#757575" points="1202.91,-706.39 1213.51,-706.43 1205.25,-699.79 1202.91,-706.39"/>
</g>
<!-- control.js&#45;&gt;../../fn/modules/denormalisers.js -->
<g id="edge76" class="edge">
<title>control.js&#45;&gt;../../fn/modules/denormalisers.js</title>
<path fill="none" stroke="#757575" d="M1037.27,-483.59C1057.31,-486.26 1081.68,-492.72 1098,-507.98 1133.73,-541.38 1097.27,-579.68 1134,-611.98 1138.27,-615.73 1142.93,-618.99 1147.87,-621.82"/>
<polygon fill="#757575" stroke="#757575" points="1146.53,-625.06 1157.03,-626.46 1149.69,-618.82 1146.53,-625.06"/>
</g>
<!-- control.js&#45;&gt;../../fn/modules/normalisers.js -->
<g id="edge80" class="edge">
<title>control.js&#45;&gt;../../fn/modules/normalisers.js</title>
<path fill="none" stroke="#757575" d="M1037.15,-487.29C1055.98,-491.16 1079.19,-497.61 1098,-507.98 1117.01,-518.46 1114.65,-531.15 1134,-540.98 1221.21,-585.26 1331.65,-604.09 1411.69,-612.09"/>
<polygon fill="#757575" stroke="#757575" points="1411.5,-615.59 1421.78,-613.06 1412.16,-608.62 1411.5,-615.59"/>
</g>
<!-- control.js&#45;&gt;../../fn/modules/maths/to&#45;db.js -->
<g id="edge78" class="edge">
<title>control.js&#45;&gt;../../fn/modules/maths/to&#45;db.js</title>
<path fill="none" stroke="#757575" d="M1037.09,-487.1C1071.36,-492.18 1125.25,-500.16 1171.34,-506.99"/>
<polygon fill="#757575" stroke="#757575" points="1170.94,-510.47 1181.35,-508.47 1171.97,-503.54 1170.94,-510.47"/>
</g>
<!-- control.js&#45;&gt;../../fn/modules/maths/to&#45;gain.js -->
<g id="edge79" class="edge">
<title>control.js&#45;&gt;../../fn/modules/maths/to&#45;gain.js</title>
<path fill="none" stroke="#757575" d="M1037.09,-481.57C1065.46,-481.24 1107.26,-480.75 1146.96,-480.29"/>
<polygon fill="#757575" stroke="#757575" points="1147.04,-483.79 1156.99,-480.17 1146.95,-476.79 1147.04,-483.79"/>
</g>
<!-- control.js&#45;&gt;../../fn/modules/strings/to&#45;camel&#45;case.js -->
<g id="edge82" class="edge">
<title>control.js&#45;&gt;../../fn/modules/strings/to&#45;camel&#45;case.js</title>
<path fill="none" stroke="#757575" d="M1037.1,-475.86C1063.61,-471.19 1101.11,-464.62 1134,-458.98 1148.86,-456.43 1164.71,-453.74 1179.97,-451.17"/>
<polygon fill="#757575" stroke="#757575" points="1180.61,-454.61 1189.89,-449.5 1179.45,-447.71 1180.61,-454.61"/>
</g>
<!-- rotary&#45;control.js -->
<g id="node50" class="node">
<title>rotary&#45;control.js</title>
<path fill="none" stroke="#c6c5fe" d="M102.33,-548.48C102.33,-548.48 7.67,-548.48 7.67,-548.48 3.83,-548.48 0,-544.64 0,-540.81 0,-540.81 0,-533.14 0,-533.14 0,-529.31 3.83,-525.48 7.67,-525.48 7.67,-525.48 102.33,-525.48 102.33,-525.48 106.17,-525.48 110,-529.31 110,-533.14 110,-533.14 110,-540.81 110,-540.81 110,-544.64 106.17,-548.48 102.33,-548.48"/>
<text text-anchor="middle" x="55" y="-533.28" font-family="Arial" font-size="14.00" fill="#c6c5fe">rotary&#45;control.js</text>
</g>
<!-- rotary&#45;control.js&#45;&gt;../../fn/modules/overload.js -->
<g id="edge89" class="edge">
<title>rotary&#45;control.js&#45;&gt;../../fn/modules/overload.js</title>
<path fill="none" stroke="#757575" d="M110.25,-540.06C122.04,-540.71 134.43,-541.38 146,-541.98 467.27,-558.45 550.71,-529.34 869,-575.98 972.78,-591.18 1012.74,-571.89 1098,-632.98 1122.05,-650.21 1109.81,-671.94 1134,-688.98 1142.71,-695.12 1152.54,-699.97 1162.75,-703.81"/>
<polygon fill="#757575" stroke="#757575" points="1161.63,-707.13 1172.22,-707.06 1163.9,-700.51 1161.63,-707.13"/>
</g>
<!-- rotary&#45;control.js&#45;&gt;../../dom/modules/create.js -->
<g id="edge83" class="edge">
<title>rotary&#45;control.js&#45;&gt;../../dom/modules/create.js</title>
<path fill="none" stroke="#757575" d="M69.38,-548.7C86.16,-562.82 116.36,-586.36 146,-599.98 316.54,-678.33 533.33,-721.34 654.57,-740.83"/>
<polygon fill="#757575" stroke="#757575" points="654.14,-744.31 664.57,-742.42 655.24,-737.4 654.14,-744.31"/>
</g>
<!-- rotary&#45;control.js&#45;&gt;../../dom/modules/element.js -->
<g id="edge84" class="edge">
<title>rotary&#45;control.js&#45;&gt;../../dom/modules/element.js</title>
<path fill="none" stroke="#757575" d="M59.85,-548.84C69.5,-576.59 97.48,-645.96 146,-679.98 215.54,-728.74 311.22,-746.27 383.45,-752.16"/>
<polygon fill="#757575" stroke="#757575" points="383.24,-755.66 393.48,-752.92 383.77,-748.68 383.24,-755.66"/>
</g>
<!-- rotary&#45;control.js&#45;&gt;../../dom/modules/gestures.js -->
<g id="edge85" class="edge">
<title>rotary&#45;control.js&#45;&gt;../../dom/modules/gestures.js</title>
<path fill="none" stroke="#757575" d="M55.61,-525.45C54.75,-480.28 57.88,-313.68 146,-227.98 149.82,-224.26 154.11,-221.06 158.69,-218.3"/>
<polygon fill="#757575" stroke="#757575" points="160.6,-221.25 167.84,-213.52 157.36,-215.04 160.6,-221.25"/>
</g>
<!-- rotary&#45;control.js&#45;&gt;../../dom/modules/parse&#45;value.js -->
<g id="edge86" class="edge">
<title>rotary&#45;control.js&#45;&gt;../../dom/modules/parse&#45;value.js</title>
<path fill="none" stroke="#757575" d="M82.7,-548.5C100.36,-555.69 124.19,-564.57 146,-569.98 220.49,-588.43 306.1,-599.95 372.84,-606.85"/>
<polygon fill="#757575" stroke="#757575" points="372.67,-610.35 382.97,-607.88 373.37,-603.39 372.67,-610.35"/>
</g>
<!-- rotary&#45;control.js&#45;&gt;../../dom/modules/trigger.js -->
<g id="edge87" class="edge">
<title>rotary&#45;control.js&#45;&gt;../../dom/modules/trigger.js</title>
<path fill="none" stroke="#757575" d="M69.02,-525.36C85.68,-511.11 115.99,-487.23 146,-473.98 405.53,-359.36 740.7,-309.82 903.36,-291.39"/>
<polygon fill="#757575" stroke="#757575" points="903.8,-294.86 913.35,-290.27 903.02,-287.9 903.8,-294.86"/>
</g>
<!-- rotary&#45;control.js&#45;&gt;../../fn/modules/maths/clamp.js -->
<g id="edge88" class="edge">
<title>rotary&#45;control.js&#45;&gt;../../fn/modules/maths/clamp.js</title>
<path fill="none" stroke="#757575" d="M60.24,-548.68C72.4,-581.94 108.94,-679.73 146,-757.98 174.6,-818.36 213.75,-886.91 233.32,-920.38"/>
<polygon fill="#757575" stroke="#757575" points="230.43,-922.37 238.51,-929.22 236.47,-918.83 230.43,-922.37"/>
</g>
<!-- rotary&#45;control.js&#45;&gt;../../fn/modules/privates.js -->
<g id="edge90" class="edge">
<title>rotary&#45;control.js&#45;&gt;../../fn/modules/privates.js</title>
<path fill="none" stroke="#757575" d="M60.76,-525.24C71.95,-498.97 102.3,-434.79 146,-396.98 271.74,-288.17 320.22,-241.98 486.5,-241.98 486.5,-241.98 486.5,-241.98 1002.5,-241.98 1173.18,-241.98 1228.1,-197.19 1386,-261.98 1405.8,-270.1 1403.22,-283.71 1422,-293.98 1431.04,-298.92 1441.06,-303.02 1451.12,-306.41"/>
<polygon fill="#757575" stroke="#757575" points="1450.15,-309.77 1460.74,-309.44 1452.26,-303.1 1450.15,-309.77"/>
</g>
<!-- rotary&#45;control.js&#45;&gt;attributes.js -->
<g id="edge91" class="edge">
<title>rotary&#45;control.js&#45;&gt;attributes.js</title>
<path fill="none" stroke="#757575" d="M81,-525.44C98.73,-517.85 123.32,-508.51 146,-503.98 345.87,-464.02 590.27,-469.85 695.37,-474.9"/>
<polygon fill="#757575" stroke="#757575" points="695.24,-478.39 705.4,-475.4 695.59,-471.4 695.24,-478.39"/>
</g>
<!-- rotary&#45;control.js&#45;&gt;control.js -->
<g id="edge92" class="edge">
<title>rotary&#45;control.js&#45;&gt;control.js</title>
<path fill="none" stroke="#757575" d="M110.33,-535.97C241.17,-533.22 583.97,-524.02 869,-498.98 898.02,-496.43 930.49,-492.24 955.9,-488.66"/>
<polygon fill="#757575" stroke="#757575" points="956.57,-492.1 965.98,-487.22 955.58,-485.17 956.57,-492.1"/>
</g>
</g>
</svg>
