<?xml version="1.0" encoding="UTF-8" standalone="no"?>
<!DOCTYPE svg PUBLIC "-//W3C//DTD SVG 1.1//EN"
 "http://www.w3.org/Graphics/SVG/1.1/DTD/svg11.dtd">
<!-- Generated by graphviz version 2.44.1 (20200629.0846)
 -->
<!-- Title: G Pages: 1 -->
<svg width="2315pt" height="1112pt"
 viewBox="0.00 0.00 2315.20 1112.20" xmlns="http://www.w3.org/2000/svg" xmlns:xlink="http://www.w3.org/1999/xlink">
<g id="graph0" class="graph" transform="scale(1 1) rotate(0) translate(21.6 1090.6)">
<title>G</title>
<polygon fill="#111111" stroke="transparent" points="-21.6,21.6 -21.6,-1090.6 2293.6,-1090.6 2293.6,21.6 -21.6,21.6"/>
<!-- ../../dom/modules/assign.js -->
<g id="node1" class="node">
<title>../../dom/modules/assign.js</title>
<path fill="none" stroke="#c6c5fe" d="M1082.83,-918.5C1082.83,-918.5 920.17,-918.5 920.17,-918.5 916.33,-918.5 912.5,-914.67 912.5,-910.83 912.5,-910.83 912.5,-903.17 912.5,-903.17 912.5,-899.33 916.33,-895.5 920.17,-895.5 920.17,-895.5 1082.83,-895.5 1082.83,-895.5 1086.67,-895.5 1090.5,-899.33 1090.5,-903.17 1090.5,-903.17 1090.5,-910.83 1090.5,-910.83 1090.5,-914.67 1086.67,-918.5 1082.83,-918.5"/>
<text text-anchor="middle" x="1001.5" y="-903.3" font-family="Arial" font-size="14.00" fill="#c6c5fe">../../dom/modules/assign.js</text>
</g>
<!-- ../../fn/modules/curry.js -->
<g id="node2" class="node">
<title>../../fn/modules/curry.js</title>
<path fill="none" stroke="#c6c5fe" d="M2068.83,-686.5C2068.83,-686.5 1932.17,-686.5 1932.17,-686.5 1928.33,-686.5 1924.5,-682.67 1924.5,-678.83 1924.5,-678.83 1924.5,-671.17 1924.5,-671.17 1924.5,-667.33 1928.33,-663.5 1932.17,-663.5 1932.17,-663.5 2068.83,-663.5 2068.83,-663.5 2072.67,-663.5 2076.5,-667.33 2076.5,-671.17 2076.5,-671.17 2076.5,-678.83 2076.5,-678.83 2076.5,-682.67 2072.67,-686.5 2068.83,-686.5"/>
<text text-anchor="middle" x="2000.5" y="-671.3" font-family="Arial" font-size="14.00" fill="#c6c5fe">../../fn/modules/curry.js</text>
</g>
<!-- ../../dom/modules/assign.js&#45;&gt;../../fn/modules/curry.js -->
<g id="edge1" class="edge">
<title>../../dom/modules/assign.js&#45;&gt;../../fn/modules/curry.js</title>
<path fill="none" stroke="#757575" d="M1090.55,-910.94C1287.13,-918.19 1754.92,-926.41 1888,-848 1946.81,-813.35 1979.94,-734.07 1992.97,-696.07"/>
<polygon fill="#757575" stroke="#757575" points="1996.31,-697.11 1996.11,-686.52 1989.66,-694.92 1996.31,-697.11"/>
</g>
<!-- ../../fn/modules/id.js -->
<g id="node3" class="node">
<title>../../fn/modules/id.js</title>
<path fill="none" stroke="#cfffac" d="M1319.33,-805.5C1319.33,-805.5 1200.67,-805.5 1200.67,-805.5 1196.83,-805.5 1193,-801.67 1193,-797.83 1193,-797.83 1193,-790.17 1193,-790.17 1193,-786.33 1196.83,-782.5 1200.67,-782.5 1200.67,-782.5 1319.33,-782.5 1319.33,-782.5 1323.17,-782.5 1327,-786.33 1327,-790.17 1327,-790.17 1327,-797.83 1327,-797.83 1327,-801.67 1323.17,-805.5 1319.33,-805.5"/>
<text text-anchor="middle" x="1260" y="-790.3" font-family="Arial" font-size="14.00" fill="#cfffac">../../fn/modules/id.js</text>
</g>
<!-- ../../dom/modules/assign.js&#45;&gt;../../fn/modules/id.js -->
<g id="edge2" class="edge">
<title>../../dom/modules/assign.js&#45;&gt;../../fn/modules/id.js</title>
<path fill="none" stroke="#757575" d="M1070.8,-895.43C1080.52,-891.85 1089.94,-887.15 1098,-881 1123.03,-861.91 1108.4,-838.33 1134,-820 1148.24,-809.81 1165.59,-803.43 1182.78,-799.48"/>
<polygon fill="#757575" stroke="#757575" points="1183.76,-802.85 1192.86,-797.43 1182.36,-796 1183.76,-802.85"/>
</g>
<!-- ../../fn/modules/noop.js -->
<g id="node4" class="node">
<title>../../fn/modules/noop.js</title>
<path fill="none" stroke="#cfffac" d="M2069.33,-371.5C2069.33,-371.5 1931.67,-371.5 1931.67,-371.5 1927.83,-371.5 1924,-367.67 1924,-363.83 1924,-363.83 1924,-356.17 1924,-356.17 1924,-352.33 1927.83,-348.5 1931.67,-348.5 1931.67,-348.5 2069.33,-348.5 2069.33,-348.5 2073.17,-348.5 2077,-352.33 2077,-356.17 2077,-356.17 2077,-363.83 2077,-363.83 2077,-367.67 2073.17,-371.5 2069.33,-371.5"/>
<text text-anchor="middle" x="2000.5" y="-356.3" font-family="Arial" font-size="14.00" fill="#cfffac">../../fn/modules/noop.js</text>
</g>
<!-- ../../dom/modules/assign.js&#45;&gt;../../fn/modules/noop.js -->
<g id="edge3" class="edge">
<title>../../dom/modules/assign.js&#45;&gt;../../fn/modules/noop.js</title>
<path fill="none" stroke="#757575" d="M1090.6,-896.92C1290.62,-872.37 1770.8,-803.48 1888,-696 1982.26,-609.56 1996.95,-441.64 1999.15,-381.82"/>
<polygon fill="#757575" stroke="#757575" points="2002.65,-381.74 1999.44,-371.65 1995.66,-381.55 2002.65,-381.74"/>
</g>
<!-- ../../fn/modules/overload.js -->
<g id="node5" class="node">
<title>../../fn/modules/overload.js</title>
<path fill="none" stroke="#cfffac" d="M1339.83,-764.5C1339.83,-764.5 1180.17,-764.5 1180.17,-764.5 1176.33,-764.5 1172.5,-760.67 1172.5,-756.83 1172.5,-756.83 1172.5,-749.17 1172.5,-749.17 1172.5,-745.33 1176.33,-741.5 1180.17,-741.5 1180.17,-741.5 1339.83,-741.5 1339.83,-741.5 1343.67,-741.5 1347.5,-745.33 1347.5,-749.17 1347.5,-749.17 1347.5,-756.83 1347.5,-756.83 1347.5,-760.67 1343.67,-764.5 1339.83,-764.5"/>
<text text-anchor="middle" x="1260" y="-749.3" font-family="Arial" font-size="14.00" fill="#cfffac">../../fn/modules/overload.js</text>
</g>
<!-- ../../dom/modules/assign.js&#45;&gt;../../fn/modules/overload.js -->
<g id="edge4" class="edge">
<title>../../dom/modules/assign.js&#45;&gt;../../fn/modules/overload.js</title>
<path fill="none" stroke="#757575" d="M1026.54,-895.3C1047.49,-884.16 1077.62,-865.74 1098,-843 1121.08,-817.24 1106.01,-794.33 1134,-774 1142.57,-767.78 1152.33,-763.15 1162.54,-759.74"/>
<polygon fill="#757575" stroke="#757575" points="1163.83,-763.01 1172.44,-756.84 1161.85,-756.3 1163.83,-763.01"/>
</g>
<!-- ../../fn/modules/cache.js -->
<g id="node16" class="node">
<title>../../fn/modules/cache.js</title>
<path fill="none" stroke="#cfffac" d="M2264.33,-686.5C2264.33,-686.5 2120.67,-686.5 2120.67,-686.5 2116.83,-686.5 2113,-682.67 2113,-678.83 2113,-678.83 2113,-671.17 2113,-671.17 2113,-667.33 2116.83,-663.5 2120.67,-663.5 2120.67,-663.5 2264.33,-663.5 2264.33,-663.5 2268.17,-663.5 2272,-667.33 2272,-671.17 2272,-671.17 2272,-678.83 2272,-678.83 2272,-682.67 2268.17,-686.5 2264.33,-686.5"/>
<text text-anchor="middle" x="2192.5" y="-671.3" font-family="Arial" font-size="14.00" fill="#cfffac">../../fn/modules/cache.js</text>
</g>
<!-- ../../fn/modules/curry.js&#45;&gt;../../fn/modules/cache.js -->
<g id="edge36" class="edge">
<title>../../fn/modules/curry.js&#45;&gt;../../fn/modules/cache.js</title>
<path fill="none" stroke="#757575" d="M2076.59,-675C2085.17,-675 2093.97,-675 2102.7,-675"/>
<polygon fill="#757575" stroke="#757575" points="2102.9,-678.5 2112.9,-675 2102.9,-671.5 2102.9,-678.5"/>
</g>
<!-- ../../dom/modules/create.js -->
<g id="node6" class="node">
<title>../../dom/modules/create.js</title>
<path fill="none" stroke="#c6c5fe" d="M828.83,-840.5C828.83,-840.5 668.17,-840.5 668.17,-840.5 664.33,-840.5 660.5,-836.67 660.5,-832.83 660.5,-832.83 660.5,-825.17 660.5,-825.17 660.5,-821.33 664.33,-817.5 668.17,-817.5 668.17,-817.5 828.83,-817.5 828.83,-817.5 832.67,-817.5 836.5,-821.33 836.5,-825.17 836.5,-825.17 836.5,-832.83 836.5,-832.83 836.5,-836.67 832.67,-840.5 828.83,-840.5"/>
<text text-anchor="middle" x="748.5" y="-825.3" font-family="Arial" font-size="14.00" fill="#c6c5fe">../../dom/modules/create.js</text>
</g>
<!-- ../../dom/modules/create.js&#45;&gt;../../dom/modules/assign.js -->
<g id="edge5" class="edge">
<title>../../dom/modules/create.js&#45;&gt;../../dom/modules/assign.js</title>
<path fill="none" stroke="#757575" d="M782.39,-840.6C813.74,-851.52 862.37,-868.08 905,-881 918.37,-885.05 932.87,-889.15 946.44,-892.86"/>
<polygon fill="#757575" stroke="#757575" points="945.56,-896.25 956.13,-895.48 947.4,-889.49 945.56,-896.25"/>
</g>
<!-- ../../dom/modules/create.js&#45;&gt;../../fn/modules/id.js -->
<g id="edge6" class="edge">
<title>../../dom/modules/create.js&#45;&gt;../../fn/modules/id.js</title>
<path fill="none" stroke="#757575" d="M836.58,-838.23C858.86,-840.21 882.8,-842 905,-843 990.69,-846.85 1015.66,-867.06 1098,-843 1116.22,-837.68 1116.42,-827.16 1134,-820 1149.3,-813.77 1166.29,-808.96 1182.68,-805.28"/>
<polygon fill="#757575" stroke="#757575" points="1183.74,-808.63 1192.79,-803.13 1182.28,-801.78 1183.74,-808.63"/>
</g>
<!-- ../../dom/modules/create.js&#45;&gt;../../fn/modules/overload.js -->
<g id="edge7" class="edge">
<title>../../dom/modules/create.js&#45;&gt;../../fn/modules/overload.js</title>
<path fill="none" stroke="#757575" d="M836.61,-831.28C924.35,-832.32 1052.98,-830.1 1098,-810 1118.66,-800.77 1113.89,-784.37 1134,-774 1142.88,-769.43 1152.53,-765.81 1162.41,-762.96"/>
<polygon fill="#757575" stroke="#757575" points="1163.56,-766.28 1172.35,-760.36 1161.79,-759.51 1163.56,-766.28"/>
</g>
<!-- ../../fn/modules/to&#45;type.js -->
<g id="node7" class="node">
<title>../../fn/modules/to&#45;type.js</title>
<path fill="none" stroke="#cfffac" d="M1075.83,-800.5C1075.83,-800.5 927.17,-800.5 927.17,-800.5 923.33,-800.5 919.5,-796.67 919.5,-792.83 919.5,-792.83 919.5,-785.17 919.5,-785.17 919.5,-781.33 923.33,-777.5 927.17,-777.5 927.17,-777.5 1075.83,-777.5 1075.83,-777.5 1079.67,-777.5 1083.5,-781.33 1083.5,-785.17 1083.5,-785.17 1083.5,-792.83 1083.5,-792.83 1083.5,-796.67 1079.67,-800.5 1075.83,-800.5"/>
<text text-anchor="middle" x="1001.5" y="-785.3" font-family="Arial" font-size="14.00" fill="#cfffac">../../fn/modules/to&#45;type.js</text>
</g>
<!-- ../../dom/modules/create.js&#45;&gt;../../fn/modules/to&#45;type.js -->
<g id="edge8" class="edge">
<title>../../dom/modules/create.js&#45;&gt;../../fn/modules/to&#45;type.js</title>
<path fill="none" stroke="#757575" d="M821.76,-817.48C851.95,-812.67 887.18,-807.06 918.35,-802.09"/>
<polygon fill="#757575" stroke="#757575" points="918.99,-805.53 928.31,-800.5 917.89,-798.62 918.99,-805.53"/>
</g>
<!-- ../../dom/modules/element.js -->
<g id="node8" class="node">
<title>../../dom/modules/element.js</title>
<path fill="none" stroke="#c6c5fe" d="M573.83,-840.5C573.83,-840.5 401.17,-840.5 401.17,-840.5 397.33,-840.5 393.5,-836.67 393.5,-832.83 393.5,-832.83 393.5,-825.17 393.5,-825.17 393.5,-821.33 397.33,-817.5 401.17,-817.5 401.17,-817.5 573.83,-817.5 573.83,-817.5 577.67,-817.5 581.5,-821.33 581.5,-825.17 581.5,-825.17 581.5,-832.83 581.5,-832.83 581.5,-836.67 577.67,-840.5 573.83,-840.5"/>
<text text-anchor="middle" x="487.5" y="-825.3" font-family="Arial" font-size="14.00" fill="#c6c5fe">../../dom/modules/element.js</text>
</g>
<!-- ../../dom/modules/element.js&#45;&gt;../../dom/modules/create.js -->
<g id="edge9" class="edge">
<title>../../dom/modules/element.js&#45;&gt;../../dom/modules/create.js</title>
<path fill="none" stroke="#757575" d="M581.64,-829C603.9,-829 627.72,-829 650.16,-829"/>
<polygon fill="#757575" stroke="#757575" points="650.37,-832.5 660.37,-829 650.37,-825.5 650.37,-832.5"/>
</g>
<!-- ../../dom/modules/request&#45;template.js -->
<g id="node9" class="node">
<title>../../dom/modules/request&#45;template.js</title>
<path fill="none" stroke="#c6c5fe" d="M861.33,-979.5C861.33,-979.5 635.67,-979.5 635.67,-979.5 631.83,-979.5 628,-975.67 628,-971.83 628,-971.83 628,-964.17 628,-964.17 628,-960.33 631.83,-956.5 635.67,-956.5 635.67,-956.5 861.33,-956.5 861.33,-956.5 865.17,-956.5 869,-960.33 869,-964.17 869,-964.17 869,-971.83 869,-971.83 869,-975.67 865.17,-979.5 861.33,-979.5"/>
<text text-anchor="middle" x="748.5" y="-964.3" font-family="Arial" font-size="14.00" fill="#c6c5fe">../../dom/modules/request&#45;template.js</text>
</g>
<!-- ../../dom/modules/element.js&#45;&gt;../../dom/modules/request&#45;template.js -->
<g id="edge10" class="edge">
<title>../../dom/modules/element.js&#45;&gt;../../dom/modules/request&#45;template.js</title>
<path fill="none" stroke="#757575" d="M510.14,-840.61C556.13,-865.29 663.73,-923.04 716.8,-951.52"/>
<polygon fill="#757575" stroke="#757575" points="715.28,-954.68 725.74,-956.32 718.59,-948.51 715.28,-954.68"/>
</g>
<!-- ../../dom/modules/request&#45;template.js&#45;&gt;../../fn/modules/cache.js -->
<g id="edge28" class="edge">
<title>../../dom/modules/request&#45;template.js&#45;&gt;../../fn/modules/cache.js</title>
<path fill="none" stroke="#757575" d="M869.27,-973.55C1020.43,-980.07 1288.42,-990 1518,-990 1518,-990 1518,-990 1771,-990 1968.32,-990 2132.42,-765.07 2178.55,-695.35"/>
<polygon fill="#757575" stroke="#757575" points="2181.74,-696.87 2184.27,-686.58 2175.87,-693.05 2181.74,-696.87"/>
</g>
<!-- ../../dom/modules/parse.js -->
<g id="node21" class="node">
<title>../../dom/modules/parse.js</title>
<path fill="none" stroke="#cfffac" d="M1080.33,-1040.5C1080.33,-1040.5 922.67,-1040.5 922.67,-1040.5 918.83,-1040.5 915,-1036.67 915,-1032.83 915,-1032.83 915,-1025.17 915,-1025.17 915,-1021.33 918.83,-1017.5 922.67,-1017.5 922.67,-1017.5 1080.33,-1017.5 1080.33,-1017.5 1084.17,-1017.5 1088,-1021.33 1088,-1025.17 1088,-1025.17 1088,-1032.83 1088,-1032.83 1088,-1036.67 1084.17,-1040.5 1080.33,-1040.5"/>
<text text-anchor="middle" x="1001.5" y="-1025.3" font-family="Arial" font-size="14.00" fill="#cfffac">../../dom/modules/parse.js</text>
</g>
<!-- ../../dom/modules/request&#45;template.js&#45;&gt;../../dom/modules/parse.js -->
<g id="edge26" class="edge">
<title>../../dom/modules/request&#45;template.js&#45;&gt;../../dom/modules/parse.js</title>
<path fill="none" stroke="#757575" d="M797.01,-979.55C838.5,-989.63 898.83,-1004.29 943.03,-1015.03"/>
<polygon fill="#757575" stroke="#757575" points="942.22,-1018.44 952.76,-1017.4 943.87,-1011.64 942.22,-1018.44"/>
</g>
<!-- ../../dom/modules/request.js -->
<g id="node22" class="node">
<title>../../dom/modules/request.js</title>
<path fill="none" stroke="#c6c5fe" d="M1085.83,-959.5C1085.83,-959.5 917.17,-959.5 917.17,-959.5 913.33,-959.5 909.5,-955.67 909.5,-951.83 909.5,-951.83 909.5,-944.17 909.5,-944.17 909.5,-940.33 913.33,-936.5 917.17,-936.5 917.17,-936.5 1085.83,-936.5 1085.83,-936.5 1089.67,-936.5 1093.5,-940.33 1093.5,-944.17 1093.5,-944.17 1093.5,-951.83 1093.5,-951.83 1093.5,-955.67 1089.67,-959.5 1085.83,-959.5"/>
<text text-anchor="middle" x="1001.5" y="-944.3" font-family="Arial" font-size="14.00" fill="#c6c5fe">../../dom/modules/request.js</text>
</g>
<!-- ../../dom/modules/request&#45;template.js&#45;&gt;../../dom/modules/request.js -->
<g id="edge27" class="edge">
<title>../../dom/modules/request&#45;template.js&#45;&gt;../../dom/modules/request.js</title>
<path fill="none" stroke="#757575" d="M869.12,-958.47C879.15,-957.67 889.22,-956.87 899.09,-956.08"/>
<polygon fill="#757575" stroke="#757575" points="899.6,-959.55 909.3,-955.27 899.05,-952.57 899.6,-959.55"/>
</g>
<!-- ../../dom/modules/event.js -->
<g id="node10" class="node">
<title>../../dom/modules/event.js</title>
<path fill="none" stroke="#cfffac" d="M1079.83,-128.5C1079.83,-128.5 923.17,-128.5 923.17,-128.5 919.33,-128.5 915.5,-124.67 915.5,-120.83 915.5,-120.83 915.5,-113.17 915.5,-113.17 915.5,-109.33 919.33,-105.5 923.17,-105.5 923.17,-105.5 1079.83,-105.5 1079.83,-105.5 1083.67,-105.5 1087.5,-109.33 1087.5,-113.17 1087.5,-113.17 1087.5,-120.83 1087.5,-120.83 1087.5,-124.67 1083.67,-128.5 1079.83,-128.5"/>
<text text-anchor="middle" x="1001.5" y="-113.3" font-family="Arial" font-size="14.00" fill="#cfffac">../../dom/modules/event.js</text>
</g>
<!-- ../../dom/modules/events.js -->
<g id="node11" class="node">
<title>../../dom/modules/events.js</title>
<path fill="none" stroke="#c6c5fe" d="M830.33,-225.5C830.33,-225.5 666.67,-225.5 666.67,-225.5 662.83,-225.5 659,-221.67 659,-217.83 659,-217.83 659,-210.17 659,-210.17 659,-206.33 662.83,-202.5 666.67,-202.5 666.67,-202.5 830.33,-202.5 830.33,-202.5 834.17,-202.5 838,-206.33 838,-210.17 838,-210.17 838,-217.83 838,-217.83 838,-221.67 834.17,-225.5 830.33,-225.5"/>
<text text-anchor="middle" x="748.5" y="-210.3" font-family="Arial" font-size="14.00" fill="#c6c5fe">../../dom/modules/events.js</text>
</g>
<!-- ../../dom/modules/events.js&#45;&gt;../../dom/modules/event.js -->
<g id="edge11" class="edge">
<title>../../dom/modules/events.js&#45;&gt;../../dom/modules/event.js</title>
<path fill="none" stroke="#757575" d="M787.81,-202.43C812,-194.3 843.39,-182.17 869,-167 886.92,-156.39 886.25,-146.07 905,-137 909.01,-135.06 913.21,-133.31 917.51,-131.72"/>
<polygon fill="#757575" stroke="#757575" points="918.68,-135.02 927.05,-128.52 916.46,-128.38 918.68,-135.02"/>
</g>
<!-- ../../dom/modules/features.js -->
<g id="node12" class="node">
<title>../../dom/modules/features.js</title>
<path fill="none" stroke="#c6c5fe" d="M1087.83,-169.5C1087.83,-169.5 915.17,-169.5 915.17,-169.5 911.33,-169.5 907.5,-165.67 907.5,-161.83 907.5,-161.83 907.5,-154.17 907.5,-154.17 907.5,-150.33 911.33,-146.5 915.17,-146.5 915.17,-146.5 1087.83,-146.5 1087.83,-146.5 1091.67,-146.5 1095.5,-150.33 1095.5,-154.17 1095.5,-154.17 1095.5,-161.83 1095.5,-161.83 1095.5,-165.67 1091.67,-169.5 1087.83,-169.5"/>
<text text-anchor="middle" x="1001.5" y="-154.3" font-family="Arial" font-size="14.00" fill="#c6c5fe">../../dom/modules/features.js</text>
</g>
<!-- ../../dom/modules/events.js&#45;&gt;../../dom/modules/features.js -->
<g id="edge12" class="edge">
<title>../../dom/modules/events.js&#45;&gt;../../dom/modules/features.js</title>
<path fill="none" stroke="#757575" d="M798.12,-202.47C828.75,-195.27 869.14,-185.9 905,-178 914.55,-175.89 924.66,-173.72 934.57,-171.62"/>
<polygon fill="#757575" stroke="#757575" points="935.34,-175.03 944.4,-169.54 933.9,-168.18 935.34,-175.03"/>
</g>
<!-- ../../fn/modules/stream.js -->
<g id="node13" class="node">
<title>../../fn/modules/stream.js</title>
<path fill="none" stroke="#c6c5fe" d="M1334.83,-290.5C1334.83,-290.5 1185.17,-290.5 1185.17,-290.5 1181.33,-290.5 1177.5,-286.67 1177.5,-282.83 1177.5,-282.83 1177.5,-275.17 1177.5,-275.17 1177.5,-271.33 1181.33,-267.5 1185.17,-267.5 1185.17,-267.5 1334.83,-267.5 1334.83,-267.5 1338.67,-267.5 1342.5,-271.33 1342.5,-275.17 1342.5,-275.17 1342.5,-282.83 1342.5,-282.83 1342.5,-286.67 1338.67,-290.5 1334.83,-290.5"/>
<text text-anchor="middle" x="1260" y="-275.3" font-family="Arial" font-size="14.00" fill="#c6c5fe">../../fn/modules/stream.js</text>
</g>
<!-- ../../dom/modules/events.js&#45;&gt;../../fn/modules/stream.js -->
<g id="edge13" class="edge">
<title>../../dom/modules/events.js&#45;&gt;../../fn/modules/stream.js</title>
<path fill="none" stroke="#757575" d="M838.25,-225.32C930.4,-237.08 1073.89,-255.38 1167.17,-267.28"/>
<polygon fill="#757575" stroke="#757575" points="1166.8,-270.77 1177.16,-268.56 1167.68,-263.82 1166.8,-270.77"/>
</g>
<!-- ../../fn/modules/stream.wait.js -->
<g id="node14" class="node">
<title>../../fn/modules/stream.wait.js</title>
<path fill="none" stroke="#c6c5fe" d="M1090.33,-210.5C1090.33,-210.5 912.67,-210.5 912.67,-210.5 908.83,-210.5 905,-206.67 905,-202.83 905,-202.83 905,-195.17 905,-195.17 905,-191.33 908.83,-187.5 912.67,-187.5 912.67,-187.5 1090.33,-187.5 1090.33,-187.5 1094.17,-187.5 1098,-191.33 1098,-195.17 1098,-195.17 1098,-202.83 1098,-202.83 1098,-206.67 1094.17,-210.5 1090.33,-210.5"/>
<text text-anchor="middle" x="1001.5" y="-195.3" font-family="Arial" font-size="14.00" fill="#c6c5fe">../../fn/modules/stream.wait.js</text>
</g>
<!-- ../../dom/modules/events.js&#45;&gt;../../fn/modules/stream.wait.js -->
<g id="edge14" class="edge">
<title>../../dom/modules/events.js&#45;&gt;../../fn/modules/stream.wait.js</title>
<path fill="none" stroke="#757575" d="M838.35,-208.69C856.64,-207.6 876.06,-206.44 894.88,-205.31"/>
<polygon fill="#757575" stroke="#757575" points="895.18,-208.8 904.96,-204.71 894.77,-201.81 895.18,-208.8"/>
</g>
<!-- ../../dom/modules/prefix.js -->
<g id="node15" class="node">
<title>../../dom/modules/prefix.js</title>
<path fill="none" stroke="#cfffac" d="M1338.33,-169.5C1338.33,-169.5 1181.67,-169.5 1181.67,-169.5 1177.83,-169.5 1174,-165.67 1174,-161.83 1174,-161.83 1174,-154.17 1174,-154.17 1174,-150.33 1177.83,-146.5 1181.67,-146.5 1181.67,-146.5 1338.33,-146.5 1338.33,-146.5 1342.17,-146.5 1346,-150.33 1346,-154.17 1346,-154.17 1346,-161.83 1346,-161.83 1346,-165.67 1342.17,-169.5 1338.33,-169.5"/>
<text text-anchor="middle" x="1260" y="-154.3" font-family="Arial" font-size="14.00" fill="#cfffac">../../dom/modules/prefix.js</text>
</g>
<!-- ../../dom/modules/features.js&#45;&gt;../../dom/modules/prefix.js -->
<g id="edge15" class="edge">
<title>../../dom/modules/features.js&#45;&gt;../../dom/modules/prefix.js</title>
<path fill="none" stroke="#757575" d="M1095.83,-158C1117.94,-158 1141.55,-158 1163.74,-158"/>
<polygon fill="#757575" stroke="#757575" points="1163.83,-161.5 1173.83,-158 1163.83,-154.5 1163.83,-161.5"/>
</g>
<!-- ../../dom/modules/features.js&#45;&gt;../../fn/modules/cache.js -->
<g id="edge16" class="edge">
<title>../../dom/modules/features.js&#45;&gt;../../fn/modules/cache.js</title>
<path fill="none" stroke="#757575" d="M1056.09,-146.47C1069.77,-143.45 1084.44,-140.16 1098,-137 1284.76,-93.42 1326.22,-38 1518,-38 1518,-38 1518,-38 1771,-38 2072.71,-38 2170.36,-541.86 2188.28,-653.34"/>
<polygon fill="#757575" stroke="#757575" points="2184.85,-654.06 2189.85,-663.4 2191.76,-652.98 2184.85,-654.06"/>
</g>
<!-- ../../fn/modules/stream.js&#45;&gt;../../fn/modules/noop.js -->
<g id="edge56" class="edge">
<title>../../fn/modules/stream.js&#45;&gt;../../fn/modules/noop.js</title>
<path fill="none" stroke="#757575" d="M1342.71,-273.12C1358.22,-269.06 1373.49,-262.74 1386,-253 1414.86,-230.53 1391.12,-198.6 1422,-179 1465.72,-151.25 1842.89,-150.59 1888,-176 1950.74,-211.34 1982.21,-297.79 1993.94,-338.34"/>
<polygon fill="#757575" stroke="#757575" points="1990.58,-339.33 1996.61,-348.04 1997.33,-337.47 1990.58,-339.33"/>
</g>
<!-- ../../fn/modules/nothing.js -->
<g id="node24" class="node">
<title>../../fn/modules/nothing.js</title>
<path fill="none" stroke="#c6c5fe" d="M1845.83,-493.5C1845.83,-493.5 1694.17,-493.5 1694.17,-493.5 1690.33,-493.5 1686.5,-489.67 1686.5,-485.83 1686.5,-485.83 1686.5,-478.17 1686.5,-478.17 1686.5,-474.33 1690.33,-470.5 1694.17,-470.5 1694.17,-470.5 1845.83,-470.5 1845.83,-470.5 1849.67,-470.5 1853.5,-474.33 1853.5,-478.17 1853.5,-478.17 1853.5,-485.83 1853.5,-485.83 1853.5,-489.67 1849.67,-493.5 1845.83,-493.5"/>
<text text-anchor="middle" x="1770" y="-478.3" font-family="Arial" font-size="14.00" fill="#c6c5fe">../../fn/modules/nothing.js</text>
</g>
<!-- ../../fn/modules/stream.js&#45;&gt;../../fn/modules/nothing.js -->
<g id="edge57" class="edge">
<title>../../fn/modules/stream.js&#45;&gt;../../fn/modules/nothing.js</title>
<path fill="none" stroke="#757575" d="M1277.26,-290.71C1305.6,-310.74 1366.33,-352.03 1422,-379 1519.81,-426.37 1546.92,-434.29 1652,-462 1661.02,-464.38 1670.51,-466.54 1680.02,-468.49"/>
<polygon fill="#757575" stroke="#757575" points="1679.43,-471.94 1689.92,-470.44 1680.79,-465.07 1679.43,-471.94"/>
</g>
<!-- ../../fn/modules/fn.js -->
<g id="node34" class="node">
<title>../../fn/modules/fn.js</title>
<path fill="none" stroke="#c6c5fe" d="M1578.33,-289.5C1578.33,-289.5 1459.67,-289.5 1459.67,-289.5 1455.83,-289.5 1452,-285.67 1452,-281.83 1452,-281.83 1452,-274.17 1452,-274.17 1452,-270.33 1455.83,-266.5 1459.67,-266.5 1459.67,-266.5 1578.33,-266.5 1578.33,-266.5 1582.17,-266.5 1586,-270.33 1586,-274.17 1586,-274.17 1586,-281.83 1586,-281.83 1586,-285.67 1582.17,-289.5 1578.33,-289.5"/>
<text text-anchor="middle" x="1519" y="-274.3" font-family="Arial" font-size="14.00" fill="#c6c5fe">../../fn/modules/fn.js</text>
</g>
<!-- ../../fn/modules/stream.js&#45;&gt;../../fn/modules/fn.js -->
<g id="edge54" class="edge">
<title>../../fn/modules/stream.js&#45;&gt;../../fn/modules/fn.js</title>
<path fill="none" stroke="#757575" d="M1342.67,-278.68C1374.36,-278.56 1410.46,-278.42 1441.63,-278.3"/>
<polygon fill="#757575" stroke="#757575" points="1442.01,-281.8 1451.99,-278.26 1441.98,-274.8 1442.01,-281.8"/>
</g>
<!-- ../../fn/modules/to&#45;array.js -->
<g id="node37" class="node">
<title>../../fn/modules/to&#45;array.js</title>
<path fill="none" stroke="#cfffac" d="M1846.83,-208.5C1846.83,-208.5 1693.17,-208.5 1693.17,-208.5 1689.33,-208.5 1685.5,-204.67 1685.5,-200.83 1685.5,-200.83 1685.5,-193.17 1685.5,-193.17 1685.5,-189.33 1689.33,-185.5 1693.17,-185.5 1693.17,-185.5 1846.83,-185.5 1846.83,-185.5 1850.67,-185.5 1854.5,-189.33 1854.5,-193.17 1854.5,-193.17 1854.5,-200.83 1854.5,-200.83 1854.5,-204.67 1850.67,-208.5 1846.83,-208.5"/>
<text text-anchor="middle" x="1770" y="-193.3" font-family="Arial" font-size="14.00" fill="#cfffac">../../fn/modules/to&#45;array.js</text>
</g>
<!-- ../../fn/modules/stream.js&#45;&gt;../../fn/modules/to&#45;array.js -->
<g id="edge61" class="edge">
<title>../../fn/modules/stream.js&#45;&gt;../../fn/modules/to&#45;array.js</title>
<path fill="none" stroke="#757575" d="M1342.77,-269.12C1357.7,-265.36 1372.74,-260.16 1386,-253 1405.91,-242.25 1401.35,-226.26 1422,-217 1501.93,-181.16 1602.8,-179.54 1675.15,-184.85"/>
<polygon fill="#757575" stroke="#757575" points="1674.92,-188.34 1685.16,-185.64 1675.47,-181.36 1674.92,-188.34"/>
</g>
<!-- ../../fn/modules/lists/core.js -->
<g id="node39" class="node">
<title>../../fn/modules/lists/core.js</title>
<path fill="none" stroke="#c6c5fe" d="M1599.33,-248.5C1599.33,-248.5 1438.67,-248.5 1438.67,-248.5 1434.83,-248.5 1431,-244.67 1431,-240.83 1431,-240.83 1431,-233.17 1431,-233.17 1431,-229.33 1434.83,-225.5 1438.67,-225.5 1438.67,-225.5 1599.33,-225.5 1599.33,-225.5 1603.17,-225.5 1607,-229.33 1607,-233.17 1607,-233.17 1607,-240.83 1607,-240.83 1607,-244.67 1603.17,-248.5 1599.33,-248.5"/>
<text text-anchor="middle" x="1519" y="-233.3" font-family="Arial" font-size="14.00" fill="#c6c5fe">../../fn/modules/lists/core.js</text>
</g>
<!-- ../../fn/modules/stream.js&#45;&gt;../../fn/modules/lists/core.js -->
<g id="edge55" class="edge">
<title>../../fn/modules/stream.js&#45;&gt;../../fn/modules/lists/core.js</title>
<path fill="none" stroke="#757575" d="M1331.57,-267.47C1364.43,-262.1 1403.69,-255.68 1437.69,-250.12"/>
<polygon fill="#757575" stroke="#757575" points="1438.29,-253.57 1447.59,-248.51 1437.16,-246.67 1438.29,-253.57"/>
</g>
<!-- ../../fn/modules/now.js -->
<g id="node43" class="node">
<title>../../fn/modules/now.js</title>
<path fill="none" stroke="#cfffac" d="M1835.83,-411.5C1835.83,-411.5 1704.17,-411.5 1704.17,-411.5 1700.33,-411.5 1696.5,-407.67 1696.5,-403.83 1696.5,-403.83 1696.5,-396.17 1696.5,-396.17 1696.5,-392.33 1700.33,-388.5 1704.17,-388.5 1704.17,-388.5 1835.83,-388.5 1835.83,-388.5 1839.67,-388.5 1843.5,-392.33 1843.5,-396.17 1843.5,-396.17 1843.5,-403.83 1843.5,-403.83 1843.5,-407.67 1839.67,-411.5 1835.83,-411.5"/>
<text text-anchor="middle" x="1770" y="-396.3" font-family="Arial" font-size="14.00" fill="#cfffac">../../fn/modules/now.js</text>
</g>
<!-- ../../fn/modules/stream.js&#45;&gt;../../fn/modules/now.js -->
<g id="edge58" class="edge">
<title>../../fn/modules/stream.js&#45;&gt;../../fn/modules/now.js</title>
<path fill="none" stroke="#757575" d="M1342.6,-289.57C1439.95,-302.64 1592.56,-324.79 1616,-338 1637.42,-350.08 1630.61,-367.88 1652,-380 1662.5,-385.95 1674.33,-390.23 1686.32,-393.29"/>
<polygon fill="#757575" stroke="#757575" points="1685.88,-396.78 1696.41,-395.57 1687.43,-389.95 1685.88,-396.78"/>
</g>
<!-- ../../fn/modules/privates.js -->
<g id="node44" class="node">
<title>../../fn/modules/privates.js</title>
<path fill="none" stroke="#cfffac" d="M1596.33,-130.5C1596.33,-130.5 1441.67,-130.5 1441.67,-130.5 1437.83,-130.5 1434,-126.67 1434,-122.83 1434,-122.83 1434,-115.17 1434,-115.17 1434,-111.33 1437.83,-107.5 1441.67,-107.5 1441.67,-107.5 1596.33,-107.5 1596.33,-107.5 1600.17,-107.5 1604,-111.33 1604,-115.17 1604,-115.17 1604,-122.83 1604,-122.83 1604,-126.67 1600.17,-130.5 1596.33,-130.5"/>
<text text-anchor="middle" x="1519" y="-115.3" font-family="Arial" font-size="14.00" fill="#cfffac">../../fn/modules/privates.js</text>
</g>
<!-- ../../fn/modules/stream.js&#45;&gt;../../fn/modules/privates.js -->
<g id="edge59" class="edge">
<title>../../fn/modules/stream.js&#45;&gt;../../fn/modules/privates.js</title>
<path fill="none" stroke="#757575" d="M1342.77,-274.62C1358.55,-270.49 1373.91,-263.76 1386,-253 1423.8,-219.37 1385.21,-179.74 1422,-145 1426,-141.22 1430.5,-137.98 1435.3,-135.2"/>
<polygon fill="#757575" stroke="#757575" points="1436.88,-138.32 1444.23,-130.68 1433.73,-132.07 1436.88,-138.32"/>
</g>
<!-- ../../fn/modules/timer.js -->
<g id="node46" class="node">
<title>../../fn/modules/timer.js</title>
<path fill="none" stroke="#c6c5fe" d="M1587.83,-369.5C1587.83,-369.5 1450.17,-369.5 1450.17,-369.5 1446.33,-369.5 1442.5,-365.67 1442.5,-361.83 1442.5,-361.83 1442.5,-354.17 1442.5,-354.17 1442.5,-350.33 1446.33,-346.5 1450.17,-346.5 1450.17,-346.5 1587.83,-346.5 1587.83,-346.5 1591.67,-346.5 1595.5,-350.33 1595.5,-354.17 1595.5,-354.17 1595.5,-361.83 1595.5,-361.83 1595.5,-365.67 1591.67,-369.5 1587.83,-369.5"/>
<text text-anchor="middle" x="1519" y="-354.3" font-family="Arial" font-size="14.00" fill="#c6c5fe">../../fn/modules/timer.js</text>
</g>
<!-- ../../fn/modules/stream.js&#45;&gt;../../fn/modules/timer.js -->
<g id="edge60" class="edge">
<title>../../fn/modules/stream.js&#45;&gt;../../fn/modules/timer.js</title>
<path fill="none" stroke="#757575" d="M1294.45,-290.59C1326.9,-301.7 1377.6,-318.69 1422,-332 1435.44,-336.03 1450.03,-340.12 1463.67,-343.83"/>
<polygon fill="#757575" stroke="#757575" points="1462.84,-347.23 1473.41,-346.46 1464.67,-340.47 1462.84,-347.23"/>
</g>
<!-- ../../fn/modules/stream.wait.js&#45;&gt;../../fn/modules/stream.js -->
<g id="edge63" class="edge">
<title>../../fn/modules/stream.wait.js&#45;&gt;../../fn/modules/stream.js</title>
<path fill="none" stroke="#757575" d="M1039.52,-210.55C1085.08,-224.76 1162.48,-248.9 1212.14,-264.38"/>
<polygon fill="#757575" stroke="#757575" points="1211.4,-267.82 1221.99,-267.46 1213.48,-261.14 1211.4,-267.82"/>
</g>
<!-- ../../fn/modules/choke.js -->
<g id="node27" class="node">
<title>../../fn/modules/choke.js</title>
<path fill="none" stroke="#c6c5fe" d="M1590.83,-89.5C1590.83,-89.5 1447.17,-89.5 1447.17,-89.5 1443.33,-89.5 1439.5,-85.67 1439.5,-81.83 1439.5,-81.83 1439.5,-74.17 1439.5,-74.17 1439.5,-70.33 1443.33,-66.5 1447.17,-66.5 1447.17,-66.5 1590.83,-66.5 1590.83,-66.5 1594.67,-66.5 1598.5,-70.33 1598.5,-74.17 1598.5,-74.17 1598.5,-81.83 1598.5,-81.83 1598.5,-85.67 1594.67,-89.5 1590.83,-89.5"/>
<text text-anchor="middle" x="1519" y="-74.3" font-family="Arial" font-size="14.00" fill="#c6c5fe">../../fn/modules/choke.js</text>
</g>
<!-- ../../fn/modules/stream.wait.js&#45;&gt;../../fn/modules/choke.js -->
<g id="edge62" class="edge">
<title>../../fn/modules/stream.wait.js&#45;&gt;../../fn/modules/choke.js</title>
<path fill="none" stroke="#757575" d="M1098.02,-204.8C1196.21,-208.85 1340.91,-208.93 1386,-178 1418.15,-155.94 1391.6,-122.42 1422,-98 1424.59,-95.92 1427.34,-94.04 1430.21,-92.35"/>
<polygon fill="#757575" stroke="#757575" points="1431.84,-95.45 1439.16,-87.79 1428.66,-89.21 1431.84,-95.45"/>
</g>
<!-- ../../dom/modules/gestures.js -->
<g id="node17" class="node">
<title>../../dom/modules/gestures.js</title>
<path fill="none" stroke="#c6c5fe" d="M334.33,-369.5C334.33,-369.5 158.67,-369.5 158.67,-369.5 154.83,-369.5 151,-365.67 151,-361.83 151,-361.83 151,-354.17 151,-354.17 151,-350.33 154.83,-346.5 158.67,-346.5 158.67,-346.5 334.33,-346.5 334.33,-346.5 338.17,-346.5 342,-350.33 342,-354.17 342,-354.17 342,-361.83 342,-361.83 342,-365.67 338.17,-369.5 334.33,-369.5"/>
<text text-anchor="middle" x="246.5" y="-354.3" font-family="Arial" font-size="14.00" fill="#c6c5fe">../../dom/modules/gestures.js</text>
</g>
<!-- ../../dom/modules/gestures.js&#45;&gt;../../dom/modules/events.js -->
<g id="edge17" class="edge">
<title>../../dom/modules/gestures.js&#45;&gt;../../dom/modules/events.js</title>
<path fill="none" stroke="#757575" d="M273.34,-346.47C300.32,-334.72 344.06,-316.5 383,-304 485.25,-271.17 606.85,-243.32 680.56,-227.64"/>
<polygon fill="#757575" stroke="#757575" points="681.57,-231 690.63,-225.51 680.12,-224.15 681.57,-231"/>
</g>
<!-- ../../dom/modules/gestures.js&#45;&gt;../../fn/modules/stream.js -->
<g id="edge19" class="edge">
<title>../../dom/modules/gestures.js&#45;&gt;../../fn/modules/stream.js</title>
<path fill="none" stroke="#757575" d="M342.2,-350.6C536.04,-335.46 975.84,-301.12 1167.19,-286.17"/>
<polygon fill="#757575" stroke="#757575" points="1167.53,-289.65 1177.22,-285.39 1166.98,-282.68 1167.53,-289.65"/>
</g>
<!-- ../../dom/modules/parse&#45;value.js -->
<g id="node18" class="node">
<title>../../dom/modules/parse&#45;value.js</title>
<path fill="none" stroke="#c6c5fe" d="M584.33,-634.5C584.33,-634.5 390.67,-634.5 390.67,-634.5 386.83,-634.5 383,-630.67 383,-626.83 383,-626.83 383,-619.17 383,-619.17 383,-615.33 386.83,-611.5 390.67,-611.5 390.67,-611.5 584.33,-611.5 584.33,-611.5 588.17,-611.5 592,-615.33 592,-619.17 592,-619.17 592,-626.83 592,-626.83 592,-630.67 588.17,-634.5 584.33,-634.5"/>
<text text-anchor="middle" x="487.5" y="-619.3" font-family="Arial" font-size="14.00" fill="#c6c5fe">../../dom/modules/parse&#45;value.js</text>
</g>
<!-- ../../dom/modules/gestures.js&#45;&gt;../../dom/modules/parse&#45;value.js -->
<g id="edge18" class="edge">
<title>../../dom/modules/gestures.js&#45;&gt;../../dom/modules/parse&#45;value.js</title>
<path fill="none" stroke="#757575" d="M258.08,-369.73C295.64,-411.37 422.82,-552.39 469.3,-603.93"/>
<polygon fill="#757575" stroke="#757575" points="466.75,-606.32 476.04,-611.41 471.95,-601.64 466.75,-606.32"/>
</g>
<!-- ../../dom/modules/parse&#45;value.js&#45;&gt;../../fn/modules/id.js -->
<g id="edge22" class="edge">
<title>../../dom/modules/parse&#45;value.js&#45;&gt;../../fn/modules/id.js</title>
<path fill="none" stroke="#757575" d="M517.52,-634.52C545.48,-645.31 589.14,-661.31 628,-672 738.6,-702.41 1021.12,-753.6 1134,-774 1149.76,-776.85 1166.68,-779.7 1182.82,-782.31"/>
<polygon fill="#757575" stroke="#757575" points="1182.32,-785.78 1192.75,-783.91 1183.43,-778.87 1182.32,-785.78"/>
</g>
<!-- ../../dom/modules/parse&#45;value.js&#45;&gt;../../fn/modules/overload.js -->
<g id="edge23" class="edge">
<title>../../dom/modules/parse&#45;value.js&#45;&gt;../../fn/modules/overload.js</title>
<path fill="none" stroke="#757575" d="M533.46,-634.52C560.66,-641.11 596.13,-649.02 628,-654 835.25,-686.37 904.23,-616.67 1098,-697 1117.24,-704.98 1115.25,-717.94 1134,-727 1143.78,-731.72 1154.4,-735.59 1165.17,-738.76"/>
<polygon fill="#757575" stroke="#757575" points="1164.52,-742.21 1175.09,-741.47 1166.37,-735.46 1164.52,-742.21"/>
</g>
<!-- ../../dom/modules/parse&#45;value.js&#45;&gt;../../fn/modules/to&#45;type.js -->
<g id="edge25" class="edge">
<title>../../dom/modules/parse&#45;value.js&#45;&gt;../../fn/modules/to&#45;type.js</title>
<path fill="none" stroke="#757575" d="M500.35,-634.72C523.01,-656.39 574.96,-702.53 628,-725 718.93,-763.52 831.68,-778.87 909.17,-784.98"/>
<polygon fill="#757575" stroke="#757575" points="909.16,-788.49 919.39,-785.75 909.68,-781.51 909.16,-788.49"/>
</g>
<!-- ../../dom/modules/parse&#45;value.js&#45;&gt;../../dom/modules/events.js -->
<g id="edge20" class="edge">
<title>../../dom/modules/parse&#45;value.js&#45;&gt;../../dom/modules/events.js</title>
<path fill="none" stroke="#757575" d="M495.97,-611.2C532.01,-554.29 688.02,-307.93 734.43,-234.64"/>
<polygon fill="#757575" stroke="#757575" points="737.6,-236.17 740,-225.85 731.69,-232.42 737.6,-236.17"/>
</g>
<!-- ../../dom/modules/style.js -->
<g id="node19" class="node">
<title>../../dom/modules/style.js</title>
<path fill="none" stroke="#cfffac" d="M824.33,-603.5C824.33,-603.5 672.67,-603.5 672.67,-603.5 668.83,-603.5 665,-599.67 665,-595.83 665,-595.83 665,-588.17 665,-588.17 665,-584.33 668.83,-580.5 672.67,-580.5 672.67,-580.5 824.33,-580.5 824.33,-580.5 828.17,-580.5 832,-584.33 832,-588.17 832,-588.17 832,-595.83 832,-595.83 832,-599.67 828.17,-603.5 824.33,-603.5"/>
<text text-anchor="middle" x="748.5" y="-588.3" font-family="Arial" font-size="14.00" fill="#cfffac">../../dom/modules/style.js</text>
</g>
<!-- ../../dom/modules/parse&#45;value.js&#45;&gt;../../dom/modules/style.js -->
<g id="edge21" class="edge">
<title>../../dom/modules/parse&#45;value.js&#45;&gt;../../dom/modules/style.js</title>
<path fill="none" stroke="#757575" d="M584.94,-611.46C607.74,-608.73 632.01,-605.82 654.65,-603.11"/>
<polygon fill="#757575" stroke="#757575" points="655.07,-606.59 664.58,-601.92 654.24,-599.64 655.07,-606.59"/>
</g>
<!-- ../../fn/modules/parse&#45;value.js -->
<g id="node20" class="node">
<title>../../fn/modules/parse&#45;value.js</title>
<path fill="none" stroke="#c6c5fe" d="M837.83,-644.5C837.83,-644.5 659.17,-644.5 659.17,-644.5 655.33,-644.5 651.5,-640.67 651.5,-636.83 651.5,-636.83 651.5,-629.17 651.5,-629.17 651.5,-625.33 655.33,-621.5 659.17,-621.5 659.17,-621.5 837.83,-621.5 837.83,-621.5 841.67,-621.5 845.5,-625.33 845.5,-629.17 845.5,-629.17 845.5,-636.83 845.5,-636.83 845.5,-640.67 841.67,-644.5 837.83,-644.5"/>
<text text-anchor="middle" x="748.5" y="-629.3" font-family="Arial" font-size="14.00" fill="#c6c5fe">../../fn/modules/parse&#45;value.js</text>
</g>
<!-- ../../dom/modules/parse&#45;value.js&#45;&gt;../../fn/modules/parse&#45;value.js -->
<g id="edge24" class="edge">
<title>../../dom/modules/parse&#45;value.js&#45;&gt;../../fn/modules/parse&#45;value.js</title>
<path fill="none" stroke="#757575" d="M592.35,-627.01C608.28,-627.62 624.76,-628.26 640.75,-628.88"/>
<polygon fill="#757575" stroke="#757575" points="641.05,-632.39 651.18,-629.28 641.32,-625.4 641.05,-632.39"/>
</g>
<!-- ../../fn/modules/parse&#45;value.js&#45;&gt;../../fn/modules/curry.js -->
<g id="edge53" class="edge">
<title>../../fn/modules/parse&#45;value.js&#45;&gt;../../fn/modules/curry.js</title>
<path fill="none" stroke="#757575" d="M818.32,-621.48C891.64,-612.57 1009.15,-608.17 1098,-652 1120.05,-662.88 1111.83,-683.38 1134,-694 1230.62,-740.28 1508.88,-704.38 1616,-703 1736.92,-701.44 1767.75,-708.79 1888,-696 1904.3,-694.27 1921.79,-691.44 1937.97,-688.42"/>
<polygon fill="#757575" stroke="#757575" points="1938.69,-691.84 1947.85,-686.51 1937.37,-684.97 1938.69,-691.84"/>
</g>
<!-- ../../dom/modules/request.js&#45;&gt;../../fn/modules/id.js -->
<g id="edge30" class="edge">
<title>../../dom/modules/request.js&#45;&gt;../../fn/modules/id.js</title>
<path fill="none" stroke="#757575" d="M1083.99,-936.41C1088.96,-934.06 1093.69,-931.29 1098,-928 1125.83,-906.8 1109.24,-882.72 1134,-858 1156.19,-835.85 1187.62,-819.81 1213.41,-809.32"/>
<polygon fill="#757575" stroke="#757575" points="1214.95,-812.48 1222.99,-805.58 1212.4,-805.96 1214.95,-812.48"/>
</g>
<!-- ../../fn/modules/choose.js -->
<g id="node23" class="node">
<title>../../fn/modules/choose.js</title>
<path fill="none" stroke="#c6c5fe" d="M1335.83,-961.5C1335.83,-961.5 1184.17,-961.5 1184.17,-961.5 1180.33,-961.5 1176.5,-957.67 1176.5,-953.83 1176.5,-953.83 1176.5,-946.17 1176.5,-946.17 1176.5,-942.33 1180.33,-938.5 1184.17,-938.5 1184.17,-938.5 1335.83,-938.5 1335.83,-938.5 1339.67,-938.5 1343.5,-942.33 1343.5,-946.17 1343.5,-946.17 1343.5,-953.83 1343.5,-953.83 1343.5,-957.67 1339.67,-961.5 1335.83,-961.5"/>
<text text-anchor="middle" x="1260" y="-946.3" font-family="Arial" font-size="14.00" fill="#c6c5fe">../../fn/modules/choose.js</text>
</g>
<!-- ../../dom/modules/request.js&#45;&gt;../../fn/modules/choose.js -->
<g id="edge29" class="edge">
<title>../../dom/modules/request.js&#45;&gt;../../fn/modules/choose.js</title>
<path fill="none" stroke="#757575" d="M1093.65,-948.71C1117.22,-948.89 1142.6,-949.09 1166.25,-949.28"/>
<polygon fill="#757575" stroke="#757575" points="1166.23,-952.78 1176.26,-949.35 1166.29,-945.78 1166.23,-952.78"/>
</g>
<!-- ../../dom/modules/request.js&#45;&gt;../../fn/modules/nothing.js -->
<g id="edge31" class="edge">
<title>../../dom/modules/request.js&#45;&gt;../../fn/modules/nothing.js</title>
<path fill="none" stroke="#757575" d="M1065.04,-936.47C1076.1,-933.99 1087.45,-931.15 1098,-928 1229.75,-888.66 1268.23,-885.97 1386,-815 1501.53,-745.38 1517.76,-709.43 1616,-617 1632.71,-601.28 1635.18,-595.61 1652,-580 1683.62,-550.65 1722.34,-519 1746.34,-499.84"/>
<polygon fill="#757575" stroke="#757575" points="1748.53,-502.57 1754.18,-493.61 1744.18,-497.09 1748.53,-502.57"/>
</g>
<!-- ../../fn/modules/lists/rest.js -->
<g id="node28" class="node">
<title>../../fn/modules/lists/rest.js</title>
<path fill="none" stroke="#cfffac" d="M1597.83,-961.5C1597.83,-961.5 1440.17,-961.5 1440.17,-961.5 1436.33,-961.5 1432.5,-957.67 1432.5,-953.83 1432.5,-953.83 1432.5,-946.17 1432.5,-946.17 1432.5,-942.33 1436.33,-938.5 1440.17,-938.5 1440.17,-938.5 1597.83,-938.5 1597.83,-938.5 1601.67,-938.5 1605.5,-942.33 1605.5,-946.17 1605.5,-946.17 1605.5,-953.83 1605.5,-953.83 1605.5,-957.67 1601.67,-961.5 1597.83,-961.5"/>
<text text-anchor="middle" x="1519" y="-946.3" font-family="Arial" font-size="14.00" fill="#cfffac">../../fn/modules/lists/rest.js</text>
</g>
<!-- ../../fn/modules/choose.js&#45;&gt;../../fn/modules/lists/rest.js -->
<g id="edge35" class="edge">
<title>../../fn/modules/choose.js&#45;&gt;../../fn/modules/lists/rest.js</title>
<path fill="none" stroke="#757575" d="M1343.73,-950C1368.73,-950 1396.39,-950 1422.17,-950"/>
<polygon fill="#757575" stroke="#757575" points="1422.33,-953.5 1432.33,-950 1422.33,-946.5 1422.33,-953.5"/>
</g>
<!-- ../../fn/modules/nothing.js&#45;&gt;../../fn/modules/noop.js -->
<g id="edge52" class="edge">
<title>../../fn/modules/nothing.js&#45;&gt;../../fn/modules/noop.js</title>
<path fill="none" stroke="#757575" d="M1853.75,-473.97C1865.59,-471.09 1877.36,-467.21 1888,-462 1928.3,-442.28 1964.51,-403.39 1984.11,-379.75"/>
<polygon fill="#757575" stroke="#757575" points="1986.99,-381.76 1990.56,-371.79 1981.55,-377.35 1986.99,-381.76"/>
</g>
<!-- ../../dom/modules/trigger.js -->
<g id="node25" class="node">
<title>../../dom/modules/trigger.js</title>
<path fill="none" stroke="#c6c5fe" d="M567.83,-204.5C567.83,-204.5 407.17,-204.5 407.17,-204.5 403.33,-204.5 399.5,-200.67 399.5,-196.83 399.5,-196.83 399.5,-189.17 399.5,-189.17 399.5,-185.33 403.33,-181.5 407.17,-181.5 407.17,-181.5 567.83,-181.5 567.83,-181.5 571.67,-181.5 575.5,-185.33 575.5,-189.17 575.5,-189.17 575.5,-196.83 575.5,-196.83 575.5,-200.67 571.67,-204.5 567.83,-204.5"/>
<text text-anchor="middle" x="487.5" y="-189.3" font-family="Arial" font-size="14.00" fill="#c6c5fe">../../dom/modules/trigger.js</text>
</g>
<!-- ../../dom/modules/trigger.js&#45;&gt;../../dom/modules/event.js -->
<g id="edge32" class="edge">
<title>../../dom/modules/trigger.js&#45;&gt;../../dom/modules/event.js</title>
<path fill="none" stroke="#757575" d="M565.98,-181.5C659.13,-167.67 815.07,-144.52 912.62,-130.04"/>
<polygon fill="#757575" stroke="#757575" points="913.38,-133.47 922.76,-128.54 912.35,-126.55 913.38,-133.47"/>
</g>
<!-- ../../fn/modules/by.js -->
<g id="node26" class="node">
<title>../../fn/modules/by.js</title>
<path fill="none" stroke="#c6c5fe" d="M1579.83,-566.5C1579.83,-566.5 1458.17,-566.5 1458.17,-566.5 1454.33,-566.5 1450.5,-562.67 1450.5,-558.83 1450.5,-558.83 1450.5,-551.17 1450.5,-551.17 1450.5,-547.33 1454.33,-543.5 1458.17,-543.5 1458.17,-543.5 1579.83,-543.5 1579.83,-543.5 1583.67,-543.5 1587.5,-547.33 1587.5,-551.17 1587.5,-551.17 1587.5,-558.83 1587.5,-558.83 1587.5,-562.67 1583.67,-566.5 1579.83,-566.5"/>
<text text-anchor="middle" x="1519" y="-551.3" font-family="Arial" font-size="14.00" fill="#c6c5fe">../../fn/modules/by.js</text>
</g>
<!-- ../../fn/modules/by.js&#45;&gt;../../fn/modules/curry.js -->
<g id="edge33" class="edge">
<title>../../fn/modules/by.js&#45;&gt;../../fn/modules/curry.js</title>
<path fill="none" stroke="#757575" d="M1587.62,-547.26C1663.67,-541.3 1789.4,-539.85 1888,-580 1928.07,-596.32 1964.12,-632.9 1983.8,-655.6"/>
<polygon fill="#757575" stroke="#757575" points="1981.16,-657.9 1990.29,-663.28 1986.5,-653.38 1981.16,-657.9"/>
</g>
<!-- ../../fn/modules/choke.js&#45;&gt;../../fn/modules/noop.js -->
<g id="edge34" class="edge">
<title>../../fn/modules/choke.js&#45;&gt;../../fn/modules/noop.js</title>
<path fill="none" stroke="#757575" d="M1598.57,-72.61C1678.9,-71.19 1803.55,-80.71 1888,-143 1955.09,-192.48 1984.93,-294.15 1995.14,-338.51"/>
<polygon fill="#757575" stroke="#757575" points="1991.76,-339.46 1997.32,-348.48 1998.6,-337.96 1991.76,-339.46"/>
</g>
<!-- ../../fn/modules/compose.js -->
<g id="node29" class="node">
<title>../../fn/modules/compose.js</title>
<path fill="none" stroke="#cfffac" d="M1851.83,-329.5C1851.83,-329.5 1688.17,-329.5 1688.17,-329.5 1684.33,-329.5 1680.5,-325.67 1680.5,-321.83 1680.5,-321.83 1680.5,-314.17 1680.5,-314.17 1680.5,-310.33 1684.33,-306.5 1688.17,-306.5 1688.17,-306.5 1851.83,-306.5 1851.83,-306.5 1855.67,-306.5 1859.5,-310.33 1859.5,-314.17 1859.5,-314.17 1859.5,-321.83 1859.5,-321.83 1859.5,-325.67 1855.67,-329.5 1851.83,-329.5"/>
<text text-anchor="middle" x="1770" y="-314.3" font-family="Arial" font-size="14.00" fill="#cfffac">../../fn/modules/compose.js</text>
</g>
<!-- ../../fn/modules/denormalisers.js -->
<g id="node30" class="node">
<title>../../fn/modules/denormalisers.js</title>
<path fill="none" stroke="#c6c5fe" d="M1356.83,-684.5C1356.83,-684.5 1163.17,-684.5 1163.17,-684.5 1159.33,-684.5 1155.5,-680.67 1155.5,-676.83 1155.5,-676.83 1155.5,-669.17 1155.5,-669.17 1155.5,-665.33 1159.33,-661.5 1163.17,-661.5 1163.17,-661.5 1356.83,-661.5 1356.83,-661.5 1360.67,-661.5 1364.5,-665.33 1364.5,-669.17 1364.5,-669.17 1364.5,-676.83 1364.5,-676.83 1364.5,-680.67 1360.67,-684.5 1356.83,-684.5"/>
<text text-anchor="middle" x="1260" y="-669.3" font-family="Arial" font-size="14.00" fill="#c6c5fe">../../fn/modules/denormalisers.js</text>
</g>
<!-- ../../fn/modules/maths/cubic&#45;bezier.js -->
<g id="node31" class="node">
<title>../../fn/modules/maths/cubic&#45;bezier.js</title>
<path fill="none" stroke="#c6c5fe" d="M1880.33,-686.5C1880.33,-686.5 1659.67,-686.5 1659.67,-686.5 1655.83,-686.5 1652,-682.67 1652,-678.83 1652,-678.83 1652,-671.17 1652,-671.17 1652,-667.33 1655.83,-663.5 1659.67,-663.5 1659.67,-663.5 1880.33,-663.5 1880.33,-663.5 1884.17,-663.5 1888,-667.33 1888,-671.17 1888,-671.17 1888,-678.83 1888,-678.83 1888,-682.67 1884.17,-686.5 1880.33,-686.5"/>
<text text-anchor="middle" x="1770" y="-671.3" font-family="Arial" font-size="14.00" fill="#c6c5fe">../../fn/modules/maths/cubic&#45;bezier.js</text>
</g>
<!-- ../../fn/modules/denormalisers.js&#45;&gt;../../fn/modules/maths/cubic&#45;bezier.js -->
<g id="edge37" class="edge">
<title>../../fn/modules/denormalisers.js&#45;&gt;../../fn/modules/maths/cubic&#45;bezier.js</title>
<path fill="none" stroke="#757575" d="M1364.83,-684.1C1383.83,-685.73 1403.49,-687.14 1422,-688 1508.13,-692 1529.86,-691.65 1616,-688 1624.33,-687.65 1632.9,-687.19 1641.54,-686.65"/>
<polygon fill="#757575" stroke="#757575" points="1641.95,-690.13 1651.7,-685.99 1641.49,-683.14 1641.95,-690.13"/>
</g>
<!-- ../../fn/modules/normalisers.js -->
<g id="node32" class="node">
<title>../../fn/modules/normalisers.js</title>
<path fill="none" stroke="#c6c5fe" d="M1608.33,-607.5C1608.33,-607.5 1429.67,-607.5 1429.67,-607.5 1425.83,-607.5 1422,-603.67 1422,-599.83 1422,-599.83 1422,-592.17 1422,-592.17 1422,-588.33 1425.83,-584.5 1429.67,-584.5 1429.67,-584.5 1608.33,-584.5 1608.33,-584.5 1612.17,-584.5 1616,-588.33 1616,-592.17 1616,-592.17 1616,-599.83 1616,-599.83 1616,-603.67 1612.17,-607.5 1608.33,-607.5"/>
<text text-anchor="middle" x="1519" y="-592.3" font-family="Arial" font-size="14.00" fill="#c6c5fe">../../fn/modules/normalisers.js</text>
</g>
<!-- ../../fn/modules/denormalisers.js&#45;&gt;../../fn/modules/normalisers.js -->
<g id="edge38" class="edge">
<title>../../fn/modules/denormalisers.js&#45;&gt;../../fn/modules/normalisers.js</title>
<path fill="none" stroke="#757575" d="M1340.5,-661.47C1355.94,-657.85 1371.75,-653.13 1386,-647 1403.9,-639.31 1404.34,-630.22 1422,-622 1431.71,-617.48 1442.35,-613.62 1452.89,-610.38"/>
<polygon fill="#757575" stroke="#757575" points="1453.91,-613.73 1462.53,-607.56 1451.95,-607.01 1453.91,-613.73"/>
</g>
<!-- ../../fn/modules/types.js -->
<g id="node33" class="node">
<title>../../fn/modules/types.js</title>
<path fill="none" stroke="#c6c5fe" d="M1839.83,-611.5C1839.83,-611.5 1700.17,-611.5 1700.17,-611.5 1696.33,-611.5 1692.5,-607.67 1692.5,-603.83 1692.5,-603.83 1692.5,-596.17 1692.5,-596.17 1692.5,-592.33 1696.33,-588.5 1700.17,-588.5 1700.17,-588.5 1839.83,-588.5 1839.83,-588.5 1843.67,-588.5 1847.5,-592.33 1847.5,-596.17 1847.5,-596.17 1847.5,-603.83 1847.5,-603.83 1847.5,-607.67 1843.67,-611.5 1839.83,-611.5"/>
<text text-anchor="middle" x="1770" y="-596.3" font-family="Arial" font-size="14.00" fill="#c6c5fe">../../fn/modules/types.js</text>
</g>
<!-- ../../fn/modules/denormalisers.js&#45;&gt;../../fn/modules/types.js -->
<g id="edge39" class="edge">
<title>../../fn/modules/denormalisers.js&#45;&gt;../../fn/modules/types.js</title>
<path fill="none" stroke="#757575" d="M1341.21,-661.47C1434.11,-648.12 1586.58,-626.21 1682.19,-612.48"/>
<polygon fill="#757575" stroke="#757575" points="1682.72,-615.93 1692.12,-611.05 1681.72,-609.01 1682.72,-615.93"/>
</g>
<!-- ../../fn/modules/maths/cubic&#45;bezier.js&#45;&gt;../../fn/modules/curry.js -->
<g id="edge49" class="edge">
<title>../../fn/modules/maths/cubic&#45;bezier.js&#45;&gt;../../fn/modules/curry.js</title>
<path fill="none" stroke="#757575" d="M1888.26,-675C1896.99,-675 1905.69,-675 1914.16,-675"/>
<polygon fill="#757575" stroke="#757575" points="1914.37,-678.5 1924.37,-675 1914.37,-671.5 1914.37,-678.5"/>
</g>
<!-- ../../fn/modules/normalisers.js&#45;&gt;../../fn/modules/maths/cubic&#45;bezier.js -->
<g id="edge50" class="edge">
<title>../../fn/modules/normalisers.js&#45;&gt;../../fn/modules/maths/cubic&#45;bezier.js</title>
<path fill="none" stroke="#757575" d="M1556.47,-607.57C1600.58,-621.57 1674.86,-645.13 1722.89,-660.37"/>
<polygon fill="#757575" stroke="#757575" points="1721.84,-663.71 1732.43,-663.4 1723.96,-657.04 1721.84,-663.71"/>
</g>
<!-- ../../fn/modules/normalisers.js&#45;&gt;../../fn/modules/types.js -->
<g id="edge51" class="edge">
<title>../../fn/modules/normalisers.js&#45;&gt;../../fn/modules/types.js</title>
<path fill="none" stroke="#757575" d="M1616.27,-597.55C1637.91,-597.89 1660.75,-598.26 1681.99,-598.6"/>
<polygon fill="#757575" stroke="#757575" points="1682.22,-602.11 1692.27,-598.77 1682.33,-595.11 1682.22,-602.11"/>
</g>
<!-- ../../fn/modules/types.js&#45;&gt;../../fn/modules/noop.js -->
<g id="edge67" class="edge">
<title>../../fn/modules/types.js&#45;&gt;../../fn/modules/noop.js</title>
<path fill="none" stroke="#757575" d="M1787.07,-588.44C1810.52,-571.19 1854.92,-537.08 1888,-503 1927.17,-462.64 1965.98,-408.96 1985.85,-380.22"/>
<polygon fill="#757575" stroke="#757575" points="1988.84,-382.03 1991.61,-371.81 1983.07,-378.08 1988.84,-382.03"/>
</g>
<!-- ../../fn/modules/fn.js&#45;&gt;../../fn/modules/noop.js -->
<g id="edge42" class="edge">
<title>../../fn/modules/fn.js&#45;&gt;../../fn/modules/noop.js</title>
<path fill="none" stroke="#757575" d="M1579.56,-266.48C1602.15,-262.65 1628.17,-258.88 1652,-257 1756.56,-248.73 1790.32,-218.79 1888,-257 1930.62,-273.67 1966.73,-315.13 1985.55,-340.07"/>
<polygon fill="#757575" stroke="#757575" points="1982.94,-342.43 1991.68,-348.43 1988.59,-338.3 1982.94,-342.43"/>
</g>
<!-- ../../fn/modules/fn.js&#45;&gt;../../fn/modules/nothing.js -->
<g id="edge43" class="edge">
<title>../../fn/modules/fn.js&#45;&gt;../../fn/modules/nothing.js</title>
<path fill="none" stroke="#757575" d="M1549.69,-289.65C1571.08,-299.49 1599.05,-315.58 1616,-338 1650.61,-383.78 1609.19,-423.78 1652,-462 1659.19,-468.42 1667.65,-473.16 1676.69,-476.62"/>
<polygon fill="#757575" stroke="#757575" points="1675.69,-479.97 1686.28,-479.78 1677.88,-473.33 1675.69,-479.97"/>
</g>
<!-- ../../fn/modules/fn.js&#45;&gt;../../fn/modules/compose.js -->
<g id="edge40" class="edge">
<title>../../fn/modules/fn.js&#45;&gt;../../fn/modules/compose.js</title>
<path fill="none" stroke="#757575" d="M1586.07,-288.61C1617.15,-293.61 1654.51,-299.61 1687.34,-304.88"/>
<polygon fill="#757575" stroke="#757575" points="1686.94,-308.36 1697.37,-306.49 1688.05,-301.45 1686.94,-308.36"/>
</g>
<!-- ../../fn/modules/latest.js -->
<g id="node35" class="node">
<title>../../fn/modules/latest.js</title>
<path fill="none" stroke="#cfffac" d="M1839.83,-288.5C1839.83,-288.5 1700.17,-288.5 1700.17,-288.5 1696.33,-288.5 1692.5,-284.67 1692.5,-280.83 1692.5,-280.83 1692.5,-273.17 1692.5,-273.17 1692.5,-269.33 1696.33,-265.5 1700.17,-265.5 1700.17,-265.5 1839.83,-265.5 1839.83,-265.5 1843.67,-265.5 1847.5,-269.33 1847.5,-273.17 1847.5,-273.17 1847.5,-280.83 1847.5,-280.83 1847.5,-284.67 1843.67,-288.5 1839.83,-288.5"/>
<text text-anchor="middle" x="1770" y="-273.3" font-family="Arial" font-size="14.00" fill="#cfffac">../../fn/modules/latest.js</text>
</g>
<!-- ../../fn/modules/fn.js&#45;&gt;../../fn/modules/latest.js -->
<g id="edge41" class="edge">
<title>../../fn/modules/fn.js&#45;&gt;../../fn/modules/latest.js</title>
<path fill="none" stroke="#757575" d="M1586.07,-277.73C1615.59,-277.62 1650.76,-277.47 1682.35,-277.35"/>
<polygon fill="#757575" stroke="#757575" points="1682.48,-280.85 1692.46,-277.31 1682.45,-273.85 1682.48,-280.85"/>
</g>
<!-- ../../fn/modules/strings/prepend.js -->
<g id="node36" class="node">
<title>../../fn/modules/strings/prepend.js</title>
<path fill="none" stroke="#c6c5fe" d="M1870.33,-370.5C1870.33,-370.5 1669.67,-370.5 1669.67,-370.5 1665.83,-370.5 1662,-366.67 1662,-362.83 1662,-362.83 1662,-355.17 1662,-355.17 1662,-351.33 1665.83,-347.5 1669.67,-347.5 1669.67,-347.5 1870.33,-347.5 1870.33,-347.5 1874.17,-347.5 1878,-351.33 1878,-355.17 1878,-355.17 1878,-362.83 1878,-362.83 1878,-366.67 1874.17,-370.5 1870.33,-370.5"/>
<text text-anchor="middle" x="1770" y="-355.3" font-family="Arial" font-size="14.00" fill="#c6c5fe">../../fn/modules/strings/prepend.js</text>
</g>
<!-- ../../fn/modules/fn.js&#45;&gt;../../fn/modules/strings/prepend.js -->
<g id="edge44" class="edge">
<title>../../fn/modules/fn.js&#45;&gt;../../fn/modules/strings/prepend.js</title>
<path fill="none" stroke="#757575" d="M1581,-289.52C1593.05,-293.16 1605.27,-297.89 1616,-304 1635.39,-315.05 1632.11,-328.89 1652,-339 1655.57,-340.81 1659.26,-342.47 1663.05,-343.97"/>
<polygon fill="#757575" stroke="#757575" points="1662.05,-347.33 1672.64,-347.43 1664.42,-340.74 1662.05,-347.33"/>
</g>
<!-- ../../fn/modules/fn.js&#45;&gt;../../fn/modules/to&#45;array.js -->
<g id="edge45" class="edge">
<title>../../fn/modules/fn.js&#45;&gt;../../fn/modules/to&#45;array.js</title>
<path fill="none" stroke="#757575" d="M1586.03,-269.41C1596.41,-266.62 1606.75,-262.91 1616,-258 1635.71,-247.53 1632.36,-233.6 1652,-223 1660.58,-218.37 1669.95,-214.56 1679.51,-211.43"/>
<polygon fill="#757575" stroke="#757575" points="1680.57,-214.77 1689.13,-208.52 1678.55,-208.06 1680.57,-214.77"/>
</g>
<!-- ../../fn/modules/strings/prepend.js&#45;&gt;../../fn/modules/curry.js -->
<g id="edge64" class="edge">
<title>../../fn/modules/strings/prepend.js&#45;&gt;../../fn/modules/curry.js</title>
<path fill="none" stroke="#757575" d="M1873.53,-370.51C1878.69,-373.17 1883.56,-376.31 1888,-380 1974.46,-451.87 1993.96,-598.26 1998.29,-653.37"/>
<polygon fill="#757575" stroke="#757575" points="1994.8,-653.67 1998.98,-663.4 2001.78,-653.19 1994.8,-653.67"/>
</g>
<!-- ../../fn/modules/get.js -->
<g id="node38" class="node">
<title>../../fn/modules/get.js</title>
<path fill="none" stroke="#c6c5fe" d="M1582.33,-525.5C1582.33,-525.5 1455.67,-525.5 1455.67,-525.5 1451.83,-525.5 1448,-521.67 1448,-517.83 1448,-517.83 1448,-510.17 1448,-510.17 1448,-506.33 1451.83,-502.5 1455.67,-502.5 1455.67,-502.5 1582.33,-502.5 1582.33,-502.5 1586.17,-502.5 1590,-506.33 1590,-510.17 1590,-510.17 1590,-517.83 1590,-517.83 1590,-521.67 1586.17,-525.5 1582.33,-525.5"/>
<text text-anchor="middle" x="1519" y="-510.3" font-family="Arial" font-size="14.00" fill="#c6c5fe">../../fn/modules/get.js</text>
</g>
<!-- ../../fn/modules/get.js&#45;&gt;../../fn/modules/curry.js -->
<g id="edge46" class="edge">
<title>../../fn/modules/get.js&#45;&gt;../../fn/modules/curry.js</title>
<path fill="none" stroke="#757575" d="M1590.28,-512.48C1682.3,-511.58 1837.82,-514.16 1888,-540 1937.26,-565.36 1972.9,-623.05 1989.34,-654.17"/>
<polygon fill="#757575" stroke="#757575" points="1986.32,-655.96 1994,-663.27 1992.56,-652.77 1986.32,-655.96"/>
</g>
<!-- ../../fn/modules/lists/core.js&#45;&gt;../../fn/modules/to&#45;array.js -->
<g id="edge47" class="edge">
<title>../../fn/modules/lists/core.js&#45;&gt;../../fn/modules/to&#45;array.js</title>
<path fill="none" stroke="#757575" d="M1591.69,-225.48C1621.63,-220.67 1656.59,-215.06 1687.5,-210.09"/>
<polygon fill="#757575" stroke="#757575" points="1688.07,-213.55 1697.39,-208.5 1686.96,-206.63 1688.07,-213.55"/>
</g>
<!-- ../../fn/modules/maths/clamp.js -->
<g id="node40" class="node">
<title>../../fn/modules/maths/clamp.js</title>
<path fill="none" stroke="#c6c5fe" d="M339.33,-978.5C339.33,-978.5 153.67,-978.5 153.67,-978.5 149.83,-978.5 146,-974.67 146,-970.83 146,-970.83 146,-963.17 146,-963.17 146,-959.33 149.83,-955.5 153.67,-955.5 153.67,-955.5 339.33,-955.5 339.33,-955.5 343.17,-955.5 347,-959.33 347,-963.17 347,-963.17 347,-970.83 347,-970.83 347,-974.67 343.17,-978.5 339.33,-978.5"/>
<text text-anchor="middle" x="246.5" y="-963.3" font-family="Arial" font-size="14.00" fill="#c6c5fe">../../fn/modules/maths/clamp.js</text>
</g>
<!-- ../../fn/modules/maths/clamp.js&#45;&gt;../../fn/modules/curry.js -->
<g id="edge48" class="edge">
<title>../../fn/modules/maths/clamp.js&#45;&gt;../../fn/modules/curry.js</title>
<path fill="none" stroke="#757575" d="M280.38,-978.5C359.66,-1005.18 568.1,-1069 747.5,-1069 747.5,-1069 747.5,-1069 1520,-1069 1702.27,-1069 1757.51,-1015.25 1888,-888 1946,-831.44 1980.15,-738.2 1993.27,-696.41"/>
<polygon fill="#757575" stroke="#757575" points="1996.65,-697.32 1996.22,-686.73 1989.96,-695.28 1996.65,-697.32"/>
</g>
<!-- ../../fn/modules/maths/to&#45;db.js -->
<g id="node41" class="node">
<title>../../fn/modules/maths/to&#45;db.js</title>
<path fill="none" stroke="#cfffac" d="M1349.83,-563.5C1349.83,-563.5 1170.17,-563.5 1170.17,-563.5 1166.33,-563.5 1162.5,-559.67 1162.5,-555.83 1162.5,-555.83 1162.5,-548.17 1162.5,-548.17 1162.5,-544.33 1166.33,-540.5 1170.17,-540.5 1170.17,-540.5 1349.83,-540.5 1349.83,-540.5 1353.67,-540.5 1357.5,-544.33 1357.5,-548.17 1357.5,-548.17 1357.5,-555.83 1357.5,-555.83 1357.5,-559.67 1353.67,-563.5 1349.83,-563.5"/>
<text text-anchor="middle" x="1260" y="-548.3" font-family="Arial" font-size="14.00" fill="#cfffac">../../fn/modules/maths/to&#45;db.js</text>
</g>
<!-- ../../fn/modules/maths/to&#45;gain.js -->
<g id="node42" class="node">
<title>../../fn/modules/maths/to&#45;gain.js</title>
<path fill="none" stroke="#cfffac" d="M1355.33,-604.5C1355.33,-604.5 1164.67,-604.5 1164.67,-604.5 1160.83,-604.5 1157,-600.67 1157,-596.83 1157,-596.83 1157,-589.17 1157,-589.17 1157,-585.33 1160.83,-581.5 1164.67,-581.5 1164.67,-581.5 1355.33,-581.5 1355.33,-581.5 1359.17,-581.5 1363,-585.33 1363,-589.17 1363,-589.17 1363,-596.83 1363,-596.83 1363,-600.67 1359.17,-604.5 1355.33,-604.5"/>
<text text-anchor="middle" x="1260" y="-589.3" font-family="Arial" font-size="14.00" fill="#cfffac">../../fn/modules/maths/to&#45;gain.js</text>
</g>
<!-- ../../fn/modules/request&#45;tick.js -->
<g id="node45" class="node">
<title>../../fn/modules/request&#45;tick.js</title>
<path fill="none" stroke="#cfffac" d="M1858.83,-452.5C1858.83,-452.5 1681.17,-452.5 1681.17,-452.5 1677.33,-452.5 1673.5,-448.67 1673.5,-444.83 1673.5,-444.83 1673.5,-437.17 1673.5,-437.17 1673.5,-433.33 1677.33,-429.5 1681.17,-429.5 1681.17,-429.5 1858.83,-429.5 1858.83,-429.5 1862.67,-429.5 1866.5,-433.33 1866.5,-437.17 1866.5,-437.17 1866.5,-444.83 1866.5,-444.83 1866.5,-448.67 1862.67,-452.5 1858.83,-452.5"/>
<text text-anchor="middle" x="1770" y="-437.3" font-family="Arial" font-size="14.00" fill="#cfffac">../../fn/modules/request&#45;tick.js</text>
</g>
<!-- ../../fn/modules/timer.js&#45;&gt;../../fn/modules/now.js -->
<g id="edge65" class="edge">
<title>../../fn/modules/timer.js&#45;&gt;../../fn/modules/now.js</title>
<path fill="none" stroke="#757575" d="M1588.37,-369.53C1620.08,-374.88 1657.92,-381.26 1690.76,-386.8"/>
<polygon fill="#757575" stroke="#757575" points="1690.34,-390.28 1700.78,-388.49 1691.5,-383.38 1690.34,-390.28"/>
</g>
<!-- ../../fn/modules/timer.js&#45;&gt;../../fn/modules/request&#45;tick.js -->
<g id="edge66" class="edge">
<title>../../fn/modules/timer.js&#45;&gt;../../fn/modules/request&#45;tick.js</title>
<path fill="none" stroke="#757575" d="M1581.89,-369.52C1593.68,-373.15 1605.58,-377.87 1616,-384 1635.78,-395.63 1631.69,-410.32 1652,-421 1655.8,-423 1659.75,-424.8 1663.81,-426.43"/>
<polygon fill="#757575" stroke="#757575" points="1662.85,-429.81 1673.44,-429.92 1665.23,-423.23 1662.85,-429.81"/>
</g>
<!-- ../../fn/modules/strings/to&#45;camel&#45;case.js -->
<g id="node47" class="node">
<title>../../fn/modules/strings/to&#45;camel&#45;case.js</title>
<path fill="none" stroke="#cfffac" d="M1378.33,-522.5C1378.33,-522.5 1141.67,-522.5 1141.67,-522.5 1137.83,-522.5 1134,-518.67 1134,-514.83 1134,-514.83 1134,-507.17 1134,-507.17 1134,-503.33 1137.83,-499.5 1141.67,-499.5 1141.67,-499.5 1378.33,-499.5 1378.33,-499.5 1382.17,-499.5 1386,-503.33 1386,-507.17 1386,-507.17 1386,-514.83 1386,-514.83 1386,-518.67 1382.17,-522.5 1378.33,-522.5"/>
<text text-anchor="middle" x="1260" y="-507.3" font-family="Arial" font-size="14.00" fill="#cfffac">../../fn/modules/strings/to&#45;camel&#45;case.js</text>
</g>
<!-- attributes.js -->
<g id="node48" class="node">
<title>attributes.js</title>
<path fill="none" stroke="#c6c5fe" d="M783.83,-444.5C783.83,-444.5 713.17,-444.5 713.17,-444.5 709.33,-444.5 705.5,-440.67 705.5,-436.83 705.5,-436.83 705.5,-429.17 705.5,-429.17 705.5,-425.33 709.33,-421.5 713.17,-421.5 713.17,-421.5 783.83,-421.5 783.83,-421.5 787.67,-421.5 791.5,-425.33 791.5,-429.17 791.5,-429.17 791.5,-436.83 791.5,-436.83 791.5,-440.67 787.67,-444.5 783.83,-444.5"/>
<text text-anchor="middle" x="748.5" y="-429.3" font-family="Arial" font-size="14.00" fill="#c6c5fe">attributes.js</text>
</g>
<!-- attributes.js&#45;&gt;../../fn/modules/nothing.js -->
<g id="edge70" class="edge">
<title>attributes.js&#45;&gt;../../fn/modules/nothing.js</title>
<path fill="none" stroke="#757575" d="M791.69,-428.86C822.94,-426.01 866.58,-422.48 905,-421 990.71,-417.7 1012.22,-420.7 1098,-421 1226,-421.44 1258.47,-412 1386,-423 1402.16,-424.39 1405.98,-426.44 1422,-429 1510.19,-443.08 1611.12,-458.41 1681.3,-468.94"/>
<polygon fill="#757575" stroke="#757575" points="1681.02,-472.44 1691.43,-470.46 1682.06,-465.52 1681.02,-472.44"/>
</g>
<!-- attributes.js&#45;&gt;../../fn/modules/by.js -->
<g id="edge68" class="edge">
<title>attributes.js&#45;&gt;../../fn/modules/by.js</title>
<path fill="none" stroke="#757575" d="M791.51,-434.95C924.97,-441.39 1333.63,-463.2 1386,-491 1408.32,-502.85 1400.4,-521.9 1422,-535 1427.82,-538.53 1434.16,-541.44 1440.72,-543.85"/>
<polygon fill="#757575" stroke="#757575" points="1439.86,-547.25 1450.46,-547.02 1442.03,-540.6 1439.86,-547.25"/>
</g>
<!-- attributes.js&#45;&gt;../../fn/modules/get.js -->
<g id="edge69" class="edge">
<title>attributes.js&#45;&gt;../../fn/modules/get.js</title>
<path fill="none" stroke="#757575" d="M791.52,-431.01C915.43,-425.7 1277.41,-414.35 1386,-457 1405.65,-464.72 1403.35,-478.11 1422,-488 1430.49,-492.5 1439.83,-496.28 1449.24,-499.43"/>
<polygon fill="#757575" stroke="#757575" points="1448.46,-502.85 1459.05,-502.49 1450.54,-496.17 1448.46,-502.85"/>
</g>
<!-- attributes.js&#45;&gt;../../fn/modules/privates.js -->
<g id="edge71" class="edge">
<title>attributes.js&#45;&gt;../../fn/modules/privates.js</title>
<path fill="none" stroke="#757575" d="M767.15,-421.43C795.43,-403.19 853.03,-367.35 905,-343 1003.17,-297.01 1029.74,-288.7 1134,-259 1243.98,-227.67 1290.62,-270.09 1386,-207 1409.44,-191.49 1399.83,-172.28 1422,-155 1433.3,-146.2 1446.98,-139.37 1460.43,-134.15"/>
<polygon fill="#757575" stroke="#757575" points="1461.93,-137.32 1470.14,-130.62 1459.55,-130.74 1461.93,-137.32"/>
</g>
<!-- attributes.js&#45;&gt;../../fn/modules/request&#45;tick.js -->
<g id="edge72" class="edge">
<title>attributes.js&#45;&gt;../../fn/modules/request&#45;tick.js</title>
<path fill="none" stroke="#757575" d="M775.53,-421.4C805.89,-408.56 857.94,-388.66 905,-381 1116,-346.65 1172.87,-364.41 1386,-381 1415.55,-383.3 1585.74,-410.84 1689.06,-427.8"/>
<polygon fill="#757575" stroke="#757575" points="1688.71,-431.29 1699.15,-429.45 1689.85,-424.38 1688.71,-431.29"/>
</g>
<!-- control.js -->
<g id="node49" class="node">
<title>control.js</title>
<path fill="none" stroke="#c6c5fe" d="M1029.33,-604.5C1029.33,-604.5 973.67,-604.5 973.67,-604.5 969.83,-604.5 966,-600.67 966,-596.83 966,-596.83 966,-589.17 966,-589.17 966,-585.33 969.83,-581.5 973.67,-581.5 973.67,-581.5 1029.33,-581.5 1029.33,-581.5 1033.17,-581.5 1037,-585.33 1037,-589.17 1037,-589.17 1037,-596.83 1037,-596.83 1037,-600.67 1033.17,-604.5 1029.33,-604.5"/>
<text text-anchor="middle" x="1001.5" y="-589.3" font-family="Arial" font-size="14.00" fill="#c6c5fe">control.js</text>
</g>
<!-- attributes.js&#45;&gt;control.js -->
<g id="edge73" class="edge">
<title>attributes.js&#45;&gt;control.js</title>
<path fill="none" stroke="#757575" d="M767.55,-444.51C811.13,-472.29 922.29,-543.15 973.69,-575.91"/>
<polygon fill="#757575" stroke="#757575" points="971.96,-578.96 982.28,-581.38 975.72,-573.06 971.96,-578.96"/>
</g>
<!-- control.js&#45;&gt;../../fn/modules/id.js -->
<g id="edge75" class="edge">
<title>control.js&#45;&gt;../../fn/modules/id.js</title>
<path fill="none" stroke="#757575" d="M1010.17,-604.6C1035.55,-642.84 1116.21,-763.08 1134,-774 1148.56,-782.94 1165.81,-788.29 1182.76,-791.42"/>
<polygon fill="#757575" stroke="#757575" points="1182.26,-794.88 1192.69,-793.01 1183.37,-787.97 1182.26,-794.88"/>
</g>
<!-- control.js&#45;&gt;../../fn/modules/overload.js -->
<g id="edge79" class="edge">
<title>control.js&#45;&gt;../../fn/modules/overload.js</title>
<path fill="none" stroke="#757575" d="M1021.11,-604.54C1040.84,-617.09 1072.62,-638.14 1098,-659 1115.24,-673.17 1115.66,-681.29 1134,-694 1160.14,-712.12 1192.73,-727.3 1218.08,-737.72"/>
<polygon fill="#757575" stroke="#757575" points="1216.82,-740.99 1227.41,-741.47 1219.44,-734.49 1216.82,-740.99"/>
</g>
<!-- control.js&#45;&gt;../../fn/modules/denormalisers.js -->
<g id="edge74" class="edge">
<title>control.js&#45;&gt;../../fn/modules/denormalisers.js</title>
<path fill="none" stroke="#757575" d="M1037.14,-600.14C1055.75,-604.71 1078.76,-611.58 1098,-621 1115.73,-629.68 1115.94,-639.04 1134,-647 1144.85,-651.79 1156.63,-655.71 1168.47,-658.92"/>
<polygon fill="#757575" stroke="#757575" points="1167.86,-662.37 1178.42,-661.45 1169.59,-655.59 1167.86,-662.37"/>
</g>
<!-- control.js&#45;&gt;../../fn/modules/normalisers.js -->
<g id="edge78" class="edge">
<title>control.js&#45;&gt;../../fn/modules/normalisers.js</title>
<path fill="none" stroke="#757575" d="M1037.2,-600.08C1063.61,-605.1 1100.93,-611.38 1134,-614 1245.65,-622.86 1274.26,-621.58 1386,-614 1402.34,-612.89 1419.74,-611.02 1436.36,-608.89"/>
<polygon fill="#757575" stroke="#757575" points="1437.14,-612.32 1446.59,-607.54 1436.22,-605.38 1437.14,-612.32"/>
</g>
<!-- control.js&#45;&gt;../../fn/modules/maths/to&#45;db.js -->
<g id="edge76" class="edge">
<title>control.js&#45;&gt;../../fn/modules/maths/to&#45;db.js</title>
<path fill="none" stroke="#757575" d="M1037.09,-587.47C1072.77,-581.77 1129.72,-572.66 1177,-565.11"/>
<polygon fill="#757575" stroke="#757575" points="1177.6,-568.56 1186.93,-563.52 1176.5,-561.64 1177.6,-568.56"/>
</g>
<!-- control.js&#45;&gt;../../fn/modules/maths/to&#45;gain.js -->
<g id="edge77" class="edge">
<title>control.js&#45;&gt;../../fn/modules/maths/to&#45;gain.js</title>
<path fill="none" stroke="#757575" d="M1037.09,-593C1065.46,-593 1107.26,-593 1146.96,-593"/>
<polygon fill="#757575" stroke="#757575" points="1146.99,-596.5 1156.99,-593 1146.99,-589.5 1146.99,-596.5"/>
</g>
<!-- control.js&#45;&gt;../../fn/modules/strings/to&#45;camel&#45;case.js -->
<g id="edge80" class="edge">
<title>control.js&#45;&gt;../../fn/modules/strings/to&#45;camel&#45;case.js</title>
<path fill="none" stroke="#757575" d="M1023.21,-581.26C1048.55,-567.41 1093.13,-544.66 1134,-532 1142.97,-529.22 1152.42,-526.79 1161.95,-524.66"/>
<polygon fill="#757575" stroke="#757575" points="1162.83,-528.05 1171.89,-522.54 1161.38,-521.2 1162.83,-528.05"/>
</g>
<!-- rotary&#45;control.js -->
<g id="node50" class="node">
<title>rotary&#45;control.js</title>
<path fill="none" stroke="#c6c5fe" d="M102.33,-603.5C102.33,-603.5 7.67,-603.5 7.67,-603.5 3.83,-603.5 0,-599.67 0,-595.83 0,-595.83 0,-588.17 0,-588.17 0,-584.33 3.83,-580.5 7.67,-580.5 7.67,-580.5 102.33,-580.5 102.33,-580.5 106.17,-580.5 110,-584.33 110,-588.17 110,-588.17 110,-595.83 110,-595.83 110,-599.67 106.17,-603.5 102.33,-603.5"/>
<text text-anchor="middle" x="55" y="-588.3" font-family="Arial" font-size="14.00" fill="#c6c5fe">rotary&#45;control.js</text>
</g>
<!-- rotary&#45;control.js&#45;&gt;../../fn/modules/overload.js -->
<g id="edge87" class="edge">
<title>rotary&#45;control.js&#45;&gt;../../fn/modules/overload.js</title>
<path fill="none" stroke="#757575" d="M89.41,-603.52C106.21,-608.92 127,-615.04 146,-619 517.07,-696.4 967.75,-733.59 1162.11,-746.95"/>
<polygon fill="#757575" stroke="#757575" points="1162.09,-750.46 1172.3,-747.65 1162.56,-743.47 1162.09,-750.46"/>
</g>
<!-- rotary&#45;control.js&#45;&gt;../../dom/modules/create.js -->
<g id="edge81" class="edge">
<title>rotary&#45;control.js&#45;&gt;../../dom/modules/create.js</title>
<path fill="none" stroke="#757575" d="M58.21,-603.66C64.91,-635.46 88.19,-723.91 146,-763 187.27,-790.9 542.51,-803.27 592,-809 611,-811.2 631.28,-813.7 650.71,-816.17"/>
<polygon fill="#757575" stroke="#757575" points="650.41,-819.66 660.78,-817.45 651.3,-812.72 650.41,-819.66"/>
</g>
<!-- rotary&#45;control.js&#45;&gt;../../dom/modules/element.js -->
<g id="edge82" class="edge">
<title>rotary&#45;control.js&#45;&gt;../../dom/modules/element.js</title>
<path fill="none" stroke="#757575" d="M56.96,-603.61C60.64,-640.07 77.36,-752.74 146,-802 227.1,-860.2 348.77,-853.54 422.59,-842.15"/>
<polygon fill="#757575" stroke="#757575" points="423.36,-845.57 432.68,-840.51 422.25,-838.66 423.36,-845.57"/>
</g>
<!-- rotary&#45;control.js&#45;&gt;../../dom/modules/gestures.js -->
<g id="edge83" class="edge">
<title>rotary&#45;control.js&#45;&gt;../../dom/modules/gestures.js</title>
<path fill="none" stroke="#757575" d="M63.06,-580.22C77.46,-556.54 111.75,-501.86 146,-460 171.42,-428.93 204.59,-396.27 225.47,-376.51"/>
<polygon fill="#757575" stroke="#757575" points="227.94,-379 232.83,-369.6 223.15,-373.9 227.94,-379"/>
</g>
<!-- rotary&#45;control.js&#45;&gt;../../dom/modules/parse&#45;value.js -->
<g id="edge84" class="edge">
<title>rotary&#45;control.js&#45;&gt;../../dom/modules/parse&#45;value.js</title>
<path fill="none" stroke="#757575" d="M110.09,-595.89C175.62,-600.61 287.8,-608.69 372.68,-614.8"/>
<polygon fill="#757575" stroke="#757575" points="372.67,-618.31 382.89,-615.54 373.17,-611.33 372.67,-618.31"/>
</g>
<!-- rotary&#45;control.js&#45;&gt;../../dom/modules/trigger.js -->
<g id="edge85" class="edge">
<title>rotary&#45;control.js&#45;&gt;../../dom/modules/trigger.js</title>
<path fill="none" stroke="#757575" d="M56.86,-580.46C60.38,-541.24 76.96,-411.47 146,-338 217.06,-262.39 333.98,-224.47 410.61,-206.78"/>
<polygon fill="#757575" stroke="#757575" points="411.69,-210.12 420.68,-204.52 410.16,-203.29 411.69,-210.12"/>
</g>
<!-- rotary&#45;control.js&#45;&gt;../../fn/modules/maths/clamp.js -->
<g id="edge86" class="edge">
<title>rotary&#45;control.js&#45;&gt;../../fn/modules/maths/clamp.js</title>
<path fill="none" stroke="#757575" d="M58.8,-603.73C67.85,-640.42 98.52,-755.64 146,-841 169.03,-882.4 205.34,-924.37 227.14,-947.9"/>
<polygon fill="#757575" stroke="#757575" points="224.81,-950.53 234.2,-955.42 229.91,-945.74 224.81,-950.53"/>
</g>
<!-- rotary&#45;control.js&#45;&gt;../../fn/modules/privates.js -->
<g id="edge88" class="edge">
<title>rotary&#45;control.js&#45;&gt;../../fn/modules/privates.js</title>
<path fill="none" stroke="#757575" d="M55.84,-580.46C55.72,-531.88 60.92,-341.05 146,-221 250.32,-73.8 306.09,0 486.5,0 486.5,0 486.5,0 1002.5,0 1193.96,0 1235.25,-55.76 1422,-98 1432.57,-100.39 1443.81,-102.89 1454.74,-105.29"/>
<polygon fill="#757575" stroke="#757575" points="1454.13,-108.75 1464.65,-107.47 1455.64,-101.91 1454.13,-108.75"/>
</g>
<!-- rotary&#45;control.js&#45;&gt;attributes.js -->
<g id="edge89" class="edge">
<title>rotary&#45;control.js&#45;&gt;attributes.js</title>
<path fill="none" stroke="#757575" d="M71.35,-580.36C88.58,-567.89 117.83,-548.5 146,-538 340.19,-465.65 588.56,-442.57 695.12,-435.7"/>
<polygon fill="#757575" stroke="#757575" points="695.52,-439.18 705.29,-435.07 695.09,-432.2 695.52,-439.18"/>
</g>
<!-- rotary&#45;control.js&#45;&gt;control.js -->
<g id="edge90" class="edge">
<title>rotary&#45;control.js&#45;&gt;control.js</title>
<path fill="none" stroke="#757575" d="M110.34,-586.78C241.18,-575.06 583.99,-549.39 869,-572 898.07,-574.31 930.41,-579.44 955.75,-584.05"/>
<polygon fill="#757575" stroke="#757575" points="955.32,-587.53 965.8,-585.92 956.6,-580.65 955.32,-587.53"/>
</g>
</g>
</svg>
