<?xml version="1.0" encoding="UTF-8" standalone="no"?>
<!DOCTYPE svg PUBLIC "-//W3C//DTD SVG 1.1//EN"
 "http://www.w3.org/Graphics/SVG/1.1/DTD/svg11.dtd">
<!-- Generated by graphviz version 2.44.1 (20200629.0846)
 -->
<!-- Title: G Pages: 1 -->
<svg width="2315pt" height="1184pt"
 viewBox="0.00 0.00 2315.20 1183.53" xmlns="http://www.w3.org/2000/svg" xmlns:xlink="http://www.w3.org/1999/xlink">
<g id="graph0" class="graph" transform="scale(1 1) rotate(0) translate(21.6 1161.93)">
<title>G</title>
<polygon fill="#111111" stroke="transparent" points="-21.6,21.6 -21.6,-1161.93 2293.6,-1161.93 2293.6,21.6 -21.6,21.6"/>
<!-- ../../dom/modules/assign.js -->
<g id="node1" class="node">
<title>../../dom/modules/assign.js</title>
<path fill="none" stroke="#c6c5fe" d="M1082.83,-902.33C1082.83,-902.33 920.17,-902.33 920.17,-902.33 916.33,-902.33 912.5,-898.49 912.5,-894.66 912.5,-894.66 912.5,-886.99 912.5,-886.99 912.5,-883.16 916.33,-879.33 920.17,-879.33 920.17,-879.33 1082.83,-879.33 1082.83,-879.33 1086.67,-879.33 1090.5,-883.16 1090.5,-886.99 1090.5,-886.99 1090.5,-894.66 1090.5,-894.66 1090.5,-898.49 1086.67,-902.33 1082.83,-902.33"/>
<text text-anchor="middle" x="1001.5" y="-887.13" font-family="Arial" font-size="14.00" fill="#c6c5fe">../../dom/modules/assign.js</text>
</g>
<!-- ../../fn/modules/curry.js -->
<g id="node2" class="node">
<title>../../fn/modules/curry.js</title>
<path fill="none" stroke="#c6c5fe" d="M2068.83,-605.33C2068.83,-605.33 1932.17,-605.33 1932.17,-605.33 1928.33,-605.33 1924.5,-601.49 1924.5,-597.66 1924.5,-597.66 1924.5,-589.99 1924.5,-589.99 1924.5,-586.16 1928.33,-582.33 1932.17,-582.33 1932.17,-582.33 2068.83,-582.33 2068.83,-582.33 2072.67,-582.33 2076.5,-586.16 2076.5,-589.99 2076.5,-589.99 2076.5,-597.66 2076.5,-597.66 2076.5,-601.49 2072.67,-605.33 2068.83,-605.33"/>
<text text-anchor="middle" x="2000.5" y="-590.13" font-family="Arial" font-size="14.00" fill="#c6c5fe">../../fn/modules/curry.js</text>
</g>
<!-- ../../dom/modules/assign.js&#45;&gt;../../fn/modules/curry.js -->
<g id="edge1" class="edge">
<title>../../dom/modules/assign.js&#45;&gt;../../fn/modules/curry.js</title>
<path fill="none" stroke="#757575" d="M1090.82,-901.53C1105.23,-902.9 1120.01,-904.08 1134,-904.83 1470.52,-922.69 1623.3,-1033.39 1888,-824.83 1957.31,-770.21 1986.13,-661.74 1995.61,-615.51"/>
<polygon fill="#757575" stroke="#757575" points="1999.1,-615.89 1997.57,-605.41 1992.23,-614.56 1999.1,-615.89"/>
</g>
<!-- ../../fn/modules/id.js -->
<g id="node3" class="node">
<title>../../fn/modules/id.js</title>
<path fill="none" stroke="#cfffac" d="M1319.33,-980.33C1319.33,-980.33 1200.67,-980.33 1200.67,-980.33 1196.83,-980.33 1193,-976.49 1193,-972.66 1193,-972.66 1193,-964.99 1193,-964.99 1193,-961.16 1196.83,-957.33 1200.67,-957.33 1200.67,-957.33 1319.33,-957.33 1319.33,-957.33 1323.17,-957.33 1327,-961.16 1327,-964.99 1327,-964.99 1327,-972.66 1327,-972.66 1327,-976.49 1323.17,-980.33 1319.33,-980.33"/>
<text text-anchor="middle" x="1260" y="-965.13" font-family="Arial" font-size="14.00" fill="#cfffac">../../fn/modules/id.js</text>
</g>
<!-- ../../dom/modules/assign.js&#45;&gt;../../fn/modules/id.js -->
<g id="edge2" class="edge">
<title>../../dom/modules/assign.js&#45;&gt;../../fn/modules/id.js</title>
<path fill="none" stroke="#757575" d="M1058.26,-902.39C1071.62,-906.14 1085.6,-910.9 1098,-916.83 1115.81,-925.33 1115.94,-934.86 1134,-942.83 1149.2,-949.53 1166.21,-954.53 1182.68,-958.26"/>
<polygon fill="#757575" stroke="#757575" points="1182.32,-961.77 1192.83,-960.42 1183.78,-954.92 1182.32,-961.77"/>
</g>
<!-- ../../fn/modules/noop.js -->
<g id="node4" class="node">
<title>../../fn/modules/noop.js</title>
<path fill="none" stroke="#cfffac" d="M2069.33,-429.33C2069.33,-429.33 1931.67,-429.33 1931.67,-429.33 1927.83,-429.33 1924,-425.49 1924,-421.66 1924,-421.66 1924,-413.99 1924,-413.99 1924,-410.16 1927.83,-406.33 1931.67,-406.33 1931.67,-406.33 2069.33,-406.33 2069.33,-406.33 2073.17,-406.33 2077,-410.16 2077,-413.99 2077,-413.99 2077,-421.66 2077,-421.66 2077,-425.49 2073.17,-429.33 2069.33,-429.33"/>
<text text-anchor="middle" x="2000.5" y="-414.13" font-family="Arial" font-size="14.00" fill="#cfffac">../../fn/modules/noop.js</text>
</g>
<!-- ../../dom/modules/assign.js&#45;&gt;../../fn/modules/noop.js -->
<g id="edge3" class="edge">
<title>../../dom/modules/assign.js&#45;&gt;../../fn/modules/noop.js</title>
<path fill="none" stroke="#757575" d="M1090.51,-890.99C1168.52,-890.05 1285.34,-886.03 1386,-871.83 1414.37,-867.82 1868.08,-774.42 1888,-753.83 1944.72,-695.18 1898.02,-651.16 1924,-573.83 1941.04,-523.09 1970.86,-467.54 1987.46,-438.36"/>
<polygon fill="#757575" stroke="#757575" points="1990.6,-439.94 1992.55,-429.52 1984.53,-436.44 1990.6,-439.94"/>
</g>
<!-- ../../fn/modules/overload.js -->
<g id="node5" class="node">
<title>../../fn/modules/overload.js</title>
<path fill="none" stroke="#cfffac" d="M1339.83,-862.33C1339.83,-862.33 1180.17,-862.33 1180.17,-862.33 1176.33,-862.33 1172.5,-858.49 1172.5,-854.66 1172.5,-854.66 1172.5,-846.99 1172.5,-846.99 1172.5,-843.16 1176.33,-839.33 1180.17,-839.33 1180.17,-839.33 1339.83,-839.33 1339.83,-839.33 1343.67,-839.33 1347.5,-843.16 1347.5,-846.99 1347.5,-846.99 1347.5,-854.66 1347.5,-854.66 1347.5,-858.49 1343.67,-862.33 1339.83,-862.33"/>
<text text-anchor="middle" x="1260" y="-847.13" font-family="Arial" font-size="14.00" fill="#cfffac">../../fn/modules/overload.js</text>
</g>
<!-- ../../dom/modules/assign.js&#45;&gt;../../fn/modules/overload.js -->
<g id="edge4" class="edge">
<title>../../dom/modules/assign.js&#45;&gt;../../fn/modules/overload.js</title>
<path fill="none" stroke="#757575" d="M1076.35,-879.31C1107.2,-874.5 1143.2,-868.88 1175.05,-863.92"/>
<polygon fill="#757575" stroke="#757575" points="1175.89,-867.33 1185.23,-862.33 1174.81,-860.41 1175.89,-867.33"/>
</g>
<!-- ../../fn/modules/cache.js -->
<g id="node16" class="node">
<title>../../fn/modules/cache.js</title>
<path fill="none" stroke="#cfffac" d="M2264.33,-605.33C2264.33,-605.33 2120.67,-605.33 2120.67,-605.33 2116.83,-605.33 2113,-601.49 2113,-597.66 2113,-597.66 2113,-589.99 2113,-589.99 2113,-586.16 2116.83,-582.33 2120.67,-582.33 2120.67,-582.33 2264.33,-582.33 2264.33,-582.33 2268.17,-582.33 2272,-586.16 2272,-589.99 2272,-589.99 2272,-597.66 2272,-597.66 2272,-601.49 2268.17,-605.33 2264.33,-605.33"/>
<text text-anchor="middle" x="2192.5" y="-590.13" font-family="Arial" font-size="14.00" fill="#cfffac">../../fn/modules/cache.js</text>
</g>
<!-- ../../fn/modules/curry.js&#45;&gt;../../fn/modules/cache.js -->
<g id="edge36" class="edge">
<title>../../fn/modules/curry.js&#45;&gt;../../fn/modules/cache.js</title>
<path fill="none" stroke="#757575" d="M2076.59,-593.83C2085.17,-593.83 2093.97,-593.83 2102.7,-593.83"/>
<polygon fill="#757575" stroke="#757575" points="2102.9,-597.33 2112.9,-593.83 2102.9,-590.33 2102.9,-597.33"/>
</g>
<!-- ../../dom/modules/create.js -->
<g id="node6" class="node">
<title>../../dom/modules/create.js</title>
<path fill="none" stroke="#c6c5fe" d="M828.83,-862.33C828.83,-862.33 668.17,-862.33 668.17,-862.33 664.33,-862.33 660.5,-858.49 660.5,-854.66 660.5,-854.66 660.5,-846.99 660.5,-846.99 660.5,-843.16 664.33,-839.33 668.17,-839.33 668.17,-839.33 828.83,-839.33 828.83,-839.33 832.67,-839.33 836.5,-843.16 836.5,-846.99 836.5,-846.99 836.5,-854.66 836.5,-854.66 836.5,-858.49 832.67,-862.33 828.83,-862.33"/>
<text text-anchor="middle" x="748.5" y="-847.13" font-family="Arial" font-size="14.00" fill="#c6c5fe">../../dom/modules/create.js</text>
</g>
<!-- ../../dom/modules/create.js&#45;&gt;../../dom/modules/assign.js -->
<g id="edge5" class="edge">
<title>../../dom/modules/create.js&#45;&gt;../../dom/modules/assign.js</title>
<path fill="none" stroke="#757575" d="M821.76,-862.34C851.95,-867.15 887.18,-872.77 918.35,-877.73"/>
<polygon fill="#757575" stroke="#757575" points="917.89,-881.2 928.31,-879.32 918.99,-874.29 917.89,-881.2"/>
</g>
<!-- ../../dom/modules/create.js&#45;&gt;../../fn/modules/id.js -->
<g id="edge6" class="edge">
<title>../../dom/modules/create.js&#45;&gt;../../fn/modules/id.js</title>
<path fill="none" stroke="#757575" d="M773.99,-862.33C804.16,-876.06 857.3,-898.79 905,-911.83 999.06,-937.53 1110.54,-953.12 1182.91,-961.35"/>
<polygon fill="#757575" stroke="#757575" points="1182.53,-964.82 1192.86,-962.46 1183.31,-957.87 1182.53,-964.82"/>
</g>
<!-- ../../dom/modules/create.js&#45;&gt;../../fn/modules/overload.js -->
<g id="edge7" class="edge">
<title>../../dom/modules/create.js&#45;&gt;../../fn/modules/overload.js</title>
<path fill="none" stroke="#757575" d="M836.51,-850.83C927,-850.83 1068.33,-850.83 1162.28,-850.83"/>
<polygon fill="#757575" stroke="#757575" points="1162.35,-854.33 1172.35,-850.83 1162.35,-847.33 1162.35,-854.33"/>
</g>
<!-- ../../fn/modules/to&#45;type.js -->
<g id="node7" class="node">
<title>../../fn/modules/to&#45;type.js</title>
<path fill="none" stroke="#cfffac" d="M1075.83,-822.33C1075.83,-822.33 927.17,-822.33 927.17,-822.33 923.33,-822.33 919.5,-818.49 919.5,-814.66 919.5,-814.66 919.5,-806.99 919.5,-806.99 919.5,-803.16 923.33,-799.33 927.17,-799.33 927.17,-799.33 1075.83,-799.33 1075.83,-799.33 1079.67,-799.33 1083.5,-803.16 1083.5,-806.99 1083.5,-806.99 1083.5,-814.66 1083.5,-814.66 1083.5,-818.49 1079.67,-822.33 1075.83,-822.33"/>
<text text-anchor="middle" x="1001.5" y="-807.13" font-family="Arial" font-size="14.00" fill="#cfffac">../../fn/modules/to&#45;type.js</text>
</g>
<!-- ../../dom/modules/create.js&#45;&gt;../../fn/modules/to&#45;type.js -->
<g id="edge8" class="edge">
<title>../../dom/modules/create.js&#45;&gt;../../fn/modules/to&#45;type.js</title>
<path fill="none" stroke="#757575" d="M821.76,-839.31C851.95,-834.5 887.18,-828.88 918.35,-823.92"/>
<polygon fill="#757575" stroke="#757575" points="918.99,-827.36 928.31,-822.33 917.89,-820.45 918.99,-827.36"/>
</g>
<!-- ../../dom/modules/element.js -->
<g id="node8" class="node">
<title>../../dom/modules/element.js</title>
<path fill="none" stroke="#c6c5fe" d="M573.83,-862.33C573.83,-862.33 401.17,-862.33 401.17,-862.33 397.33,-862.33 393.5,-858.49 393.5,-854.66 393.5,-854.66 393.5,-846.99 393.5,-846.99 393.5,-843.16 397.33,-839.33 401.17,-839.33 401.17,-839.33 573.83,-839.33 573.83,-839.33 577.67,-839.33 581.5,-843.16 581.5,-846.99 581.5,-846.99 581.5,-854.66 581.5,-854.66 581.5,-858.49 577.67,-862.33 573.83,-862.33"/>
<text text-anchor="middle" x="487.5" y="-847.13" font-family="Arial" font-size="14.00" fill="#c6c5fe">../../dom/modules/element.js</text>
</g>
<!-- ../../dom/modules/element.js&#45;&gt;../../dom/modules/create.js -->
<g id="edge9" class="edge">
<title>../../dom/modules/element.js&#45;&gt;../../dom/modules/create.js</title>
<path fill="none" stroke="#757575" d="M581.64,-850.83C603.9,-850.83 627.72,-850.83 650.16,-850.83"/>
<polygon fill="#757575" stroke="#757575" points="650.37,-854.33 660.37,-850.83 650.37,-847.33 650.37,-854.33"/>
</g>
<!-- ../../dom/modules/request&#45;template.js -->
<g id="node9" class="node">
<title>../../dom/modules/request&#45;template.js</title>
<path fill="none" stroke="#c6c5fe" d="M861.33,-1070.33C861.33,-1070.33 635.67,-1070.33 635.67,-1070.33 631.83,-1070.33 628,-1066.49 628,-1062.66 628,-1062.66 628,-1054.99 628,-1054.99 628,-1051.16 631.83,-1047.33 635.67,-1047.33 635.67,-1047.33 861.33,-1047.33 861.33,-1047.33 865.17,-1047.33 869,-1051.16 869,-1054.99 869,-1054.99 869,-1062.66 869,-1062.66 869,-1066.49 865.17,-1070.33 861.33,-1070.33"/>
<text text-anchor="middle" x="748.5" y="-1055.13" font-family="Arial" font-size="14.00" fill="#c6c5fe">../../dom/modules/request&#45;template.js</text>
</g>
<!-- ../../dom/modules/element.js&#45;&gt;../../dom/modules/request&#45;template.js -->
<g id="edge10" class="edge">
<title>../../dom/modules/element.js&#45;&gt;../../dom/modules/request&#45;template.js</title>
<path fill="none" stroke="#757575" d="M499.4,-862.56C522.07,-886.62 576.46,-942.65 628,-982.83 657.06,-1005.48 693.05,-1027.65 717.89,-1042.15"/>
<polygon fill="#757575" stroke="#757575" points="716.42,-1045.34 726.83,-1047.31 719.92,-1039.28 716.42,-1045.34"/>
</g>
<!-- ../../dom/modules/request&#45;template.js&#45;&gt;../../fn/modules/cache.js -->
<g id="edge28" class="edge">
<title>../../dom/modules/request&#45;template.js&#45;&gt;../../fn/modules/cache.js</title>
<path fill="none" stroke="#757575" d="M869.06,-1069.85C972.23,-1078.41 1125.31,-1088.83 1259,-1088.83 1259,-1088.83 1259,-1088.83 1771,-1088.83 2023.44,-1088.83 2155.94,-710.27 2185.22,-615.26"/>
<polygon fill="#757575" stroke="#757575" points="2188.61,-616.16 2188.15,-605.57 2181.9,-614.13 2188.61,-616.16"/>
</g>
<!-- ../../dom/modules/parse.js -->
<g id="node21" class="node">
<title>../../dom/modules/parse.js</title>
<path fill="none" stroke="#cfffac" d="M1080.33,-1140.33C1080.33,-1140.33 922.67,-1140.33 922.67,-1140.33 918.83,-1140.33 915,-1136.49 915,-1132.66 915,-1132.66 915,-1124.99 915,-1124.99 915,-1121.16 918.83,-1117.33 922.67,-1117.33 922.67,-1117.33 1080.33,-1117.33 1080.33,-1117.33 1084.17,-1117.33 1088,-1121.16 1088,-1124.99 1088,-1124.99 1088,-1132.66 1088,-1132.66 1088,-1136.49 1084.17,-1140.33 1080.33,-1140.33"/>
<text text-anchor="middle" x="1001.5" y="-1125.13" font-family="Arial" font-size="14.00" fill="#cfffac">../../dom/modules/parse.js</text>
</g>
<!-- ../../dom/modules/request&#45;template.js&#45;&gt;../../dom/modules/parse.js -->
<g id="edge26" class="edge">
<title>../../dom/modules/request&#45;template.js&#45;&gt;../../dom/modules/parse.js</title>
<path fill="none" stroke="#757575" d="M789.74,-1070.33C821.12,-1079.27 865.8,-1091.94 905,-1102.83 918.86,-1106.67 933.86,-1110.78 947.78,-1114.57"/>
<polygon fill="#757575" stroke="#757575" points="947.12,-1118.02 957.69,-1117.27 948.96,-1111.27 947.12,-1118.02"/>
</g>
<!-- ../../dom/modules/request.js -->
<g id="node22" class="node">
<title>../../dom/modules/request.js</title>
<path fill="none" stroke="#c6c5fe" d="M1085.83,-1040.33C1085.83,-1040.33 917.17,-1040.33 917.17,-1040.33 913.33,-1040.33 909.5,-1036.49 909.5,-1032.66 909.5,-1032.66 909.5,-1024.99 909.5,-1024.99 909.5,-1021.16 913.33,-1017.33 917.17,-1017.33 917.17,-1017.33 1085.83,-1017.33 1085.83,-1017.33 1089.67,-1017.33 1093.5,-1021.16 1093.5,-1024.99 1093.5,-1024.99 1093.5,-1032.66 1093.5,-1032.66 1093.5,-1036.49 1089.67,-1040.33 1085.83,-1040.33"/>
<text text-anchor="middle" x="1001.5" y="-1025.13" font-family="Arial" font-size="14.00" fill="#c6c5fe">../../dom/modules/request.js</text>
</g>
<!-- ../../dom/modules/request&#45;template.js&#45;&gt;../../dom/modules/request.js -->
<g id="edge27" class="edge">
<title>../../dom/modules/request&#45;template.js&#45;&gt;../../dom/modules/request.js</title>
<path fill="none" stroke="#757575" d="M845.83,-1047.31C863.28,-1045.23 881.52,-1043.05 899.11,-1040.94"/>
<polygon fill="#757575" stroke="#757575" points="899.87,-1044.38 909.38,-1039.72 899.04,-1037.43 899.87,-1044.38"/>
</g>
<!-- ../../dom/modules/event.js -->
<g id="node10" class="node">
<title>../../dom/modules/event.js</title>
<path fill="none" stroke="#cfffac" d="M1079.83,-249.33C1079.83,-249.33 923.17,-249.33 923.17,-249.33 919.33,-249.33 915.5,-245.49 915.5,-241.66 915.5,-241.66 915.5,-233.99 915.5,-233.99 915.5,-230.16 919.33,-226.33 923.17,-226.33 923.17,-226.33 1079.83,-226.33 1079.83,-226.33 1083.67,-226.33 1087.5,-230.16 1087.5,-233.99 1087.5,-233.99 1087.5,-241.66 1087.5,-241.66 1087.5,-245.49 1083.67,-249.33 1079.83,-249.33"/>
<text text-anchor="middle" x="1001.5" y="-234.13" font-family="Arial" font-size="14.00" fill="#cfffac">../../dom/modules/event.js</text>
</g>
<!-- ../../dom/modules/events.js -->
<g id="node11" class="node">
<title>../../dom/modules/events.js</title>
<path fill="none" stroke="#c6c5fe" d="M830.33,-349.33C830.33,-349.33 666.67,-349.33 666.67,-349.33 662.83,-349.33 659,-345.49 659,-341.66 659,-341.66 659,-333.99 659,-333.99 659,-330.16 662.83,-326.33 666.67,-326.33 666.67,-326.33 830.33,-326.33 830.33,-326.33 834.17,-326.33 838,-330.16 838,-333.99 838,-333.99 838,-341.66 838,-341.66 838,-345.49 834.17,-349.33 830.33,-349.33"/>
<text text-anchor="middle" x="748.5" y="-334.13" font-family="Arial" font-size="14.00" fill="#c6c5fe">../../dom/modules/events.js</text>
</g>
<!-- ../../dom/modules/events.js&#45;&gt;../../dom/modules/event.js -->
<g id="edge11" class="edge">
<title>../../dom/modules/events.js&#45;&gt;../../dom/modules/event.js</title>
<path fill="none" stroke="#757575" d="M780.35,-326.29C804.87,-316.73 839.78,-302.26 869,-286.83 885.79,-277.96 887.64,-271.52 905,-263.83 915.1,-259.35 926.16,-255.48 937.05,-252.2"/>
<polygon fill="#757575" stroke="#757575" points="938.33,-255.47 946.97,-249.34 936.39,-248.74 938.33,-255.47"/>
</g>
<!-- ../../dom/modules/features.js -->
<g id="node12" class="node">
<title>../../dom/modules/features.js</title>
<path fill="none" stroke="#c6c5fe" d="M1087.83,-370.33C1087.83,-370.33 915.17,-370.33 915.17,-370.33 911.33,-370.33 907.5,-366.49 907.5,-362.66 907.5,-362.66 907.5,-354.99 907.5,-354.99 907.5,-351.16 911.33,-347.33 915.17,-347.33 915.17,-347.33 1087.83,-347.33 1087.83,-347.33 1091.67,-347.33 1095.5,-351.16 1095.5,-354.99 1095.5,-354.99 1095.5,-362.66 1095.5,-362.66 1095.5,-366.49 1091.67,-370.33 1087.83,-370.33"/>
<text text-anchor="middle" x="1001.5" y="-355.13" font-family="Arial" font-size="14.00" fill="#c6c5fe">../../dom/modules/features.js</text>
</g>
<!-- ../../dom/modules/events.js&#45;&gt;../../dom/modules/features.js -->
<g id="edge12" class="edge">
<title>../../dom/modules/events.js&#45;&gt;../../dom/modules/features.js</title>
<path fill="none" stroke="#757575" d="M838.35,-345.26C857.32,-346.85 877.52,-348.54 896.99,-350.17"/>
<polygon fill="#757575" stroke="#757575" points="896.84,-353.67 907.1,-351.01 897.42,-346.69 896.84,-353.67"/>
</g>
<!-- ../../fn/modules/stream.js -->
<g id="node13" class="node">
<title>../../fn/modules/stream.js</title>
<path fill="none" stroke="#c6c5fe" d="M1334.83,-209.33C1334.83,-209.33 1185.17,-209.33 1185.17,-209.33 1181.33,-209.33 1177.5,-205.49 1177.5,-201.66 1177.5,-201.66 1177.5,-193.99 1177.5,-193.99 1177.5,-190.16 1181.33,-186.33 1185.17,-186.33 1185.17,-186.33 1334.83,-186.33 1334.83,-186.33 1338.67,-186.33 1342.5,-190.16 1342.5,-193.99 1342.5,-193.99 1342.5,-201.66 1342.5,-201.66 1342.5,-205.49 1338.67,-209.33 1334.83,-209.33"/>
<text text-anchor="middle" x="1260" y="-194.13" font-family="Arial" font-size="14.00" fill="#c6c5fe">../../fn/modules/stream.js</text>
</g>
<!-- ../../dom/modules/events.js&#45;&gt;../../fn/modules/stream.js -->
<g id="edge13" class="edge">
<title>../../dom/modules/events.js&#45;&gt;../../fn/modules/stream.js</title>
<path fill="none" stroke="#757575" d="M791.92,-326.27C823.1,-317.94 866.56,-306.65 905,-297.83 990.29,-278.25 1013.92,-283.08 1098,-258.83 1141.86,-246.18 1190.68,-226.91 1222.94,-213.43"/>
<polygon fill="#757575" stroke="#757575" points="1224.54,-216.55 1232.39,-209.44 1221.82,-210.1 1224.54,-216.55"/>
</g>
<!-- ../../fn/modules/stream.wait.js -->
<g id="node14" class="node">
<title>../../fn/modules/stream.wait.js</title>
<path fill="none" stroke="#c6c5fe" d="M1090.33,-329.33C1090.33,-329.33 912.67,-329.33 912.67,-329.33 908.83,-329.33 905,-325.49 905,-321.66 905,-321.66 905,-313.99 905,-313.99 905,-310.16 908.83,-306.33 912.67,-306.33 912.67,-306.33 1090.33,-306.33 1090.33,-306.33 1094.17,-306.33 1098,-310.16 1098,-313.99 1098,-313.99 1098,-321.66 1098,-321.66 1098,-325.49 1094.17,-329.33 1090.33,-329.33"/>
<text text-anchor="middle" x="1001.5" y="-314.13" font-family="Arial" font-size="14.00" fill="#c6c5fe">../../fn/modules/stream.wait.js</text>
</g>
<!-- ../../dom/modules/events.js&#45;&gt;../../fn/modules/stream.wait.js -->
<g id="edge14" class="edge">
<title>../../dom/modules/events.js&#45;&gt;../../fn/modules/stream.wait.js</title>
<path fill="none" stroke="#757575" d="M838.35,-330.75C856.64,-329.29 876.06,-327.74 894.88,-326.24"/>
<polygon fill="#757575" stroke="#757575" points="895.27,-329.72 904.96,-325.44 894.71,-322.74 895.27,-329.72"/>
</g>
<!-- ../../dom/modules/prefix.js -->
<g id="node15" class="node">
<title>../../dom/modules/prefix.js</title>
<path fill="none" stroke="#cfffac" d="M1338.33,-350.33C1338.33,-350.33 1181.67,-350.33 1181.67,-350.33 1177.83,-350.33 1174,-346.49 1174,-342.66 1174,-342.66 1174,-334.99 1174,-334.99 1174,-331.16 1177.83,-327.33 1181.67,-327.33 1181.67,-327.33 1338.33,-327.33 1338.33,-327.33 1342.17,-327.33 1346,-331.16 1346,-334.99 1346,-334.99 1346,-342.66 1346,-342.66 1346,-346.49 1342.17,-350.33 1338.33,-350.33"/>
<text text-anchor="middle" x="1260" y="-335.13" font-family="Arial" font-size="14.00" fill="#cfffac">../../dom/modules/prefix.js</text>
</g>
<!-- ../../dom/modules/features.js&#45;&gt;../../dom/modules/prefix.js -->
<g id="edge15" class="edge">
<title>../../dom/modules/features.js&#45;&gt;../../dom/modules/prefix.js</title>
<path fill="none" stroke="#757575" d="M1095.83,-351.55C1117.94,-349.82 1141.55,-347.98 1163.74,-346.25"/>
<polygon fill="#757575" stroke="#757575" points="1164.13,-349.73 1173.83,-345.47 1163.59,-342.75 1164.13,-349.73"/>
</g>
<!-- ../../dom/modules/features.js&#45;&gt;../../fn/modules/cache.js -->
<g id="edge16" class="edge">
<title>../../dom/modules/features.js&#45;&gt;../../fn/modules/cache.js</title>
<path fill="none" stroke="#757575" d="M1061.06,-370.4C1260.07,-409.73 1909.85,-538.16 2123.05,-580.3"/>
<polygon fill="#757575" stroke="#757575" points="2122.68,-583.79 2133.17,-582.3 2124.04,-576.92 2122.68,-583.79"/>
</g>
<!-- ../../fn/modules/stream.js&#45;&gt;../../fn/modules/noop.js -->
<g id="edge56" class="edge">
<title>../../fn/modules/stream.js&#45;&gt;../../fn/modules/noop.js</title>
<path fill="none" stroke="#757575" d="M1342.69,-207.86C1357.63,-211.61 1372.69,-216.76 1386,-223.83 1405.71,-234.29 1402.1,-248.72 1422,-258.83 1499.98,-298.43 1540.88,-247.04 1616,-291.83 1638.3,-305.12 1630.09,-323.89 1652,-337.83 1675.31,-352.65 1835.05,-385.7 1929.64,-404.34"/>
<polygon fill="#757575" stroke="#757575" points="1929.23,-407.83 1939.71,-406.32 1930.58,-400.96 1929.23,-407.83"/>
</g>
<!-- ../../fn/modules/nothing.js -->
<g id="node24" class="node">
<title>../../fn/modules/nothing.js</title>
<path fill="none" stroke="#c6c5fe" d="M1845.83,-449.33C1845.83,-449.33 1694.17,-449.33 1694.17,-449.33 1690.33,-449.33 1686.5,-445.49 1686.5,-441.66 1686.5,-441.66 1686.5,-433.99 1686.5,-433.99 1686.5,-430.16 1690.33,-426.33 1694.17,-426.33 1694.17,-426.33 1845.83,-426.33 1845.83,-426.33 1849.67,-426.33 1853.5,-430.16 1853.5,-433.99 1853.5,-433.99 1853.5,-441.66 1853.5,-441.66 1853.5,-445.49 1849.67,-449.33 1845.83,-449.33"/>
<text text-anchor="middle" x="1770" y="-434.13" font-family="Arial" font-size="14.00" fill="#c6c5fe">../../fn/modules/nothing.js</text>
</g>
<!-- ../../fn/modules/stream.js&#45;&gt;../../fn/modules/nothing.js -->
<g id="edge57" class="edge">
<title>../../fn/modules/stream.js&#45;&gt;../../fn/modules/nothing.js</title>
<path fill="none" stroke="#757575" d="M1342.78,-204.12C1358.2,-208.16 1373.42,-214.37 1386,-223.83 1413.34,-244.37 1394.85,-271.04 1422,-291.83 1492.2,-345.58 1539.17,-292.07 1616,-335.83 1636.22,-347.34 1633.57,-359.63 1652,-373.83 1677.26,-393.29 1709.2,-410.33 1733.33,-421.93"/>
<polygon fill="#757575" stroke="#757575" points="1731.95,-425.15 1742.49,-426.25 1734.94,-418.82 1731.95,-425.15"/>
</g>
<!-- ../../fn/modules/fn.js -->
<g id="node34" class="node">
<title>../../fn/modules/fn.js</title>
<path fill="none" stroke="#c6c5fe" d="M1578.33,-249.33C1578.33,-249.33 1459.67,-249.33 1459.67,-249.33 1455.83,-249.33 1452,-245.49 1452,-241.66 1452,-241.66 1452,-233.99 1452,-233.99 1452,-230.16 1455.83,-226.33 1459.67,-226.33 1459.67,-226.33 1578.33,-226.33 1578.33,-226.33 1582.17,-226.33 1586,-230.16 1586,-233.99 1586,-233.99 1586,-241.66 1586,-241.66 1586,-245.49 1582.17,-249.33 1578.33,-249.33"/>
<text text-anchor="middle" x="1519" y="-234.13" font-family="Arial" font-size="14.00" fill="#c6c5fe">../../fn/modules/fn.js</text>
</g>
<!-- ../../fn/modules/stream.js&#45;&gt;../../fn/modules/fn.js -->
<g id="edge54" class="edge">
<title>../../fn/modules/stream.js&#45;&gt;../../fn/modules/fn.js</title>
<path fill="none" stroke="#757575" d="M1334.99,-209.34C1368.45,-214.55 1407.97,-220.7 1441.7,-225.95"/>
<polygon fill="#757575" stroke="#757575" points="1441.55,-229.47 1451.97,-227.55 1442.63,-222.55 1441.55,-229.47"/>
</g>
<!-- ../../fn/modules/to&#45;array.js -->
<g id="node37" class="node">
<title>../../fn/modules/to&#45;array.js</title>
<path fill="none" stroke="#cfffac" d="M1846.83,-129.33C1846.83,-129.33 1693.17,-129.33 1693.17,-129.33 1689.33,-129.33 1685.5,-125.49 1685.5,-121.66 1685.5,-121.66 1685.5,-113.99 1685.5,-113.99 1685.5,-110.16 1689.33,-106.33 1693.17,-106.33 1693.17,-106.33 1846.83,-106.33 1846.83,-106.33 1850.67,-106.33 1854.5,-110.16 1854.5,-113.99 1854.5,-113.99 1854.5,-121.66 1854.5,-121.66 1854.5,-125.49 1850.67,-129.33 1846.83,-129.33"/>
<text text-anchor="middle" x="1770" y="-114.13" font-family="Arial" font-size="14.00" fill="#cfffac">../../fn/modules/to&#45;array.js</text>
</g>
<!-- ../../fn/modules/stream.js&#45;&gt;../../fn/modules/to&#45;array.js -->
<g id="edge61" class="edge">
<title>../../fn/modules/stream.js&#45;&gt;../../fn/modules/to&#45;array.js</title>
<path fill="none" stroke="#757575" d="M1334.36,-209.36C1409.08,-217.63 1526.39,-220.8 1616,-177.83 1637.57,-167.48 1631.05,-149.37 1652,-137.83 1659.39,-133.75 1667.42,-130.47 1675.68,-127.83"/>
<polygon fill="#757575" stroke="#757575" points="1676.82,-131.14 1685.47,-125.02 1674.89,-124.41 1676.82,-131.14"/>
</g>
<!-- ../../fn/modules/lists/core.js -->
<g id="node39" class="node">
<title>../../fn/modules/lists/core.js</title>
<path fill="none" stroke="#c6c5fe" d="M1599.33,-128.33C1599.33,-128.33 1438.67,-128.33 1438.67,-128.33 1434.83,-128.33 1431,-124.49 1431,-120.66 1431,-120.66 1431,-112.99 1431,-112.99 1431,-109.16 1434.83,-105.33 1438.67,-105.33 1438.67,-105.33 1599.33,-105.33 1599.33,-105.33 1603.17,-105.33 1607,-109.16 1607,-112.99 1607,-112.99 1607,-120.66 1607,-120.66 1607,-124.49 1603.17,-128.33 1599.33,-128.33"/>
<text text-anchor="middle" x="1519" y="-113.13" font-family="Arial" font-size="14.00" fill="#c6c5fe">../../fn/modules/lists/core.js</text>
</g>
<!-- ../../fn/modules/stream.js&#45;&gt;../../fn/modules/lists/core.js -->
<g id="edge55" class="edge">
<title>../../fn/modules/stream.js&#45;&gt;../../fn/modules/lists/core.js</title>
<path fill="none" stroke="#757575" d="M1287.62,-186.26C1319.2,-172.89 1373.65,-150.93 1422,-136.83 1429.61,-134.61 1437.63,-132.53 1445.65,-130.62"/>
<polygon fill="#757575" stroke="#757575" points="1446.46,-134.03 1455.42,-128.38 1444.89,-127.21 1446.46,-134.03"/>
</g>
<!-- ../../fn/modules/now.js -->
<g id="node43" class="node">
<title>../../fn/modules/now.js</title>
<path fill="none" stroke="#cfffac" d="M1835.83,-88.33C1835.83,-88.33 1704.17,-88.33 1704.17,-88.33 1700.33,-88.33 1696.5,-84.49 1696.5,-80.66 1696.5,-80.66 1696.5,-72.99 1696.5,-72.99 1696.5,-69.16 1700.33,-65.33 1704.17,-65.33 1704.17,-65.33 1835.83,-65.33 1835.83,-65.33 1839.67,-65.33 1843.5,-69.16 1843.5,-72.99 1843.5,-72.99 1843.5,-80.66 1843.5,-80.66 1843.5,-84.49 1839.67,-88.33 1835.83,-88.33"/>
<text text-anchor="middle" x="1770" y="-73.13" font-family="Arial" font-size="14.00" fill="#cfffac">../../fn/modules/now.js</text>
</g>
<!-- ../../fn/modules/stream.js&#45;&gt;../../fn/modules/now.js -->
<g id="edge58" class="edge">
<title>../../fn/modules/stream.js&#45;&gt;../../fn/modules/now.js</title>
<path fill="none" stroke="#757575" d="M1274,-186.22C1299.93,-163.88 1360.86,-115.39 1422,-95.83 1508.95,-68 1614.33,-66.43 1685.99,-69.8"/>
<polygon fill="#757575" stroke="#757575" points="1686.14,-73.31 1696.31,-70.33 1686.5,-66.32 1686.14,-73.31"/>
</g>
<!-- ../../fn/modules/privates.js -->
<g id="node44" class="node">
<title>../../fn/modules/privates.js</title>
<path fill="none" stroke="#cfffac" d="M1596.33,-367.33C1596.33,-367.33 1441.67,-367.33 1441.67,-367.33 1437.83,-367.33 1434,-363.49 1434,-359.66 1434,-359.66 1434,-351.99 1434,-351.99 1434,-348.16 1437.83,-344.33 1441.67,-344.33 1441.67,-344.33 1596.33,-344.33 1596.33,-344.33 1600.17,-344.33 1604,-348.16 1604,-351.99 1604,-351.99 1604,-359.66 1604,-359.66 1604,-363.49 1600.17,-367.33 1596.33,-367.33"/>
<text text-anchor="middle" x="1519" y="-352.13" font-family="Arial" font-size="14.00" fill="#cfffac">../../fn/modules/privates.js</text>
</g>
<!-- ../../fn/modules/stream.js&#45;&gt;../../fn/modules/privates.js -->
<g id="edge59" class="edge">
<title>../../fn/modules/stream.js&#45;&gt;../../fn/modules/privates.js</title>
<path fill="none" stroke="#757575" d="M1342.72,-202.25C1358.51,-206.38 1373.88,-213.1 1386,-223.83 1423.27,-256.79 1385.73,-295.77 1422,-329.83 1426.09,-333.67 1430.69,-336.95 1435.6,-339.76"/>
<polygon fill="#757575" stroke="#757575" points="1434.23,-342.99 1444.74,-344.32 1437.36,-336.72 1434.23,-342.99"/>
</g>
<!-- ../../fn/modules/timer.js -->
<g id="node46" class="node">
<title>../../fn/modules/timer.js</title>
<path fill="none" stroke="#c6c5fe" d="M1587.83,-169.33C1587.83,-169.33 1450.17,-169.33 1450.17,-169.33 1446.33,-169.33 1442.5,-165.49 1442.5,-161.66 1442.5,-161.66 1442.5,-153.99 1442.5,-153.99 1442.5,-150.16 1446.33,-146.33 1450.17,-146.33 1450.17,-146.33 1587.83,-146.33 1587.83,-146.33 1591.67,-146.33 1595.5,-150.16 1595.5,-153.99 1595.5,-153.99 1595.5,-161.66 1595.5,-161.66 1595.5,-165.49 1591.67,-169.33 1587.83,-169.33"/>
<text text-anchor="middle" x="1519" y="-154.13" font-family="Arial" font-size="14.00" fill="#c6c5fe">../../fn/modules/timer.js</text>
</g>
<!-- ../../fn/modules/stream.js&#45;&gt;../../fn/modules/timer.js -->
<g id="edge60" class="edge">
<title>../../fn/modules/stream.js&#45;&gt;../../fn/modules/timer.js</title>
<path fill="none" stroke="#757575" d="M1334.99,-186.31C1365.9,-181.5 1401.97,-175.88 1433.88,-170.92"/>
<polygon fill="#757575" stroke="#757575" points="1434.74,-174.33 1444.09,-169.33 1433.67,-167.41 1434.74,-174.33"/>
</g>
<!-- ../../fn/modules/stream.wait.js&#45;&gt;../../fn/modules/stream.js -->
<g id="edge63" class="edge">
<title>../../fn/modules/stream.wait.js&#45;&gt;../../fn/modules/stream.js</title>
<path fill="none" stroke="#757575" d="M1054.88,-306.22C1069.12,-302.35 1084.37,-297.54 1098,-291.83 1148.8,-270.52 1203.22,-235.99 1233.99,-215.25"/>
<polygon fill="#757575" stroke="#757575" points="1236.08,-218.05 1242.38,-209.53 1232.15,-212.26 1236.08,-218.05"/>
</g>
<!-- ../../fn/modules/choke.js -->
<g id="node27" class="node">
<title>../../fn/modules/choke.js</title>
<path fill="none" stroke="#c6c5fe" d="M1590.83,-408.33C1590.83,-408.33 1447.17,-408.33 1447.17,-408.33 1443.33,-408.33 1439.5,-404.49 1439.5,-400.66 1439.5,-400.66 1439.5,-392.99 1439.5,-392.99 1439.5,-389.16 1443.33,-385.33 1447.17,-385.33 1447.17,-385.33 1590.83,-385.33 1590.83,-385.33 1594.67,-385.33 1598.5,-389.16 1598.5,-392.99 1598.5,-392.99 1598.5,-400.66 1598.5,-400.66 1598.5,-404.49 1594.67,-408.33 1590.83,-408.33"/>
<text text-anchor="middle" x="1519" y="-393.13" font-family="Arial" font-size="14.00" fill="#c6c5fe">../../fn/modules/choke.js</text>
</g>
<!-- ../../fn/modules/stream.wait.js&#45;&gt;../../fn/modules/choke.js -->
<g id="edge62" class="edge">
<title>../../fn/modules/stream.wait.js&#45;&gt;../../fn/modules/choke.js</title>
<path fill="none" stroke="#757575" d="M1041.49,-306.3C1114.47,-287.12 1274.37,-256.54 1386,-318.83 1412.49,-333.61 1397.14,-359.44 1422,-376.83 1424.57,-378.62 1427.26,-380.26 1430.05,-381.76"/>
<polygon fill="#757575" stroke="#757575" points="1428.71,-385 1439.25,-386.08 1431.69,-378.66 1428.71,-385"/>
</g>
<!-- ../../dom/modules/gestures.js -->
<g id="node17" class="node">
<title>../../dom/modules/gestures.js</title>
<path fill="none" stroke="#c6c5fe" d="M334.33,-402.33C334.33,-402.33 158.67,-402.33 158.67,-402.33 154.83,-402.33 151,-398.49 151,-394.66 151,-394.66 151,-386.99 151,-386.99 151,-383.16 154.83,-379.33 158.67,-379.33 158.67,-379.33 334.33,-379.33 334.33,-379.33 338.17,-379.33 342,-383.16 342,-386.99 342,-386.99 342,-394.66 342,-394.66 342,-398.49 338.17,-402.33 334.33,-402.33"/>
<text text-anchor="middle" x="246.5" y="-387.13" font-family="Arial" font-size="14.00" fill="#c6c5fe">../../dom/modules/gestures.js</text>
</g>
<!-- ../../dom/modules/gestures.js&#45;&gt;../../dom/modules/events.js -->
<g id="edge17" class="edge">
<title>../../dom/modules/gestures.js&#45;&gt;../../dom/modules/events.js</title>
<path fill="none" stroke="#757575" d="M342.13,-380.79C429.78,-371.5 559.63,-357.74 648.61,-348.31"/>
<polygon fill="#757575" stroke="#757575" points="649.13,-351.77 658.71,-347.24 648.4,-344.81 649.13,-351.77"/>
</g>
<!-- ../../dom/modules/gestures.js&#45;&gt;../../fn/modules/stream.js -->
<g id="edge19" class="edge">
<title>../../dom/modules/gestures.js&#45;&gt;../../fn/modules/stream.js</title>
<path fill="none" stroke="#757575" d="M256.06,-379.05C275.37,-353.53 325.18,-293.39 383,-267.83 648.15,-150.59 1002.32,-168.83 1167.27,-186.02"/>
<polygon fill="#757575" stroke="#757575" points="1167.06,-189.52 1177.38,-187.09 1167.8,-182.55 1167.06,-189.52"/>
</g>
<!-- ../../dom/modules/parse&#45;value.js -->
<g id="node18" class="node">
<title>../../dom/modules/parse&#45;value.js</title>
<path fill="none" stroke="#c6c5fe" d="M584.33,-602.33C584.33,-602.33 390.67,-602.33 390.67,-602.33 386.83,-602.33 383,-598.49 383,-594.66 383,-594.66 383,-586.99 383,-586.99 383,-583.16 386.83,-579.33 390.67,-579.33 390.67,-579.33 584.33,-579.33 584.33,-579.33 588.17,-579.33 592,-583.16 592,-586.99 592,-586.99 592,-594.66 592,-594.66 592,-598.49 588.17,-602.33 584.33,-602.33"/>
<text text-anchor="middle" x="487.5" y="-587.13" font-family="Arial" font-size="14.00" fill="#c6c5fe">../../dom/modules/parse&#45;value.js</text>
</g>
<!-- ../../dom/modules/gestures.js&#45;&gt;../../dom/modules/parse&#45;value.js -->
<g id="edge18" class="edge">
<title>../../dom/modules/gestures.js&#45;&gt;../../dom/modules/parse&#45;value.js</title>
<path fill="none" stroke="#757575" d="M261.38,-402.44C301.23,-435.79 416.21,-532 464.61,-572.51"/>
<polygon fill="#757575" stroke="#757575" points="462.66,-575.44 472.58,-579.18 467.16,-570.07 462.66,-575.44"/>
</g>
<!-- ../../dom/modules/parse&#45;value.js&#45;&gt;../../fn/modules/id.js -->
<g id="edge22" class="edge">
<title>../../dom/modules/parse&#45;value.js&#45;&gt;../../fn/modules/id.js</title>
<path fill="none" stroke="#757575" d="M492.75,-602.36C510.65,-650.36 581.14,-833.63 628,-871.83 789.23,-1003.24 1053.17,-994.11 1182.59,-979.87"/>
<polygon fill="#757575" stroke="#757575" points="1183.27,-983.32 1192.8,-978.71 1182.47,-976.36 1183.27,-983.32"/>
</g>
<!-- ../../dom/modules/parse&#45;value.js&#45;&gt;../../fn/modules/overload.js -->
<g id="edge23" class="edge">
<title>../../dom/modules/parse&#45;value.js&#45;&gt;../../fn/modules/overload.js</title>
<path fill="none" stroke="#757575" d="M504.91,-602.47C530.22,-619.97 580.83,-653.09 628,-672.83 745.56,-722.01 781.3,-716.21 905,-746.83 990.4,-767.96 1020.39,-749.38 1098,-790.83 1117.41,-801.19 1114.49,-814.64 1134,-824.83 1143.01,-829.53 1152.8,-833.38 1162.81,-836.53"/>
<polygon fill="#757575" stroke="#757575" points="1161.86,-839.9 1172.45,-839.35 1163.83,-833.19 1161.86,-839.9"/>
</g>
<!-- ../../dom/modules/parse&#45;value.js&#45;&gt;../../fn/modules/to&#45;type.js -->
<g id="edge25" class="edge">
<title>../../dom/modules/parse&#45;value.js&#45;&gt;../../fn/modules/to&#45;type.js</title>
<path fill="none" stroke="#757575" d="M520.5,-579.3C591.33,-556 763.45,-511.92 869,-590.83 914.28,-624.67 876.43,-664.04 905,-712.83 923.95,-745.18 955.83,-774.89 977.5,-792.92"/>
<polygon fill="#757575" stroke="#757575" points="975.29,-795.64 985.26,-799.24 979.71,-790.21 975.29,-795.64"/>
</g>
<!-- ../../dom/modules/parse&#45;value.js&#45;&gt;../../dom/modules/events.js -->
<g id="edge20" class="edge">
<title>../../dom/modules/parse&#45;value.js&#45;&gt;../../dom/modules/events.js</title>
<path fill="none" stroke="#757575" d="M500.3,-579.3C541.26,-539.29 677.52,-406.19 728.25,-356.63"/>
<polygon fill="#757575" stroke="#757575" points="730.92,-358.91 735.63,-349.42 726.03,-353.91 730.92,-358.91"/>
</g>
<!-- ../../dom/modules/style.js -->
<g id="node19" class="node">
<title>../../dom/modules/style.js</title>
<path fill="none" stroke="#cfffac" d="M824.33,-622.33C824.33,-622.33 672.67,-622.33 672.67,-622.33 668.83,-622.33 665,-618.49 665,-614.66 665,-614.66 665,-606.99 665,-606.99 665,-603.16 668.83,-599.33 672.67,-599.33 672.67,-599.33 824.33,-599.33 824.33,-599.33 828.17,-599.33 832,-603.16 832,-606.99 832,-606.99 832,-614.66 832,-614.66 832,-618.49 828.17,-622.33 824.33,-622.33"/>
<text text-anchor="middle" x="748.5" y="-607.13" font-family="Arial" font-size="14.00" fill="#cfffac">../../dom/modules/style.js</text>
</g>
<!-- ../../dom/modules/parse&#45;value.js&#45;&gt;../../dom/modules/style.js -->
<g id="edge21" class="edge">
<title>../../dom/modules/parse&#45;value.js&#45;&gt;../../dom/modules/style.js</title>
<path fill="none" stroke="#757575" d="M592.35,-598.85C612.94,-600.44 634.43,-602.09 654.62,-603.65"/>
<polygon fill="#757575" stroke="#757575" points="654.5,-607.15 664.74,-604.43 655.03,-600.18 654.5,-607.15"/>
</g>
<!-- ../../fn/modules/parse&#45;value.js -->
<g id="node20" class="node">
<title>../../fn/modules/parse&#45;value.js</title>
<path fill="none" stroke="#c6c5fe" d="M837.83,-663.33C837.83,-663.33 659.17,-663.33 659.17,-663.33 655.33,-663.33 651.5,-659.49 651.5,-655.66 651.5,-655.66 651.5,-647.99 651.5,-647.99 651.5,-644.16 655.33,-640.33 659.17,-640.33 659.17,-640.33 837.83,-640.33 837.83,-640.33 841.67,-640.33 845.5,-644.16 845.5,-647.99 845.5,-647.99 845.5,-655.66 845.5,-655.66 845.5,-659.49 841.67,-663.33 837.83,-663.33"/>
<text text-anchor="middle" x="748.5" y="-648.13" font-family="Arial" font-size="14.00" fill="#c6c5fe">../../fn/modules/parse&#45;value.js</text>
</g>
<!-- ../../dom/modules/parse&#45;value.js&#45;&gt;../../fn/modules/parse&#45;value.js -->
<g id="edge24" class="edge">
<title>../../dom/modules/parse&#45;value.js&#45;&gt;../../fn/modules/parse&#45;value.js</title>
<path fill="none" stroke="#757575" d="M523.45,-602.37C551.48,-611.31 591.96,-623.54 628,-631.83 638.44,-634.22 649.45,-636.46 660.4,-638.5"/>
<polygon fill="#757575" stroke="#757575" points="659.95,-641.98 670.41,-640.32 661.2,-635.09 659.95,-641.98"/>
</g>
<!-- ../../fn/modules/parse&#45;value.js&#45;&gt;../../fn/modules/curry.js -->
<g id="edge53" class="edge">
<title>../../fn/modules/parse&#45;value.js&#45;&gt;../../fn/modules/curry.js</title>
<path fill="none" stroke="#757575" d="M845.56,-658.92C853.76,-661.47 861.7,-664.71 869,-668.83 891.01,-681.23 883.2,-700.06 905,-712.83 980.16,-756.84 1023.08,-702.4 1098,-746.83 1120.03,-759.89 1110.92,-780.73 1134,-791.83 1253.8,-849.4 1790.1,-809.73 1888,-753.83 1943.39,-722.19 1977.64,-650.46 1991.87,-614.79"/>
<polygon fill="#757575" stroke="#757575" points="1995.18,-615.94 1995.5,-605.35 1988.64,-613.43 1995.18,-615.94"/>
</g>
<!-- ../../dom/modules/request.js&#45;&gt;../../fn/modules/id.js -->
<g id="edge30" class="edge">
<title>../../dom/modules/request.js&#45;&gt;../../fn/modules/id.js</title>
<path fill="none" stroke="#757575" d="M1045.01,-1017.28C1070.7,-1010.44 1104.15,-1001.79 1134,-994.83 1152.39,-990.54 1172.38,-986.23 1190.87,-982.38"/>
<polygon fill="#757575" stroke="#757575" points="1191.6,-985.8 1200.68,-980.35 1190.18,-978.95 1191.6,-985.8"/>
</g>
<!-- ../../fn/modules/choose.js -->
<g id="node23" class="node">
<title>../../fn/modules/choose.js</title>
<path fill="none" stroke="#c6c5fe" d="M1335.83,-1060.33C1335.83,-1060.33 1184.17,-1060.33 1184.17,-1060.33 1180.33,-1060.33 1176.5,-1056.49 1176.5,-1052.66 1176.5,-1052.66 1176.5,-1044.99 1176.5,-1044.99 1176.5,-1041.16 1180.33,-1037.33 1184.17,-1037.33 1184.17,-1037.33 1335.83,-1037.33 1335.83,-1037.33 1339.67,-1037.33 1343.5,-1041.16 1343.5,-1044.99 1343.5,-1044.99 1343.5,-1052.66 1343.5,-1052.66 1343.5,-1056.49 1339.67,-1060.33 1335.83,-1060.33"/>
<text text-anchor="middle" x="1260" y="-1045.13" font-family="Arial" font-size="14.00" fill="#c6c5fe">../../fn/modules/choose.js</text>
</g>
<!-- ../../dom/modules/request.js&#45;&gt;../../fn/modules/choose.js -->
<g id="edge29" class="edge">
<title>../../dom/modules/request.js&#45;&gt;../../fn/modules/choose.js</title>
<path fill="none" stroke="#757575" d="M1093.65,-1035.93C1117.22,-1037.77 1142.6,-1039.75 1166.25,-1041.59"/>
<polygon fill="#757575" stroke="#757575" points="1166.02,-1045.09 1176.26,-1042.37 1166.56,-1038.11 1166.02,-1045.09"/>
</g>
<!-- ../../dom/modules/request.js&#45;&gt;../../fn/modules/nothing.js -->
<g id="edge31" class="edge">
<title>../../dom/modules/request.js&#45;&gt;../../fn/modules/nothing.js</title>
<path fill="none" stroke="#757575" d="M1093.54,-1025.42C1200.31,-1020.53 1365.43,-1009.83 1386,-989.83 1475,-903.27 1350.26,-814.14 1422,-712.83 1477.82,-633.99 1539.86,-674.27 1616,-614.83 1676.54,-567.56 1731.13,-493.54 1755.52,-458.09"/>
<polygon fill="#757575" stroke="#757575" points="1758.59,-459.79 1761.32,-449.55 1752.8,-455.86 1758.59,-459.79"/>
</g>
<!-- ../../fn/modules/lists/rest.js -->
<g id="node28" class="node">
<title>../../fn/modules/lists/rest.js</title>
<path fill="none" stroke="#cfffac" d="M1597.83,-1060.33C1597.83,-1060.33 1440.17,-1060.33 1440.17,-1060.33 1436.33,-1060.33 1432.5,-1056.49 1432.5,-1052.66 1432.5,-1052.66 1432.5,-1044.99 1432.5,-1044.99 1432.5,-1041.16 1436.33,-1037.33 1440.17,-1037.33 1440.17,-1037.33 1597.83,-1037.33 1597.83,-1037.33 1601.67,-1037.33 1605.5,-1041.16 1605.5,-1044.99 1605.5,-1044.99 1605.5,-1052.66 1605.5,-1052.66 1605.5,-1056.49 1601.67,-1060.33 1597.83,-1060.33"/>
<text text-anchor="middle" x="1519" y="-1045.13" font-family="Arial" font-size="14.00" fill="#cfffac">../../fn/modules/lists/rest.js</text>
</g>
<!-- ../../fn/modules/choose.js&#45;&gt;../../fn/modules/lists/rest.js -->
<g id="edge35" class="edge">
<title>../../fn/modules/choose.js&#45;&gt;../../fn/modules/lists/rest.js</title>
<path fill="none" stroke="#757575" d="M1343.73,-1048.83C1368.73,-1048.83 1396.39,-1048.83 1422.17,-1048.83"/>
<polygon fill="#757575" stroke="#757575" points="1422.33,-1052.33 1432.33,-1048.83 1422.33,-1045.33 1422.33,-1052.33"/>
</g>
<!-- ../../fn/modules/nothing.js&#45;&gt;../../fn/modules/noop.js -->
<g id="edge52" class="edge">
<title>../../fn/modules/nothing.js&#45;&gt;../../fn/modules/noop.js</title>
<path fill="none" stroke="#757575" d="M1853.82,-430.58C1873.29,-428.87 1894.07,-427.05 1913.67,-425.34"/>
<polygon fill="#757575" stroke="#757575" points="1914.14,-428.81 1923.8,-424.45 1913.53,-421.84 1914.14,-428.81"/>
</g>
<!-- ../../dom/modules/trigger.js -->
<g id="node25" class="node">
<title>../../dom/modules/trigger.js</title>
<path fill="none" stroke="#c6c5fe" d="M567.83,-299.33C567.83,-299.33 407.17,-299.33 407.17,-299.33 403.33,-299.33 399.5,-295.49 399.5,-291.66 399.5,-291.66 399.5,-283.99 399.5,-283.99 399.5,-280.16 403.33,-276.33 407.17,-276.33 407.17,-276.33 567.83,-276.33 567.83,-276.33 571.67,-276.33 575.5,-280.16 575.5,-283.99 575.5,-283.99 575.5,-291.66 575.5,-291.66 575.5,-295.49 571.67,-299.33 567.83,-299.33"/>
<text text-anchor="middle" x="487.5" y="-284.13" font-family="Arial" font-size="14.00" fill="#c6c5fe">../../dom/modules/trigger.js</text>
</g>
<!-- ../../dom/modules/trigger.js&#45;&gt;../../dom/modules/event.js -->
<g id="edge32" class="edge">
<title>../../dom/modules/trigger.js&#45;&gt;../../dom/modules/event.js</title>
<path fill="none" stroke="#757575" d="M575.64,-279.32C667.22,-270.37 810.84,-256.35 905.33,-247.12"/>
<polygon fill="#757575" stroke="#757575" points="905.84,-250.59 915.46,-246.13 905.16,-243.62 905.84,-250.59"/>
</g>
<!-- ../../fn/modules/by.js -->
<g id="node26" class="node">
<title>../../fn/modules/by.js</title>
<path fill="none" stroke="#c6c5fe" d="M1579.83,-605.33C1579.83,-605.33 1458.17,-605.33 1458.17,-605.33 1454.33,-605.33 1450.5,-601.49 1450.5,-597.66 1450.5,-597.66 1450.5,-589.99 1450.5,-589.99 1450.5,-586.16 1454.33,-582.33 1458.17,-582.33 1458.17,-582.33 1579.83,-582.33 1579.83,-582.33 1583.67,-582.33 1587.5,-586.16 1587.5,-589.99 1587.5,-589.99 1587.5,-597.66 1587.5,-597.66 1587.5,-601.49 1583.67,-605.33 1579.83,-605.33"/>
<text text-anchor="middle" x="1519" y="-590.13" font-family="Arial" font-size="14.00" fill="#c6c5fe">../../fn/modules/by.js</text>
</g>
<!-- ../../fn/modules/by.js&#45;&gt;../../fn/modules/curry.js -->
<g id="edge33" class="edge">
<title>../../fn/modules/by.js&#45;&gt;../../fn/modules/curry.js</title>
<path fill="none" stroke="#757575" d="M1587.68,-593.83C1673.28,-593.83 1820.72,-593.83 1914.01,-593.83"/>
<polygon fill="#757575" stroke="#757575" points="1914.27,-597.33 1924.27,-593.83 1914.27,-590.33 1914.27,-597.33"/>
</g>
<!-- ../../fn/modules/choke.js&#45;&gt;../../fn/modules/noop.js -->
<g id="edge34" class="edge">
<title>../../fn/modules/choke.js&#45;&gt;../../fn/modules/noop.js</title>
<path fill="none" stroke="#757575" d="M1598.64,-400.27C1685.37,-404.07 1824.44,-410.16 1913.87,-414.08"/>
<polygon fill="#757575" stroke="#757575" points="1913.84,-417.58 1923.98,-414.52 1914.14,-410.58 1913.84,-417.58"/>
</g>
<!-- ../../fn/modules/compose.js -->
<g id="node29" class="node">
<title>../../fn/modules/compose.js</title>
<path fill="none" stroke="#cfffac" d="M1851.83,-252.33C1851.83,-252.33 1688.17,-252.33 1688.17,-252.33 1684.33,-252.33 1680.5,-248.49 1680.5,-244.66 1680.5,-244.66 1680.5,-236.99 1680.5,-236.99 1680.5,-233.16 1684.33,-229.33 1688.17,-229.33 1688.17,-229.33 1851.83,-229.33 1851.83,-229.33 1855.67,-229.33 1859.5,-233.16 1859.5,-236.99 1859.5,-236.99 1859.5,-244.66 1859.5,-244.66 1859.5,-248.49 1855.67,-252.33 1851.83,-252.33"/>
<text text-anchor="middle" x="1770" y="-237.13" font-family="Arial" font-size="14.00" fill="#cfffac">../../fn/modules/compose.js</text>
</g>
<!-- ../../fn/modules/denormalisers.js -->
<g id="node30" class="node">
<title>../../fn/modules/denormalisers.js</title>
<path fill="none" stroke="#c6c5fe" d="M1356.83,-782.33C1356.83,-782.33 1163.17,-782.33 1163.17,-782.33 1159.33,-782.33 1155.5,-778.49 1155.5,-774.66 1155.5,-774.66 1155.5,-766.99 1155.5,-766.99 1155.5,-763.16 1159.33,-759.33 1163.17,-759.33 1163.17,-759.33 1356.83,-759.33 1356.83,-759.33 1360.67,-759.33 1364.5,-763.16 1364.5,-766.99 1364.5,-766.99 1364.5,-774.66 1364.5,-774.66 1364.5,-778.49 1360.67,-782.33 1356.83,-782.33"/>
<text text-anchor="middle" x="1260" y="-767.13" font-family="Arial" font-size="14.00" fill="#c6c5fe">../../fn/modules/denormalisers.js</text>
</g>
<!-- ../../fn/modules/maths/cubic&#45;bezier.js -->
<g id="node31" class="node">
<title>../../fn/modules/maths/cubic&#45;bezier.js</title>
<path fill="none" stroke="#c6c5fe" d="M1880.33,-744.33C1880.33,-744.33 1659.67,-744.33 1659.67,-744.33 1655.83,-744.33 1652,-740.49 1652,-736.66 1652,-736.66 1652,-728.99 1652,-728.99 1652,-725.16 1655.83,-721.33 1659.67,-721.33 1659.67,-721.33 1880.33,-721.33 1880.33,-721.33 1884.17,-721.33 1888,-725.16 1888,-728.99 1888,-728.99 1888,-736.66 1888,-736.66 1888,-740.49 1884.17,-744.33 1880.33,-744.33"/>
<text text-anchor="middle" x="1770" y="-729.13" font-family="Arial" font-size="14.00" fill="#c6c5fe">../../fn/modules/maths/cubic&#45;bezier.js</text>
</g>
<!-- ../../fn/modules/denormalisers.js&#45;&gt;../../fn/modules/maths/cubic&#45;bezier.js -->
<g id="edge37" class="edge">
<title>../../fn/modules/denormalisers.js&#45;&gt;../../fn/modules/maths/cubic&#45;bezier.js</title>
<path fill="none" stroke="#757575" d="M1364.86,-768.27C1435.73,-765.94 1531.67,-761.62 1616,-753.83 1638.34,-751.76 1662.43,-748.8 1684.73,-745.76"/>
<polygon fill="#757575" stroke="#757575" points="1685.41,-749.19 1694.83,-744.35 1684.45,-742.26 1685.41,-749.19"/>
</g>
<!-- ../../fn/modules/normalisers.js -->
<g id="node32" class="node">
<title>../../fn/modules/normalisers.js</title>
<path fill="none" stroke="#c6c5fe" d="M1608.33,-744.33C1608.33,-744.33 1429.67,-744.33 1429.67,-744.33 1425.83,-744.33 1422,-740.49 1422,-736.66 1422,-736.66 1422,-728.99 1422,-728.99 1422,-725.16 1425.83,-721.33 1429.67,-721.33 1429.67,-721.33 1608.33,-721.33 1608.33,-721.33 1612.17,-721.33 1616,-725.16 1616,-728.99 1616,-728.99 1616,-736.66 1616,-736.66 1616,-740.49 1612.17,-744.33 1608.33,-744.33"/>
<text text-anchor="middle" x="1519" y="-729.13" font-family="Arial" font-size="14.00" fill="#c6c5fe">../../fn/modules/normalisers.js</text>
</g>
<!-- ../../fn/modules/denormalisers.js&#45;&gt;../../fn/modules/normalisers.js -->
<g id="edge38" class="edge">
<title>../../fn/modules/denormalisers.js&#45;&gt;../../fn/modules/normalisers.js</title>
<path fill="none" stroke="#757575" d="M1338.81,-759.32C1367.61,-755.06 1400.46,-750.21 1430.1,-745.82"/>
<polygon fill="#757575" stroke="#757575" points="1430.63,-749.28 1440.02,-744.36 1429.61,-742.36 1430.63,-749.28"/>
</g>
<!-- ../../fn/modules/types.js -->
<g id="node33" class="node">
<title>../../fn/modules/types.js</title>
<path fill="none" stroke="#c6c5fe" d="M1839.83,-666.33C1839.83,-666.33 1700.17,-666.33 1700.17,-666.33 1696.33,-666.33 1692.5,-662.49 1692.5,-658.66 1692.5,-658.66 1692.5,-650.99 1692.5,-650.99 1692.5,-647.16 1696.33,-643.33 1700.17,-643.33 1700.17,-643.33 1839.83,-643.33 1839.83,-643.33 1843.67,-643.33 1847.5,-647.16 1847.5,-650.99 1847.5,-650.99 1847.5,-658.66 1847.5,-658.66 1847.5,-662.49 1843.67,-666.33 1839.83,-666.33"/>
<text text-anchor="middle" x="1770" y="-651.13" font-family="Arial" font-size="14.00" fill="#c6c5fe">../../fn/modules/types.js</text>
</g>
<!-- ../../fn/modules/denormalisers.js&#45;&gt;../../fn/modules/types.js -->
<g id="edge39" class="edge">
<title>../../fn/modules/denormalisers.js&#45;&gt;../../fn/modules/types.js</title>
<path fill="none" stroke="#757575" d="M1288.44,-759.22C1320.11,-746.23 1374,-725.37 1422,-712.83 1509.3,-690 1611.4,-674.21 1682.15,-664.93"/>
<polygon fill="#757575" stroke="#757575" points="1682.89,-668.36 1692.35,-663.6 1681.99,-661.42 1682.89,-668.36"/>
</g>
<!-- ../../fn/modules/maths/cubic&#45;bezier.js&#45;&gt;../../fn/modules/curry.js -->
<g id="edge49" class="edge">
<title>../../fn/modules/maths/cubic&#45;bezier.js&#45;&gt;../../fn/modules/curry.js</title>
<path fill="none" stroke="#757575" d="M1798.21,-721.25C1822.4,-710.58 1858.42,-693.71 1888,-675.83 1920.5,-656.18 1955.36,-629.55 1977.28,-612.03"/>
<polygon fill="#757575" stroke="#757575" points="1979.7,-614.58 1985.3,-605.58 1975.31,-609.13 1979.7,-614.58"/>
</g>
<!-- ../../fn/modules/normalisers.js&#45;&gt;../../fn/modules/maths/cubic&#45;bezier.js -->
<g id="edge50" class="edge">
<title>../../fn/modules/normalisers.js&#45;&gt;../../fn/modules/maths/cubic&#45;bezier.js</title>
<path fill="none" stroke="#757575" d="M1616.27,-732.83C1624.63,-732.83 1633.17,-732.83 1641.73,-732.83"/>
<polygon fill="#757575" stroke="#757575" points="1641.77,-736.33 1651.77,-732.83 1641.77,-729.33 1641.77,-736.33"/>
</g>
<!-- ../../fn/modules/normalisers.js&#45;&gt;../../fn/modules/types.js -->
<g id="edge51" class="edge">
<title>../../fn/modules/normalisers.js&#45;&gt;../../fn/modules/types.js</title>
<path fill="none" stroke="#757575" d="M1565.1,-721.24C1581.22,-716.93 1599.48,-711.86 1616,-706.83 1654.02,-695.23 1696.81,-680.54 1727.45,-669.74"/>
<polygon fill="#757575" stroke="#757575" points="1728.7,-673.01 1736.95,-666.38 1726.36,-666.41 1728.7,-673.01"/>
</g>
<!-- ../../fn/modules/types.js&#45;&gt;../../fn/modules/noop.js -->
<g id="edge67" class="edge">
<title>../../fn/modules/types.js&#45;&gt;../../fn/modules/noop.js</title>
<path fill="none" stroke="#757575" d="M1782.33,-643.07C1819.19,-604.84 1935.91,-483.78 1981.25,-436.76"/>
<polygon fill="#757575" stroke="#757575" points="1983.95,-439 1988.37,-429.37 1978.91,-434.14 1983.95,-439"/>
</g>
<!-- ../../fn/modules/fn.js&#45;&gt;../../fn/modules/noop.js -->
<g id="edge42" class="edge">
<title>../../fn/modules/fn.js&#45;&gt;../../fn/modules/noop.js</title>
<path fill="none" stroke="#757575" d="M1582.78,-249.37C1594.31,-252.98 1605.89,-257.69 1616,-263.83 1636.17,-276.05 1631.33,-291.46 1652,-302.83 1745.42,-354.2 1788.86,-306.6 1888,-345.83 1921.71,-359.16 1956.1,-383.3 1977.6,-399.93"/>
<polygon fill="#757575" stroke="#757575" points="1975.69,-402.88 1985.72,-406.32 1980.03,-397.38 1975.69,-402.88"/>
</g>
<!-- ../../fn/modules/fn.js&#45;&gt;../../fn/modules/nothing.js -->
<g id="edge43" class="edge">
<title>../../fn/modules/fn.js&#45;&gt;../../fn/modules/nothing.js</title>
<path fill="none" stroke="#757575" d="M1539.43,-249.43C1559.3,-261.6 1590.77,-281.74 1616,-301.83 1633.22,-315.53 1635.7,-321.04 1652,-335.83 1684.85,-365.63 1723.82,-399.28 1747.47,-419.5"/>
<polygon fill="#757575" stroke="#757575" points="1745.28,-422.23 1755.15,-426.07 1749.82,-416.91 1745.28,-422.23"/>
</g>
<!-- ../../fn/modules/fn.js&#45;&gt;../../fn/modules/compose.js -->
<g id="edge40" class="edge">
<title>../../fn/modules/fn.js&#45;&gt;../../fn/modules/compose.js</title>
<path fill="none" stroke="#757575" d="M1586.07,-238.62C1611.74,-238.93 1641.68,-239.29 1669.83,-239.63"/>
<polygon fill="#757575" stroke="#757575" points="1670.06,-243.13 1680.1,-239.75 1670.15,-236.13 1670.06,-243.13"/>
</g>
<!-- ../../fn/modules/latest.js -->
<g id="node35" class="node">
<title>../../fn/modules/latest.js</title>
<path fill="none" stroke="#cfffac" d="M1839.83,-293.33C1839.83,-293.33 1700.17,-293.33 1700.17,-293.33 1696.33,-293.33 1692.5,-289.49 1692.5,-285.66 1692.5,-285.66 1692.5,-277.99 1692.5,-277.99 1692.5,-274.16 1696.33,-270.33 1700.17,-270.33 1700.17,-270.33 1839.83,-270.33 1839.83,-270.33 1843.67,-270.33 1847.5,-274.16 1847.5,-277.99 1847.5,-277.99 1847.5,-285.66 1847.5,-285.66 1847.5,-289.49 1843.67,-293.33 1839.83,-293.33"/>
<text text-anchor="middle" x="1770" y="-278.13" font-family="Arial" font-size="14.00" fill="#cfffac">../../fn/modules/latest.js</text>
</g>
<!-- ../../fn/modules/fn.js&#45;&gt;../../fn/modules/latest.js -->
<g id="edge41" class="edge">
<title>../../fn/modules/fn.js&#45;&gt;../../fn/modules/latest.js</title>
<path fill="none" stroke="#757575" d="M1582.76,-249.38C1604.66,-253.37 1629.41,-257.84 1652,-261.83 1664.61,-264.05 1678,-266.37 1691.04,-268.62"/>
<polygon fill="#757575" stroke="#757575" points="1690.48,-272.07 1700.92,-270.31 1691.66,-265.17 1690.48,-272.07"/>
</g>
<!-- ../../fn/modules/strings/prepend.js -->
<g id="node36" class="node">
<title>../../fn/modules/strings/prepend.js</title>
<path fill="none" stroke="#c6c5fe" d="M1870.33,-170.33C1870.33,-170.33 1669.67,-170.33 1669.67,-170.33 1665.83,-170.33 1662,-166.49 1662,-162.66 1662,-162.66 1662,-154.99 1662,-154.99 1662,-151.16 1665.83,-147.33 1669.67,-147.33 1669.67,-147.33 1870.33,-147.33 1870.33,-147.33 1874.17,-147.33 1878,-151.16 1878,-154.99 1878,-154.99 1878,-162.66 1878,-162.66 1878,-166.49 1874.17,-170.33 1870.33,-170.33"/>
<text text-anchor="middle" x="1770" y="-155.13" font-family="Arial" font-size="14.00" fill="#c6c5fe">../../fn/modules/strings/prepend.js</text>
</g>
<!-- ../../fn/modules/fn.js&#45;&gt;../../fn/modules/strings/prepend.js -->
<g id="edge44" class="edge">
<title>../../fn/modules/fn.js&#45;&gt;../../fn/modules/strings/prepend.js</title>
<path fill="none" stroke="#757575" d="M1580.11,-226.28C1592.41,-222.63 1604.96,-217.9 1616,-211.83 1635.01,-201.36 1632.51,-188.38 1652,-178.83 1655.85,-176.94 1659.85,-175.23 1663.95,-173.67"/>
<polygon fill="#757575" stroke="#757575" points="1665.34,-176.89 1673.66,-170.33 1663.06,-170.27 1665.34,-176.89"/>
</g>
<!-- ../../fn/modules/fn.js&#45;&gt;../../fn/modules/to&#45;array.js -->
<g id="edge45" class="edge">
<title>../../fn/modules/fn.js&#45;&gt;../../fn/modules/to&#45;array.js</title>
<path fill="none" stroke="#757575" d="M1586.14,-227.95C1596.91,-224.18 1607.35,-218.98 1616,-211.83 1644.18,-188.51 1622.74,-159.78 1652,-137.83 1659.13,-132.48 1667.18,-128.37 1675.65,-125.23"/>
<polygon fill="#757575" stroke="#757575" points="1676.93,-128.49 1685.36,-122.08 1674.77,-121.84 1676.93,-128.49"/>
</g>
<!-- ../../fn/modules/strings/prepend.js&#45;&gt;../../fn/modules/curry.js -->
<g id="edge64" class="edge">
<title>../../fn/modules/strings/prepend.js&#45;&gt;../../fn/modules/curry.js</title>
<path fill="none" stroke="#757575" d="M1877.9,-170.42C1881.53,-172.85 1884.92,-175.64 1888,-178.83 1928.59,-220.72 1907.02,-383.02 1924,-438.83 1939.5,-489.77 1969.92,-544.76 1987.03,-573.57"/>
<polygon fill="#757575" stroke="#757575" points="1984.13,-575.53 1992.29,-582.29 1990.13,-571.92 1984.13,-575.53"/>
</g>
<!-- ../../fn/modules/get.js -->
<g id="node38" class="node">
<title>../../fn/modules/get.js</title>
<path fill="none" stroke="#c6c5fe" d="M1582.33,-564.33C1582.33,-564.33 1455.67,-564.33 1455.67,-564.33 1451.83,-564.33 1448,-560.49 1448,-556.66 1448,-556.66 1448,-548.99 1448,-548.99 1448,-545.16 1451.83,-541.33 1455.67,-541.33 1455.67,-541.33 1582.33,-541.33 1582.33,-541.33 1586.17,-541.33 1590,-545.16 1590,-548.99 1590,-548.99 1590,-556.66 1590,-556.66 1590,-560.49 1586.17,-564.33 1582.33,-564.33"/>
<text text-anchor="middle" x="1519" y="-549.13" font-family="Arial" font-size="14.00" fill="#c6c5fe">../../fn/modules/get.js</text>
</g>
<!-- ../../fn/modules/get.js&#45;&gt;../../fn/modules/curry.js -->
<g id="edge46" class="edge">
<title>../../fn/modules/get.js&#45;&gt;../../fn/modules/curry.js</title>
<path fill="none" stroke="#757575" d="M1590.24,-558.83C1676.24,-566.18 1821.82,-578.63 1914.17,-586.53"/>
<polygon fill="#757575" stroke="#757575" points="1914.07,-590.03 1924.33,-587.4 1914.66,-583.06 1914.07,-590.03"/>
</g>
<!-- ../../fn/modules/lists/core.js&#45;&gt;../../fn/modules/to&#45;array.js -->
<g id="edge47" class="edge">
<title>../../fn/modules/lists/core.js&#45;&gt;../../fn/modules/to&#45;array.js</title>
<path fill="none" stroke="#757575" d="M1607.09,-117.18C1629.1,-117.26 1652.83,-117.36 1675.16,-117.45"/>
<polygon fill="#757575" stroke="#757575" points="1675.3,-120.95 1685.31,-117.49 1675.33,-113.95 1675.3,-120.95"/>
</g>
<!-- ../../fn/modules/maths/clamp.js -->
<g id="node40" class="node">
<title>../../fn/modules/maths/clamp.js</title>
<path fill="none" stroke="#c6c5fe" d="M339.33,-89.33C339.33,-89.33 153.67,-89.33 153.67,-89.33 149.83,-89.33 146,-85.49 146,-81.66 146,-81.66 146,-73.99 146,-73.99 146,-70.16 149.83,-66.33 153.67,-66.33 153.67,-66.33 339.33,-66.33 339.33,-66.33 343.17,-66.33 347,-70.16 347,-73.99 347,-73.99 347,-81.66 347,-81.66 347,-85.49 343.17,-89.33 339.33,-89.33"/>
<text text-anchor="middle" x="246.5" y="-74.13" font-family="Arial" font-size="14.00" fill="#c6c5fe">../../fn/modules/maths/clamp.js</text>
</g>
<!-- ../../fn/modules/maths/clamp.js&#45;&gt;../../fn/modules/curry.js -->
<g id="edge48" class="edge">
<title>../../fn/modules/maths/clamp.js&#45;&gt;../../fn/modules/curry.js</title>
<path fill="none" stroke="#757575" d="M334.93,-66.3C434.6,-54.17 602.48,-36.83 747.5,-36.83 747.5,-36.83 747.5,-36.83 1520,-36.83 1683.77,-36.83 1769.78,57.51 1888,-55.83 1949.71,-114.99 1900.91,-356.52 1924,-438.83 1938.31,-489.83 1968.92,-544.4 1986.45,-573.22"/>
<polygon fill="#757575" stroke="#757575" points="1983.62,-575.3 1991.86,-581.97 1989.58,-571.62 1983.62,-575.3"/>
</g>
<!-- ../../fn/modules/maths/to&#45;db.js -->
<g id="node41" class="node">
<title>../../fn/modules/maths/to&#45;db.js</title>
<path fill="none" stroke="#cfffac" d="M1349.83,-702.33C1349.83,-702.33 1170.17,-702.33 1170.17,-702.33 1166.33,-702.33 1162.5,-698.49 1162.5,-694.66 1162.5,-694.66 1162.5,-686.99 1162.5,-686.99 1162.5,-683.16 1166.33,-679.33 1170.17,-679.33 1170.17,-679.33 1349.83,-679.33 1349.83,-679.33 1353.67,-679.33 1357.5,-683.16 1357.5,-686.99 1357.5,-686.99 1357.5,-694.66 1357.5,-694.66 1357.5,-698.49 1353.67,-702.33 1349.83,-702.33"/>
<text text-anchor="middle" x="1260" y="-687.13" font-family="Arial" font-size="14.00" fill="#cfffac">../../fn/modules/maths/to&#45;db.js</text>
</g>
<!-- ../../fn/modules/maths/to&#45;gain.js -->
<g id="node42" class="node">
<title>../../fn/modules/maths/to&#45;gain.js</title>
<path fill="none" stroke="#cfffac" d="M1355.33,-661.33C1355.33,-661.33 1164.67,-661.33 1164.67,-661.33 1160.83,-661.33 1157,-657.49 1157,-653.66 1157,-653.66 1157,-645.99 1157,-645.99 1157,-642.16 1160.83,-638.33 1164.67,-638.33 1164.67,-638.33 1355.33,-638.33 1355.33,-638.33 1359.17,-638.33 1363,-642.16 1363,-645.99 1363,-645.99 1363,-653.66 1363,-653.66 1363,-657.49 1359.17,-661.33 1355.33,-661.33"/>
<text text-anchor="middle" x="1260" y="-646.13" font-family="Arial" font-size="14.00" fill="#cfffac">../../fn/modules/maths/to&#45;gain.js</text>
</g>
<!-- ../../fn/modules/request&#45;tick.js -->
<g id="node45" class="node">
<title>../../fn/modules/request&#45;tick.js</title>
<path fill="none" stroke="#cfffac" d="M1858.83,-211.33C1858.83,-211.33 1681.17,-211.33 1681.17,-211.33 1677.33,-211.33 1673.5,-207.49 1673.5,-203.66 1673.5,-203.66 1673.5,-195.99 1673.5,-195.99 1673.5,-192.16 1677.33,-188.33 1681.17,-188.33 1681.17,-188.33 1858.83,-188.33 1858.83,-188.33 1862.67,-188.33 1866.5,-192.16 1866.5,-195.99 1866.5,-195.99 1866.5,-203.66 1866.5,-203.66 1866.5,-207.49 1862.67,-211.33 1858.83,-211.33"/>
<text text-anchor="middle" x="1770" y="-196.13" font-family="Arial" font-size="14.00" fill="#cfffac">../../fn/modules/request&#45;tick.js</text>
</g>
<!-- ../../fn/modules/timer.js&#45;&gt;../../fn/modules/now.js -->
<g id="edge65" class="edge">
<title>../../fn/modules/timer.js&#45;&gt;../../fn/modules/now.js</title>
<path fill="none" stroke="#757575" d="M1595.12,-146.24C1602.42,-143.7 1609.51,-140.6 1616,-136.83 1636.68,-124.8 1631.05,-108.37 1652,-96.83 1662.5,-91.04 1674.28,-86.85 1686.21,-83.83"/>
<polygon fill="#757575" stroke="#757575" points="1687.25,-87.18 1696.24,-81.56 1685.71,-80.35 1687.25,-87.18"/>
</g>
<!-- ../../fn/modules/timer.js&#45;&gt;../../fn/modules/request&#45;tick.js -->
<g id="edge66" class="edge">
<title>../../fn/modules/timer.js&#45;&gt;../../fn/modules/request&#45;tick.js</title>
<path fill="none" stroke="#757575" d="M1588.37,-169.36C1620.08,-174.71 1657.92,-181.09 1690.76,-186.63"/>
<polygon fill="#757575" stroke="#757575" points="1690.34,-190.11 1700.78,-188.32 1691.5,-183.2 1690.34,-190.11"/>
</g>
<!-- ../../fn/modules/strings/to&#45;camel&#45;case.js -->
<g id="node47" class="node">
<title>../../fn/modules/strings/to&#45;camel&#45;case.js</title>
<path fill="none" stroke="#cfffac" d="M1378.33,-620.33C1378.33,-620.33 1141.67,-620.33 1141.67,-620.33 1137.83,-620.33 1134,-616.49 1134,-612.66 1134,-612.66 1134,-604.99 1134,-604.99 1134,-601.16 1137.83,-597.33 1141.67,-597.33 1141.67,-597.33 1378.33,-597.33 1378.33,-597.33 1382.17,-597.33 1386,-601.16 1386,-604.99 1386,-604.99 1386,-612.66 1386,-612.66 1386,-616.49 1382.17,-620.33 1378.33,-620.33"/>
<text text-anchor="middle" x="1260" y="-605.13" font-family="Arial" font-size="14.00" fill="#cfffac">../../fn/modules/strings/to&#45;camel&#45;case.js</text>
</g>
<!-- attributes.js -->
<g id="node48" class="node">
<title>attributes.js</title>
<path fill="none" stroke="#c6c5fe" d="M783.83,-523.33C783.83,-523.33 713.17,-523.33 713.17,-523.33 709.33,-523.33 705.5,-519.49 705.5,-515.66 705.5,-515.66 705.5,-507.99 705.5,-507.99 705.5,-504.16 709.33,-500.33 713.17,-500.33 713.17,-500.33 783.83,-500.33 783.83,-500.33 787.67,-500.33 791.5,-504.16 791.5,-507.99 791.5,-507.99 791.5,-515.66 791.5,-515.66 791.5,-519.49 787.67,-523.33 783.83,-523.33"/>
<text text-anchor="middle" x="748.5" y="-508.13" font-family="Arial" font-size="14.00" fill="#c6c5fe">attributes.js</text>
</g>
<!-- attributes.js&#45;&gt;../../fn/modules/nothing.js -->
<g id="edge70" class="edge">
<title>attributes.js&#45;&gt;../../fn/modules/nothing.js</title>
<path fill="none" stroke="#757575" d="M791.89,-509.06C917.64,-500.81 1299.51,-475.41 1616,-450.83 1635.55,-449.31 1656.5,-447.59 1676.43,-445.91"/>
<polygon fill="#757575" stroke="#757575" points="1676.77,-449.39 1686.44,-445.06 1676.18,-442.42 1676.77,-449.39"/>
</g>
<!-- attributes.js&#45;&gt;../../fn/modules/by.js -->
<g id="edge68" class="edge">
<title>attributes.js&#45;&gt;../../fn/modules/by.js</title>
<path fill="none" stroke="#757575" d="M791.6,-520.1C822.8,-526 866.42,-533.75 905,-538.83 1096.53,-564 1323.27,-581.05 1439.96,-588.89"/>
<polygon fill="#757575" stroke="#757575" points="1440.01,-592.4 1450.22,-589.58 1440.48,-585.42 1440.01,-592.4"/>
</g>
<!-- attributes.js&#45;&gt;../../fn/modules/get.js -->
<g id="edge69" class="edge">
<title>attributes.js&#45;&gt;../../fn/modules/get.js</title>
<path fill="none" stroke="#757575" d="M791.64,-514.07C914.75,-520.64 1275.36,-539.88 1437.46,-548.53"/>
<polygon fill="#757575" stroke="#757575" points="1437.67,-552.05 1447.84,-549.08 1438.04,-545.05 1437.67,-552.05"/>
</g>
<!-- attributes.js&#45;&gt;../../fn/modules/privates.js -->
<g id="edge71" class="edge">
<title>attributes.js&#45;&gt;../../fn/modules/privates.js</title>
<path fill="none" stroke="#757575" d="M764.81,-500.15C791.59,-480.43 849.39,-440.91 905,-422.83 998.96,-392.28 1276.07,-370.95 1423.4,-361.43"/>
<polygon fill="#757575" stroke="#757575" points="1424.03,-364.9 1433.78,-360.76 1423.58,-357.91 1424.03,-364.9"/>
</g>
<!-- attributes.js&#45;&gt;../../fn/modules/request&#45;tick.js -->
<g id="edge72" class="edge">
<title>attributes.js&#45;&gt;../../fn/modules/request&#45;tick.js</title>
<path fill="none" stroke="#757575" d="M791.58,-503.24C822.78,-497.12 866.4,-489.08 905,-483.83 909.91,-483.16 1612.34,-421.17 1616,-417.83 1681.65,-357.72 1588.96,-283.66 1652,-220.83 1655.74,-217.1 1659.9,-213.9 1664.36,-211.18"/>
<polygon fill="#757575" stroke="#757575" points="1666.06,-214.24 1673.28,-206.49 1662.8,-208.04 1666.06,-214.24"/>
</g>
<!-- control.js -->
<g id="node49" class="node">
<title>control.js</title>
<path fill="none" stroke="#c6c5fe" d="M1029.33,-703.33C1029.33,-703.33 973.67,-703.33 973.67,-703.33 969.83,-703.33 966,-699.49 966,-695.66 966,-695.66 966,-687.99 966,-687.99 966,-684.16 969.83,-680.33 973.67,-680.33 973.67,-680.33 1029.33,-680.33 1029.33,-680.33 1033.17,-680.33 1037,-684.16 1037,-687.99 1037,-687.99 1037,-695.66 1037,-695.66 1037,-699.49 1033.17,-703.33 1029.33,-703.33"/>
<text text-anchor="middle" x="1001.5" y="-688.13" font-family="Arial" font-size="14.00" fill="#c6c5fe">control.js</text>
</g>
<!-- attributes.js&#45;&gt;control.js -->
<g id="edge73" class="edge">
<title>attributes.js&#45;&gt;control.js</title>
<path fill="none" stroke="#757575" d="M791.72,-522.76C815.61,-530.13 845.35,-541.35 869,-556.83 918.38,-589.13 963.45,-642.92 985.77,-671.89"/>
<polygon fill="#757575" stroke="#757575" points="983.12,-674.18 991.95,-680.03 988.69,-669.95 983.12,-674.18"/>
</g>
<!-- control.js&#45;&gt;../../fn/modules/id.js -->
<g id="edge75" class="edge">
<title>control.js&#45;&gt;../../fn/modules/id.js</title>
<path fill="none" stroke="#757575" d="M1016.4,-703.39C1036.53,-720.71 1073.98,-755.17 1098,-790.83 1120.01,-823.5 1109.7,-840.81 1134,-871.83 1160.63,-905.82 1201.7,-934.65 1229.43,-951.83"/>
<polygon fill="#757575" stroke="#757575" points="1227.92,-955.01 1238.28,-957.2 1231.55,-949.02 1227.92,-955.01"/>
</g>
<!-- control.js&#45;&gt;../../fn/modules/overload.js -->
<g id="edge79" class="edge">
<title>control.js&#45;&gt;../../fn/modules/overload.js</title>
<path fill="none" stroke="#757575" d="M1021.49,-703.37C1041.27,-715.71 1072.83,-736.28 1098,-756.83 1115.29,-770.93 1115.66,-779.11 1134,-791.83 1160.14,-809.95 1192.73,-825.12 1218.08,-835.54"/>
<polygon fill="#757575" stroke="#757575" points="1216.82,-838.81 1227.41,-839.3 1219.44,-832.32 1216.82,-838.81"/>
</g>
<!-- control.js&#45;&gt;../../fn/modules/denormalisers.js -->
<g id="edge74" class="edge">
<title>control.js&#45;&gt;../../fn/modules/denormalisers.js</title>
<path fill="none" stroke="#757575" d="M1037.15,-698.54C1055.76,-702.9 1078.77,-709.52 1098,-718.83 1115.77,-727.42 1115.94,-736.86 1134,-744.83 1144.85,-749.61 1156.63,-753.53 1168.47,-756.74"/>
<polygon fill="#757575" stroke="#757575" points="1167.86,-760.2 1178.42,-759.27 1169.59,-753.41 1167.86,-760.2"/>
</g>
<!-- control.js&#45;&gt;../../fn/modules/normalisers.js -->
<g id="edge78" class="edge">
<title>control.js&#45;&gt;../../fn/modules/normalisers.js</title>
<path fill="none" stroke="#757575" d="M1037.27,-698.05C1063.71,-702.55 1101.04,-708.43 1134,-711.83 1227.59,-721.48 1334.51,-726.87 1411.71,-729.76"/>
<polygon fill="#757575" stroke="#757575" points="1411.81,-733.27 1421.93,-730.14 1412.06,-726.27 1411.81,-733.27"/>
</g>
<!-- control.js&#45;&gt;../../fn/modules/maths/to&#45;db.js -->
<g id="edge76" class="edge">
<title>control.js&#45;&gt;../../fn/modules/maths/to&#45;db.js</title>
<path fill="none" stroke="#757575" d="M1037.09,-691.69C1066.72,-691.58 1111,-691.4 1152.23,-691.24"/>
<polygon fill="#757575" stroke="#757575" points="1152.37,-694.74 1162.36,-691.2 1152.35,-687.74 1152.37,-694.74"/>
</g>
<!-- control.js&#45;&gt;../../fn/modules/maths/to&#45;gain.js -->
<g id="edge77" class="edge">
<title>control.js&#45;&gt;../../fn/modules/maths/to&#45;gain.js</title>
<path fill="none" stroke="#757575" d="M1037.09,-686.16C1073.22,-680.25 1131.15,-670.76 1178.77,-662.96"/>
<polygon fill="#757575" stroke="#757575" points="1179.46,-666.4 1188.76,-661.33 1178.33,-659.49 1179.46,-666.4"/>
</g>
<!-- control.js&#45;&gt;../../fn/modules/strings/to&#45;camel&#45;case.js -->
<g id="edge80" class="edge">
<title>control.js&#45;&gt;../../fn/modules/strings/to&#45;camel&#45;case.js</title>
<path fill="none" stroke="#757575" d="M1022.74,-680.13C1047.98,-666.06 1092.81,-642.73 1134,-629.83 1142.88,-627.04 1152.25,-624.61 1161.68,-622.48"/>
<polygon fill="#757575" stroke="#757575" points="1162.48,-625.89 1171.53,-620.37 1161.02,-619.04 1162.48,-625.89"/>
</g>
<!-- rotary&#45;control.js -->
<g id="node50" class="node">
<title>rotary&#45;control.js</title>
<path fill="none" stroke="#c6c5fe" d="M102.33,-523.33C102.33,-523.33 7.67,-523.33 7.67,-523.33 3.83,-523.33 0,-519.49 0,-515.66 0,-515.66 0,-507.99 0,-507.99 0,-504.16 3.83,-500.33 7.67,-500.33 7.67,-500.33 102.33,-500.33 102.33,-500.33 106.17,-500.33 110,-504.16 110,-507.99 110,-507.99 110,-515.66 110,-515.66 110,-519.49 106.17,-523.33 102.33,-523.33"/>
<text text-anchor="middle" x="55" y="-508.13" font-family="Arial" font-size="14.00" fill="#c6c5fe">rotary&#45;control.js</text>
</g>
<!-- rotary&#45;control.js&#45;&gt;../../dom/modules/create.js -->
<g id="edge81" class="edge">
<title>rotary&#45;control.js&#45;&gt;../../dom/modules/create.js</title>
<path fill="none" stroke="#757575" d="M57.83,-523.58C63.76,-557.52 85.69,-656.41 146,-705.83 222.6,-768.6 500.9,-816.17 650.61,-837.87"/>
<polygon fill="#757575" stroke="#757575" points="650.33,-841.37 660.72,-839.32 651.32,-834.44 650.33,-841.37"/>
</g>
<!-- rotary&#45;control.js&#45;&gt;../../dom/modules/element.js -->
<g id="edge82" class="edge">
<title>rotary&#45;control.js&#45;&gt;../../dom/modules/element.js</title>
<path fill="none" stroke="#757575" d="M55.96,-523.33C56.49,-565.51 64.35,-712.93 146,-784.83 210.42,-841.55 308.67,-855.56 383.1,-856.85"/>
<polygon fill="#757575" stroke="#757575" points="383.41,-860.35 393.44,-856.95 383.48,-853.35 383.41,-860.35"/>
</g>
<!-- rotary&#45;control.js&#45;&gt;../../dom/modules/gestures.js -->
<g id="edge83" class="edge">
<title>rotary&#45;control.js&#45;&gt;../../dom/modules/gestures.js</title>
<path fill="none" stroke="#757575" d="M74.17,-500.22C107.7,-478.81 179.46,-432.99 218.63,-407.98"/>
<polygon fill="#757575" stroke="#757575" points="220.84,-410.72 227.38,-402.39 217.07,-404.82 220.84,-410.72"/>
</g>
<!-- rotary&#45;control.js&#45;&gt;../../dom/modules/parse&#45;value.js -->
<g id="edge84" class="edge">
<title>rotary&#45;control.js&#45;&gt;../../dom/modules/parse&#45;value.js</title>
<path fill="none" stroke="#757575" d="M110.09,-521.75C186.88,-535.84 327.7,-561.68 413.62,-577.45"/>
<polygon fill="#757575" stroke="#757575" points="413.1,-580.91 423.57,-579.28 414.36,-574.03 413.1,-580.91"/>
</g>
<!-- rotary&#45;control.js&#45;&gt;../../dom/modules/trigger.js -->
<g id="edge85" class="edge">
<title>rotary&#45;control.js&#45;&gt;../../dom/modules/trigger.js</title>
<path fill="none" stroke="#757575" d="M59.96,-500.21C69.84,-473.01 98.29,-404.95 146,-370.83 217.37,-319.78 316.39,-299.9 389.26,-292.28"/>
<polygon fill="#757575" stroke="#757575" points="389.75,-295.75 399.36,-291.29 389.06,-288.78 389.75,-295.75"/>
</g>
<!-- rotary&#45;control.js&#45;&gt;../../fn/modules/maths/clamp.js -->
<g id="edge86" class="edge">
<title>rotary&#45;control.js&#45;&gt;../../fn/modules/maths/clamp.js</title>
<path fill="none" stroke="#757575" d="M55.96,-500.17C56.37,-451.93 63.42,-264.94 146,-145.83 161.85,-122.96 188.09,-105.5 209.64,-94"/>
<polygon fill="#757575" stroke="#757575" points="211.24,-97.11 218.55,-89.43 208.05,-90.88 211.24,-97.11"/>
</g>
<!-- rotary&#45;control.js&#45;&gt;../../fn/modules/privates.js -->
<g id="edge87" class="edge">
<title>rotary&#45;control.js&#45;&gt;../../fn/modules/privates.js</title>
<path fill="none" stroke="#757575" d="M57.58,-500.11C63,-464.25 84.11,-354.69 146,-293.83 261.95,-179.79 323.87,-159.83 486.5,-159.83 486.5,-159.83 486.5,-159.83 749.5,-159.83 785.45,-159.83 1355.91,-257.15 1386,-276.83 1409.22,-292.01 1399.42,-311.71 1422,-327.83 1429.37,-333.09 1437.72,-337.36 1446.34,-340.84"/>
<polygon fill="#757575" stroke="#757575" points="1445.18,-344.15 1455.77,-344.31 1447.6,-337.58 1445.18,-344.15"/>
</g>
<!-- rotary&#45;control.js&#45;&gt;attributes.js -->
<g id="edge88" class="edge">
<title>rotary&#45;control.js&#45;&gt;attributes.js</title>
<path fill="none" stroke="#757575" d="M110.26,-511.83C240.02,-511.83 566.95,-511.83 694.95,-511.83"/>
<polygon fill="#757575" stroke="#757575" points="695.27,-515.33 705.27,-511.83 695.27,-508.33 695.27,-515.33"/>
</g>
<!-- rotary&#45;control.js&#45;&gt;control.js -->
<g id="edge89" class="edge">
<title>rotary&#45;control.js&#45;&gt;control.js</title>
<path fill="none" stroke="#757575" d="M74.3,-523.41C92.03,-534.19 119.98,-550.03 146,-559.83 351.92,-637.36 410.14,-641.99 628,-672.83 745.39,-689.44 885.42,-692.01 955.64,-692.12"/>
<polygon fill="#757575" stroke="#757575" points="955.89,-695.62 965.89,-692.12 955.89,-688.62 955.89,-695.62"/>
</g>
</g>
</svg>
