<?xml version="1.0" encoding="UTF-8" standalone="no"?>
<!DOCTYPE svg PUBLIC "-//W3C//DTD SVG 1.1//EN"
 "http://www.w3.org/Graphics/SVG/1.1/DTD/svg11.dtd">
<!-- Generated by graphviz version 2.44.1 (20200629.0846)
 -->
<!-- Title: G Pages: 1 -->
<svg width="2353pt" height="1139pt"
 viewBox="0.00 0.00 2353.20 1138.60" xmlns="http://www.w3.org/2000/svg" xmlns:xlink="http://www.w3.org/1999/xlink">
<g id="graph0" class="graph" transform="scale(1 1) rotate(0) translate(21.6 1117)">
<title>G</title>
<polygon fill="#111111" stroke="transparent" points="-21.6,21.6 -21.6,-1117 2331.6,-1117 2331.6,21.6 -21.6,21.6"/>
<!-- ../../dom/modules/assign.js -->
<g id="node1" class="node">
<title>../../dom/modules/assign.js</title>
<path fill="none" stroke="#c6c5fe" d="M1101.83,-905.85C1101.83,-905.85 939.17,-905.85 939.17,-905.85 935.33,-905.85 931.5,-902.01 931.5,-898.18 931.5,-898.18 931.5,-890.51 931.5,-890.51 931.5,-886.68 935.33,-882.85 939.17,-882.85 939.17,-882.85 1101.83,-882.85 1101.83,-882.85 1105.67,-882.85 1109.5,-886.68 1109.5,-890.51 1109.5,-890.51 1109.5,-898.18 1109.5,-898.18 1109.5,-902.01 1105.67,-905.85 1101.83,-905.85"/>
<text text-anchor="middle" x="1020.5" y="-890.65" font-family="Arial" font-size="14.00" fill="#c6c5fe">../../dom/modules/assign.js</text>
</g>
<!-- ../../fn/modules/curry.js -->
<g id="node2" class="node">
<title>../../fn/modules/curry.js</title>
<path fill="none" stroke="#c6c5fe" d="M2106.83,-727.85C2106.83,-727.85 1970.17,-727.85 1970.17,-727.85 1966.33,-727.85 1962.5,-724.01 1962.5,-720.18 1962.5,-720.18 1962.5,-712.51 1962.5,-712.51 1962.5,-708.68 1966.33,-704.85 1970.17,-704.85 1970.17,-704.85 2106.83,-704.85 2106.83,-704.85 2110.67,-704.85 2114.5,-708.68 2114.5,-712.51 2114.5,-712.51 2114.5,-720.18 2114.5,-720.18 2114.5,-724.01 2110.67,-727.85 2106.83,-727.85"/>
<text text-anchor="middle" x="2038.5" y="-712.65" font-family="Arial" font-size="14.00" fill="#c6c5fe">../../fn/modules/curry.js</text>
</g>
<!-- ../../dom/modules/assign.js&#45;&gt;../../fn/modules/curry.js -->
<g id="edge1" class="edge">
<title>../../dom/modules/assign.js&#45;&gt;../../fn/modules/curry.js</title>
<path fill="none" stroke="#757575" d="M1109.74,-903.94C1130.16,-905.77 1151.82,-907.41 1172,-908.35 1386.19,-918.29 1443.31,-927.18 1654,-887.35 1777.69,-863.96 1814.71,-867.18 1926,-808.35 1962.79,-788.9 1998.7,-756.05 2019.43,-735.32"/>
<polygon fill="#757575" stroke="#757575" points="2022.1,-737.6 2026.61,-728.02 2017.1,-732.7 2022.1,-737.6"/>
</g>
<!-- ../../fn/modules/id.js -->
<g id="node3" class="node">
<title>../../fn/modules/id.js</title>
<path fill="none" stroke="#cfffac" d="M1357.33,-865.85C1357.33,-865.85 1238.67,-865.85 1238.67,-865.85 1234.83,-865.85 1231,-862.01 1231,-858.18 1231,-858.18 1231,-850.51 1231,-850.51 1231,-846.68 1234.83,-842.85 1238.67,-842.85 1238.67,-842.85 1357.33,-842.85 1357.33,-842.85 1361.17,-842.85 1365,-846.68 1365,-850.51 1365,-850.51 1365,-858.18 1365,-858.18 1365,-862.01 1361.17,-865.85 1357.33,-865.85"/>
<text text-anchor="middle" x="1298" y="-850.65" font-family="Arial" font-size="14.00" fill="#cfffac">../../fn/modules/id.js</text>
</g>
<!-- ../../dom/modules/assign.js&#45;&gt;../../fn/modules/id.js -->
<g id="edge2" class="edge">
<title>../../dom/modules/assign.js&#45;&gt;../../fn/modules/id.js</title>
<path fill="none" stroke="#757575" d="M1100.82,-882.83C1138.45,-877.37 1183.22,-870.87 1220.49,-865.46"/>
<polygon fill="#757575" stroke="#757575" points="1221.4,-868.86 1230.79,-863.96 1220.39,-861.93 1221.4,-868.86"/>
</g>
<!-- ../../fn/modules/noop.js -->
<g id="node4" class="node">
<title>../../fn/modules/noop.js</title>
<path fill="none" stroke="#cfffac" d="M2107.33,-276.85C2107.33,-276.85 1969.67,-276.85 1969.67,-276.85 1965.83,-276.85 1962,-273.01 1962,-269.18 1962,-269.18 1962,-261.51 1962,-261.51 1962,-257.68 1965.83,-253.85 1969.67,-253.85 1969.67,-253.85 2107.33,-253.85 2107.33,-253.85 2111.17,-253.85 2115,-257.68 2115,-261.51 2115,-261.51 2115,-269.18 2115,-269.18 2115,-273.01 2111.17,-276.85 2107.33,-276.85"/>
<text text-anchor="middle" x="2038.5" y="-261.65" font-family="Arial" font-size="14.00" fill="#cfffac">../../fn/modules/noop.js</text>
</g>
<!-- ../../dom/modules/assign.js&#45;&gt;../../fn/modules/noop.js -->
<g id="edge3" class="edge">
<title>../../dom/modules/assign.js&#45;&gt;../../fn/modules/noop.js</title>
<path fill="none" stroke="#757575" d="M1109.62,-895.76C1191.55,-895.76 1316.74,-892.41 1424,-875.35 1431.14,-874.21 1920.98,-742.55 1926,-737.35 1990.12,-670.86 2026.24,-371.61 2035.25,-287.44"/>
<polygon fill="#757575" stroke="#757575" points="2038.76,-287.55 2036.32,-277.24 2031.79,-286.82 2038.76,-287.55"/>
</g>
<!-- ../../fn/modules/overload.js -->
<g id="node5" class="node">
<title>../../fn/modules/overload.js</title>
<path fill="none" stroke="#cfffac" d="M1377.83,-824.85C1377.83,-824.85 1218.17,-824.85 1218.17,-824.85 1214.33,-824.85 1210.5,-821.01 1210.5,-817.18 1210.5,-817.18 1210.5,-809.51 1210.5,-809.51 1210.5,-805.68 1214.33,-801.85 1218.17,-801.85 1218.17,-801.85 1377.83,-801.85 1377.83,-801.85 1381.67,-801.85 1385.5,-805.68 1385.5,-809.51 1385.5,-809.51 1385.5,-817.18 1385.5,-817.18 1385.5,-821.01 1381.67,-824.85 1377.83,-824.85"/>
<text text-anchor="middle" x="1298" y="-809.65" font-family="Arial" font-size="14.00" fill="#cfffac">../../fn/modules/overload.js</text>
</g>
<!-- ../../dom/modules/assign.js&#45;&gt;../../fn/modules/overload.js -->
<g id="edge4" class="edge">
<title>../../dom/modules/assign.js&#45;&gt;../../fn/modules/overload.js</title>
<path fill="none" stroke="#757575" d="M1045.71,-882.83C1075,-869.34 1126.09,-847.2 1172,-834.35 1182.14,-831.51 1192.86,-829 1203.58,-826.79"/>
<polygon fill="#757575" stroke="#757575" points="1204.28,-830.22 1213.41,-824.85 1202.93,-823.35 1204.28,-830.22"/>
</g>
<!-- ../../fn/modules/cache.js -->
<g id="node16" class="node">
<title>../../fn/modules/cache.js</title>
<path fill="none" stroke="#cfffac" d="M2302.33,-727.85C2302.33,-727.85 2158.67,-727.85 2158.67,-727.85 2154.83,-727.85 2151,-724.01 2151,-720.18 2151,-720.18 2151,-712.51 2151,-712.51 2151,-708.68 2154.83,-704.85 2158.67,-704.85 2158.67,-704.85 2302.33,-704.85 2302.33,-704.85 2306.17,-704.85 2310,-708.68 2310,-712.51 2310,-712.51 2310,-720.18 2310,-720.18 2310,-724.01 2306.17,-727.85 2302.33,-727.85"/>
<text text-anchor="middle" x="2230.5" y="-712.65" font-family="Arial" font-size="14.00" fill="#cfffac">../../fn/modules/cache.js</text>
</g>
<!-- ../../fn/modules/curry.js&#45;&gt;../../fn/modules/cache.js -->
<g id="edge36" class="edge">
<title>../../fn/modules/curry.js&#45;&gt;../../fn/modules/cache.js</title>
<path fill="none" stroke="#757575" d="M2114.59,-716.35C2123.17,-716.35 2131.97,-716.35 2140.7,-716.35"/>
<polygon fill="#757575" stroke="#757575" points="2140.9,-719.85 2150.9,-716.35 2140.9,-712.85 2140.9,-719.85"/>
</g>
<!-- ../../dom/modules/create.js -->
<g id="node6" class="node">
<title>../../dom/modules/create.js</title>
<path fill="none" stroke="#c6c5fe" d="M828.83,-827.85C828.83,-827.85 668.17,-827.85 668.17,-827.85 664.33,-827.85 660.5,-824.01 660.5,-820.18 660.5,-820.18 660.5,-812.51 660.5,-812.51 660.5,-808.68 664.33,-804.85 668.17,-804.85 668.17,-804.85 828.83,-804.85 828.83,-804.85 832.67,-804.85 836.5,-808.68 836.5,-812.51 836.5,-812.51 836.5,-820.18 836.5,-820.18 836.5,-824.01 832.67,-827.85 828.83,-827.85"/>
<text text-anchor="middle" x="748.5" y="-812.65" font-family="Arial" font-size="14.00" fill="#c6c5fe">../../dom/modules/create.js</text>
</g>
<!-- ../../dom/modules/create.js&#45;&gt;../../dom/modules/assign.js -->
<g id="edge5" class="edge">
<title>../../dom/modules/create.js&#45;&gt;../../dom/modules/assign.js</title>
<path fill="none" stroke="#757575" d="M781.08,-827.94C812.3,-839.15 861.55,-856.18 905,-868.35 920.69,-872.74 937.74,-876.92 953.77,-880.6"/>
<polygon fill="#757575" stroke="#757575" points="953.08,-884.03 963.6,-882.82 954.62,-877.2 953.08,-884.03"/>
</g>
<!-- ../../dom/modules/create.js&#45;&gt;../../fn/modules/id.js -->
<g id="edge6" class="edge">
<title>../../dom/modules/create.js&#45;&gt;../../fn/modules/id.js</title>
<path fill="none" stroke="#757575" d="M836.67,-823.24C858.94,-824.96 882.85,-826.76 905,-828.35 1014.54,-836.21 1141.37,-844.47 1220.4,-849.51"/>
<polygon fill="#757575" stroke="#757575" points="1220.54,-853.03 1230.75,-850.17 1220.99,-846.04 1220.54,-853.03"/>
</g>
<!-- ../../dom/modules/create.js&#45;&gt;../../fn/modules/overload.js -->
<g id="edge7" class="edge">
<title>../../dom/modules/create.js&#45;&gt;../../fn/modules/overload.js</title>
<path fill="none" stroke="#757575" d="M836.56,-815.87C935.69,-815.33 1097.2,-814.44 1200.21,-813.88"/>
<polygon fill="#757575" stroke="#757575" points="1200.32,-817.38 1210.3,-813.82 1200.28,-810.38 1200.32,-817.38"/>
</g>
<!-- ../../fn/modules/to&#45;type.js -->
<g id="node7" class="node">
<title>../../fn/modules/to&#45;type.js</title>
<path fill="none" stroke="#cfffac" d="M1094.83,-787.85C1094.83,-787.85 946.17,-787.85 946.17,-787.85 942.33,-787.85 938.5,-784.01 938.5,-780.18 938.5,-780.18 938.5,-772.51 938.5,-772.51 938.5,-768.68 942.33,-764.85 946.17,-764.85 946.17,-764.85 1094.83,-764.85 1094.83,-764.85 1098.67,-764.85 1102.5,-768.68 1102.5,-772.51 1102.5,-772.51 1102.5,-780.18 1102.5,-780.18 1102.5,-784.01 1098.67,-787.85 1094.83,-787.85"/>
<text text-anchor="middle" x="1020.5" y="-772.65" font-family="Arial" font-size="14.00" fill="#cfffac">../../fn/modules/to&#45;type.js</text>
</g>
<!-- ../../dom/modules/create.js&#45;&gt;../../fn/modules/to&#45;type.js -->
<g id="edge8" class="edge">
<title>../../dom/modules/create.js&#45;&gt;../../fn/modules/to&#45;type.js</title>
<path fill="none" stroke="#757575" d="M827.23,-804.83C859.85,-800 897.93,-794.36 931.56,-789.38"/>
<polygon fill="#757575" stroke="#757575" points="932.47,-792.78 941.85,-787.85 931.44,-785.86 932.47,-792.78"/>
</g>
<!-- ../../dom/modules/element.js -->
<g id="node8" class="node">
<title>../../dom/modules/element.js</title>
<path fill="none" stroke="#c6c5fe" d="M573.83,-827.85C573.83,-827.85 401.17,-827.85 401.17,-827.85 397.33,-827.85 393.5,-824.01 393.5,-820.18 393.5,-820.18 393.5,-812.51 393.5,-812.51 393.5,-808.68 397.33,-804.85 401.17,-804.85 401.17,-804.85 573.83,-804.85 573.83,-804.85 577.67,-804.85 581.5,-808.68 581.5,-812.51 581.5,-812.51 581.5,-820.18 581.5,-820.18 581.5,-824.01 577.67,-827.85 573.83,-827.85"/>
<text text-anchor="middle" x="487.5" y="-812.65" font-family="Arial" font-size="14.00" fill="#c6c5fe">../../dom/modules/element.js</text>
</g>
<!-- ../../dom/modules/element.js&#45;&gt;../../dom/modules/create.js -->
<g id="edge9" class="edge">
<title>../../dom/modules/element.js&#45;&gt;../../dom/modules/create.js</title>
<path fill="none" stroke="#757575" d="M581.64,-816.35C603.9,-816.35 627.72,-816.35 650.16,-816.35"/>
<polygon fill="#757575" stroke="#757575" points="650.37,-819.85 660.37,-816.35 650.37,-812.85 650.37,-819.85"/>
</g>
<!-- ../../dom/modules/request&#45;template.js -->
<g id="node9" class="node">
<title>../../dom/modules/request&#45;template.js</title>
<path fill="none" stroke="#c6c5fe" d="M861.33,-966.85C861.33,-966.85 635.67,-966.85 635.67,-966.85 631.83,-966.85 628,-963.01 628,-959.18 628,-959.18 628,-951.51 628,-951.51 628,-947.68 631.83,-943.85 635.67,-943.85 635.67,-943.85 861.33,-943.85 861.33,-943.85 865.17,-943.85 869,-947.68 869,-951.51 869,-951.51 869,-959.18 869,-959.18 869,-963.01 865.17,-966.85 861.33,-966.85"/>
<text text-anchor="middle" x="748.5" y="-951.65" font-family="Arial" font-size="14.00" fill="#c6c5fe">../../dom/modules/request&#45;template.js</text>
</g>
<!-- ../../dom/modules/element.js&#45;&gt;../../dom/modules/request&#45;template.js -->
<g id="edge10" class="edge">
<title>../../dom/modules/element.js&#45;&gt;../../dom/modules/request&#45;template.js</title>
<path fill="none" stroke="#757575" d="M510.14,-827.96C556.13,-852.64 663.73,-910.39 716.8,-938.87"/>
<polygon fill="#757575" stroke="#757575" points="715.28,-942.03 725.74,-943.67 718.59,-935.86 715.28,-942.03"/>
</g>
<!-- ../../dom/modules/request&#45;template.js&#45;&gt;../../fn/modules/cache.js -->
<g id="edge28" class="edge">
<title>../../dom/modules/request&#45;template.js&#45;&gt;../../fn/modules/cache.js</title>
<path fill="none" stroke="#757575" d="M785.98,-966.9C909.92,-1004.38 1325.38,-1115.4 1654,-1031.35 1889.93,-971 2133.2,-791.73 2206.98,-734.28"/>
<polygon fill="#757575" stroke="#757575" points="2209.42,-736.82 2215.13,-727.89 2205.1,-731.31 2209.42,-736.82"/>
</g>
<!-- ../../dom/modules/parse.js -->
<g id="node21" class="node">
<title>../../dom/modules/parse.js</title>
<path fill="none" stroke="#cfffac" d="M1099.33,-987.85C1099.33,-987.85 941.67,-987.85 941.67,-987.85 937.83,-987.85 934,-984.01 934,-980.18 934,-980.18 934,-972.51 934,-972.51 934,-968.68 937.83,-964.85 941.67,-964.85 941.67,-964.85 1099.33,-964.85 1099.33,-964.85 1103.17,-964.85 1107,-968.68 1107,-972.51 1107,-972.51 1107,-980.18 1107,-980.18 1107,-984.01 1103.17,-987.85 1099.33,-987.85"/>
<text text-anchor="middle" x="1020.5" y="-972.65" font-family="Arial" font-size="14.00" fill="#cfffac">../../dom/modules/parse.js</text>
</g>
<!-- ../../dom/modules/request&#45;template.js&#45;&gt;../../dom/modules/parse.js -->
<g id="edge26" class="edge">
<title>../../dom/modules/request&#45;template.js&#45;&gt;../../dom/modules/parse.js</title>
<path fill="none" stroke="#757575" d="M869.11,-964.65C887.38,-966.07 906.04,-967.52 923.72,-968.9"/>
<polygon fill="#757575" stroke="#757575" points="923.76,-972.41 934,-969.7 924.3,-965.43 923.76,-972.41"/>
</g>
<!-- ../../dom/modules/request.js -->
<g id="node22" class="node">
<title>../../dom/modules/request.js</title>
<path fill="none" stroke="#c6c5fe" d="M1104.83,-946.85C1104.83,-946.85 936.17,-946.85 936.17,-946.85 932.33,-946.85 928.5,-943.01 928.5,-939.18 928.5,-939.18 928.5,-931.51 928.5,-931.51 928.5,-927.68 932.33,-923.85 936.17,-923.85 936.17,-923.85 1104.83,-923.85 1104.83,-923.85 1108.67,-923.85 1112.5,-927.68 1112.5,-931.51 1112.5,-931.51 1112.5,-939.18 1112.5,-939.18 1112.5,-943.01 1108.67,-946.85 1104.83,-946.85"/>
<text text-anchor="middle" x="1020.5" y="-931.65" font-family="Arial" font-size="14.00" fill="#c6c5fe">../../dom/modules/request.js</text>
</g>
<!-- ../../dom/modules/request&#45;template.js&#45;&gt;../../dom/modules/request.js -->
<g id="edge27" class="edge">
<title>../../dom/modules/request&#45;template.js&#45;&gt;../../dom/modules/request.js</title>
<path fill="none" stroke="#757575" d="M869.11,-946.49C885.42,-945.28 902.04,-944.05 917.99,-942.87"/>
<polygon fill="#757575" stroke="#757575" points="918.65,-946.33 928.37,-942.1 918.14,-939.35 918.65,-946.33"/>
</g>
<!-- ../../dom/modules/event.js -->
<g id="node10" class="node">
<title>../../dom/modules/event.js</title>
<path fill="none" stroke="#cfffac" d="M1098.83,-189.85C1098.83,-189.85 942.17,-189.85 942.17,-189.85 938.33,-189.85 934.5,-186.01 934.5,-182.18 934.5,-182.18 934.5,-174.51 934.5,-174.51 934.5,-170.68 938.33,-166.85 942.17,-166.85 942.17,-166.85 1098.83,-166.85 1098.83,-166.85 1102.67,-166.85 1106.5,-170.68 1106.5,-174.51 1106.5,-174.51 1106.5,-182.18 1106.5,-182.18 1106.5,-186.01 1102.67,-189.85 1098.83,-189.85"/>
<text text-anchor="middle" x="1020.5" y="-174.65" font-family="Arial" font-size="14.00" fill="#cfffac">../../dom/modules/event.js</text>
</g>
<!-- ../../dom/modules/events.js -->
<g id="node11" class="node">
<title>../../dom/modules/events.js</title>
<path fill="none" stroke="#c6c5fe" d="M830.33,-290.85C830.33,-290.85 666.67,-290.85 666.67,-290.85 662.83,-290.85 659,-287.01 659,-283.18 659,-283.18 659,-275.51 659,-275.51 659,-271.68 662.83,-267.85 666.67,-267.85 666.67,-267.85 830.33,-267.85 830.33,-267.85 834.17,-267.85 838,-271.68 838,-275.51 838,-275.51 838,-283.18 838,-283.18 838,-287.01 834.17,-290.85 830.33,-290.85"/>
<text text-anchor="middle" x="748.5" y="-275.65" font-family="Arial" font-size="14.00" fill="#c6c5fe">../../dom/modules/events.js</text>
</g>
<!-- ../../dom/modules/events.js&#45;&gt;../../dom/modules/event.js -->
<g id="edge11" class="edge">
<title>../../dom/modules/events.js&#45;&gt;../../dom/modules/event.js</title>
<path fill="none" stroke="#757575" d="M767.35,-267.7C795.45,-249.93 852.24,-216.22 905,-198.35 911.77,-196.06 918.85,-194.02 926.04,-192.2"/>
<polygon fill="#757575" stroke="#757575" points="926.96,-195.58 935.88,-189.86 925.34,-188.77 926.96,-195.58"/>
</g>
<!-- ../../dom/modules/features.js -->
<g id="node12" class="node">
<title>../../dom/modules/features.js</title>
<path fill="none" stroke="#c6c5fe" d="M1106.83,-310.85C1106.83,-310.85 934.17,-310.85 934.17,-310.85 930.33,-310.85 926.5,-307.01 926.5,-303.18 926.5,-303.18 926.5,-295.51 926.5,-295.51 926.5,-291.68 930.33,-287.85 934.17,-287.85 934.17,-287.85 1106.83,-287.85 1106.83,-287.85 1110.67,-287.85 1114.5,-291.68 1114.5,-295.51 1114.5,-295.51 1114.5,-303.18 1114.5,-303.18 1114.5,-307.01 1110.67,-310.85 1106.83,-310.85"/>
<text text-anchor="middle" x="1020.5" y="-295.65" font-family="Arial" font-size="14.00" fill="#c6c5fe">../../dom/modules/features.js</text>
</g>
<!-- ../../dom/modules/events.js&#45;&gt;../../dom/modules/features.js -->
<g id="edge12" class="edge">
<title>../../dom/modules/events.js&#45;&gt;../../dom/modules/features.js</title>
<path fill="none" stroke="#757575" d="M838.28,-285.92C863.25,-287.77 890.61,-289.8 916.34,-291.71"/>
<polygon fill="#757575" stroke="#757575" points="916.26,-295.21 926.49,-292.46 916.78,-288.23 916.26,-295.21"/>
</g>
<!-- ../../fn/modules/stream.js -->
<g id="node13" class="node">
<title>../../fn/modules/stream.js</title>
<path fill="none" stroke="#c6c5fe" d="M1372.83,-171.85C1372.83,-171.85 1223.17,-171.85 1223.17,-171.85 1219.33,-171.85 1215.5,-168.01 1215.5,-164.18 1215.5,-164.18 1215.5,-156.51 1215.5,-156.51 1215.5,-152.68 1219.33,-148.85 1223.17,-148.85 1223.17,-148.85 1372.83,-148.85 1372.83,-148.85 1376.67,-148.85 1380.5,-152.68 1380.5,-156.51 1380.5,-156.51 1380.5,-164.18 1380.5,-164.18 1380.5,-168.01 1376.67,-171.85 1372.83,-171.85"/>
<text text-anchor="middle" x="1298" y="-156.65" font-family="Arial" font-size="14.00" fill="#c6c5fe">../../fn/modules/stream.js</text>
</g>
<!-- ../../dom/modules/events.js&#45;&gt;../../fn/modules/stream.js -->
<g id="edge13" class="edge">
<title>../../dom/modules/events.js&#45;&gt;../../fn/modules/stream.js</title>
<path fill="none" stroke="#757575" d="M838.29,-278.98C917.73,-276.59 1036.63,-267.88 1136,-239.35 1185.63,-225.1 1238.52,-196.16 1269.63,-177.54"/>
<polygon fill="#757575" stroke="#757575" points="1271.82,-180.3 1278.55,-172.12 1268.19,-174.32 1271.82,-180.3"/>
</g>
<!-- ../../fn/modules/stream.wait.js -->
<g id="node14" class="node">
<title>../../fn/modules/stream.wait.js</title>
<path fill="none" stroke="#c6c5fe" d="M1109.33,-230.85C1109.33,-230.85 931.67,-230.85 931.67,-230.85 927.83,-230.85 924,-227.01 924,-223.18 924,-223.18 924,-215.51 924,-215.51 924,-211.68 927.83,-207.85 931.67,-207.85 931.67,-207.85 1109.33,-207.85 1109.33,-207.85 1113.17,-207.85 1117,-211.68 1117,-215.51 1117,-215.51 1117,-223.18 1117,-223.18 1117,-227.01 1113.17,-230.85 1109.33,-230.85"/>
<text text-anchor="middle" x="1020.5" y="-215.65" font-family="Arial" font-size="14.00" fill="#c6c5fe">../../fn/modules/stream.wait.js</text>
</g>
<!-- ../../dom/modules/events.js&#45;&gt;../../fn/modules/stream.wait.js -->
<g id="edge14" class="edge">
<title>../../dom/modules/events.js&#45;&gt;../../fn/modules/stream.wait.js</title>
<path fill="none" stroke="#757575" d="M801.56,-267.78C846.19,-257.86 910.58,-243.55 957.8,-233.06"/>
<polygon fill="#757575" stroke="#757575" points="958.6,-236.47 967.6,-230.88 957.08,-229.63 958.6,-236.47"/>
</g>
<!-- ../../dom/modules/prefix.js -->
<g id="node15" class="node">
<title>../../dom/modules/prefix.js</title>
<path fill="none" stroke="#cfffac" d="M1376.33,-310.85C1376.33,-310.85 1219.67,-310.85 1219.67,-310.85 1215.83,-310.85 1212,-307.01 1212,-303.18 1212,-303.18 1212,-295.51 1212,-295.51 1212,-291.68 1215.83,-287.85 1219.67,-287.85 1219.67,-287.85 1376.33,-287.85 1376.33,-287.85 1380.17,-287.85 1384,-291.68 1384,-295.51 1384,-295.51 1384,-303.18 1384,-303.18 1384,-307.01 1380.17,-310.85 1376.33,-310.85"/>
<text text-anchor="middle" x="1298" y="-295.65" font-family="Arial" font-size="14.00" fill="#cfffac">../../dom/modules/prefix.js</text>
</g>
<!-- ../../dom/modules/features.js&#45;&gt;../../dom/modules/prefix.js -->
<g id="edge15" class="edge">
<title>../../dom/modules/features.js&#45;&gt;../../dom/modules/prefix.js</title>
<path fill="none" stroke="#757575" d="M1114.77,-299.35C1142.72,-299.35 1173.4,-299.35 1201.48,-299.35"/>
<polygon fill="#757575" stroke="#757575" points="1201.71,-302.85 1211.71,-299.35 1201.71,-295.85 1201.71,-302.85"/>
</g>
<!-- ../../dom/modules/features.js&#45;&gt;../../fn/modules/cache.js -->
<g id="edge16" class="edge">
<title>../../dom/modules/features.js&#45;&gt;../../fn/modules/cache.js</title>
<path fill="none" stroke="#757575" d="M1091.4,-310.86C1106.19,-313.66 1121.66,-316.87 1136,-320.35 1492.6,-406.92 1585.89,-422.58 1926,-560.35 2030.9,-602.84 2148.24,-668.78 2201.05,-699.52"/>
<polygon fill="#757575" stroke="#757575" points="2199.44,-702.63 2209.84,-704.66 2202.98,-696.59 2199.44,-702.63"/>
</g>
<!-- ../../fn/modules/stream.js&#45;&gt;../../fn/modules/noop.js -->
<g id="edge56" class="edge">
<title>../../fn/modules/stream.js&#45;&gt;../../fn/modules/noop.js</title>
<path fill="none" stroke="#757575" d="M1329.62,-148.82C1375.39,-131.6 1456.66,-101.09 1460,-100.35 1561.15,-77.77 1835.7,-30.48 1926,-81.35 1988.74,-116.69 2020.21,-203.14 2031.94,-243.69"/>
<polygon fill="#757575" stroke="#757575" points="2028.58,-244.68 2034.61,-253.39 2035.33,-242.82 2028.58,-244.68"/>
</g>
<!-- ../../fn/modules/nothing.js -->
<g id="node24" class="node">
<title>../../fn/modules/nothing.js</title>
<path fill="none" stroke="#c6c5fe" d="M1883.83,-398.85C1883.83,-398.85 1732.17,-398.85 1732.17,-398.85 1728.33,-398.85 1724.5,-395.01 1724.5,-391.18 1724.5,-391.18 1724.5,-383.51 1724.5,-383.51 1724.5,-379.68 1728.33,-375.85 1732.17,-375.85 1732.17,-375.85 1883.83,-375.85 1883.83,-375.85 1887.67,-375.85 1891.5,-379.68 1891.5,-383.51 1891.5,-383.51 1891.5,-391.18 1891.5,-391.18 1891.5,-395.01 1887.67,-398.85 1883.83,-398.85"/>
<text text-anchor="middle" x="1808" y="-383.65" font-family="Arial" font-size="14.00" fill="#c6c5fe">../../fn/modules/nothing.js</text>
</g>
<!-- ../../fn/modules/stream.js&#45;&gt;../../fn/modules/nothing.js -->
<g id="edge57" class="edge">
<title>../../fn/modules/stream.js&#45;&gt;../../fn/modules/nothing.js</title>
<path fill="none" stroke="#757575" d="M1380.79,-165.15C1396.48,-169.27 1411.8,-175.89 1424,-186.35 1458.6,-216 1425.3,-252.81 1460,-282.35 1526.97,-339.35 1579.14,-275.19 1654,-321.35 1676.1,-334.97 1667.71,-354.04 1690,-367.35 1697.59,-371.88 1705.91,-375.45 1714.52,-378.26"/>
<polygon fill="#757575" stroke="#757575" points="1713.75,-381.68 1724.33,-381.11 1715.71,-374.96 1713.75,-381.68"/>
</g>
<!-- ../../fn/modules/fn.js -->
<g id="node34" class="node">
<title>../../fn/modules/fn.js</title>
<path fill="none" stroke="#c6c5fe" d="M1616.33,-192.85C1616.33,-192.85 1497.67,-192.85 1497.67,-192.85 1493.83,-192.85 1490,-189.01 1490,-185.18 1490,-185.18 1490,-177.51 1490,-177.51 1490,-173.68 1493.83,-169.85 1497.67,-169.85 1497.67,-169.85 1616.33,-169.85 1616.33,-169.85 1620.17,-169.85 1624,-173.68 1624,-177.51 1624,-177.51 1624,-185.18 1624,-185.18 1624,-189.01 1620.17,-192.85 1616.33,-192.85"/>
<text text-anchor="middle" x="1557" y="-177.65" font-family="Arial" font-size="14.00" fill="#c6c5fe">../../fn/modules/fn.js</text>
</g>
<!-- ../../fn/modules/stream.js&#45;&gt;../../fn/modules/fn.js -->
<g id="edge54" class="edge">
<title>../../fn/modules/stream.js&#45;&gt;../../fn/modules/fn.js</title>
<path fill="none" stroke="#757575" d="M1380.67,-167.02C1412.36,-169.61 1448.46,-172.56 1479.63,-175.11"/>
<polygon fill="#757575" stroke="#757575" points="1479.74,-178.63 1489.99,-175.95 1480.31,-171.65 1479.74,-178.63"/>
</g>
<!-- ../../fn/modules/to&#45;array.js -->
<g id="node37" class="node">
<title>../../fn/modules/to&#45;array.js</title>
<path fill="none" stroke="#cfffac" d="M1884.83,-113.85C1884.83,-113.85 1731.17,-113.85 1731.17,-113.85 1727.33,-113.85 1723.5,-110.01 1723.5,-106.18 1723.5,-106.18 1723.5,-98.51 1723.5,-98.51 1723.5,-94.68 1727.33,-90.85 1731.17,-90.85 1731.17,-90.85 1884.83,-90.85 1884.83,-90.85 1888.67,-90.85 1892.5,-94.68 1892.5,-98.51 1892.5,-98.51 1892.5,-106.18 1892.5,-106.18 1892.5,-110.01 1888.67,-113.85 1884.83,-113.85"/>
<text text-anchor="middle" x="1808" y="-98.65" font-family="Arial" font-size="14.00" fill="#cfffac">../../fn/modules/to&#45;array.js</text>
</g>
<!-- ../../fn/modules/stream.js&#45;&gt;../../fn/modules/to&#45;array.js -->
<g id="edge61" class="edge">
<title>../../fn/modules/stream.js&#45;&gt;../../fn/modules/to&#45;array.js</title>
<path fill="none" stroke="#757575" d="M1335.66,-148.77C1368.02,-139.1 1416.64,-125.86 1460,-119.35 1545.13,-106.56 1643.2,-102.74 1713.32,-101.87"/>
<polygon fill="#757575" stroke="#757575" points="1713.49,-105.37 1723.45,-101.77 1713.42,-98.37 1713.49,-105.37"/>
</g>
<!-- ../../fn/modules/lists/core.js -->
<g id="node39" class="node">
<title>../../fn/modules/lists/core.js</title>
<path fill="none" stroke="#c6c5fe" d="M1637.33,-151.85C1637.33,-151.85 1476.67,-151.85 1476.67,-151.85 1472.83,-151.85 1469,-148.01 1469,-144.18 1469,-144.18 1469,-136.51 1469,-136.51 1469,-132.68 1472.83,-128.85 1476.67,-128.85 1476.67,-128.85 1637.33,-128.85 1637.33,-128.85 1641.17,-128.85 1645,-132.68 1645,-136.51 1645,-136.51 1645,-144.18 1645,-144.18 1645,-148.01 1641.17,-151.85 1637.33,-151.85"/>
<text text-anchor="middle" x="1557" y="-136.65" font-family="Arial" font-size="14.00" fill="#c6c5fe">../../fn/modules/lists/core.js</text>
</g>
<!-- ../../fn/modules/stream.js&#45;&gt;../../fn/modules/lists/core.js -->
<g id="edge55" class="edge">
<title>../../fn/modules/stream.js&#45;&gt;../../fn/modules/lists/core.js</title>
<path fill="none" stroke="#757575" d="M1380.67,-153.99C1405.45,-152.06 1432.93,-149.93 1458.63,-147.93"/>
<polygon fill="#757575" stroke="#757575" points="1459.07,-151.4 1468.77,-147.14 1458.53,-144.42 1459.07,-151.4"/>
</g>
<!-- ../../fn/modules/now.js -->
<g id="node43" class="node">
<title>../../fn/modules/now.js</title>
<path fill="none" stroke="#cfffac" d="M1873.83,-316.85C1873.83,-316.85 1742.17,-316.85 1742.17,-316.85 1738.33,-316.85 1734.5,-313.01 1734.5,-309.18 1734.5,-309.18 1734.5,-301.51 1734.5,-301.51 1734.5,-297.68 1738.33,-293.85 1742.17,-293.85 1742.17,-293.85 1873.83,-293.85 1873.83,-293.85 1877.67,-293.85 1881.5,-297.68 1881.5,-301.51 1881.5,-301.51 1881.5,-309.18 1881.5,-309.18 1881.5,-313.01 1877.67,-316.85 1873.83,-316.85"/>
<text text-anchor="middle" x="1808" y="-301.65" font-family="Arial" font-size="14.00" fill="#cfffac">../../fn/modules/now.js</text>
</g>
<!-- ../../fn/modules/stream.js&#45;&gt;../../fn/modules/now.js -->
<g id="edge58" class="edge">
<title>../../fn/modules/stream.js&#45;&gt;../../fn/modules/now.js</title>
<path fill="none" stroke="#757575" d="M1366.09,-171.86C1385,-175.77 1405.47,-180.62 1424,-186.35 1440.56,-191.47 1443.42,-196.28 1460,-201.35 1544.11,-227.05 1578.9,-194.59 1654,-240.35 1675.87,-253.67 1667.94,-272.34 1690,-285.35 1700.4,-291.48 1712.17,-295.85 1724.14,-298.95"/>
<polygon fill="#757575" stroke="#757575" points="1723.68,-302.44 1734.21,-301.26 1725.25,-295.61 1723.68,-302.44"/>
</g>
<!-- ../../fn/modules/privates.js -->
<g id="node45" class="node">
<title>../../fn/modules/privates.js</title>
<path fill="none" stroke="#cfffac" d="M1634.33,-352.85C1634.33,-352.85 1479.67,-352.85 1479.67,-352.85 1475.83,-352.85 1472,-349.01 1472,-345.18 1472,-345.18 1472,-337.51 1472,-337.51 1472,-333.68 1475.83,-329.85 1479.67,-329.85 1479.67,-329.85 1634.33,-329.85 1634.33,-329.85 1638.17,-329.85 1642,-333.68 1642,-337.51 1642,-337.51 1642,-345.18 1642,-345.18 1642,-349.01 1638.17,-352.85 1634.33,-352.85"/>
<text text-anchor="middle" x="1557" y="-337.65" font-family="Arial" font-size="14.00" fill="#cfffac">../../fn/modules/privates.js</text>
</g>
<!-- ../../fn/modules/stream.js&#45;&gt;../../fn/modules/privates.js -->
<g id="edge59" class="edge">
<title>../../fn/modules/stream.js&#45;&gt;../../fn/modules/privates.js</title>
<path fill="none" stroke="#757575" d="M1380.54,-164.1C1396.52,-168.25 1412.02,-175.15 1424,-186.35 1467.48,-227 1417.75,-273.42 1460,-315.35 1463.73,-319.05 1467.94,-322.25 1472.45,-324.99"/>
<polygon fill="#757575" stroke="#757575" points="1470.98,-328.18 1481.46,-329.75 1474.25,-321.99 1470.98,-328.18"/>
</g>
<!-- ../../fn/modules/timer.js -->
<g id="node47" class="node">
<title>../../fn/modules/timer.js</title>
<path fill="none" stroke="#c6c5fe" d="M1625.83,-272.85C1625.83,-272.85 1488.17,-272.85 1488.17,-272.85 1484.33,-272.85 1480.5,-269.01 1480.5,-265.18 1480.5,-265.18 1480.5,-257.51 1480.5,-257.51 1480.5,-253.68 1484.33,-249.85 1488.17,-249.85 1488.17,-249.85 1625.83,-249.85 1625.83,-249.85 1629.67,-249.85 1633.5,-253.68 1633.5,-257.51 1633.5,-257.51 1633.5,-265.18 1633.5,-265.18 1633.5,-269.01 1629.67,-272.85 1625.83,-272.85"/>
<text text-anchor="middle" x="1557" y="-257.65" font-family="Arial" font-size="14.00" fill="#c6c5fe">../../fn/modules/timer.js</text>
</g>
<!-- ../../fn/modules/stream.js&#45;&gt;../../fn/modules/timer.js -->
<g id="edge60" class="edge">
<title>../../fn/modules/stream.js&#45;&gt;../../fn/modules/timer.js</title>
<path fill="none" stroke="#757575" d="M1380.73,-168.38C1395.9,-172.3 1411.04,-178.02 1424,-186.35 1446.73,-200.96 1437.71,-220.07 1460,-235.35 1466.17,-239.58 1473,-243.12 1480.09,-246.08"/>
<polygon fill="#757575" stroke="#757575" points="1479.29,-249.52 1489.88,-249.78 1481.76,-242.98 1479.29,-249.52"/>
</g>
<!-- ../../fn/modules/stream.wait.js&#45;&gt;../../fn/modules/stream.js -->
<g id="edge63" class="edge">
<title>../../fn/modules/stream.wait.js&#45;&gt;../../fn/modules/stream.js</title>
<path fill="none" stroke="#757575" d="M1087.61,-207.81C1103.49,-204.88 1120.37,-201.62 1136,-198.35 1171.13,-190.99 1210.33,-181.76 1241.25,-174.24"/>
<polygon fill="#757575" stroke="#757575" points="1242.1,-177.63 1250.99,-171.86 1240.44,-170.83 1242.1,-177.63"/>
</g>
<!-- ../../fn/modules/choke.js -->
<g id="node27" class="node">
<title>../../fn/modules/choke.js</title>
<path fill="none" stroke="#c6c5fe" d="M1628.83,-33.85C1628.83,-33.85 1485.17,-33.85 1485.17,-33.85 1481.33,-33.85 1477.5,-30.01 1477.5,-26.18 1477.5,-26.18 1477.5,-18.51 1477.5,-18.51 1477.5,-14.68 1481.33,-10.85 1485.17,-10.85 1485.17,-10.85 1628.83,-10.85 1628.83,-10.85 1632.67,-10.85 1636.5,-14.68 1636.5,-18.51 1636.5,-18.51 1636.5,-26.18 1636.5,-26.18 1636.5,-30.01 1632.67,-33.85 1628.83,-33.85"/>
<text text-anchor="middle" x="1557" y="-18.65" font-family="Arial" font-size="14.00" fill="#c6c5fe">../../fn/modules/choke.js</text>
</g>
<!-- ../../fn/modules/stream.wait.js&#45;&gt;../../fn/modules/choke.js -->
<g id="edge62" class="edge">
<title>../../fn/modules/stream.wait.js&#45;&gt;../../fn/modules/choke.js</title>
<path fill="none" stroke="#757575" d="M1117.13,-208.38C1123.79,-205.66 1130.17,-202.35 1136,-198.35 1161.32,-180.95 1147.82,-158.29 1172,-139.35 1277.68,-56.57 1331.19,-86.12 1460,-48.35 1473.6,-44.36 1488.35,-40.26 1502.11,-36.52"/>
<polygon fill="#757575" stroke="#757575" points="1503.18,-39.86 1511.92,-33.87 1501.36,-33.1 1503.18,-39.86"/>
</g>
<!-- ../../dom/modules/gestures.js -->
<g id="node17" class="node">
<title>../../dom/modules/gestures.js</title>
<path fill="none" stroke="#c6c5fe" d="M334.33,-353.85C334.33,-353.85 158.67,-353.85 158.67,-353.85 154.83,-353.85 151,-350.01 151,-346.18 151,-346.18 151,-338.51 151,-338.51 151,-334.68 154.83,-330.85 158.67,-330.85 158.67,-330.85 334.33,-330.85 334.33,-330.85 338.17,-330.85 342,-334.68 342,-338.51 342,-338.51 342,-346.18 342,-346.18 342,-350.01 338.17,-353.85 334.33,-353.85"/>
<text text-anchor="middle" x="246.5" y="-338.65" font-family="Arial" font-size="14.00" fill="#c6c5fe">../../dom/modules/gestures.js</text>
</g>
<!-- ../../dom/modules/gestures.js&#45;&gt;../../dom/modules/events.js -->
<g id="edge17" class="edge">
<title>../../dom/modules/gestures.js&#45;&gt;../../dom/modules/events.js</title>
<path fill="none" stroke="#757575" d="M338.92,-330.83C426.65,-319.78 558.76,-303.13 648.84,-291.78"/>
<polygon fill="#757575" stroke="#757575" points="649.3,-295.25 658.79,-290.53 648.43,-288.3 649.3,-295.25"/>
</g>
<!-- ../../dom/modules/gestures.js&#45;&gt;../../fn/modules/stream.js -->
<g id="edge19" class="edge">
<title>../../dom/modules/gestures.js&#45;&gt;../../fn/modules/stream.js</title>
<path fill="none" stroke="#757575" d="M278.77,-330.75C306.09,-320.8 346.92,-306.36 383,-295.35 612.52,-225.31 667.03,-188.27 905,-157.35 1006.81,-144.12 1033.34,-156.39 1136,-157.35 1158.3,-157.56 1182.34,-157.93 1204.87,-158.34"/>
<polygon fill="#757575" stroke="#757575" points="1205.04,-161.84 1215.1,-158.53 1205.17,-154.84 1205.04,-161.84"/>
</g>
<!-- ../../dom/modules/parse&#45;value.js -->
<g id="node18" class="node">
<title>../../dom/modules/parse&#45;value.js</title>
<path fill="none" stroke="#c6c5fe" d="M584.33,-643.85C584.33,-643.85 390.67,-643.85 390.67,-643.85 386.83,-643.85 383,-640.01 383,-636.18 383,-636.18 383,-628.51 383,-628.51 383,-624.68 386.83,-620.85 390.67,-620.85 390.67,-620.85 584.33,-620.85 584.33,-620.85 588.17,-620.85 592,-624.68 592,-628.51 592,-628.51 592,-636.18 592,-636.18 592,-640.01 588.17,-643.85 584.33,-643.85"/>
<text text-anchor="middle" x="487.5" y="-628.65" font-family="Arial" font-size="14.00" fill="#c6c5fe">../../dom/modules/parse&#45;value.js</text>
</g>
<!-- ../../dom/modules/gestures.js&#45;&gt;../../dom/modules/parse&#45;value.js -->
<g id="edge18" class="edge">
<title>../../dom/modules/gestures.js&#45;&gt;../../dom/modules/parse&#45;value.js</title>
<path fill="none" stroke="#757575" d="M257.17,-354.08C293.8,-398.53 424.39,-556.99 470.35,-612.76"/>
<polygon fill="#757575" stroke="#757575" points="467.92,-615.3 476.98,-620.79 473.32,-610.85 467.92,-615.3"/>
</g>
<!-- ../../dom/modules/parse&#45;value.js&#45;&gt;../../fn/modules/id.js -->
<g id="edge22" class="edge">
<title>../../dom/modules/parse&#45;value.js&#45;&gt;../../fn/modules/id.js</title>
<path fill="none" stroke="#757575" d="M508.53,-643.98C534.96,-658.75 583.36,-683.81 628,-696.35 682.72,-711.72 1090.01,-722.96 1136,-756.35 1166.9,-778.78 1141.57,-811.29 1172,-834.35 1185.98,-844.95 1203.4,-850.88 1220.75,-854.03"/>
<polygon fill="#757575" stroke="#757575" points="1220.52,-857.53 1230.93,-855.57 1221.57,-850.61 1220.52,-857.53"/>
</g>
<!-- ../../dom/modules/parse&#45;value.js&#45;&gt;../../fn/modules/overload.js -->
<g id="edge23" class="edge">
<title>../../dom/modules/parse&#45;value.js&#45;&gt;../../fn/modules/overload.js</title>
<path fill="none" stroke="#757575" d="M516.27,-643.92C544.04,-654.96 588.21,-671.09 628,-679.35 738.93,-702.38 1040.91,-660.76 1136,-722.35 1163.72,-740.3 1145.41,-767.76 1172,-787.35 1180.68,-793.74 1190.56,-798.64 1200.89,-802.39"/>
<polygon fill="#757575" stroke="#757575" points="1199.89,-805.74 1210.48,-805.52 1202.06,-799.09 1199.89,-805.74"/>
</g>
<!-- ../../dom/modules/parse&#45;value.js&#45;&gt;../../fn/modules/to&#45;type.js -->
<g id="edge25" class="edge">
<title>../../dom/modules/parse&#45;value.js&#45;&gt;../../fn/modules/to&#45;type.js</title>
<path fill="none" stroke="#757575" d="M519.88,-643.95C542.03,-653.34 571.33,-668.29 592,-688.35 614.87,-710.54 600.93,-733.54 628,-750.35 676.33,-780.35 828.23,-782.27 927.99,-779.98"/>
<polygon fill="#757575" stroke="#757575" points="928.17,-783.48 938.08,-779.73 928,-776.48 928.17,-783.48"/>
</g>
<!-- ../../dom/modules/parse&#45;value.js&#45;&gt;../../dom/modules/events.js -->
<g id="edge20" class="edge">
<title>../../dom/modules/parse&#45;value.js&#45;&gt;../../dom/modules/events.js</title>
<path fill="none" stroke="#757575" d="M497.12,-620.6C534.76,-569.3 684.99,-364.54 732.81,-299.38"/>
<polygon fill="#757575" stroke="#757575" points="735.76,-301.27 738.85,-291.14 730.11,-297.13 735.76,-301.27"/>
</g>
<!-- ../../dom/modules/style.js -->
<g id="node19" class="node">
<title>../../dom/modules/style.js</title>
<path fill="none" stroke="#cfffac" d="M824.33,-628.85C824.33,-628.85 672.67,-628.85 672.67,-628.85 668.83,-628.85 665,-625.01 665,-621.18 665,-621.18 665,-613.51 665,-613.51 665,-609.68 668.83,-605.85 672.67,-605.85 672.67,-605.85 824.33,-605.85 824.33,-605.85 828.17,-605.85 832,-609.68 832,-613.51 832,-613.51 832,-621.18 832,-621.18 832,-625.01 828.17,-628.85 824.33,-628.85"/>
<text text-anchor="middle" x="748.5" y="-613.65" font-family="Arial" font-size="14.00" fill="#cfffac">../../dom/modules/style.js</text>
</g>
<!-- ../../dom/modules/parse&#45;value.js&#45;&gt;../../dom/modules/style.js -->
<g id="edge21" class="edge">
<title>../../dom/modules/parse&#45;value.js&#45;&gt;../../dom/modules/style.js</title>
<path fill="none" stroke="#757575" d="M592.35,-626.33C612.94,-625.14 634.43,-623.9 654.62,-622.73"/>
<polygon fill="#757575" stroke="#757575" points="654.95,-626.21 664.74,-622.14 654.55,-619.23 654.95,-626.21"/>
</g>
<!-- ../../fn/modules/parse&#45;value.js -->
<g id="node20" class="node">
<title>../../fn/modules/parse&#45;value.js</title>
<path fill="none" stroke="#c6c5fe" d="M837.83,-669.85C837.83,-669.85 659.17,-669.85 659.17,-669.85 655.33,-669.85 651.5,-666.01 651.5,-662.18 651.5,-662.18 651.5,-654.51 651.5,-654.51 651.5,-650.68 655.33,-646.85 659.17,-646.85 659.17,-646.85 837.83,-646.85 837.83,-646.85 841.67,-646.85 845.5,-650.68 845.5,-654.51 845.5,-654.51 845.5,-662.18 845.5,-662.18 845.5,-666.01 841.67,-669.85 837.83,-669.85"/>
<text text-anchor="middle" x="748.5" y="-654.65" font-family="Arial" font-size="14.00" fill="#c6c5fe">../../fn/modules/parse&#45;value.js</text>
</g>
<!-- ../../dom/modules/parse&#45;value.js&#45;&gt;../../fn/modules/parse&#45;value.js -->
<g id="edge24" class="edge">
<title>../../dom/modules/parse&#45;value.js&#45;&gt;../../fn/modules/parse&#45;value.js</title>
<path fill="none" stroke="#757575" d="M592.35,-642.77C608.44,-644.39 625.07,-646.06 641.21,-647.68"/>
<polygon fill="#757575" stroke="#757575" points="640.88,-651.16 651.18,-648.68 641.58,-644.2 640.88,-651.16"/>
</g>
<!-- ../../fn/modules/parse&#45;value.js&#45;&gt;../../fn/modules/curry.js -->
<g id="edge53" class="edge">
<title>../../fn/modules/parse&#45;value.js&#45;&gt;../../fn/modules/curry.js</title>
<path fill="none" stroke="#757575" d="M845.84,-653.88C944.46,-651.13 1089.65,-652.65 1136,-682.35 1164.46,-700.59 1143.08,-731.85 1172,-749.35 1263.65,-804.79 1546.93,-755.3 1654,-752.35 1775.03,-749.01 1805.81,-751.92 1926,-737.35 1941.64,-735.45 1958.39,-732.69 1974.03,-729.79"/>
<polygon fill="#757575" stroke="#757575" points="1974.96,-733.18 1984.13,-727.87 1973.65,-726.3 1974.96,-733.18"/>
</g>
<!-- ../../dom/modules/request.js&#45;&gt;../../fn/modules/id.js -->
<g id="edge30" class="edge">
<title>../../dom/modules/request.js&#45;&gt;../../fn/modules/id.js</title>
<path fill="none" stroke="#757575" d="M1099.24,-923.82C1111.62,-921.39 1124.23,-918.58 1136,-915.35 1180.28,-903.21 1229.39,-883.68 1261.59,-869.99"/>
<polygon fill="#757575" stroke="#757575" points="1263.2,-873.11 1271.01,-865.95 1260.44,-866.67 1263.2,-873.11"/>
</g>
<!-- ../../fn/modules/choose.js -->
<g id="node23" class="node">
<title>../../fn/modules/choose.js</title>
<path fill="none" stroke="#c6c5fe" d="M1373.83,-1021.85C1373.83,-1021.85 1222.17,-1021.85 1222.17,-1021.85 1218.33,-1021.85 1214.5,-1018.01 1214.5,-1014.18 1214.5,-1014.18 1214.5,-1006.51 1214.5,-1006.51 1214.5,-1002.68 1218.33,-998.85 1222.17,-998.85 1222.17,-998.85 1373.83,-998.85 1373.83,-998.85 1377.67,-998.85 1381.5,-1002.68 1381.5,-1006.51 1381.5,-1006.51 1381.5,-1014.18 1381.5,-1014.18 1381.5,-1018.01 1377.67,-1021.85 1373.83,-1021.85"/>
<text text-anchor="middle" x="1298" y="-1006.65" font-family="Arial" font-size="14.00" fill="#c6c5fe">../../fn/modules/choose.js</text>
</g>
<!-- ../../dom/modules/request.js&#45;&gt;../../fn/modules/choose.js -->
<g id="edge29" class="edge">
<title>../../dom/modules/request.js&#45;&gt;../../fn/modules/choose.js</title>
<path fill="none" stroke="#757575" d="M1109.11,-946.88C1118.38,-949.43 1127.52,-952.55 1136,-956.35 1154.5,-964.64 1153.6,-975.84 1172,-984.35 1182.27,-989.1 1193.42,-992.99 1204.68,-996.17"/>
<polygon fill="#757575" stroke="#757575" points="1204.02,-999.61 1214.59,-998.79 1205.81,-992.85 1204.02,-999.61"/>
</g>
<!-- ../../dom/modules/request.js&#45;&gt;../../fn/modules/nothing.js -->
<g id="edge31" class="edge">
<title>../../dom/modules/request.js&#45;&gt;../../fn/modules/nothing.js</title>
<path fill="none" stroke="#757575" d="M1085.82,-946.88C1175.05,-958.81 1335.41,-964.86 1424,-875.35 1506.06,-792.43 1380.06,-700.31 1460,-615.35 1520.27,-551.3 1578.76,-621.89 1654,-576.35 1723.92,-534.03 1775.58,-447.63 1796.62,-408.02"/>
<polygon fill="#757575" stroke="#757575" points="1799.8,-409.5 1801.3,-399.02 1793.58,-406.27 1799.8,-409.5"/>
</g>
<!-- ../../fn/modules/lists/rest.js -->
<g id="node28" class="node">
<title>../../fn/modules/lists/rest.js</title>
<path fill="none" stroke="#cfffac" d="M1635.83,-1021.85C1635.83,-1021.85 1478.17,-1021.85 1478.17,-1021.85 1474.33,-1021.85 1470.5,-1018.01 1470.5,-1014.18 1470.5,-1014.18 1470.5,-1006.51 1470.5,-1006.51 1470.5,-1002.68 1474.33,-998.85 1478.17,-998.85 1478.17,-998.85 1635.83,-998.85 1635.83,-998.85 1639.67,-998.85 1643.5,-1002.68 1643.5,-1006.51 1643.5,-1006.51 1643.5,-1014.18 1643.5,-1014.18 1643.5,-1018.01 1639.67,-1021.85 1635.83,-1021.85"/>
<text text-anchor="middle" x="1557" y="-1006.65" font-family="Arial" font-size="14.00" fill="#cfffac">../../fn/modules/lists/rest.js</text>
</g>
<!-- ../../fn/modules/choose.js&#45;&gt;../../fn/modules/lists/rest.js -->
<g id="edge35" class="edge">
<title>../../fn/modules/choose.js&#45;&gt;../../fn/modules/lists/rest.js</title>
<path fill="none" stroke="#757575" d="M1381.73,-1010.35C1406.73,-1010.35 1434.39,-1010.35 1460.17,-1010.35"/>
<polygon fill="#757575" stroke="#757575" points="1460.33,-1013.85 1470.33,-1010.35 1460.33,-1006.85 1460.33,-1013.85"/>
</g>
<!-- ../../fn/modules/nothing.js&#45;&gt;../../fn/modules/noop.js -->
<g id="edge52" class="edge">
<title>../../fn/modules/nothing.js&#45;&gt;../../fn/modules/noop.js</title>
<path fill="none" stroke="#757575" d="M1891.75,-379.32C1903.59,-376.43 1915.36,-372.56 1926,-367.35 1966.3,-347.63 2002.51,-308.74 2022.11,-285.09"/>
<polygon fill="#757575" stroke="#757575" points="2024.99,-287.11 2028.56,-277.13 2019.55,-282.7 2024.99,-287.11"/>
</g>
<!-- ../../dom/modules/trigger.js -->
<g id="node25" class="node">
<title>../../dom/modules/trigger.js</title>
<path fill="none" stroke="#c6c5fe" d="M567.83,-189.85C567.83,-189.85 407.17,-189.85 407.17,-189.85 403.33,-189.85 399.5,-186.01 399.5,-182.18 399.5,-182.18 399.5,-174.51 399.5,-174.51 399.5,-170.68 403.33,-166.85 407.17,-166.85 407.17,-166.85 567.83,-166.85 567.83,-166.85 571.67,-166.85 575.5,-170.68 575.5,-174.51 575.5,-174.51 575.5,-182.18 575.5,-182.18 575.5,-186.01 571.67,-189.85 567.83,-189.85"/>
<text text-anchor="middle" x="487.5" y="-174.65" font-family="Arial" font-size="14.00" fill="#c6c5fe">../../dom/modules/trigger.js</text>
</g>
<!-- ../../dom/modules/trigger.js&#45;&gt;../../dom/modules/event.js -->
<g id="edge32" class="edge">
<title>../../dom/modules/trigger.js&#45;&gt;../../dom/modules/event.js</title>
<path fill="none" stroke="#757575" d="M575.59,-178.35C671.45,-178.35 825.07,-178.35 924.12,-178.35"/>
<polygon fill="#757575" stroke="#757575" points="924.12,-181.85 934.12,-178.35 924.12,-174.85 924.12,-181.85"/>
</g>
<!-- ../../fn/modules/by.js -->
<g id="node26" class="node">
<title>../../fn/modules/by.js</title>
<path fill="none" stroke="#c6c5fe" d="M1617.83,-566.85C1617.83,-566.85 1496.17,-566.85 1496.17,-566.85 1492.33,-566.85 1488.5,-563.01 1488.5,-559.18 1488.5,-559.18 1488.5,-551.51 1488.5,-551.51 1488.5,-547.68 1492.33,-543.85 1496.17,-543.85 1496.17,-543.85 1617.83,-543.85 1617.83,-543.85 1621.67,-543.85 1625.5,-547.68 1625.5,-551.51 1625.5,-551.51 1625.5,-559.18 1625.5,-559.18 1625.5,-563.01 1621.67,-566.85 1617.83,-566.85"/>
<text text-anchor="middle" x="1557" y="-551.65" font-family="Arial" font-size="14.00" fill="#c6c5fe">../../fn/modules/by.js</text>
</g>
<!-- ../../fn/modules/by.js&#45;&gt;../../fn/modules/curry.js -->
<g id="edge33" class="edge">
<title>../../fn/modules/by.js&#45;&gt;../../fn/modules/curry.js</title>
<path fill="none" stroke="#757575" d="M1625.54,-557.93C1701.79,-563.09 1827.97,-578.48 1926,-624.35 1963.89,-642.08 1999.72,-675.73 2020.1,-697.05"/>
<polygon fill="#757575" stroke="#757575" points="2017.74,-699.65 2027.12,-704.56 2022.85,-694.86 2017.74,-699.65"/>
</g>
<!-- ../../fn/modules/choke.js&#45;&gt;../../fn/modules/noop.js -->
<g id="edge34" class="edge">
<title>../../fn/modules/choke.js&#45;&gt;../../fn/modules/noop.js</title>
<path fill="none" stroke="#757575" d="M1612.2,-10.8C1688.92,2.39 1830.45,14.71 1926,-48.35 1995.89,-94.47 2024.33,-198.77 2033.66,-243.89"/>
<polygon fill="#757575" stroke="#757575" points="2030.24,-244.63 2035.59,-253.77 2037.11,-243.29 2030.24,-244.63"/>
</g>
<!-- ../../fn/modules/compose.js -->
<g id="node29" class="node">
<title>../../fn/modules/compose.js</title>
<path fill="none" stroke="#cfffac" d="M1889.83,-193.85C1889.83,-193.85 1726.17,-193.85 1726.17,-193.85 1722.33,-193.85 1718.5,-190.01 1718.5,-186.18 1718.5,-186.18 1718.5,-178.51 1718.5,-178.51 1718.5,-174.68 1722.33,-170.85 1726.17,-170.85 1726.17,-170.85 1889.83,-170.85 1889.83,-170.85 1893.67,-170.85 1897.5,-174.68 1897.5,-178.51 1897.5,-178.51 1897.5,-186.18 1897.5,-186.18 1897.5,-190.01 1893.67,-193.85 1889.83,-193.85"/>
<text text-anchor="middle" x="1808" y="-178.65" font-family="Arial" font-size="14.00" fill="#cfffac">../../fn/modules/compose.js</text>
</g>
<!-- ../../fn/modules/denormalisers.js -->
<g id="node30" class="node">
<title>../../fn/modules/denormalisers.js</title>
<path fill="none" stroke="#c6c5fe" d="M1394.83,-706.85C1394.83,-706.85 1201.17,-706.85 1201.17,-706.85 1197.33,-706.85 1193.5,-703.01 1193.5,-699.18 1193.5,-699.18 1193.5,-691.51 1193.5,-691.51 1193.5,-687.68 1197.33,-683.85 1201.17,-683.85 1201.17,-683.85 1394.83,-683.85 1394.83,-683.85 1398.67,-683.85 1402.5,-687.68 1402.5,-691.51 1402.5,-691.51 1402.5,-699.18 1402.5,-699.18 1402.5,-703.01 1398.67,-706.85 1394.83,-706.85"/>
<text text-anchor="middle" x="1298" y="-691.65" font-family="Arial" font-size="14.00" fill="#c6c5fe">../../fn/modules/denormalisers.js</text>
</g>
<!-- ../../fn/modules/maths/cubic&#45;bezier.js -->
<g id="node31" class="node">
<title>../../fn/modules/maths/cubic&#45;bezier.js</title>
<path fill="none" stroke="#c6c5fe" d="M1918.33,-727.85C1918.33,-727.85 1697.67,-727.85 1697.67,-727.85 1693.83,-727.85 1690,-724.01 1690,-720.18 1690,-720.18 1690,-712.51 1690,-712.51 1690,-708.68 1693.83,-704.85 1697.67,-704.85 1697.67,-704.85 1918.33,-704.85 1918.33,-704.85 1922.17,-704.85 1926,-708.68 1926,-712.51 1926,-712.51 1926,-720.18 1926,-720.18 1926,-724.01 1922.17,-727.85 1918.33,-727.85"/>
<text text-anchor="middle" x="1808" y="-712.65" font-family="Arial" font-size="14.00" fill="#c6c5fe">../../fn/modules/maths/cubic&#45;bezier.js</text>
</g>
<!-- ../../fn/modules/denormalisers.js&#45;&gt;../../fn/modules/maths/cubic&#45;bezier.js -->
<g id="edge37" class="edge">
<title>../../fn/modules/denormalisers.js&#45;&gt;../../fn/modules/maths/cubic&#45;bezier.js</title>
<path fill="none" stroke="#757575" d="M1333.69,-706.86C1365.98,-716.93 1415.64,-730.79 1460,-736.35 1550.88,-747.74 1655.98,-738.59 1726.49,-729.26"/>
<polygon fill="#757575" stroke="#757575" points="1727.19,-732.69 1736.63,-727.88 1726.25,-725.76 1727.19,-732.69"/>
</g>
<!-- ../../fn/modules/normalisers.js -->
<g id="node32" class="node">
<title>../../fn/modules/normalisers.js</title>
<path fill="none" stroke="#c6c5fe" d="M1646.33,-726.85C1646.33,-726.85 1467.67,-726.85 1467.67,-726.85 1463.83,-726.85 1460,-723.01 1460,-719.18 1460,-719.18 1460,-711.51 1460,-711.51 1460,-707.68 1463.83,-703.85 1467.67,-703.85 1467.67,-703.85 1646.33,-703.85 1646.33,-703.85 1650.17,-703.85 1654,-707.68 1654,-711.51 1654,-711.51 1654,-719.18 1654,-719.18 1654,-723.01 1650.17,-726.85 1646.33,-726.85"/>
<text text-anchor="middle" x="1557" y="-711.65" font-family="Arial" font-size="14.00" fill="#c6c5fe">../../fn/modules/normalisers.js</text>
</g>
<!-- ../../fn/modules/denormalisers.js&#45;&gt;../../fn/modules/normalisers.js -->
<g id="edge38" class="edge">
<title>../../fn/modules/denormalisers.js&#45;&gt;../../fn/modules/normalisers.js</title>
<path fill="none" stroke="#757575" d="M1402.79,-703.43C1418.22,-704.63 1434.14,-705.87 1449.62,-707.07"/>
<polygon fill="#757575" stroke="#757575" points="1449.48,-710.57 1459.72,-707.86 1450.02,-703.59 1449.48,-710.57"/>
</g>
<!-- ../../fn/modules/types.js -->
<g id="node33" class="node">
<title>../../fn/modules/types.js</title>
<path fill="none" stroke="#c6c5fe" d="M1877.83,-686.85C1877.83,-686.85 1738.17,-686.85 1738.17,-686.85 1734.33,-686.85 1730.5,-683.01 1730.5,-679.18 1730.5,-679.18 1730.5,-671.51 1730.5,-671.51 1730.5,-667.68 1734.33,-663.85 1738.17,-663.85 1738.17,-663.85 1877.83,-663.85 1877.83,-663.85 1881.67,-663.85 1885.5,-667.68 1885.5,-671.51 1885.5,-671.51 1885.5,-679.18 1885.5,-679.18 1885.5,-683.01 1881.67,-686.85 1877.83,-686.85"/>
<text text-anchor="middle" x="1808" y="-671.65" font-family="Arial" font-size="14.00" fill="#c6c5fe">../../fn/modules/types.js</text>
</g>
<!-- ../../fn/modules/denormalisers.js&#45;&gt;../../fn/modules/types.js -->
<g id="edge39" class="edge">
<title>../../fn/modules/denormalisers.js&#45;&gt;../../fn/modules/types.js</title>
<path fill="none" stroke="#757575" d="M1402.72,-691.26C1496.23,-687.58 1632.18,-682.23 1720.1,-678.77"/>
<polygon fill="#757575" stroke="#757575" points="1720.46,-682.26 1730.31,-678.37 1720.18,-675.26 1720.46,-682.26"/>
</g>
<!-- ../../fn/modules/maths/cubic&#45;bezier.js&#45;&gt;../../fn/modules/curry.js -->
<g id="edge49" class="edge">
<title>../../fn/modules/maths/cubic&#45;bezier.js&#45;&gt;../../fn/modules/curry.js</title>
<path fill="none" stroke="#757575" d="M1926.26,-716.35C1934.99,-716.35 1943.69,-716.35 1952.16,-716.35"/>
<polygon fill="#757575" stroke="#757575" points="1952.37,-719.85 1962.37,-716.35 1952.37,-712.85 1952.37,-719.85"/>
</g>
<!-- ../../fn/modules/normalisers.js&#45;&gt;../../fn/modules/maths/cubic&#45;bezier.js -->
<g id="edge50" class="edge">
<title>../../fn/modules/normalisers.js&#45;&gt;../../fn/modules/maths/cubic&#45;bezier.js</title>
<path fill="none" stroke="#757575" d="M1654.27,-715.73C1662.63,-715.77 1671.17,-715.8 1679.73,-715.84"/>
<polygon fill="#757575" stroke="#757575" points="1679.76,-719.34 1689.77,-715.88 1679.79,-712.34 1679.76,-719.34"/>
</g>
<!-- ../../fn/modules/normalisers.js&#45;&gt;../../fn/modules/types.js -->
<g id="edge51" class="edge">
<title>../../fn/modules/normalisers.js&#45;&gt;../../fn/modules/types.js</title>
<path fill="none" stroke="#757575" d="M1629.69,-703.83C1659.63,-699.02 1694.59,-693.41 1725.5,-688.44"/>
<polygon fill="#757575" stroke="#757575" points="1726.07,-691.89 1735.39,-686.85 1724.96,-684.98 1726.07,-691.89"/>
</g>
<!-- ../../fn/modules/types.js&#45;&gt;../../fn/modules/noop.js -->
<g id="edge67" class="edge">
<title>../../fn/modules/types.js&#45;&gt;../../fn/modules/noop.js</title>
<path fill="none" stroke="#757575" d="M1815.59,-663.52C1847.39,-606.47 1985.03,-359.5 2025.97,-286.04"/>
<polygon fill="#757575" stroke="#757575" points="2029.07,-287.66 2030.88,-277.22 2022.96,-284.26 2029.07,-287.66"/>
</g>
<!-- ../../fn/modules/fn.js&#45;&gt;../../fn/modules/noop.js -->
<g id="edge42" class="edge">
<title>../../fn/modules/fn.js&#45;&gt;../../fn/modules/noop.js</title>
<path fill="none" stroke="#757575" d="M1620.89,-169.85C1642.7,-166.39 1667.35,-163.05 1690,-161.35 1794.59,-153.47 1828.41,-122.9 1926,-161.35 1968.96,-178.27 2005.14,-220.42 2023.84,-245.56"/>
<polygon fill="#757575" stroke="#757575" points="2021.01,-247.62 2029.71,-253.67 2026.68,-243.52 2021.01,-247.62"/>
</g>
<!-- ../../fn/modules/fn.js&#45;&gt;../../fn/modules/nothing.js -->
<g id="edge43" class="edge">
<title>../../fn/modules/fn.js&#45;&gt;../../fn/modules/nothing.js</title>
<path fill="none" stroke="#757575" d="M1588.18,-192.85C1609.53,-202.47 1637.23,-218.2 1654,-240.35 1689.41,-287.13 1646.36,-328.14 1690,-367.35 1697.17,-373.79 1705.62,-378.54 1714.65,-382.01"/>
<polygon fill="#757575" stroke="#757575" points="1713.64,-385.37 1724.24,-385.18 1715.84,-378.72 1713.64,-385.37"/>
</g>
<!-- ../../fn/modules/fn.js&#45;&gt;../../fn/modules/compose.js -->
<g id="edge40" class="edge">
<title>../../fn/modules/fn.js&#45;&gt;../../fn/modules/compose.js</title>
<path fill="none" stroke="#757575" d="M1624.07,-181.61C1649.74,-181.72 1679.68,-181.84 1707.83,-181.95"/>
<polygon fill="#757575" stroke="#757575" points="1708.09,-185.45 1718.1,-181.99 1708.12,-178.45 1708.09,-185.45"/>
</g>
<!-- ../../fn/modules/latest.js -->
<g id="node35" class="node">
<title>../../fn/modules/latest.js</title>
<path fill="none" stroke="#cfffac" d="M1877.83,-234.85C1877.83,-234.85 1738.17,-234.85 1738.17,-234.85 1734.33,-234.85 1730.5,-231.01 1730.5,-227.18 1730.5,-227.18 1730.5,-219.51 1730.5,-219.51 1730.5,-215.68 1734.33,-211.85 1738.17,-211.85 1738.17,-211.85 1877.83,-211.85 1877.83,-211.85 1881.67,-211.85 1885.5,-215.68 1885.5,-219.51 1885.5,-219.51 1885.5,-227.18 1885.5,-227.18 1885.5,-231.01 1881.67,-234.85 1877.83,-234.85"/>
<text text-anchor="middle" x="1808" y="-219.65" font-family="Arial" font-size="14.00" fill="#cfffac">../../fn/modules/latest.js</text>
</g>
<!-- ../../fn/modules/fn.js&#45;&gt;../../fn/modules/latest.js -->
<g id="edge41" class="edge">
<title>../../fn/modules/fn.js&#45;&gt;../../fn/modules/latest.js</title>
<path fill="none" stroke="#757575" d="M1624.07,-192.49C1656.06,-197.89 1694.71,-204.41 1728.22,-210.06"/>
<polygon fill="#757575" stroke="#757575" points="1728,-213.57 1738.44,-211.78 1729.17,-206.67 1728,-213.57"/>
</g>
<!-- ../../fn/modules/strings/prepend.js -->
<g id="node36" class="node">
<title>../../fn/modules/strings/prepend.js</title>
<path fill="none" stroke="#c6c5fe" d="M1908.33,-275.85C1908.33,-275.85 1707.67,-275.85 1707.67,-275.85 1703.83,-275.85 1700,-272.01 1700,-268.18 1700,-268.18 1700,-260.51 1700,-260.51 1700,-256.68 1703.83,-252.85 1707.67,-252.85 1707.67,-252.85 1908.33,-252.85 1908.33,-252.85 1912.17,-252.85 1916,-256.68 1916,-260.51 1916,-260.51 1916,-268.18 1916,-268.18 1916,-272.01 1912.17,-275.85 1908.33,-275.85"/>
<text text-anchor="middle" x="1808" y="-260.65" font-family="Arial" font-size="14.00" fill="#c6c5fe">../../fn/modules/strings/prepend.js</text>
</g>
<!-- ../../fn/modules/fn.js&#45;&gt;../../fn/modules/strings/prepend.js -->
<g id="edge44" class="edge">
<title>../../fn/modules/fn.js&#45;&gt;../../fn/modules/strings/prepend.js</title>
<path fill="none" stroke="#757575" d="M1619.57,-192.91C1631.45,-196.54 1643.47,-201.25 1654,-207.35 1673.58,-218.69 1669.95,-232.87 1690,-243.35 1694.29,-245.59 1698.78,-247.6 1703.39,-249.39"/>
<polygon fill="#757575" stroke="#757575" points="1702.4,-252.76 1713,-252.79 1704.74,-246.16 1702.4,-252.76"/>
</g>
<!-- ../../fn/modules/fn.js&#45;&gt;../../fn/modules/to&#45;array.js -->
<g id="edge45" class="edge">
<title>../../fn/modules/fn.js&#45;&gt;../../fn/modules/to&#45;array.js</title>
<path fill="none" stroke="#757575" d="M1624.1,-171.58C1634.42,-168.74 1644.73,-165.07 1654,-160.35 1673.08,-150.63 1670.94,-138.09 1690,-128.35 1699.13,-123.68 1709.07,-119.85 1719.18,-116.7"/>
<polygon fill="#757575" stroke="#757575" points="1720.27,-120.03 1728.91,-113.89 1718.33,-113.3 1720.27,-120.03"/>
</g>
<!-- ../../fn/modules/strings/prepend.js&#45;&gt;../../fn/modules/curry.js -->
<g id="edge64" class="edge">
<title>../../fn/modules/strings/prepend.js&#45;&gt;../../fn/modules/curry.js</title>
<path fill="none" stroke="#757575" d="M1913.1,-275.91C1917.72,-278.58 1922.07,-281.7 1926,-285.35 1987.72,-342.57 2025.12,-614.37 2034.91,-694.23"/>
<polygon fill="#757575" stroke="#757575" points="2031.49,-695.06 2036.16,-704.57 2038.44,-694.23 2031.49,-695.06"/>
</g>
<!-- ../../fn/modules/get.js -->
<g id="node38" class="node">
<title>../../fn/modules/get.js</title>
<path fill="none" stroke="#c6c5fe" d="M1620.33,-646.85C1620.33,-646.85 1493.67,-646.85 1493.67,-646.85 1489.83,-646.85 1486,-643.01 1486,-639.18 1486,-639.18 1486,-631.51 1486,-631.51 1486,-627.68 1489.83,-623.85 1493.67,-623.85 1493.67,-623.85 1620.33,-623.85 1620.33,-623.85 1624.17,-623.85 1628,-627.68 1628,-631.51 1628,-631.51 1628,-639.18 1628,-639.18 1628,-643.01 1624.17,-646.85 1620.33,-646.85"/>
<text text-anchor="middle" x="1557" y="-631.65" font-family="Arial" font-size="14.00" fill="#c6c5fe">../../fn/modules/get.js</text>
</g>
<!-- ../../fn/modules/get.js&#45;&gt;../../fn/modules/curry.js -->
<g id="edge46" class="edge">
<title>../../fn/modules/get.js&#45;&gt;../../fn/modules/curry.js</title>
<path fill="none" stroke="#757575" d="M1628.01,-630.07C1703.18,-626.48 1825.39,-626.69 1926,-655.35 1958.45,-664.59 1991.92,-684.56 2013.61,-699.14"/>
<polygon fill="#757575" stroke="#757575" points="2011.65,-702.04 2021.87,-704.82 2015.62,-696.27 2011.65,-702.04"/>
</g>
<!-- ../../fn/modules/lists/core.js&#45;&gt;../../fn/modules/to&#45;array.js -->
<g id="edge47" class="edge">
<title>../../fn/modules/lists/core.js&#45;&gt;../../fn/modules/to&#45;array.js</title>
<path fill="none" stroke="#757575" d="M1633.38,-128.84C1661.17,-124.6 1692.84,-119.77 1721.46,-115.4"/>
<polygon fill="#757575" stroke="#757575" points="1722.09,-118.85 1731.44,-113.88 1721.03,-111.93 1722.09,-118.85"/>
</g>
<!-- ../../fn/modules/maths/clamp.js -->
<g id="node40" class="node">
<title>../../fn/modules/maths/clamp.js</title>
<path fill="none" stroke="#c6c5fe" d="M339.33,-997.85C339.33,-997.85 153.67,-997.85 153.67,-997.85 149.83,-997.85 146,-994.01 146,-990.18 146,-990.18 146,-982.51 146,-982.51 146,-978.68 149.83,-974.85 153.67,-974.85 153.67,-974.85 339.33,-974.85 339.33,-974.85 343.17,-974.85 347,-978.68 347,-982.51 347,-982.51 347,-990.18 347,-990.18 347,-994.01 343.17,-997.85 339.33,-997.85"/>
<text text-anchor="middle" x="246.5" y="-982.65" font-family="Arial" font-size="14.00" fill="#c6c5fe">../../fn/modules/maths/clamp.js</text>
</g>
<!-- ../../fn/modules/maths/clamp.js&#45;&gt;../../fn/modules/curry.js -->
<g id="edge48" class="edge">
<title>../../fn/modules/maths/clamp.js&#45;&gt;../../fn/modules/curry.js</title>
<path fill="none" stroke="#757575" d="M280.38,-997.85C359.66,-1024.53 568.1,-1088.35 747.5,-1088.35 747.5,-1088.35 747.5,-1088.35 1021.5,-1088.35 1303.75,-1088.35 1386.81,-1122.32 1654,-1031.35 1789.62,-985.17 1825.64,-960.59 1926,-858.35 1947.52,-836.43 1943.58,-823.93 1962,-799.35 1979.46,-776.04 2002.29,-751.64 2018.25,-735.38"/>
<polygon fill="#757575" stroke="#757575" points="2020.92,-737.66 2025.48,-728.09 2015.95,-732.72 2020.92,-737.66"/>
</g>
<!-- ../../fn/modules/maths/to&#45;db.js -->
<g id="node41" class="node">
<title>../../fn/modules/maths/to&#45;db.js</title>
<path fill="none" stroke="#cfffac" d="M1387.83,-665.85C1387.83,-665.85 1208.17,-665.85 1208.17,-665.85 1204.33,-665.85 1200.5,-662.01 1200.5,-658.18 1200.5,-658.18 1200.5,-650.51 1200.5,-650.51 1200.5,-646.68 1204.33,-642.85 1208.17,-642.85 1208.17,-642.85 1387.83,-642.85 1387.83,-642.85 1391.67,-642.85 1395.5,-646.68 1395.5,-650.51 1395.5,-650.51 1395.5,-658.18 1395.5,-658.18 1395.5,-662.01 1391.67,-665.85 1387.83,-665.85"/>
<text text-anchor="middle" x="1298" y="-650.65" font-family="Arial" font-size="14.00" fill="#cfffac">../../fn/modules/maths/to&#45;db.js</text>
</g>
<!-- ../../fn/modules/maths/to&#45;gain.js -->
<g id="node42" class="node">
<title>../../fn/modules/maths/to&#45;gain.js</title>
<path fill="none" stroke="#cfffac" d="M1393.33,-624.85C1393.33,-624.85 1202.67,-624.85 1202.67,-624.85 1198.83,-624.85 1195,-621.01 1195,-617.18 1195,-617.18 1195,-609.51 1195,-609.51 1195,-605.68 1198.83,-601.85 1202.67,-601.85 1202.67,-601.85 1393.33,-601.85 1393.33,-601.85 1397.17,-601.85 1401,-605.68 1401,-609.51 1401,-609.51 1401,-617.18 1401,-617.18 1401,-621.01 1397.17,-624.85 1393.33,-624.85"/>
<text text-anchor="middle" x="1298" y="-609.65" font-family="Arial" font-size="14.00" fill="#cfffac">../../fn/modules/maths/to&#45;gain.js</text>
</g>
<!-- ../../fn/modules/observer/observer.js -->
<g id="node44" class="node">
<title>../../fn/modules/observer/observer.js</title>
<path fill="none" stroke="#cfffac" d="M1128.33,-351.85C1128.33,-351.85 912.67,-351.85 912.67,-351.85 908.83,-351.85 905,-348.01 905,-344.18 905,-344.18 905,-336.51 905,-336.51 905,-332.68 908.83,-328.85 912.67,-328.85 912.67,-328.85 1128.33,-328.85 1128.33,-328.85 1132.17,-328.85 1136,-332.68 1136,-336.51 1136,-336.51 1136,-344.18 1136,-344.18 1136,-348.01 1132.17,-351.85 1128.33,-351.85"/>
<text text-anchor="middle" x="1020.5" y="-336.65" font-family="Arial" font-size="14.00" fill="#cfffac">../../fn/modules/observer/observer.js</text>
</g>
<!-- ../../fn/modules/request&#45;tick.js -->
<g id="node46" class="node">
<title>../../fn/modules/request&#45;tick.js</title>
<path fill="none" stroke="#cfffac" d="M1896.83,-357.85C1896.83,-357.85 1719.17,-357.85 1719.17,-357.85 1715.33,-357.85 1711.5,-354.01 1711.5,-350.18 1711.5,-350.18 1711.5,-342.51 1711.5,-342.51 1711.5,-338.68 1715.33,-334.85 1719.17,-334.85 1719.17,-334.85 1896.83,-334.85 1896.83,-334.85 1900.67,-334.85 1904.5,-338.68 1904.5,-342.51 1904.5,-342.51 1904.5,-350.18 1904.5,-350.18 1904.5,-354.01 1900.67,-357.85 1896.83,-357.85"/>
<text text-anchor="middle" x="1808" y="-342.65" font-family="Arial" font-size="14.00" fill="#cfffac">../../fn/modules/request&#45;tick.js</text>
</g>
<!-- ../../fn/modules/timer.js&#45;&gt;../../fn/modules/now.js -->
<g id="edge65" class="edge">
<title>../../fn/modules/timer.js&#45;&gt;../../fn/modules/now.js</title>
<path fill="none" stroke="#757575" d="M1620.76,-272.9C1642.66,-276.89 1667.41,-281.36 1690,-285.35 1702.61,-287.57 1716,-289.9 1729.04,-292.14"/>
<polygon fill="#757575" stroke="#757575" points="1728.48,-295.59 1738.92,-293.84 1729.66,-288.69 1728.48,-295.59"/>
</g>
<!-- ../../fn/modules/timer.js&#45;&gt;../../fn/modules/request&#45;tick.js -->
<g id="edge66" class="edge">
<title>../../fn/modules/timer.js&#45;&gt;../../fn/modules/request&#45;tick.js</title>
<path fill="none" stroke="#757575" d="M1620.78,-272.89C1632.31,-276.51 1643.89,-281.22 1654,-287.35 1674.17,-299.58 1669.27,-315.09 1690,-326.35 1693.77,-328.39 1697.7,-330.24 1701.74,-331.9"/>
<polygon fill="#757575" stroke="#757575" points="1700.74,-335.27 1711.34,-335.47 1703.18,-328.71 1700.74,-335.27"/>
</g>
<!-- ../../fn/modules/strings/to&#45;camel&#45;case.js -->
<g id="node48" class="node">
<title>../../fn/modules/strings/to&#45;camel&#45;case.js</title>
<path fill="none" stroke="#cfffac" d="M1416.33,-583.85C1416.33,-583.85 1179.67,-583.85 1179.67,-583.85 1175.83,-583.85 1172,-580.01 1172,-576.18 1172,-576.18 1172,-568.51 1172,-568.51 1172,-564.68 1175.83,-560.85 1179.67,-560.85 1179.67,-560.85 1416.33,-560.85 1416.33,-560.85 1420.17,-560.85 1424,-564.68 1424,-568.51 1424,-568.51 1424,-576.18 1424,-576.18 1424,-580.01 1420.17,-583.85 1416.33,-583.85"/>
<text text-anchor="middle" x="1298" y="-568.65" font-family="Arial" font-size="14.00" fill="#cfffac">../../fn/modules/strings/to&#45;camel&#45;case.js</text>
</g>
<!-- attributes.js -->
<g id="node49" class="node">
<title>attributes.js</title>
<path fill="none" stroke="#c6c5fe" d="M783.83,-486.85C783.83,-486.85 713.17,-486.85 713.17,-486.85 709.33,-486.85 705.5,-483.01 705.5,-479.18 705.5,-479.18 705.5,-471.51 705.5,-471.51 705.5,-467.68 709.33,-463.85 713.17,-463.85 713.17,-463.85 783.83,-463.85 783.83,-463.85 787.67,-463.85 791.5,-467.68 791.5,-471.51 791.5,-471.51 791.5,-479.18 791.5,-479.18 791.5,-483.01 787.67,-486.85 783.83,-486.85"/>
<text text-anchor="middle" x="748.5" y="-471.65" font-family="Arial" font-size="14.00" fill="#c6c5fe">attributes.js</text>
</g>
<!-- attributes.js&#45;&gt;../../fn/modules/nothing.js -->
<g id="edge70" class="edge">
<title>attributes.js&#45;&gt;../../fn/modules/nothing.js</title>
<path fill="none" stroke="#757575" d="M791.61,-471.84C947.5,-458.87 1494.15,-413.38 1714.2,-395.07"/>
<polygon fill="#757575" stroke="#757575" points="1714.75,-398.54 1724.43,-394.22 1714.17,-391.56 1714.75,-398.54"/>
</g>
<!-- attributes.js&#45;&gt;../../fn/modules/by.js -->
<g id="edge68" class="edge">
<title>attributes.js&#45;&gt;../../fn/modules/by.js</title>
<path fill="none" stroke="#757575" d="M791.69,-474.98C898.41,-474.72 1187.44,-478.11 1424,-518.35 1454.03,-523.46 1487.04,-532.71 1512.53,-540.68"/>
<polygon fill="#757575" stroke="#757575" points="1511.67,-544.08 1522.26,-543.78 1513.79,-537.41 1511.67,-544.08"/>
</g>
<!-- attributes.js&#45;&gt;../../fn/modules/get.js -->
<g id="edge69" class="edge">
<title>attributes.js&#45;&gt;../../fn/modules/get.js</title>
<path fill="none" stroke="#757575" d="M791.73,-480.63C822.99,-484.51 866.64,-489.86 905,-494.35 962.63,-501.09 1369.49,-532.47 1424,-552.35 1442.07,-558.94 1443.81,-565.98 1460,-576.35 1482.76,-590.92 1508.9,-606.94 1528.16,-618.61"/>
<polygon fill="#757575" stroke="#757575" points="1526.38,-621.62 1536.75,-623.8 1530,-615.63 1526.38,-621.62"/>
</g>
<!-- attributes.js&#45;&gt;../../fn/modules/observer/observer.js -->
<g id="edge71" class="edge">
<title>attributes.js&#45;&gt;../../fn/modules/observer/observer.js</title>
<path fill="none" stroke="#757575" d="M778.52,-463.79C804.04,-452.74 841.32,-434.38 869,-411.35 888.69,-394.97 883.3,-379.95 905,-366.35 912.08,-361.91 919.82,-358.23 927.84,-355.18"/>
<polygon fill="#757575" stroke="#757575" points="929.05,-358.46 937.35,-351.87 926.76,-351.85 929.05,-358.46"/>
</g>
<!-- attributes.js&#45;&gt;../../fn/modules/privates.js -->
<g id="edge72" class="edge">
<title>attributes.js&#45;&gt;../../fn/modules/privates.js</title>
<path fill="none" stroke="#757575" d="M769.89,-463.73C798.93,-447.72 854.3,-419.19 905,-404.35 1020.03,-370.67 1052.78,-378.7 1172,-366.35 1270.58,-356.14 1383.85,-349.37 1461.68,-345.48"/>
<polygon fill="#757575" stroke="#757575" points="1462.13,-348.96 1471.95,-344.97 1461.79,-341.97 1462.13,-348.96"/>
</g>
<!-- attributes.js&#45;&gt;../../fn/modules/request&#45;tick.js -->
<g id="edge73" class="edge">
<title>attributes.js&#45;&gt;../../fn/modules/request&#45;tick.js</title>
<path fill="none" stroke="#757575" d="M791.81,-464.41C822.93,-456.71 866.36,-446.69 905,-440.35 1235.28,-386.17 1321.12,-397.09 1654,-362.35 1669.14,-360.77 1685.13,-359.1 1700.83,-357.46"/>
<polygon fill="#757575" stroke="#757575" points="1701.52,-360.9 1711.1,-356.38 1700.79,-353.94 1701.52,-360.9"/>
</g>
<!-- control.js -->
<g id="node50" class="node">
<title>control.js</title>
<path fill="none" stroke="#c6c5fe" d="M1048.33,-631.85C1048.33,-631.85 992.67,-631.85 992.67,-631.85 988.83,-631.85 985,-628.01 985,-624.18 985,-624.18 985,-616.51 985,-616.51 985,-612.68 988.83,-608.85 992.67,-608.85 992.67,-608.85 1048.33,-608.85 1048.33,-608.85 1052.17,-608.85 1056,-612.68 1056,-616.51 1056,-616.51 1056,-624.18 1056,-624.18 1056,-628.01 1052.17,-631.85 1048.33,-631.85"/>
<text text-anchor="middle" x="1020.5" y="-616.65" font-family="Arial" font-size="14.00" fill="#c6c5fe">control.js</text>
</g>
<!-- attributes.js&#45;&gt;control.js -->
<g id="edge74" class="edge">
<title>attributes.js&#45;&gt;control.js</title>
<path fill="none" stroke="#757575" d="M771.14,-486.97C818.93,-512.63 933.61,-574.22 988.8,-603.86"/>
<polygon fill="#757575" stroke="#757575" points="987.29,-607.02 997.76,-608.67 990.6,-600.86 987.29,-607.02"/>
</g>
<!-- control.js&#45;&gt;../../fn/modules/id.js -->
<g id="edge76" class="edge">
<title>control.js&#45;&gt;../../fn/modules/id.js</title>
<path fill="none" stroke="#757575" d="M1039.71,-631.92C1064.89,-648.83 1110.15,-682.63 1136,-722.35 1164.52,-766.17 1132.32,-800.3 1172,-834.35 1185.52,-845.95 1203.02,-852.21 1220.62,-855.35"/>
<polygon fill="#757575" stroke="#757575" points="1220.56,-858.88 1230.96,-856.85 1221.57,-851.95 1220.56,-858.88"/>
</g>
<!-- control.js&#45;&gt;../../fn/modules/overload.js -->
<g id="edge80" class="edge">
<title>control.js&#45;&gt;../../fn/modules/overload.js</title>
<path fill="none" stroke="#757575" d="M1052.24,-631.94C1077.19,-642.57 1112.05,-660.31 1136,-684.35 1159.31,-707.75 1148.27,-726.38 1172,-749.35 1194.68,-771.3 1226.39,-787.42 1252.19,-797.99"/>
<polygon fill="#757575" stroke="#757575" points="1251.18,-801.35 1261.76,-801.77 1253.75,-794.84 1251.18,-801.35"/>
</g>
<!-- control.js&#45;&gt;../../fn/modules/denormalisers.js -->
<g id="edge75" class="edge">
<title>control.js&#45;&gt;../../fn/modules/denormalisers.js</title>
<path fill="none" stroke="#757575" d="M1056.17,-624.06C1079.61,-627.54 1110.77,-634.14 1136,-646.35 1154.49,-655.3 1153.23,-667 1172,-675.35 1176.47,-677.34 1181.11,-679.13 1185.85,-680.75"/>
<polygon fill="#757575" stroke="#757575" points="1185.13,-684.19 1195.72,-683.83 1187.22,-677.51 1185.13,-684.19"/>
</g>
<!-- control.js&#45;&gt;../../fn/modules/normalisers.js -->
<g id="edge79" class="edge">
<title>control.js&#45;&gt;../../fn/modules/normalisers.js</title>
<path fill="none" stroke="#757575" d="M1056.05,-620.69C1080.63,-622.59 1113.21,-628.67 1136,-646.35 1163.65,-667.78 1142.14,-698.13 1172,-716.35 1278.48,-781.32 1434.43,-750.79 1510.66,-729.65"/>
<polygon fill="#757575" stroke="#757575" points="1511.78,-732.97 1520.44,-726.86 1509.86,-726.24 1511.78,-732.97"/>
</g>
<!-- control.js&#45;&gt;../../fn/modules/maths/to&#45;db.js -->
<g id="edge77" class="edge">
<title>control.js&#45;&gt;../../fn/modules/maths/to&#45;db.js</title>
<path fill="none" stroke="#757575" d="M1056.11,-624.62C1090.59,-628.87 1145.24,-635.62 1193.77,-641.61"/>
<polygon fill="#757575" stroke="#757575" points="1193.35,-645.08 1203.71,-642.83 1194.21,-638.14 1193.35,-645.08"/>
</g>
<!-- control.js&#45;&gt;../../fn/modules/maths/to&#45;gain.js -->
<g id="edge78" class="edge">
<title>control.js&#45;&gt;../../fn/modules/maths/to&#45;gain.js</title>
<path fill="none" stroke="#757575" d="M1056.11,-619.47C1088.49,-618.65 1138.67,-617.37 1184.86,-616.2"/>
<polygon fill="#757575" stroke="#757575" points="1185.04,-619.69 1194.95,-615.94 1184.87,-612.7 1185.04,-619.69"/>
</g>
<!-- control.js&#45;&gt;../../fn/modules/strings/to&#45;camel&#45;case.js -->
<g id="edge81" class="edge">
<title>control.js&#45;&gt;../../fn/modules/strings/to&#45;camel&#45;case.js</title>
<path fill="none" stroke="#757575" d="M1056.15,-614.02C1086.64,-608.48 1132.25,-600.25 1172,-593.35 1186.76,-590.78 1202.51,-588.1 1217.68,-585.54"/>
<polygon fill="#757575" stroke="#757575" points="1218.27,-588.99 1227.55,-583.87 1217.11,-582.08 1218.27,-588.99"/>
</g>
<!-- rotary&#45;control.js -->
<g id="node51" class="node">
<title>rotary&#45;control.js</title>
<path fill="none" stroke="#c6c5fe" d="M102.33,-559.85C102.33,-559.85 7.67,-559.85 7.67,-559.85 3.83,-559.85 0,-556.01 0,-552.18 0,-552.18 0,-544.51 0,-544.51 0,-540.68 3.83,-536.85 7.67,-536.85 7.67,-536.85 102.33,-536.85 102.33,-536.85 106.17,-536.85 110,-540.68 110,-544.51 110,-544.51 110,-552.18 110,-552.18 110,-556.01 106.17,-559.85 102.33,-559.85"/>
<text text-anchor="middle" x="55" y="-544.65" font-family="Arial" font-size="14.00" fill="#c6c5fe">rotary&#45;control.js</text>
</g>
<!-- rotary&#45;control.js&#45;&gt;../../dom/modules/create.js -->
<g id="edge82" class="edge">
<title>rotary&#45;control.js&#45;&gt;../../dom/modules/create.js</title>
<path fill="none" stroke="#757575" d="M70.9,-559.97C88.2,-573.05 117.96,-594.3 146,-608.35 349.22,-710.17 412.28,-707.72 628,-779.35 651.33,-787.09 677.38,-795.22 699.19,-801.88"/>
<polygon fill="#757575" stroke="#757575" points="698.31,-805.27 708.89,-804.83 700.34,-798.57 698.31,-805.27"/>
</g>
<!-- rotary&#45;control.js&#45;&gt;../../dom/modules/element.js -->
<g id="edge83" class="edge">
<title>rotary&#45;control.js&#45;&gt;../../dom/modules/element.js</title>
<path fill="none" stroke="#757575" d="M58.9,-560.15C67.06,-590.77 93.1,-673.37 146,-716.35 213.48,-771.17 310.02,-795.94 383.09,-807.13"/>
<polygon fill="#757575" stroke="#757575" points="382.84,-810.63 393.24,-808.62 383.85,-803.7 382.84,-810.63"/>
</g>
<!-- rotary&#45;control.js&#45;&gt;../../dom/modules/gestures.js -->
<g id="edge84" class="edge">
<title>rotary&#45;control.js&#45;&gt;../../dom/modules/gestures.js</title>
<path fill="none" stroke="#757575" d="M59.36,-536.63C68.45,-506.95 96.21,-428.01 146,-383.35 158.55,-372.09 174.63,-363.67 190.17,-357.49"/>
<polygon fill="#757575" stroke="#757575" points="191.6,-360.7 199.75,-353.93 189.16,-354.14 191.6,-360.7"/>
</g>
<!-- rotary&#45;control.js&#45;&gt;../../dom/modules/parse&#45;value.js -->
<g id="edge85" class="edge">
<title>rotary&#45;control.js&#45;&gt;../../dom/modules/parse&#45;value.js</title>
<path fill="none" stroke="#757575" d="M89.46,-559.97C106.27,-565.5 127.05,-571.87 146,-576.35 225.44,-595.14 316.77,-609.79 384.84,-619.39"/>
<polygon fill="#757575" stroke="#757575" points="384.74,-622.91 395.13,-620.83 385.71,-615.98 384.74,-622.91"/>
</g>
<!-- rotary&#45;control.js&#45;&gt;../../dom/modules/trigger.js -->
<g id="edge86" class="edge">
<title>rotary&#45;control.js&#45;&gt;../../dom/modules/trigger.js</title>
<path fill="none" stroke="#757575" d="M57.65,-536.71C63.33,-500.51 85.23,-388.38 146,-322.35 215.46,-246.87 330.91,-209.51 407.85,-192.09"/>
<polygon fill="#757575" stroke="#757575" points="408.96,-195.43 417.97,-189.86 407.45,-188.59 408.96,-195.43"/>
</g>
<!-- rotary&#45;control.js&#45;&gt;../../fn/modules/maths/clamp.js -->
<g id="edge87" class="edge">
<title>rotary&#45;control.js&#45;&gt;../../fn/modules/maths/clamp.js</title>
<path fill="none" stroke="#757575" d="M59.07,-560.07C69.14,-597.86 103.05,-719.54 146,-814.35 171.93,-871.59 211.34,-934.45 231.91,-965.96"/>
<polygon fill="#757575" stroke="#757575" points="229.24,-968.26 237.66,-974.69 235.08,-964.41 229.24,-968.26"/>
</g>
<!-- rotary&#45;control.js&#45;&gt;../../fn/modules/observer/observer.js -->
<g id="edge88" class="edge">
<title>rotary&#45;control.js&#45;&gt;../../fn/modules/observer/observer.js</title>
<path fill="none" stroke="#757575" d="M82.36,-536.69C100.08,-529.2 124.11,-519.72 146,-513.35 424.69,-432.24 764.44,-377.05 925.78,-353.39"/>
<polygon fill="#757575" stroke="#757575" points="926.76,-356.78 936.15,-351.87 925.75,-349.85 926.76,-356.78"/>
</g>
<!-- rotary&#45;control.js&#45;&gt;../../fn/modules/privates.js -->
<g id="edge89" class="edge">
<title>rotary&#45;control.js&#45;&gt;../../fn/modules/privates.js</title>
<path fill="none" stroke="#757575" d="M57.43,-536.61C64.34,-482.04 95.87,-253.87 146,-206.35 258,-100.18 332.18,-138.35 486.5,-138.35 486.5,-138.35 486.5,-138.35 749.5,-138.35 921.49,-138.35 972.15,-105.08 1136,-157.35 1154.09,-163.12 1155.08,-171.73 1172,-180.35 1279.21,-235 1323.34,-213.42 1424,-279.35 1442.93,-291.75 1440.42,-304.01 1460,-315.35 1467.65,-319.78 1476.09,-323.48 1484.68,-326.56"/>
<polygon fill="#757575" stroke="#757575" points="1483.83,-329.97 1494.43,-329.79 1486.03,-323.32 1483.83,-329.97"/>
</g>
<!-- rotary&#45;control.js&#45;&gt;attributes.js -->
<g id="edge90" class="edge">
<title>rotary&#45;control.js&#45;&gt;attributes.js</title>
<path fill="none" stroke="#757575" d="M110.26,-542.62C240.02,-528.92 566.95,-494.41 694.95,-480.9"/>
<polygon fill="#757575" stroke="#757575" points="695.69,-484.34 705.27,-479.81 694.96,-477.38 695.69,-484.34"/>
</g>
<!-- rotary&#45;control.js&#45;&gt;control.js -->
<g id="edge91" class="edge">
<title>rotary&#45;control.js&#45;&gt;control.js</title>
<path fill="none" stroke="#757575" d="M110.37,-549.91C241.29,-554.04 584.27,-567.07 869,-597.35 904.74,-601.15 944.97,-607.4 974.84,-612.43"/>
<polygon fill="#757575" stroke="#757575" points="974.5,-615.92 984.95,-614.15 975.68,-609.02 974.5,-615.92"/>
</g>
</g>
</svg>
