<?xml version="1.0" encoding="UTF-8" standalone="no"?>
<!DOCTYPE svg PUBLIC "-//W3C//DTD SVG 1.1//EN"
 "http://www.w3.org/Graphics/SVG/1.1/DTD/svg11.dtd">
<!-- Generated by graphviz version 2.44.1 (20200629.0846)
 -->
<!-- Title: G Pages: 1 -->
<svg width="1745pt" height="825pt"
 viewBox="0.00 0.00 1745.20 825.20" xmlns="http://www.w3.org/2000/svg" xmlns:xlink="http://www.w3.org/1999/xlink">
<g id="graph0" class="graph" transform="scale(1 1) rotate(0) translate(21.6 803.6)">
<title>G</title>
<polygon fill="#111111" stroke="transparent" points="-21.6,21.6 -21.6,-803.6 1723.6,-803.6 1723.6,21.6 -21.6,21.6"/>
<!-- ../../dom/modules/assign.js -->
<g id="node1" class="node">
<title>../../dom/modules/assign.js</title>
<path fill="none" stroke="#c6c5fe" d="M1035.33,-741C1035.33,-741 872.67,-741 872.67,-741 868.83,-741 865,-737.17 865,-733.33 865,-733.33 865,-725.67 865,-725.67 865,-721.83 868.83,-718 872.67,-718 872.67,-718 1035.33,-718 1035.33,-718 1039.17,-718 1043,-721.83 1043,-725.67 1043,-725.67 1043,-733.33 1043,-733.33 1043,-737.17 1039.17,-741 1035.33,-741"/>
<text text-anchor="middle" x="954" y="-725.8" font-family="Arial" font-size="14.00" fill="#c6c5fe">../../dom/modules/assign.js</text>
</g>
<!-- ../../fn/modules/curry.js -->
<g id="node2" class="node">
<title>../../fn/modules/curry.js</title>
<path fill="none" stroke="#c6c5fe" d="M1488.83,-220C1488.83,-220 1352.17,-220 1352.17,-220 1348.33,-220 1344.5,-216.17 1344.5,-212.33 1344.5,-212.33 1344.5,-204.67 1344.5,-204.67 1344.5,-200.83 1348.33,-197 1352.17,-197 1352.17,-197 1488.83,-197 1488.83,-197 1492.67,-197 1496.5,-200.83 1496.5,-204.67 1496.5,-204.67 1496.5,-212.33 1496.5,-212.33 1496.5,-216.17 1492.67,-220 1488.83,-220"/>
<text text-anchor="middle" x="1420.5" y="-204.8" font-family="Arial" font-size="14.00" fill="#c6c5fe">../../fn/modules/curry.js</text>
</g>
<!-- ../../dom/modules/assign.js&#45;&gt;../../fn/modules/curry.js -->
<g id="edge1" class="edge">
<title>../../dom/modules/assign.js&#45;&gt;../../fn/modules/curry.js</title>
<path fill="none" stroke="#757575" d="M1043.2,-736.78C1132.66,-742.05 1262.81,-743.26 1298,-709.5 1356.02,-653.84 1308.53,-425.76 1334,-349.5 1349.81,-302.17 1383.72,-253.93 1403.76,-227.96"/>
<polygon fill="#757575" stroke="#757575" points="1406.56,-230.06 1409.98,-220.04 1401.05,-225.74 1406.56,-230.06"/>
</g>
<!-- ../../fn/modules/id.js -->
<g id="node3" class="node">
<title>../../fn/modules/id.js</title>
<path fill="none" stroke="#cfffac" d="M1249.33,-660C1249.33,-660 1130.67,-660 1130.67,-660 1126.83,-660 1123,-656.17 1123,-652.33 1123,-652.33 1123,-644.67 1123,-644.67 1123,-640.83 1126.83,-637 1130.67,-637 1130.67,-637 1249.33,-637 1249.33,-637 1253.17,-637 1257,-640.83 1257,-644.67 1257,-644.67 1257,-652.33 1257,-652.33 1257,-656.17 1253.17,-660 1249.33,-660"/>
<text text-anchor="middle" x="1190" y="-644.8" font-family="Arial" font-size="14.00" fill="#cfffac">../../fn/modules/id.js</text>
</g>
<!-- ../../dom/modules/assign.js&#45;&gt;../../fn/modules/id.js -->
<g id="edge2" class="edge">
<title>../../dom/modules/assign.js&#45;&gt;../../fn/modules/id.js</title>
<path fill="none" stroke="#757575" d="M974.99,-717.85C999.44,-704.09 1042.48,-681.43 1082,-668.5 1091.87,-665.27 1102.43,-662.51 1112.93,-660.16"/>
<polygon fill="#757575" stroke="#757575" points="1113.9,-663.53 1122.96,-658.03 1112.45,-656.68 1113.9,-663.53"/>
</g>
<!-- ../../fn/modules/noop.js -->
<g id="node4" class="node">
<title>../../fn/modules/noop.js</title>
<path fill="none" stroke="#cfffac" d="M1489.33,-382C1489.33,-382 1351.67,-382 1351.67,-382 1347.83,-382 1344,-378.17 1344,-374.33 1344,-374.33 1344,-366.67 1344,-366.67 1344,-362.83 1347.83,-359 1351.67,-359 1351.67,-359 1489.33,-359 1489.33,-359 1493.17,-359 1497,-362.83 1497,-366.67 1497,-366.67 1497,-374.33 1497,-374.33 1497,-378.17 1493.17,-382 1489.33,-382"/>
<text text-anchor="middle" x="1420.5" y="-366.8" font-family="Arial" font-size="14.00" fill="#cfffac">../../fn/modules/noop.js</text>
</g>
<!-- ../../dom/modules/assign.js&#45;&gt;../../fn/modules/noop.js -->
<g id="edge3" class="edge">
<title>../../dom/modules/assign.js&#45;&gt;../../fn/modules/noop.js</title>
<path fill="none" stroke="#757575" d="M1015.21,-741.05C1101.82,-756.19 1255.81,-777.11 1298,-743.5 1353.99,-698.89 1312.77,-654.87 1334,-586.5 1356.64,-513.62 1392.52,-430.48 1409.7,-392.05"/>
<polygon fill="#757575" stroke="#757575" points="1413.11,-393 1414.02,-382.45 1406.73,-390.13 1413.11,-393"/>
</g>
<!-- ../../fn/modules/overload.js -->
<g id="node5" class="node">
<title>../../fn/modules/overload.js</title>
<path fill="none" stroke="#cfffac" d="M1269.83,-701C1269.83,-701 1110.17,-701 1110.17,-701 1106.33,-701 1102.5,-697.17 1102.5,-693.33 1102.5,-693.33 1102.5,-685.67 1102.5,-685.67 1102.5,-681.83 1106.33,-678 1110.17,-678 1110.17,-678 1269.83,-678 1269.83,-678 1273.67,-678 1277.5,-681.83 1277.5,-685.67 1277.5,-685.67 1277.5,-693.33 1277.5,-693.33 1277.5,-697.17 1273.67,-701 1269.83,-701"/>
<text text-anchor="middle" x="1190" y="-685.8" font-family="Arial" font-size="14.00" fill="#cfffac">../../fn/modules/overload.js</text>
</g>
<!-- ../../dom/modules/assign.js&#45;&gt;../../fn/modules/overload.js -->
<g id="edge4" class="edge">
<title>../../dom/modules/assign.js&#45;&gt;../../fn/modules/overload.js</title>
<path fill="none" stroke="#757575" d="M1022.37,-717.98C1050.27,-713.21 1082.79,-707.66 1111.66,-702.72"/>
<polygon fill="#757575" stroke="#757575" points="1112.43,-706.14 1121.7,-701 1111.26,-699.24 1112.43,-706.14"/>
</g>
<!-- ../../fn/modules/cache.js -->
<g id="node16" class="node">
<title>../../fn/modules/cache.js</title>
<path fill="none" stroke="#cfffac" d="M1694.33,-220C1694.33,-220 1550.67,-220 1550.67,-220 1546.83,-220 1543,-216.17 1543,-212.33 1543,-212.33 1543,-204.67 1543,-204.67 1543,-200.83 1546.83,-197 1550.67,-197 1550.67,-197 1694.33,-197 1694.33,-197 1698.17,-197 1702,-200.83 1702,-204.67 1702,-204.67 1702,-212.33 1702,-212.33 1702,-216.17 1698.17,-220 1694.33,-220"/>
<text text-anchor="middle" x="1622.5" y="-204.8" font-family="Arial" font-size="14.00" fill="#cfffac">../../fn/modules/cache.js</text>
</g>
<!-- ../../fn/modules/curry.js&#45;&gt;../../fn/modules/cache.js -->
<g id="edge27" class="edge">
<title>../../fn/modules/curry.js&#45;&gt;../../fn/modules/cache.js</title>
<path fill="none" stroke="#757575" d="M1496.54,-208.5C1508.32,-208.5 1520.59,-208.5 1532.64,-208.5"/>
<polygon fill="#757575" stroke="#757575" points="1532.7,-212 1542.7,-208.5 1532.7,-205 1532.7,-212"/>
</g>
<!-- ../../dom/modules/create.js -->
<g id="node6" class="node">
<title>../../dom/modules/create.js</title>
<path fill="none" stroke="#c6c5fe" d="M785.83,-682C785.83,-682 625.17,-682 625.17,-682 621.33,-682 617.5,-678.17 617.5,-674.33 617.5,-674.33 617.5,-666.67 617.5,-666.67 617.5,-662.83 621.33,-659 625.17,-659 625.17,-659 785.83,-659 785.83,-659 789.67,-659 793.5,-662.83 793.5,-666.67 793.5,-666.67 793.5,-674.33 793.5,-674.33 793.5,-678.17 789.67,-682 785.83,-682"/>
<text text-anchor="middle" x="705.5" y="-666.8" font-family="Arial" font-size="14.00" fill="#c6c5fe">../../dom/modules/create.js</text>
</g>
<!-- ../../dom/modules/create.js&#45;&gt;../../dom/modules/assign.js -->
<g id="edge5" class="edge">
<title>../../dom/modules/create.js&#45;&gt;../../dom/modules/assign.js</title>
<path fill="none" stroke="#757575" d="M754.61,-682.02C794.69,-691.61 851.92,-705.31 894.62,-715.53"/>
<polygon fill="#757575" stroke="#757575" points="894.05,-718.99 904.59,-717.91 895.68,-712.18 894.05,-718.99"/>
</g>
<!-- ../../dom/modules/create.js&#45;&gt;../../fn/modules/id.js -->
<g id="edge6" class="edge">
<title>../../dom/modules/create.js&#45;&gt;../../fn/modules/id.js</title>
<path fill="none" stroke="#757575" d="M793.6,-666.53C884.59,-662.38 1025.93,-655.94 1112.69,-651.98"/>
<polygon fill="#757575" stroke="#757575" points="1112.9,-655.47 1122.73,-651.52 1112.58,-648.48 1112.9,-655.47"/>
</g>
<!-- ../../dom/modules/create.js&#45;&gt;../../fn/modules/overload.js -->
<g id="edge7" class="edge">
<title>../../dom/modules/create.js&#45;&gt;../../fn/modules/overload.js</title>
<path fill="none" stroke="#757575" d="M793.6,-673.93C877.67,-677.24 1004.73,-682.24 1092,-685.68"/>
<polygon fill="#757575" stroke="#757575" points="1092.04,-689.18 1102.17,-686.08 1092.31,-682.19 1092.04,-689.18"/>
</g>
<!-- ../../fn/modules/to&#45;type.js -->
<g id="node7" class="node">
<title>../../fn/modules/to&#45;type.js</title>
<path fill="none" stroke="#cfffac" d="M1028.33,-782C1028.33,-782 879.67,-782 879.67,-782 875.83,-782 872,-778.17 872,-774.33 872,-774.33 872,-766.67 872,-766.67 872,-762.83 875.83,-759 879.67,-759 879.67,-759 1028.33,-759 1028.33,-759 1032.17,-759 1036,-762.83 1036,-766.67 1036,-766.67 1036,-774.33 1036,-774.33 1036,-778.17 1032.17,-782 1028.33,-782"/>
<text text-anchor="middle" x="954" y="-766.8" font-family="Arial" font-size="14.00" fill="#cfffac">../../fn/modules/to&#45;type.js</text>
</g>
<!-- ../../dom/modules/create.js&#45;&gt;../../fn/modules/to&#45;type.js -->
<g id="edge8" class="edge">
<title>../../dom/modules/create.js&#45;&gt;../../fn/modules/to&#45;type.js</title>
<path fill="none" stroke="#757575" d="M725.46,-682.05C754.08,-699.04 810.49,-730.79 862,-749.5 868.81,-751.97 876.02,-754.22 883.27,-756.25"/>
<polygon fill="#757575" stroke="#757575" points="882.6,-759.7 893.16,-758.88 884.4,-752.93 882.6,-759.7"/>
</g>
<!-- ../../dom/modules/element.js -->
<g id="node8" class="node">
<title>../../dom/modules/element.js</title>
<path fill="none" stroke="#c6c5fe" d="M538.83,-582C538.83,-582 366.17,-582 366.17,-582 362.33,-582 358.5,-578.17 358.5,-574.33 358.5,-574.33 358.5,-566.67 358.5,-566.67 358.5,-562.83 362.33,-559 366.17,-559 366.17,-559 538.83,-559 538.83,-559 542.67,-559 546.5,-562.83 546.5,-566.67 546.5,-566.67 546.5,-574.33 546.5,-574.33 546.5,-578.17 542.67,-582 538.83,-582"/>
<text text-anchor="middle" x="452.5" y="-566.8" font-family="Arial" font-size="14.00" fill="#c6c5fe">../../dom/modules/element.js</text>
</g>
<!-- ../../dom/modules/element.js&#45;&gt;../../dom/modules/create.js -->
<g id="edge9" class="edge">
<title>../../dom/modules/element.js&#45;&gt;../../dom/modules/create.js</title>
<path fill="none" stroke="#757575" d="M482.78,-582.17C528.13,-600.23 615.34,-634.98 665.82,-655.09"/>
<polygon fill="#757575" stroke="#757575" points="664.82,-658.46 675.4,-658.91 667.41,-651.95 664.82,-658.46"/>
</g>
<!-- ../../dom/modules/request&#45;template.js -->
<g id="node9" class="node">
<title>../../dom/modules/request&#45;template.js</title>
<path fill="none" stroke="#c6c5fe" d="M818.33,-582C818.33,-582 592.67,-582 592.67,-582 588.83,-582 585,-578.17 585,-574.33 585,-574.33 585,-566.67 585,-566.67 585,-562.83 588.83,-559 592.67,-559 592.67,-559 818.33,-559 818.33,-559 822.17,-559 826,-562.83 826,-566.67 826,-566.67 826,-574.33 826,-574.33 826,-578.17 822.17,-582 818.33,-582"/>
<text text-anchor="middle" x="705.5" y="-566.8" font-family="Arial" font-size="14.00" fill="#c6c5fe">../../dom/modules/request&#45;template.js</text>
</g>
<!-- ../../dom/modules/element.js&#45;&gt;../../dom/modules/request&#45;template.js -->
<g id="edge10" class="edge">
<title>../../dom/modules/element.js&#45;&gt;../../dom/modules/request&#45;template.js</title>
<path fill="none" stroke="#757575" d="M546.61,-570.5C555.73,-570.5 565.09,-570.5 574.49,-570.5"/>
<polygon fill="#757575" stroke="#757575" points="574.69,-574 584.69,-570.5 574.69,-567 574.69,-574"/>
</g>
<!-- ../../dom/modules/request&#45;template.js&#45;&gt;../../fn/modules/cache.js -->
<g id="edge19" class="edge">
<title>../../dom/modules/request&#45;template.js&#45;&gt;../../fn/modules/cache.js</title>
<path fill="none" stroke="#757575" d="M789.17,-558.99C812.69,-555.81 838.34,-552.43 862,-549.5 1055.52,-525.56 1111.61,-557.79 1298,-500.5 1398.34,-469.66 1429.97,-461.81 1507,-390.5 1558.83,-342.52 1596.59,-266.04 1612.77,-229.4"/>
<polygon fill="#757575" stroke="#757575" points="1616,-230.75 1616.75,-220.18 1609.57,-227.97 1616,-230.75"/>
</g>
<!-- ../../dom/modules/parse.js -->
<g id="node17" class="node">
<title>../../dom/modules/parse.js</title>
<path fill="none" stroke="#cfffac" d="M1032.83,-582C1032.83,-582 875.17,-582 875.17,-582 871.33,-582 867.5,-578.17 867.5,-574.33 867.5,-574.33 867.5,-566.67 867.5,-566.67 867.5,-562.83 871.33,-559 875.17,-559 875.17,-559 1032.83,-559 1032.83,-559 1036.67,-559 1040.5,-562.83 1040.5,-566.67 1040.5,-566.67 1040.5,-574.33 1040.5,-574.33 1040.5,-578.17 1036.67,-582 1032.83,-582"/>
<text text-anchor="middle" x="954" y="-566.8" font-family="Arial" font-size="14.00" fill="#cfffac">../../dom/modules/parse.js</text>
</g>
<!-- ../../dom/modules/request&#45;template.js&#45;&gt;../../dom/modules/parse.js -->
<g id="edge17" class="edge">
<title>../../dom/modules/request&#45;template.js&#45;&gt;../../dom/modules/parse.js</title>
<path fill="none" stroke="#757575" d="M826.14,-570.5C836.54,-570.5 846.97,-570.5 857.13,-570.5"/>
<polygon fill="#757575" stroke="#757575" points="857.2,-574 867.2,-570.5 857.2,-567 857.2,-574"/>
</g>
<!-- ../../dom/modules/request.js -->
<g id="node19" class="node">
<title>../../dom/modules/request.js</title>
<path fill="none" stroke="#c6c5fe" d="M1038.33,-623C1038.33,-623 869.67,-623 869.67,-623 865.83,-623 862,-619.17 862,-615.33 862,-615.33 862,-607.67 862,-607.67 862,-603.83 865.83,-600 869.67,-600 869.67,-600 1038.33,-600 1038.33,-600 1042.17,-600 1046,-603.83 1046,-607.67 1046,-607.67 1046,-615.33 1046,-615.33 1046,-619.17 1042.17,-623 1038.33,-623"/>
<text text-anchor="middle" x="954" y="-607.8" font-family="Arial" font-size="14.00" fill="#c6c5fe">../../dom/modules/request.js</text>
</g>
<!-- ../../dom/modules/request&#45;template.js&#45;&gt;../../dom/modules/request.js -->
<g id="edge18" class="edge">
<title>../../dom/modules/request&#45;template.js&#45;&gt;../../dom/modules/request.js</title>
<path fill="none" stroke="#757575" d="M775.82,-582.03C806.27,-587.1 842.2,-593.07 873.71,-598.31"/>
<polygon fill="#757575" stroke="#757575" points="873.33,-601.8 883.77,-599.99 874.48,-594.89 873.33,-601.8"/>
</g>
<!-- ../../dom/modules/event.js -->
<g id="node10" class="node">
<title>../../dom/modules/event.js</title>
<path fill="none" stroke="#cfffac" d="M530.83,-301C530.83,-301 374.17,-301 374.17,-301 370.33,-301 366.5,-297.17 366.5,-293.33 366.5,-293.33 366.5,-285.67 366.5,-285.67 366.5,-281.83 370.33,-278 374.17,-278 374.17,-278 530.83,-278 530.83,-278 534.67,-278 538.5,-281.83 538.5,-285.67 538.5,-285.67 538.5,-293.33 538.5,-293.33 538.5,-297.17 534.67,-301 530.83,-301"/>
<text text-anchor="middle" x="452.5" y="-285.8" font-family="Arial" font-size="14.00" fill="#cfffac">../../dom/modules/event.js</text>
</g>
<!-- ../../dom/modules/events.js -->
<g id="node11" class="node">
<title>../../dom/modules/events.js</title>
<path fill="none" stroke="#c6c5fe" d="M306.33,-281C306.33,-281 142.67,-281 142.67,-281 138.83,-281 135,-277.17 135,-273.33 135,-273.33 135,-265.67 135,-265.67 135,-261.83 138.83,-258 142.67,-258 142.67,-258 306.33,-258 306.33,-258 310.17,-258 314,-261.83 314,-265.67 314,-265.67 314,-273.33 314,-273.33 314,-277.17 310.17,-281 306.33,-281"/>
<text text-anchor="middle" x="224.5" y="-265.8" font-family="Arial" font-size="14.00" fill="#c6c5fe">../../dom/modules/events.js</text>
</g>
<!-- ../../dom/modules/events.js&#45;&gt;../../dom/modules/event.js -->
<g id="edge11" class="edge">
<title>../../dom/modules/events.js&#45;&gt;../../dom/modules/event.js</title>
<path fill="none" stroke="#757575" d="M314.17,-277.35C328,-278.57 342.35,-279.84 356.32,-281.08"/>
<polygon fill="#757575" stroke="#757575" points="356.14,-284.57 366.41,-281.97 356.76,-277.6 356.14,-284.57"/>
</g>
<!-- ../../dom/modules/features.js -->
<g id="node12" class="node">
<title>../../dom/modules/features.js</title>
<path fill="none" stroke="#c6c5fe" d="M538.83,-201C538.83,-201 366.17,-201 366.17,-201 362.33,-201 358.5,-197.17 358.5,-193.33 358.5,-193.33 358.5,-185.67 358.5,-185.67 358.5,-181.83 362.33,-178 366.17,-178 366.17,-178 538.83,-178 538.83,-178 542.67,-178 546.5,-181.83 546.5,-185.67 546.5,-185.67 546.5,-193.33 546.5,-193.33 546.5,-197.17 542.67,-201 538.83,-201"/>
<text text-anchor="middle" x="452.5" y="-185.8" font-family="Arial" font-size="14.00" fill="#c6c5fe">../../dom/modules/features.js</text>
</g>
<!-- ../../dom/modules/events.js&#45;&gt;../../dom/modules/features.js -->
<g id="edge12" class="edge">
<title>../../dom/modules/events.js&#45;&gt;../../dom/modules/features.js</title>
<path fill="none" stroke="#757575" d="M285.99,-257.98C297.4,-255.27 309.15,-252.1 320,-248.5 355.33,-236.79 393.99,-218.77 420.19,-205.72"/>
<polygon fill="#757575" stroke="#757575" points="421.89,-208.79 429.25,-201.17 418.75,-202.53 421.89,-208.79"/>
</g>
<!-- ../../fn/modules/stream.js -->
<g id="node13" class="node">
<title>../../fn/modules/stream.js</title>
<path fill="none" stroke="#c6c5fe" d="M780.33,-281C780.33,-281 630.67,-281 630.67,-281 626.83,-281 623,-277.17 623,-273.33 623,-273.33 623,-265.67 623,-265.67 623,-261.83 626.83,-258 630.67,-258 630.67,-258 780.33,-258 780.33,-258 784.17,-258 788,-261.83 788,-265.67 788,-265.67 788,-273.33 788,-273.33 788,-277.17 784.17,-281 780.33,-281"/>
<text text-anchor="middle" x="705.5" y="-265.8" font-family="Arial" font-size="14.00" fill="#c6c5fe">../../fn/modules/stream.js</text>
</g>
<!-- ../../dom/modules/events.js&#45;&gt;../../fn/modules/stream.js -->
<g id="edge13" class="edge">
<title>../../dom/modules/events.js&#45;&gt;../../fn/modules/stream.js</title>
<path fill="none" stroke="#757575" d="M314.3,-268.73C328.26,-268.63 342.52,-268.55 356,-268.5 441.78,-268.17 463.22,-268.22 549,-268.5 569.65,-268.57 591.84,-268.68 612.81,-268.81"/>
<polygon fill="#757575" stroke="#757575" points="612.97,-272.31 622.99,-268.88 613.01,-265.31 612.97,-272.31"/>
</g>
<!-- ../../fn/modules/stream.wait.js -->
<g id="node14" class="node">
<title>../../fn/modules/stream.wait.js</title>
<path fill="none" stroke="#c6c5fe" d="M541.33,-342C541.33,-342 363.67,-342 363.67,-342 359.83,-342 356,-338.17 356,-334.33 356,-334.33 356,-326.67 356,-326.67 356,-322.83 359.83,-319 363.67,-319 363.67,-319 541.33,-319 541.33,-319 545.17,-319 549,-322.83 549,-326.67 549,-326.67 549,-334.33 549,-334.33 549,-338.17 545.17,-342 541.33,-342"/>
<text text-anchor="middle" x="452.5" y="-326.8" font-family="Arial" font-size="14.00" fill="#c6c5fe">../../fn/modules/stream.wait.js</text>
</g>
<!-- ../../dom/modules/events.js&#45;&gt;../../fn/modules/stream.wait.js -->
<g id="edge14" class="edge">
<title>../../dom/modules/events.js&#45;&gt;../../fn/modules/stream.wait.js</title>
<path fill="none" stroke="#757575" d="M260.45,-281.06C286.61,-289.5 323.34,-300.92 356,-309.5 365.54,-312.01 375.68,-314.46 385.64,-316.75"/>
<polygon fill="#757575" stroke="#757575" points="384.99,-320.19 395.52,-318.98 386.54,-313.36 384.99,-320.19"/>
</g>
<!-- ../../dom/modules/prefix.js -->
<g id="node15" class="node">
<title>../../dom/modules/prefix.js</title>
<path fill="none" stroke="#cfffac" d="M783.83,-201C783.83,-201 627.17,-201 627.17,-201 623.33,-201 619.5,-197.17 619.5,-193.33 619.5,-193.33 619.5,-185.67 619.5,-185.67 619.5,-181.83 623.33,-178 627.17,-178 627.17,-178 783.83,-178 783.83,-178 787.67,-178 791.5,-181.83 791.5,-185.67 791.5,-185.67 791.5,-193.33 791.5,-193.33 791.5,-197.17 787.67,-201 783.83,-201"/>
<text text-anchor="middle" x="705.5" y="-185.8" font-family="Arial" font-size="14.00" fill="#cfffac">../../dom/modules/prefix.js</text>
</g>
<!-- ../../dom/modules/features.js&#45;&gt;../../dom/modules/prefix.js -->
<g id="edge15" class="edge">
<title>../../dom/modules/features.js&#45;&gt;../../dom/modules/prefix.js</title>
<path fill="none" stroke="#757575" d="M546.61,-189.5C567.02,-189.5 588.65,-189.5 609.15,-189.5"/>
<polygon fill="#757575" stroke="#757575" points="609.43,-193 619.43,-189.5 609.43,-186 609.43,-193"/>
</g>
<!-- ../../dom/modules/features.js&#45;&gt;../../fn/modules/cache.js -->
<g id="edge16" class="edge">
<title>../../dom/modules/features.js&#45;&gt;../../fn/modules/cache.js</title>
<path fill="none" stroke="#757575" d="M487.25,-177.93C567.15,-151.61 774.57,-89.5 953,-89.5 953,-89.5 953,-89.5 1191,-89.5 1343.93,-89.5 1516.74,-160.13 1588.03,-192.56"/>
<polygon fill="#757575" stroke="#757575" points="1586.85,-195.87 1597.4,-196.87 1589.78,-189.51 1586.85,-195.87"/>
</g>
<!-- ../../fn/modules/stream.js&#45;&gt;../../fn/modules/noop.js -->
<g id="edge38" class="edge">
<title>../../fn/modules/stream.js&#45;&gt;../../fn/modules/noop.js</title>
<path fill="none" stroke="#757575" d="M739.82,-258C765.38,-248.01 800.5,-231.65 826,-209.5 847.22,-191.07 837.44,-171.16 862,-157.5 946.7,-110.39 1216.85,-93.5 1298,-146.5 1331.32,-168.26 1315.7,-193.16 1334,-228.5 1357.08,-273.07 1388.41,-322.83 1406.02,-350.01"/>
<polygon fill="#757575" stroke="#757575" points="1403.25,-352.18 1411.65,-358.64 1409.12,-348.35 1403.25,-352.18"/>
</g>
<!-- ../../fn/modules/nothing.js -->
<g id="node21" class="node">
<title>../../fn/modules/nothing.js</title>
<path fill="none" stroke="#c6c5fe" d="M1265.83,-382C1265.83,-382 1114.17,-382 1114.17,-382 1110.33,-382 1106.5,-378.17 1106.5,-374.33 1106.5,-374.33 1106.5,-366.67 1106.5,-366.67 1106.5,-362.83 1110.33,-359 1114.17,-359 1114.17,-359 1265.83,-359 1265.83,-359 1269.67,-359 1273.5,-362.83 1273.5,-366.67 1273.5,-366.67 1273.5,-374.33 1273.5,-374.33 1273.5,-378.17 1269.67,-382 1265.83,-382"/>
<text text-anchor="middle" x="1190" y="-366.8" font-family="Arial" font-size="14.00" fill="#c6c5fe">../../fn/modules/nothing.js</text>
</g>
<!-- ../../fn/modules/stream.js&#45;&gt;../../fn/modules/nothing.js -->
<g id="edge39" class="edge">
<title>../../fn/modules/stream.js&#45;&gt;../../fn/modules/nothing.js</title>
<path fill="none" stroke="#757575" d="M746.89,-281.06C778.16,-289.78 822.63,-301.71 862,-310.5 945.05,-329.04 1040.9,-346.13 1107.26,-357.28"/>
<polygon fill="#757575" stroke="#757575" points="1106.8,-360.75 1117.24,-358.95 1107.95,-353.85 1106.8,-360.75"/>
</g>
<!-- ../../fn/modules/to&#45;array.js -->
<g id="node23" class="node">
<title>../../fn/modules/to&#45;array.js</title>
<path fill="none" stroke="#cfffac" d="M1266.83,-179C1266.83,-179 1113.17,-179 1113.17,-179 1109.33,-179 1105.5,-175.17 1105.5,-171.33 1105.5,-171.33 1105.5,-163.67 1105.5,-163.67 1105.5,-159.83 1109.33,-156 1113.17,-156 1113.17,-156 1266.83,-156 1266.83,-156 1270.67,-156 1274.5,-159.83 1274.5,-163.67 1274.5,-163.67 1274.5,-171.33 1274.5,-171.33 1274.5,-175.17 1270.67,-179 1266.83,-179"/>
<text text-anchor="middle" x="1190" y="-163.8" font-family="Arial" font-size="14.00" fill="#cfffac">../../fn/modules/to&#45;array.js</text>
</g>
<!-- ../../fn/modules/stream.js&#45;&gt;../../fn/modules/to&#45;array.js -->
<g id="edge43" class="edge">
<title>../../fn/modules/stream.js&#45;&gt;../../fn/modules/to&#45;array.js</title>
<path fill="none" stroke="#757575" d="M731.07,-257.9C755.45,-246.23 793.73,-227.42 826,-209.5 842.39,-200.4 844.11,-193.13 862,-187.5 937.99,-163.59 1028.71,-159.86 1095.3,-161.38"/>
<polygon fill="#757575" stroke="#757575" points="1095.26,-164.88 1105.36,-161.65 1095.46,-157.88 1095.26,-164.88"/>
</g>
<!-- ../../fn/modules/fn.js -->
<g id="node28" class="node">
<title>../../fn/modules/fn.js</title>
<path fill="none" stroke="#c6c5fe" d="M1013.33,-302C1013.33,-302 894.67,-302 894.67,-302 890.83,-302 887,-298.17 887,-294.33 887,-294.33 887,-286.67 887,-286.67 887,-282.83 890.83,-279 894.67,-279 894.67,-279 1013.33,-279 1013.33,-279 1017.17,-279 1021,-282.83 1021,-286.67 1021,-286.67 1021,-294.33 1021,-294.33 1021,-298.17 1017.17,-302 1013.33,-302"/>
<text text-anchor="middle" x="954" y="-286.8" font-family="Arial" font-size="14.00" fill="#c6c5fe">../../fn/modules/fn.js</text>
</g>
<!-- ../../fn/modules/stream.js&#45;&gt;../../fn/modules/fn.js -->
<g id="edge36" class="edge">
<title>../../fn/modules/stream.js&#45;&gt;../../fn/modules/fn.js</title>
<path fill="none" stroke="#757575" d="M788.24,-276.46C816.7,-278.89 848.5,-281.6 876.51,-283.98"/>
<polygon fill="#757575" stroke="#757575" points="876.39,-287.49 886.65,-284.85 876.98,-280.51 876.39,-287.49"/>
</g>
<!-- ../../fn/modules/lists/core.js -->
<g id="node31" class="node">
<title>../../fn/modules/lists/core.js</title>
<path fill="none" stroke="#c6c5fe" d="M1034.33,-261C1034.33,-261 873.67,-261 873.67,-261 869.83,-261 866,-257.17 866,-253.33 866,-253.33 866,-245.67 866,-245.67 866,-241.83 869.83,-238 873.67,-238 873.67,-238 1034.33,-238 1034.33,-238 1038.17,-238 1042,-241.83 1042,-245.67 1042,-245.67 1042,-253.33 1042,-253.33 1042,-257.17 1038.17,-261 1034.33,-261"/>
<text text-anchor="middle" x="954" y="-245.8" font-family="Arial" font-size="14.00" fill="#c6c5fe">../../fn/modules/lists/core.js</text>
</g>
<!-- ../../fn/modules/stream.js&#45;&gt;../../fn/modules/lists/core.js -->
<g id="edge37" class="edge">
<title>../../fn/modules/stream.js&#45;&gt;../../fn/modules/lists/core.js</title>
<path fill="none" stroke="#757575" d="M788.24,-262.87C809.87,-261.11 833.44,-259.2 855.8,-257.39"/>
<polygon fill="#757575" stroke="#757575" points="856.3,-260.86 865.98,-256.56 855.73,-253.88 856.3,-260.86"/>
</g>
<!-- ../../fn/modules/now.js -->
<g id="node32" class="node">
<title>../../fn/modules/now.js</title>
<path fill="none" stroke="#cfffac" d="M1255.83,-423C1255.83,-423 1124.17,-423 1124.17,-423 1120.33,-423 1116.5,-419.17 1116.5,-415.33 1116.5,-415.33 1116.5,-407.67 1116.5,-407.67 1116.5,-403.83 1120.33,-400 1124.17,-400 1124.17,-400 1255.83,-400 1255.83,-400 1259.67,-400 1263.5,-403.83 1263.5,-407.67 1263.5,-407.67 1263.5,-415.33 1263.5,-415.33 1263.5,-419.17 1259.67,-423 1255.83,-423"/>
<text text-anchor="middle" x="1190" y="-407.8" font-family="Arial" font-size="14.00" fill="#cfffac">../../fn/modules/now.js</text>
</g>
<!-- ../../fn/modules/stream.js&#45;&gt;../../fn/modules/now.js -->
<g id="edge40" class="edge">
<title>../../fn/modules/stream.js&#45;&gt;../../fn/modules/now.js</title>
<path fill="none" stroke="#757575" d="M727.5,-281.22C756.81,-297.14 812.01,-325.55 862,-342.5 956.78,-374.63 984,-370.2 1082,-390.5 1093.99,-392.99 1106.76,-395.56 1119.14,-398.01"/>
<polygon fill="#757575" stroke="#757575" points="1118.48,-401.45 1128.97,-399.95 1119.84,-394.58 1118.48,-401.45"/>
</g>
<!-- ../../fn/modules/privates.js -->
<g id="node33" class="node">
<title>../../fn/modules/privates.js</title>
<path fill="none" stroke="#cfffac" d="M1031.33,-220C1031.33,-220 876.67,-220 876.67,-220 872.83,-220 869,-216.17 869,-212.33 869,-212.33 869,-204.67 869,-204.67 869,-200.83 872.83,-197 876.67,-197 876.67,-197 1031.33,-197 1031.33,-197 1035.17,-197 1039,-200.83 1039,-204.67 1039,-204.67 1039,-212.33 1039,-212.33 1039,-216.17 1035.17,-220 1031.33,-220"/>
<text text-anchor="middle" x="954" y="-204.8" font-family="Arial" font-size="14.00" fill="#cfffac">../../fn/modules/privates.js</text>
</g>
<!-- ../../fn/modules/stream.js&#45;&gt;../../fn/modules/privates.js -->
<g id="edge41" class="edge">
<title>../../fn/modules/stream.js&#45;&gt;../../fn/modules/privates.js</title>
<path fill="none" stroke="#757575" d="M748.29,-257.98C779.53,-249.49 823.33,-237.84 862,-228.5 870.57,-226.43 879.61,-224.33 888.54,-222.32"/>
<polygon fill="#757575" stroke="#757575" points="889.54,-225.68 898.54,-220.08 888.02,-218.85 889.54,-225.68"/>
</g>
<!-- ../../fn/modules/timer.js -->
<g id="node35" class="node">
<title>../../fn/modules/timer.js</title>
<path fill="none" stroke="#c6c5fe" d="M1022.83,-423C1022.83,-423 885.17,-423 885.17,-423 881.33,-423 877.5,-419.17 877.5,-415.33 877.5,-415.33 877.5,-407.67 877.5,-407.67 877.5,-403.83 881.33,-400 885.17,-400 885.17,-400 1022.83,-400 1022.83,-400 1026.67,-400 1030.5,-403.83 1030.5,-407.67 1030.5,-407.67 1030.5,-415.33 1030.5,-415.33 1030.5,-419.17 1026.67,-423 1022.83,-423"/>
<text text-anchor="middle" x="954" y="-407.8" font-family="Arial" font-size="14.00" fill="#c6c5fe">../../fn/modules/timer.js</text>
</g>
<!-- ../../fn/modules/stream.js&#45;&gt;../../fn/modules/timer.js -->
<g id="edge42" class="edge">
<title>../../fn/modules/stream.js&#45;&gt;../../fn/modules/timer.js</title>
<path fill="none" stroke="#757575" d="M719.19,-281.35C744.46,-304.38 803.71,-355.43 862,-384.5 871.71,-389.34 882.45,-393.48 893.04,-396.95"/>
<polygon fill="#757575" stroke="#757575" points="892.1,-400.33 902.69,-399.96 894.18,-393.65 892.1,-400.33"/>
</g>
<!-- ../../fn/modules/stream.wait.js&#45;&gt;../../fn/modules/stream.js -->
<g id="edge45" class="edge">
<title>../../fn/modules/stream.wait.js&#45;&gt;../../fn/modules/stream.js</title>
<path fill="none" stroke="#757575" d="M507.62,-318.95C521.15,-315.96 535.62,-312.69 549,-309.5 583.23,-301.34 621.51,-291.5 651.52,-283.62"/>
<polygon fill="#757575" stroke="#757575" points="652.59,-286.96 661.37,-281.03 650.81,-280.19 652.59,-286.96"/>
</g>
<!-- ../../fn/modules/choke.js -->
<g id="node25" class="node">
<title>../../fn/modules/choke.js</title>
<path fill="none" stroke="#c6c5fe" d="M777.33,-413C777.33,-413 633.67,-413 633.67,-413 629.83,-413 626,-409.17 626,-405.33 626,-405.33 626,-397.67 626,-397.67 626,-393.83 629.83,-390 633.67,-390 633.67,-390 777.33,-390 777.33,-390 781.17,-390 785,-393.83 785,-397.67 785,-397.67 785,-405.33 785,-405.33 785,-409.17 781.17,-413 777.33,-413"/>
<text text-anchor="middle" x="705.5" y="-397.8" font-family="Arial" font-size="14.00" fill="#c6c5fe">../../fn/modules/choke.js</text>
</g>
<!-- ../../fn/modules/stream.wait.js&#45;&gt;../../fn/modules/choke.js -->
<g id="edge44" class="edge">
<title>../../fn/modules/stream.wait.js&#45;&gt;../../fn/modules/choke.js</title>
<path fill="none" stroke="#757575" d="M494.39,-342.07C537.96,-354.39 607.01,-373.92 653.96,-387.21"/>
<polygon fill="#757575" stroke="#757575" points="653.06,-390.59 663.63,-389.94 654.96,-383.85 653.06,-390.59"/>
</g>
<!-- ../../dom/modules/rect.js -->
<g id="node18" class="node">
<title>../../dom/modules/rect.js</title>
<path fill="none" stroke="#cfffac" d="M297.33,-240C297.33,-240 151.67,-240 151.67,-240 147.83,-240 144,-236.17 144,-232.33 144,-232.33 144,-224.67 144,-224.67 144,-220.83 147.83,-217 151.67,-217 151.67,-217 297.33,-217 297.33,-217 301.17,-217 305,-220.83 305,-224.67 305,-224.67 305,-232.33 305,-232.33 305,-236.17 301.17,-240 297.33,-240"/>
<text text-anchor="middle" x="224.5" y="-224.8" font-family="Arial" font-size="14.00" fill="#cfffac">../../dom/modules/rect.js</text>
</g>
<!-- ../../dom/modules/request.js&#45;&gt;../../fn/modules/id.js -->
<g id="edge21" class="edge">
<title>../../dom/modules/request.js&#45;&gt;../../fn/modules/id.js</title>
<path fill="none" stroke="#757575" d="M1027.76,-623C1054.76,-627.27 1085.45,-632.13 1112.76,-636.44"/>
<polygon fill="#757575" stroke="#757575" points="1112.23,-639.9 1122.65,-638.01 1113.32,-632.99 1112.23,-639.9"/>
</g>
<!-- ../../fn/modules/choose.js -->
<g id="node20" class="node">
<title>../../fn/modules/choose.js</title>
<path fill="none" stroke="#c6c5fe" d="M1265.83,-619C1265.83,-619 1114.17,-619 1114.17,-619 1110.33,-619 1106.5,-615.17 1106.5,-611.33 1106.5,-611.33 1106.5,-603.67 1106.5,-603.67 1106.5,-599.83 1110.33,-596 1114.17,-596 1114.17,-596 1265.83,-596 1265.83,-596 1269.67,-596 1273.5,-599.83 1273.5,-603.67 1273.5,-603.67 1273.5,-611.33 1273.5,-611.33 1273.5,-615.17 1269.67,-619 1265.83,-619"/>
<text text-anchor="middle" x="1190" y="-603.8" font-family="Arial" font-size="14.00" fill="#c6c5fe">../../fn/modules/choose.js</text>
</g>
<!-- ../../dom/modules/request.js&#45;&gt;../../fn/modules/choose.js -->
<g id="edge20" class="edge">
<title>../../dom/modules/request.js&#45;&gt;../../fn/modules/choose.js</title>
<path fill="none" stroke="#757575" d="M1046.14,-609.94C1062.51,-609.66 1079.58,-609.37 1096,-609.09"/>
<polygon fill="#757575" stroke="#757575" points="1096.19,-612.59 1106.12,-608.92 1096.07,-605.59 1096.19,-612.59"/>
</g>
<!-- ../../dom/modules/request.js&#45;&gt;../../fn/modules/nothing.js -->
<g id="edge22" class="edge">
<title>../../dom/modules/request.js&#45;&gt;../../fn/modules/nothing.js</title>
<path fill="none" stroke="#757575" d="M1034.29,-599.78C1038.57,-597.21 1042.53,-594.14 1046,-590.5 1108.29,-525.1 1018.35,-454.58 1082,-390.5 1086.39,-386.08 1091.43,-382.46 1096.88,-379.52"/>
<polygon fill="#757575" stroke="#757575" points="1098.74,-382.52 1106.38,-375.18 1095.83,-376.15 1098.74,-382.52"/>
</g>
<!-- ../../fn/modules/lists/rest.js -->
<g id="node26" class="node">
<title>../../fn/modules/lists/rest.js</title>
<path fill="none" stroke="#cfffac" d="M1499.33,-619C1499.33,-619 1341.67,-619 1341.67,-619 1337.83,-619 1334,-615.17 1334,-611.33 1334,-611.33 1334,-603.67 1334,-603.67 1334,-599.83 1337.83,-596 1341.67,-596 1341.67,-596 1499.33,-596 1499.33,-596 1503.17,-596 1507,-599.83 1507,-603.67 1507,-603.67 1507,-611.33 1507,-611.33 1507,-615.17 1503.17,-619 1499.33,-619"/>
<text text-anchor="middle" x="1420.5" y="-603.8" font-family="Arial" font-size="14.00" fill="#cfffac">../../fn/modules/lists/rest.js</text>
</g>
<!-- ../../fn/modules/choose.js&#45;&gt;../../fn/modules/lists/rest.js -->
<g id="edge26" class="edge">
<title>../../fn/modules/choose.js&#45;&gt;../../fn/modules/lists/rest.js</title>
<path fill="none" stroke="#757575" d="M1273.82,-607.5C1290,-607.5 1307.09,-607.5 1323.66,-607.5"/>
<polygon fill="#757575" stroke="#757575" points="1323.89,-611 1333.89,-607.5 1323.89,-604 1323.89,-611"/>
</g>
<!-- ../../fn/modules/nothing.js&#45;&gt;../../fn/modules/noop.js -->
<g id="edge35" class="edge">
<title>../../fn/modules/nothing.js&#45;&gt;../../fn/modules/noop.js</title>
<path fill="none" stroke="#757575" d="M1273.82,-370.5C1293.29,-370.5 1314.07,-370.5 1333.67,-370.5"/>
<polygon fill="#757575" stroke="#757575" points="1333.8,-374 1343.8,-370.5 1333.8,-367 1333.8,-374"/>
</g>
<!-- ../../dom/modules/select.js -->
<g id="node22" class="node">
<title>../../dom/modules/select.js</title>
<path fill="none" stroke="#c6c5fe" d="M1033.33,-61C1033.33,-61 874.67,-61 874.67,-61 870.83,-61 867,-57.17 867,-53.33 867,-53.33 867,-45.67 867,-45.67 867,-41.83 870.83,-38 874.67,-38 874.67,-38 1033.33,-38 1033.33,-38 1037.17,-38 1041,-41.83 1041,-45.67 1041,-45.67 1041,-53.33 1041,-53.33 1041,-57.17 1037.17,-61 1033.33,-61"/>
<text text-anchor="middle" x="954" y="-45.8" font-family="Arial" font-size="14.00" fill="#c6c5fe">../../dom/modules/select.js</text>
</g>
<!-- ../../dom/modules/select.js&#45;&gt;../../fn/modules/curry.js -->
<g id="edge23" class="edge">
<title>../../dom/modules/select.js&#45;&gt;../../fn/modules/curry.js</title>
<path fill="none" stroke="#757575" d="M1041.2,-54.2C1112.69,-60.72 1215.6,-76.3 1298,-113.5 1339.48,-132.22 1379.44,-167.96 1401.61,-189.87"/>
<polygon fill="#757575" stroke="#757575" points="1399.15,-192.36 1408.68,-196.99 1404.12,-187.43 1399.15,-192.36"/>
</g>
<!-- ../../dom/modules/select.js&#45;&gt;../../fn/modules/to&#45;array.js -->
<g id="edge24" class="edge">
<title>../../dom/modules/select.js&#45;&gt;../../fn/modules/to&#45;array.js</title>
<path fill="none" stroke="#757575" d="M977.86,-61.03C1019.8,-82.18 1109.12,-127.22 1157.04,-151.38"/>
<polygon fill="#757575" stroke="#757575" points="1155.54,-154.55 1166.04,-155.92 1158.69,-148.3 1155.54,-154.55"/>
</g>
<!-- ../../dom/modules/traversal.js -->
<g id="node24" class="node">
<title>../../dom/modules/traversal.js</title>
<path fill="none" stroke="#cfffac" d="M312.33,-23C312.33,-23 136.67,-23 136.67,-23 132.83,-23 129,-19.17 129,-15.33 129,-15.33 129,-7.67 129,-7.67 129,-3.83 132.83,0 136.67,0 136.67,0 312.33,0 312.33,0 316.17,0 320,-3.83 320,-7.67 320,-7.67 320,-15.33 320,-15.33 320,-19.17 316.17,-23 312.33,-23"/>
<text text-anchor="middle" x="224.5" y="-7.8" font-family="Arial" font-size="14.00" fill="#cfffac">../../dom/modules/traversal.js</text>
</g>
<!-- ../../fn/modules/choke.js&#45;&gt;../../fn/modules/noop.js -->
<g id="edge25" class="edge">
<title>../../fn/modules/choke.js&#45;&gt;../../fn/modules/noop.js</title>
<path fill="none" stroke="#757575" d="M733.14,-413.09C818.34,-448.44 1090.75,-547.96 1298,-472.5 1342.91,-456.15 1382.77,-415.09 1403.78,-390.34"/>
<polygon fill="#757575" stroke="#757575" points="1406.73,-392.27 1410.41,-382.33 1401.34,-387.81 1406.73,-392.27"/>
</g>
<!-- ../../fn/modules/compose.js -->
<g id="node27" class="node">
<title>../../fn/modules/compose.js</title>
<path fill="none" stroke="#cfffac" d="M1271.83,-302C1271.83,-302 1108.17,-302 1108.17,-302 1104.33,-302 1100.5,-298.17 1100.5,-294.33 1100.5,-294.33 1100.5,-286.67 1100.5,-286.67 1100.5,-282.83 1104.33,-279 1108.17,-279 1108.17,-279 1271.83,-279 1271.83,-279 1275.67,-279 1279.5,-282.83 1279.5,-286.67 1279.5,-286.67 1279.5,-294.33 1279.5,-294.33 1279.5,-298.17 1275.67,-302 1271.83,-302"/>
<text text-anchor="middle" x="1190" y="-286.8" font-family="Arial" font-size="14.00" fill="#cfffac">../../fn/modules/compose.js</text>
</g>
<!-- ../../fn/modules/fn.js&#45;&gt;../../fn/modules/noop.js -->
<g id="edge30" class="edge">
<title>../../fn/modules/fn.js&#45;&gt;../../fn/modules/noop.js</title>
<path fill="none" stroke="#757575" d="M1021.08,-301.85C1090.15,-313.72 1201.69,-332.89 1298,-349.5 1312.48,-352 1327.94,-354.67 1342.8,-357.23"/>
<polygon fill="#757575" stroke="#757575" points="1342.52,-360.74 1352.97,-358.99 1343.72,-353.84 1342.52,-360.74"/>
</g>
<!-- ../../fn/modules/fn.js&#45;&gt;../../fn/modules/nothing.js -->
<g id="edge31" class="edge">
<title>../../fn/modules/fn.js&#45;&gt;../../fn/modules/nothing.js</title>
<path fill="none" stroke="#757575" d="M1005.81,-302.12C1019.25,-306.12 1033.49,-311.21 1046,-317.5 1063.87,-326.49 1063.91,-335.96 1082,-344.5 1091.86,-349.15 1102.64,-353.02 1113.44,-356.23"/>
<polygon fill="#757575" stroke="#757575" points="1112.76,-359.67 1123.33,-358.99 1114.64,-352.93 1112.76,-359.67"/>
</g>
<!-- ../../fn/modules/fn.js&#45;&gt;../../fn/modules/to&#45;array.js -->
<g id="edge33" class="edge">
<title>../../fn/modules/fn.js&#45;&gt;../../fn/modules/to&#45;array.js</title>
<path fill="none" stroke="#757575" d="M1021.11,-283.01C1030.13,-279.86 1038.76,-275.5 1046,-269.5 1076.65,-244.1 1050.83,-212.25 1082,-187.5 1086.35,-184.05 1091.11,-181.13 1096.13,-178.66"/>
<polygon fill="#757575" stroke="#757575" points="1097.59,-181.84 1105.41,-174.68 1094.84,-175.4 1097.59,-181.84"/>
</g>
<!-- ../../fn/modules/fn.js&#45;&gt;../../fn/modules/compose.js -->
<g id="edge28" class="edge">
<title>../../fn/modules/fn.js&#45;&gt;../../fn/modules/compose.js</title>
<path fill="none" stroke="#757575" d="M1021.12,-290.5C1042.54,-290.5 1066.8,-290.5 1090.07,-290.5"/>
<polygon fill="#757575" stroke="#757575" points="1090.33,-294 1100.33,-290.5 1090.33,-287 1090.33,-294"/>
</g>
<!-- ../../fn/modules/latest.js -->
<g id="node29" class="node">
<title>../../fn/modules/latest.js</title>
<path fill="none" stroke="#cfffac" d="M1259.83,-261C1259.83,-261 1120.17,-261 1120.17,-261 1116.33,-261 1112.5,-257.17 1112.5,-253.33 1112.5,-253.33 1112.5,-245.67 1112.5,-245.67 1112.5,-241.83 1116.33,-238 1120.17,-238 1120.17,-238 1259.83,-238 1259.83,-238 1263.67,-238 1267.5,-241.83 1267.5,-245.67 1267.5,-245.67 1267.5,-253.33 1267.5,-253.33 1267.5,-257.17 1263.67,-261 1259.83,-261"/>
<text text-anchor="middle" x="1190" y="-245.8" font-family="Arial" font-size="14.00" fill="#cfffac">../../fn/modules/latest.js</text>
</g>
<!-- ../../fn/modules/fn.js&#45;&gt;../../fn/modules/latest.js -->
<g id="edge29" class="edge">
<title>../../fn/modules/fn.js&#45;&gt;../../fn/modules/latest.js</title>
<path fill="none" stroke="#757575" d="M1020.8,-278.97C1049.59,-273.93 1083.52,-267.98 1113.34,-262.76"/>
<polygon fill="#757575" stroke="#757575" points="1114.04,-266.19 1123.28,-261.01 1112.83,-259.29 1114.04,-266.19"/>
</g>
<!-- ../../fn/modules/strings/prepend.js -->
<g id="node30" class="node">
<title>../../fn/modules/strings/prepend.js</title>
<path fill="none" stroke="#c6c5fe" d="M1290.33,-220C1290.33,-220 1089.67,-220 1089.67,-220 1085.83,-220 1082,-216.17 1082,-212.33 1082,-212.33 1082,-204.67 1082,-204.67 1082,-200.83 1085.83,-197 1089.67,-197 1089.67,-197 1290.33,-197 1290.33,-197 1294.17,-197 1298,-200.83 1298,-204.67 1298,-204.67 1298,-212.33 1298,-212.33 1298,-216.17 1294.17,-220 1290.33,-220"/>
<text text-anchor="middle" x="1190" y="-204.8" font-family="Arial" font-size="14.00" fill="#c6c5fe">../../fn/modules/strings/prepend.js</text>
</g>
<!-- ../../fn/modules/fn.js&#45;&gt;../../fn/modules/strings/prepend.js -->
<g id="edge32" class="edge">
<title>../../fn/modules/fn.js&#45;&gt;../../fn/modules/strings/prepend.js</title>
<path fill="none" stroke="#757575" d="M1021.05,-280.45C1029.78,-277.65 1038.34,-274.07 1046,-269.5 1066.82,-257.06 1060.93,-240.5 1082,-228.5 1084.92,-226.84 1087.94,-225.31 1091.05,-223.91"/>
<polygon fill="#757575" stroke="#757575" points="1092.62,-227.05 1100.58,-220.07 1090,-220.56 1092.62,-227.05"/>
</g>
<!-- ../../fn/modules/strings/prepend.js&#45;&gt;../../fn/modules/curry.js -->
<g id="edge46" class="edge">
<title>../../fn/modules/strings/prepend.js&#45;&gt;../../fn/modules/curry.js</title>
<path fill="none" stroke="#757575" d="M1298.22,-208.5C1310.24,-208.5 1322.36,-208.5 1334.05,-208.5"/>
<polygon fill="#757575" stroke="#757575" points="1334.2,-212 1344.2,-208.5 1334.2,-205 1334.2,-212"/>
</g>
<!-- ../../fn/modules/lists/core.js&#45;&gt;../../fn/modules/to&#45;array.js -->
<g id="edge34" class="edge">
<title>../../fn/modules/lists/core.js&#45;&gt;../../fn/modules/to&#45;array.js</title>
<path fill="none" stroke="#757575" d="M1025.79,-237.84C1032.86,-235.32 1039.74,-232.24 1046,-228.5 1066.82,-216.06 1060.93,-199.5 1082,-187.5 1086.29,-185.06 1090.82,-182.91 1095.49,-181.01"/>
<polygon fill="#757575" stroke="#757575" points="1097.06,-184.17 1105.26,-177.47 1094.67,-177.59 1097.06,-184.17"/>
</g>
<!-- ../../fn/modules/request&#45;tick.js -->
<g id="node34" class="node">
<title>../../fn/modules/request&#45;tick.js</title>
<path fill="none" stroke="#cfffac" d="M1278.83,-464C1278.83,-464 1101.17,-464 1101.17,-464 1097.33,-464 1093.5,-460.17 1093.5,-456.33 1093.5,-456.33 1093.5,-448.67 1093.5,-448.67 1093.5,-444.83 1097.33,-441 1101.17,-441 1101.17,-441 1278.83,-441 1278.83,-441 1282.67,-441 1286.5,-444.83 1286.5,-448.67 1286.5,-448.67 1286.5,-456.33 1286.5,-456.33 1286.5,-460.17 1282.67,-464 1278.83,-464"/>
<text text-anchor="middle" x="1190" y="-448.8" font-family="Arial" font-size="14.00" fill="#cfffac">../../fn/modules/request&#45;tick.js</text>
</g>
<!-- ../../fn/modules/timer.js&#45;&gt;../../fn/modules/now.js -->
<g id="edge47" class="edge">
<title>../../fn/modules/timer.js&#45;&gt;../../fn/modules/now.js</title>
<path fill="none" stroke="#757575" d="M1030.65,-411.5C1054.83,-411.5 1081.7,-411.5 1106.35,-411.5"/>
<polygon fill="#757575" stroke="#757575" points="1106.4,-415 1116.4,-411.5 1106.4,-408 1106.4,-415"/>
</g>
<!-- ../../fn/modules/timer.js&#45;&gt;../../fn/modules/request&#45;tick.js -->
<g id="edge48" class="edge">
<title>../../fn/modules/timer.js&#45;&gt;../../fn/modules/request&#45;tick.js</title>
<path fill="none" stroke="#757575" d="M1020.8,-423.03C1049.59,-428.07 1083.52,-434.02 1113.34,-439.24"/>
<polygon fill="#757575" stroke="#757575" points="1112.83,-442.71 1123.28,-440.99 1114.04,-435.81 1112.83,-442.71"/>
</g>
<!-- slide&#45;show.js -->
<g id="node36" class="node">
<title>slide&#45;show.js</title>
<path fill="none" stroke="#c6c5fe" d="M85.33,-260C85.33,-260 7.67,-260 7.67,-260 3.83,-260 0,-256.17 0,-252.33 0,-252.33 0,-244.67 0,-244.67 0,-240.83 3.83,-237 7.67,-237 7.67,-237 85.33,-237 85.33,-237 89.17,-237 93,-240.83 93,-244.67 93,-244.67 93,-252.33 93,-252.33 93,-256.17 89.17,-260 85.33,-260"/>
<text text-anchor="middle" x="46.5" y="-244.8" font-family="Arial" font-size="14.00" fill="#c6c5fe">slide&#45;show.js</text>
</g>
<!-- slide&#45;show.js&#45;&gt;../../dom/modules/create.js -->
<g id="edge49" class="edge">
<title>slide&#45;show.js&#45;&gt;../../dom/modules/create.js</title>
<path fill="none" stroke="#757575" d="M51.86,-260.24C62.27,-287.3 90.63,-355.33 129,-402.5 211.67,-504.12 238.54,-532.5 356,-590.5 435.61,-629.81 535.04,-650.17 607.3,-660.48"/>
<polygon fill="#757575" stroke="#757575" points="606.92,-663.96 617.31,-661.87 607.89,-657.03 606.92,-663.96"/>
</g>
<!-- slide&#45;show.js&#45;&gt;../../dom/modules/element.js -->
<g id="edge50" class="edge">
<title>slide&#45;show.js&#45;&gt;../../dom/modules/element.js</title>
<path fill="none" stroke="#757575" d="M62.36,-260.34C123.37,-308.97 354.9,-493.51 428.73,-552.35"/>
<polygon fill="#757575" stroke="#757575" points="426.93,-555.39 436.93,-558.89 431.29,-549.92 426.93,-555.39"/>
</g>
<!-- slide&#45;show.js&#45;&gt;../../dom/modules/events.js -->
<g id="edge51" class="edge">
<title>slide&#45;show.js&#45;&gt;../../dom/modules/events.js</title>
<path fill="none" stroke="#757575" d="M93.28,-253.96C103.11,-255.14 113.85,-256.42 124.82,-257.73"/>
<polygon fill="#757575" stroke="#757575" points="124.6,-261.22 134.94,-258.93 125.43,-254.27 124.6,-261.22"/>
</g>
<!-- slide&#45;show.js&#45;&gt;../../dom/modules/rect.js -->
<g id="edge52" class="edge">
<title>slide&#45;show.js&#45;&gt;../../dom/modules/rect.js</title>
<path fill="none" stroke="#757575" d="M93.28,-243.3C105.74,-241.88 119.68,-240.3 133.68,-238.71"/>
<polygon fill="#757575" stroke="#757575" points="134.32,-242.16 143.86,-237.55 133.53,-235.2 134.32,-242.16"/>
</g>
<!-- slide&#45;show.js&#45;&gt;../../dom/modules/select.js -->
<g id="edge53" class="edge">
<title>slide&#45;show.js&#45;&gt;../../dom/modules/select.js</title>
<path fill="none" stroke="#757575" d="M67.79,-236.97C83.99,-228.09 107.47,-215.95 129,-207.5 325.41,-130.43 377.28,-112.47 585,-75.5 676.24,-59.26 781.9,-53.07 856.54,-50.76"/>
<polygon fill="#757575" stroke="#757575" points="856.96,-54.25 866.86,-50.46 856.76,-47.25 856.96,-54.25"/>
</g>
<!-- slide&#45;show.js&#45;&gt;../../dom/modules/traversal.js -->
<g id="edge54" class="edge">
<title>slide&#45;show.js&#45;&gt;../../dom/modules/traversal.js</title>
<path fill="none" stroke="#757575" d="M48.42,-236.89C51.89,-201.4 67.26,-93.35 129,-37.5 133.37,-33.55 138.28,-30.19 143.51,-27.34"/>
<polygon fill="#757575" stroke="#757575" points="145.06,-30.48 152.57,-23 142.04,-24.17 145.06,-30.48"/>
</g>
</g>
</svg>
