<?xml version="1.0" encoding="UTF-8" standalone="no"?>
<!DOCTYPE svg PUBLIC "-//W3C//DTD SVG 1.1//EN"
 "http://www.w3.org/Graphics/SVG/1.1/DTD/svg11.dtd">
<!-- Generated by graphviz version 2.44.1 (20200629.0846)
 -->
<!-- Title: G Pages: 1 -->
<svg width="1755pt" height="856pt"
 viewBox="0.00 0.00 1755.20 856.39" xmlns="http://www.w3.org/2000/svg" xmlns:xlink="http://www.w3.org/1999/xlink">
<g id="graph0" class="graph" transform="scale(1 1) rotate(0) translate(21.6 834.79)">
<title>G</title>
<polygon fill="#111111" stroke="transparent" points="-21.6,21.6 -21.6,-834.79 1733.6,-834.79 1733.6,21.6 -21.6,21.6"/>
<!-- ../../dom/modules/assign.js -->
<g id="node1" class="node">
<title>../../dom/modules/assign.js</title>
<path fill="none" stroke="#c6c5fe" d="M1040.33,-743.19C1040.33,-743.19 877.67,-743.19 877.67,-743.19 873.83,-743.19 870,-739.36 870,-735.52 870,-735.52 870,-727.86 870,-727.86 870,-724.02 873.83,-720.19 877.67,-720.19 877.67,-720.19 1040.33,-720.19 1040.33,-720.19 1044.17,-720.19 1048,-724.02 1048,-727.86 1048,-727.86 1048,-735.52 1048,-735.52 1048,-739.36 1044.17,-743.19 1040.33,-743.19"/>
<text text-anchor="middle" x="959" y="-727.99" font-family="Arial" font-size="14.00" fill="#c6c5fe">../../dom/modules/assign.js</text>
</g>
<!-- ../../fn/modules/curry.js -->
<g id="node2" class="node">
<title>../../fn/modules/curry.js</title>
<path fill="none" stroke="#c6c5fe" d="M1498.83,-185.19C1498.83,-185.19 1362.17,-185.19 1362.17,-185.19 1358.33,-185.19 1354.5,-181.36 1354.5,-177.52 1354.5,-177.52 1354.5,-169.86 1354.5,-169.86 1354.5,-166.02 1358.33,-162.19 1362.17,-162.19 1362.17,-162.19 1498.83,-162.19 1498.83,-162.19 1502.67,-162.19 1506.5,-166.02 1506.5,-169.86 1506.5,-169.86 1506.5,-177.52 1506.5,-177.52 1506.5,-181.36 1502.67,-185.19 1498.83,-185.19"/>
<text text-anchor="middle" x="1430.5" y="-169.99" font-family="Arial" font-size="14.00" fill="#c6c5fe">../../fn/modules/curry.js</text>
</g>
<!-- ../../dom/modules/assign.js&#45;&gt;../../fn/modules/curry.js -->
<g id="edge1" class="edge">
<title>../../dom/modules/assign.js&#45;&gt;../../fn/modules/curry.js</title>
<path fill="none" stroke="#757575" d="M1048.17,-727.64C1145.11,-722.32 1289.67,-711.5 1308,-693.69 1349.83,-653.04 1330.84,-490.51 1344,-433.69 1365.05,-342.84 1404.08,-238.47 1421.14,-194.71"/>
<polygon fill="#757575" stroke="#757575" points="1424.41,-195.98 1424.81,-185.4 1417.89,-193.42 1424.41,-195.98"/>
</g>
<!-- ../../fn/modules/id.js -->
<g id="node3" class="node">
<title>../../fn/modules/id.js</title>
<path fill="none" stroke="#cfffac" d="M1259.33,-684.19C1259.33,-684.19 1140.67,-684.19 1140.67,-684.19 1136.83,-684.19 1133,-680.36 1133,-676.52 1133,-676.52 1133,-668.86 1133,-668.86 1133,-665.02 1136.83,-661.19 1140.67,-661.19 1140.67,-661.19 1259.33,-661.19 1259.33,-661.19 1263.17,-661.19 1267,-665.02 1267,-668.86 1267,-668.86 1267,-676.52 1267,-676.52 1267,-680.36 1263.17,-684.19 1259.33,-684.19"/>
<text text-anchor="middle" x="1200" y="-668.99" font-family="Arial" font-size="14.00" fill="#cfffac">../../fn/modules/id.js</text>
</g>
<!-- ../../dom/modules/assign.js&#45;&gt;../../fn/modules/id.js -->
<g id="edge2" class="edge">
<title>../../dom/modules/assign.js&#45;&gt;../../fn/modules/id.js</title>
<path fill="none" stroke="#757575" d="M1005.8,-720.16C1031.19,-713.79 1063.33,-705.76 1092,-698.69 1108.06,-694.73 1125.49,-690.48 1141.53,-686.58"/>
<polygon fill="#757575" stroke="#757575" points="1142.42,-689.97 1151.31,-684.21 1140.77,-683.16 1142.42,-689.97"/>
</g>
<!-- ../../fn/modules/noop.js -->
<g id="node4" class="node">
<title>../../fn/modules/noop.js</title>
<path fill="none" stroke="#cfffac" d="M1499.33,-466.19C1499.33,-466.19 1361.67,-466.19 1361.67,-466.19 1357.83,-466.19 1354,-462.36 1354,-458.52 1354,-458.52 1354,-450.86 1354,-450.86 1354,-447.02 1357.83,-443.19 1361.67,-443.19 1361.67,-443.19 1499.33,-443.19 1499.33,-443.19 1503.17,-443.19 1507,-447.02 1507,-450.86 1507,-450.86 1507,-458.52 1507,-458.52 1507,-462.36 1503.17,-466.19 1499.33,-466.19"/>
<text text-anchor="middle" x="1430.5" y="-450.99" font-family="Arial" font-size="14.00" fill="#cfffac">../../fn/modules/noop.js</text>
</g>
<!-- ../../dom/modules/assign.js&#45;&gt;../../fn/modules/noop.js -->
<g id="edge3" class="edge">
<title>../../dom/modules/assign.js&#45;&gt;../../fn/modules/noop.js</title>
<path fill="none" stroke="#757575" d="M1048.37,-741.81C1137.84,-750.09 1268.47,-756.18 1308,-726.69 1350.93,-694.67 1323.09,-661 1344,-611.69 1365.65,-560.64 1398.72,-504.38 1416.73,-475.04"/>
<polygon fill="#757575" stroke="#757575" points="1419.73,-476.85 1422.02,-466.5 1413.78,-473.16 1419.73,-476.85"/>
</g>
<!-- ../../fn/modules/overload.js -->
<g id="node5" class="node">
<title>../../fn/modules/overload.js</title>
<path fill="none" stroke="#cfffac" d="M1279.83,-813.19C1279.83,-813.19 1120.17,-813.19 1120.17,-813.19 1116.33,-813.19 1112.5,-809.36 1112.5,-805.52 1112.5,-805.52 1112.5,-797.86 1112.5,-797.86 1112.5,-794.02 1116.33,-790.19 1120.17,-790.19 1120.17,-790.19 1279.83,-790.19 1279.83,-790.19 1283.67,-790.19 1287.5,-794.02 1287.5,-797.86 1287.5,-797.86 1287.5,-805.52 1287.5,-805.52 1287.5,-809.36 1283.67,-813.19 1279.83,-813.19"/>
<text text-anchor="middle" x="1200" y="-797.99" font-family="Arial" font-size="14.00" fill="#cfffac">../../fn/modules/overload.js</text>
</g>
<!-- ../../dom/modules/assign.js&#45;&gt;../../fn/modules/overload.js -->
<g id="edge4" class="edge">
<title>../../dom/modules/assign.js&#45;&gt;../../fn/modules/overload.js</title>
<path fill="none" stroke="#757575" d="M1017.88,-743.23C1030.51,-746.06 1043.76,-749.27 1056,-752.69 1061.06,-754.11 1115.84,-772.96 1156.1,-786.86"/>
<polygon fill="#757575" stroke="#757575" points="1155.13,-790.23 1165.73,-790.18 1157.42,-783.61 1155.13,-790.23"/>
</g>
<!-- ../../fn/modules/cache.js -->
<g id="node16" class="node">
<title>../../fn/modules/cache.js</title>
<path fill="none" stroke="#cfffac" d="M1704.33,-544.19C1704.33,-544.19 1560.67,-544.19 1560.67,-544.19 1556.83,-544.19 1553,-540.36 1553,-536.52 1553,-536.52 1553,-528.86 1553,-528.86 1553,-525.02 1556.83,-521.19 1560.67,-521.19 1560.67,-521.19 1704.33,-521.19 1704.33,-521.19 1708.17,-521.19 1712,-525.02 1712,-528.86 1712,-528.86 1712,-536.52 1712,-536.52 1712,-540.36 1708.17,-544.19 1704.33,-544.19"/>
<text text-anchor="middle" x="1632.5" y="-528.99" font-family="Arial" font-size="14.00" fill="#cfffac">../../fn/modules/cache.js</text>
</g>
<!-- ../../fn/modules/curry.js&#45;&gt;../../fn/modules/cache.js -->
<g id="edge27" class="edge">
<title>../../fn/modules/curry.js&#45;&gt;../../fn/modules/cache.js</title>
<path fill="none" stroke="#757575" d="M1437.93,-185.23C1466.61,-236.7 1583.08,-445.77 1620.13,-512.27"/>
<polygon fill="#757575" stroke="#757575" points="1617.07,-513.98 1625,-521.02 1623.19,-510.58 1617.07,-513.98"/>
</g>
<!-- ../../dom/modules/create.js -->
<g id="node6" class="node">
<title>../../dom/modules/create.js</title>
<path fill="none" stroke="#c6c5fe" d="M785.83,-723.19C785.83,-723.19 625.17,-723.19 625.17,-723.19 621.33,-723.19 617.5,-719.36 617.5,-715.52 617.5,-715.52 617.5,-707.86 617.5,-707.86 617.5,-704.02 621.33,-700.19 625.17,-700.19 625.17,-700.19 785.83,-700.19 785.83,-700.19 789.67,-700.19 793.5,-704.02 793.5,-707.86 793.5,-707.86 793.5,-715.52 793.5,-715.52 793.5,-719.36 789.67,-723.19 785.83,-723.19"/>
<text text-anchor="middle" x="705.5" y="-707.99" font-family="Arial" font-size="14.00" fill="#c6c5fe">../../dom/modules/create.js</text>
</g>
<!-- ../../dom/modules/create.js&#45;&gt;../../dom/modules/assign.js -->
<g id="edge5" class="edge">
<title>../../dom/modules/create.js&#45;&gt;../../dom/modules/assign.js</title>
<path fill="none" stroke="#757575" d="M793.76,-718.63C814.95,-720.31 837.75,-722.13 859.42,-723.85"/>
<polygon fill="#757575" stroke="#757575" points="859.37,-727.36 869.62,-724.66 859.93,-720.38 859.37,-727.36"/>
</g>
<!-- ../../dom/modules/create.js&#45;&gt;../../fn/modules/id.js -->
<g id="edge6" class="edge">
<title>../../dom/modules/create.js&#45;&gt;../../fn/modules/id.js</title>
<path fill="none" stroke="#757575" d="M793.7,-704.79C887.07,-697.39 1033.78,-685.77 1122.72,-678.73"/>
<polygon fill="#757575" stroke="#757575" points="1123.05,-682.22 1132.74,-677.94 1122.5,-675.24 1123.05,-682.22"/>
</g>
<!-- ../../dom/modules/create.js&#45;&gt;../../fn/modules/overload.js -->
<g id="edge7" class="edge">
<title>../../dom/modules/create.js&#45;&gt;../../fn/modules/overload.js</title>
<path fill="none" stroke="#757575" d="M722.26,-723.22C749.25,-742.19 806.77,-779.32 862,-793.69 940.92,-814.22 1033.78,-814.77 1102.01,-811.01"/>
<polygon fill="#757575" stroke="#757575" points="1102.54,-814.49 1112.32,-810.4 1102.13,-807.5 1102.54,-814.49"/>
</g>
<!-- ../../fn/modules/to&#45;type.js -->
<g id="node7" class="node">
<title>../../fn/modules/to&#45;type.js</title>
<path fill="none" stroke="#cfffac" d="M1033.33,-784.19C1033.33,-784.19 884.67,-784.19 884.67,-784.19 880.83,-784.19 877,-780.36 877,-776.52 877,-776.52 877,-768.86 877,-768.86 877,-765.02 880.83,-761.19 884.67,-761.19 884.67,-761.19 1033.33,-761.19 1033.33,-761.19 1037.17,-761.19 1041,-765.02 1041,-768.86 1041,-768.86 1041,-776.52 1041,-776.52 1041,-780.36 1037.17,-784.19 1033.33,-784.19"/>
<text text-anchor="middle" x="959" y="-768.99" font-family="Arial" font-size="14.00" fill="#cfffac">../../fn/modules/to&#45;type.js</text>
</g>
<!-- ../../dom/modules/create.js&#45;&gt;../../fn/modules/to&#45;type.js -->
<g id="edge8" class="edge">
<title>../../dom/modules/create.js&#45;&gt;../../fn/modules/to&#45;type.js</title>
<path fill="none" stroke="#757575" d="M747.93,-723.25C779.18,-731.81 823.14,-743.53 862,-752.69 871.16,-754.85 880.84,-757.01 890.4,-759.07"/>
<polygon fill="#757575" stroke="#757575" points="889.76,-762.52 900.27,-761.18 891.22,-755.67 889.76,-762.52"/>
</g>
<!-- ../../dom/modules/element.js -->
<g id="node8" class="node">
<title>../../dom/modules/element.js</title>
<path fill="none" stroke="#c6c5fe" d="M538.83,-622.19C538.83,-622.19 366.17,-622.19 366.17,-622.19 362.33,-622.19 358.5,-618.36 358.5,-614.52 358.5,-614.52 358.5,-606.86 358.5,-606.86 358.5,-603.02 362.33,-599.19 366.17,-599.19 366.17,-599.19 538.83,-599.19 538.83,-599.19 542.67,-599.19 546.5,-603.02 546.5,-606.86 546.5,-606.86 546.5,-614.52 546.5,-614.52 546.5,-618.36 542.67,-622.19 538.83,-622.19"/>
<text text-anchor="middle" x="452.5" y="-606.99" font-family="Arial" font-size="14.00" fill="#c6c5fe">../../dom/modules/element.js</text>
</g>
<!-- ../../dom/modules/element.js&#45;&gt;../../dom/modules/create.js -->
<g id="edge9" class="edge">
<title>../../dom/modules/element.js&#45;&gt;../../dom/modules/create.js</title>
<path fill="none" stroke="#757575" d="M482.29,-622.28C527.66,-640.53 615.8,-676 666.37,-696.35"/>
<polygon fill="#757575" stroke="#757575" points="665.07,-699.6 675.66,-700.08 667.69,-693.1 665.07,-699.6"/>
</g>
<!-- ../../dom/modules/request&#45;template.js -->
<g id="node9" class="node">
<title>../../dom/modules/request&#45;template.js</title>
<path fill="none" stroke="#c6c5fe" d="M818.33,-622.19C818.33,-622.19 592.67,-622.19 592.67,-622.19 588.83,-622.19 585,-618.36 585,-614.52 585,-614.52 585,-606.86 585,-606.86 585,-603.02 588.83,-599.19 592.67,-599.19 592.67,-599.19 818.33,-599.19 818.33,-599.19 822.17,-599.19 826,-603.02 826,-606.86 826,-606.86 826,-614.52 826,-614.52 826,-618.36 822.17,-622.19 818.33,-622.19"/>
<text text-anchor="middle" x="705.5" y="-606.99" font-family="Arial" font-size="14.00" fill="#c6c5fe">../../dom/modules/request&#45;template.js</text>
</g>
<!-- ../../dom/modules/element.js&#45;&gt;../../dom/modules/request&#45;template.js -->
<g id="edge10" class="edge">
<title>../../dom/modules/element.js&#45;&gt;../../dom/modules/request&#45;template.js</title>
<path fill="none" stroke="#757575" d="M546.61,-610.69C555.73,-610.69 565.09,-610.69 574.49,-610.69"/>
<polygon fill="#757575" stroke="#757575" points="574.69,-614.19 584.69,-610.69 574.69,-607.19 574.69,-614.19"/>
</g>
<!-- ../../dom/modules/request&#45;template.js&#45;&gt;../../fn/modules/cache.js -->
<g id="edge19" class="edge">
<title>../../dom/modules/request&#45;template.js&#45;&gt;../../fn/modules/cache.js</title>
<path fill="none" stroke="#757575" d="M788.71,-599.17C812.34,-596.11 838.16,-593.02 862,-590.69 1152.38,-562.29 1226.53,-574.18 1517,-546.69 1525.31,-545.9 1533.95,-545 1542.59,-544.04"/>
<polygon fill="#757575" stroke="#757575" points="1543.18,-547.5 1552.72,-542.9 1542.39,-540.54 1543.18,-547.5"/>
</g>
<!-- ../../dom/modules/parse.js -->
<g id="node18" class="node">
<title>../../dom/modules/parse.js</title>
<path fill="none" stroke="#cfffac" d="M1037.83,-622.19C1037.83,-622.19 880.17,-622.19 880.17,-622.19 876.33,-622.19 872.5,-618.36 872.5,-614.52 872.5,-614.52 872.5,-606.86 872.5,-606.86 872.5,-603.02 876.33,-599.19 880.17,-599.19 880.17,-599.19 1037.83,-599.19 1037.83,-599.19 1041.67,-599.19 1045.5,-603.02 1045.5,-606.86 1045.5,-606.86 1045.5,-614.52 1045.5,-614.52 1045.5,-618.36 1041.67,-622.19 1037.83,-622.19"/>
<text text-anchor="middle" x="959" y="-606.99" font-family="Arial" font-size="14.00" fill="#cfffac">../../dom/modules/parse.js</text>
</g>
<!-- ../../dom/modules/request&#45;template.js&#45;&gt;../../dom/modules/parse.js -->
<g id="edge17" class="edge">
<title>../../dom/modules/request&#45;template.js&#45;&gt;../../dom/modules/parse.js</title>
<path fill="none" stroke="#757575" d="M826.36,-610.69C838.39,-610.69 850.5,-610.69 862.24,-610.69"/>
<polygon fill="#757575" stroke="#757575" points="862.45,-614.19 872.45,-610.69 862.45,-607.19 862.45,-614.19"/>
</g>
<!-- ../../dom/modules/request.js -->
<g id="node20" class="node">
<title>../../dom/modules/request.js</title>
<path fill="none" stroke="#c6c5fe" d="M1043.33,-663.19C1043.33,-663.19 874.67,-663.19 874.67,-663.19 870.83,-663.19 867,-659.36 867,-655.52 867,-655.52 867,-647.86 867,-647.86 867,-644.02 870.83,-640.19 874.67,-640.19 874.67,-640.19 1043.33,-640.19 1043.33,-640.19 1047.17,-640.19 1051,-644.02 1051,-647.86 1051,-647.86 1051,-655.52 1051,-655.52 1051,-659.36 1047.17,-663.19 1043.33,-663.19"/>
<text text-anchor="middle" x="959" y="-647.99" font-family="Arial" font-size="14.00" fill="#c6c5fe">../../dom/modules/request.js</text>
</g>
<!-- ../../dom/modules/request&#45;template.js&#45;&gt;../../dom/modules/request.js -->
<g id="edge18" class="edge">
<title>../../dom/modules/request&#45;template.js&#45;&gt;../../dom/modules/request.js</title>
<path fill="none" stroke="#757575" d="M777.23,-622.22C808.3,-627.29 844.95,-633.26 877.1,-638.5"/>
<polygon fill="#757575" stroke="#757575" points="876.94,-642.02 887.37,-640.18 878.06,-635.11 876.94,-642.02"/>
</g>
<!-- ../../dom/modules/event.js -->
<g id="node10" class="node">
<title>../../dom/modules/event.js</title>
<path fill="none" stroke="#cfffac" d="M530.83,-389.19C530.83,-389.19 374.17,-389.19 374.17,-389.19 370.33,-389.19 366.5,-385.36 366.5,-381.52 366.5,-381.52 366.5,-373.86 366.5,-373.86 366.5,-370.02 370.33,-366.19 374.17,-366.19 374.17,-366.19 530.83,-366.19 530.83,-366.19 534.67,-366.19 538.5,-370.02 538.5,-373.86 538.5,-373.86 538.5,-381.52 538.5,-381.52 538.5,-385.36 534.67,-389.19 530.83,-389.19"/>
<text text-anchor="middle" x="452.5" y="-373.99" font-family="Arial" font-size="14.00" fill="#cfffac">../../dom/modules/event.js</text>
</g>
<!-- ../../dom/modules/events.js -->
<g id="node11" class="node">
<title>../../dom/modules/events.js</title>
<path fill="none" stroke="#c6c5fe" d="M306.33,-348.19C306.33,-348.19 142.67,-348.19 142.67,-348.19 138.83,-348.19 135,-344.36 135,-340.52 135,-340.52 135,-332.86 135,-332.86 135,-329.02 138.83,-325.19 142.67,-325.19 142.67,-325.19 306.33,-325.19 306.33,-325.19 310.17,-325.19 314,-329.02 314,-332.86 314,-332.86 314,-340.52 314,-340.52 314,-344.36 310.17,-348.19 306.33,-348.19"/>
<text text-anchor="middle" x="224.5" y="-332.99" font-family="Arial" font-size="14.00" fill="#c6c5fe">../../dom/modules/events.js</text>
</g>
<!-- ../../dom/modules/events.js&#45;&gt;../../dom/modules/event.js -->
<g id="edge11" class="edge">
<title>../../dom/modules/events.js&#45;&gt;../../dom/modules/event.js</title>
<path fill="none" stroke="#757575" d="M289.06,-348.22C316.73,-353.24 349.34,-359.16 378.05,-364.37"/>
<polygon fill="#757575" stroke="#757575" points="377.57,-367.84 388.03,-366.18 378.82,-360.95 377.57,-367.84"/>
</g>
<!-- ../../dom/modules/features.js -->
<g id="node12" class="node">
<title>../../dom/modules/features.js</title>
<path fill="none" stroke="#c6c5fe" d="M538.83,-476.19C538.83,-476.19 366.17,-476.19 366.17,-476.19 362.33,-476.19 358.5,-472.36 358.5,-468.52 358.5,-468.52 358.5,-460.86 358.5,-460.86 358.5,-457.02 362.33,-453.19 366.17,-453.19 366.17,-453.19 538.83,-453.19 538.83,-453.19 542.67,-453.19 546.5,-457.02 546.5,-460.86 546.5,-460.86 546.5,-468.52 546.5,-468.52 546.5,-472.36 542.67,-476.19 538.83,-476.19"/>
<text text-anchor="middle" x="452.5" y="-460.99" font-family="Arial" font-size="14.00" fill="#c6c5fe">../../dom/modules/features.js</text>
</g>
<!-- ../../dom/modules/events.js&#45;&gt;../../dom/modules/features.js -->
<g id="edge12" class="edge">
<title>../../dom/modules/events.js&#45;&gt;../../dom/modules/features.js</title>
<path fill="none" stroke="#757575" d="M245.95,-348.28C286.11,-371.02 375.38,-421.58 421.94,-447.95"/>
<polygon fill="#757575" stroke="#757575" points="420.5,-451.16 430.93,-453.04 423.95,-445.07 420.5,-451.16"/>
</g>
<!-- ../../fn/modules/stream.js -->
<g id="node13" class="node">
<title>../../fn/modules/stream.js</title>
<path fill="none" stroke="#c6c5fe" d="M780.33,-308.19C780.33,-308.19 630.67,-308.19 630.67,-308.19 626.83,-308.19 623,-304.36 623,-300.52 623,-300.52 623,-292.86 623,-292.86 623,-289.02 626.83,-285.19 630.67,-285.19 630.67,-285.19 780.33,-285.19 780.33,-285.19 784.17,-285.19 788,-289.02 788,-292.86 788,-292.86 788,-300.52 788,-300.52 788,-304.36 784.17,-308.19 780.33,-308.19"/>
<text text-anchor="middle" x="705.5" y="-292.99" font-family="Arial" font-size="14.00" fill="#c6c5fe">../../fn/modules/stream.js</text>
</g>
<!-- ../../dom/modules/events.js&#45;&gt;../../fn/modules/stream.js -->
<g id="edge13" class="edge">
<title>../../dom/modules/events.js&#45;&gt;../../fn/modules/stream.js</title>
<path fill="none" stroke="#757575" d="M288.71,-325.15C310.02,-321.62 333.98,-318.06 356,-315.69 442.85,-306.36 542.4,-301.51 612.8,-299.06"/>
<polygon fill="#757575" stroke="#757575" points="613.1,-302.55 622.97,-298.71 612.86,-295.56 613.1,-302.55"/>
</g>
<!-- ../../fn/modules/stream.wait.js -->
<g id="node14" class="node">
<title>../../fn/modules/stream.wait.js</title>
<path fill="none" stroke="#c6c5fe" d="M541.33,-348.19C541.33,-348.19 363.67,-348.19 363.67,-348.19 359.83,-348.19 356,-344.36 356,-340.52 356,-340.52 356,-332.86 356,-332.86 356,-329.02 359.83,-325.19 363.67,-325.19 363.67,-325.19 541.33,-325.19 541.33,-325.19 545.17,-325.19 549,-329.02 549,-332.86 549,-332.86 549,-340.52 549,-340.52 549,-344.36 545.17,-348.19 541.33,-348.19"/>
<text text-anchor="middle" x="452.5" y="-332.99" font-family="Arial" font-size="14.00" fill="#c6c5fe">../../fn/modules/stream.wait.js</text>
</g>
<!-- ../../dom/modules/events.js&#45;&gt;../../fn/modules/stream.wait.js -->
<g id="edge14" class="edge">
<title>../../dom/modules/events.js&#45;&gt;../../fn/modules/stream.wait.js</title>
<path fill="none" stroke="#757575" d="M314.17,-336.69C324.57,-336.69 335.27,-336.69 345.87,-336.69"/>
<polygon fill="#757575" stroke="#757575" points="346,-340.19 356,-336.69 346,-333.19 346,-340.19"/>
</g>
<!-- ../../dom/modules/prefix.js -->
<g id="node15" class="node">
<title>../../dom/modules/prefix.js</title>
<path fill="none" stroke="#cfffac" d="M783.83,-476.19C783.83,-476.19 627.17,-476.19 627.17,-476.19 623.33,-476.19 619.5,-472.36 619.5,-468.52 619.5,-468.52 619.5,-460.86 619.5,-460.86 619.5,-457.02 623.33,-453.19 627.17,-453.19 627.17,-453.19 783.83,-453.19 783.83,-453.19 787.67,-453.19 791.5,-457.02 791.5,-460.86 791.5,-460.86 791.5,-468.52 791.5,-468.52 791.5,-472.36 787.67,-476.19 783.83,-476.19"/>
<text text-anchor="middle" x="705.5" y="-460.99" font-family="Arial" font-size="14.00" fill="#cfffac">../../dom/modules/prefix.js</text>
</g>
<!-- ../../dom/modules/features.js&#45;&gt;../../dom/modules/prefix.js -->
<g id="edge15" class="edge">
<title>../../dom/modules/features.js&#45;&gt;../../dom/modules/prefix.js</title>
<path fill="none" stroke="#757575" d="M546.61,-464.69C567.02,-464.69 588.65,-464.69 609.15,-464.69"/>
<polygon fill="#757575" stroke="#757575" points="609.43,-468.19 619.43,-464.69 609.43,-461.19 609.43,-468.19"/>
</g>
<!-- ../../dom/modules/features.js&#45;&gt;../../fn/modules/cache.js -->
<g id="edge16" class="edge">
<title>../../dom/modules/features.js&#45;&gt;../../fn/modules/cache.js</title>
<path fill="none" stroke="#757575" d="M504.76,-476.23C595.58,-495.63 790.96,-532.69 958,-532.69 958,-532.69 958,-532.69 1201,-532.69 1319.26,-532.69 1455.8,-532.69 1542.84,-532.69"/>
<polygon fill="#757575" stroke="#757575" points="1542.94,-536.19 1552.94,-532.69 1542.94,-529.19 1542.94,-536.19"/>
</g>
<!-- ../../fn/modules/stream.js&#45;&gt;../../fn/modules/noop.js -->
<g id="edge41" class="edge">
<title>../../fn/modules/stream.js&#45;&gt;../../fn/modules/noop.js</title>
<path fill="none" stroke="#757575" d="M731.84,-308.26C762.19,-321.69 814.86,-343.67 862,-356.69 1055.89,-410.27 1109.78,-399.45 1308,-433.69 1322.48,-436.19 1337.94,-438.86 1352.8,-441.43"/>
<polygon fill="#757575" stroke="#757575" points="1352.52,-444.94 1362.97,-443.19 1353.71,-438.04 1352.52,-444.94"/>
</g>
<!-- ../../fn/modules/nothing.js -->
<g id="node22" class="node">
<title>../../fn/modules/nothing.js</title>
<path fill="none" stroke="#c6c5fe" d="M1275.83,-466.19C1275.83,-466.19 1124.17,-466.19 1124.17,-466.19 1120.33,-466.19 1116.5,-462.36 1116.5,-458.52 1116.5,-458.52 1116.5,-450.86 1116.5,-450.86 1116.5,-447.02 1120.33,-443.19 1124.17,-443.19 1124.17,-443.19 1275.83,-443.19 1275.83,-443.19 1279.67,-443.19 1283.5,-447.02 1283.5,-450.86 1283.5,-450.86 1283.5,-458.52 1283.5,-458.52 1283.5,-462.36 1279.67,-466.19 1275.83,-466.19"/>
<text text-anchor="middle" x="1200" y="-450.99" font-family="Arial" font-size="14.00" fill="#c6c5fe">../../fn/modules/nothing.js</text>
</g>
<!-- ../../fn/modules/stream.js&#45;&gt;../../fn/modules/nothing.js -->
<g id="edge42" class="edge">
<title>../../fn/modules/stream.js&#45;&gt;../../fn/modules/nothing.js</title>
<path fill="none" stroke="#757575" d="M757.66,-308.2C780.92,-315.62 807.34,-327.41 826,-345.69 854.72,-373.84 829.26,-405.35 862,-428.69 942.32,-485.95 1062.46,-479.22 1135.49,-467.85"/>
<polygon fill="#757575" stroke="#757575" points="1136.17,-471.29 1145.48,-466.22 1135.04,-464.38 1136.17,-471.29"/>
</g>
<!-- ../../fn/modules/to&#45;array.js -->
<g id="node24" class="node">
<title>../../fn/modules/to&#45;array.js</title>
<path fill="none" stroke="#cfffac" d="M1276.83,-225.19C1276.83,-225.19 1123.17,-225.19 1123.17,-225.19 1119.33,-225.19 1115.5,-221.36 1115.5,-217.52 1115.5,-217.52 1115.5,-209.86 1115.5,-209.86 1115.5,-206.02 1119.33,-202.19 1123.17,-202.19 1123.17,-202.19 1276.83,-202.19 1276.83,-202.19 1280.67,-202.19 1284.5,-206.02 1284.5,-209.86 1284.5,-209.86 1284.5,-217.52 1284.5,-217.52 1284.5,-221.36 1280.67,-225.19 1276.83,-225.19"/>
<text text-anchor="middle" x="1200" y="-209.99" font-family="Arial" font-size="14.00" fill="#cfffac">../../fn/modules/to&#45;array.js</text>
</g>
<!-- ../../fn/modules/stream.js&#45;&gt;../../fn/modules/to&#45;array.js -->
<g id="edge46" class="edge">
<title>../../fn/modules/stream.js&#45;&gt;../../fn/modules/to&#45;array.js</title>
<path fill="none" stroke="#757575" d="M775.64,-308.21C849.27,-317.08 967.2,-321.29 1056,-276.69 1078.27,-265.5 1070.49,-246.28 1092,-233.69 1096.42,-231.1 1101.11,-228.84 1105.96,-226.86"/>
<polygon fill="#757575" stroke="#757575" points="1107.25,-230.11 1115.44,-223.39 1104.85,-223.54 1107.25,-230.11"/>
</g>
<!-- ../../fn/modules/fn.js -->
<g id="node29" class="node">
<title>../../fn/modules/fn.js</title>
<path fill="none" stroke="#c6c5fe" d="M1018.33,-348.19C1018.33,-348.19 899.67,-348.19 899.67,-348.19 895.83,-348.19 892,-344.36 892,-340.52 892,-340.52 892,-332.86 892,-332.86 892,-329.02 895.83,-325.19 899.67,-325.19 899.67,-325.19 1018.33,-325.19 1018.33,-325.19 1022.17,-325.19 1026,-329.02 1026,-332.86 1026,-332.86 1026,-340.52 1026,-340.52 1026,-344.36 1022.17,-348.19 1018.33,-348.19"/>
<text text-anchor="middle" x="959" y="-332.99" font-family="Arial" font-size="14.00" fill="#c6c5fe">../../fn/modules/fn.js</text>
</g>
<!-- ../../fn/modules/stream.js&#45;&gt;../../fn/modules/fn.js -->
<g id="edge39" class="edge">
<title>../../fn/modules/stream.js&#45;&gt;../../fn/modules/fn.js</title>
<path fill="none" stroke="#757575" d="M778.91,-308.21C811.13,-313.33 849.08,-319.37 881.74,-324.56"/>
<polygon fill="#757575" stroke="#757575" points="881.27,-328.03 891.69,-326.14 882.36,-321.12 881.27,-328.03"/>
</g>
<!-- ../../fn/modules/lists/core.js -->
<g id="node32" class="node">
<title>../../fn/modules/lists/core.js</title>
<path fill="none" stroke="#c6c5fe" d="M1039.33,-268.19C1039.33,-268.19 878.67,-268.19 878.67,-268.19 874.83,-268.19 871,-264.36 871,-260.52 871,-260.52 871,-252.86 871,-252.86 871,-249.02 874.83,-245.19 878.67,-245.19 878.67,-245.19 1039.33,-245.19 1039.33,-245.19 1043.17,-245.19 1047,-249.02 1047,-252.86 1047,-252.86 1047,-260.52 1047,-260.52 1047,-264.36 1043.17,-268.19 1039.33,-268.19"/>
<text text-anchor="middle" x="959" y="-252.99" font-family="Arial" font-size="14.00" fill="#c6c5fe">../../fn/modules/lists/core.js</text>
</g>
<!-- ../../fn/modules/stream.js&#45;&gt;../../fn/modules/lists/core.js -->
<g id="edge40" class="edge">
<title>../../fn/modules/stream.js&#45;&gt;../../fn/modules/lists/core.js</title>
<path fill="none" stroke="#757575" d="M778.91,-285.17C809.15,-280.36 844.46,-274.75 875.68,-269.78"/>
<polygon fill="#757575" stroke="#757575" points="876.34,-273.22 885.67,-268.19 875.24,-266.31 876.34,-273.22"/>
</g>
<!-- ../../fn/modules/now.js -->
<g id="node35" class="node">
<title>../../fn/modules/now.js</title>
<path fill="none" stroke="#cfffac" d="M1265.83,-184.19C1265.83,-184.19 1134.17,-184.19 1134.17,-184.19 1130.33,-184.19 1126.5,-180.36 1126.5,-176.52 1126.5,-176.52 1126.5,-168.86 1126.5,-168.86 1126.5,-165.02 1130.33,-161.19 1134.17,-161.19 1134.17,-161.19 1265.83,-161.19 1265.83,-161.19 1269.67,-161.19 1273.5,-165.02 1273.5,-168.86 1273.5,-168.86 1273.5,-176.52 1273.5,-176.52 1273.5,-180.36 1269.67,-184.19 1265.83,-184.19"/>
<text text-anchor="middle" x="1200" y="-168.99" font-family="Arial" font-size="14.00" fill="#cfffac">../../fn/modules/now.js</text>
</g>
<!-- ../../fn/modules/stream.js&#45;&gt;../../fn/modules/now.js -->
<g id="edge43" class="edge">
<title>../../fn/modules/stream.js&#45;&gt;../../fn/modules/now.js</title>
<path fill="none" stroke="#757575" d="M731.58,-285.15C761.9,-271.59 814.75,-249.24 862,-235.69 961.96,-207.02 989.78,-211.8 1092,-192.69 1103.47,-190.55 1115.62,-188.28 1127.47,-186.06"/>
<polygon fill="#757575" stroke="#757575" points="1128.14,-189.5 1137.33,-184.22 1126.85,-182.62 1128.14,-189.5"/>
</g>
<!-- ../../fn/modules/privates.js -->
<g id="node36" class="node">
<title>../../fn/modules/privates.js</title>
<path fill="none" stroke="#cfffac" d="M1036.33,-147.19C1036.33,-147.19 881.67,-147.19 881.67,-147.19 877.83,-147.19 874,-143.36 874,-139.52 874,-139.52 874,-131.86 874,-131.86 874,-128.02 877.83,-124.19 881.67,-124.19 881.67,-124.19 1036.33,-124.19 1036.33,-124.19 1040.17,-124.19 1044,-128.02 1044,-131.86 1044,-131.86 1044,-139.52 1044,-139.52 1044,-143.36 1040.17,-147.19 1036.33,-147.19"/>
<text text-anchor="middle" x="959" y="-131.99" font-family="Arial" font-size="14.00" fill="#cfffac">../../fn/modules/privates.js</text>
</g>
<!-- ../../fn/modules/stream.js&#45;&gt;../../fn/modules/privates.js -->
<g id="edge44" class="edge">
<title>../../fn/modules/stream.js&#45;&gt;../../fn/modules/privates.js</title>
<path fill="none" stroke="#757575" d="M734.06,-285.09C760.33,-272.92 799.69,-251.67 826,-223.69 849.43,-198.78 834.67,-176.24 862,-155.69 863.63,-154.46 865.32,-153.31 867.06,-152.22"/>
<polygon fill="#757575" stroke="#757575" points="869,-155.15 876.13,-147.31 865.67,-148.99 869,-155.15"/>
</g>
<!-- ../../fn/modules/timer.js -->
<g id="node38" class="node">
<title>../../fn/modules/timer.js</title>
<path fill="none" stroke="#c6c5fe" d="M1027.83,-188.19C1027.83,-188.19 890.17,-188.19 890.17,-188.19 886.33,-188.19 882.5,-184.36 882.5,-180.52 882.5,-180.52 882.5,-172.86 882.5,-172.86 882.5,-169.02 886.33,-165.19 890.17,-165.19 890.17,-165.19 1027.83,-165.19 1027.83,-165.19 1031.67,-165.19 1035.5,-169.02 1035.5,-172.86 1035.5,-172.86 1035.5,-180.52 1035.5,-180.52 1035.5,-184.36 1031.67,-188.19 1027.83,-188.19"/>
<text text-anchor="middle" x="959" y="-172.99" font-family="Arial" font-size="14.00" fill="#c6c5fe">../../fn/modules/timer.js</text>
</g>
<!-- ../../fn/modules/stream.js&#45;&gt;../../fn/modules/timer.js -->
<g id="edge45" class="edge">
<title>../../fn/modules/stream.js&#45;&gt;../../fn/modules/timer.js</title>
<path fill="none" stroke="#757575" d="M725.42,-285.06C765.28,-260.59 854.8,-205.77 862,-202.69 872.44,-198.23 883.85,-194.34 895.04,-191.03"/>
<polygon fill="#757575" stroke="#757575" points="896.12,-194.36 904.79,-188.27 894.21,-187.63 896.12,-194.36"/>
</g>
<!-- ../../fn/modules/stream.wait.js&#45;&gt;../../fn/modules/stream.js -->
<g id="edge48" class="edge">
<title>../../fn/modules/stream.wait.js&#45;&gt;../../fn/modules/stream.js</title>
<path fill="none" stroke="#757575" d="M525.76,-325.17C555.95,-320.36 591.18,-314.75 622.35,-309.78"/>
<polygon fill="#757575" stroke="#757575" points="622.99,-313.22 632.31,-308.19 621.89,-306.31 622.99,-313.22"/>
</g>
<!-- ../../fn/modules/choke.js -->
<g id="node26" class="node">
<title>../../fn/modules/choke.js</title>
<path fill="none" stroke="#c6c5fe" d="M777.33,-378.19C777.33,-378.19 633.67,-378.19 633.67,-378.19 629.83,-378.19 626,-374.36 626,-370.52 626,-370.52 626,-362.86 626,-362.86 626,-359.02 629.83,-355.19 633.67,-355.19 633.67,-355.19 777.33,-355.19 777.33,-355.19 781.17,-355.19 785,-359.02 785,-362.86 785,-362.86 785,-370.52 785,-370.52 785,-374.36 781.17,-378.19 777.33,-378.19"/>
<text text-anchor="middle" x="705.5" y="-362.99" font-family="Arial" font-size="14.00" fill="#c6c5fe">../../fn/modules/choke.js</text>
</g>
<!-- ../../fn/modules/stream.wait.js&#45;&gt;../../fn/modules/choke.js -->
<g id="edge47" class="edge">
<title>../../fn/modules/stream.wait.js&#45;&gt;../../fn/modules/choke.js</title>
<path fill="none" stroke="#757575" d="M549.11,-348.12C570.99,-350.73 594.17,-353.5 615.75,-356.08"/>
<polygon fill="#757575" stroke="#757575" points="615.53,-359.58 625.88,-357.29 616.36,-352.63 615.53,-359.58"/>
</g>
<!-- ../../dom/modules/identify.js -->
<g id="node17" class="node">
<title>../../dom/modules/identify.js</title>
<path fill="none" stroke="#cfffac" d="M307.33,-302.19C307.33,-302.19 141.67,-302.19 141.67,-302.19 137.83,-302.19 134,-298.36 134,-294.52 134,-294.52 134,-286.86 134,-286.86 134,-283.02 137.83,-279.19 141.67,-279.19 141.67,-279.19 307.33,-279.19 307.33,-279.19 311.17,-279.19 315,-283.02 315,-286.86 315,-286.86 315,-294.52 315,-294.52 315,-298.36 311.17,-302.19 307.33,-302.19"/>
<text text-anchor="middle" x="224.5" y="-286.99" font-family="Arial" font-size="14.00" fill="#cfffac">../../dom/modules/identify.js</text>
</g>
<!-- ../../dom/modules/rect.js -->
<g id="node19" class="node">
<title>../../dom/modules/rect.js</title>
<path fill="none" stroke="#cfffac" d="M297.33,-261.19C297.33,-261.19 151.67,-261.19 151.67,-261.19 147.83,-261.19 144,-257.36 144,-253.52 144,-253.52 144,-245.86 144,-245.86 144,-242.02 147.83,-238.19 151.67,-238.19 151.67,-238.19 297.33,-238.19 297.33,-238.19 301.17,-238.19 305,-242.02 305,-245.86 305,-245.86 305,-253.52 305,-253.52 305,-257.36 301.17,-261.19 297.33,-261.19"/>
<text text-anchor="middle" x="224.5" y="-245.99" font-family="Arial" font-size="14.00" fill="#cfffac">../../dom/modules/rect.js</text>
</g>
<!-- ../../dom/modules/request.js&#45;&gt;../../fn/modules/id.js -->
<g id="edge21" class="edge">
<title>../../dom/modules/request.js&#45;&gt;../../fn/modules/id.js</title>
<path fill="none" stroke="#757575" d="M1051.04,-659.69C1074.6,-661.76 1099.74,-663.97 1122.48,-665.97"/>
<polygon fill="#757575" stroke="#757575" points="1122.47,-669.48 1132.74,-666.87 1123.08,-662.51 1122.47,-669.48"/>
</g>
<!-- ../../fn/modules/choose.js -->
<g id="node21" class="node">
<title>../../fn/modules/choose.js</title>
<path fill="none" stroke="#c6c5fe" d="M1275.83,-643.19C1275.83,-643.19 1124.17,-643.19 1124.17,-643.19 1120.33,-643.19 1116.5,-639.36 1116.5,-635.52 1116.5,-635.52 1116.5,-627.86 1116.5,-627.86 1116.5,-624.02 1120.33,-620.19 1124.17,-620.19 1124.17,-620.19 1275.83,-620.19 1275.83,-620.19 1279.67,-620.19 1283.5,-624.02 1283.5,-627.86 1283.5,-627.86 1283.5,-635.52 1283.5,-635.52 1283.5,-639.36 1279.67,-643.19 1275.83,-643.19"/>
<text text-anchor="middle" x="1200" y="-627.99" font-family="Arial" font-size="14.00" fill="#c6c5fe">../../fn/modules/choose.js</text>
</g>
<!-- ../../dom/modules/request.js&#45;&gt;../../fn/modules/choose.js -->
<g id="edge20" class="edge">
<title>../../dom/modules/request.js&#45;&gt;../../fn/modules/choose.js</title>
<path fill="none" stroke="#757575" d="M1051.04,-644.07C1069.18,-642.55 1088.25,-640.96 1106.45,-639.44"/>
<polygon fill="#757575" stroke="#757575" points="1106.78,-642.92 1116.45,-638.6 1106.19,-635.94 1106.78,-642.92"/>
</g>
<!-- ../../dom/modules/request.js&#45;&gt;../../fn/modules/nothing.js -->
<g id="edge22" class="edge">
<title>../../dom/modules/request.js&#45;&gt;../../fn/modules/nothing.js</title>
<path fill="none" stroke="#757575" d="M1038.76,-640.03C1044.8,-637.73 1050.62,-634.97 1056,-631.69 1120.37,-592.37 1168.27,-513.24 1188.46,-475.56"/>
<polygon fill="#757575" stroke="#757575" points="1191.66,-476.99 1193.2,-466.51 1185.46,-473.74 1191.66,-476.99"/>
</g>
<!-- ../../fn/modules/lists/rest.js -->
<g id="node27" class="node">
<title>../../fn/modules/lists/rest.js</title>
<path fill="none" stroke="#cfffac" d="M1509.33,-643.19C1509.33,-643.19 1351.67,-643.19 1351.67,-643.19 1347.83,-643.19 1344,-639.36 1344,-635.52 1344,-635.52 1344,-627.86 1344,-627.86 1344,-624.02 1347.83,-620.19 1351.67,-620.19 1351.67,-620.19 1509.33,-620.19 1509.33,-620.19 1513.17,-620.19 1517,-624.02 1517,-627.86 1517,-627.86 1517,-635.52 1517,-635.52 1517,-639.36 1513.17,-643.19 1509.33,-643.19"/>
<text text-anchor="middle" x="1430.5" y="-627.99" font-family="Arial" font-size="14.00" fill="#cfffac">../../fn/modules/lists/rest.js</text>
</g>
<!-- ../../fn/modules/choose.js&#45;&gt;../../fn/modules/lists/rest.js -->
<g id="edge26" class="edge">
<title>../../fn/modules/choose.js&#45;&gt;../../fn/modules/lists/rest.js</title>
<path fill="none" stroke="#757575" d="M1283.82,-631.69C1300,-631.69 1317.09,-631.69 1333.66,-631.69"/>
<polygon fill="#757575" stroke="#757575" points="1333.89,-635.19 1343.89,-631.69 1333.89,-628.19 1333.89,-635.19"/>
</g>
<!-- ../../fn/modules/nothing.js&#45;&gt;../../fn/modules/noop.js -->
<g id="edge38" class="edge">
<title>../../fn/modules/nothing.js&#45;&gt;../../fn/modules/noop.js</title>
<path fill="none" stroke="#757575" d="M1283.82,-454.69C1303.29,-454.69 1324.07,-454.69 1343.67,-454.69"/>
<polygon fill="#757575" stroke="#757575" points="1343.8,-458.19 1353.8,-454.69 1343.8,-451.19 1343.8,-458.19"/>
</g>
<!-- ../../dom/modules/select.js -->
<g id="node23" class="node">
<title>../../dom/modules/select.js</title>
<path fill="none" stroke="#c6c5fe" d="M1038.33,-106.19C1038.33,-106.19 879.67,-106.19 879.67,-106.19 875.83,-106.19 872,-102.36 872,-98.52 872,-98.52 872,-90.86 872,-90.86 872,-87.02 875.83,-83.19 879.67,-83.19 879.67,-83.19 1038.33,-83.19 1038.33,-83.19 1042.17,-83.19 1046,-87.02 1046,-90.86 1046,-90.86 1046,-98.52 1046,-98.52 1046,-102.36 1042.17,-106.19 1038.33,-106.19"/>
<text text-anchor="middle" x="959" y="-90.99" font-family="Arial" font-size="14.00" fill="#c6c5fe">../../dom/modules/select.js</text>
</g>
<!-- ../../dom/modules/select.js&#45;&gt;../../fn/modules/curry.js -->
<g id="edge23" class="edge">
<title>../../dom/modules/select.js&#45;&gt;../../fn/modules/curry.js</title>
<path fill="none" stroke="#757575" d="M1046.31,-88.49C1117.7,-85.75 1221.11,-87.38 1308,-110.69 1343.61,-120.25 1380.69,-141.37 1404.38,-156.52"/>
<polygon fill="#757575" stroke="#757575" points="1402.48,-159.46 1412.77,-162 1406.31,-153.6 1402.48,-159.46"/>
</g>
<!-- ../../dom/modules/select.js&#45;&gt;../../fn/modules/to&#45;array.js -->
<g id="edge24" class="edge">
<title>../../dom/modules/select.js&#45;&gt;../../fn/modules/to&#45;array.js</title>
<path fill="none" stroke="#757575" d="M1042.55,-106.27C1047.33,-108.62 1051.87,-111.41 1056,-114.69 1085.88,-138.46 1061.98,-169.1 1092,-192.69 1096.37,-196.13 1101.15,-199.05 1106.18,-201.54"/>
<polygon fill="#757575" stroke="#757575" points="1104.92,-204.8 1115.48,-205.55 1107.69,-198.37 1104.92,-204.8"/>
</g>
<!-- ../../dom/modules/traversal.js -->
<g id="node25" class="node">
<title>../../dom/modules/traversal.js</title>
<path fill="none" stroke="#cfffac" d="M312.33,-181.19C312.33,-181.19 136.67,-181.19 136.67,-181.19 132.83,-181.19 129,-177.36 129,-173.52 129,-173.52 129,-165.86 129,-165.86 129,-162.02 132.83,-158.19 136.67,-158.19 136.67,-158.19 312.33,-158.19 312.33,-158.19 316.17,-158.19 320,-162.02 320,-165.86 320,-165.86 320,-173.52 320,-173.52 320,-177.36 316.17,-181.19 312.33,-181.19"/>
<text text-anchor="middle" x="224.5" y="-165.99" font-family="Arial" font-size="14.00" fill="#cfffac">../../dom/modules/traversal.js</text>
</g>
<!-- ../../fn/modules/choke.js&#45;&gt;../../fn/modules/noop.js -->
<g id="edge25" class="edge">
<title>../../fn/modules/choke.js&#45;&gt;../../fn/modules/noop.js</title>
<path fill="none" stroke="#757575" d="M724.58,-378.34C765.46,-404.67 861.52,-466.54 862,-466.69 1039.55,-522.65 1264.08,-489.49 1369.58,-468.26"/>
<polygon fill="#757575" stroke="#757575" points="1370.32,-471.68 1379.41,-466.25 1368.91,-464.83 1370.32,-471.68"/>
</g>
<!-- ../../fn/modules/compose.js -->
<g id="node28" class="node">
<title>../../fn/modules/compose.js</title>
<path fill="none" stroke="#cfffac" d="M1281.83,-348.19C1281.83,-348.19 1118.17,-348.19 1118.17,-348.19 1114.33,-348.19 1110.5,-344.36 1110.5,-340.52 1110.5,-340.52 1110.5,-332.86 1110.5,-332.86 1110.5,-329.02 1114.33,-325.19 1118.17,-325.19 1118.17,-325.19 1281.83,-325.19 1281.83,-325.19 1285.67,-325.19 1289.5,-329.02 1289.5,-332.86 1289.5,-332.86 1289.5,-340.52 1289.5,-340.52 1289.5,-344.36 1285.67,-348.19 1281.83,-348.19"/>
<text text-anchor="middle" x="1200" y="-332.99" font-family="Arial" font-size="14.00" fill="#cfffac">../../fn/modules/compose.js</text>
</g>
<!-- ../../fn/modules/fn.js&#45;&gt;../../fn/modules/noop.js -->
<g id="edge30" class="edge">
<title>../../fn/modules/fn.js&#45;&gt;../../fn/modules/noop.js</title>
<path fill="none" stroke="#757575" d="M1026.31,-346.97C1112.06,-360.59 1256.5,-384.76 1308,-400.69 1339.93,-410.57 1374.6,-426.55 1398.71,-438.56"/>
<polygon fill="#757575" stroke="#757575" points="1397.21,-441.73 1407.72,-443.12 1400.37,-435.48 1397.21,-441.73"/>
</g>
<!-- ../../fn/modules/fn.js&#45;&gt;../../fn/modules/nothing.js -->
<g id="edge31" class="edge">
<title>../../fn/modules/fn.js&#45;&gt;../../fn/modules/nothing.js</title>
<path fill="none" stroke="#757575" d="M983.35,-348.22C1026.19,-369.37 1117.41,-414.41 1166.35,-438.57"/>
<polygon fill="#757575" stroke="#757575" points="1165.04,-441.83 1175.55,-443.11 1168.14,-435.55 1165.04,-441.83"/>
</g>
<!-- ../../fn/modules/fn.js&#45;&gt;../../fn/modules/to&#45;array.js -->
<g id="edge33" class="edge">
<title>../../fn/modules/fn.js&#45;&gt;../../fn/modules/to&#45;array.js</title>
<path fill="none" stroke="#757575" d="M1026.23,-326.93C1036.99,-323.14 1047.41,-317.91 1056,-310.69 1084.92,-286.38 1062.14,-256.83 1092,-233.69 1096.34,-230.33 1101.08,-227.47 1106.06,-225.05"/>
<polygon fill="#757575" stroke="#757575" points="1107.43,-228.27 1115.27,-221.14 1104.69,-221.82 1107.43,-228.27"/>
</g>
<!-- ../../fn/modules/fn.js&#45;&gt;../../fn/modules/compose.js -->
<g id="edge28" class="edge">
<title>../../fn/modules/fn.js&#45;&gt;../../fn/modules/compose.js</title>
<path fill="none" stroke="#757575" d="M1026.26,-336.69C1049.08,-336.69 1075.17,-336.69 1100.03,-336.69"/>
<polygon fill="#757575" stroke="#757575" points="1100.23,-340.19 1110.23,-336.69 1100.23,-333.19 1100.23,-340.19"/>
</g>
<!-- ../../fn/modules/latest.js -->
<g id="node30" class="node">
<title>../../fn/modules/latest.js</title>
<path fill="none" stroke="#cfffac" d="M1269.83,-307.19C1269.83,-307.19 1130.17,-307.19 1130.17,-307.19 1126.33,-307.19 1122.5,-303.36 1122.5,-299.52 1122.5,-299.52 1122.5,-291.86 1122.5,-291.86 1122.5,-288.02 1126.33,-284.19 1130.17,-284.19 1130.17,-284.19 1269.83,-284.19 1269.83,-284.19 1273.67,-284.19 1277.5,-288.02 1277.5,-291.86 1277.5,-291.86 1277.5,-299.52 1277.5,-299.52 1277.5,-303.36 1273.67,-307.19 1269.83,-307.19"/>
<text text-anchor="middle" x="1200" y="-291.99" font-family="Arial" font-size="14.00" fill="#cfffac">../../fn/modules/latest.js</text>
</g>
<!-- ../../fn/modules/fn.js&#45;&gt;../../fn/modules/latest.js -->
<g id="edge29" class="edge">
<title>../../fn/modules/fn.js&#45;&gt;../../fn/modules/latest.js</title>
<path fill="none" stroke="#757575" d="M1026.26,-325.32C1055.8,-320.26 1090.79,-314.25 1121.53,-308.98"/>
<polygon fill="#757575" stroke="#757575" points="1122.52,-312.36 1131.78,-307.22 1121.34,-305.46 1122.52,-312.36"/>
</g>
<!-- ../../fn/modules/strings/prepend.js -->
<g id="node31" class="node">
<title>../../fn/modules/strings/prepend.js</title>
<path fill="none" stroke="#c6c5fe" d="M1300.33,-266.19C1300.33,-266.19 1099.67,-266.19 1099.67,-266.19 1095.83,-266.19 1092,-262.36 1092,-258.52 1092,-258.52 1092,-250.86 1092,-250.86 1092,-247.02 1095.83,-243.19 1099.67,-243.19 1099.67,-243.19 1300.33,-243.19 1300.33,-243.19 1304.17,-243.19 1308,-247.02 1308,-250.86 1308,-250.86 1308,-258.52 1308,-258.52 1308,-262.36 1304.17,-266.19 1300.33,-266.19"/>
<text text-anchor="middle" x="1200" y="-250.99" font-family="Arial" font-size="14.00" fill="#c6c5fe">../../fn/modules/strings/prepend.js</text>
</g>
<!-- ../../fn/modules/fn.js&#45;&gt;../../fn/modules/strings/prepend.js -->
<g id="edge32" class="edge">
<title>../../fn/modules/fn.js&#45;&gt;../../fn/modules/strings/prepend.js</title>
<path fill="none" stroke="#757575" d="M1021.57,-325.13C1033.45,-321.5 1045.47,-316.79 1056,-310.69 1075.58,-299.35 1071.98,-285.24 1092,-274.69 1095.47,-272.86 1099.09,-271.19 1102.8,-269.68"/>
<polygon fill="#757575" stroke="#757575" points="1104.02,-272.96 1112.19,-266.21 1101.6,-266.39 1104.02,-272.96"/>
</g>
<!-- ../../fn/modules/strings/prepend.js&#45;&gt;../../fn/modules/curry.js -->
<g id="edge49" class="edge">
<title>../../fn/modules/strings/prepend.js&#45;&gt;../../fn/modules/curry.js</title>
<path fill="none" stroke="#757575" d="M1273.63,-243.14C1285.26,-240.52 1297.06,-237.39 1308,-233.69 1341.25,-222.44 1377.01,-203.93 1401.06,-190.43"/>
<polygon fill="#757575" stroke="#757575" points="1403.03,-193.34 1409.99,-185.35 1399.57,-187.26 1403.03,-193.34"/>
</g>
<!-- ../../fn/modules/lists/core.js&#45;&gt;../../fn/modules/to&#45;array.js -->
<g id="edge34" class="edge">
<title>../../fn/modules/lists/core.js&#45;&gt;../../fn/modules/to&#45;array.js</title>
<path fill="none" stroke="#757575" d="M1024.05,-245.17C1055.12,-239.58 1092.63,-232.83 1124.93,-227.02"/>
<polygon fill="#757575" stroke="#757575" points="1125.55,-230.46 1134.78,-225.25 1124.31,-223.57 1125.55,-230.46"/>
</g>
<!-- ../../fn/modules/maths/mod.js -->
<g id="node33" class="node">
<title>../../fn/modules/maths/mod.js</title>
<path fill="none" stroke="#c6c5fe" d="M1287.83,-25.19C1287.83,-25.19 1112.17,-25.19 1112.17,-25.19 1108.33,-25.19 1104.5,-21.36 1104.5,-17.52 1104.5,-17.52 1104.5,-9.86 1104.5,-9.86 1104.5,-6.02 1108.33,-2.19 1112.17,-2.19 1112.17,-2.19 1287.83,-2.19 1287.83,-2.19 1291.67,-2.19 1295.5,-6.02 1295.5,-9.86 1295.5,-9.86 1295.5,-17.52 1295.5,-17.52 1295.5,-21.36 1291.67,-25.19 1287.83,-25.19"/>
<text text-anchor="middle" x="1200" y="-9.99" font-family="Arial" font-size="14.00" fill="#c6c5fe">../../fn/modules/maths/mod.js</text>
</g>
<!-- ../../fn/modules/maths/mod.js&#45;&gt;../../fn/modules/curry.js -->
<g id="edge35" class="edge">
<title>../../fn/modules/maths/mod.js&#45;&gt;../../fn/modules/curry.js</title>
<path fill="none" stroke="#757575" d="M1274.1,-25.25C1285.91,-28.84 1297.65,-33.54 1308,-39.69 1356.72,-68.65 1397.13,-123.37 1416.73,-153.14"/>
<polygon fill="#757575" stroke="#757575" points="1413.99,-155.35 1422.35,-161.87 1419.88,-151.56 1413.99,-155.35"/>
</g>
<!-- ../../fn/modules/maths/wrap.js -->
<g id="node34" class="node">
<title>../../fn/modules/maths/wrap.js</title>
<path fill="none" stroke="#c6c5fe" d="M1048.33,-65.19C1048.33,-65.19 869.67,-65.19 869.67,-65.19 865.83,-65.19 862,-61.36 862,-57.52 862,-57.52 862,-49.86 862,-49.86 862,-46.02 865.83,-42.19 869.67,-42.19 869.67,-42.19 1048.33,-42.19 1048.33,-42.19 1052.17,-42.19 1056,-46.02 1056,-49.86 1056,-49.86 1056,-57.52 1056,-57.52 1056,-61.36 1052.17,-65.19 1048.33,-65.19"/>
<text text-anchor="middle" x="959" y="-49.99" font-family="Arial" font-size="14.00" fill="#c6c5fe">../../fn/modules/maths/wrap.js</text>
</g>
<!-- ../../fn/modules/maths/wrap.js&#45;&gt;../../fn/modules/curry.js -->
<g id="edge36" class="edge">
<title>../../fn/modules/maths/wrap.js&#45;&gt;../../fn/modules/curry.js</title>
<path fill="none" stroke="#757575" d="M1056.15,-48.13C1127.82,-47.24 1226.9,-53 1308,-83.69 1349.33,-99.33 1388.84,-133.31 1411.05,-154.76"/>
<polygon fill="#757575" stroke="#757575" points="1408.85,-157.5 1418.42,-162.03 1413.76,-152.52 1408.85,-157.5"/>
</g>
<!-- ../../fn/modules/maths/wrap.js&#45;&gt;../../fn/modules/maths/mod.js -->
<g id="edge37" class="edge">
<title>../../fn/modules/maths/wrap.js&#45;&gt;../../fn/modules/maths/mod.js</title>
<path fill="none" stroke="#757575" d="M1028.81,-42.17C1057.43,-37.38 1090.81,-31.8 1120.39,-26.85"/>
<polygon fill="#757575" stroke="#757575" points="1120.98,-30.3 1130.26,-25.19 1119.82,-23.39 1120.98,-30.3"/>
</g>
<!-- ../../fn/modules/request&#45;tick.js -->
<g id="node37" class="node">
<title>../../fn/modules/request&#45;tick.js</title>
<path fill="none" stroke="#cfffac" d="M1288.83,-143.19C1288.83,-143.19 1111.17,-143.19 1111.17,-143.19 1107.33,-143.19 1103.5,-139.36 1103.5,-135.52 1103.5,-135.52 1103.5,-127.86 1103.5,-127.86 1103.5,-124.02 1107.33,-120.19 1111.17,-120.19 1111.17,-120.19 1288.83,-120.19 1288.83,-120.19 1292.67,-120.19 1296.5,-124.02 1296.5,-127.86 1296.5,-127.86 1296.5,-135.52 1296.5,-135.52 1296.5,-139.36 1292.67,-143.19 1288.83,-143.19"/>
<text text-anchor="middle" x="1200" y="-127.99" font-family="Arial" font-size="14.00" fill="#cfffac">../../fn/modules/request&#45;tick.js</text>
</g>
<!-- ../../fn/modules/timer.js&#45;&gt;../../fn/modules/now.js -->
<g id="edge50" class="edge">
<title>../../fn/modules/timer.js&#45;&gt;../../fn/modules/now.js</title>
<path fill="none" stroke="#757575" d="M1035.62,-175.43C1061.22,-175 1089.93,-174.52 1116.06,-174.08"/>
<polygon fill="#757575" stroke="#757575" points="1116.38,-177.57 1126.32,-173.91 1116.26,-170.58 1116.38,-177.57"/>
</g>
<!-- ../../fn/modules/timer.js&#45;&gt;../../fn/modules/request&#45;tick.js -->
<g id="edge51" class="edge">
<title>../../fn/modules/timer.js&#45;&gt;../../fn/modules/request&#45;tick.js</title>
<path fill="none" stroke="#757575" d="M1020.78,-165.15C1043.17,-160.9 1068.73,-156.07 1092,-151.69 1103.46,-149.53 1115.62,-147.25 1127.46,-145.04"/>
<polygon fill="#757575" stroke="#757575" points="1128.14,-148.47 1137.32,-143.19 1126.85,-141.59 1128.14,-148.47"/>
</g>
<!-- slide&#45;show.js -->
<g id="node39" class="node">
<title>slide&#45;show.js</title>
<path fill="none" stroke="#c6c5fe" d="M85.33,-261.19C85.33,-261.19 7.67,-261.19 7.67,-261.19 3.83,-261.19 0,-257.36 0,-253.52 0,-253.52 0,-245.86 0,-245.86 0,-242.02 3.83,-238.19 7.67,-238.19 7.67,-238.19 85.33,-238.19 85.33,-238.19 89.17,-238.19 93,-242.02 93,-245.86 93,-245.86 93,-253.52 93,-253.52 93,-257.36 89.17,-261.19 85.33,-261.19"/>
<text text-anchor="middle" x="46.5" y="-245.99" font-family="Arial" font-size="14.00" fill="#c6c5fe">slide&#45;show.js</text>
</g>
<!-- slide&#45;show.js&#45;&gt;../../dom/modules/create.js -->
<g id="edge52" class="edge">
<title>slide&#45;show.js&#45;&gt;../../dom/modules/create.js</title>
<path fill="none" stroke="#757575" d="M50.08,-261.62C57.62,-294.47 82.14,-387.94 129,-450.69 206.21,-554.08 239.78,-575.64 356,-631.69 435.84,-670.2 535.03,-690.64 607.15,-701.18"/>
<polygon fill="#757575" stroke="#757575" points="606.75,-704.66 617.14,-702.61 607.73,-697.73 606.75,-704.66"/>
</g>
<!-- slide&#45;show.js&#45;&gt;../../dom/modules/element.js -->
<g id="edge53" class="edge">
<title>slide&#45;show.js&#45;&gt;../../dom/modules/element.js</title>
<path fill="none" stroke="#757575" d="M54.96,-261.38C68.38,-281.9 98.05,-325.23 129,-356.69 228.4,-457.72 367.98,-555.06 425.33,-593.48"/>
<polygon fill="#757575" stroke="#757575" points="423.55,-596.5 433.81,-599.13 427.43,-590.67 423.55,-596.5"/>
</g>
<!-- slide&#45;show.js&#45;&gt;../../dom/modules/events.js -->
<g id="edge54" class="edge">
<title>slide&#45;show.js&#45;&gt;../../dom/modules/events.js</title>
<path fill="none" stroke="#757575" d="M59.78,-261.24C74.93,-274.91 102.02,-297.47 129,-310.69 138.05,-315.13 147.98,-318.9 157.89,-322.08"/>
<polygon fill="#757575" stroke="#757575" points="157.17,-325.52 167.76,-325.07 159.2,-318.82 157.17,-325.52"/>
</g>
<!-- slide&#45;show.js&#45;&gt;../../dom/modules/identify.js -->
<g id="edge55" class="edge">
<title>slide&#45;show.js&#45;&gt;../../dom/modules/identify.js</title>
<path fill="none" stroke="#757575" d="M93.15,-261.08C104.82,-263.94 117.37,-266.97 129,-269.69 139.17,-272.07 149.97,-274.53 160.5,-276.89"/>
<polygon fill="#757575" stroke="#757575" points="159.95,-280.36 170.47,-279.12 161.48,-273.53 159.95,-280.36"/>
</g>
<!-- slide&#45;show.js&#45;&gt;../../dom/modules/rect.js -->
<g id="edge56" class="edge">
<title>slide&#45;show.js&#45;&gt;../../dom/modules/rect.js</title>
<path fill="none" stroke="#757575" d="M93.28,-249.69C105.74,-249.69 119.68,-249.69 133.68,-249.69"/>
<polygon fill="#757575" stroke="#757575" points="133.86,-253.19 143.86,-249.69 133.86,-246.19 133.86,-253.19"/>
</g>
<!-- slide&#45;show.js&#45;&gt;../../dom/modules/select.js -->
<g id="edge57" class="edge">
<title>slide&#45;show.js&#45;&gt;../../dom/modules/select.js</title>
<path fill="none" stroke="#757575" d="M52.86,-237.99C63.68,-215.95 90.4,-168.71 129,-148.69 254.09,-83.81 671.22,-86.52 861.67,-91.43"/>
<polygon fill="#757575" stroke="#757575" points="861.86,-94.94 871.95,-91.7 862.05,-87.94 861.86,-94.94"/>
</g>
<!-- slide&#45;show.js&#45;&gt;../../dom/modules/traversal.js -->
<g id="edge58" class="edge">
<title>slide&#45;show.js&#45;&gt;../../dom/modules/traversal.js</title>
<path fill="none" stroke="#757575" d="M61.98,-238.02C77.66,-225.9 103.82,-207.14 129,-195.69 138.84,-191.21 149.62,-187.36 160.27,-184.09"/>
<polygon fill="#757575" stroke="#757575" points="161.36,-187.42 169.97,-181.25 159.39,-180.7 161.36,-187.42"/>
</g>
<!-- slide&#45;show.js&#45;&gt;../../fn/modules/maths/wrap.js -->
<g id="edge59" class="edge">
<title>slide&#45;show.js&#45;&gt;../../fn/modules/maths/wrap.js</title>
<path fill="none" stroke="#757575" d="M50,-237.91C56.83,-208.99 78.73,-134.58 129,-102.69 378.68,55.68 760.33,-8.24 902.28,-39.94"/>
<polygon fill="#757575" stroke="#757575" points="901.56,-43.36 912.08,-42.16 903.11,-36.53 901.56,-43.36"/>
</g>
<!-- slide&#45;show.js&#45;&gt;../../fn/modules/privates.js -->
<g id="edge60" class="edge">
<title>slide&#45;show.js&#45;&gt;../../fn/modules/privates.js</title>
<path fill="none" stroke="#757575" d="M87.88,-238.09C100.92,-234.67 115.49,-231.18 129,-228.69 392.85,-180.15 708.93,-153.16 863.49,-141.95"/>
<polygon fill="#757575" stroke="#757575" points="864.16,-145.41 873.88,-141.2 863.66,-138.43 864.16,-145.41"/>
</g>
</g>
</svg>
