<?xml version="1.0" encoding="UTF-8" standalone="no"?>
<!DOCTYPE svg PUBLIC "-//W3C//DTD SVG 1.1//EN"
 "http://www.w3.org/Graphics/SVG/1.1/DTD/svg11.dtd">
<!-- Generated by graphviz version 2.44.1 (20200629.0846)
 -->
<!-- Title: G Pages: 1 -->
<svg width="1756pt" height="954pt"
 viewBox="0.00 0.00 1756.20 954.24" xmlns="http://www.w3.org/2000/svg" xmlns:xlink="http://www.w3.org/1999/xlink">
<g id="graph0" class="graph" transform="scale(1 1) rotate(0) translate(21.6 932.64)">
<title>G</title>
<polygon fill="#111111" stroke="transparent" points="-21.6,21.6 -21.6,-932.64 1734.6,-932.64 1734.6,21.6 -21.6,21.6"/>
<!-- ../../dom/modules/assign.js -->
<g id="node1" class="node">
<title>../../dom/modules/assign.js</title>
<path fill="none" stroke="#c6c5fe" d="M1041.33,-874.73C1041.33,-874.73 878.67,-874.73 878.67,-874.73 874.83,-874.73 871,-870.9 871,-867.06 871,-867.06 871,-859.4 871,-859.4 871,-855.56 874.83,-851.73 878.67,-851.73 878.67,-851.73 1041.33,-851.73 1041.33,-851.73 1045.17,-851.73 1049,-855.56 1049,-859.4 1049,-859.4 1049,-867.06 1049,-867.06 1049,-870.9 1045.17,-874.73 1041.33,-874.73"/>
<text text-anchor="middle" x="960" y="-859.53" font-family="Arial" font-size="14.00" fill="#c6c5fe">../../dom/modules/assign.js</text>
</g>
<!-- ../../fn/modules/curry.js -->
<g id="node2" class="node">
<title>../../fn/modules/curry.js</title>
<path fill="none" stroke="#c6c5fe" d="M1499.83,-554.73C1499.83,-554.73 1363.17,-554.73 1363.17,-554.73 1359.33,-554.73 1355.5,-550.9 1355.5,-547.06 1355.5,-547.06 1355.5,-539.4 1355.5,-539.4 1355.5,-535.56 1359.33,-531.73 1363.17,-531.73 1363.17,-531.73 1499.83,-531.73 1499.83,-531.73 1503.67,-531.73 1507.5,-535.56 1507.5,-539.4 1507.5,-539.4 1507.5,-547.06 1507.5,-547.06 1507.5,-550.9 1503.67,-554.73 1499.83,-554.73"/>
<text text-anchor="middle" x="1431.5" y="-539.53" font-family="Arial" font-size="14.00" fill="#c6c5fe">../../fn/modules/curry.js</text>
</g>
<!-- ../../dom/modules/assign.js&#45;&gt;../../fn/modules/curry.js -->
<g id="edge1" class="edge">
<title>../../dom/modules/assign.js&#45;&gt;../../fn/modules/curry.js</title>
<path fill="none" stroke="#757575" d="M990.28,-874.88C1055.8,-898.8 1215.74,-945.09 1309,-868.23 1373.64,-814.96 1314.69,-761.32 1345,-683.23 1362.88,-637.16 1395.81,-589.21 1415.17,-563.11"/>
<polygon fill="#757575" stroke="#757575" points="1418.19,-564.92 1421.4,-554.83 1412.59,-560.71 1418.19,-564.92"/>
</g>
<!-- ../../fn/modules/id.js -->
<g id="node3" class="node">
<title>../../fn/modules/id.js</title>
<path fill="none" stroke="#cfffac" d="M1260.33,-825.73C1260.33,-825.73 1141.67,-825.73 1141.67,-825.73 1137.83,-825.73 1134,-821.9 1134,-818.06 1134,-818.06 1134,-810.4 1134,-810.4 1134,-806.56 1137.83,-802.73 1141.67,-802.73 1141.67,-802.73 1260.33,-802.73 1260.33,-802.73 1264.17,-802.73 1268,-806.56 1268,-810.4 1268,-810.4 1268,-818.06 1268,-818.06 1268,-821.9 1264.17,-825.73 1260.33,-825.73"/>
<text text-anchor="middle" x="1201" y="-810.53" font-family="Arial" font-size="14.00" fill="#cfffac">../../fn/modules/id.js</text>
</g>
<!-- ../../dom/modules/assign.js&#45;&gt;../../fn/modules/id.js -->
<g id="edge2" class="edge">
<title>../../dom/modules/assign.js&#45;&gt;../../fn/modules/id.js</title>
<path fill="none" stroke="#757575" d="M1017.34,-851.68C1052.15,-844.54 1097.01,-835.35 1133.55,-827.85"/>
<polygon fill="#757575" stroke="#757575" points="1134.53,-831.23 1143.63,-825.79 1133.13,-824.37 1134.53,-831.23"/>
</g>
<!-- ../../fn/modules/noop.js -->
<g id="node4" class="node">
<title>../../fn/modules/noop.js</title>
<path fill="none" stroke="#cfffac" d="M1500.33,-293.73C1500.33,-293.73 1362.67,-293.73 1362.67,-293.73 1358.83,-293.73 1355,-289.9 1355,-286.06 1355,-286.06 1355,-278.4 1355,-278.4 1355,-274.56 1358.83,-270.73 1362.67,-270.73 1362.67,-270.73 1500.33,-270.73 1500.33,-270.73 1504.17,-270.73 1508,-274.56 1508,-278.4 1508,-278.4 1508,-286.06 1508,-286.06 1508,-289.9 1504.17,-293.73 1500.33,-293.73"/>
<text text-anchor="middle" x="1431.5" y="-278.53" font-family="Arial" font-size="14.00" fill="#cfffac">../../fn/modules/noop.js</text>
</g>
<!-- ../../dom/modules/assign.js&#45;&gt;../../fn/modules/noop.js -->
<g id="edge3" class="edge">
<title>../../dom/modules/assign.js&#45;&gt;../../fn/modules/noop.js</title>
<path fill="none" stroke="#757575" d="M1049.17,-861.86C1146.11,-859.47 1290.67,-852.95 1309,-835.23 1359.35,-786.58 1329.15,-590.43 1345,-522.23 1364.39,-438.82 1403.35,-344.32 1421.19,-303.2"/>
<polygon fill="#757575" stroke="#757575" points="1424.44,-304.49 1425.25,-293.93 1418.03,-301.69 1424.44,-304.49"/>
</g>
<!-- ../../fn/modules/overload.js -->
<g id="node5" class="node">
<title>../../fn/modules/overload.js</title>
<path fill="none" stroke="#cfffac" d="M1280.83,-765.73C1280.83,-765.73 1121.17,-765.73 1121.17,-765.73 1117.33,-765.73 1113.5,-761.9 1113.5,-758.06 1113.5,-758.06 1113.5,-750.4 1113.5,-750.4 1113.5,-746.56 1117.33,-742.73 1121.17,-742.73 1121.17,-742.73 1280.83,-742.73 1280.83,-742.73 1284.67,-742.73 1288.5,-746.56 1288.5,-750.4 1288.5,-750.4 1288.5,-758.06 1288.5,-758.06 1288.5,-761.9 1284.67,-765.73 1280.83,-765.73"/>
<text text-anchor="middle" x="1201" y="-750.53" font-family="Arial" font-size="14.00" fill="#cfffac">../../fn/modules/overload.js</text>
</g>
<!-- ../../dom/modules/assign.js&#45;&gt;../../fn/modules/overload.js -->
<g id="edge4" class="edge">
<title>../../dom/modules/assign.js&#45;&gt;../../fn/modules/overload.js</title>
<path fill="none" stroke="#757575" d="M981.19,-851.67C1006.76,-837.27 1052.38,-812.36 1093,-794.23 1113.45,-785.11 1136.68,-776.25 1156.26,-769.2"/>
<polygon fill="#757575" stroke="#757575" points="1157.59,-772.44 1165.83,-765.79 1155.24,-765.84 1157.59,-772.44"/>
</g>
<!-- ../../fn/modules/cache.js -->
<g id="node16" class="node">
<title>../../fn/modules/cache.js</title>
<path fill="none" stroke="#cfffac" d="M1705.33,-554.73C1705.33,-554.73 1561.67,-554.73 1561.67,-554.73 1557.83,-554.73 1554,-550.9 1554,-547.06 1554,-547.06 1554,-539.4 1554,-539.4 1554,-535.56 1557.83,-531.73 1561.67,-531.73 1561.67,-531.73 1705.33,-531.73 1705.33,-531.73 1709.17,-531.73 1713,-535.56 1713,-539.4 1713,-539.4 1713,-547.06 1713,-547.06 1713,-550.9 1709.17,-554.73 1705.33,-554.73"/>
<text text-anchor="middle" x="1633.5" y="-539.53" font-family="Arial" font-size="14.00" fill="#cfffac">../../fn/modules/cache.js</text>
</g>
<!-- ../../fn/modules/curry.js&#45;&gt;../../fn/modules/cache.js -->
<g id="edge27" class="edge">
<title>../../fn/modules/curry.js&#45;&gt;../../fn/modules/cache.js</title>
<path fill="none" stroke="#757575" d="M1507.54,-543.23C1519.32,-543.23 1531.59,-543.23 1543.64,-543.23"/>
<polygon fill="#757575" stroke="#757575" points="1543.7,-546.73 1553.7,-543.23 1543.7,-539.73 1543.7,-546.73"/>
</g>
<!-- ../../dom/modules/create.js -->
<g id="node6" class="node">
<title>../../dom/modules/create.js</title>
<path fill="none" stroke="#c6c5fe" d="M786.83,-775.73C786.83,-775.73 626.17,-775.73 626.17,-775.73 622.33,-775.73 618.5,-771.9 618.5,-768.06 618.5,-768.06 618.5,-760.4 618.5,-760.4 618.5,-756.56 622.33,-752.73 626.17,-752.73 626.17,-752.73 786.83,-752.73 786.83,-752.73 790.67,-752.73 794.5,-756.56 794.5,-760.4 794.5,-760.4 794.5,-768.06 794.5,-768.06 794.5,-771.9 790.67,-775.73 786.83,-775.73"/>
<text text-anchor="middle" x="706.5" y="-760.53" font-family="Arial" font-size="14.00" fill="#c6c5fe">../../dom/modules/create.js</text>
</g>
<!-- ../../dom/modules/create.js&#45;&gt;../../dom/modules/assign.js -->
<g id="edge5" class="edge">
<title>../../dom/modules/create.js&#45;&gt;../../dom/modules/assign.js</title>
<path fill="none" stroke="#757575" d="M729.13,-775.87C758.7,-791.43 813.72,-819.15 863,-837.23 874.77,-841.55 887.58,-845.51 899.9,-848.97"/>
<polygon fill="#757575" stroke="#757575" points="899.08,-852.37 909.65,-851.63 900.92,-845.62 899.08,-852.37"/>
</g>
<!-- ../../dom/modules/create.js&#45;&gt;../../fn/modules/id.js -->
<g id="edge6" class="edge">
<title>../../dom/modules/create.js&#45;&gt;../../fn/modules/id.js</title>
<path fill="none" stroke="#757575" d="M743.18,-775.82C774.4,-785.39 821.19,-798.31 863,-804.23 951.75,-816.8 1054.91,-817.91 1123.49,-816.77"/>
<polygon fill="#757575" stroke="#757575" points="1123.83,-820.27 1133.77,-816.58 1123.7,-813.27 1123.83,-820.27"/>
</g>
<!-- ../../dom/modules/create.js&#45;&gt;../../fn/modules/overload.js -->
<g id="edge7" class="edge">
<title>../../dom/modules/create.js&#45;&gt;../../fn/modules/overload.js</title>
<path fill="none" stroke="#757575" d="M794.7,-762.46C881.16,-760.71 1013.34,-758.02 1103.05,-756.2"/>
<polygon fill="#757575" stroke="#757575" points="1103.3,-759.7 1113.23,-755.99 1103.16,-752.7 1103.3,-759.7"/>
</g>
<!-- ../../fn/modules/to&#45;type.js -->
<g id="node7" class="node">
<title>../../fn/modules/to&#45;type.js</title>
<path fill="none" stroke="#cfffac" d="M1034.33,-794.73C1034.33,-794.73 885.67,-794.73 885.67,-794.73 881.83,-794.73 878,-790.9 878,-787.06 878,-787.06 878,-779.4 878,-779.4 878,-775.56 881.83,-771.73 885.67,-771.73 885.67,-771.73 1034.33,-771.73 1034.33,-771.73 1038.17,-771.73 1042,-775.56 1042,-779.4 1042,-779.4 1042,-787.06 1042,-787.06 1042,-790.9 1038.17,-794.73 1034.33,-794.73"/>
<text text-anchor="middle" x="960" y="-779.53" font-family="Arial" font-size="14.00" fill="#cfffac">../../fn/modules/to&#45;type.js</text>
</g>
<!-- ../../dom/modules/create.js&#45;&gt;../../fn/modules/to&#45;type.js -->
<g id="edge8" class="edge">
<title>../../dom/modules/create.js&#45;&gt;../../fn/modules/to&#45;type.js</title>
<path fill="none" stroke="#757575" d="M794.76,-770.82C818.34,-772.61 843.93,-774.54 867.73,-776.34"/>
<polygon fill="#757575" stroke="#757575" points="867.57,-779.83 877.81,-777.1 868.1,-772.85 867.57,-779.83"/>
</g>
<!-- ../../dom/modules/element.js -->
<g id="node8" class="node">
<title>../../dom/modules/element.js</title>
<path fill="none" stroke="#c6c5fe" d="M539.33,-695.73C539.33,-695.73 366.67,-695.73 366.67,-695.73 362.83,-695.73 359,-691.9 359,-688.06 359,-688.06 359,-680.4 359,-680.4 359,-676.56 362.83,-672.73 366.67,-672.73 366.67,-672.73 539.33,-672.73 539.33,-672.73 543.17,-672.73 547,-676.56 547,-680.4 547,-680.4 547,-688.06 547,-688.06 547,-691.9 543.17,-695.73 539.33,-695.73"/>
<text text-anchor="middle" x="453" y="-680.53" font-family="Arial" font-size="14.00" fill="#c6c5fe">../../dom/modules/element.js</text>
</g>
<!-- ../../dom/modules/element.js&#45;&gt;../../dom/modules/create.js -->
<g id="edge9" class="edge">
<title>../../dom/modules/element.js&#45;&gt;../../dom/modules/create.js</title>
<path fill="none" stroke="#757575" d="M490.3,-695.78C534.97,-709.99 610.86,-734.13 659.55,-749.62"/>
<polygon fill="#757575" stroke="#757575" points="658.62,-752.99 669.21,-752.69 660.74,-746.32 658.62,-752.99"/>
</g>
<!-- ../../dom/modules/request&#45;template.js -->
<g id="node9" class="node">
<title>../../dom/modules/request&#45;template.js</title>
<path fill="none" stroke="#c6c5fe" d="M819.33,-695.73C819.33,-695.73 593.67,-695.73 593.67,-695.73 589.83,-695.73 586,-691.9 586,-688.06 586,-688.06 586,-680.4 586,-680.4 586,-676.56 589.83,-672.73 593.67,-672.73 593.67,-672.73 819.33,-672.73 819.33,-672.73 823.17,-672.73 827,-676.56 827,-680.4 827,-680.4 827,-688.06 827,-688.06 827,-691.9 823.17,-695.73 819.33,-695.73"/>
<text text-anchor="middle" x="706.5" y="-680.53" font-family="Arial" font-size="14.00" fill="#c6c5fe">../../dom/modules/request&#45;template.js</text>
</g>
<!-- ../../dom/modules/element.js&#45;&gt;../../dom/modules/request&#45;template.js -->
<g id="edge10" class="edge">
<title>../../dom/modules/element.js&#45;&gt;../../dom/modules/request&#45;template.js</title>
<path fill="none" stroke="#757575" d="M547.29,-684.23C556.63,-684.23 566.22,-684.23 575.85,-684.23"/>
<polygon fill="#757575" stroke="#757575" points="575.88,-687.73 585.88,-684.23 575.88,-680.73 575.88,-687.73"/>
</g>
<!-- ../../dom/modules/request&#45;template.js&#45;&gt;../../fn/modules/cache.js -->
<g id="edge19" class="edge">
<title>../../dom/modules/request&#45;template.js&#45;&gt;../../fn/modules/cache.js</title>
<path fill="none" stroke="#757575" d="M743.23,-672.65C774.48,-662.98 821.29,-649.63 863,-642.23 1058.92,-607.49 1111.84,-630.07 1309,-603.23 1399.93,-590.85 1504.14,-570.38 1569.14,-556.85"/>
<polygon fill="#757575" stroke="#757575" points="1570.16,-560.21 1579.23,-554.74 1568.73,-553.36 1570.16,-560.21"/>
</g>
<!-- ../../dom/modules/parse.js -->
<g id="node18" class="node">
<title>../../dom/modules/parse.js</title>
<path fill="none" stroke="#cfffac" d="M1038.83,-673.73C1038.83,-673.73 881.17,-673.73 881.17,-673.73 877.33,-673.73 873.5,-669.9 873.5,-666.06 873.5,-666.06 873.5,-658.4 873.5,-658.4 873.5,-654.56 877.33,-650.73 881.17,-650.73 881.17,-650.73 1038.83,-650.73 1038.83,-650.73 1042.67,-650.73 1046.5,-654.56 1046.5,-658.4 1046.5,-658.4 1046.5,-666.06 1046.5,-666.06 1046.5,-669.9 1042.67,-673.73 1038.83,-673.73"/>
<text text-anchor="middle" x="960" y="-658.53" font-family="Arial" font-size="14.00" fill="#cfffac">../../dom/modules/parse.js</text>
</g>
<!-- ../../dom/modules/request&#45;template.js&#45;&gt;../../dom/modules/parse.js -->
<g id="edge17" class="edge">
<title>../../dom/modules/request&#45;template.js&#45;&gt;../../dom/modules/parse.js</title>
<path fill="none" stroke="#757575" d="M827.36,-673.75C839.39,-672.69 851.5,-671.63 863.24,-670.61"/>
<polygon fill="#757575" stroke="#757575" points="863.79,-674.07 873.45,-669.72 863.18,-667.1 863.79,-674.07"/>
</g>
<!-- ../../dom/modules/request.js -->
<g id="node20" class="node">
<title>../../dom/modules/request.js</title>
<path fill="none" stroke="#c6c5fe" d="M1044.33,-714.73C1044.33,-714.73 875.67,-714.73 875.67,-714.73 871.83,-714.73 868,-710.9 868,-707.06 868,-707.06 868,-699.4 868,-699.4 868,-695.56 871.83,-691.73 875.67,-691.73 875.67,-691.73 1044.33,-691.73 1044.33,-691.73 1048.17,-691.73 1052,-695.56 1052,-699.4 1052,-699.4 1052,-707.06 1052,-707.06 1052,-710.9 1048.17,-714.73 1044.33,-714.73"/>
<text text-anchor="middle" x="960" y="-699.53" font-family="Arial" font-size="14.00" fill="#c6c5fe">../../dom/modules/request.js</text>
</g>
<!-- ../../dom/modules/request&#45;template.js&#45;&gt;../../dom/modules/request.js -->
<g id="edge18" class="edge">
<title>../../dom/modules/request&#45;template.js&#45;&gt;../../dom/modules/request.js</title>
<path fill="none" stroke="#757575" d="M827.36,-693.29C837.61,-694.06 847.91,-694.84 857.98,-695.6"/>
<polygon fill="#757575" stroke="#757575" points="857.75,-699.09 867.98,-696.36 858.27,-692.11 857.75,-699.09"/>
</g>
<!-- ../../dom/modules/event.js -->
<g id="node10" class="node">
<title>../../dom/modules/event.js</title>
<path fill="none" stroke="#cfffac" d="M531.33,-277.73C531.33,-277.73 374.67,-277.73 374.67,-277.73 370.83,-277.73 367,-273.9 367,-270.06 367,-270.06 367,-262.4 367,-262.4 367,-258.56 370.83,-254.73 374.67,-254.73 374.67,-254.73 531.33,-254.73 531.33,-254.73 535.17,-254.73 539,-258.56 539,-262.4 539,-262.4 539,-270.06 539,-270.06 539,-273.9 535.17,-277.73 531.33,-277.73"/>
<text text-anchor="middle" x="453" y="-262.53" font-family="Arial" font-size="14.00" fill="#cfffac">../../dom/modules/event.js</text>
</g>
<!-- ../../dom/modules/events.js -->
<g id="node11" class="node">
<title>../../dom/modules/events.js</title>
<path fill="none" stroke="#c6c5fe" d="M306.33,-237.73C306.33,-237.73 142.67,-237.73 142.67,-237.73 138.83,-237.73 135,-233.9 135,-230.06 135,-230.06 135,-222.4 135,-222.4 135,-218.56 138.83,-214.73 142.67,-214.73 142.67,-214.73 306.33,-214.73 306.33,-214.73 310.17,-214.73 314,-218.56 314,-222.4 314,-222.4 314,-230.06 314,-230.06 314,-233.9 310.17,-237.73 306.33,-237.73"/>
<text text-anchor="middle" x="224.5" y="-222.53" font-family="Arial" font-size="14.00" fill="#c6c5fe">../../dom/modules/events.js</text>
</g>
<!-- ../../dom/modules/events.js&#45;&gt;../../dom/modules/event.js -->
<g id="edge11" class="edge">
<title>../../dom/modules/events.js&#45;&gt;../../dom/modules/event.js</title>
<path fill="none" stroke="#757575" d="M290.71,-237.75C317.6,-242.5 348.92,-248.03 376.77,-252.95"/>
<polygon fill="#757575" stroke="#757575" points="376.4,-256.43 386.86,-254.73 377.62,-249.54 376.4,-256.43"/>
</g>
<!-- ../../dom/modules/features.js -->
<g id="node12" class="node">
<title>../../dom/modules/features.js</title>
<path fill="none" stroke="#c6c5fe" d="M539.33,-68.73C539.33,-68.73 366.67,-68.73 366.67,-68.73 362.83,-68.73 359,-64.9 359,-61.06 359,-61.06 359,-53.4 359,-53.4 359,-49.56 362.83,-45.73 366.67,-45.73 366.67,-45.73 539.33,-45.73 539.33,-45.73 543.17,-45.73 547,-49.56 547,-53.4 547,-53.4 547,-61.06 547,-61.06 547,-64.9 543.17,-68.73 539.33,-68.73"/>
<text text-anchor="middle" x="453" y="-53.53" font-family="Arial" font-size="14.00" fill="#c6c5fe">../../dom/modules/features.js</text>
</g>
<!-- ../../dom/modules/events.js&#45;&gt;../../dom/modules/features.js -->
<g id="edge12" class="edge">
<title>../../dom/modules/events.js&#45;&gt;../../dom/modules/features.js</title>
<path fill="none" stroke="#757575" d="M241.07,-214.62C279.94,-185.61 381.47,-109.85 428.04,-75.11"/>
<polygon fill="#757575" stroke="#757575" points="430.4,-77.71 436.32,-68.93 426.21,-72.1 430.4,-77.71"/>
</g>
<!-- ../../fn/modules/stream.js -->
<g id="node13" class="node">
<title>../../fn/modules/stream.js</title>
<path fill="none" stroke="#c6c5fe" d="M781.33,-237.73C781.33,-237.73 631.67,-237.73 631.67,-237.73 627.83,-237.73 624,-233.9 624,-230.06 624,-230.06 624,-222.4 624,-222.4 624,-218.56 627.83,-214.73 631.67,-214.73 631.67,-214.73 781.33,-214.73 781.33,-214.73 785.17,-214.73 789,-218.56 789,-222.4 789,-222.4 789,-230.06 789,-230.06 789,-233.9 785.17,-237.73 781.33,-237.73"/>
<text text-anchor="middle" x="706.5" y="-222.53" font-family="Arial" font-size="14.00" fill="#c6c5fe">../../fn/modules/stream.js</text>
</g>
<!-- ../../dom/modules/events.js&#45;&gt;../../fn/modules/stream.js -->
<g id="edge13" class="edge">
<title>../../dom/modules/events.js&#45;&gt;../../fn/modules/stream.js</title>
<path fill="none" stroke="#757575" d="M314.1,-226.23C399.3,-226.23 527.54,-226.23 613.78,-226.23"/>
<polygon fill="#757575" stroke="#757575" points="613.82,-229.73 623.82,-226.23 613.82,-222.73 613.82,-229.73"/>
</g>
<!-- ../../fn/modules/stream.wait.js -->
<g id="node14" class="node">
<title>../../fn/modules/stream.wait.js</title>
<path fill="none" stroke="#c6c5fe" d="M541.83,-197.73C541.83,-197.73 364.17,-197.73 364.17,-197.73 360.33,-197.73 356.5,-193.9 356.5,-190.06 356.5,-190.06 356.5,-182.4 356.5,-182.4 356.5,-178.56 360.33,-174.73 364.17,-174.73 364.17,-174.73 541.83,-174.73 541.83,-174.73 545.67,-174.73 549.5,-178.56 549.5,-182.4 549.5,-182.4 549.5,-190.06 549.5,-190.06 549.5,-193.9 545.67,-197.73 541.83,-197.73"/>
<text text-anchor="middle" x="453" y="-182.53" font-family="Arial" font-size="14.00" fill="#c6c5fe">../../fn/modules/stream.wait.js</text>
</g>
<!-- ../../dom/modules/events.js&#45;&gt;../../fn/modules/stream.wait.js -->
<g id="edge14" class="edge">
<title>../../dom/modules/events.js&#45;&gt;../../fn/modules/stream.wait.js</title>
<path fill="none" stroke="#757575" d="M290.71,-214.72C317.6,-209.97 348.92,-204.44 376.77,-199.52"/>
<polygon fill="#757575" stroke="#757575" points="377.62,-202.92 386.86,-197.74 376.4,-196.03 377.62,-202.92"/>
</g>
<!-- ../../dom/modules/prefix.js -->
<g id="node15" class="node">
<title>../../dom/modules/prefix.js</title>
<path fill="none" stroke="#cfffac" d="M784.83,-68.73C784.83,-68.73 628.17,-68.73 628.17,-68.73 624.33,-68.73 620.5,-64.9 620.5,-61.06 620.5,-61.06 620.5,-53.4 620.5,-53.4 620.5,-49.56 624.33,-45.73 628.17,-45.73 628.17,-45.73 784.83,-45.73 784.83,-45.73 788.67,-45.73 792.5,-49.56 792.5,-53.4 792.5,-53.4 792.5,-61.06 792.5,-61.06 792.5,-64.9 788.67,-68.73 784.83,-68.73"/>
<text text-anchor="middle" x="706.5" y="-53.53" font-family="Arial" font-size="14.00" fill="#cfffac">../../dom/modules/prefix.js</text>
</g>
<!-- ../../dom/modules/features.js&#45;&gt;../../dom/modules/prefix.js -->
<g id="edge15" class="edge">
<title>../../dom/modules/features.js&#45;&gt;../../dom/modules/prefix.js</title>
<path fill="none" stroke="#757575" d="M547.29,-57.23C567.84,-57.23 589.62,-57.23 610.24,-57.23"/>
<polygon fill="#757575" stroke="#757575" points="610.26,-60.73 620.26,-57.23 610.26,-53.73 610.26,-60.73"/>
</g>
<!-- ../../dom/modules/features.js&#45;&gt;../../fn/modules/cache.js -->
<g id="edge16" class="edge">
<title>../../dom/modules/features.js&#45;&gt;../../fn/modules/cache.js</title>
<path fill="none" stroke="#757575" d="M518.33,-45.7C614.05,-29.57 799.81,-2.23 959,-2.23 959,-2.23 959,-2.23 1202,-2.23 1472.44,-2.23 1600.3,-421.27 1627.08,-521.76"/>
<polygon fill="#757575" stroke="#757575" points="1623.76,-522.89 1629.67,-531.68 1630.53,-521.12 1623.76,-522.89"/>
</g>
<!-- ../../fn/modules/stream.js&#45;&gt;../../fn/modules/noop.js -->
<g id="edge42" class="edge">
<title>../../fn/modules/stream.js&#45;&gt;../../fn/modules/noop.js</title>
<path fill="none" stroke="#757575" d="M734.4,-214.69C771.82,-198.81 837.81,-171.48 863,-165.23 1055.72,-117.42 1128.79,-55.87 1309,-139.23 1363.66,-164.52 1402.74,-227.86 1420.23,-261.11"/>
<polygon fill="#757575" stroke="#757575" points="1417.3,-263.06 1424.96,-270.38 1423.54,-259.88 1417.3,-263.06"/>
</g>
<!-- ../../fn/modules/nothing.js -->
<g id="node22" class="node">
<title>../../fn/modules/nothing.js</title>
<path fill="none" stroke="#c6c5fe" d="M1276.83,-333.73C1276.83,-333.73 1125.17,-333.73 1125.17,-333.73 1121.33,-333.73 1117.5,-329.9 1117.5,-326.06 1117.5,-326.06 1117.5,-318.4 1117.5,-318.4 1117.5,-314.56 1121.33,-310.73 1125.17,-310.73 1125.17,-310.73 1276.83,-310.73 1276.83,-310.73 1280.67,-310.73 1284.5,-314.56 1284.5,-318.4 1284.5,-318.4 1284.5,-326.06 1284.5,-326.06 1284.5,-329.9 1280.67,-333.73 1276.83,-333.73"/>
<text text-anchor="middle" x="1201" y="-318.53" font-family="Arial" font-size="14.00" fill="#c6c5fe">../../fn/modules/nothing.js</text>
</g>
<!-- ../../fn/modules/stream.js&#45;&gt;../../fn/modules/nothing.js -->
<g id="edge43" class="edge">
<title>../../fn/modules/stream.js&#45;&gt;../../fn/modules/nothing.js</title>
<path fill="none" stroke="#757575" d="M766.91,-237.81C858.46,-255.66 1033.59,-289.79 1130.75,-308.73"/>
<polygon fill="#757575" stroke="#757575" points="1130.28,-312.21 1140.77,-310.69 1131.62,-305.34 1130.28,-312.21"/>
</g>
<!-- ../../fn/modules/to&#45;array.js -->
<g id="node24" class="node">
<title>../../fn/modules/to&#45;array.js</title>
<path fill="none" stroke="#cfffac" d="M1277.83,-456.73C1277.83,-456.73 1124.17,-456.73 1124.17,-456.73 1120.33,-456.73 1116.5,-452.9 1116.5,-449.06 1116.5,-449.06 1116.5,-441.4 1116.5,-441.4 1116.5,-437.56 1120.33,-433.73 1124.17,-433.73 1124.17,-433.73 1277.83,-433.73 1277.83,-433.73 1281.67,-433.73 1285.5,-437.56 1285.5,-441.4 1285.5,-441.4 1285.5,-449.06 1285.5,-449.06 1285.5,-452.9 1281.67,-456.73 1277.83,-456.73"/>
<text text-anchor="middle" x="1201" y="-441.53" font-family="Arial" font-size="14.00" fill="#cfffac">../../fn/modules/to&#45;array.js</text>
</g>
<!-- ../../fn/modules/stream.js&#45;&gt;../../fn/modules/to&#45;array.js -->
<g id="edge47" class="edge">
<title>../../fn/modules/stream.js&#45;&gt;../../fn/modules/to&#45;array.js</title>
<path fill="none" stroke="#757575" d="M719.21,-237.88C743.65,-261.49 802.85,-315.04 863,-342.23 943.3,-378.54 980.93,-338.74 1057,-383.23 1077.93,-395.47 1071.98,-412.14 1093,-424.23 1097.4,-426.76 1102.05,-428.99 1106.85,-430.96"/>
<polygon fill="#757575" stroke="#757575" points="1105.66,-434.25 1116.25,-434.42 1108.08,-427.68 1105.66,-434.25"/>
</g>
<!-- ../../fn/modules/fn.js -->
<g id="node29" class="node">
<title>../../fn/modules/fn.js</title>
<path fill="none" stroke="#c6c5fe" d="M1019.33,-333.73C1019.33,-333.73 900.67,-333.73 900.67,-333.73 896.83,-333.73 893,-329.9 893,-326.06 893,-326.06 893,-318.4 893,-318.4 893,-314.56 896.83,-310.73 900.67,-310.73 900.67,-310.73 1019.33,-310.73 1019.33,-310.73 1023.17,-310.73 1027,-314.56 1027,-318.4 1027,-318.4 1027,-326.06 1027,-326.06 1027,-329.9 1023.17,-333.73 1019.33,-333.73"/>
<text text-anchor="middle" x="960" y="-318.53" font-family="Arial" font-size="14.00" fill="#c6c5fe">../../fn/modules/fn.js</text>
</g>
<!-- ../../fn/modules/stream.js&#45;&gt;../../fn/modules/fn.js -->
<g id="edge40" class="edge">
<title>../../fn/modules/stream.js&#45;&gt;../../fn/modules/fn.js</title>
<path fill="none" stroke="#757575" d="M730.78,-237.82C760.82,-252.49 814.93,-277.91 863,-295.23 875.72,-299.82 889.61,-304.12 902.78,-307.88"/>
<polygon fill="#757575" stroke="#757575" points="902.1,-311.32 912.67,-310.65 903.99,-304.58 902.1,-311.32"/>
</g>
<!-- ../../fn/modules/lists/core.js -->
<g id="node32" class="node">
<title>../../fn/modules/lists/core.js</title>
<path fill="none" stroke="#c6c5fe" d="M1040.33,-415.73C1040.33,-415.73 879.67,-415.73 879.67,-415.73 875.83,-415.73 872,-411.9 872,-408.06 872,-408.06 872,-400.4 872,-400.4 872,-396.56 875.83,-392.73 879.67,-392.73 879.67,-392.73 1040.33,-392.73 1040.33,-392.73 1044.17,-392.73 1048,-396.56 1048,-400.4 1048,-400.4 1048,-408.06 1048,-408.06 1048,-411.9 1044.17,-415.73 1040.33,-415.73"/>
<text text-anchor="middle" x="960" y="-400.53" font-family="Arial" font-size="14.00" fill="#c6c5fe">../../fn/modules/lists/core.js</text>
</g>
<!-- ../../fn/modules/stream.js&#45;&gt;../../fn/modules/lists/core.js -->
<g id="edge41" class="edge">
<title>../../fn/modules/stream.js&#45;&gt;../../fn/modules/lists/core.js</title>
<path fill="none" stroke="#757575" d="M716.22,-238.07C737.81,-266.5 796.8,-339.11 863,-377.23 871.55,-382.16 881.06,-386.23 890.66,-389.58"/>
<polygon fill="#757575" stroke="#757575" points="889.68,-392.94 900.27,-392.7 891.84,-386.28 889.68,-392.94"/>
</g>
<!-- ../../fn/modules/now.js -->
<g id="node35" class="node">
<title>../../fn/modules/now.js</title>
<path fill="none" stroke="#cfffac" d="M1266.83,-212.73C1266.83,-212.73 1135.17,-212.73 1135.17,-212.73 1131.33,-212.73 1127.5,-208.9 1127.5,-205.06 1127.5,-205.06 1127.5,-197.4 1127.5,-197.4 1127.5,-193.56 1131.33,-189.73 1135.17,-189.73 1135.17,-189.73 1266.83,-189.73 1266.83,-189.73 1270.67,-189.73 1274.5,-193.56 1274.5,-197.4 1274.5,-197.4 1274.5,-205.06 1274.5,-205.06 1274.5,-208.9 1270.67,-212.73 1266.83,-212.73"/>
<text text-anchor="middle" x="1201" y="-197.53" font-family="Arial" font-size="14.00" fill="#cfffac">../../fn/modules/now.js</text>
</g>
<!-- ../../fn/modules/stream.js&#45;&gt;../../fn/modules/now.js -->
<g id="edge44" class="edge">
<title>../../fn/modules/stream.js&#45;&gt;../../fn/modules/now.js</title>
<path fill="none" stroke="#757575" d="M789.1,-222.09C880.01,-217.47 1026.16,-210.06 1117.44,-205.42"/>
<polygon fill="#757575" stroke="#757575" points="1117.66,-208.92 1127.47,-204.91 1117.31,-201.92 1117.66,-208.92"/>
</g>
<!-- ../../fn/modules/privates.js -->
<g id="node37" class="node">
<title>../../fn/modules/privates.js</title>
<path fill="none" stroke="#cfffac" d="M1037.33,-53.73C1037.33,-53.73 882.67,-53.73 882.67,-53.73 878.83,-53.73 875,-49.9 875,-46.06 875,-46.06 875,-38.4 875,-38.4 875,-34.56 878.83,-30.73 882.67,-30.73 882.67,-30.73 1037.33,-30.73 1037.33,-30.73 1041.17,-30.73 1045,-34.56 1045,-38.4 1045,-38.4 1045,-46.06 1045,-46.06 1045,-49.9 1041.17,-53.73 1037.33,-53.73"/>
<text text-anchor="middle" x="960" y="-38.53" font-family="Arial" font-size="14.00" fill="#cfffac">../../fn/modules/privates.js</text>
</g>
<!-- ../../fn/modules/stream.js&#45;&gt;../../fn/modules/privates.js -->
<g id="edge45" class="edge">
<title>../../fn/modules/stream.js&#45;&gt;../../fn/modules/privates.js</title>
<path fill="none" stroke="#757575" d="M755.18,-214.69C779,-206.98 806.93,-194.78 827,-176.23 852.69,-152.49 839.7,-132.33 863,-106.23 880.7,-86.41 905.84,-69.94 925.95,-58.68"/>
<polygon fill="#757575" stroke="#757575" points="927.68,-61.72 934.8,-53.87 924.34,-55.57 927.68,-61.72"/>
</g>
<!-- ../../fn/modules/timer.js -->
<g id="node39" class="node">
<title>../../fn/modules/timer.js</title>
<path fill="none" stroke="#c6c5fe" d="M1028.83,-197.73C1028.83,-197.73 891.17,-197.73 891.17,-197.73 887.33,-197.73 883.5,-193.9 883.5,-190.06 883.5,-190.06 883.5,-182.4 883.5,-182.4 883.5,-178.56 887.33,-174.73 891.17,-174.73 891.17,-174.73 1028.83,-174.73 1028.83,-174.73 1032.67,-174.73 1036.5,-178.56 1036.5,-182.4 1036.5,-182.4 1036.5,-190.06 1036.5,-190.06 1036.5,-193.9 1032.67,-197.73 1028.83,-197.73"/>
<text text-anchor="middle" x="960" y="-182.53" font-family="Arial" font-size="14.00" fill="#c6c5fe">../../fn/modules/timer.js</text>
</g>
<!-- ../../fn/modules/stream.js&#45;&gt;../../fn/modules/timer.js -->
<g id="edge46" class="edge">
<title>../../fn/modules/stream.js&#45;&gt;../../fn/modules/timer.js</title>
<path fill="none" stroke="#757575" d="M779.91,-214.72C810.15,-209.9 845.46,-204.29 876.68,-199.32"/>
<polygon fill="#757575" stroke="#757575" points="877.34,-202.76 886.67,-197.74 876.24,-195.85 877.34,-202.76"/>
</g>
<!-- ../../fn/modules/stream.wait.js&#45;&gt;../../fn/modules/stream.js -->
<g id="edge49" class="edge">
<title>../../fn/modules/stream.wait.js&#45;&gt;../../fn/modules/stream.js</title>
<path fill="none" stroke="#757575" d="M526.41,-197.75C556.65,-202.56 591.96,-208.17 623.18,-213.14"/>
<polygon fill="#757575" stroke="#757575" points="622.74,-216.61 633.17,-214.73 623.84,-209.7 622.74,-216.61"/>
</g>
<!-- ../../fn/modules/choke.js -->
<g id="node26" class="node">
<title>../../fn/modules/choke.js</title>
<path fill="none" stroke="#c6c5fe" d="M778.33,-167.73C778.33,-167.73 634.67,-167.73 634.67,-167.73 630.83,-167.73 627,-163.9 627,-160.06 627,-160.06 627,-152.4 627,-152.4 627,-148.56 630.83,-144.73 634.67,-144.73 634.67,-144.73 778.33,-144.73 778.33,-144.73 782.17,-144.73 786,-148.56 786,-152.4 786,-152.4 786,-160.06 786,-160.06 786,-163.9 782.17,-167.73 778.33,-167.73"/>
<text text-anchor="middle" x="706.5" y="-152.53" font-family="Arial" font-size="14.00" fill="#c6c5fe">../../fn/modules/choke.js</text>
</g>
<!-- ../../fn/modules/stream.wait.js&#45;&gt;../../fn/modules/choke.js -->
<g id="edge48" class="edge">
<title>../../fn/modules/stream.wait.js&#45;&gt;../../fn/modules/choke.js</title>
<path fill="none" stroke="#757575" d="M549.8,-174.8C571.73,-172.19 594.95,-169.42 616.58,-166.84"/>
<polygon fill="#757575" stroke="#757575" points="617.21,-170.29 626.72,-165.63 616.38,-163.34 617.21,-170.29"/>
</g>
<!-- ../../dom/modules/identify.js -->
<g id="node17" class="node">
<title>../../dom/modules/identify.js</title>
<path fill="none" stroke="#cfffac" d="M307.33,-615.73C307.33,-615.73 141.67,-615.73 141.67,-615.73 137.83,-615.73 134,-611.9 134,-608.06 134,-608.06 134,-600.4 134,-600.4 134,-596.56 137.83,-592.73 141.67,-592.73 141.67,-592.73 307.33,-592.73 307.33,-592.73 311.17,-592.73 315,-596.56 315,-600.4 315,-600.4 315,-608.06 315,-608.06 315,-611.9 311.17,-615.73 307.33,-615.73"/>
<text text-anchor="middle" x="224.5" y="-600.53" font-family="Arial" font-size="14.00" fill="#cfffac">../../dom/modules/identify.js</text>
</g>
<!-- ../../dom/modules/rect.js -->
<g id="node19" class="node">
<title>../../dom/modules/rect.js</title>
<path fill="none" stroke="#cfffac" d="M297.33,-574.73C297.33,-574.73 151.67,-574.73 151.67,-574.73 147.83,-574.73 144,-570.9 144,-567.06 144,-567.06 144,-559.4 144,-559.4 144,-555.56 147.83,-551.73 151.67,-551.73 151.67,-551.73 297.33,-551.73 297.33,-551.73 301.17,-551.73 305,-555.56 305,-559.4 305,-559.4 305,-567.06 305,-567.06 305,-570.9 301.17,-574.73 297.33,-574.73"/>
<text text-anchor="middle" x="224.5" y="-559.53" font-family="Arial" font-size="14.00" fill="#cfffac">../../dom/modules/rect.js</text>
</g>
<!-- ../../dom/modules/request.js&#45;&gt;../../fn/modules/id.js -->
<g id="edge21" class="edge">
<title>../../dom/modules/request.js&#45;&gt;../../fn/modules/id.js</title>
<path fill="none" stroke="#757575" d="M980.21,-714.9C1005.5,-729.99 1051.61,-756.53 1093,-775.23 1112.88,-784.22 1135.51,-792.7 1154.81,-799.45"/>
<polygon fill="#757575" stroke="#757575" points="1153.69,-802.77 1164.29,-802.71 1155.97,-796.15 1153.69,-802.77"/>
</g>
<!-- ../../fn/modules/choose.js -->
<g id="node21" class="node">
<title>../../fn/modules/choose.js</title>
<path fill="none" stroke="#c6c5fe" d="M1276.83,-714.73C1276.83,-714.73 1125.17,-714.73 1125.17,-714.73 1121.33,-714.73 1117.5,-710.9 1117.5,-707.06 1117.5,-707.06 1117.5,-699.4 1117.5,-699.4 1117.5,-695.56 1121.33,-691.73 1125.17,-691.73 1125.17,-691.73 1276.83,-691.73 1276.83,-691.73 1280.67,-691.73 1284.5,-695.56 1284.5,-699.4 1284.5,-699.4 1284.5,-707.06 1284.5,-707.06 1284.5,-710.9 1280.67,-714.73 1276.83,-714.73"/>
<text text-anchor="middle" x="1201" y="-699.53" font-family="Arial" font-size="14.00" fill="#c6c5fe">../../fn/modules/choose.js</text>
</g>
<!-- ../../dom/modules/request.js&#45;&gt;../../fn/modules/choose.js -->
<g id="edge20" class="edge">
<title>../../dom/modules/request.js&#45;&gt;../../fn/modules/choose.js</title>
<path fill="none" stroke="#757575" d="M1052.04,-703.23C1070.18,-703.23 1089.25,-703.23 1107.45,-703.23"/>
<polygon fill="#757575" stroke="#757575" points="1107.45,-706.73 1117.45,-703.23 1107.45,-699.73 1107.45,-706.73"/>
</g>
<!-- ../../dom/modules/request.js&#45;&gt;../../fn/modules/nothing.js -->
<g id="edge22" class="edge">
<title>../../dom/modules/request.js&#45;&gt;../../fn/modules/nothing.js</title>
<path fill="none" stroke="#757575" d="M1047.46,-691.48C1050.93,-689.12 1054.14,-686.39 1057,-683.23 1159.23,-570.21 989.61,-454.2 1093,-342.23 1097.42,-337.45 1102.58,-333.59 1108.22,-330.49"/>
<polygon fill="#757575" stroke="#757575" points="1109.81,-333.61 1117.41,-326.23 1106.87,-327.26 1109.81,-333.61"/>
</g>
<!-- ../../fn/modules/lists/rest.js -->
<g id="node27" class="node">
<title>../../fn/modules/lists/rest.js</title>
<path fill="none" stroke="#cfffac" d="M1510.33,-714.73C1510.33,-714.73 1352.67,-714.73 1352.67,-714.73 1348.83,-714.73 1345,-710.9 1345,-707.06 1345,-707.06 1345,-699.4 1345,-699.4 1345,-695.56 1348.83,-691.73 1352.67,-691.73 1352.67,-691.73 1510.33,-691.73 1510.33,-691.73 1514.17,-691.73 1518,-695.56 1518,-699.4 1518,-699.4 1518,-707.06 1518,-707.06 1518,-710.9 1514.17,-714.73 1510.33,-714.73"/>
<text text-anchor="middle" x="1431.5" y="-699.53" font-family="Arial" font-size="14.00" fill="#cfffac">../../fn/modules/lists/rest.js</text>
</g>
<!-- ../../fn/modules/choose.js&#45;&gt;../../fn/modules/lists/rest.js -->
<g id="edge26" class="edge">
<title>../../fn/modules/choose.js&#45;&gt;../../fn/modules/lists/rest.js</title>
<path fill="none" stroke="#757575" d="M1284.82,-703.23C1301,-703.23 1318.09,-703.23 1334.66,-703.23"/>
<polygon fill="#757575" stroke="#757575" points="1334.89,-706.73 1344.89,-703.23 1334.89,-699.73 1334.89,-706.73"/>
</g>
<!-- ../../fn/modules/nothing.js&#45;&gt;../../fn/modules/noop.js -->
<g id="edge38" class="edge">
<title>../../fn/modules/nothing.js&#45;&gt;../../fn/modules/noop.js</title>
<path fill="none" stroke="#757575" d="M1267.79,-310.72C1294.91,-305.97 1326.51,-300.44 1354.61,-295.52"/>
<polygon fill="#757575" stroke="#757575" points="1355.54,-298.91 1364.78,-293.74 1354.33,-292.01 1355.54,-298.91"/>
</g>
<!-- ../../dom/modules/select.js -->
<g id="node23" class="node">
<title>../../dom/modules/select.js</title>
<path fill="none" stroke="#c6c5fe" d="M1039.33,-456.73C1039.33,-456.73 880.67,-456.73 880.67,-456.73 876.83,-456.73 873,-452.9 873,-449.06 873,-449.06 873,-441.4 873,-441.4 873,-437.56 876.83,-433.73 880.67,-433.73 880.67,-433.73 1039.33,-433.73 1039.33,-433.73 1043.17,-433.73 1047,-437.56 1047,-441.4 1047,-441.4 1047,-449.06 1047,-449.06 1047,-452.9 1043.17,-456.73 1039.33,-456.73"/>
<text text-anchor="middle" x="960" y="-441.53" font-family="Arial" font-size="14.00" fill="#c6c5fe">../../dom/modules/select.js</text>
</g>
<!-- ../../dom/modules/select.js&#45;&gt;../../fn/modules/curry.js -->
<g id="edge23" class="edge">
<title>../../dom/modules/select.js&#45;&gt;../../fn/modules/curry.js</title>
<path fill="none" stroke="#757575" d="M1034.38,-456.73C1105.09,-468.28 1214.89,-487.46 1309,-509.23 1333.52,-514.9 1360.51,-522.33 1382.8,-528.8"/>
<polygon fill="#757575" stroke="#757575" points="1382.11,-532.25 1392.69,-531.7 1384.08,-525.53 1382.11,-532.25"/>
</g>
<!-- ../../dom/modules/select.js&#45;&gt;../../fn/modules/to&#45;array.js -->
<g id="edge24" class="edge">
<title>../../dom/modules/select.js&#45;&gt;../../fn/modules/to&#45;array.js</title>
<path fill="none" stroke="#757575" d="M1047.28,-445.23C1066.41,-445.23 1086.78,-445.23 1106.19,-445.23"/>
<polygon fill="#757575" stroke="#757575" points="1106.24,-448.73 1116.24,-445.23 1106.24,-441.73 1106.24,-448.73"/>
</g>
<!-- ../../dom/modules/traversal.js -->
<g id="node25" class="node">
<title>../../dom/modules/traversal.js</title>
<path fill="none" stroke="#cfffac" d="M312.33,-494.73C312.33,-494.73 136.67,-494.73 136.67,-494.73 132.83,-494.73 129,-490.9 129,-487.06 129,-487.06 129,-479.4 129,-479.4 129,-475.56 132.83,-471.73 136.67,-471.73 136.67,-471.73 312.33,-471.73 312.33,-471.73 316.17,-471.73 320,-475.56 320,-479.4 320,-479.4 320,-487.06 320,-487.06 320,-490.9 316.17,-494.73 312.33,-494.73"/>
<text text-anchor="middle" x="224.5" y="-479.53" font-family="Arial" font-size="14.00" fill="#cfffac">../../dom/modules/traversal.js</text>
</g>
<!-- ../../fn/modules/choke.js&#45;&gt;../../fn/modules/noop.js -->
<g id="edge25" class="edge">
<title>../../fn/modules/choke.js&#45;&gt;../../fn/modules/noop.js</title>
<path fill="none" stroke="#757575" d="M737.06,-144.7C767.95,-133.23 818.07,-116.21 863,-108.23 960.62,-90.89 1221.8,-49.04 1309,-96.23 1374.7,-131.79 1410.54,-220.02 1424.09,-260.86"/>
<polygon fill="#757575" stroke="#757575" points="1420.82,-262.14 1427.19,-270.6 1427.49,-260.01 1420.82,-262.14"/>
</g>
<!-- ../../fn/modules/compose.js -->
<g id="node28" class="node">
<title>../../fn/modules/compose.js</title>
<path fill="none" stroke="#cfffac" d="M1282.83,-253.73C1282.83,-253.73 1119.17,-253.73 1119.17,-253.73 1115.33,-253.73 1111.5,-249.9 1111.5,-246.06 1111.5,-246.06 1111.5,-238.4 1111.5,-238.4 1111.5,-234.56 1115.33,-230.73 1119.17,-230.73 1119.17,-230.73 1282.83,-230.73 1282.83,-230.73 1286.67,-230.73 1290.5,-234.56 1290.5,-238.4 1290.5,-238.4 1290.5,-246.06 1290.5,-246.06 1290.5,-249.9 1286.67,-253.73 1282.83,-253.73"/>
<text text-anchor="middle" x="1201" y="-238.53" font-family="Arial" font-size="14.00" fill="#cfffac">../../fn/modules/compose.js</text>
</g>
<!-- ../../fn/modules/fn.js&#45;&gt;../../fn/modules/noop.js -->
<g id="edge30" class="edge">
<title>../../fn/modules/fn.js&#45;&gt;../../fn/modules/noop.js</title>
<path fill="none" stroke="#757575" d="M1024.94,-310.72C1046.5,-307.2 1070.74,-303.62 1093,-301.23 1178.33,-292.07 1276.31,-287.17 1344.64,-284.66"/>
<polygon fill="#757575" stroke="#757575" points="1345.05,-288.15 1354.92,-284.29 1344.8,-281.15 1345.05,-288.15"/>
</g>
<!-- ../../fn/modules/fn.js&#45;&gt;../../fn/modules/nothing.js -->
<g id="edge31" class="edge">
<title>../../fn/modules/fn.js&#45;&gt;../../fn/modules/nothing.js</title>
<path fill="none" stroke="#757575" d="M1027.26,-322.23C1052,-322.23 1080.57,-322.23 1107.27,-322.23"/>
<polygon fill="#757575" stroke="#757575" points="1107.4,-325.73 1117.4,-322.23 1107.4,-318.73 1107.4,-325.73"/>
</g>
<!-- ../../fn/modules/fn.js&#45;&gt;../../fn/modules/to&#45;array.js -->
<g id="edge33" class="edge">
<title>../../fn/modules/fn.js&#45;&gt;../../fn/modules/to&#45;array.js</title>
<path fill="none" stroke="#757575" d="M1027.19,-332.8C1037.95,-336.69 1048.38,-341.99 1057,-349.23 1085.31,-373.01 1063.76,-401.6 1093,-424.23 1097.35,-427.6 1102.09,-430.47 1107.08,-432.92"/>
<polygon fill="#757575" stroke="#757575" points="1105.73,-436.15 1116.3,-436.88 1108.49,-429.72 1105.73,-436.15"/>
</g>
<!-- ../../fn/modules/fn.js&#45;&gt;../../fn/modules/compose.js -->
<g id="edge28" class="edge">
<title>../../fn/modules/fn.js&#45;&gt;../../fn/modules/compose.js</title>
<path fill="none" stroke="#757575" d="M986.37,-310.52C1012.65,-298.71 1055.08,-280.52 1093,-268.23 1106.74,-263.78 1121.69,-259.69 1135.94,-256.14"/>
<polygon fill="#757575" stroke="#757575" points="1136.79,-259.53 1145.67,-253.77 1135.13,-252.73 1136.79,-259.53"/>
</g>
<!-- ../../fn/modules/latest.js -->
<g id="node30" class="node">
<title>../../fn/modules/latest.js</title>
<path fill="none" stroke="#cfffac" d="M1270.83,-415.73C1270.83,-415.73 1131.17,-415.73 1131.17,-415.73 1127.33,-415.73 1123.5,-411.9 1123.5,-408.06 1123.5,-408.06 1123.5,-400.4 1123.5,-400.4 1123.5,-396.56 1127.33,-392.73 1131.17,-392.73 1131.17,-392.73 1270.83,-392.73 1270.83,-392.73 1274.67,-392.73 1278.5,-396.56 1278.5,-400.4 1278.5,-400.4 1278.5,-408.06 1278.5,-408.06 1278.5,-411.9 1274.67,-415.73 1270.83,-415.73"/>
<text text-anchor="middle" x="1201" y="-400.53" font-family="Arial" font-size="14.00" fill="#cfffac">../../fn/modules/latest.js</text>
</g>
<!-- ../../fn/modules/fn.js&#45;&gt;../../fn/modules/latest.js -->
<g id="edge29" class="edge">
<title>../../fn/modules/fn.js&#45;&gt;../../fn/modules/latest.js</title>
<path fill="none" stroke="#757575" d="M1019.16,-333.73C1032.09,-337.6 1045.4,-342.66 1057,-349.23 1076.15,-360.08 1073.43,-373.16 1093,-383.23 1099.48,-386.57 1106.43,-389.37 1113.57,-391.74"/>
<polygon fill="#757575" stroke="#757575" points="1112.8,-395.16 1123.38,-394.69 1114.81,-388.46 1112.8,-395.16"/>
</g>
<!-- ../../fn/modules/strings/prepend.js -->
<g id="node31" class="node">
<title>../../fn/modules/strings/prepend.js</title>
<path fill="none" stroke="#c6c5fe" d="M1301.33,-374.73C1301.33,-374.73 1100.67,-374.73 1100.67,-374.73 1096.83,-374.73 1093,-370.9 1093,-367.06 1093,-367.06 1093,-359.4 1093,-359.4 1093,-355.56 1096.83,-351.73 1100.67,-351.73 1100.67,-351.73 1301.33,-351.73 1301.33,-351.73 1305.17,-351.73 1309,-355.56 1309,-359.4 1309,-359.4 1309,-367.06 1309,-367.06 1309,-370.9 1305.17,-374.73 1301.33,-374.73"/>
<text text-anchor="middle" x="1201" y="-359.53" font-family="Arial" font-size="14.00" fill="#c6c5fe">../../fn/modules/strings/prepend.js</text>
</g>
<!-- ../../fn/modules/fn.js&#45;&gt;../../fn/modules/strings/prepend.js -->
<g id="edge32" class="edge">
<title>../../fn/modules/fn.js&#45;&gt;../../fn/modules/strings/prepend.js</title>
<path fill="none" stroke="#757575" d="M1027.26,-333.6C1056.8,-338.67 1091.79,-344.67 1122.53,-349.94"/>
<polygon fill="#757575" stroke="#757575" points="1122.34,-353.46 1132.78,-351.7 1123.52,-346.56 1122.34,-353.46"/>
</g>
<!-- ../../fn/modules/strings/prepend.js&#45;&gt;../../fn/modules/curry.js -->
<g id="edge50" class="edge">
<title>../../fn/modules/strings/prepend.js&#45;&gt;../../fn/modules/curry.js</title>
<path fill="none" stroke="#757575" d="M1291.77,-374.76C1297.8,-377.11 1303.61,-379.91 1309,-383.23 1364.65,-417.58 1403.96,-487.44 1421.01,-522.37"/>
<polygon fill="#757575" stroke="#757575" points="1417.95,-524.09 1425.4,-531.62 1424.28,-521.09 1417.95,-524.09"/>
</g>
<!-- ../../fn/modules/lists/core.js&#45;&gt;../../fn/modules/to&#45;array.js -->
<g id="edge34" class="edge">
<title>../../fn/modules/lists/core.js&#45;&gt;../../fn/modules/to&#45;array.js</title>
<path fill="none" stroke="#757575" d="M1028.21,-415.76C1057.61,-420.8 1092.27,-426.75 1122.73,-431.98"/>
<polygon fill="#757575" stroke="#757575" points="1122.43,-435.48 1132.88,-433.72 1123.62,-428.58 1122.43,-435.48"/>
</g>
<!-- ../../fn/modules/maths/mod.js -->
<g id="node33" class="node">
<title>../../fn/modules/maths/mod.js</title>
<path fill="none" stroke="#c6c5fe" d="M1288.83,-574.73C1288.83,-574.73 1113.17,-574.73 1113.17,-574.73 1109.33,-574.73 1105.5,-570.9 1105.5,-567.06 1105.5,-567.06 1105.5,-559.4 1105.5,-559.4 1105.5,-555.56 1109.33,-551.73 1113.17,-551.73 1113.17,-551.73 1288.83,-551.73 1288.83,-551.73 1292.67,-551.73 1296.5,-555.56 1296.5,-559.4 1296.5,-559.4 1296.5,-567.06 1296.5,-567.06 1296.5,-570.9 1292.67,-574.73 1288.83,-574.73"/>
<text text-anchor="middle" x="1201" y="-559.53" font-family="Arial" font-size="14.00" fill="#c6c5fe">../../fn/modules/maths/mod.js</text>
</g>
<!-- ../../fn/modules/maths/mod.js&#45;&gt;../../fn/modules/curry.js -->
<g id="edge35" class="edge">
<title>../../fn/modules/maths/mod.js&#45;&gt;../../fn/modules/curry.js</title>
<path fill="none" stroke="#757575" d="M1296.59,-554.95C1312.6,-553.55 1329.15,-552.1 1344.91,-550.72"/>
<polygon fill="#757575" stroke="#757575" points="1345.49,-554.19 1355.15,-549.83 1344.88,-547.21 1345.49,-554.19"/>
</g>
<!-- ../../fn/modules/maths/wrap.js -->
<g id="node34" class="node">
<title>../../fn/modules/maths/wrap.js</title>
<path fill="none" stroke="#c6c5fe" d="M1049.33,-593.73C1049.33,-593.73 870.67,-593.73 870.67,-593.73 866.83,-593.73 863,-589.9 863,-586.06 863,-586.06 863,-578.4 863,-578.4 863,-574.56 866.83,-570.73 870.67,-570.73 870.67,-570.73 1049.33,-570.73 1049.33,-570.73 1053.17,-570.73 1057,-574.56 1057,-578.4 1057,-578.4 1057,-586.06 1057,-586.06 1057,-589.9 1053.17,-593.73 1049.33,-593.73"/>
<text text-anchor="middle" x="960" y="-578.53" font-family="Arial" font-size="14.00" fill="#c6c5fe">../../fn/modules/maths/wrap.js</text>
</g>
<!-- ../../fn/modules/maths/wrap.js&#45;&gt;../../fn/modules/curry.js -->
<g id="edge36" class="edge">
<title>../../fn/modules/maths/wrap.js&#45;&gt;../../fn/modules/curry.js</title>
<path fill="none" stroke="#757575" d="M1057.29,-590.8C1127.52,-595.04 1224.74,-596.74 1309,-583.23 1338.49,-578.5 1370.52,-567.7 1394.29,-558.52"/>
<polygon fill="#757575" stroke="#757575" points="1395.6,-561.76 1403.61,-554.83 1393.03,-555.25 1395.6,-561.76"/>
</g>
<!-- ../../fn/modules/maths/wrap.js&#45;&gt;../../fn/modules/maths/mod.js -->
<g id="edge37" class="edge">
<title>../../fn/modules/maths/wrap.js&#45;&gt;../../fn/modules/maths/mod.js</title>
<path fill="none" stroke="#757575" d="M1057.18,-574.59C1069.66,-573.59 1082.5,-572.57 1095.12,-571.57"/>
<polygon fill="#757575" stroke="#757575" points="1095.49,-575.05 1105.19,-570.77 1094.94,-568.07 1095.49,-575.05"/>
</g>
<!-- ../../fn/modules/parse&#45;value.js -->
<g id="node36" class="node">
<title>../../fn/modules/parse&#45;value.js</title>
<path fill="none" stroke="#c6c5fe" d="M542.33,-534.73C542.33,-534.73 363.67,-534.73 363.67,-534.73 359.83,-534.73 356,-530.9 356,-527.06 356,-527.06 356,-519.4 356,-519.4 356,-515.56 359.83,-511.73 363.67,-511.73 363.67,-511.73 542.33,-511.73 542.33,-511.73 546.17,-511.73 550,-515.56 550,-519.4 550,-519.4 550,-527.06 550,-527.06 550,-530.9 546.17,-534.73 542.33,-534.73"/>
<text text-anchor="middle" x="453" y="-519.53" font-family="Arial" font-size="14.00" fill="#c6c5fe">../../fn/modules/parse&#45;value.js</text>
</g>
<!-- ../../fn/modules/parse&#45;value.js&#45;&gt;../../fn/modules/curry.js -->
<g id="edge39" class="edge">
<title>../../fn/modules/parse&#45;value.js&#45;&gt;../../fn/modules/curry.js</title>
<path fill="none" stroke="#757575" d="M550.3,-525.2C741.09,-529.11 1164.26,-537.78 1345.46,-541.49"/>
<polygon fill="#757575" stroke="#757575" points="1345.41,-544.99 1355.48,-541.69 1345.55,-537.99 1345.41,-544.99"/>
</g>
<!-- ../../fn/modules/request&#45;tick.js -->
<g id="node38" class="node">
<title>../../fn/modules/request&#45;tick.js</title>
<path fill="none" stroke="#cfffac" d="M1289.83,-171.73C1289.83,-171.73 1112.17,-171.73 1112.17,-171.73 1108.33,-171.73 1104.5,-167.9 1104.5,-164.06 1104.5,-164.06 1104.5,-156.4 1104.5,-156.4 1104.5,-152.56 1108.33,-148.73 1112.17,-148.73 1112.17,-148.73 1289.83,-148.73 1289.83,-148.73 1293.67,-148.73 1297.5,-152.56 1297.5,-156.4 1297.5,-156.4 1297.5,-164.06 1297.5,-164.06 1297.5,-167.9 1293.67,-171.73 1289.83,-171.73"/>
<text text-anchor="middle" x="1201" y="-156.53" font-family="Arial" font-size="14.00" fill="#cfffac">../../fn/modules/request&#45;tick.js</text>
</g>
<!-- ../../fn/modules/timer.js&#45;&gt;../../fn/modules/now.js -->
<g id="edge51" class="edge">
<title>../../fn/modules/timer.js&#45;&gt;../../fn/modules/now.js</title>
<path fill="none" stroke="#757575" d="M1036.62,-190.98C1062.22,-192.58 1090.93,-194.39 1117.06,-196.03"/>
<polygon fill="#757575" stroke="#757575" points="1117.12,-199.54 1127.32,-196.67 1117.56,-192.55 1117.12,-199.54"/>
</g>
<!-- ../../fn/modules/timer.js&#45;&gt;../../fn/modules/request&#45;tick.js -->
<g id="edge52" class="edge">
<title>../../fn/modules/timer.js&#45;&gt;../../fn/modules/request&#45;tick.js</title>
<path fill="none" stroke="#757575" d="M1036.62,-178C1054.9,-176.02 1074.78,-173.85 1094.17,-171.74"/>
<polygon fill="#757575" stroke="#757575" points="1094.69,-175.21 1104.25,-170.65 1093.93,-168.25 1094.69,-175.21"/>
</g>
<!-- slide&#45;show.js -->
<g id="node40" class="node">
<title>slide&#45;show.js</title>
<path fill="none" stroke="#c6c5fe" d="M85.33,-574.73C85.33,-574.73 7.67,-574.73 7.67,-574.73 3.83,-574.73 0,-570.9 0,-567.06 0,-567.06 0,-559.4 0,-559.4 0,-555.56 3.83,-551.73 7.67,-551.73 7.67,-551.73 85.33,-551.73 85.33,-551.73 89.17,-551.73 93,-555.56 93,-559.4 93,-559.4 93,-567.06 93,-567.06 93,-570.9 89.17,-574.73 85.33,-574.73"/>
<text text-anchor="middle" x="46.5" y="-559.53" font-family="Arial" font-size="14.00" fill="#c6c5fe">slide&#45;show.js</text>
</g>
<!-- slide&#45;show.js&#45;&gt;../../fn/modules/id.js -->
<g id="edge60" class="edge">
<title>slide&#45;show.js&#45;&gt;../../fn/modules/id.js</title>
<path fill="none" stroke="#757575" d="M50.1,-575.04C57.42,-605.76 80.85,-689.3 129,-739.23 240.77,-855.11 291,-903.23 452,-903.23 452,-903.23 452,-903.23 707.5,-903.23 863.06,-903.23 906.46,-923.44 1057,-884.23 1100.26,-872.97 1145.93,-848 1173.7,-831.14"/>
<polygon fill="#757575" stroke="#757575" points="1175.74,-833.99 1182.4,-825.76 1172.06,-828.04 1175.74,-833.99"/>
</g>
<!-- slide&#45;show.js&#45;&gt;../../dom/modules/create.js -->
<g id="edge53" class="edge">
<title>slide&#45;show.js&#45;&gt;../../dom/modules/create.js</title>
<path fill="none" stroke="#757575" d="M51.14,-574.78C59.88,-600.46 84.72,-662.22 129,-690.23 276.03,-783.22 486.49,-784.53 608.26,-775.46"/>
<polygon fill="#757575" stroke="#757575" points="608.62,-778.94 618.32,-774.67 608.07,-771.96 608.62,-778.94"/>
</g>
<!-- slide&#45;show.js&#45;&gt;../../dom/modules/element.js -->
<g id="edge54" class="edge">
<title>slide&#45;show.js&#45;&gt;../../dom/modules/element.js</title>
<path fill="none" stroke="#757575" d="M53.44,-574.85C64.85,-595.78 92.01,-639.4 129,-658.23 196.59,-692.65 282.58,-698.03 348.84,-695.41"/>
<polygon fill="#757575" stroke="#757575" points="349.06,-698.9 358.88,-694.94 348.73,-691.91 349.06,-698.9"/>
</g>
<!-- slide&#45;show.js&#45;&gt;../../dom/modules/events.js -->
<g id="edge55" class="edge">
<title>slide&#45;show.js&#45;&gt;../../dom/modules/events.js</title>
<path fill="none" stroke="#757575" d="M53.56,-551.63C79.26,-502.41 179.5,-310.48 212.73,-246.85"/>
<polygon fill="#757575" stroke="#757575" points="215.94,-248.27 217.47,-237.78 209.74,-245.03 215.94,-248.27"/>
</g>
<!-- slide&#45;show.js&#45;&gt;../../dom/modules/identify.js -->
<g id="edge56" class="edge">
<title>slide&#45;show.js&#45;&gt;../../dom/modules/identify.js</title>
<path fill="none" stroke="#757575" d="M93.15,-574.62C104.82,-577.48 117.37,-580.51 129,-583.23 139.17,-585.61 149.97,-588.07 160.5,-590.43"/>
<polygon fill="#757575" stroke="#757575" points="159.95,-593.9 170.47,-592.66 161.48,-587.07 159.95,-593.9"/>
</g>
<!-- slide&#45;show.js&#45;&gt;../../dom/modules/rect.js -->
<g id="edge57" class="edge">
<title>slide&#45;show.js&#45;&gt;../../dom/modules/rect.js</title>
<path fill="none" stroke="#757575" d="M93.28,-563.23C105.74,-563.23 119.68,-563.23 133.68,-563.23"/>
<polygon fill="#757575" stroke="#757575" points="133.86,-566.73 143.86,-563.23 133.86,-559.73 133.86,-566.73"/>
</g>
<!-- slide&#45;show.js&#45;&gt;../../dom/modules/select.js -->
<g id="edge58" class="edge">
<title>slide&#45;show.js&#45;&gt;../../dom/modules/select.js</title>
<path fill="none" stroke="#757575" d="M52.62,-551.72C63.19,-529.56 89.76,-481.49 129,-462.23 255.4,-400.21 672.32,-422.96 862.68,-437.21"/>
<polygon fill="#757575" stroke="#757575" points="862.44,-440.7 872.68,-437.96 862.97,-433.72 862.44,-440.7"/>
</g>
<!-- slide&#45;show.js&#45;&gt;../../dom/modules/traversal.js -->
<g id="edge59" class="edge">
<title>slide&#45;show.js&#45;&gt;../../dom/modules/traversal.js</title>
<path fill="none" stroke="#757575" d="M61.98,-551.56C77.66,-539.45 103.82,-520.68 129,-509.23 138.84,-504.75 149.62,-500.9 160.27,-497.63"/>
<polygon fill="#757575" stroke="#757575" points="161.36,-500.96 169.97,-494.79 159.39,-494.24 161.36,-500.96"/>
</g>
<!-- slide&#45;show.js&#45;&gt;../../fn/modules/maths/wrap.js -->
<g id="edge61" class="edge">
<title>slide&#45;show.js&#45;&gt;../../fn/modules/maths/wrap.js</title>
<path fill="none" stroke="#757575" d="M57.96,-574.94C72.26,-589.97 99.52,-615.29 129,-625.23 209.44,-652.35 235.16,-628.08 320,-625.23 507.72,-618.92 725.93,-602.22 852.66,-591.58"/>
<polygon fill="#757575" stroke="#757575" points="853.08,-595.06 862.75,-590.73 852.5,-588.08 853.08,-595.06"/>
</g>
<!-- slide&#45;show.js&#45;&gt;../../fn/modules/parse&#45;value.js -->
<g id="edge62" class="edge">
<title>slide&#45;show.js&#45;&gt;../../fn/modules/parse&#45;value.js</title>
<path fill="none" stroke="#757575" d="M86.15,-551.64C99.59,-548.05 114.85,-544.45 129,-542.23 200.63,-531.01 282.13,-526.27 345.34,-524.33"/>
<polygon fill="#757575" stroke="#757575" points="345.83,-527.82 355.73,-524.03 345.63,-520.82 345.83,-527.82"/>
</g>
<!-- slide&#45;show.js&#45;&gt;../../fn/modules/privates.js -->
<g id="edge63" class="edge">
<title>slide&#45;show.js&#45;&gt;../../fn/modules/privates.js</title>
<path fill="none" stroke="#757575" d="M47.34,-551.61C47.24,-504.31 52.11,-323.27 129,-205.23 197.65,-99.84 236.61,-75.8 356,-36.23 544.64,26.28 785.07,-7.21 896.77,-28.7"/>
<polygon fill="#757575" stroke="#757575" points="896.36,-32.19 906.85,-30.68 897.71,-25.32 896.36,-32.19"/>
</g>
</g>
</svg>
