<?xml version="1.0" encoding="UTF-8" standalone="no"?>
<!DOCTYPE svg PUBLIC "-//W3C//DTD SVG 1.1//EN"
 "http://www.w3.org/Graphics/SVG/1.1/DTD/svg11.dtd">
<!-- Generated by graphviz version 2.44.1 (20200629.0846)
 -->
<!-- Title: G Pages: 1 -->
<svg width="1823pt" height="1163pt"
 viewBox="0.00 0.00 1823.20 1162.88" xmlns="http://www.w3.org/2000/svg" xmlns:xlink="http://www.w3.org/1999/xlink">
<g id="graph0" class="graph" transform="scale(1 1) rotate(0) translate(21.6 1141.28)">
<title>G</title>
<polygon fill="#111111" stroke="transparent" points="-21.6,21.6 -21.6,-1141.28 1801.6,-1141.28 1801.6,21.6 -21.6,21.6"/>
<!-- ../../dom/modules/animate.js -->
<g id="node1" class="node">
<title>../../dom/modules/animate.js</title>
<path fill="none" stroke="#c6c5fe" d="M606.83,-605.06C606.83,-605.06 434.17,-605.06 434.17,-605.06 430.33,-605.06 426.5,-601.22 426.5,-597.39 426.5,-597.39 426.5,-589.72 426.5,-589.72 426.5,-585.89 430.33,-582.06 434.17,-582.06 434.17,-582.06 606.83,-582.06 606.83,-582.06 610.67,-582.06 614.5,-585.89 614.5,-589.72 614.5,-589.72 614.5,-597.39 614.5,-597.39 614.5,-601.22 610.67,-605.06 606.83,-605.06"/>
<text text-anchor="middle" x="520.5" y="-589.86" font-family="Arial" font-size="14.00" fill="#c6c5fe">../../dom/modules/animate.js</text>
</g>
<!-- ../../dom/modules/transition.js -->
<g id="node2" class="node">
<title>../../dom/modules/transition.js</title>
<path fill="none" stroke="#cfffac" d="M878.83,-564.06C878.83,-564.06 700.17,-564.06 700.17,-564.06 696.33,-564.06 692.5,-560.22 692.5,-556.39 692.5,-556.39 692.5,-548.72 692.5,-548.72 692.5,-544.89 696.33,-541.06 700.17,-541.06 700.17,-541.06 878.83,-541.06 878.83,-541.06 882.67,-541.06 886.5,-544.89 886.5,-548.72 886.5,-548.72 886.5,-556.39 886.5,-556.39 886.5,-560.22 882.67,-564.06 878.83,-564.06"/>
<text text-anchor="middle" x="789.5" y="-548.86" font-family="Arial" font-size="14.00" fill="#cfffac">../../dom/modules/transition.js</text>
</g>
<!-- ../../dom/modules/animate.js&#45;&gt;../../dom/modules/transition.js -->
<g id="edge1" class="edge">
<title>../../dom/modules/animate.js&#45;&gt;../../dom/modules/transition.js</title>
<path fill="none" stroke="#757575" d="M596.58,-582.03C629.86,-576.92 669.16,-570.88 703.5,-565.61"/>
<polygon fill="#757575" stroke="#757575" points="704.16,-569.05 713.52,-564.07 703.1,-562.13 704.16,-569.05"/>
</g>
<!-- ../../fn/modules/denormalisers.js -->
<g id="node3" class="node">
<title>../../fn/modules/denormalisers.js</title>
<path fill="none" stroke="#c6c5fe" d="M886.33,-605.06C886.33,-605.06 692.67,-605.06 692.67,-605.06 688.83,-605.06 685,-601.22 685,-597.39 685,-597.39 685,-589.72 685,-589.72 685,-585.89 688.83,-582.06 692.67,-582.06 692.67,-582.06 886.33,-582.06 886.33,-582.06 890.17,-582.06 894,-585.89 894,-589.72 894,-589.72 894,-597.39 894,-597.39 894,-601.22 890.17,-605.06 886.33,-605.06"/>
<text text-anchor="middle" x="789.5" y="-589.86" font-family="Arial" font-size="14.00" fill="#c6c5fe">../../fn/modules/denormalisers.js</text>
</g>
<!-- ../../dom/modules/animate.js&#45;&gt;../../fn/modules/denormalisers.js -->
<g id="edge2" class="edge">
<title>../../dom/modules/animate.js&#45;&gt;../../fn/modules/denormalisers.js</title>
<path fill="none" stroke="#757575" d="M614.51,-593.56C633.95,-593.56 654.66,-593.56 674.75,-593.56"/>
<polygon fill="#757575" stroke="#757575" points="674.88,-597.06 684.88,-593.56 674.88,-590.06 674.88,-597.06"/>
</g>
<!-- ../../fn/modules/pipe.js -->
<g id="node4" class="node">
<title>../../fn/modules/pipe.js</title>
<path fill="none" stroke="#c6c5fe" d="M856.33,-690.06C856.33,-690.06 722.67,-690.06 722.67,-690.06 718.83,-690.06 715,-686.22 715,-682.39 715,-682.39 715,-674.72 715,-674.72 715,-670.89 718.83,-667.06 722.67,-667.06 722.67,-667.06 856.33,-667.06 856.33,-667.06 860.17,-667.06 864,-670.89 864,-674.72 864,-674.72 864,-682.39 864,-682.39 864,-686.22 860.17,-690.06 856.33,-690.06"/>
<text text-anchor="middle" x="789.5" y="-674.86" font-family="Arial" font-size="14.00" fill="#c6c5fe">../../fn/modules/pipe.js</text>
</g>
<!-- ../../dom/modules/animate.js&#45;&gt;../../fn/modules/pipe.js -->
<g id="edge3" class="edge">
<title>../../dom/modules/animate.js&#45;&gt;../../fn/modules/pipe.js</title>
<path fill="none" stroke="#757575" d="M614.7,-600.14C626.71,-603.27 638.47,-607.6 649,-613.56 670.7,-625.83 663.64,-643.71 685,-656.56 691.28,-660.33 698.11,-663.47 705.17,-666.07"/>
<polygon fill="#757575" stroke="#757575" points="704.32,-669.47 714.92,-669.29 706.52,-662.83 704.32,-669.47"/>
</g>
<!-- ../../fn/modules/set.js -->
<g id="node5" class="node">
<title>../../fn/modules/set.js</title>
<path fill="none" stroke="#c6c5fe" d="M852.33,-648.06C852.33,-648.06 726.67,-648.06 726.67,-648.06 722.83,-648.06 719,-644.22 719,-640.39 719,-640.39 719,-632.72 719,-632.72 719,-628.89 722.83,-625.06 726.67,-625.06 726.67,-625.06 852.33,-625.06 852.33,-625.06 856.17,-625.06 860,-628.89 860,-632.72 860,-632.72 860,-640.39 860,-640.39 860,-644.22 856.17,-648.06 852.33,-648.06"/>
<text text-anchor="middle" x="789.5" y="-632.86" font-family="Arial" font-size="14.00" fill="#c6c5fe">../../fn/modules/set.js</text>
</g>
<!-- ../../dom/modules/animate.js&#45;&gt;../../fn/modules/set.js -->
<g id="edge4" class="edge">
<title>../../dom/modules/animate.js&#45;&gt;../../fn/modules/set.js</title>
<path fill="none" stroke="#757575" d="M595.68,-605.09C613.17,-607.84 631.75,-610.78 649,-613.56 668.59,-616.71 689.72,-620.16 709.46,-623.42"/>
<polygon fill="#757575" stroke="#757575" points="708.9,-626.87 719.34,-625.04 710.04,-619.96 708.9,-626.87"/>
</g>
<!-- ../../fn/modules/maths/cubic&#45;bezier.js -->
<g id="node37" class="node">
<title>../../fn/modules/maths/cubic&#45;bezier.js</title>
<path fill="none" stroke="#c6c5fe" d="M1388.33,-613.06C1388.33,-613.06 1167.67,-613.06 1167.67,-613.06 1163.83,-613.06 1160,-609.22 1160,-605.39 1160,-605.39 1160,-597.72 1160,-597.72 1160,-593.89 1163.83,-590.06 1167.67,-590.06 1167.67,-590.06 1388.33,-590.06 1388.33,-590.06 1392.17,-590.06 1396,-593.89 1396,-597.72 1396,-597.72 1396,-605.39 1396,-605.39 1396,-609.22 1392.17,-613.06 1388.33,-613.06"/>
<text text-anchor="middle" x="1278" y="-597.86" font-family="Arial" font-size="14.00" fill="#c6c5fe">../../fn/modules/maths/cubic&#45;bezier.js</text>
</g>
<!-- ../../fn/modules/denormalisers.js&#45;&gt;../../fn/modules/maths/cubic&#45;bezier.js -->
<g id="edge37" class="edge">
<title>../../fn/modules/denormalisers.js&#45;&gt;../../fn/modules/maths/cubic&#45;bezier.js</title>
<path fill="none" stroke="#757575" d="M894.27,-595.26C968.93,-596.49 1070.08,-598.15 1149.64,-599.46"/>
<polygon fill="#757575" stroke="#757575" points="1149.67,-602.96 1159.73,-599.63 1149.79,-595.96 1149.67,-602.96"/>
</g>
<!-- ../../fn/modules/normalisers.js -->
<g id="node38" class="node">
<title>../../fn/modules/normalisers.js</title>
<path fill="none" stroke="#c6c5fe" d="M1116.33,-572.06C1116.33,-572.06 937.67,-572.06 937.67,-572.06 933.83,-572.06 930,-568.22 930,-564.39 930,-564.39 930,-556.72 930,-556.72 930,-552.89 933.83,-549.06 937.67,-549.06 937.67,-549.06 1116.33,-549.06 1116.33,-549.06 1120.17,-549.06 1124,-552.89 1124,-556.72 1124,-556.72 1124,-564.39 1124,-564.39 1124,-568.22 1120.17,-572.06 1116.33,-572.06"/>
<text text-anchor="middle" x="1027" y="-556.86" font-family="Arial" font-size="14.00" fill="#c6c5fe">../../fn/modules/normalisers.js</text>
</g>
<!-- ../../fn/modules/denormalisers.js&#45;&gt;../../fn/modules/normalisers.js -->
<g id="edge38" class="edge">
<title>../../fn/modules/denormalisers.js&#45;&gt;../../fn/modules/normalisers.js</title>
<path fill="none" stroke="#757575" d="M872.87,-582.01C892.5,-579.26 913.57,-576.31 933.62,-573.5"/>
<polygon fill="#757575" stroke="#757575" points="934.26,-576.95 943.68,-572.09 933.29,-570.01 934.26,-576.95"/>
</g>
<!-- ../../fn/modules/types.js -->
<g id="node39" class="node">
<title>../../fn/modules/types.js</title>
<path fill="none" stroke="#c6c5fe" d="M1347.83,-572.06C1347.83,-572.06 1208.17,-572.06 1208.17,-572.06 1204.33,-572.06 1200.5,-568.22 1200.5,-564.39 1200.5,-564.39 1200.5,-556.72 1200.5,-556.72 1200.5,-552.89 1204.33,-549.06 1208.17,-549.06 1208.17,-549.06 1347.83,-549.06 1347.83,-549.06 1351.67,-549.06 1355.5,-552.89 1355.5,-556.72 1355.5,-556.72 1355.5,-564.39 1355.5,-564.39 1355.5,-568.22 1351.67,-572.06 1347.83,-572.06"/>
<text text-anchor="middle" x="1278" y="-556.86" font-family="Arial" font-size="14.00" fill="#c6c5fe">../../fn/modules/types.js</text>
</g>
<!-- ../../fn/modules/denormalisers.js&#45;&gt;../../fn/modules/types.js -->
<g id="edge39" class="edge">
<title>../../fn/modules/denormalisers.js&#45;&gt;../../fn/modules/types.js</title>
<path fill="none" stroke="#757575" d="M870.28,-581.99C878.51,-579.45 886.57,-576.34 894,-572.56 913.34,-562.71 909.77,-547.43 930,-539.56 976.33,-521.54 1106.71,-535.4 1193.79,-547.58"/>
<polygon fill="#757575" stroke="#757575" points="1193.53,-551.08 1203.92,-549.02 1194.52,-544.15 1193.53,-551.08"/>
</g>
<!-- ../../fn/modules/id.js -->
<g id="node8" class="node">
<title>../../fn/modules/id.js</title>
<path fill="none" stroke="#cfffac" d="M1086.33,-928.06C1086.33,-928.06 967.67,-928.06 967.67,-928.06 963.83,-928.06 960,-924.22 960,-920.39 960,-920.39 960,-912.72 960,-912.72 960,-908.89 963.83,-905.06 967.67,-905.06 967.67,-905.06 1086.33,-905.06 1086.33,-905.06 1090.17,-905.06 1094,-908.89 1094,-912.72 1094,-912.72 1094,-920.39 1094,-920.39 1094,-924.22 1090.17,-928.06 1086.33,-928.06"/>
<text text-anchor="middle" x="1027" y="-912.86" font-family="Arial" font-size="14.00" fill="#cfffac">../../fn/modules/id.js</text>
</g>
<!-- ../../fn/modules/pipe.js&#45;&gt;../../fn/modules/id.js -->
<g id="edge57" class="edge">
<title>../../fn/modules/pipe.js&#45;&gt;../../fn/modules/id.js</title>
<path fill="none" stroke="#757575" d="M800.91,-690.36C820.79,-713.3 864.79,-765.99 894,-815.56 914,-849.5 899.34,-871.82 930,-896.56 936.06,-901.44 943.01,-905.22 950.34,-908.13"/>
<polygon fill="#757575" stroke="#757575" points="949.21,-911.44 959.81,-911.38 951.48,-904.82 949.21,-911.44"/>
</g>
<!-- ../../fn/modules/apply.js -->
<g id="node33" class="node">
<title>../../fn/modules/apply.js</title>
<path fill="none" stroke="#cfffac" d="M1096.83,-690.06C1096.83,-690.06 957.17,-690.06 957.17,-690.06 953.33,-690.06 949.5,-686.22 949.5,-682.39 949.5,-682.39 949.5,-674.72 949.5,-674.72 949.5,-670.89 953.33,-667.06 957.17,-667.06 957.17,-667.06 1096.83,-667.06 1096.83,-667.06 1100.67,-667.06 1104.5,-670.89 1104.5,-674.72 1104.5,-674.72 1104.5,-682.39 1104.5,-682.39 1104.5,-686.22 1100.67,-690.06 1096.83,-690.06"/>
<text text-anchor="middle" x="1027" y="-674.86" font-family="Arial" font-size="14.00" fill="#cfffac">../../fn/modules/apply.js</text>
</g>
<!-- ../../fn/modules/pipe.js&#45;&gt;../../fn/modules/apply.js -->
<g id="edge56" class="edge">
<title>../../fn/modules/pipe.js&#45;&gt;../../fn/modules/apply.js</title>
<path fill="none" stroke="#757575" d="M864.04,-678.56C887.89,-678.56 914.56,-678.56 939.27,-678.56"/>
<polygon fill="#757575" stroke="#757575" points="939.35,-682.06 949.35,-678.56 939.35,-675.06 939.35,-682.06"/>
</g>
<!-- ../../fn/modules/curry.js -->
<g id="node7" class="node">
<title>../../fn/modules/curry.js</title>
<path fill="none" stroke="#c6c5fe" d="M1576.83,-730.06C1576.83,-730.06 1440.17,-730.06 1440.17,-730.06 1436.33,-730.06 1432.5,-726.22 1432.5,-722.39 1432.5,-722.39 1432.5,-714.72 1432.5,-714.72 1432.5,-710.89 1436.33,-707.06 1440.17,-707.06 1440.17,-707.06 1576.83,-707.06 1576.83,-707.06 1580.67,-707.06 1584.5,-710.89 1584.5,-714.72 1584.5,-714.72 1584.5,-722.39 1584.5,-722.39 1584.5,-726.22 1580.67,-730.06 1576.83,-730.06"/>
<text text-anchor="middle" x="1508.5" y="-714.86" font-family="Arial" font-size="14.00" fill="#c6c5fe">../../fn/modules/curry.js</text>
</g>
<!-- ../../fn/modules/set.js&#45;&gt;../../fn/modules/curry.js -->
<g id="edge58" class="edge">
<title>../../fn/modules/set.js&#45;&gt;../../fn/modules/curry.js</title>
<path fill="none" stroke="#757575" d="M860.29,-639.02C927.88,-641.87 1033.18,-647.5 1124,-657.56 1233.66,-669.7 1359.84,-691.25 1436.6,-705.21"/>
<polygon fill="#757575" stroke="#757575" points="1436.17,-708.69 1446.64,-707.05 1437.43,-701.8 1436.17,-708.69"/>
</g>
<!-- ../../dom/modules/assign.js -->
<g id="node6" class="node">
<title>../../dom/modules/assign.js</title>
<path fill="none" stroke="#c6c5fe" d="M870.83,-1008.06C870.83,-1008.06 708.17,-1008.06 708.17,-1008.06 704.33,-1008.06 700.5,-1004.22 700.5,-1000.39 700.5,-1000.39 700.5,-992.72 700.5,-992.72 700.5,-988.89 704.33,-985.06 708.17,-985.06 708.17,-985.06 870.83,-985.06 870.83,-985.06 874.67,-985.06 878.5,-988.89 878.5,-992.72 878.5,-992.72 878.5,-1000.39 878.5,-1000.39 878.5,-1004.22 874.67,-1008.06 870.83,-1008.06"/>
<text text-anchor="middle" x="789.5" y="-992.86" font-family="Arial" font-size="14.00" fill="#c6c5fe">../../dom/modules/assign.js</text>
</g>
<!-- ../../dom/modules/assign.js&#45;&gt;../../fn/modules/curry.js -->
<g id="edge5" class="edge">
<title>../../dom/modules/assign.js&#45;&gt;../../fn/modules/curry.js</title>
<path fill="none" stroke="#757575" d="M865.7,-985.01C886.5,-982.02 909.1,-978.97 930,-976.56 1033.27,-964.62 1309.73,-993.56 1396,-935.56 1465.49,-888.83 1494.15,-784.86 1503.6,-739.92"/>
<polygon fill="#757575" stroke="#757575" points="1507.04,-740.57 1505.56,-730.08 1500.17,-739.2 1507.04,-740.57"/>
</g>
<!-- ../../dom/modules/assign.js&#45;&gt;../../fn/modules/id.js -->
<g id="edge6" class="edge">
<title>../../dom/modules/assign.js&#45;&gt;../../fn/modules/id.js</title>
<path fill="none" stroke="#757575" d="M854.1,-985C867.64,-981.33 881.59,-976.6 894,-970.56 912.22,-961.67 911.86,-951.61 930,-942.56 939.13,-938 949.17,-934.16 959.2,-930.95"/>
<polygon fill="#757575" stroke="#757575" points="960.22,-934.3 968.79,-928.07 958.2,-927.6 960.22,-934.3"/>
</g>
<!-- ../../fn/modules/noop.js -->
<g id="node9" class="node">
<title>../../fn/modules/noop.js</title>
<path fill="none" stroke="#cfffac" d="M1577.33,-251.06C1577.33,-251.06 1439.67,-251.06 1439.67,-251.06 1435.83,-251.06 1432,-247.22 1432,-243.39 1432,-243.39 1432,-235.72 1432,-235.72 1432,-231.89 1435.83,-228.06 1439.67,-228.06 1439.67,-228.06 1577.33,-228.06 1577.33,-228.06 1581.17,-228.06 1585,-231.89 1585,-235.72 1585,-235.72 1585,-243.39 1585,-243.39 1585,-247.22 1581.17,-251.06 1577.33,-251.06"/>
<text text-anchor="middle" x="1508.5" y="-235.86" font-family="Arial" font-size="14.00" fill="#cfffac">../../fn/modules/noop.js</text>
</g>
<!-- ../../dom/modules/assign.js&#45;&gt;../../fn/modules/noop.js -->
<g id="edge7" class="edge">
<title>../../dom/modules/assign.js&#45;&gt;../../fn/modules/noop.js</title>
<path fill="none" stroke="#757575" d="M824.44,-985C847.22,-975.59 876.2,-960.13 894,-937.56 929.53,-892.49 891.68,-856.27 930,-813.56 1079.59,-646.83 1246.29,-788.18 1396,-621.56 1493.14,-513.45 1505.92,-325.06 1507.39,-261.34"/>
<polygon fill="#757575" stroke="#757575" points="1510.89,-261.3 1507.55,-251.25 1503.9,-261.19 1510.89,-261.3"/>
</g>
<!-- ../../fn/modules/overload.js -->
<g id="node10" class="node">
<title>../../fn/modules/overload.js</title>
<path fill="none" stroke="#cfffac" d="M1106.83,-1008.06C1106.83,-1008.06 947.17,-1008.06 947.17,-1008.06 943.33,-1008.06 939.5,-1004.22 939.5,-1000.39 939.5,-1000.39 939.5,-992.72 939.5,-992.72 939.5,-988.89 943.33,-985.06 947.17,-985.06 947.17,-985.06 1106.83,-985.06 1106.83,-985.06 1110.67,-985.06 1114.5,-988.89 1114.5,-992.72 1114.5,-992.72 1114.5,-1000.39 1114.5,-1000.39 1114.5,-1004.22 1110.67,-1008.06 1106.83,-1008.06"/>
<text text-anchor="middle" x="1027" y="-992.86" font-family="Arial" font-size="14.00" fill="#cfffac">../../fn/modules/overload.js</text>
</g>
<!-- ../../dom/modules/assign.js&#45;&gt;../../fn/modules/overload.js -->
<g id="edge8" class="edge">
<title>../../dom/modules/assign.js&#45;&gt;../../fn/modules/overload.js</title>
<path fill="none" stroke="#757575" d="M878.53,-996.56C894.97,-996.56 912.24,-996.56 928.94,-996.56"/>
<polygon fill="#757575" stroke="#757575" points="929.25,-1000.06 939.25,-996.56 929.25,-993.06 929.25,-1000.06"/>
</g>
<!-- ../../fn/modules/cache.js -->
<g id="node21" class="node">
<title>../../fn/modules/cache.js</title>
<path fill="none" stroke="#cfffac" d="M1772.33,-730.06C1772.33,-730.06 1628.67,-730.06 1628.67,-730.06 1624.83,-730.06 1621,-726.22 1621,-722.39 1621,-722.39 1621,-714.72 1621,-714.72 1621,-710.89 1624.83,-707.06 1628.67,-707.06 1628.67,-707.06 1772.33,-707.06 1772.33,-707.06 1776.17,-707.06 1780,-710.89 1780,-714.72 1780,-714.72 1780,-722.39 1780,-722.39 1780,-726.22 1776.17,-730.06 1772.33,-730.06"/>
<text text-anchor="middle" x="1700.5" y="-714.86" font-family="Arial" font-size="14.00" fill="#cfffac">../../fn/modules/cache.js</text>
</g>
<!-- ../../fn/modules/curry.js&#45;&gt;../../fn/modules/cache.js -->
<g id="edge36" class="edge">
<title>../../fn/modules/curry.js&#45;&gt;../../fn/modules/cache.js</title>
<path fill="none" stroke="#757575" d="M1584.59,-718.56C1593.17,-718.56 1601.97,-718.56 1610.7,-718.56"/>
<polygon fill="#757575" stroke="#757575" points="1610.9,-722.06 1620.9,-718.56 1610.9,-715.06 1610.9,-722.06"/>
</g>
<!-- ../../dom/modules/create.js -->
<g id="node11" class="node">
<title>../../dom/modules/create.js</title>
<path fill="none" stroke="#c6c5fe" d="M600.83,-988.06C600.83,-988.06 440.17,-988.06 440.17,-988.06 436.33,-988.06 432.5,-984.22 432.5,-980.39 432.5,-980.39 432.5,-972.72 432.5,-972.72 432.5,-968.89 436.33,-965.06 440.17,-965.06 440.17,-965.06 600.83,-965.06 600.83,-965.06 604.67,-965.06 608.5,-968.89 608.5,-972.72 608.5,-972.72 608.5,-980.39 608.5,-980.39 608.5,-984.22 604.67,-988.06 600.83,-988.06"/>
<text text-anchor="middle" x="520.5" y="-972.86" font-family="Arial" font-size="14.00" fill="#c6c5fe">../../dom/modules/create.js</text>
</g>
<!-- ../../dom/modules/create.js&#45;&gt;../../dom/modules/assign.js -->
<g id="edge9" class="edge">
<title>../../dom/modules/create.js&#45;&gt;../../dom/modules/assign.js</title>
<path fill="none" stroke="#757575" d="M608.56,-983.08C634.6,-985.03 663.34,-987.18 690.06,-989.18"/>
<polygon fill="#757575" stroke="#757575" points="689.96,-992.68 700.19,-989.94 690.48,-985.7 689.96,-992.68"/>
</g>
<!-- ../../dom/modules/create.js&#45;&gt;../../fn/modules/id.js -->
<g id="edge10" class="edge">
<title>../../dom/modules/create.js&#45;&gt;../../fn/modules/id.js</title>
<path fill="none" stroke="#757575" d="M608.59,-968.77C684.18,-961.69 796.5,-950.41 894,-937.56 912.15,-935.16 931.65,-932.25 949.94,-929.37"/>
<polygon fill="#757575" stroke="#757575" points="950.64,-932.8 959.96,-927.77 949.54,-925.89 950.64,-932.8"/>
</g>
<!-- ../../dom/modules/create.js&#45;&gt;../../fn/modules/overload.js -->
<g id="edge11" class="edge">
<title>../../dom/modules/create.js&#45;&gt;../../fn/modules/overload.js</title>
<path fill="none" stroke="#757575" d="M531.92,-988.22C555.86,-1014.03 617.93,-1075.44 685,-1097.56 773.22,-1126.65 806.02,-1127.35 894,-1097.56 941.64,-1081.42 985.6,-1040.44 1008.8,-1015.92"/>
<polygon fill="#757575" stroke="#757575" points="1011.63,-1018.02 1015.85,-1008.3 1006.49,-1013.27 1011.63,-1018.02"/>
</g>
<!-- ../../fn/modules/to&#45;type.js -->
<g id="node12" class="node">
<title>../../fn/modules/to&#45;type.js</title>
<path fill="none" stroke="#cfffac" d="M863.83,-1088.06C863.83,-1088.06 715.17,-1088.06 715.17,-1088.06 711.33,-1088.06 707.5,-1084.22 707.5,-1080.39 707.5,-1080.39 707.5,-1072.72 707.5,-1072.72 707.5,-1068.89 711.33,-1065.06 715.17,-1065.06 715.17,-1065.06 863.83,-1065.06 863.83,-1065.06 867.67,-1065.06 871.5,-1068.89 871.5,-1072.72 871.5,-1072.72 871.5,-1080.39 871.5,-1080.39 871.5,-1084.22 867.67,-1088.06 863.83,-1088.06"/>
<text text-anchor="middle" x="789.5" y="-1072.86" font-family="Arial" font-size="14.00" fill="#cfffac">../../fn/modules/to&#45;type.js</text>
</g>
<!-- ../../dom/modules/create.js&#45;&gt;../../fn/modules/to&#45;type.js -->
<g id="edge12" class="edge">
<title>../../dom/modules/create.js&#45;&gt;../../fn/modules/to&#45;type.js</title>
<path fill="none" stroke="#757575" d="M543.72,-988.16C574.7,-1003.97 632.93,-1032.4 685,-1050.56 697.69,-1054.98 711.49,-1058.98 724.76,-1062.45"/>
<polygon fill="#757575" stroke="#757575" points="724.22,-1065.93 734.78,-1065 725.95,-1059.14 724.22,-1065.93"/>
</g>
<!-- ../../dom/modules/element.js -->
<g id="node13" class="node">
<title>../../dom/modules/element.js</title>
<path fill="none" stroke="#c6c5fe" d="M328.83,-928.06C328.83,-928.06 156.17,-928.06 156.17,-928.06 152.33,-928.06 148.5,-924.22 148.5,-920.39 148.5,-920.39 148.5,-912.72 148.5,-912.72 148.5,-908.89 152.33,-905.06 156.17,-905.06 156.17,-905.06 328.83,-905.06 328.83,-905.06 332.67,-905.06 336.5,-908.89 336.5,-912.72 336.5,-912.72 336.5,-920.39 336.5,-920.39 336.5,-924.22 332.67,-928.06 328.83,-928.06"/>
<text text-anchor="middle" x="242.5" y="-912.86" font-family="Arial" font-size="14.00" fill="#c6c5fe">../../dom/modules/element.js</text>
</g>
<!-- ../../dom/modules/element.js&#45;&gt;../../dom/modules/create.js -->
<g id="edge13" class="edge">
<title>../../dom/modules/element.js&#45;&gt;../../dom/modules/create.js</title>
<path fill="none" stroke="#757575" d="M296.72,-928.13C342.34,-938.04 408.16,-952.35 456.43,-962.85"/>
<polygon fill="#757575" stroke="#757575" points="455.93,-966.32 466.45,-965.02 457.42,-959.48 455.93,-966.32"/>
</g>
<!-- ../../dom/modules/request&#45;template.js -->
<g id="node14" class="node">
<title>../../dom/modules/request&#45;template.js</title>
<path fill="none" stroke="#c6c5fe" d="M633.33,-928.06C633.33,-928.06 407.67,-928.06 407.67,-928.06 403.83,-928.06 400,-924.22 400,-920.39 400,-920.39 400,-912.72 400,-912.72 400,-908.89 403.83,-905.06 407.67,-905.06 407.67,-905.06 633.33,-905.06 633.33,-905.06 637.17,-905.06 641,-908.89 641,-912.72 641,-912.72 641,-920.39 641,-920.39 641,-924.22 637.17,-928.06 633.33,-928.06"/>
<text text-anchor="middle" x="520.5" y="-912.86" font-family="Arial" font-size="14.00" fill="#c6c5fe">../../dom/modules/request&#45;template.js</text>
</g>
<!-- ../../dom/modules/element.js&#45;&gt;../../dom/modules/request&#45;template.js -->
<g id="edge14" class="edge">
<title>../../dom/modules/element.js&#45;&gt;../../dom/modules/request&#45;template.js</title>
<path fill="none" stroke="#757575" d="M336.56,-916.56C353.64,-916.56 371.76,-916.56 389.69,-916.56"/>
<polygon fill="#757575" stroke="#757575" points="389.92,-920.06 399.92,-916.56 389.92,-913.06 389.92,-920.06"/>
</g>
<!-- ../../dom/modules/request&#45;template.js&#45;&gt;../../fn/modules/cache.js -->
<g id="edge23" class="edge">
<title>../../dom/modules/request&#45;template.js&#45;&gt;../../fn/modules/cache.js</title>
<path fill="none" stroke="#757575" d="M589.86,-928.15C610.42,-934.1 632.01,-943.07 649,-956.56 673.66,-976.13 658.11,-1001.19 685,-1017.56 749.84,-1057.01 950.1,-1036.56 1026,-1036.56 1026,-1036.56 1026,-1036.56 1279,-1036.56 1477.4,-1036.56 1641.3,-808.56 1686.88,-738.67"/>
<polygon fill="#757575" stroke="#757575" points="1689.83,-740.56 1692.29,-730.25 1683.94,-736.77 1689.83,-740.56"/>
</g>
<!-- ../../dom/modules/parse.js -->
<g id="node23" class="node">
<title>../../dom/modules/parse.js</title>
<path fill="none" stroke="#cfffac" d="M868.33,-928.06C868.33,-928.06 710.67,-928.06 710.67,-928.06 706.83,-928.06 703,-924.22 703,-920.39 703,-920.39 703,-912.72 703,-912.72 703,-908.89 706.83,-905.06 710.67,-905.06 710.67,-905.06 868.33,-905.06 868.33,-905.06 872.17,-905.06 876,-908.89 876,-912.72 876,-912.72 876,-920.39 876,-920.39 876,-924.22 872.17,-928.06 868.33,-928.06"/>
<text text-anchor="middle" x="789.5" y="-912.86" font-family="Arial" font-size="14.00" fill="#cfffac">../../dom/modules/parse.js</text>
</g>
<!-- ../../dom/modules/request&#45;template.js&#45;&gt;../../dom/modules/parse.js -->
<g id="edge21" class="edge">
<title>../../dom/modules/request&#45;template.js&#45;&gt;../../dom/modules/parse.js</title>
<path fill="none" stroke="#757575" d="M641.33,-916.56C658.44,-916.56 675.85,-916.56 692.42,-916.56"/>
<polygon fill="#757575" stroke="#757575" points="692.62,-920.06 702.62,-916.56 692.62,-913.06 692.62,-920.06"/>
</g>
<!-- ../../dom/modules/request.js -->
<g id="node25" class="node">
<title>../../dom/modules/request.js</title>
<path fill="none" stroke="#c6c5fe" d="M873.83,-848.06C873.83,-848.06 705.17,-848.06 705.17,-848.06 701.33,-848.06 697.5,-844.22 697.5,-840.39 697.5,-840.39 697.5,-832.72 697.5,-832.72 697.5,-828.89 701.33,-825.06 705.17,-825.06 705.17,-825.06 873.83,-825.06 873.83,-825.06 877.67,-825.06 881.5,-828.89 881.5,-832.72 881.5,-832.72 881.5,-840.39 881.5,-840.39 881.5,-844.22 877.67,-848.06 873.83,-848.06"/>
<text text-anchor="middle" x="789.5" y="-832.86" font-family="Arial" font-size="14.00" fill="#c6c5fe">../../dom/modules/request.js</text>
</g>
<!-- ../../dom/modules/request&#45;template.js&#45;&gt;../../dom/modules/request.js -->
<g id="edge22" class="edge">
<title>../../dom/modules/request&#45;template.js&#45;&gt;../../dom/modules/request.js</title>
<path fill="none" stroke="#757575" d="M560.04,-905.01C607.66,-890.74 688.7,-866.46 740.37,-850.98"/>
<polygon fill="#757575" stroke="#757575" points="741.4,-854.32 749.97,-848.1 739.39,-847.62 741.4,-854.32"/>
</g>
<!-- ../../dom/modules/event.js -->
<g id="node15" class="node">
<title>../../dom/modules/event.js</title>
<path fill="none" stroke="#cfffac" d="M598.83,-258.06C598.83,-258.06 442.17,-258.06 442.17,-258.06 438.33,-258.06 434.5,-254.22 434.5,-250.39 434.5,-250.39 434.5,-242.72 434.5,-242.72 434.5,-238.89 438.33,-235.06 442.17,-235.06 442.17,-235.06 598.83,-235.06 598.83,-235.06 602.67,-235.06 606.5,-238.89 606.5,-242.72 606.5,-242.72 606.5,-250.39 606.5,-250.39 606.5,-254.22 602.67,-258.06 598.83,-258.06"/>
<text text-anchor="middle" x="520.5" y="-242.86" font-family="Arial" font-size="14.00" fill="#cfffac">../../dom/modules/event.js</text>
</g>
<!-- ../../dom/modules/events.js -->
<g id="node16" class="node">
<title>../../dom/modules/events.js</title>
<path fill="none" stroke="#c6c5fe" d="M324.33,-258.06C324.33,-258.06 160.67,-258.06 160.67,-258.06 156.83,-258.06 153,-254.22 153,-250.39 153,-250.39 153,-242.72 153,-242.72 153,-238.89 156.83,-235.06 160.67,-235.06 160.67,-235.06 324.33,-235.06 324.33,-235.06 328.17,-235.06 332,-238.89 332,-242.72 332,-242.72 332,-250.39 332,-250.39 332,-254.22 328.17,-258.06 324.33,-258.06"/>
<text text-anchor="middle" x="242.5" y="-242.86" font-family="Arial" font-size="14.00" fill="#c6c5fe">../../dom/modules/events.js</text>
</g>
<!-- ../../dom/modules/events.js&#45;&gt;../../dom/modules/event.js -->
<g id="edge15" class="edge">
<title>../../dom/modules/events.js&#45;&gt;../../dom/modules/event.js</title>
<path fill="none" stroke="#757575" d="M332.35,-246.56C361.53,-246.56 394.08,-246.56 423.75,-246.56"/>
<polygon fill="#757575" stroke="#757575" points="424.11,-250.06 434.11,-246.56 424.11,-243.06 424.11,-250.06"/>
</g>
<!-- ../../dom/modules/features.js -->
<g id="node17" class="node">
<title>../../dom/modules/features.js</title>
<path fill="none" stroke="#c6c5fe" d="M606.83,-474.06C606.83,-474.06 434.17,-474.06 434.17,-474.06 430.33,-474.06 426.5,-470.22 426.5,-466.39 426.5,-466.39 426.5,-458.72 426.5,-458.72 426.5,-454.89 430.33,-451.06 434.17,-451.06 434.17,-451.06 606.83,-451.06 606.83,-451.06 610.67,-451.06 614.5,-454.89 614.5,-458.72 614.5,-458.72 614.5,-466.39 614.5,-466.39 614.5,-470.22 610.67,-474.06 606.83,-474.06"/>
<text text-anchor="middle" x="520.5" y="-458.86" font-family="Arial" font-size="14.00" fill="#c6c5fe">../../dom/modules/features.js</text>
</g>
<!-- ../../dom/modules/events.js&#45;&gt;../../dom/modules/features.js -->
<g id="edge16" class="edge">
<title>../../dom/modules/events.js&#45;&gt;../../dom/modules/features.js</title>
<path fill="none" stroke="#757575" d="M258.34,-258.17C303.83,-293.77 441.56,-401.56 496.51,-444.56"/>
<polygon fill="#757575" stroke="#757575" points="494.56,-447.48 504.59,-450.89 498.87,-441.97 494.56,-447.48"/>
</g>
<!-- ../../fn/modules/stream.js -->
<g id="node18" class="node">
<title>../../fn/modules/stream.js</title>
<path fill="none" stroke="#c6c5fe" d="M864.33,-198.06C864.33,-198.06 714.67,-198.06 714.67,-198.06 710.83,-198.06 707,-194.22 707,-190.39 707,-190.39 707,-182.72 707,-182.72 707,-178.89 710.83,-175.06 714.67,-175.06 714.67,-175.06 864.33,-175.06 864.33,-175.06 868.17,-175.06 872,-178.89 872,-182.72 872,-182.72 872,-190.39 872,-190.39 872,-194.22 868.17,-198.06 864.33,-198.06"/>
<text text-anchor="middle" x="789.5" y="-182.86" font-family="Arial" font-size="14.00" fill="#c6c5fe">../../fn/modules/stream.js</text>
</g>
<!-- ../../dom/modules/events.js&#45;&gt;../../fn/modules/stream.js -->
<g id="edge17" class="edge">
<title>../../dom/modules/events.js&#45;&gt;../../fn/modules/stream.js</title>
<path fill="none" stroke="#757575" d="M320.49,-235.04C343.47,-231.77 368.73,-228.34 392,-225.56 496.22,-213.07 616.22,-201.68 696.66,-194.48"/>
<polygon fill="#757575" stroke="#757575" points="697.11,-197.95 706.76,-193.58 696.49,-190.98 697.11,-197.95"/>
</g>
<!-- ../../fn/modules/stream.wait.js -->
<g id="node19" class="node">
<title>../../fn/modules/stream.wait.js</title>
<path fill="none" stroke="#c6c5fe" d="M609.33,-178.06C609.33,-178.06 431.67,-178.06 431.67,-178.06 427.83,-178.06 424,-174.22 424,-170.39 424,-170.39 424,-162.72 424,-162.72 424,-158.89 427.83,-155.06 431.67,-155.06 431.67,-155.06 609.33,-155.06 609.33,-155.06 613.17,-155.06 617,-158.89 617,-162.72 617,-162.72 617,-170.39 617,-170.39 617,-174.22 613.17,-178.06 609.33,-178.06"/>
<text text-anchor="middle" x="520.5" y="-162.86" font-family="Arial" font-size="14.00" fill="#c6c5fe">../../fn/modules/stream.wait.js</text>
</g>
<!-- ../../dom/modules/events.js&#45;&gt;../../fn/modules/stream.wait.js -->
<g id="edge18" class="edge">
<title>../../dom/modules/events.js&#45;&gt;../../fn/modules/stream.wait.js</title>
<path fill="none" stroke="#757575" d="M271.29,-235.05C300.83,-223.16 349.1,-204.66 392,-192.56 408.54,-187.89 426.51,-183.7 443.59,-180.12"/>
<polygon fill="#757575" stroke="#757575" points="444.44,-183.52 453.54,-178.08 443.04,-176.66 444.44,-183.52"/>
</g>
<!-- ../../dom/modules/prefix.js -->
<g id="node20" class="node">
<title>../../dom/modules/prefix.js</title>
<path fill="none" stroke="#cfffac" d="M867.83,-454.06C867.83,-454.06 711.17,-454.06 711.17,-454.06 707.33,-454.06 703.5,-450.22 703.5,-446.39 703.5,-446.39 703.5,-438.72 703.5,-438.72 703.5,-434.89 707.33,-431.06 711.17,-431.06 711.17,-431.06 867.83,-431.06 867.83,-431.06 871.67,-431.06 875.5,-434.89 875.5,-438.72 875.5,-438.72 875.5,-446.39 875.5,-446.39 875.5,-450.22 871.67,-454.06 867.83,-454.06"/>
<text text-anchor="middle" x="789.5" y="-438.86" font-family="Arial" font-size="14.00" fill="#cfffac">../../dom/modules/prefix.js</text>
</g>
<!-- ../../dom/modules/features.js&#45;&gt;../../dom/modules/prefix.js -->
<g id="edge19" class="edge">
<title>../../dom/modules/features.js&#45;&gt;../../dom/modules/prefix.js</title>
<path fill="none" stroke="#757575" d="M614.51,-455.59C640.02,-453.68 667.71,-451.6 693.34,-449.69"/>
<polygon fill="#757575" stroke="#757575" points="693.71,-453.17 703.42,-448.93 693.19,-446.19 693.71,-453.17"/>
</g>
<!-- ../../dom/modules/features.js&#45;&gt;../../fn/modules/cache.js -->
<g id="edge20" class="edge">
<title>../../dom/modules/features.js&#45;&gt;../../fn/modules/cache.js</title>
<path fill="none" stroke="#757575" d="M614.81,-465.57C809.45,-472.69 1252.59,-493.56 1396,-539.56 1511.12,-576.48 1629.38,-663.08 1677.32,-700.64"/>
<polygon fill="#757575" stroke="#757575" points="1675.16,-703.4 1685.18,-706.86 1679.5,-697.91 1675.16,-703.4"/>
</g>
<!-- ../../fn/modules/stream.js&#45;&gt;../../fn/modules/noop.js -->
<g id="edge61" class="edge">
<title>../../fn/modules/stream.js&#45;&gt;../../fn/modules/noop.js</title>
<path fill="none" stroke="#757575" d="M813.45,-174.91C834.65,-163.98 866.87,-146.89 894,-130.56 910.47,-120.64 911.71,-112.49 930,-106.56 1028.52,-74.61 1302.85,-52.27 1396,-97.56 1448.11,-122.9 1483.11,-185.69 1498.53,-218.63"/>
<polygon fill="#757575" stroke="#757575" points="1495.38,-220.15 1502.69,-227.82 1501.75,-217.27 1495.38,-220.15"/>
</g>
<!-- ../../fn/modules/nothing.js -->
<g id="node27" class="node">
<title>../../fn/modules/nothing.js</title>
<path fill="none" stroke="#c6c5fe" d="M1353.83,-251.06C1353.83,-251.06 1202.17,-251.06 1202.17,-251.06 1198.33,-251.06 1194.5,-247.22 1194.5,-243.39 1194.5,-243.39 1194.5,-235.72 1194.5,-235.72 1194.5,-231.89 1198.33,-228.06 1202.17,-228.06 1202.17,-228.06 1353.83,-228.06 1353.83,-228.06 1357.67,-228.06 1361.5,-231.89 1361.5,-235.72 1361.5,-235.72 1361.5,-243.39 1361.5,-243.39 1361.5,-247.22 1357.67,-251.06 1353.83,-251.06"/>
<text text-anchor="middle" x="1278" y="-235.86" font-family="Arial" font-size="14.00" fill="#c6c5fe">../../fn/modules/nothing.js</text>
</g>
<!-- ../../fn/modules/stream.js&#45;&gt;../../fn/modules/nothing.js -->
<g id="edge62" class="edge">
<title>../../fn/modules/stream.js&#45;&gt;../../fn/modules/nothing.js</title>
<path fill="none" stroke="#757575" d="M872.2,-195.46C958.42,-204.85 1094.05,-219.63 1184.24,-229.45"/>
<polygon fill="#757575" stroke="#757575" points="1183.86,-232.93 1194.18,-230.53 1184.62,-225.97 1183.86,-232.93"/>
</g>
<!-- ../../fn/modules/to&#45;array.js -->
<g id="node29" class="node">
<title>../../fn/modules/to&#45;array.js</title>
<path fill="none" stroke="#cfffac" d="M1354.83,-454.06C1354.83,-454.06 1201.17,-454.06 1201.17,-454.06 1197.33,-454.06 1193.5,-450.22 1193.5,-446.39 1193.5,-446.39 1193.5,-438.72 1193.5,-438.72 1193.5,-434.89 1197.33,-431.06 1201.17,-431.06 1201.17,-431.06 1354.83,-431.06 1354.83,-431.06 1358.67,-431.06 1362.5,-434.89 1362.5,-438.72 1362.5,-438.72 1362.5,-446.39 1362.5,-446.39 1362.5,-450.22 1358.67,-454.06 1354.83,-454.06"/>
<text text-anchor="middle" x="1278" y="-438.86" font-family="Arial" font-size="14.00" fill="#cfffac">../../fn/modules/to&#45;array.js</text>
</g>
<!-- ../../fn/modules/stream.js&#45;&gt;../../fn/modules/to&#45;array.js -->
<g id="edge66" class="edge">
<title>../../fn/modules/stream.js&#45;&gt;../../fn/modules/to&#45;array.js</title>
<path fill="none" stroke="#757575" d="M810.55,-198.29C833.81,-212.88 871.81,-239.9 894,-272.56 922.91,-315.1 891.09,-348.91 930,-382.56 939.8,-391.02 1088.62,-414.57 1188.16,-429.52"/>
<polygon fill="#757575" stroke="#757575" points="1187.82,-433.01 1198.23,-431.03 1188.86,-426.08 1187.82,-433.01"/>
</g>
<!-- ../../fn/modules/fn.js -->
<g id="node40" class="node">
<title>../../fn/modules/fn.js</title>
<path fill="none" stroke="#c6c5fe" d="M1086.33,-333.06C1086.33,-333.06 967.67,-333.06 967.67,-333.06 963.83,-333.06 960,-329.22 960,-325.39 960,-325.39 960,-317.72 960,-317.72 960,-313.89 963.83,-310.06 967.67,-310.06 967.67,-310.06 1086.33,-310.06 1086.33,-310.06 1090.17,-310.06 1094,-313.89 1094,-317.72 1094,-317.72 1094,-325.39 1094,-325.39 1094,-329.22 1090.17,-333.06 1086.33,-333.06"/>
<text text-anchor="middle" x="1027" y="-317.86" font-family="Arial" font-size="14.00" fill="#c6c5fe">../../fn/modules/fn.js</text>
</g>
<!-- ../../fn/modules/stream.js&#45;&gt;../../fn/modules/fn.js -->
<g id="edge59" class="edge">
<title>../../fn/modules/stream.js&#45;&gt;../../fn/modules/fn.js</title>
<path fill="none" stroke="#757575" d="M810.58,-198.07C852.27,-221.97 948.38,-277.06 996.88,-304.86"/>
<polygon fill="#757575" stroke="#757575" points="995.22,-307.95 1005.64,-309.88 998.7,-301.87 995.22,-307.95"/>
</g>
<!-- ../../fn/modules/lists/core.js -->
<g id="node43" class="node">
<title>../../fn/modules/lists/core.js</title>
<path fill="none" stroke="#c6c5fe" d="M1107.33,-374.06C1107.33,-374.06 946.67,-374.06 946.67,-374.06 942.83,-374.06 939,-370.22 939,-366.39 939,-366.39 939,-358.72 939,-358.72 939,-354.89 942.83,-351.06 946.67,-351.06 946.67,-351.06 1107.33,-351.06 1107.33,-351.06 1111.17,-351.06 1115,-354.89 1115,-358.72 1115,-358.72 1115,-366.39 1115,-366.39 1115,-370.22 1111.17,-374.06 1107.33,-374.06"/>
<text text-anchor="middle" x="1027" y="-358.86" font-family="Arial" font-size="14.00" fill="#c6c5fe">../../fn/modules/lists/core.js</text>
</g>
<!-- ../../fn/modules/stream.js&#45;&gt;../../fn/modules/lists/core.js -->
<g id="edge60" class="edge">
<title>../../fn/modules/stream.js&#45;&gt;../../fn/modules/lists/core.js</title>
<path fill="none" stroke="#757575" d="M808.46,-198.16C830.71,-213.22 868.76,-241.29 894,-272.56 915.73,-299.47 902.52,-320.55 930,-341.56 932.13,-343.19 934.37,-344.7 936.69,-346.1"/>
<polygon fill="#757575" stroke="#757575" points="935.49,-349.42 945.97,-350.95 938.73,-343.22 935.49,-349.42"/>
</g>
<!-- ../../fn/modules/now.js -->
<g id="node46" class="node">
<title>../../fn/modules/now.js</title>
<path fill="none" stroke="#cfffac" d="M1343.83,-171.06C1343.83,-171.06 1212.17,-171.06 1212.17,-171.06 1208.33,-171.06 1204.5,-167.22 1204.5,-163.39 1204.5,-163.39 1204.5,-155.72 1204.5,-155.72 1204.5,-151.89 1208.33,-148.06 1212.17,-148.06 1212.17,-148.06 1343.83,-148.06 1343.83,-148.06 1347.67,-148.06 1351.5,-151.89 1351.5,-155.72 1351.5,-155.72 1351.5,-163.39 1351.5,-163.39 1351.5,-167.22 1347.67,-171.06 1343.83,-171.06"/>
<text text-anchor="middle" x="1278" y="-155.86" font-family="Arial" font-size="14.00" fill="#cfffac">../../fn/modules/now.js</text>
</g>
<!-- ../../fn/modules/stream.js&#45;&gt;../../fn/modules/now.js -->
<g id="edge63" class="edge">
<title>../../fn/modules/stream.js&#45;&gt;../../fn/modules/now.js</title>
<path fill="none" stroke="#757575" d="M872.2,-182.02C961.59,-177.06 1104.1,-169.15 1193.99,-164.16"/>
<polygon fill="#757575" stroke="#757575" points="1194.36,-167.65 1204.15,-163.6 1193.97,-160.66 1194.36,-167.65"/>
</g>
<!-- ../../fn/modules/privates.js -->
<g id="node48" class="node">
<title>../../fn/modules/privates.js</title>
<path fill="none" stroke="#cfffac" d="M1104.33,-59.06C1104.33,-59.06 949.67,-59.06 949.67,-59.06 945.83,-59.06 942,-55.22 942,-51.39 942,-51.39 942,-43.72 942,-43.72 942,-39.89 945.83,-36.06 949.67,-36.06 949.67,-36.06 1104.33,-36.06 1104.33,-36.06 1108.17,-36.06 1112,-39.89 1112,-43.72 1112,-43.72 1112,-51.39 1112,-51.39 1112,-55.22 1108.17,-59.06 1104.33,-59.06"/>
<text text-anchor="middle" x="1027" y="-43.86" font-family="Arial" font-size="14.00" fill="#cfffac">../../fn/modules/privates.js</text>
</g>
<!-- ../../fn/modules/stream.js&#45;&gt;../../fn/modules/privates.js -->
<g id="edge64" class="edge">
<title>../../fn/modules/stream.js&#45;&gt;../../fn/modules/privates.js</title>
<path fill="none" stroke="#757575" d="M821.19,-174.92C843.28,-165.43 872.81,-150.37 894,-130.56 915.89,-110.1 905.9,-91.35 930,-73.56 935.6,-69.42 941.82,-65.95 948.32,-63.02"/>
<polygon fill="#757575" stroke="#757575" points="950.04,-66.1 958.01,-59.12 947.42,-59.61 950.04,-66.1"/>
</g>
<!-- ../../fn/modules/timer.js -->
<g id="node50" class="node">
<title>../../fn/modules/timer.js</title>
<path fill="none" stroke="#c6c5fe" d="M1095.83,-139.06C1095.83,-139.06 958.17,-139.06 958.17,-139.06 954.33,-139.06 950.5,-135.22 950.5,-131.39 950.5,-131.39 950.5,-123.72 950.5,-123.72 950.5,-119.89 954.33,-116.06 958.17,-116.06 958.17,-116.06 1095.83,-116.06 1095.83,-116.06 1099.67,-116.06 1103.5,-119.89 1103.5,-123.72 1103.5,-123.72 1103.5,-131.39 1103.5,-131.39 1103.5,-135.22 1099.67,-139.06 1095.83,-139.06"/>
<text text-anchor="middle" x="1027" y="-123.86" font-family="Arial" font-size="14.00" fill="#c6c5fe">../../fn/modules/timer.js</text>
</g>
<!-- ../../fn/modules/stream.js&#45;&gt;../../fn/modules/timer.js -->
<g id="edge65" class="edge">
<title>../../fn/modules/stream.js&#45;&gt;../../fn/modules/timer.js</title>
<path fill="none" stroke="#757575" d="M836.47,-175.04C874.68,-165.47 929.2,-151.81 969.96,-141.6"/>
<polygon fill="#757575" stroke="#757575" points="970.9,-144.97 979.75,-139.14 969.2,-138.18 970.9,-144.97"/>
</g>
<!-- ../../fn/modules/stream.wait.js&#45;&gt;../../fn/modules/stream.js -->
<g id="edge68" class="edge">
<title>../../fn/modules/stream.wait.js&#45;&gt;../../fn/modules/stream.js</title>
<path fill="none" stroke="#757575" d="M617.14,-173.72C643.03,-175.66 670.99,-177.75 696.67,-179.68"/>
<polygon fill="#757575" stroke="#757575" points="696.53,-183.18 706.76,-180.43 697.05,-176.2 696.53,-183.18"/>
</g>
<!-- ../../fn/modules/choke.js -->
<g id="node34" class="node">
<title>../../fn/modules/choke.js</title>
<path fill="none" stroke="#c6c5fe" d="M861.33,-68.06C861.33,-68.06 717.67,-68.06 717.67,-68.06 713.83,-68.06 710,-64.22 710,-60.39 710,-60.39 710,-52.72 710,-52.72 710,-48.89 713.83,-45.06 717.67,-45.06 717.67,-45.06 861.33,-45.06 861.33,-45.06 865.17,-45.06 869,-48.89 869,-52.72 869,-52.72 869,-60.39 869,-60.39 869,-64.22 865.17,-68.06 861.33,-68.06"/>
<text text-anchor="middle" x="789.5" y="-52.86" font-family="Arial" font-size="14.00" fill="#c6c5fe">../../fn/modules/choke.js</text>
</g>
<!-- ../../fn/modules/stream.wait.js&#45;&gt;../../fn/modules/choke.js -->
<g id="edge67" class="edge">
<title>../../fn/modules/stream.wait.js&#45;&gt;../../fn/modules/choke.js</title>
<path fill="none" stroke="#757575" d="M549.57,-154.99C597.84,-135.1 696.62,-94.41 750.83,-72.08"/>
<polygon fill="#757575" stroke="#757575" points="752.49,-75.18 760.41,-68.13 749.83,-68.7 752.49,-75.18"/>
</g>
<!-- ../../dom/modules/identify.js -->
<g id="node22" class="node">
<title>../../dom/modules/identify.js</title>
<path fill="none" stroke="#cfffac" d="M325.33,-768.06C325.33,-768.06 159.67,-768.06 159.67,-768.06 155.83,-768.06 152,-764.22 152,-760.39 152,-760.39 152,-752.72 152,-752.72 152,-748.89 155.83,-745.06 159.67,-745.06 159.67,-745.06 325.33,-745.06 325.33,-745.06 329.17,-745.06 333,-748.89 333,-752.72 333,-752.72 333,-760.39 333,-760.39 333,-764.22 329.17,-768.06 325.33,-768.06"/>
<text text-anchor="middle" x="242.5" y="-752.86" font-family="Arial" font-size="14.00" fill="#cfffac">../../dom/modules/identify.js</text>
</g>
<!-- ../../dom/modules/rect.js -->
<g id="node24" class="node">
<title>../../dom/modules/rect.js</title>
<path fill="none" stroke="#cfffac" d="M593.33,-687.06C593.33,-687.06 447.67,-687.06 447.67,-687.06 443.83,-687.06 440,-683.22 440,-679.39 440,-679.39 440,-671.72 440,-671.72 440,-667.89 443.83,-664.06 447.67,-664.06 447.67,-664.06 593.33,-664.06 593.33,-664.06 597.17,-664.06 601,-667.89 601,-671.72 601,-671.72 601,-679.39 601,-679.39 601,-683.22 597.17,-687.06 593.33,-687.06"/>
<text text-anchor="middle" x="520.5" y="-671.86" font-family="Arial" font-size="14.00" fill="#cfffac">../../dom/modules/rect.js</text>
</g>
<!-- ../../dom/modules/request.js&#45;&gt;../../fn/modules/id.js -->
<g id="edge25" class="edge">
<title>../../dom/modules/request.js&#45;&gt;../../fn/modules/id.js</title>
<path fill="none" stroke="#757575" d="M857.55,-848.07C870.1,-851.69 882.79,-856.41 894,-862.56 913.3,-873.14 910.49,-886.37 930,-896.56 936.33,-899.86 943.16,-902.62 950.16,-904.92"/>
<polygon fill="#757575" stroke="#757575" points="949.2,-908.29 959.78,-907.79 951.19,-901.58 949.2,-908.29"/>
</g>
<!-- ../../fn/modules/choose.js -->
<g id="node26" class="node">
<title>../../fn/modules/choose.js</title>
<path fill="none" stroke="#c6c5fe" d="M1102.83,-887.06C1102.83,-887.06 951.17,-887.06 951.17,-887.06 947.33,-887.06 943.5,-883.22 943.5,-879.39 943.5,-879.39 943.5,-871.72 943.5,-871.72 943.5,-867.89 947.33,-864.06 951.17,-864.06 951.17,-864.06 1102.83,-864.06 1102.83,-864.06 1106.67,-864.06 1110.5,-867.89 1110.5,-871.72 1110.5,-871.72 1110.5,-879.39 1110.5,-879.39 1110.5,-883.22 1106.67,-887.06 1102.83,-887.06"/>
<text text-anchor="middle" x="1027" y="-871.86" font-family="Arial" font-size="14.00" fill="#c6c5fe">../../fn/modules/choose.js</text>
</g>
<!-- ../../dom/modules/request.js&#45;&gt;../../fn/modules/choose.js -->
<g id="edge24" class="edge">
<title>../../dom/modules/request.js&#45;&gt;../../fn/modules/choose.js</title>
<path fill="none" stroke="#757575" d="M860.2,-848.1C887.26,-852.58 918.4,-857.74 946.34,-862.37"/>
<polygon fill="#757575" stroke="#757575" points="946.04,-865.86 956.48,-864.04 947.18,-858.96 946.04,-865.86"/>
</g>
<!-- ../../dom/modules/request.js&#45;&gt;../../fn/modules/nothing.js -->
<g id="edge26" class="edge">
<title>../../dom/modules/request.js&#45;&gt;../../fn/modules/nothing.js</title>
<path fill="none" stroke="#757575" d="M803.16,-824.71C825.97,-802.49 873.48,-751.95 894,-698.56 925.85,-615.66 870.52,-366.5 930,-300.56 946.96,-281.75 1087.24,-261.74 1184.16,-249.96"/>
<polygon fill="#757575" stroke="#757575" points="1184.77,-253.41 1194.28,-248.74 1183.93,-246.46 1184.77,-253.41"/>
</g>
<!-- ../../fn/modules/lists/rest.js -->
<g id="node35" class="node">
<title>../../fn/modules/lists/rest.js</title>
<path fill="none" stroke="#cfffac" d="M1356.83,-926.06C1356.83,-926.06 1199.17,-926.06 1199.17,-926.06 1195.33,-926.06 1191.5,-922.22 1191.5,-918.39 1191.5,-918.39 1191.5,-910.72 1191.5,-910.72 1191.5,-906.89 1195.33,-903.06 1199.17,-903.06 1199.17,-903.06 1356.83,-903.06 1356.83,-903.06 1360.67,-903.06 1364.5,-906.89 1364.5,-910.72 1364.5,-910.72 1364.5,-918.39 1364.5,-918.39 1364.5,-922.22 1360.67,-926.06 1356.83,-926.06"/>
<text text-anchor="middle" x="1278" y="-910.86" font-family="Arial" font-size="14.00" fill="#cfffac">../../fn/modules/lists/rest.js</text>
</g>
<!-- ../../fn/modules/choose.js&#45;&gt;../../fn/modules/lists/rest.js -->
<g id="edge35" class="edge">
<title>../../fn/modules/choose.js&#45;&gt;../../fn/modules/lists/rest.js</title>
<path fill="none" stroke="#757575" d="M1101.7,-887.1C1130.56,-891.62 1163.81,-896.83 1193.55,-901.49"/>
<polygon fill="#757575" stroke="#757575" points="1193.07,-904.95 1203.49,-903.04 1194.15,-898.04 1193.07,-904.95"/>
</g>
<!-- ../../fn/modules/nothing.js&#45;&gt;../../fn/modules/noop.js -->
<g id="edge54" class="edge">
<title>../../fn/modules/nothing.js&#45;&gt;../../fn/modules/noop.js</title>
<path fill="none" stroke="#757575" d="M1361.82,-239.56C1381.29,-239.56 1402.07,-239.56 1421.67,-239.56"/>
<polygon fill="#757575" stroke="#757575" points="1421.8,-243.06 1431.8,-239.56 1421.8,-236.06 1421.8,-243.06"/>
</g>
<!-- ../../dom/modules/select.js -->
<g id="node28" class="node">
<title>../../dom/modules/select.js</title>
<path fill="none" stroke="#c6c5fe" d="M1106.33,-454.06C1106.33,-454.06 947.67,-454.06 947.67,-454.06 943.83,-454.06 940,-450.22 940,-446.39 940,-446.39 940,-438.72 940,-438.72 940,-434.89 943.83,-431.06 947.67,-431.06 947.67,-431.06 1106.33,-431.06 1106.33,-431.06 1110.17,-431.06 1114,-434.89 1114,-438.72 1114,-438.72 1114,-446.39 1114,-446.39 1114,-450.22 1110.17,-454.06 1106.33,-454.06"/>
<text text-anchor="middle" x="1027" y="-438.86" font-family="Arial" font-size="14.00" fill="#c6c5fe">../../dom/modules/select.js</text>
</g>
<!-- ../../dom/modules/select.js&#45;&gt;../../fn/modules/curry.js -->
<g id="edge27" class="edge">
<title>../../dom/modules/select.js&#45;&gt;../../fn/modules/curry.js</title>
<path fill="none" stroke="#757575" d="M1094.94,-454.07C1187.46,-471.01 1348.42,-504.45 1396,-539.56 1452.01,-580.89 1486.33,-659.56 1500.28,-697.31"/>
<polygon fill="#757575" stroke="#757575" points="1497.01,-698.57 1503.67,-706.81 1503.6,-696.21 1497.01,-698.57"/>
</g>
<!-- ../../dom/modules/select.js&#45;&gt;../../fn/modules/to&#45;array.js -->
<g id="edge28" class="edge">
<title>../../dom/modules/select.js&#45;&gt;../../fn/modules/to&#45;array.js</title>
<path fill="none" stroke="#757575" d="M1114.04,-442.56C1136.45,-442.56 1160.7,-442.56 1183.48,-442.56"/>
<polygon fill="#757575" stroke="#757575" points="1183.48,-446.06 1193.48,-442.56 1183.48,-439.06 1183.48,-446.06"/>
</g>
<!-- ../../dom/modules/traversal.js -->
<g id="node30" class="node">
<title>../../dom/modules/traversal.js</title>
<path fill="none" stroke="#cfffac" d="M330.33,-647.06C330.33,-647.06 154.67,-647.06 154.67,-647.06 150.83,-647.06 147,-643.22 147,-639.39 147,-639.39 147,-631.72 147,-631.72 147,-627.89 150.83,-624.06 154.67,-624.06 154.67,-624.06 330.33,-624.06 330.33,-624.06 334.17,-624.06 338,-627.89 338,-631.72 338,-631.72 338,-639.39 338,-639.39 338,-643.22 334.17,-647.06 330.33,-647.06"/>
<text text-anchor="middle" x="242.5" y="-631.86" font-family="Arial" font-size="14.00" fill="#cfffac">../../dom/modules/traversal.js</text>
</g>
<!-- ../../dom/polyfills/element.scrollto.js -->
<g id="node31" class="node">
<title>../../dom/polyfills/element.scrollto.js</title>
<path fill="none" stroke="#c6c5fe" d="M348.33,-606.06C348.33,-606.06 136.67,-606.06 136.67,-606.06 132.83,-606.06 129,-602.22 129,-598.39 129,-598.39 129,-590.72 129,-590.72 129,-586.89 132.83,-583.06 136.67,-583.06 136.67,-583.06 348.33,-583.06 348.33,-583.06 352.17,-583.06 356,-586.89 356,-590.72 356,-590.72 356,-598.39 356,-598.39 356,-602.22 352.17,-606.06 348.33,-606.06"/>
<text text-anchor="middle" x="242.5" y="-590.86" font-family="Arial" font-size="14.00" fill="#c6c5fe">../../dom/polyfills/element.scrollto.js</text>
</g>
<!-- ../../dom/polyfills/element.scrollto.js&#45;&gt;../../dom/modules/animate.js -->
<g id="edge29" class="edge">
<title>../../dom/polyfills/element.scrollto.js&#45;&gt;../../dom/modules/animate.js</title>
<path fill="none" stroke="#757575" d="M356.16,-594.15C375.96,-594.08 396.48,-594 416.02,-593.93"/>
<polygon fill="#757575" stroke="#757575" points="416.15,-597.43 426.13,-593.9 416.12,-590.43 416.15,-597.43"/>
</g>
<!-- ../../dom/polyfills/element.scrollto.js&#45;&gt;../../fn/modules/noop.js -->
<g id="edge33" class="edge">
<title>../../dom/polyfills/element.scrollto.js&#45;&gt;../../fn/modules/noop.js</title>
<path fill="none" stroke="#757575" d="M273.89,-582.85C298.86,-571.88 333.64,-553.3 356,-527.56 383.17,-496.27 361.74,-469.86 392,-441.56 651.59,-198.78 805.82,-248.37 1160,-218.56 1264.52,-209.76 1291.57,-208.81 1396,-218.56 1412.73,-220.12 1430.69,-222.97 1447.2,-226.08"/>
<polygon fill="#757575" stroke="#757575" points="1446.79,-229.57 1457.27,-228.04 1448.12,-222.69 1446.79,-229.57"/>
</g>
<!-- ../../dom/polyfills/element.scrollto.js&#45;&gt;../../dom/modules/features.js -->
<g id="edge30" class="edge">
<title>../../dom/polyfills/element.scrollto.js&#45;&gt;../../dom/modules/features.js</title>
<path fill="none" stroke="#757575" d="M267.99,-582.84C317.5,-559.16 429.56,-505.57 485.87,-478.64"/>
<polygon fill="#757575" stroke="#757575" points="487.55,-481.72 495.06,-474.24 484.53,-475.4 487.55,-481.72"/>
</g>
<!-- ../../dom/polyfills/element.scrollto.js&#45;&gt;../../dom/modules/rect.js -->
<g id="edge31" class="edge">
<title>../../dom/polyfills/element.scrollto.js&#45;&gt;../../dom/modules/rect.js</title>
<path fill="none" stroke="#757575" d="M336.98,-606.1C343.6,-608.44 350.02,-611.23 356,-614.56 376.91,-626.17 371.02,-643.08 392,-654.56 403.61,-660.91 416.63,-665.44 429.8,-668.67"/>
<polygon fill="#757575" stroke="#757575" points="429.37,-672.16 439.88,-670.89 430.87,-665.32 429.37,-672.16"/>
</g>
<!-- ../../fn/modules/maths/exponential&#45;out.js -->
<g id="node32" class="node">
<title>../../fn/modules/maths/exponential&#45;out.js</title>
<path fill="none" stroke="#c6c5fe" d="M641.33,-646.06C641.33,-646.06 399.67,-646.06 399.67,-646.06 395.83,-646.06 392,-642.22 392,-638.39 392,-638.39 392,-630.72 392,-630.72 392,-626.89 395.83,-623.06 399.67,-623.06 399.67,-623.06 641.33,-623.06 641.33,-623.06 645.17,-623.06 649,-626.89 649,-630.72 649,-630.72 649,-638.39 649,-638.39 649,-642.22 645.17,-646.06 641.33,-646.06"/>
<text text-anchor="middle" x="520.5" y="-630.86" font-family="Arial" font-size="14.00" fill="#c6c5fe">../../fn/modules/maths/exponential&#45;out.js</text>
</g>
<!-- ../../dom/polyfills/element.scrollto.js&#45;&gt;../../fn/modules/maths/exponential&#45;out.js -->
<g id="edge32" class="edge">
<title>../../dom/polyfills/element.scrollto.js&#45;&gt;../../fn/modules/maths/exponential&#45;out.js</title>
<path fill="none" stroke="#757575" d="M322.96,-606.07C356.44,-610.93 395.57,-616.6 430.06,-621.59"/>
<polygon fill="#757575" stroke="#757575" points="429.72,-625.08 440.12,-623.05 430.73,-618.15 429.72,-625.08"/>
</g>
<!-- ../../fn/modules/maths/exponential&#45;out.js&#45;&gt;../../fn/modules/curry.js -->
<g id="edge48" class="edge">
<title>../../fn/modules/maths/exponential&#45;out.js&#45;&gt;../../fn/modules/curry.js</title>
<path fill="none" stroke="#757575" d="M630.84,-646.1C637.16,-648.48 643.26,-651.27 649,-654.56 670.92,-667.12 662.3,-687.46 685,-698.56 812.68,-760.97 1238.81,-738.44 1422.29,-725.31"/>
<polygon fill="#757575" stroke="#757575" points="1422.71,-728.79 1432.43,-724.58 1422.2,-721.81 1422.71,-728.79"/>
</g>
<!-- ../../fn/modules/choke.js&#45;&gt;../../fn/modules/noop.js -->
<g id="edge34" class="edge">
<title>../../fn/modules/choke.js&#45;&gt;../../fn/modules/noop.js</title>
<path fill="none" stroke="#757575" d="M827.36,-45.05C928.05,-16.01 1212.47,49.88 1396,-68.56 1452.37,-104.94 1486.35,-181.02 1500.22,-218.2"/>
<polygon fill="#757575" stroke="#757575" points="1497.06,-219.77 1503.74,-227.99 1503.65,-217.4 1497.06,-219.77"/>
</g>
<!-- ../../fn/modules/compose.js -->
<g id="node36" class="node">
<title>../../fn/modules/compose.js</title>
<path fill="none" stroke="#cfffac" d="M1359.83,-372.06C1359.83,-372.06 1196.17,-372.06 1196.17,-372.06 1192.33,-372.06 1188.5,-368.22 1188.5,-364.39 1188.5,-364.39 1188.5,-356.72 1188.5,-356.72 1188.5,-352.89 1192.33,-349.06 1196.17,-349.06 1196.17,-349.06 1359.83,-349.06 1359.83,-349.06 1363.67,-349.06 1367.5,-352.89 1367.5,-356.72 1367.5,-356.72 1367.5,-364.39 1367.5,-364.39 1367.5,-368.22 1363.67,-372.06 1359.83,-372.06"/>
<text text-anchor="middle" x="1278" y="-356.86" font-family="Arial" font-size="14.00" fill="#cfffac">../../fn/modules/compose.js</text>
</g>
<!-- ../../fn/modules/maths/cubic&#45;bezier.js&#45;&gt;../../fn/modules/curry.js -->
<g id="edge47" class="edge">
<title>../../fn/modules/maths/cubic&#45;bezier.js&#45;&gt;../../fn/modules/curry.js</title>
<path fill="none" stroke="#757575" d="M1355.33,-613.12C1369.26,-616.72 1383.36,-621.43 1396,-627.56 1433.48,-645.73 1469.43,-678.83 1489.94,-699.7"/>
<polygon fill="#757575" stroke="#757575" points="1487.56,-702.27 1497.02,-707.04 1492.6,-697.42 1487.56,-702.27"/>
</g>
<!-- ../../fn/modules/normalisers.js&#45;&gt;../../fn/modules/maths/cubic&#45;bezier.js -->
<g id="edge52" class="edge">
<title>../../fn/modules/normalisers.js&#45;&gt;../../fn/modules/maths/cubic&#45;bezier.js</title>
<path fill="none" stroke="#757575" d="M1098.02,-572.09C1128.78,-577.15 1165.07,-583.13 1196.91,-588.37"/>
<polygon fill="#757575" stroke="#757575" points="1196.64,-591.87 1207.07,-590.04 1197.77,-584.96 1196.64,-591.87"/>
</g>
<!-- ../../fn/modules/normalisers.js&#45;&gt;../../fn/modules/types.js -->
<g id="edge53" class="edge">
<title>../../fn/modules/normalisers.js&#45;&gt;../../fn/modules/types.js</title>
<path fill="none" stroke="#757575" d="M1124.27,-560.56C1145.91,-560.56 1168.75,-560.56 1189.99,-560.56"/>
<polygon fill="#757575" stroke="#757575" points="1190.27,-564.06 1200.27,-560.56 1190.27,-557.06 1190.27,-564.06"/>
</g>
<!-- ../../fn/modules/types.js&#45;&gt;../../fn/modules/noop.js -->
<g id="edge72" class="edge">
<title>../../fn/modules/types.js&#45;&gt;../../fn/modules/noop.js</title>
<path fill="none" stroke="#757575" d="M1297.24,-548.83C1322.13,-532.12 1366.93,-499.36 1396,-462.56 1448.08,-396.63 1485.29,-302.48 1500.23,-260.8"/>
<polygon fill="#757575" stroke="#757575" points="1503.6,-261.76 1503.62,-251.16 1497,-259.43 1503.6,-261.76"/>
</g>
<!-- ../../fn/modules/fn.js&#45;&gt;../../fn/modules/noop.js -->
<g id="edge42" class="edge">
<title>../../fn/modules/fn.js&#45;&gt;../../fn/modules/noop.js</title>
<path fill="none" stroke="#757575" d="M1093.44,-310.04C1114.67,-306.33 1138.33,-302.24 1160,-298.56 1264.81,-280.77 1291.23,-277.61 1396,-259.56 1408.31,-257.44 1421.38,-255.14 1434.07,-252.88"/>
<polygon fill="#757575" stroke="#757575" points="1434.91,-256.28 1444.14,-251.08 1433.68,-249.39 1434.91,-256.28"/>
</g>
<!-- ../../fn/modules/fn.js&#45;&gt;../../fn/modules/nothing.js -->
<g id="edge43" class="edge">
<title>../../fn/modules/fn.js&#45;&gt;../../fn/modules/nothing.js</title>
<path fill="none" stroke="#757575" d="M1086.37,-310.05C1099.17,-306.36 1112.36,-301.61 1124,-295.56 1142.48,-285.95 1141.31,-274.74 1160,-265.56 1169.58,-260.85 1180.02,-256.99 1190.59,-253.81"/>
<polygon fill="#757575" stroke="#757575" points="1191.62,-257.16 1200.31,-251.09 1189.73,-250.42 1191.62,-257.16"/>
</g>
<!-- ../../fn/modules/fn.js&#45;&gt;../../fn/modules/to&#45;array.js -->
<g id="edge45" class="edge">
<title>../../fn/modules/fn.js&#45;&gt;../../fn/modules/to&#45;array.js</title>
<path fill="none" stroke="#757575" d="M1094.17,-326.77C1104.94,-329.93 1115.37,-334.63 1124,-341.56 1154.4,-365.97 1129.26,-397.57 1160,-421.56 1167.17,-427.15 1175.33,-431.44 1183.94,-434.71"/>
<polygon fill="#757575" stroke="#757575" points="1182.84,-438.03 1193.43,-437.87 1185.05,-431.39 1182.84,-438.03"/>
</g>
<!-- ../../fn/modules/fn.js&#45;&gt;../../fn/modules/compose.js -->
<g id="edge40" class="edge">
<title>../../fn/modules/fn.js&#45;&gt;../../fn/modules/compose.js</title>
<path fill="none" stroke="#757575" d="M1094.07,-331.91C1124.5,-336.67 1160.94,-342.38 1193.26,-347.44"/>
<polygon fill="#757575" stroke="#757575" points="1192.73,-350.9 1203.15,-348.99 1193.81,-343.98 1192.73,-350.9"/>
</g>
<!-- ../../fn/modules/latest.js -->
<g id="node41" class="node">
<title>../../fn/modules/latest.js</title>
<path fill="none" stroke="#cfffac" d="M1347.83,-331.06C1347.83,-331.06 1208.17,-331.06 1208.17,-331.06 1204.33,-331.06 1200.5,-327.22 1200.5,-323.39 1200.5,-323.39 1200.5,-315.72 1200.5,-315.72 1200.5,-311.89 1204.33,-308.06 1208.17,-308.06 1208.17,-308.06 1347.83,-308.06 1347.83,-308.06 1351.67,-308.06 1355.5,-311.89 1355.5,-315.72 1355.5,-315.72 1355.5,-323.39 1355.5,-323.39 1355.5,-327.22 1351.67,-331.06 1347.83,-331.06"/>
<text text-anchor="middle" x="1278" y="-315.86" font-family="Arial" font-size="14.00" fill="#cfffac">../../fn/modules/latest.js</text>
</g>
<!-- ../../fn/modules/fn.js&#45;&gt;../../fn/modules/latest.js -->
<g id="edge41" class="edge">
<title>../../fn/modules/fn.js&#45;&gt;../../fn/modules/latest.js</title>
<path fill="none" stroke="#757575" d="M1094.07,-321.03C1123.59,-320.79 1158.76,-320.51 1190.35,-320.25"/>
<polygon fill="#757575" stroke="#757575" points="1190.49,-323.75 1200.46,-320.17 1190.44,-316.75 1190.49,-323.75"/>
</g>
<!-- ../../fn/modules/strings/prepend.js -->
<g id="node42" class="node">
<title>../../fn/modules/strings/prepend.js</title>
<path fill="none" stroke="#c6c5fe" d="M1378.33,-413.06C1378.33,-413.06 1177.67,-413.06 1177.67,-413.06 1173.83,-413.06 1170,-409.22 1170,-405.39 1170,-405.39 1170,-397.72 1170,-397.72 1170,-393.89 1173.83,-390.06 1177.67,-390.06 1177.67,-390.06 1378.33,-390.06 1378.33,-390.06 1382.17,-390.06 1386,-393.89 1386,-397.72 1386,-397.72 1386,-405.39 1386,-405.39 1386,-409.22 1382.17,-413.06 1378.33,-413.06"/>
<text text-anchor="middle" x="1278" y="-397.86" font-family="Arial" font-size="14.00" fill="#c6c5fe">../../fn/modules/strings/prepend.js</text>
</g>
<!-- ../../fn/modules/fn.js&#45;&gt;../../fn/modules/strings/prepend.js -->
<g id="edge44" class="edge">
<title>../../fn/modules/fn.js&#45;&gt;../../fn/modules/strings/prepend.js</title>
<path fill="none" stroke="#757575" d="M1094.01,-329.64C1104.45,-332.5 1114.82,-336.35 1124,-341.56 1144.52,-353.18 1139.32,-369.22 1160,-380.56 1163.98,-382.74 1168.13,-384.7 1172.4,-386.46"/>
<polygon fill="#757575" stroke="#757575" points="1171.34,-389.8 1181.93,-390.01 1173.78,-383.24 1171.34,-389.8"/>
</g>
<!-- ../../fn/modules/strings/prepend.js&#45;&gt;../../fn/modules/curry.js -->
<g id="edge69" class="edge">
<title>../../fn/modules/strings/prepend.js&#45;&gt;../../fn/modules/curry.js</title>
<path fill="none" stroke="#757575" d="M1383.44,-413.15C1387.89,-415.56 1392.11,-418.34 1396,-421.56 1483.19,-493.59 1502.25,-641.17 1506.37,-696.74"/>
<polygon fill="#757575" stroke="#757575" points="1502.89,-697.11 1507.03,-706.86 1509.87,-696.66 1502.89,-697.11"/>
</g>
<!-- ../../fn/modules/lists/core.js&#45;&gt;../../fn/modules/to&#45;array.js -->
<g id="edge46" class="edge">
<title>../../fn/modules/lists/core.js&#45;&gt;../../fn/modules/to&#45;array.js</title>
<path fill="none" stroke="#757575" d="M1088.11,-374.1C1100.41,-377.75 1112.96,-382.48 1124,-388.56 1143.01,-399.02 1140.55,-411.93 1160,-421.56 1167.44,-425.24 1175.44,-428.29 1183.63,-430.8"/>
<polygon fill="#757575" stroke="#757575" points="1182.74,-434.19 1193.31,-433.52 1184.63,-427.45 1182.74,-434.19"/>
</g>
<!-- ../../fn/modules/maths/mod.js -->
<g id="node44" class="node">
<title>../../fn/modules/maths/mod.js</title>
<path fill="none" stroke="#c6c5fe" d="M1365.83,-846.06C1365.83,-846.06 1190.17,-846.06 1190.17,-846.06 1186.33,-846.06 1182.5,-842.22 1182.5,-838.39 1182.5,-838.39 1182.5,-830.72 1182.5,-830.72 1182.5,-826.89 1186.33,-823.06 1190.17,-823.06 1190.17,-823.06 1365.83,-823.06 1365.83,-823.06 1369.67,-823.06 1373.5,-826.89 1373.5,-830.72 1373.5,-830.72 1373.5,-838.39 1373.5,-838.39 1373.5,-842.22 1369.67,-846.06 1365.83,-846.06"/>
<text text-anchor="middle" x="1278" y="-830.86" font-family="Arial" font-size="14.00" fill="#c6c5fe">../../fn/modules/maths/mod.js</text>
</g>
<!-- ../../fn/modules/maths/mod.js&#45;&gt;../../fn/modules/curry.js -->
<g id="edge49" class="edge">
<title>../../fn/modules/maths/mod.js&#45;&gt;../../fn/modules/curry.js</title>
<path fill="none" stroke="#757575" d="M1355,-823.02C1369.02,-819.41 1383.25,-814.7 1396,-808.56 1433.16,-790.66 1468.96,-758.19 1489.57,-737.53"/>
<polygon fill="#757575" stroke="#757575" points="1492.21,-739.84 1496.7,-730.25 1487.2,-734.95 1492.21,-739.84"/>
</g>
<!-- ../../fn/modules/maths/wrap.js -->
<g id="node45" class="node">
<title>../../fn/modules/maths/wrap.js</title>
<path fill="none" stroke="#c6c5fe" d="M1116.33,-846.06C1116.33,-846.06 937.67,-846.06 937.67,-846.06 933.83,-846.06 930,-842.22 930,-838.39 930,-838.39 930,-830.72 930,-830.72 930,-826.89 933.83,-823.06 937.67,-823.06 937.67,-823.06 1116.33,-823.06 1116.33,-823.06 1120.17,-823.06 1124,-826.89 1124,-830.72 1124,-830.72 1124,-838.39 1124,-838.39 1124,-842.22 1120.17,-846.06 1116.33,-846.06"/>
<text text-anchor="middle" x="1027" y="-830.86" font-family="Arial" font-size="14.00" fill="#c6c5fe">../../fn/modules/maths/wrap.js</text>
</g>
<!-- ../../fn/modules/maths/wrap.js&#45;&gt;../../fn/modules/curry.js -->
<g id="edge50" class="edge">
<title>../../fn/modules/maths/wrap.js&#45;&gt;../../fn/modules/curry.js</title>
<path fill="none" stroke="#757575" d="M1097.27,-846.07C1188.93,-860 1344.89,-878.75 1396,-854.56 1446.55,-830.63 1481.85,-771.32 1497.84,-739.5"/>
<polygon fill="#757575" stroke="#757575" points="1501.12,-740.75 1502.35,-730.22 1494.83,-737.69 1501.12,-740.75"/>
</g>
<!-- ../../fn/modules/maths/wrap.js&#45;&gt;../../fn/modules/maths/mod.js -->
<g id="edge51" class="edge">
<title>../../fn/modules/maths/wrap.js&#45;&gt;../../fn/modules/maths/mod.js</title>
<path fill="none" stroke="#757575" d="M1124.27,-834.56C1139.87,-834.56 1156.1,-834.56 1171.9,-834.56"/>
<polygon fill="#757575" stroke="#757575" points="1172.22,-838.06 1182.22,-834.56 1172.22,-831.06 1172.22,-838.06"/>
</g>
<!-- ../../fn/modules/parse&#45;value.js -->
<g id="node47" class="node">
<title>../../fn/modules/parse&#45;value.js</title>
<path fill="none" stroke="#c6c5fe" d="M331.83,-727.06C331.83,-727.06 153.17,-727.06 153.17,-727.06 149.33,-727.06 145.5,-723.22 145.5,-719.39 145.5,-719.39 145.5,-711.72 145.5,-711.72 145.5,-707.89 149.33,-704.06 153.17,-704.06 153.17,-704.06 331.83,-704.06 331.83,-704.06 335.67,-704.06 339.5,-707.89 339.5,-711.72 339.5,-711.72 339.5,-719.39 339.5,-719.39 339.5,-723.22 335.67,-727.06 331.83,-727.06"/>
<text text-anchor="middle" x="242.5" y="-711.86" font-family="Arial" font-size="14.00" fill="#c6c5fe">../../fn/modules/parse&#45;value.js</text>
</g>
<!-- ../../fn/modules/parse&#45;value.js&#45;&gt;../../fn/modules/curry.js -->
<g id="edge55" class="edge">
<title>../../fn/modules/parse&#45;value.js&#45;&gt;../../fn/modules/curry.js</title>
<path fill="none" stroke="#757575" d="M338.83,-727.09C447.5,-739.21 630.52,-756.56 788.5,-756.56 788.5,-756.56 788.5,-756.56 1028,-756.56 1191.67,-756.56 1233.6,-762.97 1396,-742.56 1414.56,-740.22 1434.61,-736.34 1452.52,-732.38"/>
<polygon fill="#757575" stroke="#757575" points="1453.53,-735.74 1462.51,-730.11 1451.98,-728.91 1453.53,-735.74"/>
</g>
<!-- ../../fn/modules/request&#45;tick.js -->
<g id="node49" class="node">
<title>../../fn/modules/request&#45;tick.js</title>
<path fill="none" stroke="#cfffac" d="M1366.83,-130.06C1366.83,-130.06 1189.17,-130.06 1189.17,-130.06 1185.33,-130.06 1181.5,-126.22 1181.5,-122.39 1181.5,-122.39 1181.5,-114.72 1181.5,-114.72 1181.5,-110.89 1185.33,-107.06 1189.17,-107.06 1189.17,-107.06 1366.83,-107.06 1366.83,-107.06 1370.67,-107.06 1374.5,-110.89 1374.5,-114.72 1374.5,-114.72 1374.5,-122.39 1374.5,-122.39 1374.5,-126.22 1370.67,-130.06 1366.83,-130.06"/>
<text text-anchor="middle" x="1278" y="-114.86" font-family="Arial" font-size="14.00" fill="#cfffac">../../fn/modules/request&#45;tick.js</text>
</g>
<!-- ../../fn/modules/timer.js&#45;&gt;../../fn/modules/now.js -->
<g id="edge70" class="edge">
<title>../../fn/modules/timer.js&#45;&gt;../../fn/modules/now.js</title>
<path fill="none" stroke="#757575" d="M1103.72,-137.29C1132.26,-140.96 1164.87,-145.15 1194.04,-148.89"/>
<polygon fill="#757575" stroke="#757575" points="1193.83,-152.4 1204.2,-150.2 1194.73,-145.45 1193.83,-152.4"/>
</g>
<!-- ../../fn/modules/timer.js&#45;&gt;../../fn/modules/request&#45;tick.js -->
<g id="edge71" class="edge">
<title>../../fn/modules/timer.js&#45;&gt;../../fn/modules/request&#45;tick.js</title>
<path fill="none" stroke="#757575" d="M1103.72,-124.82C1125.04,-124.05 1148.61,-123.2 1171.33,-122.38"/>
<polygon fill="#757575" stroke="#757575" points="1171.49,-125.87 1181.36,-122.01 1171.24,-118.88 1171.49,-125.87"/>
</g>
<!-- slide&#45;show.js -->
<g id="node51" class="node">
<title>slide&#45;show.js</title>
<path fill="none" stroke="#c6c5fe" d="M85.33,-707.06C85.33,-707.06 7.67,-707.06 7.67,-707.06 3.83,-707.06 0,-703.22 0,-699.39 0,-699.39 0,-691.72 0,-691.72 0,-687.89 3.83,-684.06 7.67,-684.06 7.67,-684.06 85.33,-684.06 85.33,-684.06 89.17,-684.06 93,-687.89 93,-691.72 93,-691.72 93,-699.39 93,-699.39 93,-703.22 89.17,-707.06 85.33,-707.06"/>
<text text-anchor="middle" x="46.5" y="-691.86" font-family="Arial" font-size="14.00" fill="#c6c5fe">slide&#45;show.js</text>
</g>
<!-- slide&#45;show.js&#45;&gt;../../fn/modules/id.js -->
<g id="edge81" class="edge">
<title>slide&#45;show.js&#45;&gt;../../fn/modules/id.js</title>
<path fill="none" stroke="#757575" d="M51.11,-707.12C59.79,-732.79 84.5,-794.45 129,-821.56 274.87,-910.43 724.5,-875.42 894,-896.56 912.14,-898.82 931.64,-901.59 949.93,-904.33"/>
<polygon fill="#757575" stroke="#757575" points="949.55,-907.81 959.96,-905.85 950.6,-900.89 949.55,-907.81"/>
</g>
<!-- slide&#45;show.js&#45;&gt;../../dom/modules/create.js -->
<g id="edge73" class="edge">
<title>slide&#45;show.js&#45;&gt;../../dom/modules/create.js</title>
<path fill="none" stroke="#757575" d="M47.36,-707.06C47.57,-746.63 54.11,-877.89 129,-937.56 222.07,-1011.71 369.9,-1002.83 454.46,-989.71"/>
<polygon fill="#757575" stroke="#757575" points="455.14,-993.14 464.45,-988.09 454.02,-986.23 455.14,-993.14"/>
</g>
<!-- slide&#45;show.js&#45;&gt;../../dom/modules/element.js -->
<g id="edge74" class="edge">
<title>slide&#45;show.js&#45;&gt;../../dom/modules/element.js</title>
<path fill="none" stroke="#757575" d="M48.75,-707.37C53,-741.48 70.12,-840.86 129,-890.56 133.61,-894.45 138.7,-897.79 144.08,-900.64"/>
<polygon fill="#757575" stroke="#757575" points="142.84,-903.93 153.38,-905.02 145.82,-897.6 142.84,-903.93"/>
</g>
<!-- slide&#45;show.js&#45;&gt;../../dom/modules/events.js -->
<g id="edge75" class="edge">
<title>slide&#45;show.js&#45;&gt;../../dom/modules/events.js</title>
<path fill="none" stroke="#757575" d="M48.09,-683.69C51.41,-621.51 69.83,-333.94 129,-272.56 133.43,-267.96 138.49,-264.11 143.97,-260.88"/>
<polygon fill="#757575" stroke="#757575" points="145.58,-263.99 152.88,-256.31 142.39,-257.76 145.58,-263.99"/>
</g>
<!-- slide&#45;show.js&#45;&gt;../../dom/modules/identify.js -->
<g id="edge76" class="edge">
<title>slide&#45;show.js&#45;&gt;../../dom/modules/identify.js</title>
<path fill="none" stroke="#757575" d="M67.28,-707.17C83.4,-716.15 107.01,-728.26 129,-735.56 137.15,-738.26 145.76,-740.65 154.43,-742.76"/>
<polygon fill="#757575" stroke="#757575" points="153.71,-746.18 164.24,-745.01 155.28,-739.36 153.71,-746.18"/>
</g>
<!-- slide&#45;show.js&#45;&gt;../../dom/modules/rect.js -->
<g id="edge77" class="edge">
<title>slide&#45;show.js&#45;&gt;../../dom/modules/rect.js</title>
<path fill="none" stroke="#757575" d="M93.19,-693.62C170.69,-690.34 329.28,-683.62 429.66,-679.36"/>
<polygon fill="#757575" stroke="#757575" points="429.95,-682.85 439.79,-678.93 429.65,-675.86 429.95,-682.85"/>
</g>
<!-- slide&#45;show.js&#45;&gt;../../dom/modules/select.js -->
<g id="edge78" class="edge">
<title>slide&#45;show.js&#45;&gt;../../dom/modules/select.js</title>
<path fill="none" stroke="#757575" d="M52.67,-684.04C63.69,-660.56 91.58,-606.61 129,-573.56 227.02,-486.97 265.84,-476.02 392,-441.56 607.4,-382.72 671.41,-403.96 894,-421.56 914.38,-423.17 936.37,-426.16 956.45,-429.39"/>
<polygon fill="#757575" stroke="#757575" points="956.01,-432.86 966.44,-431.04 957.15,-425.95 956.01,-432.86"/>
</g>
<!-- slide&#45;show.js&#45;&gt;../../dom/modules/traversal.js -->
<g id="edge79" class="edge">
<title>slide&#45;show.js&#45;&gt;../../dom/modules/traversal.js</title>
<path fill="none" stroke="#757575" d="M72.06,-684.04C88.03,-676.87 109.44,-667.85 129,-661.56 143.11,-657.02 158.45,-652.93 173.14,-649.42"/>
<polygon fill="#757575" stroke="#757575" points="174.24,-652.76 183.18,-647.08 172.65,-645.94 174.24,-652.76"/>
</g>
<!-- slide&#45;show.js&#45;&gt;../../dom/polyfills/element.scrollto.js -->
<g id="edge80" class="edge">
<title>slide&#45;show.js&#45;&gt;../../dom/polyfills/element.scrollto.js</title>
<path fill="none" stroke="#757575" d="M55.48,-683.95C68.57,-665.92 96.43,-631.48 129,-614.56 132.51,-612.73 136.16,-611.07 139.91,-609.56"/>
<polygon fill="#757575" stroke="#757575" points="141.19,-612.81 149.38,-606.09 138.79,-606.24 141.19,-612.81"/>
</g>
<!-- slide&#45;show.js&#45;&gt;../../fn/modules/maths/wrap.js -->
<g id="edge82" class="edge">
<title>slide&#45;show.js&#45;&gt;../../fn/modules/maths/wrap.js</title>
<path fill="none" stroke="#757575" d="M55.04,-707.35C67.72,-725.97 95.25,-761.62 129,-776.56 440.32,-914.33 555.16,-782.6 894,-815.56 910.32,-817.14 927.7,-819.31 944.32,-821.6"/>
<polygon fill="#757575" stroke="#757575" points="944.16,-825.12 954.56,-823.05 945.14,-818.19 944.16,-825.12"/>
</g>
<!-- slide&#45;show.js&#45;&gt;../../fn/modules/parse&#45;value.js -->
<g id="edge83" class="edge">
<title>slide&#45;show.js&#45;&gt;../../fn/modules/parse&#45;value.js</title>
<path fill="none" stroke="#757575" d="M93.48,-700.3C106.22,-701.61 120.61,-703.09 135.28,-704.61"/>
<polygon fill="#757575" stroke="#757575" points="135.16,-708.11 145.47,-705.66 135.88,-701.15 135.16,-708.11"/>
</g>
<!-- slide&#45;show.js&#45;&gt;../../fn/modules/privates.js -->
<g id="edge84" class="edge">
<title>slide&#45;show.js&#45;&gt;../../fn/modules/privates.js</title>
<path fill="none" stroke="#757575" d="M47.92,-683.78C50.47,-618.03 66.08,-296.77 129,-225.56 222.1,-120.17 812.44,-91.1 894,-76.56 918.35,-72.22 945.02,-66.53 967.98,-61.35"/>
<polygon fill="#757575" stroke="#757575" points="968.94,-64.72 977.91,-59.09 967.38,-57.9 968.94,-64.72"/>
</g>
</g>
</svg>
