<?xml version="1.0" encoding="UTF-8" standalone="no"?>
<!DOCTYPE svg PUBLIC "-//W3C//DTD SVG 1.1//EN"
 "http://www.w3.org/Graphics/SVG/1.1/DTD/svg11.dtd">
<!-- Generated by graphviz version 2.44.1 (20200629.0846)
 -->
<!-- Title: G Pages: 1 -->
<svg width="1745pt" height="822pt"
 viewBox="0.00 0.00 1745.20 821.65" xmlns="http://www.w3.org/2000/svg" xmlns:xlink="http://www.w3.org/1999/xlink">
<g id="graph0" class="graph" transform="scale(1 1) rotate(0) translate(21.6 800.05)">
<title>G</title>
<polygon fill="#111111" stroke="transparent" points="-21.6,21.6 -21.6,-800.05 1723.6,-800.05 1723.6,21.6 -21.6,21.6"/>
<!-- ../../dom/modules/assign.js -->
<g id="node1" class="node">
<title>../../dom/modules/assign.js</title>
<path fill="none" stroke="#c6c5fe" d="M1035.33,-737.45C1035.33,-737.45 872.67,-737.45 872.67,-737.45 868.83,-737.45 865,-733.62 865,-729.78 865,-729.78 865,-722.12 865,-722.12 865,-718.28 868.83,-714.45 872.67,-714.45 872.67,-714.45 1035.33,-714.45 1035.33,-714.45 1039.17,-714.45 1043,-718.28 1043,-722.12 1043,-722.12 1043,-729.78 1043,-729.78 1043,-733.62 1039.17,-737.45 1035.33,-737.45"/>
<text text-anchor="middle" x="954" y="-722.25" font-family="Arial" font-size="14.00" fill="#c6c5fe">../../dom/modules/assign.js</text>
</g>
<!-- ../../fn/modules/curry.js -->
<g id="node2" class="node">
<title>../../fn/modules/curry.js</title>
<path fill="none" stroke="#c6c5fe" d="M1488.83,-498.45C1488.83,-498.45 1352.17,-498.45 1352.17,-498.45 1348.33,-498.45 1344.5,-494.62 1344.5,-490.78 1344.5,-490.78 1344.5,-483.12 1344.5,-483.12 1344.5,-479.28 1348.33,-475.45 1352.17,-475.45 1352.17,-475.45 1488.83,-475.45 1488.83,-475.45 1492.67,-475.45 1496.5,-479.28 1496.5,-483.12 1496.5,-483.12 1496.5,-490.78 1496.5,-490.78 1496.5,-494.62 1492.67,-498.45 1488.83,-498.45"/>
<text text-anchor="middle" x="1420.5" y="-483.25" font-family="Arial" font-size="14.00" fill="#c6c5fe">../../fn/modules/curry.js</text>
</g>
<!-- ../../dom/modules/assign.js&#45;&gt;../../fn/modules/curry.js -->
<g id="edge1" class="edge">
<title>../../dom/modules/assign.js&#45;&gt;../../fn/modules/curry.js</title>
<path fill="none" stroke="#757575" d="M1015.2,-737.5C1101.8,-752.63 1255.79,-773.53 1298,-739.95 1353.68,-695.65 1301.48,-647.24 1334,-583.95 1350.05,-552.71 1378.41,-523.43 1398.05,-505.38"/>
<polygon fill="#757575" stroke="#757575" points="1400.51,-507.87 1405.61,-498.58 1395.83,-502.66 1400.51,-507.87"/>
</g>
<!-- ../../fn/modules/id.js -->
<g id="node3" class="node">
<title>../../fn/modules/id.js</title>
<path fill="none" stroke="#cfffac" d="M1249.33,-656.45C1249.33,-656.45 1130.67,-656.45 1130.67,-656.45 1126.83,-656.45 1123,-652.62 1123,-648.78 1123,-648.78 1123,-641.12 1123,-641.12 1123,-637.28 1126.83,-633.45 1130.67,-633.45 1130.67,-633.45 1249.33,-633.45 1249.33,-633.45 1253.17,-633.45 1257,-637.28 1257,-641.12 1257,-641.12 1257,-648.78 1257,-648.78 1257,-652.62 1253.17,-656.45 1249.33,-656.45"/>
<text text-anchor="middle" x="1190" y="-641.25" font-family="Arial" font-size="14.00" fill="#cfffac">../../fn/modules/id.js</text>
</g>
<!-- ../../dom/modules/assign.js&#45;&gt;../../fn/modules/id.js -->
<g id="edge2" class="edge">
<title>../../dom/modules/assign.js&#45;&gt;../../fn/modules/id.js</title>
<path fill="none" stroke="#757575" d="M975.47,-714.33C1000.04,-700.85 1042.85,-678.82 1082,-665.95 1091.88,-662.7 1102.45,-659.88 1112.95,-657.45"/>
<polygon fill="#757575" stroke="#757575" points="1113.97,-660.82 1122.98,-655.25 1112.46,-653.98 1113.97,-660.82"/>
</g>
<!-- ../../fn/modules/noop.js -->
<g id="node4" class="node">
<title>../../fn/modules/noop.js</title>
<path fill="none" stroke="#cfffac" d="M1489.33,-296.45C1489.33,-296.45 1351.67,-296.45 1351.67,-296.45 1347.83,-296.45 1344,-292.62 1344,-288.78 1344,-288.78 1344,-281.12 1344,-281.12 1344,-277.28 1347.83,-273.45 1351.67,-273.45 1351.67,-273.45 1489.33,-273.45 1489.33,-273.45 1493.17,-273.45 1497,-277.28 1497,-281.12 1497,-281.12 1497,-288.78 1497,-288.78 1497,-292.62 1493.17,-296.45 1489.33,-296.45"/>
<text text-anchor="middle" x="1420.5" y="-281.25" font-family="Arial" font-size="14.00" fill="#cfffac">../../fn/modules/noop.js</text>
</g>
<!-- ../../dom/modules/assign.js&#45;&gt;../../fn/modules/noop.js -->
<g id="edge3" class="edge">
<title>../../dom/modules/assign.js&#45;&gt;../../fn/modules/noop.js</title>
<path fill="none" stroke="#757575" d="M1043.27,-733.18C1132.44,-738.43 1262.01,-739.73 1298,-706.95 1337.88,-670.64 1318.37,-518.57 1334,-466.95 1352.6,-405.52 1388.58,-338.46 1407.39,-305.53"/>
<polygon fill="#757575" stroke="#757575" points="1410.45,-307.23 1412.42,-296.82 1404.39,-303.73 1410.45,-307.23"/>
</g>
<!-- ../../fn/modules/overload.js -->
<g id="node5" class="node">
<title>../../fn/modules/overload.js</title>
<path fill="none" stroke="#cfffac" d="M1269.83,-697.45C1269.83,-697.45 1110.17,-697.45 1110.17,-697.45 1106.33,-697.45 1102.5,-693.62 1102.5,-689.78 1102.5,-689.78 1102.5,-682.12 1102.5,-682.12 1102.5,-678.28 1106.33,-674.45 1110.17,-674.45 1110.17,-674.45 1269.83,-674.45 1269.83,-674.45 1273.67,-674.45 1277.5,-678.28 1277.5,-682.12 1277.5,-682.12 1277.5,-689.78 1277.5,-689.78 1277.5,-693.62 1273.67,-697.45 1269.83,-697.45"/>
<text text-anchor="middle" x="1190" y="-682.25" font-family="Arial" font-size="14.00" fill="#cfffac">../../fn/modules/overload.js</text>
</g>
<!-- ../../dom/modules/assign.js&#45;&gt;../../fn/modules/overload.js -->
<g id="edge4" class="edge">
<title>../../dom/modules/assign.js&#45;&gt;../../fn/modules/overload.js</title>
<path fill="none" stroke="#757575" d="M1022.37,-714.44C1050.27,-709.67 1082.79,-704.11 1111.66,-699.17"/>
<polygon fill="#757575" stroke="#757575" points="1112.43,-702.59 1121.7,-697.46 1111.26,-695.69 1112.43,-702.59"/>
</g>
<!-- ../../fn/modules/cache.js -->
<g id="node16" class="node">
<title>../../fn/modules/cache.js</title>
<path fill="none" stroke="#cfffac" d="M1694.33,-498.45C1694.33,-498.45 1550.67,-498.45 1550.67,-498.45 1546.83,-498.45 1543,-494.62 1543,-490.78 1543,-490.78 1543,-483.12 1543,-483.12 1543,-479.28 1546.83,-475.45 1550.67,-475.45 1550.67,-475.45 1694.33,-475.45 1694.33,-475.45 1698.17,-475.45 1702,-479.28 1702,-483.12 1702,-483.12 1702,-490.78 1702,-490.78 1702,-494.62 1698.17,-498.45 1694.33,-498.45"/>
<text text-anchor="middle" x="1622.5" y="-483.25" font-family="Arial" font-size="14.00" fill="#cfffac">../../fn/modules/cache.js</text>
</g>
<!-- ../../fn/modules/curry.js&#45;&gt;../../fn/modules/cache.js -->
<g id="edge27" class="edge">
<title>../../fn/modules/curry.js&#45;&gt;../../fn/modules/cache.js</title>
<path fill="none" stroke="#757575" d="M1496.54,-486.95C1508.32,-486.95 1520.59,-486.95 1532.64,-486.95"/>
<polygon fill="#757575" stroke="#757575" points="1532.7,-490.45 1542.7,-486.95 1532.7,-483.45 1532.7,-490.45"/>
</g>
<!-- ../../dom/modules/create.js -->
<g id="node6" class="node">
<title>../../dom/modules/create.js</title>
<path fill="none" stroke="#c6c5fe" d="M785.83,-678.45C785.83,-678.45 625.17,-678.45 625.17,-678.45 621.33,-678.45 617.5,-674.62 617.5,-670.78 617.5,-670.78 617.5,-663.12 617.5,-663.12 617.5,-659.28 621.33,-655.45 625.17,-655.45 625.17,-655.45 785.83,-655.45 785.83,-655.45 789.67,-655.45 793.5,-659.28 793.5,-663.12 793.5,-663.12 793.5,-670.78 793.5,-670.78 793.5,-674.62 789.67,-678.45 785.83,-678.45"/>
<text text-anchor="middle" x="705.5" y="-663.25" font-family="Arial" font-size="14.00" fill="#c6c5fe">../../dom/modules/create.js</text>
</g>
<!-- ../../dom/modules/create.js&#45;&gt;../../dom/modules/assign.js -->
<g id="edge5" class="edge">
<title>../../dom/modules/create.js&#45;&gt;../../dom/modules/assign.js</title>
<path fill="none" stroke="#757575" d="M754.61,-678.47C794.69,-688.06 851.92,-701.76 894.62,-711.98"/>
<polygon fill="#757575" stroke="#757575" points="894.05,-715.44 904.59,-714.36 895.68,-708.63 894.05,-715.44"/>
</g>
<!-- ../../dom/modules/create.js&#45;&gt;../../fn/modules/id.js -->
<g id="edge6" class="edge">
<title>../../dom/modules/create.js&#45;&gt;../../fn/modules/id.js</title>
<path fill="none" stroke="#757575" d="M793.6,-662.98C884.59,-658.83 1025.93,-652.39 1112.69,-648.43"/>
<polygon fill="#757575" stroke="#757575" points="1112.9,-651.93 1122.73,-647.97 1112.58,-644.93 1112.9,-651.93"/>
</g>
<!-- ../../dom/modules/create.js&#45;&gt;../../fn/modules/overload.js -->
<g id="edge7" class="edge">
<title>../../dom/modules/create.js&#45;&gt;../../fn/modules/overload.js</title>
<path fill="none" stroke="#757575" d="M793.6,-670.38C877.67,-673.69 1004.73,-678.7 1092,-682.13"/>
<polygon fill="#757575" stroke="#757575" points="1092.04,-685.64 1102.17,-682.53 1092.31,-678.64 1092.04,-685.64"/>
</g>
<!-- ../../fn/modules/to&#45;type.js -->
<g id="node7" class="node">
<title>../../fn/modules/to&#45;type.js</title>
<path fill="none" stroke="#cfffac" d="M1028.33,-778.45C1028.33,-778.45 879.67,-778.45 879.67,-778.45 875.83,-778.45 872,-774.62 872,-770.78 872,-770.78 872,-763.12 872,-763.12 872,-759.28 875.83,-755.45 879.67,-755.45 879.67,-755.45 1028.33,-755.45 1028.33,-755.45 1032.17,-755.45 1036,-759.28 1036,-763.12 1036,-763.12 1036,-770.78 1036,-770.78 1036,-774.62 1032.17,-778.45 1028.33,-778.45"/>
<text text-anchor="middle" x="954" y="-763.25" font-family="Arial" font-size="14.00" fill="#cfffac">../../fn/modules/to&#45;type.js</text>
</g>
<!-- ../../dom/modules/create.js&#45;&gt;../../fn/modules/to&#45;type.js -->
<g id="edge8" class="edge">
<title>../../dom/modules/create.js&#45;&gt;../../fn/modules/to&#45;type.js</title>
<path fill="none" stroke="#757575" d="M725.41,-678.73C753.97,-696.05 810.3,-728.33 862,-746.95 867.89,-749.07 874.08,-751.01 880.35,-752.77"/>
<polygon fill="#757575" stroke="#757575" points="879.66,-756.21 890.22,-755.39 881.46,-749.45 879.66,-756.21"/>
</g>
<!-- ../../dom/modules/element.js -->
<g id="node8" class="node">
<title>../../dom/modules/element.js</title>
<path fill="none" stroke="#c6c5fe" d="M538.83,-578.45C538.83,-578.45 366.17,-578.45 366.17,-578.45 362.33,-578.45 358.5,-574.62 358.5,-570.78 358.5,-570.78 358.5,-563.12 358.5,-563.12 358.5,-559.28 362.33,-555.45 366.17,-555.45 366.17,-555.45 538.83,-555.45 538.83,-555.45 542.67,-555.45 546.5,-559.28 546.5,-563.12 546.5,-563.12 546.5,-570.78 546.5,-570.78 546.5,-574.62 542.67,-578.45 538.83,-578.45"/>
<text text-anchor="middle" x="452.5" y="-563.25" font-family="Arial" font-size="14.00" fill="#c6c5fe">../../dom/modules/element.js</text>
</g>
<!-- ../../dom/modules/element.js&#45;&gt;../../dom/modules/create.js -->
<g id="edge9" class="edge">
<title>../../dom/modules/element.js&#45;&gt;../../dom/modules/create.js</title>
<path fill="none" stroke="#757575" d="M482.78,-578.62C528.13,-596.68 615.34,-631.43 665.82,-651.54"/>
<polygon fill="#757575" stroke="#757575" points="664.82,-654.91 675.4,-655.36 667.41,-648.41 664.82,-654.91"/>
</g>
<!-- ../../dom/modules/request&#45;template.js -->
<g id="node9" class="node">
<title>../../dom/modules/request&#45;template.js</title>
<path fill="none" stroke="#c6c5fe" d="M818.33,-578.45C818.33,-578.45 592.67,-578.45 592.67,-578.45 588.83,-578.45 585,-574.62 585,-570.78 585,-570.78 585,-563.12 585,-563.12 585,-559.28 588.83,-555.45 592.67,-555.45 592.67,-555.45 818.33,-555.45 818.33,-555.45 822.17,-555.45 826,-559.28 826,-563.12 826,-563.12 826,-570.78 826,-570.78 826,-574.62 822.17,-578.45 818.33,-578.45"/>
<text text-anchor="middle" x="705.5" y="-563.25" font-family="Arial" font-size="14.00" fill="#c6c5fe">../../dom/modules/request&#45;template.js</text>
</g>
<!-- ../../dom/modules/element.js&#45;&gt;../../dom/modules/request&#45;template.js -->
<g id="edge10" class="edge">
<title>../../dom/modules/element.js&#45;&gt;../../dom/modules/request&#45;template.js</title>
<path fill="none" stroke="#757575" d="M546.61,-566.95C555.73,-566.95 565.09,-566.95 574.49,-566.95"/>
<polygon fill="#757575" stroke="#757575" points="574.69,-570.45 584.69,-566.95 574.69,-563.45 574.69,-570.45"/>
</g>
<!-- ../../dom/modules/request&#45;template.js&#45;&gt;../../fn/modules/cache.js -->
<g id="edge19" class="edge">
<title>../../dom/modules/request&#45;template.js&#45;&gt;../../fn/modules/cache.js</title>
<path fill="none" stroke="#757575" d="M787.89,-555.43C811.74,-552.34 837.88,-549.23 862,-546.95 1147.92,-519.95 1221.91,-542.59 1507,-507.95 1523.12,-505.99 1540.39,-503.2 1556.51,-500.28"/>
<polygon fill="#757575" stroke="#757575" points="1557.18,-503.72 1566.38,-498.46 1555.91,-496.83 1557.18,-503.72"/>
</g>
<!-- ../../dom/modules/parse.js -->
<g id="node17" class="node">
<title>../../dom/modules/parse.js</title>
<path fill="none" stroke="#cfffac" d="M1032.83,-578.45C1032.83,-578.45 875.17,-578.45 875.17,-578.45 871.33,-578.45 867.5,-574.62 867.5,-570.78 867.5,-570.78 867.5,-563.12 867.5,-563.12 867.5,-559.28 871.33,-555.45 875.17,-555.45 875.17,-555.45 1032.83,-555.45 1032.83,-555.45 1036.67,-555.45 1040.5,-559.28 1040.5,-563.12 1040.5,-563.12 1040.5,-570.78 1040.5,-570.78 1040.5,-574.62 1036.67,-578.45 1032.83,-578.45"/>
<text text-anchor="middle" x="954" y="-563.25" font-family="Arial" font-size="14.00" fill="#cfffac">../../dom/modules/parse.js</text>
</g>
<!-- ../../dom/modules/request&#45;template.js&#45;&gt;../../dom/modules/parse.js -->
<g id="edge17" class="edge">
<title>../../dom/modules/request&#45;template.js&#45;&gt;../../dom/modules/parse.js</title>
<path fill="none" stroke="#757575" d="M826.14,-566.95C836.54,-566.95 846.97,-566.95 857.13,-566.95"/>
<polygon fill="#757575" stroke="#757575" points="857.2,-570.45 867.2,-566.95 857.2,-563.45 857.2,-570.45"/>
</g>
<!-- ../../dom/modules/request.js -->
<g id="node19" class="node">
<title>../../dom/modules/request.js</title>
<path fill="none" stroke="#c6c5fe" d="M1038.33,-619.45C1038.33,-619.45 869.67,-619.45 869.67,-619.45 865.83,-619.45 862,-615.62 862,-611.78 862,-611.78 862,-604.12 862,-604.12 862,-600.28 865.83,-596.45 869.67,-596.45 869.67,-596.45 1038.33,-596.45 1038.33,-596.45 1042.17,-596.45 1046,-600.28 1046,-604.12 1046,-604.12 1046,-611.78 1046,-611.78 1046,-615.62 1042.17,-619.45 1038.33,-619.45"/>
<text text-anchor="middle" x="954" y="-604.25" font-family="Arial" font-size="14.00" fill="#c6c5fe">../../dom/modules/request.js</text>
</g>
<!-- ../../dom/modules/request&#45;template.js&#45;&gt;../../dom/modules/request.js -->
<g id="edge18" class="edge">
<title>../../dom/modules/request&#45;template.js&#45;&gt;../../dom/modules/request.js</title>
<path fill="none" stroke="#757575" d="M775.82,-578.48C806.27,-583.55 842.2,-589.52 873.71,-594.76"/>
<polygon fill="#757575" stroke="#757575" points="873.33,-598.25 883.77,-596.44 874.48,-591.34 873.33,-598.25"/>
</g>
<!-- ../../dom/modules/event.js -->
<g id="node10" class="node">
<title>../../dom/modules/event.js</title>
<path fill="none" stroke="#cfffac" d="M530.83,-458.45C530.83,-458.45 374.17,-458.45 374.17,-458.45 370.33,-458.45 366.5,-454.62 366.5,-450.78 366.5,-450.78 366.5,-443.12 366.5,-443.12 366.5,-439.28 370.33,-435.45 374.17,-435.45 374.17,-435.45 530.83,-435.45 530.83,-435.45 534.67,-435.45 538.5,-439.28 538.5,-443.12 538.5,-443.12 538.5,-450.78 538.5,-450.78 538.5,-454.62 534.67,-458.45 530.83,-458.45"/>
<text text-anchor="middle" x="452.5" y="-443.25" font-family="Arial" font-size="14.00" fill="#cfffac">../../dom/modules/event.js</text>
</g>
<!-- ../../dom/modules/events.js -->
<g id="node11" class="node">
<title>../../dom/modules/events.js</title>
<path fill="none" stroke="#c6c5fe" d="M306.33,-417.45C306.33,-417.45 142.67,-417.45 142.67,-417.45 138.83,-417.45 135,-413.62 135,-409.78 135,-409.78 135,-402.12 135,-402.12 135,-398.28 138.83,-394.45 142.67,-394.45 142.67,-394.45 306.33,-394.45 306.33,-394.45 310.17,-394.45 314,-398.28 314,-402.12 314,-402.12 314,-409.78 314,-409.78 314,-413.62 310.17,-417.45 306.33,-417.45"/>
<text text-anchor="middle" x="224.5" y="-402.25" font-family="Arial" font-size="14.00" fill="#c6c5fe">../../dom/modules/events.js</text>
</g>
<!-- ../../dom/modules/events.js&#45;&gt;../../dom/modules/event.js -->
<g id="edge11" class="edge">
<title>../../dom/modules/events.js&#45;&gt;../../dom/modules/event.js</title>
<path fill="none" stroke="#757575" d="M289.06,-417.48C316.73,-422.5 349.34,-428.42 378.05,-433.63"/>
<polygon fill="#757575" stroke="#757575" points="377.57,-437.1 388.03,-435.44 378.82,-430.21 377.57,-437.1"/>
</g>
<!-- ../../dom/modules/features.js -->
<g id="node12" class="node">
<title>../../dom/modules/features.js</title>
<path fill="none" stroke="#c6c5fe" d="M538.83,-417.45C538.83,-417.45 366.17,-417.45 366.17,-417.45 362.33,-417.45 358.5,-413.62 358.5,-409.78 358.5,-409.78 358.5,-402.12 358.5,-402.12 358.5,-398.28 362.33,-394.45 366.17,-394.45 366.17,-394.45 538.83,-394.45 538.83,-394.45 542.67,-394.45 546.5,-398.28 546.5,-402.12 546.5,-402.12 546.5,-409.78 546.5,-409.78 546.5,-413.62 542.67,-417.45 538.83,-417.45"/>
<text text-anchor="middle" x="452.5" y="-402.25" font-family="Arial" font-size="14.00" fill="#c6c5fe">../../dom/modules/features.js</text>
</g>
<!-- ../../dom/modules/events.js&#45;&gt;../../dom/modules/features.js -->
<g id="edge12" class="edge">
<title>../../dom/modules/events.js&#45;&gt;../../dom/modules/features.js</title>
<path fill="none" stroke="#757575" d="M314.17,-405.95C325.25,-405.95 336.65,-405.95 347.93,-405.95"/>
<polygon fill="#757575" stroke="#757575" points="348.24,-409.45 358.24,-405.95 348.24,-402.45 348.24,-409.45"/>
</g>
<!-- ../../fn/modules/stream.js -->
<g id="node13" class="node">
<title>../../fn/modules/stream.js</title>
<path fill="none" stroke="#c6c5fe" d="M780.33,-296.45C780.33,-296.45 630.67,-296.45 630.67,-296.45 626.83,-296.45 623,-292.62 623,-288.78 623,-288.78 623,-281.12 623,-281.12 623,-277.28 626.83,-273.45 630.67,-273.45 630.67,-273.45 780.33,-273.45 780.33,-273.45 784.17,-273.45 788,-277.28 788,-281.12 788,-281.12 788,-288.78 788,-288.78 788,-292.62 784.17,-296.45 780.33,-296.45"/>
<text text-anchor="middle" x="705.5" y="-281.25" font-family="Arial" font-size="14.00" fill="#c6c5fe">../../fn/modules/stream.js</text>
</g>
<!-- ../../dom/modules/events.js&#45;&gt;../../fn/modules/stream.js -->
<g id="edge13" class="edge">
<title>../../dom/modules/events.js&#45;&gt;../../fn/modules/stream.js</title>
<path fill="none" stroke="#757575" d="M279.05,-394.4C292.45,-391.42 306.77,-388.14 320,-384.95 439.28,-356.2 578.44,-319.12 652.26,-299.17"/>
<polygon fill="#757575" stroke="#757575" points="653.5,-302.46 662.24,-296.47 651.67,-295.71 653.5,-302.46"/>
</g>
<!-- ../../fn/modules/stream.wait.js -->
<g id="node14" class="node">
<title>../../fn/modules/stream.wait.js</title>
<path fill="none" stroke="#c6c5fe" d="M541.33,-296.45C541.33,-296.45 363.67,-296.45 363.67,-296.45 359.83,-296.45 356,-292.62 356,-288.78 356,-288.78 356,-281.12 356,-281.12 356,-277.28 359.83,-273.45 363.67,-273.45 363.67,-273.45 541.33,-273.45 541.33,-273.45 545.17,-273.45 549,-277.28 549,-281.12 549,-281.12 549,-288.78 549,-288.78 549,-292.62 545.17,-296.45 541.33,-296.45"/>
<text text-anchor="middle" x="452.5" y="-281.25" font-family="Arial" font-size="14.00" fill="#c6c5fe">../../fn/modules/stream.wait.js</text>
</g>
<!-- ../../dom/modules/events.js&#45;&gt;../../fn/modules/stream.wait.js -->
<g id="edge14" class="edge">
<title>../../dom/modules/events.js&#45;&gt;../../fn/modules/stream.wait.js</title>
<path fill="none" stroke="#757575" d="M301.92,-394.39C308.31,-391.84 314.44,-388.73 320,-384.95 343.56,-368.96 334.51,-350.64 356,-331.95 371.18,-318.75 390.71,-308.28 408.16,-300.6"/>
<polygon fill="#757575" stroke="#757575" points="409.74,-303.74 417.59,-296.63 407.02,-297.29 409.74,-303.74"/>
</g>
<!-- ../../dom/modules/prefix.js -->
<g id="node15" class="node">
<title>../../dom/modules/prefix.js</title>
<path fill="none" stroke="#cfffac" d="M783.83,-417.45C783.83,-417.45 627.17,-417.45 627.17,-417.45 623.33,-417.45 619.5,-413.62 619.5,-409.78 619.5,-409.78 619.5,-402.12 619.5,-402.12 619.5,-398.28 623.33,-394.45 627.17,-394.45 627.17,-394.45 783.83,-394.45 783.83,-394.45 787.67,-394.45 791.5,-398.28 791.5,-402.12 791.5,-402.12 791.5,-409.78 791.5,-409.78 791.5,-413.62 787.67,-417.45 783.83,-417.45"/>
<text text-anchor="middle" x="705.5" y="-402.25" font-family="Arial" font-size="14.00" fill="#cfffac">../../dom/modules/prefix.js</text>
</g>
<!-- ../../dom/modules/features.js&#45;&gt;../../dom/modules/prefix.js -->
<g id="edge15" class="edge">
<title>../../dom/modules/features.js&#45;&gt;../../dom/modules/prefix.js</title>
<path fill="none" stroke="#757575" d="M546.61,-405.95C567.02,-405.95 588.65,-405.95 609.15,-405.95"/>
<polygon fill="#757575" stroke="#757575" points="609.43,-409.45 619.43,-405.95 609.43,-402.45 609.43,-409.45"/>
</g>
<!-- ../../dom/modules/features.js&#45;&gt;../../fn/modules/cache.js -->
<g id="edge16" class="edge">
<title>../../dom/modules/features.js&#45;&gt;../../fn/modules/cache.js</title>
<path fill="none" stroke="#757575" d="M521.26,-417.5C541.69,-420.65 564.21,-423.78 585,-425.95 747.94,-442.95 789.18,-446.95 953,-446.95 953,-446.95 953,-446.95 1191,-446.95 1331.73,-446.95 1367.25,-450.37 1507,-466.95 1521.82,-468.71 1537.63,-471.12 1552.62,-473.66"/>
<polygon fill="#757575" stroke="#757575" points="1552.39,-477.17 1562.84,-475.43 1553.59,-470.28 1552.39,-477.17"/>
</g>
<!-- ../../fn/modules/stream.js&#45;&gt;../../fn/modules/noop.js -->
<g id="edge38" class="edge">
<title>../../fn/modules/stream.js&#45;&gt;../../fn/modules/noop.js</title>
<path fill="none" stroke="#757575" d="M738.06,-273.3C801.9,-250.43 951.43,-200.37 1082,-182.95 1177.16,-170.26 1207.79,-150.11 1298,-182.95 1342.91,-199.3 1382.77,-240.36 1403.78,-265.11"/>
<polygon fill="#757575" stroke="#757575" points="1401.34,-267.64 1410.41,-273.12 1406.73,-263.18 1401.34,-267.64"/>
</g>
<!-- ../../fn/modules/nothing.js -->
<g id="node21" class="node">
<title>../../fn/modules/nothing.js</title>
<path fill="none" stroke="#c6c5fe" d="M1265.83,-377.45C1265.83,-377.45 1114.17,-377.45 1114.17,-377.45 1110.33,-377.45 1106.5,-373.62 1106.5,-369.78 1106.5,-369.78 1106.5,-362.12 1106.5,-362.12 1106.5,-358.28 1110.33,-354.45 1114.17,-354.45 1114.17,-354.45 1265.83,-354.45 1265.83,-354.45 1269.67,-354.45 1273.5,-358.28 1273.5,-362.12 1273.5,-362.12 1273.5,-369.78 1273.5,-369.78 1273.5,-373.62 1269.67,-377.45 1265.83,-377.45"/>
<text text-anchor="middle" x="1190" y="-362.25" font-family="Arial" font-size="14.00" fill="#c6c5fe">../../fn/modules/nothing.js</text>
</g>
<!-- ../../fn/modules/stream.js&#45;&gt;../../fn/modules/nothing.js -->
<g id="edge39" class="edge">
<title>../../fn/modules/stream.js&#45;&gt;../../fn/modules/nothing.js</title>
<path fill="none" stroke="#757575" d="M775.12,-296.47C863.61,-311.33 1017.16,-337.1 1110.29,-352.74"/>
<polygon fill="#757575" stroke="#757575" points="1109.79,-356.2 1120.23,-354.41 1110.95,-349.3 1109.79,-356.2"/>
</g>
<!-- ../../fn/modules/to&#45;array.js -->
<g id="node23" class="node">
<title>../../fn/modules/to&#45;array.js</title>
<path fill="none" stroke="#cfffac" d="M1266.83,-418.45C1266.83,-418.45 1113.17,-418.45 1113.17,-418.45 1109.33,-418.45 1105.5,-414.62 1105.5,-410.78 1105.5,-410.78 1105.5,-403.12 1105.5,-403.12 1105.5,-399.28 1109.33,-395.45 1113.17,-395.45 1113.17,-395.45 1266.83,-395.45 1266.83,-395.45 1270.67,-395.45 1274.5,-399.28 1274.5,-403.12 1274.5,-403.12 1274.5,-410.78 1274.5,-410.78 1274.5,-414.62 1270.67,-418.45 1266.83,-418.45"/>
<text text-anchor="middle" x="1190" y="-403.25" font-family="Arial" font-size="14.00" fill="#cfffac">../../fn/modules/to&#45;array.js</text>
</g>
<!-- ../../fn/modules/stream.js&#45;&gt;../../fn/modules/to&#45;array.js -->
<g id="edge43" class="edge">
<title>../../fn/modules/stream.js&#45;&gt;../../fn/modules/to&#45;array.js</title>
<path fill="none" stroke="#757575" d="M719.4,-296.74C744.59,-318.92 803.03,-366.4 862,-385.95 937.76,-411.06 1028.69,-414.96 1095.42,-413.35"/>
<polygon fill="#757575" stroke="#757575" points="1095.6,-416.85 1105.49,-413.06 1095.4,-409.85 1095.6,-416.85"/>
</g>
<!-- ../../fn/modules/fn.js -->
<g id="node28" class="node">
<title>../../fn/modules/fn.js</title>
<path fill="none" stroke="#c6c5fe" d="M1013.33,-296.45C1013.33,-296.45 894.67,-296.45 894.67,-296.45 890.83,-296.45 887,-292.62 887,-288.78 887,-288.78 887,-281.12 887,-281.12 887,-277.28 890.83,-273.45 894.67,-273.45 894.67,-273.45 1013.33,-273.45 1013.33,-273.45 1017.17,-273.45 1021,-277.28 1021,-281.12 1021,-281.12 1021,-288.78 1021,-288.78 1021,-292.62 1017.17,-296.45 1013.33,-296.45"/>
<text text-anchor="middle" x="954" y="-281.25" font-family="Arial" font-size="14.00" fill="#c6c5fe">../../fn/modules/fn.js</text>
</g>
<!-- ../../fn/modules/stream.js&#45;&gt;../../fn/modules/fn.js -->
<g id="edge36" class="edge">
<title>../../fn/modules/stream.js&#45;&gt;../../fn/modules/fn.js</title>
<path fill="none" stroke="#757575" d="M788.24,-284.95C816.7,-284.95 848.5,-284.95 876.51,-284.95"/>
<polygon fill="#757575" stroke="#757575" points="876.65,-288.45 886.65,-284.95 876.65,-281.45 876.65,-288.45"/>
</g>
<!-- ../../fn/modules/lists/core.js -->
<g id="node31" class="node">
<title>../../fn/modules/lists/core.js</title>
<path fill="none" stroke="#c6c5fe" d="M1034.33,-377.45C1034.33,-377.45 873.67,-377.45 873.67,-377.45 869.83,-377.45 866,-373.62 866,-369.78 866,-369.78 866,-362.12 866,-362.12 866,-358.28 869.83,-354.45 873.67,-354.45 873.67,-354.45 1034.33,-354.45 1034.33,-354.45 1038.17,-354.45 1042,-358.28 1042,-362.12 1042,-362.12 1042,-369.78 1042,-369.78 1042,-373.62 1038.17,-377.45 1034.33,-377.45"/>
<text text-anchor="middle" x="954" y="-362.25" font-family="Arial" font-size="14.00" fill="#c6c5fe">../../fn/modules/lists/core.js</text>
</g>
<!-- ../../fn/modules/stream.js&#45;&gt;../../fn/modules/lists/core.js -->
<g id="edge37" class="edge">
<title>../../fn/modules/stream.js&#45;&gt;../../fn/modules/lists/core.js</title>
<path fill="none" stroke="#757575" d="M738.52,-296.55C769.86,-307.79 819.02,-325.12 862,-338.95 875.13,-343.18 889.39,-347.52 902.65,-351.46"/>
<polygon fill="#757575" stroke="#757575" points="901.98,-354.91 912.56,-354.38 903.96,-348.2 901.98,-354.91"/>
</g>
<!-- ../../fn/modules/now.js -->
<g id="node32" class="node">
<title>../../fn/modules/now.js</title>
<path fill="none" stroke="#cfffac" d="M1255.83,-135.45C1255.83,-135.45 1124.17,-135.45 1124.17,-135.45 1120.33,-135.45 1116.5,-131.62 1116.5,-127.78 1116.5,-127.78 1116.5,-120.12 1116.5,-120.12 1116.5,-116.28 1120.33,-112.45 1124.17,-112.45 1124.17,-112.45 1255.83,-112.45 1255.83,-112.45 1259.67,-112.45 1263.5,-116.28 1263.5,-120.12 1263.5,-120.12 1263.5,-127.78 1263.5,-127.78 1263.5,-131.62 1259.67,-135.45 1255.83,-135.45"/>
<text text-anchor="middle" x="1190" y="-120.25" font-family="Arial" font-size="14.00" fill="#cfffac">../../fn/modules/now.js</text>
</g>
<!-- ../../fn/modules/stream.js&#45;&gt;../../fn/modules/now.js -->
<g id="edge40" class="edge">
<title>../../fn/modules/stream.js&#45;&gt;../../fn/modules/now.js</title>
<path fill="none" stroke="#757575" d="M720.96,-273.35C747.34,-252.82 805.76,-210.12 862,-187.95 905.53,-170.79 1024.6,-149.77 1106.37,-136.61"/>
<polygon fill="#757575" stroke="#757575" points="1107.08,-140.04 1116.4,-135.01 1105.97,-133.13 1107.08,-140.04"/>
</g>
<!-- ../../fn/modules/privates.js -->
<g id="node33" class="node">
<title>../../fn/modules/privates.js</title>
<path fill="none" stroke="#cfffac" d="M1031.33,-94.45C1031.33,-94.45 876.67,-94.45 876.67,-94.45 872.83,-94.45 869,-90.62 869,-86.78 869,-86.78 869,-79.12 869,-79.12 869,-75.28 872.83,-71.45 876.67,-71.45 876.67,-71.45 1031.33,-71.45 1031.33,-71.45 1035.17,-71.45 1039,-75.28 1039,-79.12 1039,-79.12 1039,-86.78 1039,-86.78 1039,-90.62 1035.17,-94.45 1031.33,-94.45"/>
<text text-anchor="middle" x="954" y="-79.25" font-family="Arial" font-size="14.00" fill="#cfffac">../../fn/modules/privates.js</text>
</g>
<!-- ../../fn/modules/stream.js&#45;&gt;../../fn/modules/privates.js -->
<g id="edge41" class="edge">
<title>../../fn/modules/stream.js&#45;&gt;../../fn/modules/privates.js</title>
<path fill="none" stroke="#757575" d="M732.45,-273.44C759.38,-260.26 800.99,-236.26 826,-203.95 855.17,-166.27 826.25,-134.46 862,-102.95 863.18,-101.92 864.39,-100.93 865.65,-99.99"/>
<polygon fill="#757575" stroke="#757575" points="867.81,-102.76 874.4,-94.46 864.08,-96.84 867.81,-102.76"/>
</g>
<!-- ../../fn/modules/timer.js -->
<g id="node35" class="node">
<title>../../fn/modules/timer.js</title>
<path fill="none" stroke="#c6c5fe" d="M1022.83,-135.45C1022.83,-135.45 885.17,-135.45 885.17,-135.45 881.33,-135.45 877.5,-131.62 877.5,-127.78 877.5,-127.78 877.5,-120.12 877.5,-120.12 877.5,-116.28 881.33,-112.45 885.17,-112.45 885.17,-112.45 1022.83,-112.45 1022.83,-112.45 1026.67,-112.45 1030.5,-116.28 1030.5,-120.12 1030.5,-120.12 1030.5,-127.78 1030.5,-127.78 1030.5,-131.62 1026.67,-135.45 1022.83,-135.45"/>
<text text-anchor="middle" x="954" y="-120.25" font-family="Arial" font-size="14.00" fill="#c6c5fe">../../fn/modules/timer.js</text>
</g>
<!-- ../../fn/modules/stream.js&#45;&gt;../../fn/modules/timer.js -->
<g id="edge42" class="edge">
<title>../../fn/modules/stream.js&#45;&gt;../../fn/modules/timer.js</title>
<path fill="none" stroke="#757575" d="M728.64,-273.41C754.14,-259.38 796.34,-233.84 826,-203.95 846.32,-183.48 838.7,-166.96 862,-149.95 867.62,-145.85 873.87,-142.4 880.38,-139.48"/>
<polygon fill="#757575" stroke="#757575" points="882.1,-142.57 890.08,-135.6 879.49,-136.07 882.1,-142.57"/>
</g>
<!-- ../../fn/modules/stream.wait.js&#45;&gt;../../fn/modules/stream.js -->
<g id="edge45" class="edge">
<title>../../fn/modules/stream.wait.js&#45;&gt;../../fn/modules/stream.js</title>
<path fill="none" stroke="#757575" d="M549.11,-284.95C569.94,-284.95 591.95,-284.95 612.63,-284.95"/>
<polygon fill="#757575" stroke="#757575" points="612.67,-288.45 622.67,-284.95 612.67,-281.45 612.67,-288.45"/>
</g>
<!-- ../../fn/modules/choke.js -->
<g id="node25" class="node">
<title>../../fn/modules/choke.js</title>
<path fill="none" stroke="#c6c5fe" d="M777.33,-195.45C777.33,-195.45 633.67,-195.45 633.67,-195.45 629.83,-195.45 626,-191.62 626,-187.78 626,-187.78 626,-180.12 626,-180.12 626,-176.28 629.83,-172.45 633.67,-172.45 633.67,-172.45 777.33,-172.45 777.33,-172.45 781.17,-172.45 785,-176.28 785,-180.12 785,-180.12 785,-187.78 785,-187.78 785,-191.62 781.17,-195.45 777.33,-195.45"/>
<text text-anchor="middle" x="705.5" y="-180.25" font-family="Arial" font-size="14.00" fill="#c6c5fe">../../fn/modules/choke.js</text>
</g>
<!-- ../../fn/modules/stream.wait.js&#45;&gt;../../fn/modules/choke.js -->
<g id="edge44" class="edge">
<title>../../fn/modules/stream.wait.js&#45;&gt;../../fn/modules/choke.js</title>
<path fill="none" stroke="#757575" d="M482.29,-273.37C527.66,-255.11 615.8,-219.64 666.37,-199.29"/>
<polygon fill="#757575" stroke="#757575" points="667.69,-202.54 675.66,-195.56 665.07,-196.04 667.69,-202.54"/>
</g>
<!-- ../../dom/modules/rect.js -->
<g id="node18" class="node">
<title>../../dom/modules/rect.js</title>
<path fill="none" stroke="#cfffac" d="M297.33,-458.45C297.33,-458.45 151.67,-458.45 151.67,-458.45 147.83,-458.45 144,-454.62 144,-450.78 144,-450.78 144,-443.12 144,-443.12 144,-439.28 147.83,-435.45 151.67,-435.45 151.67,-435.45 297.33,-435.45 297.33,-435.45 301.17,-435.45 305,-439.28 305,-443.12 305,-443.12 305,-450.78 305,-450.78 305,-454.62 301.17,-458.45 297.33,-458.45"/>
<text text-anchor="middle" x="224.5" y="-443.25" font-family="Arial" font-size="14.00" fill="#cfffac">../../dom/modules/rect.js</text>
</g>
<!-- ../../dom/modules/request.js&#45;&gt;../../fn/modules/id.js -->
<g id="edge21" class="edge">
<title>../../dom/modules/request.js&#45;&gt;../../fn/modules/id.js</title>
<path fill="none" stroke="#757575" d="M1027.76,-619.46C1054.76,-623.73 1085.45,-628.58 1112.76,-632.9"/>
<polygon fill="#757575" stroke="#757575" points="1112.23,-636.36 1122.65,-634.46 1113.32,-629.44 1112.23,-636.36"/>
</g>
<!-- ../../fn/modules/choose.js -->
<g id="node20" class="node">
<title>../../fn/modules/choose.js</title>
<path fill="none" stroke="#c6c5fe" d="M1265.83,-615.45C1265.83,-615.45 1114.17,-615.45 1114.17,-615.45 1110.33,-615.45 1106.5,-611.62 1106.5,-607.78 1106.5,-607.78 1106.5,-600.12 1106.5,-600.12 1106.5,-596.28 1110.33,-592.45 1114.17,-592.45 1114.17,-592.45 1265.83,-592.45 1265.83,-592.45 1269.67,-592.45 1273.5,-596.28 1273.5,-600.12 1273.5,-600.12 1273.5,-607.78 1273.5,-607.78 1273.5,-611.62 1269.67,-615.45 1265.83,-615.45"/>
<text text-anchor="middle" x="1190" y="-600.25" font-family="Arial" font-size="14.00" fill="#c6c5fe">../../fn/modules/choose.js</text>
</g>
<!-- ../../dom/modules/request.js&#45;&gt;../../fn/modules/choose.js -->
<g id="edge20" class="edge">
<title>../../dom/modules/request.js&#45;&gt;../../fn/modules/choose.js</title>
<path fill="none" stroke="#757575" d="M1046.14,-606.39C1062.51,-606.11 1079.58,-605.82 1096,-605.54"/>
<polygon fill="#757575" stroke="#757575" points="1096.19,-609.04 1106.12,-605.37 1096.07,-602.04 1096.19,-609.04"/>
</g>
<!-- ../../dom/modules/request.js&#45;&gt;../../fn/modules/nothing.js -->
<g id="edge22" class="edge">
<title>../../dom/modules/request.js&#45;&gt;../../fn/modules/nothing.js</title>
<path fill="none" stroke="#757575" d="M1035.51,-596.39C1039.32,-594.01 1042.86,-591.22 1046,-587.95 1109.18,-522.19 1017.79,-450.7 1082,-385.95 1086.39,-381.52 1091.43,-377.91 1096.87,-374.96"/>
<polygon fill="#757575" stroke="#757575" points="1098.73,-377.96 1106.37,-370.62 1095.82,-371.59 1098.73,-377.96"/>
</g>
<!-- ../../fn/modules/lists/rest.js -->
<g id="node26" class="node">
<title>../../fn/modules/lists/rest.js</title>
<path fill="none" stroke="#cfffac" d="M1499.33,-615.45C1499.33,-615.45 1341.67,-615.45 1341.67,-615.45 1337.83,-615.45 1334,-611.62 1334,-607.78 1334,-607.78 1334,-600.12 1334,-600.12 1334,-596.28 1337.83,-592.45 1341.67,-592.45 1341.67,-592.45 1499.33,-592.45 1499.33,-592.45 1503.17,-592.45 1507,-596.28 1507,-600.12 1507,-600.12 1507,-607.78 1507,-607.78 1507,-611.62 1503.17,-615.45 1499.33,-615.45"/>
<text text-anchor="middle" x="1420.5" y="-600.25" font-family="Arial" font-size="14.00" fill="#cfffac">../../fn/modules/lists/rest.js</text>
</g>
<!-- ../../fn/modules/choose.js&#45;&gt;../../fn/modules/lists/rest.js -->
<g id="edge26" class="edge">
<title>../../fn/modules/choose.js&#45;&gt;../../fn/modules/lists/rest.js</title>
<path fill="none" stroke="#757575" d="M1273.82,-603.95C1290,-603.95 1307.09,-603.95 1323.66,-603.95"/>
<polygon fill="#757575" stroke="#757575" points="1323.89,-607.45 1333.89,-603.95 1323.89,-600.45 1323.89,-607.45"/>
</g>
<!-- ../../fn/modules/nothing.js&#45;&gt;../../fn/modules/noop.js -->
<g id="edge35" class="edge">
<title>../../fn/modules/nothing.js&#45;&gt;../../fn/modules/noop.js</title>
<path fill="none" stroke="#757575" d="M1263.63,-354.4C1275.26,-351.78 1287.06,-348.65 1298,-344.95 1331.25,-333.7 1367.01,-315.19 1391.06,-301.69"/>
<polygon fill="#757575" stroke="#757575" points="1393.03,-304.6 1399.99,-296.62 1389.57,-298.52 1393.03,-304.6"/>
</g>
<!-- ../../dom/modules/select.js -->
<g id="node22" class="node">
<title>../../dom/modules/select.js</title>
<path fill="none" stroke="#c6c5fe" d="M1033.33,-498.45C1033.33,-498.45 874.67,-498.45 874.67,-498.45 870.83,-498.45 867,-494.62 867,-490.78 867,-490.78 867,-483.12 867,-483.12 867,-479.28 870.83,-475.45 874.67,-475.45 874.67,-475.45 1033.33,-475.45 1033.33,-475.45 1037.17,-475.45 1041,-479.28 1041,-483.12 1041,-483.12 1041,-490.78 1041,-490.78 1041,-494.62 1037.17,-498.45 1033.33,-498.45"/>
<text text-anchor="middle" x="954" y="-483.25" font-family="Arial" font-size="14.00" fill="#c6c5fe">../../dom/modules/select.js</text>
</g>
<!-- ../../dom/modules/select.js&#45;&gt;../../fn/modules/curry.js -->
<g id="edge23" class="edge">
<title>../../dom/modules/select.js&#45;&gt;../../fn/modules/curry.js</title>
<path fill="none" stroke="#757575" d="M1041.01,-486.95C1124.59,-486.95 1250.77,-486.95 1334.13,-486.95"/>
<polygon fill="#757575" stroke="#757575" points="1334.34,-490.45 1344.34,-486.95 1334.34,-483.45 1334.34,-490.45"/>
</g>
<!-- ../../dom/modules/select.js&#45;&gt;../../fn/modules/to&#45;array.js -->
<g id="edge24" class="edge">
<title>../../dom/modules/select.js&#45;&gt;../../fn/modules/to&#45;array.js</title>
<path fill="none" stroke="#757575" d="M989.03,-475.32C1030.48,-461.15 1100.55,-437.19 1145.78,-421.73"/>
<polygon fill="#757575" stroke="#757575" points="1146.98,-425.02 1155.31,-418.47 1144.72,-418.39 1146.98,-425.02"/>
</g>
<!-- ../../dom/modules/traversal.js -->
<g id="node24" class="node">
<title>../../dom/modules/traversal.js</title>
<path fill="none" stroke="#cfffac" d="M312.33,-376.45C312.33,-376.45 136.67,-376.45 136.67,-376.45 132.83,-376.45 129,-372.62 129,-368.78 129,-368.78 129,-361.12 129,-361.12 129,-357.28 132.83,-353.45 136.67,-353.45 136.67,-353.45 312.33,-353.45 312.33,-353.45 316.17,-353.45 320,-357.28 320,-361.12 320,-361.12 320,-368.78 320,-368.78 320,-372.62 316.17,-376.45 312.33,-376.45"/>
<text text-anchor="middle" x="224.5" y="-361.25" font-family="Arial" font-size="14.00" fill="#cfffac">../../dom/modules/traversal.js</text>
</g>
<!-- ../../fn/modules/choke.js&#45;&gt;../../fn/modules/noop.js -->
<g id="edge25" class="edge">
<title>../../fn/modules/choke.js&#45;&gt;../../fn/modules/noop.js</title>
<path fill="none" stroke="#757575" d="M716.26,-172.21C738.71,-146.22 797.13,-84.36 862,-61.95 1045.16,1.32 1131.39,37 1298,-61.95 1373.45,-106.77 1405.02,-216.7 1415.34,-263.4"/>
<polygon fill="#757575" stroke="#757575" points="1411.95,-264.28 1417.42,-273.35 1418.8,-262.84 1411.95,-264.28"/>
</g>
<!-- ../../fn/modules/compose.js -->
<g id="node27" class="node">
<title>../../fn/modules/compose.js</title>
<path fill="none" stroke="#cfffac" d="M1271.83,-256.45C1271.83,-256.45 1108.17,-256.45 1108.17,-256.45 1104.33,-256.45 1100.5,-252.62 1100.5,-248.78 1100.5,-248.78 1100.5,-241.12 1100.5,-241.12 1100.5,-237.28 1104.33,-233.45 1108.17,-233.45 1108.17,-233.45 1271.83,-233.45 1271.83,-233.45 1275.67,-233.45 1279.5,-237.28 1279.5,-241.12 1279.5,-241.12 1279.5,-248.78 1279.5,-248.78 1279.5,-252.62 1275.67,-256.45 1271.83,-256.45"/>
<text text-anchor="middle" x="1190" y="-241.25" font-family="Arial" font-size="14.00" fill="#cfffac">../../fn/modules/compose.js</text>
</g>
<!-- ../../fn/modules/fn.js&#45;&gt;../../fn/modules/noop.js -->
<g id="edge30" class="edge">
<title>../../fn/modules/fn.js&#45;&gt;../../fn/modules/noop.js</title>
<path fill="none" stroke="#757575" d="M1021.06,-284.95C1103.06,-284.95 1243.1,-284.95 1333.43,-284.95"/>
<polygon fill="#757575" stroke="#757575" points="1333.65,-288.45 1343.65,-284.95 1333.65,-281.45 1333.65,-288.45"/>
</g>
<!-- ../../fn/modules/fn.js&#45;&gt;../../fn/modules/nothing.js -->
<g id="edge31" class="edge">
<title>../../fn/modules/fn.js&#45;&gt;../../fn/modules/nothing.js</title>
<path fill="none" stroke="#757575" d="M1011.56,-296.57C1023.37,-300.23 1035.43,-304.94 1046,-310.95 1065.13,-321.84 1062.43,-334.88 1082,-344.95 1086.67,-347.35 1091.58,-349.48 1096.63,-351.37"/>
<polygon fill="#757575" stroke="#757575" points="1095.88,-354.81 1106.47,-354.7 1098.12,-348.18 1095.88,-354.81"/>
</g>
<!-- ../../fn/modules/fn.js&#45;&gt;../../fn/modules/to&#45;array.js -->
<g id="edge33" class="edge">
<title>../../fn/modules/fn.js&#45;&gt;../../fn/modules/to&#45;array.js</title>
<path fill="none" stroke="#757575" d="M975.99,-296.6C995.19,-307.75 1023.88,-325.69 1046,-344.95 1064.29,-360.88 1060.98,-373.86 1082,-385.95 1086.4,-388.48 1091.05,-390.71 1095.85,-392.68"/>
<polygon fill="#757575" stroke="#757575" points="1094.66,-395.97 1105.25,-396.14 1097.08,-389.4 1094.66,-395.97"/>
</g>
<!-- ../../fn/modules/fn.js&#45;&gt;../../fn/modules/compose.js -->
<g id="edge28" class="edge">
<title>../../fn/modules/fn.js&#45;&gt;../../fn/modules/compose.js</title>
<path fill="none" stroke="#757575" d="M1021.12,-273.65C1049.16,-268.85 1082.06,-263.23 1111.26,-258.24"/>
<polygon fill="#757575" stroke="#757575" points="1112.15,-261.64 1121.42,-256.5 1110.97,-254.74 1112.15,-261.64"/>
</g>
<!-- ../../fn/modules/latest.js -->
<g id="node29" class="node">
<title>../../fn/modules/latest.js</title>
<path fill="none" stroke="#cfffac" d="M1259.83,-215.45C1259.83,-215.45 1120.17,-215.45 1120.17,-215.45 1116.33,-215.45 1112.5,-211.62 1112.5,-207.78 1112.5,-207.78 1112.5,-200.12 1112.5,-200.12 1112.5,-196.28 1116.33,-192.45 1120.17,-192.45 1120.17,-192.45 1259.83,-192.45 1259.83,-192.45 1263.67,-192.45 1267.5,-196.28 1267.5,-200.12 1267.5,-200.12 1267.5,-207.78 1267.5,-207.78 1267.5,-211.62 1263.67,-215.45 1259.83,-215.45"/>
<text text-anchor="middle" x="1190" y="-200.25" font-family="Arial" font-size="14.00" fill="#cfffac">../../fn/modules/latest.js</text>
</g>
<!-- ../../fn/modules/fn.js&#45;&gt;../../fn/modules/latest.js -->
<g id="edge29" class="edge">
<title>../../fn/modules/fn.js&#45;&gt;../../fn/modules/latest.js</title>
<path fill="none" stroke="#757575" d="M974.99,-273.3C999.44,-259.54 1042.48,-236.88 1082,-223.95 1088.99,-221.66 1096.33,-219.61 1103.76,-217.77"/>
<polygon fill="#757575" stroke="#757575" points="1104.6,-221.16 1113.54,-215.47 1103,-214.35 1104.6,-221.16"/>
</g>
<!-- ../../fn/modules/strings/prepend.js -->
<g id="node30" class="node">
<title>../../fn/modules/strings/prepend.js</title>
<path fill="none" stroke="#c6c5fe" d="M1290.33,-336.45C1290.33,-336.45 1089.67,-336.45 1089.67,-336.45 1085.83,-336.45 1082,-332.62 1082,-328.78 1082,-328.78 1082,-321.12 1082,-321.12 1082,-317.28 1085.83,-313.45 1089.67,-313.45 1089.67,-313.45 1290.33,-313.45 1290.33,-313.45 1294.17,-313.45 1298,-317.28 1298,-321.12 1298,-321.12 1298,-328.78 1298,-328.78 1298,-332.62 1294.17,-336.45 1290.33,-336.45"/>
<text text-anchor="middle" x="1190" y="-321.25" font-family="Arial" font-size="14.00" fill="#c6c5fe">../../fn/modules/strings/prepend.js</text>
</g>
<!-- ../../fn/modules/fn.js&#45;&gt;../../fn/modules/strings/prepend.js -->
<g id="edge32" class="edge">
<title>../../fn/modules/fn.js&#45;&gt;../../fn/modules/strings/prepend.js</title>
<path fill="none" stroke="#757575" d="M1021.12,-296.25C1049.16,-301.05 1082.06,-306.67 1111.26,-311.66"/>
<polygon fill="#757575" stroke="#757575" points="1110.97,-315.16 1121.42,-313.4 1112.15,-308.26 1110.97,-315.16"/>
</g>
<!-- ../../fn/modules/strings/prepend.js&#45;&gt;../../fn/modules/curry.js -->
<g id="edge46" class="edge">
<title>../../fn/modules/strings/prepend.js&#45;&gt;../../fn/modules/curry.js</title>
<path fill="none" stroke="#757575" d="M1279.74,-336.53C1286.11,-338.86 1292.27,-341.64 1298,-344.95 1349.68,-374.81 1389.83,-435.09 1408.33,-466.64"/>
<polygon fill="#757575" stroke="#757575" points="1405.36,-468.51 1413.37,-475.45 1411.44,-465.03 1405.36,-468.51"/>
</g>
<!-- ../../fn/modules/lists/core.js&#45;&gt;../../fn/modules/to&#45;array.js -->
<g id="edge34" class="edge">
<title>../../fn/modules/lists/core.js&#45;&gt;../../fn/modules/to&#45;array.js</title>
<path fill="none" stroke="#757575" d="M1020.8,-377.48C1049.59,-382.52 1083.52,-388.47 1113.34,-393.7"/>
<polygon fill="#757575" stroke="#757575" points="1112.83,-397.16 1123.28,-395.44 1114.04,-390.26 1112.83,-397.16"/>
</g>
<!-- ../../fn/modules/request&#45;tick.js -->
<g id="node34" class="node">
<title>../../fn/modules/request&#45;tick.js</title>
<path fill="none" stroke="#cfffac" d="M1278.83,-94.45C1278.83,-94.45 1101.17,-94.45 1101.17,-94.45 1097.33,-94.45 1093.5,-90.62 1093.5,-86.78 1093.5,-86.78 1093.5,-79.12 1093.5,-79.12 1093.5,-75.28 1097.33,-71.45 1101.17,-71.45 1101.17,-71.45 1278.83,-71.45 1278.83,-71.45 1282.67,-71.45 1286.5,-75.28 1286.5,-79.12 1286.5,-79.12 1286.5,-86.78 1286.5,-86.78 1286.5,-90.62 1282.67,-94.45 1278.83,-94.45"/>
<text text-anchor="middle" x="1190" y="-79.25" font-family="Arial" font-size="14.00" fill="#cfffac">../../fn/modules/request&#45;tick.js</text>
</g>
<!-- ../../fn/modules/timer.js&#45;&gt;../../fn/modules/now.js -->
<g id="edge47" class="edge">
<title>../../fn/modules/timer.js&#45;&gt;../../fn/modules/now.js</title>
<path fill="none" stroke="#757575" d="M1030.65,-123.95C1054.83,-123.95 1081.7,-123.95 1106.35,-123.95"/>
<polygon fill="#757575" stroke="#757575" points="1106.4,-127.45 1116.4,-123.95 1106.4,-120.45 1106.4,-127.45"/>
</g>
<!-- ../../fn/modules/timer.js&#45;&gt;../../fn/modules/request&#45;tick.js -->
<g id="edge48" class="edge">
<title>../../fn/modules/timer.js&#45;&gt;../../fn/modules/request&#45;tick.js</title>
<path fill="none" stroke="#757575" d="M1020.8,-112.42C1049.59,-107.38 1083.52,-101.43 1113.34,-96.21"/>
<polygon fill="#757575" stroke="#757575" points="1114.04,-99.64 1123.28,-94.47 1112.83,-92.74 1114.04,-99.64"/>
</g>
<!-- slide&#45;show.js -->
<g id="node36" class="node">
<title>slide&#45;show.js</title>
<path fill="none" stroke="#c6c5fe" d="M85.33,-458.45C85.33,-458.45 7.67,-458.45 7.67,-458.45 3.83,-458.45 0,-454.62 0,-450.78 0,-450.78 0,-443.12 0,-443.12 0,-439.28 3.83,-435.45 7.67,-435.45 7.67,-435.45 85.33,-435.45 85.33,-435.45 89.17,-435.45 93,-439.28 93,-443.12 93,-443.12 93,-450.78 93,-450.78 93,-454.62 89.17,-458.45 85.33,-458.45"/>
<text text-anchor="middle" x="46.5" y="-443.25" font-family="Arial" font-size="14.00" fill="#c6c5fe">slide&#45;show.js</text>
</g>
<!-- slide&#45;show.js&#45;&gt;../../dom/modules/create.js -->
<g id="edge49" class="edge">
<title>slide&#45;show.js&#45;&gt;../../dom/modules/create.js</title>
<path fill="none" stroke="#757575" d="M54.15,-458.48C66.3,-478.45 94.08,-519.29 129,-539.95 280.03,-629.3 486.99,-655.93 607.15,-663.78"/>
<polygon fill="#757575" stroke="#757575" points="607.24,-667.29 617.44,-664.42 607.67,-660.3 607.24,-667.29"/>
</g>
<!-- slide&#45;show.js&#45;&gt;../../dom/modules/element.js -->
<g id="edge50" class="edge">
<title>slide&#45;show.js&#45;&gt;../../dom/modules/element.js</title>
<path fill="none" stroke="#757575" d="M61.27,-458.5C76.75,-470.88 103.13,-490.21 129,-500.95 199.14,-530.07 283.37,-546.74 348.15,-556.05"/>
<polygon fill="#757575" stroke="#757575" points="347.99,-559.56 358.38,-557.48 348.96,-552.62 347.99,-559.56"/>
</g>
<!-- slide&#45;show.js&#45;&gt;../../dom/modules/events.js -->
<g id="edge51" class="edge">
<title>slide&#45;show.js&#45;&gt;../../dom/modules/events.js</title>
<path fill="none" stroke="#757575" d="M90.98,-435.37C103.25,-432.21 116.62,-428.85 129,-425.95 138.09,-423.82 147.69,-421.67 157.16,-419.61"/>
<polygon fill="#757575" stroke="#757575" points="157.91,-423.03 166.94,-417.5 156.43,-416.19 157.91,-423.03"/>
</g>
<!-- slide&#45;show.js&#45;&gt;../../dom/modules/rect.js -->
<g id="edge52" class="edge">
<title>slide&#45;show.js&#45;&gt;../../dom/modules/rect.js</title>
<path fill="none" stroke="#757575" d="M93.28,-446.95C105.74,-446.95 119.68,-446.95 133.68,-446.95"/>
<polygon fill="#757575" stroke="#757575" points="133.86,-450.45 143.86,-446.95 133.86,-443.45 133.86,-450.45"/>
</g>
<!-- slide&#45;show.js&#45;&gt;../../dom/modules/select.js -->
<g id="edge53" class="edge">
<title>slide&#45;show.js&#45;&gt;../../dom/modules/select.js</title>
<path fill="none" stroke="#757575" d="M84.88,-458.5C98.61,-462.23 114.38,-465.93 129,-467.95 390.01,-504.1 701.87,-498.07 856.38,-491.84"/>
<polygon fill="#757575" stroke="#757575" points="856.93,-495.33 866.78,-491.42 856.64,-488.33 856.93,-495.33"/>
</g>
<!-- slide&#45;show.js&#45;&gt;../../dom/modules/traversal.js -->
<g id="edge54" class="edge">
<title>slide&#45;show.js&#45;&gt;../../dom/modules/traversal.js</title>
<path fill="none" stroke="#757575" d="M59.09,-435.42C73.96,-421.29 101.2,-397.68 129,-384.95 133.35,-382.96 137.89,-381.17 142.55,-379.55"/>
<polygon fill="#757575" stroke="#757575" points="143.75,-382.84 152.22,-376.47 141.62,-376.17 143.75,-382.84"/>
</g>
<!-- slide&#45;show.js&#45;&gt;../../fn/modules/privates.js -->
<g id="edge55" class="edge">
<title>slide&#45;show.js&#45;&gt;../../fn/modules/privates.js</title>
<path fill="none" stroke="#757575" d="M53.84,-435.43C65.89,-414.49 94.06,-369.95 129,-343.95 356.01,-175.06 695.62,-113.37 858.82,-92.59"/>
<polygon fill="#757575" stroke="#757575" points="859.35,-96.05 868.83,-91.33 858.48,-89.1 859.35,-96.05"/>
</g>
</g>
</svg>
