<?xml version="1.0" standalone="no"?>
<!DOCTYPE svg PUBLIC "-//W3C//DTD SVG 1.1//EN" "http://www.w3.org/Graphics/SVG/1.1/DTD/svg11.dtd" >
<svg xmlns="http://www.w3.org/2000/svg" xmlns:xlink="http://www.w3.org/1999/xlink" version="1.1">
<metadata>
Created by Christoph Koeberlin (http://christoph.koe.berlin)
Copyright (c) 2015 Swiss Typefaces Sa`rl. All rights reserved.
</metadata>
<defs>
<font id="Font" horiz-adv-x="557" >
  <font-face 
    font-family="Font"
    font-weight="600"
    font-stretch="normal"
    units-per-em="1000"
    panose-1="2 11 7 4 0 0 0 0 0 0"
    ascent="800"
    descent="-200"
    x-height="538"
    cap-height="725"
    bbox="-16 -201 1315 755"
    underline-thickness="80"
    underline-position="-30"
    unicode-range="U+0020-2022"
  />
<missing-glyph horiz-adv-x="500" 
d="M0 725h500v-725h-500v725zM19 696v-667l220 333zM481 29v667l-221 -334zM33 19h433l-216 327zM250 378l216 328h-433z" />
    <glyph glyph-name=".notdef" horiz-adv-x="500" 
d="M0 725h500v-725h-500v725zM19 696v-667l220 333zM481 29v667l-221 -334zM33 19h433l-216 327zM250 378l216 328h-433z" />
    <glyph glyph-name="glyph1" horiz-adv-x="0" 
 />
    <glyph glyph-name="glyph2" horiz-adv-x="226" 
 />
    <glyph glyph-name="space" unicode=" " horiz-adv-x="226" 
 />
    <glyph glyph-name="comma" unicode="," horiz-adv-x="257" 
d="M51 150h155v-161l-82 -159h-79l74 170h-68v150z" />
    <glyph glyph-name="hyphen" unicode="-" horiz-adv-x="418" 
d="M43 207v120h331v-120h-331z" />
    <glyph glyph-name="period" unicode="." horiz-adv-x="250" 
d="M51 0v150h148v-150h-148z" />
    <glyph glyph-name="slash" unicode="/" horiz-adv-x="397" 
d="M-5 0l280 755h128l-280 -755h-128z" />
    <glyph glyph-name="zero" unicode="0" horiz-adv-x="663" 
d="M332 -13q-73 0 -127.5 28t-91 78t-55 119t-18.5 152q0 82 18.5 151t55 118.5t91 77t127.5 27.5q72 0 126.5 -27.5t91 -77t55 -118.5t18.5 -151q0 -83 -18.5 -152t-55 -119t-91 -78t-126.5 -28zM332 91q74 0 112 71t38 202t-38 200.5t-112 69.5t-112.5 -69.5t-38.5 -200.5
t38.5 -202t112.5 -71z" />
    <glyph glyph-name="A" unicode="A" horiz-adv-x="685" 
d="M465 187h-254l-65 -187h-146l270 725h144l271 -725h-155zM252 304h172l-86 246z" />
    <glyph glyph-name="B" unicode="B" horiz-adv-x="634" 
d="M65 725h252q48 0 95 -8.5t84.5 -30t61 -58t23.5 -92.5q0 -26 -7.5 -49.5t-19.5 -43.5t-26.5 -35.5t-28.5 -24.5q21 -10 40.5 -23.5t34.5 -33.5t24 -47.5t9 -64.5q0 -59 -22.5 -99.5t-60.5 -66t-88.5 -37t-106.5 -11.5h-264v725zM208 112h128q63 0 94 26t31 76
q0 51 -32 78t-99 27h-122v-207zM208 425h118q51 0 79.5 24.5t28.5 72.5q0 43 -29 67t-79 24h-118v-188z" />
    <glyph glyph-name="C" unicode="C" horiz-adv-x="647" 
d="M184 362q0 -68 19.5 -116t52 -78t73.5 -44t84 -14q57 0 102 13.5t89 35.5v-131q-40 -17 -94 -29t-111 -12q-85 0 -152 28t-114 78t-72 119t-25 150q0 97 32 168t83.5 117t116.5 68.5t132 22.5q50 0 106.5 -8.5t97.5 -28.5v-131q-42 20 -88 32.5t-103 12.5
q-42 0 -83.5 -14t-73.5 -44.5t-52 -78.5t-20 -116z" />
    <glyph glyph-name="D" unicode="D" horiz-adv-x="719" 
d="M535 363q0 81 -22 130.5t-59 76t-84 35t-96 8.5h-66v-501h66q49 0 96 8.5t84 35t59 76t22 131.5zM264 725q86 0 162.5 -16t133.5 -57t90 -111t33 -178t-33 -178t-90 -111.5t-133.5 -57.5t-162.5 -16h-199v725h199z" />
    <glyph glyph-name="E" unicode="E" horiz-adv-x="573" 
d="M65 725h468v-116h-325v-180h304v-116h-304v-197h325v-116h-468v725z" />
    <glyph glyph-name="F" unicode="F" horiz-adv-x="533" 
d="M65 725h468v-116h-325v-180h304v-116h-304v-313h-143v725z" />
    <glyph glyph-name="G" unicode="G" horiz-adv-x="739" 
d="M423 615q-44 0 -87 -14t-76.5 -44.5t-54.5 -78.5t-21 -116q0 -73 20.5 -122t54.5 -78t76 -41.5t86 -12.5q35 0 66.5 5t59.5 12v157h-158v117h290v-359q-141 -53 -266 -53q-81 0 -150.5 24.5t-119.5 72t-78.5 117.5t-28.5 161q0 97 33.5 168t89 117t127 68.5t146.5 22.5
q25 0 53 -2t56.5 -6t54.5 -11.5t46 -17.5v-131q-42 20 -97 32.5t-122 12.5z" />
    <glyph glyph-name="H" unicode="H" horiz-adv-x="741" 
d="M676 725v-725h-143v313h-325v-313h-143v725h143v-296h325v296h143z" />
    <glyph glyph-name="I" unicode="I" horiz-adv-x="483" 
d="M50 0v116h120v493h-120v116h383v-116h-120v-493h120v-116h-383z" />
    <glyph glyph-name="J" unicode="J" horiz-adv-x="391" 
d="M130 -13q-26 0 -53 3t-57 11l16 126q18 -7 38 -11.5t40 -4.5q43 0 56 29.5t13 85.5v383h-128v116h271v-505q0 -233 -196 -233z" />
    <glyph glyph-name="K" unicode="K" horiz-adv-x="666" 
d="M208 374l271 351h154l-284 -359l327 -366h-186l-282 315v-315h-143v725h143v-351z" />
    <glyph glyph-name="L" unicode="L" horiz-adv-x="501" 
d="M208 116h293v-116h-436v725h143v-609z" />
    <glyph glyph-name="M" unicode="M" horiz-adv-x="855" 
d="M357 170l-159 375v-545h-133v725h188l176 -425l171 425h190v-725h-133v545l-158 -375h-142z" />
    <glyph glyph-name="N" unicode="N" horiz-adv-x="741" 
d="M490 0l-290 553v-553h-135v725h186l290 -553v553h135v-725h-186z" />
    <glyph glyph-name="O" unicode="O" horiz-adv-x="782" 
d="M184 363q0 -64 16.5 -113t44.5 -82t66 -50t80 -17t80 17t66 50t44.5 82t16.5 113t-16.5 112.5t-44.5 81.5t-66 50t-80 17t-80 -17t-66 -50t-44.5 -81.5t-16.5 -112.5zM746 363q0 -84 -25 -153.5t-71.5 -119t-112 -76.5t-146.5 -27t-146.5 27t-112 76.5t-71.5 119
t-25 153.5t25 153.5t71.5 118.5t112 76t146.5 27t146.5 -27t112 -76t71.5 -118.5t25 -153.5z" />
    <glyph glyph-name="P" unicode="P" horiz-adv-x="609" 
d="M283 725q37 0 75 -2.5t73.5 -11t66.5 -24.5t54 -42.5t36.5 -65.5t13.5 -94q0 -69 -25.5 -114t-69 -70.5t-100.5 -35.5t-120 -10h-79v-255h-143v725h218zM208 613v-247h88q33 0 62 5t50.5 18t34 36t12.5 59q0 45 -15.5 70.5t-40 38.5t-54.5 16.5t-59 3.5h-78z" />
    <glyph glyph-name="Q" unicode="Q" horiz-adv-x="781" 
d="M746 363q0 -100 -33.5 -177t-96.5 -126l86 -113l-88 -66l-97 125q-29 -9 -60 -14t-66 -5q-81 0 -146.5 27t-112 76.5t-71.5 119t-25 153.5t25 153.5t71.5 118.5t112 76t146.5 27t146.5 -27t112 -76t71.5 -118.5t25 -153.5zM184 363q0 -64 16.5 -113t44.5 -82t66 -50
t80 -17q26 0 50 6l-55 72l89 67l60 -80q29 34 46 83t17 114q0 64 -16.5 112.5t-44.5 81.5t-66 50t-80 17t-80 -17t-66 -50t-44.5 -81.5t-16.5 -112.5z" />
    <glyph glyph-name="R" unicode="R" horiz-adv-x="647" 
d="M281 294h-73v-294h-143v725h208q90 0 152.5 -12.5t102 -39t57.5 -67t18 -96.5q0 -69 -41 -122.5t-130 -77.5l204 -310h-164zM208 613v-208h88q84 0 122 26.5t38 77.5q0 30 -12.5 50t-34.5 32t-53 17t-67 5h-81z" />
    <glyph glyph-name="S" unicode="S" horiz-adv-x="572" 
d="M256 -13q-71 0 -119.5 11t-85.5 26v138q37 -20 86.5 -35.5t111.5 -15.5q28 0 54 5t46 16t32.5 28.5t12.5 42.5q0 20 -9 34.5t-25 26t-37.5 19.5t-45.5 16l-56 17q-94 29 -138.5 84.5t-44.5 121.5q0 50 21.5 90t58 68t85.5 43t104 15q24 0 49 -2t49 -5.5t45.5 -8.5
t37.5 -12v-129q-36 16 -83.5 24.5t-92.5 8.5q-60 0 -97 -20t-37 -56q0 -35 29 -58t84 -40l56 -17q43 -13 78.5 -30.5t61.5 -42.5t40.5 -59.5t14.5 -81.5t-21.5 -87.5t-60 -70.5t-91 -47t-113.5 -17z" />
    <glyph glyph-name="T" unicode="T" horiz-adv-x="600" 
d="M228 609h-223v116h590v-116h-224v-609h-143v609z" />
    <glyph glyph-name="U" unicode="U" horiz-adv-x="708" 
d="M197 725v-419q0 -48 6 -86t23.5 -64.5t48 -40.5t80.5 -14q49 0 80 14t47.5 40.5t22.5 64.5t6 86v419h143v-418q0 -90 -17 -151t-53 -98.5t-93 -54t-136 -16.5q-80 0 -136.5 16.5t-93.5 54t-54 98.5t-17 151v418h143z" />
    <glyph glyph-name="V" unicode="V" horiz-adv-x="638" 
d="M150 725l173 -546l168 546h152l-250 -725h-146l-252 725h155z" />
    <glyph glyph-name="W" unicode="W" horiz-adv-x="880" 
d="M635 194l99 531h146l-161 -725h-169l-110 540l-110 -540h-169l-161 725h148l108 -528l101 528h167z" />
    <glyph glyph-name="X" unicode="X" horiz-adv-x="667" 
d="M250 371l-249 354h172l164 -233l167 233h162l-249 -347l266 -378h-172l-181 257l-185 -257h-161z" />
    <glyph glyph-name="Y" unicode="Y" horiz-adv-x="650" 
d="M156 725l169 -303l172 303h163l-267 -445v-280h-143v282l-261 443h167z" />
    <glyph glyph-name="Z" unicode="Z" horiz-adv-x="622" 
d="M587 613l-390 -491h401v-122h-579v112l392 492h-361v121h537v-112z" />
    <glyph glyph-name="a" unicode="a" 
d="M26 148q0 91 85 136t257 62q-3 29 -14 47t-27 28t-37.5 13.5t-45.5 3.5q-53 0 -95.5 -15.5t-71.5 -37.5v117q18 10 41.5 19t49.5 15.5t52.5 10t50.5 3.5q118 0 174.5 -51.5t56.5 -163.5q0 -4 -0.5 -22t-0.5 -42t-0.5 -49.5t-0.5 -43.5v-54.5t1 -42t2.5 -38.5t3.5 -43
h-125l-1 82q-24 -51 -67 -73t-109 -22q-35 0 -67.5 11t-57 32t-39.5 50.5t-15 67.5zM244 81q25 0 49.5 10t43.5 32t29.5 56.5t8.5 83.5q-113 -5 -164 -31t-51 -72q0 -34 22 -56.5t62 -22.5z" />
    <glyph glyph-name="b" unicode="b" horiz-adv-x="613" 
d="M321 93q57 0 88.5 48t31.5 127t-31.5 127.5t-88.5 48.5t-91.5 -47t-34.5 -128q0 -83 34.5 -129.5t91.5 -46.5zM62 0v755h138v-286q22 38 63 59.5t92 21.5q50 0 92.5 -20t73 -57t48 -89t17.5 -115q0 -65 -17.5 -117t-48.5 -88.5t-73.5 -56.5t-91.5 -20q-42 0 -85.5 18
t-69.5 63v-68h-138z" />
    <glyph glyph-name="c" unicode="c" horiz-adv-x="457" 
d="M27 268q0 57 18 108t53.5 89.5t87.5 61.5t121 23q13 0 29 -1t31.5 -3t30 -5t24.5 -8v-113q-19 8 -45 13.5t-55 5.5q-33 0 -61.5 -10.5t-49.5 -31.5t-32.5 -53.5t-11.5 -75.5q0 -44 11.5 -76t32.5 -53t49.5 -31t61.5 -10q32 0 61 8t49 17v-113q-11 -5 -26 -9t-32 -7
t-34.5 -5t-32.5 -2q-69 0 -121.5 22.5t-88 61t-53 89.5t-17.5 108z" />
    <glyph glyph-name="d" unicode="d" horiz-adv-x="613" 
d="M413 0v68q-26 -45 -69.5 -63t-85.5 -18q-50 0 -92 20t-73 56.5t-48.5 88.5t-17.5 117q0 63 17 115t48 89t73.5 57t92.5 20q51 0 92 -21.5t63 -59.5v286h138v-755h-138zM292 93q57 0 91.5 46.5t34.5 129.5q0 81 -34.5 128t-91.5 47t-88.5 -48.5t-31.5 -127.5t31.5 -127
t88.5 -48z" />
    <glyph glyph-name="e" unicode="e" 
d="M164 235q7 -65 50 -101t115 -36q82 0 164 44v-116q-28 -14 -76.5 -26.5t-111.5 -12.5q-70 0 -122.5 22.5t-87 61.5t-51.5 90.5t-17 109.5q0 60 19 111.5t53.5 89t82 59t105.5 21.5q63 0 109.5 -23t77 -64.5t45 -100t13.5 -129.5h-368zM282 451q-20 0 -40.5 -5.5t-38 -20
t-29.5 -39t-14 -63.5h238q-2 36 -12 60.5t-25.5 39.5t-36 21.5t-42.5 6.5z" />
    <glyph glyph-name="f" unicode="f" horiz-adv-x="332" 
d="M78 583q0 88 44 130t133 42q23 0 39 -1.5t41 -3.5v-111q-17 2 -33.5 3t-28.5 1q-26 0 -41.5 -12.5t-15.5 -54.5v-38h108v-95h-108v-443h-138v443h-76v95h76v45z" />
    <glyph glyph-name="g" unicode="g" horiz-adv-x="611" 
d="M293 124q58 0 91 44.5t33 116.5q0 71 -33 115.5t-91 44.5q-28 0 -50.5 -12.5t-38 -34.5t-24 -51t-8.5 -63q0 -33 8.5 -62.5t24 -51t38 -34t50.5 -12.5zM412 100q-26 -44 -69 -62.5t-85 -18.5q-51 0 -93.5 19.5t-73 54.5t-47.5 84t-17 108q0 57 16.5 106t47 84t73 55
t94.5 20q51 0 93.5 -23.5t60.5 -58.5v70h137v-468q0 -78 -23 -130t-60.5 -83.5t-85 -44.5t-96.5 -13q-48 0 -97 7.5t-84 24.5v119q32 -19 79 -29.5t89 -10.5q34 0 60 6.5t44 22.5t27.5 43t9.5 69v49z" />
    <glyph glyph-name="h" unicode="h" horiz-adv-x="596" 
d="M200 467q23 41 64.5 62t91.5 21q97 0 141.5 -55.5t44.5 -155.5v-339h-138v309q0 26 -3.5 49.5t-13.5 41.5t-28.5 28.5t-47.5 10.5q-34 0 -55.5 -13t-34 -34.5t-17 -50.5t-4.5 -61v-280h-138v755h138v-288z" />
    <glyph glyph-name="i" unicode="i" horiz-adv-x="262" 
d="M200 538v-538h-138v538h138zM200 755v-128h-138v128h138z" />
    <glyph glyph-name="j" unicode="j" horiz-adv-x="302" 
d="M88 -196q-19 0 -33 1t-35 3v109q9 -1 18 -1.5t23 -0.5q20 0 30.5 13.5t10.5 57.5v457h-82v95h220v-554q0 -91 -34.5 -135.5t-117.5 -44.5zM240 755v-128h-138v128h138z" />
    <glyph glyph-name="k" unicode="k" horiz-adv-x="555" 
d="M200 755v-460l189 243h148l-203 -252l239 -286h-171l-202 239v-239h-138v755h138z" />
    <glyph glyph-name="l" unicode="l" horiz-adv-x="262" 
d="M200 0h-138v755h138v-755z" />
    <glyph glyph-name="m" unicode="m" horiz-adv-x="916" 
d="M724 313q0 22 -2 44.5t-10.5 40.5t-26 29.5t-47.5 11.5q-35 0 -56 -13.5t-32 -35.5t-15 -50.5t-4 -59.5v-280h-138v313q0 22 -2 44.5t-10.5 40.5t-26 29.5t-47.5 11.5q-35 0 -56 -13.5t-32 -35.5t-15 -50.5t-4 -59.5v-280h-138v538h138v-71q23 40 62 61.5t88 21.5
q34 0 59.5 -8.5t43.5 -21t30 -28t20 -30.5q32 45 74 66.5t103 21.5q51 0 85.5 -15t56 -43t31 -66.5t9.5 -86.5v-339h-138v313v0z" />
    <glyph glyph-name="n" unicode="n" horiz-adv-x="596" 
d="M200 467q23 41 64.5 62t91.5 21q97 0 141.5 -55.5t44.5 -155.5v-339h-138v309q0 26 -3.5 49.5t-13.5 41.5t-28.5 28.5t-47.5 10.5q-34 0 -55.5 -13t-34 -34.5t-17 -50.5t-4.5 -61v-280h-138v538h138v-71z" />
    <glyph glyph-name="o" unicode="o" horiz-adv-x="586" 
d="M293 442q-60 0 -93.5 -44.5t-33.5 -129.5t33.5 -129t93.5 -44t93.5 44t33.5 129t-33.5 129.5t-93.5 44.5zM293 -13q-53 0 -101 17.5t-85 52.5t-59 87.5t-22 123.5t22 124t59 88t85 52.5t101 17.5q52 0 100.5 -17.5t85.5 -52.5t59 -88t22 -124t-22 -123.5t-59 -87.5
t-85.5 -52.5t-100.5 -17.5z" />
    <glyph glyph-name="p" unicode="p" horiz-adv-x="613" 
d="M321 93q57 0 88.5 48t31.5 127t-31.5 127.5t-88.5 48.5t-91.5 -47t-34.5 -128q0 -83 34.5 -129.5t91.5 -46.5zM62 -195v733h138v-69q22 38 63 59.5t92 21.5q50 0 92.5 -20t73 -57t48 -89t17.5 -115q0 -65 -17.5 -117t-49 -88.5t-74 -56.5t-91.5 -20q-42 0 -85 18t-69 63
v-263h-138z" />
    <glyph glyph-name="q" unicode="q" horiz-adv-x="613" 
d="M292 93q57 0 91.5 46.5t34.5 129.5q0 81 -34.5 128t-91.5 47t-88.5 -48.5t-31.5 -127.5t31.5 -127t88.5 -48zM551 -195h-138v263q-26 -45 -69.5 -63t-85.5 -18q-50 0 -92 20t-73 56.5t-48.5 88.5t-17.5 117q0 63 17 115t48 89t73.5 57t92.5 20q51 0 92 -21.5t63 -59.5v69
h138v-733z" />
    <glyph glyph-name="r" unicode="r" horiz-adv-x="379" 
d="M370 405q-15 2 -28.5 2.5t-28.5 0.5q-26 0 -46.5 -5.5t-35.5 -19.5t-23 -38.5t-8 -62.5v-282h-138v538h136v-94q23 50 59 71.5t83 21.5q7 0 15 -0.5t15 -1.5v-130z" />
    <glyph glyph-name="s" unicode="s" horiz-adv-x="455" 
d="M213 -13q-57 0 -101.5 8t-72.5 19v122q28 -14 66 -26t92 -12q48 0 72.5 14.5t24.5 39.5q0 20 -15 34.5t-60 28.5l-43 13q-40 12 -67 29.5t-43.5 39t-23.5 45.5t-7 49q0 39 17 68.5t46.5 50t68 30.5t82.5 10q35 0 72.5 -6t73.5 -18v-116q-28 11 -65.5 19.5t-75.5 8.5
q-40 0 -65 -10.5t-25 -34.5q0 -17 15 -31.5t57 -27.5l43 -13q75 -23 113 -59.5t38 -104.5q0 -36 -16 -67t-44.5 -54t-68.5 -36t-88 -13z" />
    <glyph glyph-name="t" unicode="t" horiz-adv-x="377" 
d="M91 443h-86v95h86v146h138v-146h122v-95h-122v-277q0 -41 12 -55.5t46 -14.5q15 0 28.5 1.5t32.5 3.5v-109q-23 -3 -40 -4t-40 -1q-96 0 -136.5 42t-40.5 130v284z" />
    <glyph glyph-name="u" unicode="u" horiz-adv-x="593" 
d="M393 71q-23 -41 -65 -62.5t-92 -21.5q-97 0 -139 56t-42 155v340h138v-310q0 -27 3 -50.5t12 -41.5t26.5 -28t46.5 -10q34 0 56 13t34.5 35t17 51t4.5 61v280h138v-538h-138v71z" />
    <glyph glyph-name="v" unicode="v" horiz-adv-x="514" 
d="M261 140l116 398h137l-183 -538h-145l-186 538h145z" />
    <glyph glyph-name="w" unicode="w" horiz-adv-x="734" 
d="M293 538h147l85 -371l72 371h137l-127 -538h-142l-98 408l-99 -408h-142l-126 538h137l72 -372z" />
    <glyph glyph-name="x" unicode="x" horiz-adv-x="543" 
d="M345 281l198 -281h-155l-122 173l-126 -173h-140l198 271l-187 267h154l112 -159l116 159h141z" />
    <glyph glyph-name="y" unicode="y" horiz-adv-x="538" 
d="M131 -195l75 197l-206 536h151l122 -388l125 388h140l-278 -733h-129z" />
    <glyph glyph-name="z" unicode="z" horiz-adv-x="498" 
d="M22 109l283 320h-267v109h432v-109l-283 -320h291v-109h-456v109z" />
    <glyph glyph-name="uni00A0" unicode="&#xa0;" horiz-adv-x="226" 
 />
    <glyph glyph-name="uni00AD" unicode="&#xad;" horiz-adv-x="418" 
d="M43 207v120h331v-120h-331z" />
    <glyph glyph-name="paragraph" unicode="&#xb6;" horiz-adv-x="504" 
d="M0 554q0 40 16.5 72t46.5 54t72 33.5t93 11.5h213v-814h-82v738h-112v-738h-81v473q-27 3 -56.5 13t-54 30t-40 51t-15.5 76z" />
    <glyph glyph-name="periodcentered" unicode="&#xb7;" horiz-adv-x="250" 
d="M51 194v150h148v-150h-148z" />
    <glyph glyph-name="quoteright" unicode="&#x2019;" horiz-adv-x="256" 
d="M51 725h155v-161l-82 -159h-79l74 170h-68v150z" />
    <glyph glyph-name="bullet" unicode="&#x2022;" horiz-adv-x="447" 
d="M43 279q0 37 14 69t38 56t56 38t68 14q39 0 73 -14t58.5 -38t38.5 -56t14 -69q0 -39 -14 -72.5t-38.5 -58t-58.5 -38.5t-73 -14q-36 0 -68 14t-56 38.5t-38 58t-14 72.5z" />
    <glyph glyph-name="AE" unicode="&#xc6;" horiz-adv-x="1258" 
d="M465 187h-254l-65 -187h-146l270 725h144l271 -725h-155zM252 304h172l-86 246zM750 725h468v-116h-325v-180h304v-116h-304v-197h325v-116h-468v725z" />
    <glyph glyph-name="Aacute" unicode="&#xc1;" horiz-adv-x="685" 
d="M465 187h-254l-65 -187h-146l270 725h144l271 -725h-155zM252 304h172l-86 246z" />
    <glyph glyph-name="Abreve" unicode="&#x102;" horiz-adv-x="685" 
d="M465 187h-254l-65 -187h-146l270 725h144l271 -725h-155zM252 304h172l-86 246z" />
    <glyph glyph-name="Acircumflex" unicode="&#xc2;" horiz-adv-x="685" 
d="M465 187h-254l-65 -187h-146l270 725h144l271 -725h-155zM252 304h172l-86 246z" />
    <glyph glyph-name="Adieresis" unicode="&#xc4;" horiz-adv-x="685" 
d="M465 187h-254l-65 -187h-146l270 725h144l271 -725h-155zM252 304h172l-86 246z" />
    <glyph glyph-name="Agrave" unicode="&#xc0;" horiz-adv-x="685" 
d="M465 187h-254l-65 -187h-146l270 725h144l271 -725h-155zM252 304h172l-86 246z" />
    <glyph glyph-name="Amacron" unicode="&#x100;" horiz-adv-x="685" 
d="M465 187h-254l-65 -187h-146l270 725h144l271 -725h-155zM252 304h172l-86 246z" />
    <glyph glyph-name="Aogonek" unicode="&#x104;" horiz-adv-x="685" 
d="M465 187h-254l-65 -187h-146l270 725h144l271 -725h-155zM252 304h172l-86 246z" />
    <glyph glyph-name="Aring" unicode="&#xc5;" horiz-adv-x="685" 
d="M465 187h-254l-65 -187h-146l270 725h144l271 -725h-155zM252 304h172l-86 246z" />
    <glyph glyph-name="Atilde" unicode="&#xc3;" horiz-adv-x="685" 
d="M465 187h-254l-65 -187h-146l270 725h144l271 -725h-155zM252 304h172l-86 246z" />
    <glyph glyph-name="Cacute" unicode="&#x106;" horiz-adv-x="647" 
d="M184 362q0 -68 19.5 -116t52 -78t73.5 -44t84 -14q57 0 102 13.5t89 35.5v-131q-40 -17 -94 -29t-111 -12q-85 0 -152 28t-114 78t-72 119t-25 150q0 97 32 168t83.5 117t116.5 68.5t132 22.5q50 0 106.5 -8.5t97.5 -28.5v-131q-42 20 -88 32.5t-103 12.5
q-42 0 -83.5 -14t-73.5 -44.5t-52 -78.5t-20 -116z" />
    <glyph glyph-name="Ccaron" unicode="&#x10c;" horiz-adv-x="647" 
d="M184 362q0 -68 19.5 -116t52 -78t73.5 -44t84 -14q57 0 102 13.5t89 35.5v-131q-40 -17 -94 -29t-111 -12q-85 0 -152 28t-114 78t-72 119t-25 150q0 97 32 168t83.5 117t116.5 68.5t132 22.5q50 0 106.5 -8.5t97.5 -28.5v-131q-42 20 -88 32.5t-103 12.5
q-42 0 -83.5 -14t-73.5 -44.5t-52 -78.5t-20 -116z" />
    <glyph glyph-name="Ccedilla" unicode="&#xc7;" horiz-adv-x="647" 
d="M184 362q0 -68 19.5 -116t52 -78t73.5 -44t84 -14q57 0 102 13.5t89 35.5v-131q-40 -17 -94 -29t-111 -12q-85 0 -152 28t-114 78t-72 119t-25 150q0 97 32 168t83.5 117t116.5 68.5t132 22.5q50 0 106.5 -8.5t97.5 -28.5v-131q-42 20 -88 32.5t-103 12.5
q-42 0 -83.5 -14t-73.5 -44.5t-52 -78.5t-20 -116z" />
    <glyph glyph-name="Ccircumflex" unicode="&#x108;" horiz-adv-x="647" 
d="M184 362q0 -68 19.5 -116t52 -78t73.5 -44t84 -14q57 0 102 13.5t89 35.5v-131q-40 -17 -94 -29t-111 -12q-85 0 -152 28t-114 78t-72 119t-25 150q0 97 32 168t83.5 117t116.5 68.5t132 22.5q50 0 106.5 -8.5t97.5 -28.5v-131q-42 20 -88 32.5t-103 12.5
q-42 0 -83.5 -14t-73.5 -44.5t-52 -78.5t-20 -116z" />
    <glyph glyph-name="Cdotaccent" unicode="&#x10a;" horiz-adv-x="647" 
d="M184 362q0 -68 19.5 -116t52 -78t73.5 -44t84 -14q57 0 102 13.5t89 35.5v-131q-40 -17 -94 -29t-111 -12q-85 0 -152 28t-114 78t-72 119t-25 150q0 97 32 168t83.5 117t116.5 68.5t132 22.5q50 0 106.5 -8.5t97.5 -28.5v-131q-42 20 -88 32.5t-103 12.5
q-42 0 -83.5 -14t-73.5 -44.5t-52 -78.5t-20 -116z" />
    <glyph glyph-name="Dcaron" unicode="&#x10e;" horiz-adv-x="719" 
d="M535 363q0 81 -22 130.5t-59 76t-84 35t-96 8.5h-66v-501h66q49 0 96 8.5t84 35t59 76t22 131.5zM264 725q86 0 162.5 -16t133.5 -57t90 -111t33 -178t-33 -178t-90 -111.5t-133.5 -57.5t-162.5 -16h-199v725h199z" />
    <glyph glyph-name="Dcroat" unicode="&#x110;" horiz-adv-x="719" 
d="M535 363q0 81 -22 130.5t-59 76t-84 35t-96 8.5h-66v-501h66q49 0 96 8.5t84 35t59 76t22 131.5zM264 725q86 0 162.5 -16t133.5 -57t90 -111t33 -178t-33 -178t-90 -111.5t-133.5 -57.5t-162.5 -16h-199v725h199z" />
    <glyph glyph-name="Eth" unicode="&#xd0;" horiz-adv-x="719" 
d="M535 363q0 81 -22 130.5t-59 76t-84 35t-96 8.5h-66v-501h66q49 0 96 8.5t84 35t59 76t22 131.5zM264 725q86 0 162.5 -16t133.5 -57t90 -111t33 -178t-33 -178t-90 -111.5t-133.5 -57.5t-162.5 -16h-199v725h199z" />
    <glyph glyph-name="Eacute" unicode="&#xc9;" horiz-adv-x="573" 
d="M65 725h468v-116h-325v-180h304v-116h-304v-197h325v-116h-468v725z" />
    <glyph glyph-name="Ebreve" unicode="&#x114;" horiz-adv-x="573" 
d="M65 725h468v-116h-325v-180h304v-116h-304v-197h325v-116h-468v725z" />
    <glyph glyph-name="Ecaron" unicode="&#x11a;" horiz-adv-x="573" 
d="M65 725h468v-116h-325v-180h304v-116h-304v-197h325v-116h-468v725z" />
    <glyph glyph-name="Ecircumflex" unicode="&#xca;" horiz-adv-x="573" 
d="M65 725h468v-116h-325v-180h304v-116h-304v-197h325v-116h-468v725z" />
    <glyph glyph-name="Edieresis" unicode="&#xcb;" horiz-adv-x="573" 
d="M65 725h468v-116h-325v-180h304v-116h-304v-197h325v-116h-468v725z" />
    <glyph glyph-name="Egrave" unicode="&#xc8;" horiz-adv-x="573" 
d="M65 725h468v-116h-325v-180h304v-116h-304v-197h325v-116h-468v725z" />
    <glyph glyph-name="Emacron" unicode="&#x112;" horiz-adv-x="573" 
d="M65 725h468v-116h-325v-180h304v-116h-304v-197h325v-116h-468v725z" />
    <glyph glyph-name="Eogonek" unicode="&#x118;" horiz-adv-x="573" 
d="M65 725h468v-116h-325v-180h304v-116h-304v-197h325v-116h-468v725z" />
    <glyph glyph-name="Edotaccent" unicode="&#x116;" horiz-adv-x="573" 
d="M65 725h468v-116h-325v-180h304v-116h-304v-197h325v-116h-468v725z" />
    <glyph glyph-name="Gbreve" unicode="&#x11e;" horiz-adv-x="739" 
d="M423 615q-44 0 -87 -14t-76.5 -44.5t-54.5 -78.5t-21 -116q0 -73 20.5 -122t54.5 -78t76 -41.5t86 -12.5q35 0 66.5 5t59.5 12v157h-158v117h290v-359q-141 -53 -266 -53q-81 0 -150.5 24.5t-119.5 72t-78.5 117.5t-28.5 161q0 97 33.5 168t89 117t127 68.5t146.5 22.5
q25 0 53 -2t56.5 -6t54.5 -11.5t46 -17.5v-131q-42 20 -97 32.5t-122 12.5z" />
    <glyph glyph-name="Gcircumflex" unicode="&#x11c;" horiz-adv-x="739" 
d="M423 615q-44 0 -87 -14t-76.5 -44.5t-54.5 -78.5t-21 -116q0 -73 20.5 -122t54.5 -78t76 -41.5t86 -12.5q35 0 66.5 5t59.5 12v157h-158v117h290v-359q-141 -53 -266 -53q-81 0 -150.5 24.5t-119.5 72t-78.5 117.5t-28.5 161q0 97 33.5 168t89 117t127 68.5t146.5 22.5
q25 0 53 -2t56.5 -6t54.5 -11.5t46 -17.5v-131q-42 20 -97 32.5t-122 12.5z" />
    <glyph glyph-name="uni0122" unicode="&#x122;" horiz-adv-x="739" 
d="M423 615q-44 0 -87 -14t-76.5 -44.5t-54.5 -78.5t-21 -116q0 -73 20.5 -122t54.5 -78t76 -41.5t86 -12.5q35 0 66.5 5t59.5 12v157h-158v117h290v-359q-141 -53 -266 -53q-81 0 -150.5 24.5t-119.5 72t-78.5 117.5t-28.5 161q0 97 33.5 168t89 117t127 68.5t146.5 22.5
q25 0 53 -2t56.5 -6t54.5 -11.5t46 -17.5v-131q-42 20 -97 32.5t-122 12.5z" />
    <glyph glyph-name="Gdotaccent" unicode="&#x120;" horiz-adv-x="739" 
d="M423 615q-44 0 -87 -14t-76.5 -44.5t-54.5 -78.5t-21 -116q0 -73 20.5 -122t54.5 -78t76 -41.5t86 -12.5q35 0 66.5 5t59.5 12v157h-158v117h290v-359q-141 -53 -266 -53q-81 0 -150.5 24.5t-119.5 72t-78.5 117.5t-28.5 161q0 97 33.5 168t89 117t127 68.5t146.5 22.5
q25 0 53 -2t56.5 -6t54.5 -11.5t46 -17.5v-131q-42 20 -97 32.5t-122 12.5z" />
    <glyph glyph-name="Hbar" unicode="&#x126;" horiz-adv-x="741" 
d="M676 725v-725h-143v313h-325v-313h-143v725h143v-296h325v296h143z" />
    <glyph glyph-name="Hcircumflex" unicode="&#x124;" horiz-adv-x="741" 
d="M676 725v-725h-143v313h-325v-313h-143v725h143v-296h325v296h143z" />
    <glyph glyph-name="Iacute" unicode="&#xcd;" horiz-adv-x="483" 
d="M50 0v116h120v493h-120v116h383v-116h-120v-493h120v-116h-383z" />
    <glyph glyph-name="Ibreve" unicode="&#x12c;" horiz-adv-x="483" 
d="M50 0v116h120v493h-120v116h383v-116h-120v-493h120v-116h-383z" />
    <glyph glyph-name="Icircumflex" unicode="&#xce;" horiz-adv-x="483" 
d="M50 0v116h120v493h-120v116h383v-116h-120v-493h120v-116h-383z" />
    <glyph glyph-name="Idieresis" unicode="&#xcf;" horiz-adv-x="483" 
d="M50 0v116h120v493h-120v116h383v-116h-120v-493h120v-116h-383z" />
    <glyph glyph-name="Idotaccent" unicode="&#x130;" horiz-adv-x="483" 
d="M50 0v116h120v493h-120v116h383v-116h-120v-493h120v-116h-383z" />
    <glyph glyph-name="Igrave" unicode="&#xcc;" horiz-adv-x="483" 
d="M50 0v116h120v493h-120v116h383v-116h-120v-493h120v-116h-383z" />
    <glyph glyph-name="Imacron" unicode="&#x12a;" horiz-adv-x="483" 
d="M50 0v116h120v493h-120v116h383v-116h-120v-493h120v-116h-383z" />
    <glyph glyph-name="Iogonek" unicode="&#x12e;" horiz-adv-x="483" 
d="M50 0v116h120v493h-120v116h383v-116h-120v-493h120v-116h-383z" />
    <glyph glyph-name="Itilde" unicode="&#x128;" horiz-adv-x="483" 
d="M50 0v116h120v493h-120v116h383v-116h-120v-493h120v-116h-383z" />
    <glyph glyph-name="uni1ECA" unicode="&#x1eca;" horiz-adv-x="483" 
d="M50 0v116h120v493h-120v116h383v-116h-120v-493h120v-116h-383z" />
    <glyph glyph-name="Jcircumflex" unicode="&#x134;" horiz-adv-x="391" 
d="M130 -13q-26 0 -53 3t-57 11l16 126q18 -7 38 -11.5t40 -4.5q43 0 56 29.5t13 85.5v383h-128v116h271v-505q0 -233 -196 -233z" />
    <glyph glyph-name="uni0136" unicode="&#x136;" horiz-adv-x="666" 
d="M208 374l271 351h154l-284 -359l327 -366h-186l-282 315v-315h-143v725h143v-351z" />
    <glyph glyph-name="Lacute" unicode="&#x139;" horiz-adv-x="501" 
d="M208 116h293v-116h-436v725h143v-609z" />
    <glyph glyph-name="Lcaron" unicode="&#x13d;" horiz-adv-x="501" 
d="M208 116h293v-116h-436v725h143v-609z" />
    <glyph glyph-name="uni013B" unicode="&#x13b;" horiz-adv-x="501" 
d="M208 116h293v-116h-436v725h143v-609z" />
    <glyph glyph-name="Ldot" unicode="&#x13f;" horiz-adv-x="501" 
d="M208 116h293v-116h-436v725h143v-609z" />
    <glyph glyph-name="Lslash" unicode="&#x141;" horiz-adv-x="501" 
d="M208 116h293v-116h-436v725h143v-609z" />
    <glyph glyph-name="Eng" unicode="&#x14a;" horiz-adv-x="741" 
d="M490 0l-290 553v-553h-135v725h186l290 -553v553h135v-725h-186z" />
    <glyph glyph-name="Nacute" unicode="&#x143;" horiz-adv-x="741" 
d="M490 0l-290 553v-553h-135v725h186l290 -553v553h135v-725h-186z" />
    <glyph glyph-name="Ncaron" unicode="&#x147;" horiz-adv-x="741" 
d="M490 0l-290 553v-553h-135v725h186l290 -553v553h135v-725h-186z" />
    <glyph glyph-name="uni0145" unicode="&#x145;" horiz-adv-x="741" 
d="M490 0l-290 553v-553h-135v725h186l290 -553v553h135v-725h-186z" />
    <glyph glyph-name="Ntilde" unicode="&#xd1;" horiz-adv-x="741" 
d="M490 0l-290 553v-553h-135v725h186l290 -553v553h135v-725h-186z" />
    <glyph glyph-name="OE" unicode="&#x152;" horiz-adv-x="1355" 
d="M184 363q0 -64 16.5 -113t44.5 -82t66 -50t80 -17t80 17t66 50t44.5 82t16.5 113t-16.5 112.5t-44.5 81.5t-66 50t-80 17t-80 -17t-66 -50t-44.5 -81.5t-16.5 -112.5zM746 363q0 -84 -25 -153.5t-71.5 -119t-112 -76.5t-146.5 -27t-146.5 27t-112 76.5t-71.5 119
t-25 153.5t25 153.5t71.5 118.5t112 76t146.5 27t146.5 -27t112 -76t71.5 -118.5t25 -153.5zM847 725h468v-116h-325v-180h304v-116h-304v-197h325v-116h-468v725z" />
    <glyph glyph-name="Oacute" unicode="&#xd3;" horiz-adv-x="782" 
d="M184 363q0 -64 16.5 -113t44.5 -82t66 -50t80 -17t80 17t66 50t44.5 82t16.5 113t-16.5 112.5t-44.5 81.5t-66 50t-80 17t-80 -17t-66 -50t-44.5 -81.5t-16.5 -112.5zM746 363q0 -84 -25 -153.5t-71.5 -119t-112 -76.5t-146.5 -27t-146.5 27t-112 76.5t-71.5 119
t-25 153.5t25 153.5t71.5 118.5t112 76t146.5 27t146.5 -27t112 -76t71.5 -118.5t25 -153.5z" />
    <glyph glyph-name="Obreve" unicode="&#x14e;" horiz-adv-x="782" 
d="M184 363q0 -64 16.5 -113t44.5 -82t66 -50t80 -17t80 17t66 50t44.5 82t16.5 113t-16.5 112.5t-44.5 81.5t-66 50t-80 17t-80 -17t-66 -50t-44.5 -81.5t-16.5 -112.5zM746 363q0 -84 -25 -153.5t-71.5 -119t-112 -76.5t-146.5 -27t-146.5 27t-112 76.5t-71.5 119
t-25 153.5t25 153.5t71.5 118.5t112 76t146.5 27t146.5 -27t112 -76t71.5 -118.5t25 -153.5z" />
    <glyph glyph-name="Ocircumflex" unicode="&#xd4;" horiz-adv-x="782" 
d="M184 363q0 -64 16.5 -113t44.5 -82t66 -50t80 -17t80 17t66 50t44.5 82t16.5 113t-16.5 112.5t-44.5 81.5t-66 50t-80 17t-80 -17t-66 -50t-44.5 -81.5t-16.5 -112.5zM746 363q0 -84 -25 -153.5t-71.5 -119t-112 -76.5t-146.5 -27t-146.5 27t-112 76.5t-71.5 119
t-25 153.5t25 153.5t71.5 118.5t112 76t146.5 27t146.5 -27t112 -76t71.5 -118.5t25 -153.5z" />
    <glyph glyph-name="Odieresis" unicode="&#xd6;" horiz-adv-x="782" 
d="M184 363q0 -64 16.5 -113t44.5 -82t66 -50t80 -17t80 17t66 50t44.5 82t16.5 113t-16.5 112.5t-44.5 81.5t-66 50t-80 17t-80 -17t-66 -50t-44.5 -81.5t-16.5 -112.5zM746 363q0 -84 -25 -153.5t-71.5 -119t-112 -76.5t-146.5 -27t-146.5 27t-112 76.5t-71.5 119
t-25 153.5t25 153.5t71.5 118.5t112 76t146.5 27t146.5 -27t112 -76t71.5 -118.5t25 -153.5z" />
    <glyph glyph-name="Ograve" unicode="&#xd2;" horiz-adv-x="782" 
d="M184 363q0 -64 16.5 -113t44.5 -82t66 -50t80 -17t80 17t66 50t44.5 82t16.5 113t-16.5 112.5t-44.5 81.5t-66 50t-80 17t-80 -17t-66 -50t-44.5 -81.5t-16.5 -112.5zM746 363q0 -84 -25 -153.5t-71.5 -119t-112 -76.5t-146.5 -27t-146.5 27t-112 76.5t-71.5 119
t-25 153.5t25 153.5t71.5 118.5t112 76t146.5 27t146.5 -27t112 -76t71.5 -118.5t25 -153.5z" />
    <glyph glyph-name="Ohungarumlaut" unicode="&#x150;" horiz-adv-x="782" 
d="M184 363q0 -64 16.5 -113t44.5 -82t66 -50t80 -17t80 17t66 50t44.5 82t16.5 113t-16.5 112.5t-44.5 81.5t-66 50t-80 17t-80 -17t-66 -50t-44.5 -81.5t-16.5 -112.5zM746 363q0 -84 -25 -153.5t-71.5 -119t-112 -76.5t-146.5 -27t-146.5 27t-112 76.5t-71.5 119
t-25 153.5t25 153.5t71.5 118.5t112 76t146.5 27t146.5 -27t112 -76t71.5 -118.5t25 -153.5z" />
    <glyph glyph-name="Omacron" unicode="&#x14c;" horiz-adv-x="782" 
d="M184 363q0 -64 16.5 -113t44.5 -82t66 -50t80 -17t80 17t66 50t44.5 82t16.5 113t-16.5 112.5t-44.5 81.5t-66 50t-80 17t-80 -17t-66 -50t-44.5 -81.5t-16.5 -112.5zM746 363q0 -84 -25 -153.5t-71.5 -119t-112 -76.5t-146.5 -27t-146.5 27t-112 76.5t-71.5 119
t-25 153.5t25 153.5t71.5 118.5t112 76t146.5 27t146.5 -27t112 -76t71.5 -118.5t25 -153.5z" />
    <glyph glyph-name="Oslash" unicode="&#xd8;" horiz-adv-x="782" 
d="M184 363q0 -64 16.5 -113t44.5 -82t66 -50t80 -17t80 17t66 50t44.5 82t16.5 113t-16.5 112.5t-44.5 81.5t-66 50t-80 17t-80 -17t-66 -50t-44.5 -81.5t-16.5 -112.5zM746 363q0 -84 -25 -153.5t-71.5 -119t-112 -76.5t-146.5 -27t-146.5 27t-112 76.5t-71.5 119
t-25 153.5t25 153.5t71.5 118.5t112 76t146.5 27t146.5 -27t112 -76t71.5 -118.5t25 -153.5z" />
    <glyph glyph-name="Otilde" unicode="&#xd5;" horiz-adv-x="782" 
d="M184 363q0 -64 16.5 -113t44.5 -82t66 -50t80 -17t80 17t66 50t44.5 82t16.5 113t-16.5 112.5t-44.5 81.5t-66 50t-80 17t-80 -17t-66 -50t-44.5 -81.5t-16.5 -112.5zM746 363q0 -84 -25 -153.5t-71.5 -119t-112 -76.5t-146.5 -27t-146.5 27t-112 76.5t-71.5 119
t-25 153.5t25 153.5t71.5 118.5t112 76t146.5 27t146.5 -27t112 -76t71.5 -118.5t25 -153.5z" />
    <glyph glyph-name="uni1ECC" unicode="&#x1ecc;" horiz-adv-x="782" 
d="M184 363q0 -64 16.5 -113t44.5 -82t66 -50t80 -17t80 17t66 50t44.5 82t16.5 113t-16.5 112.5t-44.5 81.5t-66 50t-80 17t-80 -17t-66 -50t-44.5 -81.5t-16.5 -112.5zM746 363q0 -84 -25 -153.5t-71.5 -119t-112 -76.5t-146.5 -27t-146.5 27t-112 76.5t-71.5 119
t-25 153.5t25 153.5t71.5 118.5t112 76t146.5 27t146.5 -27t112 -76t71.5 -118.5t25 -153.5z" />
    <glyph glyph-name="Thorn" unicode="&#xde;" horiz-adv-x="609" 
d="M283 725q37 0 75 -2.5t73.5 -11t66.5 -24.5t54 -42.5t36.5 -65.5t13.5 -94q0 -69 -25.5 -114t-69 -70.5t-100.5 -35.5t-120 -10h-79v-255h-143v725h218zM208 613v-247h88q33 0 62 5t50.5 18t34 36t12.5 59q0 45 -15.5 70.5t-40 38.5t-54.5 16.5t-59 3.5h-78z" />
    <glyph glyph-name="Racute" unicode="&#x154;" horiz-adv-x="647" 
d="M281 294h-73v-294h-143v725h208q90 0 152.5 -12.5t102 -39t57.5 -67t18 -96.5q0 -69 -41 -122.5t-130 -77.5l204 -310h-164zM208 613v-208h88q84 0 122 26.5t38 77.5q0 30 -12.5 50t-34.5 32t-53 17t-67 5h-81z" />
    <glyph glyph-name="Rcaron" unicode="&#x158;" horiz-adv-x="647" 
d="M281 294h-73v-294h-143v725h208q90 0 152.5 -12.5t102 -39t57.5 -67t18 -96.5q0 -69 -41 -122.5t-130 -77.5l204 -310h-164zM208 613v-208h88q84 0 122 26.5t38 77.5q0 30 -12.5 50t-34.5 32t-53 17t-67 5h-81z" />
    <glyph glyph-name="uni0156" unicode="&#x156;" horiz-adv-x="647" 
d="M281 294h-73v-294h-143v725h208q90 0 152.5 -12.5t102 -39t57.5 -67t18 -96.5q0 -69 -41 -122.5t-130 -77.5l204 -310h-164zM208 613v-208h88q84 0 122 26.5t38 77.5q0 30 -12.5 50t-34.5 32t-53 17t-67 5h-81z" />
    <glyph glyph-name="Sacute" unicode="&#x15a;" horiz-adv-x="572" 
d="M256 -13q-71 0 -119.5 11t-85.5 26v138q37 -20 86.5 -35.5t111.5 -15.5q28 0 54 5t46 16t32.5 28.5t12.5 42.5q0 20 -9 34.5t-25 26t-37.5 19.5t-45.5 16l-56 17q-94 29 -138.5 84.5t-44.5 121.5q0 50 21.5 90t58 68t85.5 43t104 15q24 0 49 -2t49 -5.5t45.5 -8.5
t37.5 -12v-129q-36 16 -83.5 24.5t-92.5 8.5q-60 0 -97 -20t-37 -56q0 -35 29 -58t84 -40l56 -17q43 -13 78.5 -30.5t61.5 -42.5t40.5 -59.5t14.5 -81.5t-21.5 -87.5t-60 -70.5t-91 -47t-113.5 -17z" />
    <glyph glyph-name="Scaron" unicode="&#x160;" horiz-adv-x="572" 
d="M256 -13q-71 0 -119.5 11t-85.5 26v138q37 -20 86.5 -35.5t111.5 -15.5q28 0 54 5t46 16t32.5 28.5t12.5 42.5q0 20 -9 34.5t-25 26t-37.5 19.5t-45.5 16l-56 17q-94 29 -138.5 84.5t-44.5 121.5q0 50 21.5 90t58 68t85.5 43t104 15q24 0 49 -2t49 -5.5t45.5 -8.5
t37.5 -12v-129q-36 16 -83.5 24.5t-92.5 8.5q-60 0 -97 -20t-37 -56q0 -35 29 -58t84 -40l56 -17q43 -13 78.5 -30.5t61.5 -42.5t40.5 -59.5t14.5 -81.5t-21.5 -87.5t-60 -70.5t-91 -47t-113.5 -17z" />
    <glyph glyph-name="Scedilla" unicode="&#x15e;" horiz-adv-x="572" 
d="M256 -13q-71 0 -119.5 11t-85.5 26v138q37 -20 86.5 -35.5t111.5 -15.5q28 0 54 5t46 16t32.5 28.5t12.5 42.5q0 20 -9 34.5t-25 26t-37.5 19.5t-45.5 16l-56 17q-94 29 -138.5 84.5t-44.5 121.5q0 50 21.5 90t58 68t85.5 43t104 15q24 0 49 -2t49 -5.5t45.5 -8.5
t37.5 -12v-129q-36 16 -83.5 24.5t-92.5 8.5q-60 0 -97 -20t-37 -56q0 -35 29 -58t84 -40l56 -17q43 -13 78.5 -30.5t61.5 -42.5t40.5 -59.5t14.5 -81.5t-21.5 -87.5t-60 -70.5t-91 -47t-113.5 -17z" />
    <glyph glyph-name="Scircumflex" unicode="&#x15c;" horiz-adv-x="572" 
d="M256 -13q-71 0 -119.5 11t-85.5 26v138q37 -20 86.5 -35.5t111.5 -15.5q28 0 54 5t46 16t32.5 28.5t12.5 42.5q0 20 -9 34.5t-25 26t-37.5 19.5t-45.5 16l-56 17q-94 29 -138.5 84.5t-44.5 121.5q0 50 21.5 90t58 68t85.5 43t104 15q24 0 49 -2t49 -5.5t45.5 -8.5
t37.5 -12v-129q-36 16 -83.5 24.5t-92.5 8.5q-60 0 -97 -20t-37 -56q0 -35 29 -58t84 -40l56 -17q43 -13 78.5 -30.5t61.5 -42.5t40.5 -59.5t14.5 -81.5t-21.5 -87.5t-60 -70.5t-91 -47t-113.5 -17z" />
    <glyph glyph-name="uni0218" unicode="&#x218;" horiz-adv-x="572" 
d="M256 -13q-71 0 -119.5 11t-85.5 26v138q37 -20 86.5 -35.5t111.5 -15.5q28 0 54 5t46 16t32.5 28.5t12.5 42.5q0 20 -9 34.5t-25 26t-37.5 19.5t-45.5 16l-56 17q-94 29 -138.5 84.5t-44.5 121.5q0 50 21.5 90t58 68t85.5 43t104 15q24 0 49 -2t49 -5.5t45.5 -8.5
t37.5 -12v-129q-36 16 -83.5 24.5t-92.5 8.5q-60 0 -97 -20t-37 -56q0 -35 29 -58t84 -40l56 -17q43 -13 78.5 -30.5t61.5 -42.5t40.5 -59.5t14.5 -81.5t-21.5 -87.5t-60 -70.5t-91 -47t-113.5 -17z" />
    <glyph glyph-name="Tbar" unicode="&#x166;" horiz-adv-x="600" 
d="M228 609h-223v116h590v-116h-224v-609h-143v609z" />
    <glyph glyph-name="Tcaron" unicode="&#x164;" horiz-adv-x="600" 
d="M228 609h-223v116h590v-116h-224v-609h-143v609z" />
    <glyph glyph-name="uni0162" unicode="&#x162;" horiz-adv-x="600" 
d="M228 609h-223v116h590v-116h-224v-609h-143v609z" />
    <glyph glyph-name="uni021A" unicode="&#x21a;" horiz-adv-x="600" 
d="M228 609h-223v116h590v-116h-224v-609h-143v609z" />
    <glyph glyph-name="Uacute" unicode="&#xda;" horiz-adv-x="708" 
d="M197 725v-419q0 -48 6 -86t23.5 -64.5t48 -40.5t80.5 -14q49 0 80 14t47.5 40.5t22.5 64.5t6 86v419h143v-418q0 -90 -17 -151t-53 -98.5t-93 -54t-136 -16.5q-80 0 -136.5 16.5t-93.5 54t-54 98.5t-17 151v418h143z" />
    <glyph glyph-name="Ubreve" unicode="&#x16c;" horiz-adv-x="708" 
d="M197 725v-419q0 -48 6 -86t23.5 -64.5t48 -40.5t80.5 -14q49 0 80 14t47.5 40.5t22.5 64.5t6 86v419h143v-418q0 -90 -17 -151t-53 -98.5t-93 -54t-136 -16.5q-80 0 -136.5 16.5t-93.5 54t-54 98.5t-17 151v418h143z" />
    <glyph glyph-name="Ucircumflex" unicode="&#xdb;" horiz-adv-x="708" 
d="M197 725v-419q0 -48 6 -86t23.5 -64.5t48 -40.5t80.5 -14q49 0 80 14t47.5 40.5t22.5 64.5t6 86v419h143v-418q0 -90 -17 -151t-53 -98.5t-93 -54t-136 -16.5q-80 0 -136.5 16.5t-93.5 54t-54 98.5t-17 151v418h143z" />
    <glyph glyph-name="Udieresis" unicode="&#xdc;" horiz-adv-x="708" 
d="M197 725v-419q0 -48 6 -86t23.5 -64.5t48 -40.5t80.5 -14q49 0 80 14t47.5 40.5t22.5 64.5t6 86v419h143v-418q0 -90 -17 -151t-53 -98.5t-93 -54t-136 -16.5q-80 0 -136.5 16.5t-93.5 54t-54 98.5t-17 151v418h143z" />
    <glyph glyph-name="Ugrave" unicode="&#xd9;" horiz-adv-x="708" 
d="M197 725v-419q0 -48 6 -86t23.5 -64.5t48 -40.5t80.5 -14q49 0 80 14t47.5 40.5t22.5 64.5t6 86v419h143v-418q0 -90 -17 -151t-53 -98.5t-93 -54t-136 -16.5q-80 0 -136.5 16.5t-93.5 54t-54 98.5t-17 151v418h143z" />
    <glyph glyph-name="Uhungarumlaut" unicode="&#x170;" horiz-adv-x="708" 
d="M197 725v-419q0 -48 6 -86t23.5 -64.5t48 -40.5t80.5 -14q49 0 80 14t47.5 40.5t22.5 64.5t6 86v419h143v-418q0 -90 -17 -151t-53 -98.5t-93 -54t-136 -16.5q-80 0 -136.5 16.5t-93.5 54t-54 98.5t-17 151v418h143z" />
    <glyph glyph-name="Umacron" unicode="&#x16a;" horiz-adv-x="708" 
d="M197 725v-419q0 -48 6 -86t23.5 -64.5t48 -40.5t80.5 -14q49 0 80 14t47.5 40.5t22.5 64.5t6 86v419h143v-418q0 -90 -17 -151t-53 -98.5t-93 -54t-136 -16.5q-80 0 -136.5 16.5t-93.5 54t-54 98.5t-17 151v418h143z" />
    <glyph glyph-name="Uogonek" unicode="&#x172;" horiz-adv-x="708" 
d="M197 725v-419q0 -48 6 -86t23.5 -64.5t48 -40.5t80.5 -14q49 0 80 14t47.5 40.5t22.5 64.5t6 86v419h143v-418q0 -90 -17 -151t-53 -98.5t-93 -54t-136 -16.5q-80 0 -136.5 16.5t-93.5 54t-54 98.5t-17 151v418h143z" />
    <glyph glyph-name="Uring" unicode="&#x16e;" horiz-adv-x="708" 
d="M197 725v-419q0 -48 6 -86t23.5 -64.5t48 -40.5t80.5 -14q49 0 80 14t47.5 40.5t22.5 64.5t6 86v419h143v-418q0 -90 -17 -151t-53 -98.5t-93 -54t-136 -16.5q-80 0 -136.5 16.5t-93.5 54t-54 98.5t-17 151v418h143z" />
    <glyph glyph-name="Utilde" unicode="&#x168;" horiz-adv-x="708" 
d="M197 725v-419q0 -48 6 -86t23.5 -64.5t48 -40.5t80.5 -14q49 0 80 14t47.5 40.5t22.5 64.5t6 86v419h143v-418q0 -90 -17 -151t-53 -98.5t-93 -54t-136 -16.5q-80 0 -136.5 16.5t-93.5 54t-54 98.5t-17 151v418h143z" />
    <glyph glyph-name="uni1EE4" unicode="&#x1ee4;" horiz-adv-x="708" 
d="M197 725v-419q0 -48 6 -86t23.5 -64.5t48 -40.5t80.5 -14q49 0 80 14t47.5 40.5t22.5 64.5t6 86v419h143v-418q0 -90 -17 -151t-53 -98.5t-93 -54t-136 -16.5q-80 0 -136.5 16.5t-93.5 54t-54 98.5t-17 151v418h143z" />
    <glyph glyph-name="Wacute" unicode="&#x1e82;" horiz-adv-x="880" 
d="M635 194l99 531h146l-161 -725h-169l-110 540l-110 -540h-169l-161 725h148l108 -528l101 528h167z" />
    <glyph glyph-name="Wcircumflex" unicode="&#x174;" horiz-adv-x="880" 
d="M635 194l99 531h146l-161 -725h-169l-110 540l-110 -540h-169l-161 725h148l108 -528l101 528h167z" />
    <glyph glyph-name="Wdieresis" unicode="&#x1e84;" horiz-adv-x="880" 
d="M635 194l99 531h146l-161 -725h-169l-110 540l-110 -540h-169l-161 725h148l108 -528l101 528h167z" />
    <glyph glyph-name="Wgrave" unicode="&#x1e80;" horiz-adv-x="880" 
d="M635 194l99 531h146l-161 -725h-169l-110 540l-110 -540h-169l-161 725h148l108 -528l101 528h167z" />
    <glyph glyph-name="Yacute" unicode="&#xdd;" horiz-adv-x="650" 
d="M156 725l169 -303l172 303h163l-267 -445v-280h-143v282l-261 443h167z" />
    <glyph glyph-name="Ycircumflex" unicode="&#x176;" horiz-adv-x="650" 
d="M156 725l169 -303l172 303h163l-267 -445v-280h-143v282l-261 443h167z" />
    <glyph glyph-name="Ydieresis" unicode="&#x178;" horiz-adv-x="650" 
d="M156 725l169 -303l172 303h163l-267 -445v-280h-143v282l-261 443h167z" />
    <glyph glyph-name="Ygrave" unicode="&#x1ef2;" horiz-adv-x="650" 
d="M156 725l169 -303l172 303h163l-267 -445v-280h-143v282l-261 443h167z" />
    <glyph glyph-name="uni0232" unicode="&#x232;" horiz-adv-x="650" 
d="M156 725l169 -303l172 303h163l-267 -445v-280h-143v282l-261 443h167z" />
    <glyph glyph-name="Zacute" unicode="&#x179;" horiz-adv-x="622" 
d="M587 613l-390 -491h401v-122h-579v112l392 492h-361v121h537v-112z" />
    <glyph glyph-name="Zcaron" unicode="&#x17d;" horiz-adv-x="622" 
d="M587 613l-390 -491h401v-122h-579v112l392 492h-361v121h537v-112z" />
    <glyph glyph-name="Zdotaccent" unicode="&#x17b;" horiz-adv-x="622" 
d="M587 613l-390 -491h401v-122h-579v112l392 492h-361v121h537v-112z" />
    <glyph glyph-name="ae" unicode="&#xe6;" horiz-adv-x="1114" 
d="M26 148q0 91 85 136t257 62q-3 29 -14 47t-27 28t-37.5 13.5t-45.5 3.5q-53 0 -95.5 -15.5t-71.5 -37.5v117q18 10 41.5 19t49.5 15.5t52.5 10t50.5 3.5q118 0 174.5 -51.5t56.5 -163.5q0 -4 -0.5 -22t-0.5 -42t-0.5 -49.5t-0.5 -43.5v-54.5t1 -42t2.5 -38.5t3.5 -43
h-125l-1 82q-24 -51 -67 -73t-109 -22q-35 0 -67.5 11t-57 32t-39.5 50.5t-15 67.5zM244 81q25 0 49.5 10t43.5 32t29.5 56.5t8.5 83.5q-113 -5 -164 -31t-51 -72q0 -34 22 -56.5t62 -22.5zM721 235q7 -65 50 -101t115 -36q82 0 164 44v-116q-28 -14 -76.5 -26.5
t-111.5 -12.5q-70 0 -122.5 22.5t-87 61.5t-51.5 90.5t-17 109.5q0 60 19 111.5t53.5 89t82 59t105.5 21.5q63 0 109.5 -23t77 -64.5t45 -100t13.5 -129.5h-368zM839 451q-20 0 -40.5 -5.5t-38 -20t-29.5 -39t-14 -63.5h238q-2 36 -12 60.5t-25.5 39.5t-36 21.5t-42.5 6.5z
" />
    <glyph glyph-name="aacute" unicode="&#xe1;" 
d="M26 148q0 91 85 136t257 62q-3 29 -14 47t-27 28t-37.5 13.5t-45.5 3.5q-53 0 -95.5 -15.5t-71.5 -37.5v117q18 10 41.5 19t49.5 15.5t52.5 10t50.5 3.5q118 0 174.5 -51.5t56.5 -163.5q0 -4 -0.5 -22t-0.5 -42t-0.5 -49.5t-0.5 -43.5v-54.5t1 -42t2.5 -38.5t3.5 -43
h-125l-1 82q-24 -51 -67 -73t-109 -22q-35 0 -67.5 11t-57 32t-39.5 50.5t-15 67.5zM244 81q25 0 49.5 10t43.5 32t29.5 56.5t8.5 83.5q-113 -5 -164 -31t-51 -72q0 -34 22 -56.5t62 -22.5z" />
    <glyph glyph-name="abreve" unicode="&#x103;" 
d="M26 148q0 91 85 136t257 62q-3 29 -14 47t-27 28t-37.5 13.5t-45.5 3.5q-53 0 -95.5 -15.5t-71.5 -37.5v117q18 10 41.5 19t49.5 15.5t52.5 10t50.5 3.5q118 0 174.5 -51.5t56.5 -163.5q0 -4 -0.5 -22t-0.5 -42t-0.5 -49.5t-0.5 -43.5v-54.5t1 -42t2.5 -38.5t3.5 -43
h-125l-1 82q-24 -51 -67 -73t-109 -22q-35 0 -67.5 11t-57 32t-39.5 50.5t-15 67.5zM244 81q25 0 49.5 10t43.5 32t29.5 56.5t8.5 83.5q-113 -5 -164 -31t-51 -72q0 -34 22 -56.5t62 -22.5z" />
    <glyph glyph-name="acircumflex" unicode="&#xe2;" 
d="M26 148q0 91 85 136t257 62q-3 29 -14 47t-27 28t-37.5 13.5t-45.5 3.5q-53 0 -95.5 -15.5t-71.5 -37.5v117q18 10 41.5 19t49.5 15.5t52.5 10t50.5 3.5q118 0 174.5 -51.5t56.5 -163.5q0 -4 -0.5 -22t-0.5 -42t-0.5 -49.5t-0.5 -43.5v-54.5t1 -42t2.5 -38.5t3.5 -43
h-125l-1 82q-24 -51 -67 -73t-109 -22q-35 0 -67.5 11t-57 32t-39.5 50.5t-15 67.5zM244 81q25 0 49.5 10t43.5 32t29.5 56.5t8.5 83.5q-113 -5 -164 -31t-51 -72q0 -34 22 -56.5t62 -22.5z" />
    <glyph glyph-name="adieresis" unicode="&#xe4;" 
d="M26 148q0 91 85 136t257 62q-3 29 -14 47t-27 28t-37.5 13.5t-45.5 3.5q-53 0 -95.5 -15.5t-71.5 -37.5v117q18 10 41.5 19t49.5 15.5t52.5 10t50.5 3.5q118 0 174.5 -51.5t56.5 -163.5q0 -4 -0.5 -22t-0.5 -42t-0.5 -49.5t-0.5 -43.5v-54.5t1 -42t2.5 -38.5t3.5 -43
h-125l-1 82q-24 -51 -67 -73t-109 -22q-35 0 -67.5 11t-57 32t-39.5 50.5t-15 67.5zM244 81q25 0 49.5 10t43.5 32t29.5 56.5t8.5 83.5q-113 -5 -164 -31t-51 -72q0 -34 22 -56.5t62 -22.5z" />
    <glyph glyph-name="agrave" unicode="&#xe0;" 
d="M26 148q0 91 85 136t257 62q-3 29 -14 47t-27 28t-37.5 13.5t-45.5 3.5q-53 0 -95.5 -15.5t-71.5 -37.5v117q18 10 41.5 19t49.5 15.5t52.5 10t50.5 3.5q118 0 174.5 -51.5t56.5 -163.5q0 -4 -0.5 -22t-0.5 -42t-0.5 -49.5t-0.5 -43.5v-54.5t1 -42t2.5 -38.5t3.5 -43
h-125l-1 82q-24 -51 -67 -73t-109 -22q-35 0 -67.5 11t-57 32t-39.5 50.5t-15 67.5zM244 81q25 0 49.5 10t43.5 32t29.5 56.5t8.5 83.5q-113 -5 -164 -31t-51 -72q0 -34 22 -56.5t62 -22.5z" />
    <glyph glyph-name="amacron" unicode="&#x101;" 
d="M26 148q0 91 85 136t257 62q-3 29 -14 47t-27 28t-37.5 13.5t-45.5 3.5q-53 0 -95.5 -15.5t-71.5 -37.5v117q18 10 41.5 19t49.5 15.5t52.5 10t50.5 3.5q118 0 174.5 -51.5t56.5 -163.5q0 -4 -0.5 -22t-0.5 -42t-0.5 -49.5t-0.5 -43.5v-54.5t1 -42t2.5 -38.5t3.5 -43
h-125l-1 82q-24 -51 -67 -73t-109 -22q-35 0 -67.5 11t-57 32t-39.5 50.5t-15 67.5zM244 81q25 0 49.5 10t43.5 32t29.5 56.5t8.5 83.5q-113 -5 -164 -31t-51 -72q0 -34 22 -56.5t62 -22.5z" />
    <glyph glyph-name="aogonek" unicode="&#x105;" 
d="M26 148q0 91 85 136t257 62q-3 29 -14 47t-27 28t-37.5 13.5t-45.5 3.5q-53 0 -95.5 -15.5t-71.5 -37.5v117q18 10 41.5 19t49.5 15.5t52.5 10t50.5 3.5q118 0 174.5 -51.5t56.5 -163.5q0 -4 -0.5 -22t-0.5 -42t-0.5 -49.5t-0.5 -43.5v-54.5t1 -42t2.5 -38.5t3.5 -43
h-125l-1 82q-24 -51 -67 -73t-109 -22q-35 0 -67.5 11t-57 32t-39.5 50.5t-15 67.5zM244 81q25 0 49.5 10t43.5 32t29.5 56.5t8.5 83.5q-113 -5 -164 -31t-51 -72q0 -34 22 -56.5t62 -22.5z" />
    <glyph glyph-name="aring" unicode="&#xe5;" 
d="M26 148q0 91 85 136t257 62q-3 29 -14 47t-27 28t-37.5 13.5t-45.5 3.5q-53 0 -95.5 -15.5t-71.5 -37.5v117q18 10 41.5 19t49.5 15.5t52.5 10t50.5 3.5q118 0 174.5 -51.5t56.5 -163.5q0 -4 -0.5 -22t-0.5 -42t-0.5 -49.5t-0.5 -43.5v-54.5t1 -42t2.5 -38.5t3.5 -43
h-125l-1 82q-24 -51 -67 -73t-109 -22q-35 0 -67.5 11t-57 32t-39.5 50.5t-15 67.5zM244 81q25 0 49.5 10t43.5 32t29.5 56.5t8.5 83.5q-113 -5 -164 -31t-51 -72q0 -34 22 -56.5t62 -22.5z" />
    <glyph glyph-name="atilde" unicode="&#xe3;" 
d="M26 148q0 91 85 136t257 62q-3 29 -14 47t-27 28t-37.5 13.5t-45.5 3.5q-53 0 -95.5 -15.5t-71.5 -37.5v117q18 10 41.5 19t49.5 15.5t52.5 10t50.5 3.5q118 0 174.5 -51.5t56.5 -163.5q0 -4 -0.5 -22t-0.5 -42t-0.5 -49.5t-0.5 -43.5v-54.5t1 -42t2.5 -38.5t3.5 -43
h-125l-1 82q-24 -51 -67 -73t-109 -22q-35 0 -67.5 11t-57 32t-39.5 50.5t-15 67.5zM244 81q25 0 49.5 10t43.5 32t29.5 56.5t8.5 83.5q-113 -5 -164 -31t-51 -72q0 -34 22 -56.5t62 -22.5z" />
    <glyph glyph-name="cacute" unicode="&#x107;" horiz-adv-x="457" 
d="M27 268q0 57 18 108t53.5 89.5t87.5 61.5t121 23q13 0 29 -1t31.5 -3t30 -5t24.5 -8v-113q-19 8 -45 13.5t-55 5.5q-33 0 -61.5 -10.5t-49.5 -31.5t-32.5 -53.5t-11.5 -75.5q0 -44 11.5 -76t32.5 -53t49.5 -31t61.5 -10q32 0 61 8t49 17v-113q-11 -5 -26 -9t-32 -7
t-34.5 -5t-32.5 -2q-69 0 -121.5 22.5t-88 61t-53 89.5t-17.5 108z" />
    <glyph glyph-name="ccaron" unicode="&#x10d;" horiz-adv-x="457" 
d="M27 268q0 57 18 108t53.5 89.5t87.5 61.5t121 23q13 0 29 -1t31.5 -3t30 -5t24.5 -8v-113q-19 8 -45 13.5t-55 5.5q-33 0 -61.5 -10.5t-49.5 -31.5t-32.5 -53.5t-11.5 -75.5q0 -44 11.5 -76t32.5 -53t49.5 -31t61.5 -10q32 0 61 8t49 17v-113q-11 -5 -26 -9t-32 -7
t-34.5 -5t-32.5 -2q-69 0 -121.5 22.5t-88 61t-53 89.5t-17.5 108z" />
    <glyph glyph-name="ccedilla" unicode="&#xe7;" horiz-adv-x="457" 
d="M27 268q0 57 18 108t53.5 89.5t87.5 61.5t121 23q13 0 29 -1t31.5 -3t30 -5t24.5 -8v-113q-19 8 -45 13.5t-55 5.5q-33 0 -61.5 -10.5t-49.5 -31.5t-32.5 -53.5t-11.5 -75.5q0 -44 11.5 -76t32.5 -53t49.5 -31t61.5 -10q32 0 61 8t49 17v-113q-11 -5 -26 -9t-32 -7
t-34.5 -5t-32.5 -2q-69 0 -121.5 22.5t-88 61t-53 89.5t-17.5 108z" />
    <glyph glyph-name="ccircumflex" unicode="&#x109;" horiz-adv-x="457" 
d="M27 268q0 57 18 108t53.5 89.5t87.5 61.5t121 23q13 0 29 -1t31.5 -3t30 -5t24.5 -8v-113q-19 8 -45 13.5t-55 5.5q-33 0 -61.5 -10.5t-49.5 -31.5t-32.5 -53.5t-11.5 -75.5q0 -44 11.5 -76t32.5 -53t49.5 -31t61.5 -10q32 0 61 8t49 17v-113q-11 -5 -26 -9t-32 -7
t-34.5 -5t-32.5 -2q-69 0 -121.5 22.5t-88 61t-53 89.5t-17.5 108z" />
    <glyph glyph-name="cdotaccent" unicode="&#x10b;" horiz-adv-x="457" 
d="M27 268q0 57 18 108t53.5 89.5t87.5 61.5t121 23q13 0 29 -1t31.5 -3t30 -5t24.5 -8v-113q-19 8 -45 13.5t-55 5.5q-33 0 -61.5 -10.5t-49.5 -31.5t-32.5 -53.5t-11.5 -75.5q0 -44 11.5 -76t32.5 -53t49.5 -31t61.5 -10q32 0 61 8t49 17v-113q-11 -5 -26 -9t-32 -7
t-34.5 -5t-32.5 -2q-69 0 -121.5 22.5t-88 61t-53 89.5t-17.5 108z" />
    <glyph glyph-name="dcaron" unicode="&#x10f;" horiz-adv-x="613" 
d="M413 0v68q-26 -45 -69.5 -63t-85.5 -18q-50 0 -92 20t-73 56.5t-48.5 88.5t-17.5 117q0 63 17 115t48 89t73.5 57t92.5 20q51 0 92 -21.5t63 -59.5v286h138v-755h-138zM292 93q57 0 91.5 46.5t34.5 129.5q0 81 -34.5 128t-91.5 47t-88.5 -48.5t-31.5 -127.5t31.5 -127
t88.5 -48z" />
    <glyph glyph-name="dcroat" unicode="&#x111;" horiz-adv-x="613" 
d="M413 0v68q-26 -45 -69.5 -63t-85.5 -18q-50 0 -92 20t-73 56.5t-48.5 88.5t-17.5 117q0 63 17 115t48 89t73.5 57t92.5 20q51 0 92 -21.5t63 -59.5v286h138v-755h-138zM292 93q57 0 91.5 46.5t34.5 129.5q0 81 -34.5 128t-91.5 47t-88.5 -48.5t-31.5 -127.5t31.5 -127
t88.5 -48z" />
    <glyph glyph-name="eth" unicode="&#xf0;" horiz-adv-x="613" 
d="M413 0v68q-26 -45 -69.5 -63t-85.5 -18q-50 0 -92 20t-73 56.5t-48.5 88.5t-17.5 117q0 63 17 115t48 89t73.5 57t92.5 20q51 0 92 -21.5t63 -59.5v286h138v-755h-138zM292 93q57 0 91.5 46.5t34.5 129.5q0 81 -34.5 128t-91.5 47t-88.5 -48.5t-31.5 -127.5t31.5 -127
t88.5 -48z" />
    <glyph glyph-name="eacute" unicode="&#xe9;" 
d="M164 235q7 -65 50 -101t115 -36q82 0 164 44v-116q-28 -14 -76.5 -26.5t-111.5 -12.5q-70 0 -122.5 22.5t-87 61.5t-51.5 90.5t-17 109.5q0 60 19 111.5t53.5 89t82 59t105.5 21.5q63 0 109.5 -23t77 -64.5t45 -100t13.5 -129.5h-368zM282 451q-20 0 -40.5 -5.5t-38 -20
t-29.5 -39t-14 -63.5h238q-2 36 -12 60.5t-25.5 39.5t-36 21.5t-42.5 6.5z" />
    <glyph glyph-name="ebreve" unicode="&#x115;" 
d="M164 235q7 -65 50 -101t115 -36q82 0 164 44v-116q-28 -14 -76.5 -26.5t-111.5 -12.5q-70 0 -122.5 22.5t-87 61.5t-51.5 90.5t-17 109.5q0 60 19 111.5t53.5 89t82 59t105.5 21.5q63 0 109.5 -23t77 -64.5t45 -100t13.5 -129.5h-368zM282 451q-20 0 -40.5 -5.5t-38 -20
t-29.5 -39t-14 -63.5h238q-2 36 -12 60.5t-25.5 39.5t-36 21.5t-42.5 6.5z" />
    <glyph glyph-name="ecaron" unicode="&#x11b;" 
d="M164 235q7 -65 50 -101t115 -36q82 0 164 44v-116q-28 -14 -76.5 -26.5t-111.5 -12.5q-70 0 -122.5 22.5t-87 61.5t-51.5 90.5t-17 109.5q0 60 19 111.5t53.5 89t82 59t105.5 21.5q63 0 109.5 -23t77 -64.5t45 -100t13.5 -129.5h-368zM282 451q-20 0 -40.5 -5.5t-38 -20
t-29.5 -39t-14 -63.5h238q-2 36 -12 60.5t-25.5 39.5t-36 21.5t-42.5 6.5z" />
    <glyph glyph-name="ecircumflex" unicode="&#xea;" 
d="M164 235q7 -65 50 -101t115 -36q82 0 164 44v-116q-28 -14 -76.5 -26.5t-111.5 -12.5q-70 0 -122.5 22.5t-87 61.5t-51.5 90.5t-17 109.5q0 60 19 111.5t53.5 89t82 59t105.5 21.5q63 0 109.5 -23t77 -64.5t45 -100t13.5 -129.5h-368zM282 451q-20 0 -40.5 -5.5t-38 -20
t-29.5 -39t-14 -63.5h238q-2 36 -12 60.5t-25.5 39.5t-36 21.5t-42.5 6.5z" />
    <glyph glyph-name="edieresis" unicode="&#xeb;" 
d="M164 235q7 -65 50 -101t115 -36q82 0 164 44v-116q-28 -14 -76.5 -26.5t-111.5 -12.5q-70 0 -122.5 22.5t-87 61.5t-51.5 90.5t-17 109.5q0 60 19 111.5t53.5 89t82 59t105.5 21.5q63 0 109.5 -23t77 -64.5t45 -100t13.5 -129.5h-368zM282 451q-20 0 -40.5 -5.5t-38 -20
t-29.5 -39t-14 -63.5h238q-2 36 -12 60.5t-25.5 39.5t-36 21.5t-42.5 6.5z" />
    <glyph glyph-name="egrave" unicode="&#xe8;" 
d="M164 235q7 -65 50 -101t115 -36q82 0 164 44v-116q-28 -14 -76.5 -26.5t-111.5 -12.5q-70 0 -122.5 22.5t-87 61.5t-51.5 90.5t-17 109.5q0 60 19 111.5t53.5 89t82 59t105.5 21.5q63 0 109.5 -23t77 -64.5t45 -100t13.5 -129.5h-368zM282 451q-20 0 -40.5 -5.5t-38 -20
t-29.5 -39t-14 -63.5h238q-2 36 -12 60.5t-25.5 39.5t-36 21.5t-42.5 6.5z" />
    <glyph glyph-name="emacron" unicode="&#x113;" 
d="M164 235q7 -65 50 -101t115 -36q82 0 164 44v-116q-28 -14 -76.5 -26.5t-111.5 -12.5q-70 0 -122.5 22.5t-87 61.5t-51.5 90.5t-17 109.5q0 60 19 111.5t53.5 89t82 59t105.5 21.5q63 0 109.5 -23t77 -64.5t45 -100t13.5 -129.5h-368zM282 451q-20 0 -40.5 -5.5t-38 -20
t-29.5 -39t-14 -63.5h238q-2 36 -12 60.5t-25.5 39.5t-36 21.5t-42.5 6.5z" />
    <glyph glyph-name="eogonek" unicode="&#x119;" 
d="M164 235q7 -65 50 -101t115 -36q82 0 164 44v-116q-28 -14 -76.5 -26.5t-111.5 -12.5q-70 0 -122.5 22.5t-87 61.5t-51.5 90.5t-17 109.5q0 60 19 111.5t53.5 89t82 59t105.5 21.5q63 0 109.5 -23t77 -64.5t45 -100t13.5 -129.5h-368zM282 451q-20 0 -40.5 -5.5t-38 -20
t-29.5 -39t-14 -63.5h238q-2 36 -12 60.5t-25.5 39.5t-36 21.5t-42.5 6.5z" />
    <glyph glyph-name="edotaccent" unicode="&#x117;" 
d="M164 235q7 -65 50 -101t115 -36q82 0 164 44v-116q-28 -14 -76.5 -26.5t-111.5 -12.5q-70 0 -122.5 22.5t-87 61.5t-51.5 90.5t-17 109.5q0 60 19 111.5t53.5 89t82 59t105.5 21.5q63 0 109.5 -23t77 -64.5t45 -100t13.5 -129.5h-368zM282 451q-20 0 -40.5 -5.5t-38 -20
t-29.5 -39t-14 -63.5h238q-2 36 -12 60.5t-25.5 39.5t-36 21.5t-42.5 6.5z" />
    <glyph glyph-name="gbreve" unicode="&#x11f;" horiz-adv-x="611" 
d="M293 124q58 0 91 44.5t33 116.5q0 71 -33 115.5t-91 44.5q-28 0 -50.5 -12.5t-38 -34.5t-24 -51t-8.5 -63q0 -33 8.5 -62.5t24 -51t38 -34t50.5 -12.5zM412 100q-26 -44 -69 -62.5t-85 -18.5q-51 0 -93.5 19.5t-73 54.5t-47.5 84t-17 108q0 57 16.5 106t47 84t73 55
t94.5 20q51 0 93.5 -23.5t60.5 -58.5v70h137v-468q0 -78 -23 -130t-60.5 -83.5t-85 -44.5t-96.5 -13q-48 0 -97 7.5t-84 24.5v119q32 -19 79 -29.5t89 -10.5q34 0 60 6.5t44 22.5t27.5 43t9.5 69v49z" />
    <glyph glyph-name="gcircumflex" unicode="&#x11d;" horiz-adv-x="611" 
d="M293 124q58 0 91 44.5t33 116.5q0 71 -33 115.5t-91 44.5q-28 0 -50.5 -12.5t-38 -34.5t-24 -51t-8.5 -63q0 -33 8.5 -62.5t24 -51t38 -34t50.5 -12.5zM412 100q-26 -44 -69 -62.5t-85 -18.5q-51 0 -93.5 19.5t-73 54.5t-47.5 84t-17 108q0 57 16.5 106t47 84t73 55
t94.5 20q51 0 93.5 -23.5t60.5 -58.5v70h137v-468q0 -78 -23 -130t-60.5 -83.5t-85 -44.5t-96.5 -13q-48 0 -97 7.5t-84 24.5v119q32 -19 79 -29.5t89 -10.5q34 0 60 6.5t44 22.5t27.5 43t9.5 69v49z" />
    <glyph glyph-name="uni0123" unicode="&#x123;" horiz-adv-x="611" 
d="M293 124q58 0 91 44.5t33 116.5q0 71 -33 115.5t-91 44.5q-28 0 -50.5 -12.5t-38 -34.5t-24 -51t-8.5 -63q0 -33 8.5 -62.5t24 -51t38 -34t50.5 -12.5zM412 100q-26 -44 -69 -62.5t-85 -18.5q-51 0 -93.5 19.5t-73 54.5t-47.5 84t-17 108q0 57 16.5 106t47 84t73 55
t94.5 20q51 0 93.5 -23.5t60.5 -58.5v70h137v-468q0 -78 -23 -130t-60.5 -83.5t-85 -44.5t-96.5 -13q-48 0 -97 7.5t-84 24.5v119q32 -19 79 -29.5t89 -10.5q34 0 60 6.5t44 22.5t27.5 43t9.5 69v49z" />
    <glyph glyph-name="gdotaccent" unicode="&#x121;" horiz-adv-x="611" 
d="M293 124q58 0 91 44.5t33 116.5q0 71 -33 115.5t-91 44.5q-28 0 -50.5 -12.5t-38 -34.5t-24 -51t-8.5 -63q0 -33 8.5 -62.5t24 -51t38 -34t50.5 -12.5zM412 100q-26 -44 -69 -62.5t-85 -18.5q-51 0 -93.5 19.5t-73 54.5t-47.5 84t-17 108q0 57 16.5 106t47 84t73 55
t94.5 20q51 0 93.5 -23.5t60.5 -58.5v70h137v-468q0 -78 -23 -130t-60.5 -83.5t-85 -44.5t-96.5 -13q-48 0 -97 7.5t-84 24.5v119q32 -19 79 -29.5t89 -10.5q34 0 60 6.5t44 22.5t27.5 43t9.5 69v49z" />
    <glyph glyph-name="hbar" unicode="&#x127;" horiz-adv-x="596" 
d="M200 467q23 41 64.5 62t91.5 21q97 0 141.5 -55.5t44.5 -155.5v-339h-138v309q0 26 -3.5 49.5t-13.5 41.5t-28.5 28.5t-47.5 10.5q-34 0 -55.5 -13t-34 -34.5t-17 -50.5t-4.5 -61v-280h-138v755h138v-288z" />
    <glyph glyph-name="hcircumflex" unicode="&#x125;" horiz-adv-x="596" 
d="M200 467q23 41 64.5 62t91.5 21q97 0 141.5 -55.5t44.5 -155.5v-339h-138v309q0 26 -3.5 49.5t-13.5 41.5t-28.5 28.5t-47.5 10.5q-34 0 -55.5 -13t-34 -34.5t-17 -50.5t-4.5 -61v-280h-138v755h138v-288z" />
    <glyph glyph-name="dotlessi" unicode="&#x131;" horiz-adv-x="262" 
d="M200 538v-538h-138v538h138zM200 755v-128h-138v128h138z" />
    <glyph glyph-name="iacute" unicode="&#xed;" horiz-adv-x="262" 
d="M200 538v-538h-138v538h138zM200 755v-128h-138v128h138z" />
    <glyph glyph-name="ibreve" unicode="&#x12d;" horiz-adv-x="262" 
d="M200 538v-538h-138v538h138zM200 755v-128h-138v128h138z" />
    <glyph glyph-name="icircumflex" unicode="&#xee;" horiz-adv-x="262" 
d="M200 538v-538h-138v538h138zM200 755v-128h-138v128h138z" />
    <glyph glyph-name="idieresis" unicode="&#xef;" horiz-adv-x="262" 
d="M200 538v-538h-138v538h138zM200 755v-128h-138v128h138z" />
    <glyph glyph-name="igrave" unicode="&#xec;" horiz-adv-x="262" 
d="M200 538v-538h-138v538h138zM200 755v-128h-138v128h138z" />
    <glyph glyph-name="imacron" unicode="&#x12b;" horiz-adv-x="262" 
d="M200 538v-538h-138v538h138zM200 755v-128h-138v128h138z" />
    <glyph glyph-name="iogonek" unicode="&#x12f;" horiz-adv-x="262" 
d="M200 538v-538h-138v538h138zM200 755v-128h-138v128h138z" />
    <glyph glyph-name="itilde" unicode="&#x129;" horiz-adv-x="262" 
d="M200 538v-538h-138v538h138zM200 755v-128h-138v128h138z" />
    <glyph glyph-name="uni1ECB" unicode="&#x1ecb;" horiz-adv-x="262" 
d="M200 538v-538h-138v538h138zM200 755v-128h-138v128h138z" />
    <glyph glyph-name="uni0237" unicode="&#x237;" horiz-adv-x="302" 
d="M88 -196q-19 0 -33 1t-35 3v109q9 -1 18 -1.5t23 -0.5q20 0 30.5 13.5t10.5 57.5v457h-82v95h220v-554q0 -91 -34.5 -135.5t-117.5 -44.5zM240 755v-128h-138v128h138z" />
    <glyph glyph-name="jcircumflex" unicode="&#x135;" horiz-adv-x="302" 
d="M88 -196q-19 0 -33 1t-35 3v109q9 -1 18 -1.5t23 -0.5q20 0 30.5 13.5t10.5 57.5v457h-82v95h220v-554q0 -91 -34.5 -135.5t-117.5 -44.5zM240 755v-128h-138v128h138z" />
    <glyph glyph-name="uni0137" unicode="&#x137;" horiz-adv-x="555" 
d="M200 755v-460l189 243h148l-203 -252l239 -286h-171l-202 239v-239h-138v755h138z" />
    <glyph glyph-name="lacute" unicode="&#x13a;" horiz-adv-x="262" 
d="M200 0h-138v755h138v-755z" />
    <glyph glyph-name="lcaron" unicode="&#x13e;" horiz-adv-x="262" 
d="M200 0h-138v755h138v-755z" />
    <glyph glyph-name="uni013C" unicode="&#x13c;" horiz-adv-x="262" 
d="M200 0h-138v755h138v-755z" />
    <glyph glyph-name="ldot" unicode="&#x140;" horiz-adv-x="262" 
d="M200 0h-138v755h138v-755z" />
    <glyph glyph-name="lslash" unicode="&#x142;" horiz-adv-x="262" 
d="M200 0h-138v755h138v-755z" />
    <glyph glyph-name="eng" unicode="&#x14b;" horiz-adv-x="596" 
d="M200 467q23 41 64.5 62t91.5 21q97 0 141.5 -55.5t44.5 -155.5v-339h-138v309q0 26 -3.5 49.5t-13.5 41.5t-28.5 28.5t-47.5 10.5q-34 0 -55.5 -13t-34 -34.5t-17 -50.5t-4.5 -61v-280h-138v538h138v-71z" />
    <glyph glyph-name="nacute" unicode="&#x144;" horiz-adv-x="596" 
d="M200 467q23 41 64.5 62t91.5 21q97 0 141.5 -55.5t44.5 -155.5v-339h-138v309q0 26 -3.5 49.5t-13.5 41.5t-28.5 28.5t-47.5 10.5q-34 0 -55.5 -13t-34 -34.5t-17 -50.5t-4.5 -61v-280h-138v538h138v-71z" />
    <glyph glyph-name="ncaron" unicode="&#x148;" horiz-adv-x="596" 
d="M200 467q23 41 64.5 62t91.5 21q97 0 141.5 -55.5t44.5 -155.5v-339h-138v309q0 26 -3.5 49.5t-13.5 41.5t-28.5 28.5t-47.5 10.5q-34 0 -55.5 -13t-34 -34.5t-17 -50.5t-4.5 -61v-280h-138v538h138v-71z" />
    <glyph glyph-name="uni0146" unicode="&#x146;" horiz-adv-x="596" 
d="M200 467q23 41 64.5 62t91.5 21q97 0 141.5 -55.5t44.5 -155.5v-339h-138v309q0 26 -3.5 49.5t-13.5 41.5t-28.5 28.5t-47.5 10.5q-34 0 -55.5 -13t-34 -34.5t-17 -50.5t-4.5 -61v-280h-138v538h138v-71z" />
    <glyph glyph-name="ntilde" unicode="&#xf1;" horiz-adv-x="596" 
d="M200 467q23 41 64.5 62t91.5 21q97 0 141.5 -55.5t44.5 -155.5v-339h-138v309q0 26 -3.5 49.5t-13.5 41.5t-28.5 28.5t-47.5 10.5q-34 0 -55.5 -13t-34 -34.5t-17 -50.5t-4.5 -61v-280h-138v538h138v-71z" />
    <glyph glyph-name="oe" unicode="&#x153;" horiz-adv-x="1151" 
d="M293 442q-60 0 -93.5 -44.5t-33.5 -129.5t33.5 -129t93.5 -44t93.5 44t33.5 129t-33.5 129.5t-93.5 44.5zM293 -13q-53 0 -101 17.5t-85 52.5t-59 87.5t-22 123.5t22 124t59 88t85 52.5t101 17.5q52 0 100.5 -17.5t85.5 -52.5t59 -88t22 -124t-22 -123.5t-59 -87.5
t-85.5 -52.5t-100.5 -17.5zM758 235q7 -65 50 -101t115 -36q82 0 164 44v-116q-28 -14 -76.5 -26.5t-111.5 -12.5q-70 0 -122.5 22.5t-87 61.5t-51.5 90.5t-17 109.5q0 60 19 111.5t53.5 89t82 59t105.5 21.5q63 0 109.5 -23t77 -64.5t45 -100t13.5 -129.5h-368zM876 451
q-20 0 -40.5 -5.5t-38 -20t-29.5 -39t-14 -63.5h238q-2 36 -12 60.5t-25.5 39.5t-36 21.5t-42.5 6.5z" />
    <glyph glyph-name="oacute" unicode="&#xf3;" horiz-adv-x="586" 
d="M293 442q-60 0 -93.5 -44.5t-33.5 -129.5t33.5 -129t93.5 -44t93.5 44t33.5 129t-33.5 129.5t-93.5 44.5zM293 -13q-53 0 -101 17.5t-85 52.5t-59 87.5t-22 123.5t22 124t59 88t85 52.5t101 17.5q52 0 100.5 -17.5t85.5 -52.5t59 -88t22 -124t-22 -123.5t-59 -87.5
t-85.5 -52.5t-100.5 -17.5z" />
    <glyph glyph-name="obreve" unicode="&#x14f;" horiz-adv-x="586" 
d="M293 442q-60 0 -93.5 -44.5t-33.5 -129.5t33.5 -129t93.5 -44t93.5 44t33.5 129t-33.5 129.5t-93.5 44.5zM293 -13q-53 0 -101 17.5t-85 52.5t-59 87.5t-22 123.5t22 124t59 88t85 52.5t101 17.5q52 0 100.5 -17.5t85.5 -52.5t59 -88t22 -124t-22 -123.5t-59 -87.5
t-85.5 -52.5t-100.5 -17.5z" />
    <glyph glyph-name="ocircumflex" unicode="&#xf4;" horiz-adv-x="586" 
d="M293 442q-60 0 -93.5 -44.5t-33.5 -129.5t33.5 -129t93.5 -44t93.5 44t33.5 129t-33.5 129.5t-93.5 44.5zM293 -13q-53 0 -101 17.5t-85 52.5t-59 87.5t-22 123.5t22 124t59 88t85 52.5t101 17.5q52 0 100.5 -17.5t85.5 -52.5t59 -88t22 -124t-22 -123.5t-59 -87.5
t-85.5 -52.5t-100.5 -17.5z" />
    <glyph glyph-name="odieresis" unicode="&#xf6;" horiz-adv-x="586" 
d="M293 442q-60 0 -93.5 -44.5t-33.5 -129.5t33.5 -129t93.5 -44t93.5 44t33.5 129t-33.5 129.5t-93.5 44.5zM293 -13q-53 0 -101 17.5t-85 52.5t-59 87.5t-22 123.5t22 124t59 88t85 52.5t101 17.5q52 0 100.5 -17.5t85.5 -52.5t59 -88t22 -124t-22 -123.5t-59 -87.5
t-85.5 -52.5t-100.5 -17.5z" />
    <glyph glyph-name="ograve" unicode="&#xf2;" horiz-adv-x="586" 
d="M293 442q-60 0 -93.5 -44.5t-33.5 -129.5t33.5 -129t93.5 -44t93.5 44t33.5 129t-33.5 129.5t-93.5 44.5zM293 -13q-53 0 -101 17.5t-85 52.5t-59 87.5t-22 123.5t22 124t59 88t85 52.5t101 17.5q52 0 100.5 -17.5t85.5 -52.5t59 -88t22 -124t-22 -123.5t-59 -87.5
t-85.5 -52.5t-100.5 -17.5z" />
    <glyph glyph-name="ohungarumlaut" unicode="&#x151;" horiz-adv-x="586" 
d="M293 442q-60 0 -93.5 -44.5t-33.5 -129.5t33.5 -129t93.5 -44t93.5 44t33.5 129t-33.5 129.5t-93.5 44.5zM293 -13q-53 0 -101 17.5t-85 52.5t-59 87.5t-22 123.5t22 124t59 88t85 52.5t101 17.5q52 0 100.5 -17.5t85.5 -52.5t59 -88t22 -124t-22 -123.5t-59 -87.5
t-85.5 -52.5t-100.5 -17.5z" />
    <glyph glyph-name="omacron" unicode="&#x14d;" horiz-adv-x="586" 
d="M293 442q-60 0 -93.5 -44.5t-33.5 -129.5t33.5 -129t93.5 -44t93.5 44t33.5 129t-33.5 129.5t-93.5 44.5zM293 -13q-53 0 -101 17.5t-85 52.5t-59 87.5t-22 123.5t22 124t59 88t85 52.5t101 17.5q52 0 100.5 -17.5t85.5 -52.5t59 -88t22 -124t-22 -123.5t-59 -87.5
t-85.5 -52.5t-100.5 -17.5z" />
    <glyph glyph-name="oslash" unicode="&#xf8;" horiz-adv-x="586" 
d="M293 442q-60 0 -93.5 -44.5t-33.5 -129.5t33.5 -129t93.5 -44t93.5 44t33.5 129t-33.5 129.5t-93.5 44.5zM293 -13q-53 0 -101 17.5t-85 52.5t-59 87.5t-22 123.5t22 124t59 88t85 52.5t101 17.5q52 0 100.5 -17.5t85.5 -52.5t59 -88t22 -124t-22 -123.5t-59 -87.5
t-85.5 -52.5t-100.5 -17.5z" />
    <glyph glyph-name="otilde" unicode="&#xf5;" horiz-adv-x="586" 
d="M293 442q-60 0 -93.5 -44.5t-33.5 -129.5t33.5 -129t93.5 -44t93.5 44t33.5 129t-33.5 129.5t-93.5 44.5zM293 -13q-53 0 -101 17.5t-85 52.5t-59 87.5t-22 123.5t22 124t59 88t85 52.5t101 17.5q52 0 100.5 -17.5t85.5 -52.5t59 -88t22 -124t-22 -123.5t-59 -87.5
t-85.5 -52.5t-100.5 -17.5z" />
    <glyph glyph-name="uni1ECD" unicode="&#x1ecd;" horiz-adv-x="586" 
d="M293 442q-60 0 -93.5 -44.5t-33.5 -129.5t33.5 -129t93.5 -44t93.5 44t33.5 129t-33.5 129.5t-93.5 44.5zM293 -13q-53 0 -101 17.5t-85 52.5t-59 87.5t-22 123.5t22 124t59 88t85 52.5t101 17.5q52 0 100.5 -17.5t85.5 -52.5t59 -88t22 -124t-22 -123.5t-59 -87.5
t-85.5 -52.5t-100.5 -17.5z" />
    <glyph glyph-name="thorn" unicode="&#xfe;" horiz-adv-x="613" 
d="M321 93q57 0 88.5 48t31.5 127t-31.5 127.5t-88.5 48.5t-91.5 -47t-34.5 -128q0 -83 34.5 -129.5t91.5 -46.5zM62 -195v733h138v-69q22 38 63 59.5t92 21.5q50 0 92.5 -20t73 -57t48 -89t17.5 -115q0 -65 -17.5 -117t-49 -88.5t-74 -56.5t-91.5 -20q-42 0 -85 18t-69 63
v-263h-138z" />
    <glyph glyph-name="racute" unicode="&#x155;" horiz-adv-x="379" 
d="M370 405q-15 2 -28.5 2.5t-28.5 0.5q-26 0 -46.5 -5.5t-35.5 -19.5t-23 -38.5t-8 -62.5v-282h-138v538h136v-94q23 50 59 71.5t83 21.5q7 0 15 -0.5t15 -1.5v-130z" />
    <glyph glyph-name="rcaron" unicode="&#x159;" horiz-adv-x="379" 
d="M370 405q-15 2 -28.5 2.5t-28.5 0.5q-26 0 -46.5 -5.5t-35.5 -19.5t-23 -38.5t-8 -62.5v-282h-138v538h136v-94q23 50 59 71.5t83 21.5q7 0 15 -0.5t15 -1.5v-130z" />
    <glyph glyph-name="uni0157" unicode="&#x157;" horiz-adv-x="379" 
d="M370 405q-15 2 -28.5 2.5t-28.5 0.5q-26 0 -46.5 -5.5t-35.5 -19.5t-23 -38.5t-8 -62.5v-282h-138v538h136v-94q23 50 59 71.5t83 21.5q7 0 15 -0.5t15 -1.5v-130z" />
    <glyph glyph-name="sacute" unicode="&#x15b;" horiz-adv-x="455" 
d="M213 -13q-57 0 -101.5 8t-72.5 19v122q28 -14 66 -26t92 -12q48 0 72.5 14.5t24.5 39.5q0 20 -15 34.5t-60 28.5l-43 13q-40 12 -67 29.5t-43.5 39t-23.5 45.5t-7 49q0 39 17 68.5t46.5 50t68 30.5t82.5 10q35 0 72.5 -6t73.5 -18v-116q-28 11 -65.5 19.5t-75.5 8.5
q-40 0 -65 -10.5t-25 -34.5q0 -17 15 -31.5t57 -27.5l43 -13q75 -23 113 -59.5t38 -104.5q0 -36 -16 -67t-44.5 -54t-68.5 -36t-88 -13z" />
    <glyph glyph-name="scaron" unicode="&#x161;" horiz-adv-x="455" 
d="M213 -13q-57 0 -101.5 8t-72.5 19v122q28 -14 66 -26t92 -12q48 0 72.5 14.5t24.5 39.5q0 20 -15 34.5t-60 28.5l-43 13q-40 12 -67 29.5t-43.5 39t-23.5 45.5t-7 49q0 39 17 68.5t46.5 50t68 30.5t82.5 10q35 0 72.5 -6t73.5 -18v-116q-28 11 -65.5 19.5t-75.5 8.5
q-40 0 -65 -10.5t-25 -34.5q0 -17 15 -31.5t57 -27.5l43 -13q75 -23 113 -59.5t38 -104.5q0 -36 -16 -67t-44.5 -54t-68.5 -36t-88 -13z" />
    <glyph glyph-name="scedilla" unicode="&#x15f;" horiz-adv-x="455" 
d="M213 -13q-57 0 -101.5 8t-72.5 19v122q28 -14 66 -26t92 -12q48 0 72.5 14.5t24.5 39.5q0 20 -15 34.5t-60 28.5l-43 13q-40 12 -67 29.5t-43.5 39t-23.5 45.5t-7 49q0 39 17 68.5t46.5 50t68 30.5t82.5 10q35 0 72.5 -6t73.5 -18v-116q-28 11 -65.5 19.5t-75.5 8.5
q-40 0 -65 -10.5t-25 -34.5q0 -17 15 -31.5t57 -27.5l43 -13q75 -23 113 -59.5t38 -104.5q0 -36 -16 -67t-44.5 -54t-68.5 -36t-88 -13z" />
    <glyph glyph-name="scircumflex" unicode="&#x15d;" horiz-adv-x="455" 
d="M213 -13q-57 0 -101.5 8t-72.5 19v122q28 -14 66 -26t92 -12q48 0 72.5 14.5t24.5 39.5q0 20 -15 34.5t-60 28.5l-43 13q-40 12 -67 29.5t-43.5 39t-23.5 45.5t-7 49q0 39 17 68.5t46.5 50t68 30.5t82.5 10q35 0 72.5 -6t73.5 -18v-116q-28 11 -65.5 19.5t-75.5 8.5
q-40 0 -65 -10.5t-25 -34.5q0 -17 15 -31.5t57 -27.5l43 -13q75 -23 113 -59.5t38 -104.5q0 -36 -16 -67t-44.5 -54t-68.5 -36t-88 -13z" />
    <glyph glyph-name="uni0219" unicode="&#x219;" horiz-adv-x="455" 
d="M213 -13q-57 0 -101.5 8t-72.5 19v122q28 -14 66 -26t92 -12q48 0 72.5 14.5t24.5 39.5q0 20 -15 34.5t-60 28.5l-43 13q-40 12 -67 29.5t-43.5 39t-23.5 45.5t-7 49q0 39 17 68.5t46.5 50t68 30.5t82.5 10q35 0 72.5 -6t73.5 -18v-116q-28 11 -65.5 19.5t-75.5 8.5
q-40 0 -65 -10.5t-25 -34.5q0 -17 15 -31.5t57 -27.5l43 -13q75 -23 113 -59.5t38 -104.5q0 -36 -16 -67t-44.5 -54t-68.5 -36t-88 -13z" />
    <glyph glyph-name="germandbls" unicode="&#xdf;" horiz-adv-x="910" 
d="M213 -13q-57 0 -101.5 8t-72.5 19v122q28 -14 66 -26t92 -12q48 0 72.5 14.5t24.5 39.5q0 20 -15 34.5t-60 28.5l-43 13q-40 12 -67 29.5t-43.5 39t-23.5 45.5t-7 49q0 39 17 68.5t46.5 50t68 30.5t82.5 10q35 0 72.5 -6t73.5 -18v-116q-28 11 -65.5 19.5t-75.5 8.5
q-40 0 -65 -10.5t-25 -34.5q0 -17 15 -31.5t57 -27.5l43 -13q75 -23 113 -59.5t38 -104.5q0 -36 -16 -67t-44.5 -54t-68.5 -36t-88 -13zM668 -13q-57 0 -101.5 8t-72.5 19v122q28 -14 66 -26t92 -12q48 0 72.5 14.5t24.5 39.5q0 20 -15 34.5t-60 28.5l-43 13
q-40 12 -67 29.5t-43.5 39t-23.5 45.5t-7 49q0 39 17 68.5t46.5 50t68 30.5t82.5 10q35 0 72.5 -6t73.5 -18v-116q-28 11 -65.5 19.5t-75.5 8.5q-40 0 -65 -10.5t-25 -34.5q0 -17 15 -31.5t57 -27.5l43 -13q75 -23 113 -59.5t38 -104.5q0 -36 -16 -67t-44.5 -54t-68.5 -36
t-88 -13z" />
    <glyph glyph-name="tbar" unicode="&#x167;" horiz-adv-x="377" 
d="M91 443h-86v95h86v146h138v-146h122v-95h-122v-277q0 -41 12 -55.5t46 -14.5q15 0 28.5 1.5t32.5 3.5v-109q-23 -3 -40 -4t-40 -1q-96 0 -136.5 42t-40.5 130v284z" />
    <glyph glyph-name="tcaron" unicode="&#x165;" horiz-adv-x="377" 
d="M91 443h-86v95h86v146h138v-146h122v-95h-122v-277q0 -41 12 -55.5t46 -14.5q15 0 28.5 1.5t32.5 3.5v-109q-23 -3 -40 -4t-40 -1q-96 0 -136.5 42t-40.5 130v284z" />
    <glyph glyph-name="uni0163" unicode="&#x163;" horiz-adv-x="377" 
d="M91 443h-86v95h86v146h138v-146h122v-95h-122v-277q0 -41 12 -55.5t46 -14.5q15 0 28.5 1.5t32.5 3.5v-109q-23 -3 -40 -4t-40 -1q-96 0 -136.5 42t-40.5 130v284z" />
    <glyph glyph-name="uni021B" unicode="&#x21b;" horiz-adv-x="377" 
d="M91 443h-86v95h86v146h138v-146h122v-95h-122v-277q0 -41 12 -55.5t46 -14.5q15 0 28.5 1.5t32.5 3.5v-109q-23 -3 -40 -4t-40 -1q-96 0 -136.5 42t-40.5 130v284z" />
    <glyph glyph-name="uacute" unicode="&#xfa;" horiz-adv-x="593" 
d="M393 71q-23 -41 -65 -62.5t-92 -21.5q-97 0 -139 56t-42 155v340h138v-310q0 -27 3 -50.5t12 -41.5t26.5 -28t46.5 -10q34 0 56 13t34.5 35t17 51t4.5 61v280h138v-538h-138v71z" />
    <glyph glyph-name="ubreve" unicode="&#x16d;" horiz-adv-x="593" 
d="M393 71q-23 -41 -65 -62.5t-92 -21.5q-97 0 -139 56t-42 155v340h138v-310q0 -27 3 -50.5t12 -41.5t26.5 -28t46.5 -10q34 0 56 13t34.5 35t17 51t4.5 61v280h138v-538h-138v71z" />
    <glyph glyph-name="ucircumflex" unicode="&#xfb;" horiz-adv-x="593" 
d="M393 71q-23 -41 -65 -62.5t-92 -21.5q-97 0 -139 56t-42 155v340h138v-310q0 -27 3 -50.5t12 -41.5t26.5 -28t46.5 -10q34 0 56 13t34.5 35t17 51t4.5 61v280h138v-538h-138v71z" />
    <glyph glyph-name="udieresis" unicode="&#xfc;" horiz-adv-x="593" 
d="M393 71q-23 -41 -65 -62.5t-92 -21.5q-97 0 -139 56t-42 155v340h138v-310q0 -27 3 -50.5t12 -41.5t26.5 -28t46.5 -10q34 0 56 13t34.5 35t17 51t4.5 61v280h138v-538h-138v71z" />
    <glyph glyph-name="ugrave" unicode="&#xf9;" horiz-adv-x="593" 
d="M393 71q-23 -41 -65 -62.5t-92 -21.5q-97 0 -139 56t-42 155v340h138v-310q0 -27 3 -50.5t12 -41.5t26.5 -28t46.5 -10q34 0 56 13t34.5 35t17 51t4.5 61v280h138v-538h-138v71z" />
    <glyph glyph-name="uhungarumlaut" unicode="&#x171;" horiz-adv-x="593" 
d="M393 71q-23 -41 -65 -62.5t-92 -21.5q-97 0 -139 56t-42 155v340h138v-310q0 -27 3 -50.5t12 -41.5t26.5 -28t46.5 -10q34 0 56 13t34.5 35t17 51t4.5 61v280h138v-538h-138v71z" />
    <glyph glyph-name="umacron" unicode="&#x16b;" horiz-adv-x="593" 
d="M393 71q-23 -41 -65 -62.5t-92 -21.5q-97 0 -139 56t-42 155v340h138v-310q0 -27 3 -50.5t12 -41.5t26.5 -28t46.5 -10q34 0 56 13t34.5 35t17 51t4.5 61v280h138v-538h-138v71z" />
    <glyph glyph-name="uogonek" unicode="&#x173;" horiz-adv-x="593" 
d="M393 71q-23 -41 -65 -62.5t-92 -21.5q-97 0 -139 56t-42 155v340h138v-310q0 -27 3 -50.5t12 -41.5t26.5 -28t46.5 -10q34 0 56 13t34.5 35t17 51t4.5 61v280h138v-538h-138v71z" />
    <glyph glyph-name="uring" unicode="&#x16f;" horiz-adv-x="593" 
d="M393 71q-23 -41 -65 -62.5t-92 -21.5q-97 0 -139 56t-42 155v340h138v-310q0 -27 3 -50.5t12 -41.5t26.5 -28t46.5 -10q34 0 56 13t34.5 35t17 51t4.5 61v280h138v-538h-138v71z" />
    <glyph glyph-name="utilde" unicode="&#x169;" horiz-adv-x="593" 
d="M393 71q-23 -41 -65 -62.5t-92 -21.5q-97 0 -139 56t-42 155v340h138v-310q0 -27 3 -50.5t12 -41.5t26.5 -28t46.5 -10q34 0 56 13t34.5 35t17 51t4.5 61v280h138v-538h-138v71z" />
    <glyph glyph-name="uni1EE5" unicode="&#x1ee5;" horiz-adv-x="593" 
d="M393 71q-23 -41 -65 -62.5t-92 -21.5q-97 0 -139 56t-42 155v340h138v-310q0 -27 3 -50.5t12 -41.5t26.5 -28t46.5 -10q34 0 56 13t34.5 35t17 51t4.5 61v280h138v-538h-138v71z" />
    <glyph glyph-name="wacute" unicode="&#x1e83;" horiz-adv-x="734" 
d="M293 538h147l85 -371l72 371h137l-127 -538h-142l-98 408l-99 -408h-142l-126 538h137l72 -372z" />
    <glyph glyph-name="wcircumflex" unicode="&#x175;" horiz-adv-x="734" 
d="M293 538h147l85 -371l72 371h137l-127 -538h-142l-98 408l-99 -408h-142l-126 538h137l72 -372z" />
    <glyph glyph-name="wdieresis" unicode="&#x1e85;" horiz-adv-x="734" 
d="M293 538h147l85 -371l72 371h137l-127 -538h-142l-98 408l-99 -408h-142l-126 538h137l72 -372z" />
    <glyph glyph-name="wgrave" unicode="&#x1e81;" horiz-adv-x="734" 
d="M293 538h147l85 -371l72 371h137l-127 -538h-142l-98 408l-99 -408h-142l-126 538h137l72 -372z" />
    <glyph glyph-name="yacute" unicode="&#xfd;" horiz-adv-x="538" 
d="M131 -195l75 197l-206 536h151l122 -388l125 388h140l-278 -733h-129z" />
    <glyph glyph-name="ycircumflex" unicode="&#x177;" horiz-adv-x="538" 
d="M131 -195l75 197l-206 536h151l122 -388l125 388h140l-278 -733h-129z" />
    <glyph glyph-name="ydieresis" unicode="&#xff;" horiz-adv-x="538" 
d="M131 -195l75 197l-206 536h151l122 -388l125 388h140l-278 -733h-129z" />
    <glyph glyph-name="ygrave" unicode="&#x1ef3;" horiz-adv-x="538" 
d="M131 -195l75 197l-206 536h151l122 -388l125 388h140l-278 -733h-129z" />
    <glyph glyph-name="uni0233" unicode="&#x233;" horiz-adv-x="538" 
d="M131 -195l75 197l-206 536h151l122 -388l125 388h140l-278 -733h-129z" />
    <glyph glyph-name="zacute" unicode="&#x17a;" horiz-adv-x="498" 
d="M22 109l283 320h-267v109h432v-109l-283 -320h291v-109h-456v109z" />
    <glyph glyph-name="zcaron" unicode="&#x17e;" horiz-adv-x="498" 
d="M22 109l283 320h-267v109h432v-109l-283 -320h291v-109h-456v109z" />
    <glyph glyph-name="zdotaccent" unicode="&#x17c;" horiz-adv-x="498" 
d="M22 109l283 320h-267v109h432v-109l-283 -320h291v-109h-456v109z" />
    </font>
</defs>
</svg>
