<?xml version="1.0" standalone="no"?>
<!DOCTYPE svg PUBLIC "-//W3C//DTD SVG 1.1//EN" "http://www.w3.org/Graphics/SVG/1.1/DTD/svg11.dtd" >
<svg xmlns="http://www.w3.org/2000/svg" xmlns:xlink="http://www.w3.org/1999/xlink" version="1.1">
<metadata>
Created by Christoph Koeberlin (http://christoph.koe.berlin)
Copyright (c) 2015 Swiss Typefaces Sa`rl. All rights reserved.
</metadata>
<defs>
<font id="Font" horiz-adv-x="235" >
  <font-face 
    font-family="Font"
    font-weight="400"
    font-stretch="normal"
    units-per-em="1000"
    panose-1="2 11 5 4 0 0 0 0 0 0"
    ascent="800"
    descent="-200"
    x-height="538"
    cap-height="725"
    bbox="0 -208 1315 755"
    underline-thickness="70"
    underline-position="-40"
    unicode-range="U+0020-2022"
  />
<missing-glyph horiz-adv-x="500" 
d="M0 725h500v-725h-500v725zM19 696v-667l220 333zM481 29v667l-221 -334zM33 19h433l-216 327zM250 378l216 328h-433z" />
    <glyph glyph-name=".notdef" horiz-adv-x="500" 
d="M0 725h500v-725h-500v725zM19 696v-667l220 333zM481 29v667l-221 -334zM33 19h433l-216 327zM250 378l216 328h-433z" />
    <glyph glyph-name="glyph1" horiz-adv-x="0" 
 />
    <glyph glyph-name="glyph2" horiz-adv-x="237" 
 />
    <glyph glyph-name="space" unicode=" " horiz-adv-x="237" 
 />
    <glyph glyph-name="comma" unicode="," horiz-adv-x="245" 
d="M65 115h115v-123l-61 -131h-58l53 139h-49v115z" />
    <glyph glyph-name="hyphen" unicode="-" horiz-adv-x="405" 
d="M43 231v86h318v-86h-318z" />
    <glyph glyph-name="period" unicode="." horiz-adv-x="245" 
d="M65 0v115h115v-115h-115z" />
    <glyph glyph-name="slash" unicode="/" horiz-adv-x="377" 
d="M0 0l285 755h92l-286 -755h-91z" />
    <glyph glyph-name="zero" unicode="0" horiz-adv-x="660" 
d="M515 363q0 151 -50 225t-135 74q-86 0 -135.5 -74t-49.5 -225q0 -152 49.5 -226t135.5 -74t135.5 74t49.5 226zM612 363q0 -86 -17 -155.5t-51.5 -118.5t-88 -75.5t-125.5 -26.5t-125.5 26.5t-88 75.5t-51.5 118.5t-17 155.5t17 155.5t51.5 118t88 75t125.5 26.5
t125.5 -26.5t88 -75t51.5 -118t17 -155.5z" />
    <glyph glyph-name="A" unicode="A" horiz-adv-x="660" 
d="M466 231h-280l-82 -231h-104l269 725h118l273 -725h-110zM217 318h218l-110 304z" />
    <glyph glyph-name="B" unicode="B" horiz-adv-x="645" 
d="M86 725h234q51 0 97 -7.5t81 -28t56 -55t21 -88.5q0 -52 -21 -95t-59 -65q52 -22 81 -63.5t29 -108.5q0 -58 -20 -98.5t-55.5 -66t-83 -37.5t-101.5 -12h-259v725zM188 86h158q78 0 116 32.5t38 94.5q0 64 -39 93t-121 29h-152v-249zM188 414h148q63 0 99.5 27t36.5 91
q0 56 -37.5 81.5t-98.5 25.5h-148v-225z" />
    <glyph glyph-name="C" unicode="C" horiz-adv-x="652" 
d="M155 363q0 -71 19.5 -125t56 -90.5t88.5 -55.5t116 -19q48 0 91.5 12t76.5 29v-93q-35 -14 -81 -24t-97 -10q-93 0 -163 28.5t-117 79t-70.5 119.5t-23.5 149t25 148.5t73 119t117.5 79t158.5 28.5q51 0 98 -8.5t80 -25.5v-93q-32 17 -76 29t-92 12q-65 0 -117 -19
t-88 -55.5t-55.5 -90.5t-19.5 -124z" />
    <glyph glyph-name="D" unicode="D" horiz-adv-x="730" 
d="M575 363q0 92 -25 147t-66 83.5t-94 37t-109 8.5h-93v-553h93q56 0 109 8.5t94 37.5t66 83.5t25 147.5zM284 725q86 0 158.5 -18t125 -60t82 -111.5t29.5 -172.5q0 -104 -29.5 -173.5t-82 -111.5t-125 -60t-158.5 -18h-198v725h198z" />
    <glyph glyph-name="E" unicode="E" horiz-adv-x="573" 
d="M86 725h447v-88h-345v-220h322v-88h-322v-241h345v-88h-447v725z" />
    <glyph glyph-name="F" unicode="F" horiz-adv-x="525" 
d="M86 725h436v-88h-334v-220h313v-88h-313v-329h-102v725z" />
    <glyph glyph-name="G" unicode="G" horiz-adv-x="752" 
d="M445 738q25 0 51.5 -2t51.5 -6.5t47 -11t39 -14.5v-93q-16 8 -37 15.5t-44.5 13t-48.5 9t-49 3.5q-69 0 -124.5 -19t-94.5 -55.5t-60 -90.5t-21 -124q0 -71 20 -125t57 -91t89 -56t116 -19q41 0 76.5 6.5t66.5 17.5v201h-163v88h259v-351q-23 -9 -52.5 -17t-62 -15
t-67 -11t-67.5 -4q-93 0 -163 28.5t-117.5 79t-71.5 119.5t-24 149t27 148.5t77.5 119t123.5 79t166 28.5z" />
    <glyph glyph-name="H" unicode="H" horiz-adv-x="742" 
d="M656 725v-725h-102v329h-366v-329h-102v725h102v-308h366v308h102z" />
    <glyph glyph-name="I" unicode="I" horiz-adv-x="482" 
d="M50 0v88h140v549h-140v88h382v-88h-140v-549h140v-88h-382z" />
    <glyph glyph-name="J" unicode="J" horiz-adv-x="368" 
d="M120 -13q-17 0 -39 2.5t-43 7.5l6 88q13 -4 30.5 -7t34.5 -3q36 0 53.5 16.5t17.5 57.5v488h-124v88h226v-572q0 -83 -43 -124.5t-119 -41.5z" />
    <glyph glyph-name="K" unicode="K" horiz-adv-x="666" 
d="M188 360l317 365h127l-329 -371l374 -354h-147l-342 325v-325h-102v725h102v-365z" />
    <glyph glyph-name="L" unicode="L" horiz-adv-x="496" 
d="M188 88h308v-88h-410v725h102v-637z" />
    <glyph glyph-name="M" unicode="M" horiz-adv-x="870" 
d="M381 170l-193 462v-632h-102v725h171l178 -439l178 439h171v-725h-102v632l-193 -462h-108z" />
    <glyph glyph-name="N" unicode="N" horiz-adv-x="755" 
d="M520 0l-332 619v-619h-102v725h150l331 -617v617h102v-725h-149z" />
    <glyph glyph-name="O" unicode="O" horiz-adv-x="782" 
d="M155 363q0 -70 18.5 -124t50 -91t74.5 -56t93 -19q49 0 92.5 19t75 56t50 91t18.5 124t-18.5 124t-50 90.5t-75 55.5t-92.5 19q-50 0 -93 -19t-74.5 -55.5t-50 -90.5t-18.5 -124zM731 363q0 -82 -23.5 -151t-68 -119t-107.5 -78t-141 -28t-141 28t-107.5 78t-68 119
t-23.5 151t23.5 151t68 118.5t107.5 77.5t141 28t141 -28t107.5 -77.5t68 -118.5t23.5 -151z" />
    <glyph glyph-name="P" unicode="P" horiz-adv-x="616" 
d="M293 725q66 0 121.5 -9t95.5 -33.5t62 -67t22 -109.5q0 -68 -22 -110.5t-62 -66.5t-95.5 -33t-121.5 -9h-105v-287h-102v725h207zM188 639v-263h113q40 0 74.5 3.5t60 17t40 39t14.5 70.5q0 44 -14.5 70.5t-40 40.5t-60 18t-74.5 4h-113z" />
    <glyph glyph-name="Q" unicode="Q" horiz-adv-x="782" 
d="M731 363q0 -80 -22 -146.5t-64 -116.5l86 -86l-62 -62l-89 89q-80 -54 -189 -54q-78 0 -141 28t-107.5 78t-68 119t-23.5 151t23.5 151t68 118.5t107.5 77.5t141 28t141 -28t107.5 -77.5t68 -118.5t23.5 -151zM155 363q0 -70 18.5 -124t50 -91t74.5 -56t93 -19
q67 0 122 35l-67 67l62 63l67 -68q25 36 38.5 84t13.5 109q0 70 -18.5 124t-50 90.5t-75 55.5t-92.5 19q-50 0 -93 -19t-74.5 -55.5t-50 -90.5t-18.5 -124z" />
    <glyph glyph-name="R" unicode="R" horiz-adv-x="649" 
d="M188 309v-309h-102v725h200q66 0 121.5 -8.5t95.5 -31t62.5 -63t22.5 -103.5q0 -167 -187 -201l229 -318h-120l-222 309h-1h-99zM188 639v-244h106q40 0 74.5 4t60 16.5t40 36.5t14.5 64t-14.5 64.5t-40 37.5t-60 17t-74.5 4h-106z" />
    <glyph glyph-name="S" unicode="S" horiz-adv-x="586" 
d="M261 73q36 0 67 6.5t54 20t36 35t13 50.5q0 45 -29 74t-92 52l-67 24q-39 14 -72 33t-58 43.5t-39 56t-14 69.5q0 48 21.5 85t57 63t80.5 39.5t92 13.5q57 0 100 -8t77 -24v-93q-38 20 -80.5 30t-98.5 10q-26 0 -51.5 -5.5t-46 -17.5t-33.5 -32.5t-13 -50.5
q0 -78 100 -114l67 -24q103 -37 153 -85t50 -120q0 -53 -23 -93.5t-61.5 -68t-88 -41.5t-102.5 -14q-66 0 -118 13t-81 30v95q20 -10 40 -19.5t43.5 -16.5t51.5 -11.5t65 -4.5z" />
    <glyph glyph-name="T" unicode="T" horiz-adv-x="554" 
d="M226 637h-226v88h554v-88h-226v-637h-102v637z" />
    <glyph glyph-name="U" unicode="U" horiz-adv-x="731" 
d="M177 725v-441q0 -107 42.5 -158t144.5 -51q104 0 147 56.5t43 163.5v430h102v-422q0 -80 -16 -139t-51 -98.5t-90.5 -59t-134.5 -19.5q-75 0 -130 16.5t-90 53t-52 95t-17 143.5v430h102z" />
    <glyph glyph-name="V" unicode="V" horiz-adv-x="638" 
d="M123 725l201 -620l197 620h107l-246 -725h-122l-249 725h112z" />
    <glyph glyph-name="W" unicode="W" horiz-adv-x="922" 
d="M665 116l134 609h107l-181 -725h-124l-140 596l-137 -596h-124l-184 725h112l140 -609l134 609h120z" />
    <glyph glyph-name="X" unicode="X" horiz-adv-x="656" 
d="M269 373l-251 352h121l191 -268l193 268h115l-251 -348l269 -377h-120l-210 293l-211 -293h-115z" />
    <glyph glyph-name="Y" unicode="Y" horiz-adv-x="624" 
d="M112 725l198 -354l202 354h112l-266 -444v-281h-102v283l-256 442h112z" />
    <glyph glyph-name="Z" unicode="Z" horiz-adv-x="633" 
d="M588 637l-426 -549h442v-88h-563v88l427 549h-394v88h514v-88z" />
    <glyph glyph-name="a" unicode="a" horiz-adv-x="538" 
d="M265 547q106 0 158 -49.5t51 -165.5l-1 -129q0 -34 -0.5 -54t0 -39.5t1 -43.5t2.5 -66h-88v85q-24 -43 -68.5 -70.5t-107.5 -27.5q-37 0 -69.5 11.5t-57 33t-39 51.5t-14.5 67q0 46 26 79.5t72.5 56.5t111 38t141.5 24q-1 34 -12 57t-29 36t-41.5 18.5t-48.5 5.5
q-48 0 -93 -16.5t-76 -35.5v87q38 21 86 34t96 13zM234 60q25 0 52.5 9t50.5 33t38 66t14 109q-57 -5 -104.5 -14t-81.5 -23.5t-52.5 -35.5t-18.5 -49q0 -38 25.5 -66.5t76.5 -28.5z" />
    <glyph glyph-name="b" unicode="b" horiz-adv-x="601" 
d="M159 267q0 -53 13 -91.5t35 -63t50.5 -36t58.5 -11.5q73 0 112 52.5t39 149.5t-39 149.5t-112 52.5q-30 0 -58.5 -11.5t-50.5 -36t-35 -63t-13 -91.5zM163 755v-302q25 43 68 68.5t108 25.5q48 0 89 -19t72 -55t48.5 -88t17.5 -118q0 -67 -17.5 -119t-48.5 -88t-72 -54.5
t-89 -18.5q-65 0 -108 25.5t-68 68.5v-81h-91v755h91z" />
    <glyph glyph-name="c" unicode="c" horiz-adv-x="462" 
d="M133 267q0 -53 15 -90.5t39.5 -61.5t57 -35t67.5 -11q32 0 59.5 7t50.5 18v-85q-23 -10 -54 -16t-63 -6q-66 0 -116 21.5t-84.5 59t-52 88.5t-17.5 111t19.5 111t55 88.5t85.5 59t110 21.5q30 0 61 -3.5t54 -11.5v-86q-25 9 -51 14t-57 5q-35 0 -67.5 -11.5t-57.5 -35.5
t-39.5 -61.5t-14.5 -89.5z" />
    <glyph glyph-name="d" unicode="d" horiz-adv-x="601" 
d="M438 755h91v-755h-91v81q-25 -43 -68 -68.5t-108 -25.5q-48 0 -89 18.5t-72 54.5t-48.5 88t-17.5 119q0 66 17.5 118t48.5 88t72 55t89 19q65 0 108 -25.5t68 -68.5v302zM442 267q0 53 -13 91.5t-35 63t-50.5 36t-58.5 11.5q-73 0 -112 -52.5t-39 -149.5t39 -149.5
t112 -52.5q30 0 58.5 11.5t50.5 36t35 63t13 91.5z" />
    <glyph glyph-name="e" unicode="e" horiz-adv-x="546" 
d="M132 243q4 -47 21.5 -80t43 -54t56.5 -30.5t63 -9.5q55 0 94.5 15.5t68.5 34.5v-90q-25 -14 -69.5 -28t-101.5 -14q-64 0 -114.5 21.5t-86 59.5t-54 89t-18.5 111q0 64 19.5 115.5t53.5 88t79 56t96 19.5q59 0 103.5 -23.5t74 -64t43 -96.5t10.5 -120h-382zM276 470
q-24 0 -48.5 -8t-44 -26t-33.5 -47.5t-17 -72.5h283q-1 40 -12.5 69.5t-30.5 48t-44 27.5t-53 9z" />
    <glyph glyph-name="f" unicode="f" horiz-adv-x="323" 
d="M95 592q0 37 7 67t23.5 51.5t44 33t67.5 11.5q16 0 36 -1t34 -4v-75q-17 2 -31.5 3t-25.5 1q-38 0 -51 -20t-13 -67v-54h121v-73h-121v-465h-91v465h-75v73h75v54v0z" />
    <glyph glyph-name="g" unicode="g" horiz-adv-x="592" 
d="M433 278q0 51 -12.5 87t-33.5 59.5t-48.5 34t-57.5 10.5q-73 0 -109.5 -49.5t-36.5 -141.5q0 -93 36.5 -142.5t109.5 -49.5q30 0 57.5 10.5t48.5 34t33.5 60t12.5 87.5zM520 46q0 -71 -19.5 -119.5t-54 -78.5t-81 -43t-100.5 -13q-45 0 -86.5 7.5t-76.5 22.5v93
q31 -20 73 -32t89 -12q28 0 57.5 6.5t53.5 24t39 48t15 79.5v73q-25 -43 -65.5 -68t-105.5 -25q-48 0 -88.5 17.5t-70 52t-46.5 84.5t-17 115q0 64 17 114.5t46.5 84.5t70 52t88.5 18q65 0 105.5 -25.5t65.5 -68.5v85h91v-492z" />
    <glyph glyph-name="h" unicode="h" horiz-adv-x="578" 
d="M163 457q23 38 64.5 64t109.5 26q49 0 82.5 -15t54.5 -42.5t30.5 -65.5t9.5 -84v-340h-91v313q0 31 -4 59t-16 49.5t-35.5 34t-62.5 12.5q-66 0 -104 -44.5t-38 -131.5v-292h-91v755h91v-298z" />
    <glyph glyph-name="i" unicode="i" 
d="M163 538v-538h-91v538h91zM163 755v-110h-91v110h91z" />
    <glyph glyph-name="j" unicode="j" horiz-adv-x="260" 
d="M53 -196q-8 0 -18.5 0.5t-19.5 2.5v75q11 -2 20.5 -2.5t17.5 -0.5q27 0 35.5 13.5t8.5 54.5v518h-71v73h162v-589q0 -39 -4 -66.5t-18.5 -45t-41 -25.5t-71.5 -8zM188 755v-110h-91v110h91z" />
    <glyph glyph-name="k" unicode="k" horiz-adv-x="505" 
d="M163 755v-478l213 261h107l-220 -262l254 -276h-117l-237 253v-253h-91v755h91z" />
    <glyph glyph-name="l" unicode="l" 
d="M163 0h-91v755h91v-755z" />
    <glyph glyph-name="m" unicode="m" horiz-adv-x="899" 
d="M163 0h-91v538h91v-81q23 38 62 64t100 26q62 0 99.5 -25t55.5 -70q32 50 78 72.5t103 22.5q47 0 80 -15t54 -42.5t30.5 -65.5t9.5 -84v-340h-91v313q0 31 -4 59t-16.5 49.5t-35 34t-59.5 12.5q-59 0 -94.5 -44.5t-35.5 -131.5v-292h-91v313q0 31 -4 59t-16.5 49.5
t-35 34t-59.5 12.5q-59 0 -94.5 -44.5t-35.5 -131.5v-292z" />
    <glyph glyph-name="n" unicode="n" horiz-adv-x="578" 
d="M163 457q23 38 64.5 64t109.5 26q49 0 82.5 -15t54.5 -42.5t30.5 -65.5t9.5 -84v-340h-91v313q0 31 -4 59t-16 49.5t-35.5 34t-62.5 12.5q-66 0 -104 -44.5t-38 -131.5v-292h-91v538h91v-81z" />
    <glyph glyph-name="o" unicode="o" horiz-adv-x="584" 
d="M134 267q0 -54 12.5 -92t34 -62t50.5 -35t61 -11t61 12t50.5 36.5t34 62t12.5 89.5q0 54 -12.5 92t-34 62t-50.5 35t-61 11t-61 -10.5t-50.5 -34.5t-34 -62t-12.5 -93zM37 267q0 73 21.5 126t57.5 87t82 50.5t94 16.5t94 -16.5t82 -50.5t57.5 -87t21.5 -126t-21.5 -126
t-57.5 -87t-82 -50.5t-94 -16.5t-94 16.5t-82 50.5t-57.5 87t-21.5 126z" />
    <glyph glyph-name="p" unicode="p" horiz-adv-x="601" 
d="M163 538v-85q25 43 68 68.5t108 25.5q48 0 89 -19t72 -55t48.5 -88t17.5 -118q0 -67 -17.5 -119t-48.5 -88t-72 -54.5t-89 -18.5q-65 0 -108 25.5t-68 68.5v-276h-91v733h91zM159 267q0 -53 13 -91.5t35 -63t50.5 -36t58.5 -11.5q73 0 112 52.5t39 149.5t-39 149.5
t-112 52.5q-30 0 -58.5 -11.5t-50.5 -36t-35 -63t-13 -91.5z" />
    <glyph glyph-name="q" unicode="q" horiz-adv-x="601" 
d="M438 538h91v-733h-91v276q-25 -43 -68 -68.5t-108 -25.5q-48 0 -89 18.5t-72 54.5t-48.5 88t-17.5 119q0 66 17.5 118t48.5 88t72 55t89 19q65 0 108 -25.5t68 -68.5v85zM442 267q0 53 -13 91.5t-35 63t-50.5 36t-58.5 11.5q-73 0 -112 -52.5t-39 -149.5t39 -149.5
t112 -52.5q30 0 58.5 11.5t50.5 36t35 63t13 91.5z" />
    <glyph glyph-name="r" unicode="r" horiz-adv-x="355" 
d="M340 443q-14 2 -27 3t-24 1q-63 0 -94.5 -38t-31.5 -127v-282h-91v538h89v-94q20 46 59.5 70.5t92.5 26.5h13t14 -1v-97z" />
    <glyph glyph-name="s" unicode="s" horiz-adv-x="451" 
d="M200 67q53 0 87.5 16t34.5 54q0 29 -27 50t-81 41l-16 6q-30 11 -57.5 26t-48.5 34.5t-33.5 44.5t-12.5 58q0 36 16 63.5t42 47t59.5 29.5t69.5 10q40 0 77 -5.5t62 -16.5v-86q-28 10 -61.5 19t-78.5 9q-41 0 -70 -14.5t-29 -48.5q0 -32 23.5 -51t58.5 -32l19 -7
q40 -15 72.5 -30.5t55 -35t34.5 -44.5t12 -58q0 -40 -18 -69.5t-47 -49.5t-66 -30t-76 -10q-51 0 -92.5 9t-65.5 23v93q29 -18 71 -31.5t86 -13.5z" />
    <glyph glyph-name="t" unicode="t" horiz-adv-x="335" 
d="M98 673h91v-135h112v-73h-112v-313q0 -47 12 -64.5t46 -17.5q11 0 25 1t32 4v-73q-19 -4 -39.5 -6.5t-37.5 -2.5q-75 0 -102 37t-27 111v324h-85v73h85v135z" />
    <glyph glyph-name="u" unicode="u" horiz-adv-x="568" 
d="M405 77q-23 -38 -62.5 -64t-106.5 -26q-47 0 -79.5 15t-53 42.5t-30 65.5t-9.5 84v344h91v-317q0 -31 3.5 -59t15.5 -49.5t34.5 -34t59.5 -12.5q65 0 101 44.5t36 131.5v296h91v-538h-91v77z" />
    <glyph glyph-name="v" unicode="v" horiz-adv-x="487" 
d="M247 126l146 412h94l-203 -538h-81l-203 538h101z" />
    <glyph glyph-name="w" unicode="w" horiz-adv-x="720" 
d="M313 538h94l107 -398l103 398h98l-155 -538h-83l-119 433l-115 -433h-83l-155 538h98l103 -398z" />
    <glyph glyph-name="x" unicode="x" horiz-adv-x="520" 
d="M311 281l201 -281h-109l-146 205l-145 -205h-104l198 277l-186 261h109l131 -185l132 185h102z" />
    <glyph glyph-name="y" unicode="y" horiz-adv-x="487" 
d="M116 -195l80 211l-196 522h101l146 -412l146 412h94l-276 -733h-95z" />
    <glyph glyph-name="z" unicode="z" horiz-adv-x="488" 
d="M33 79l311 380h-291v79h397v-79l-310 -380h316v-79h-423v79z" />
    <glyph glyph-name="uni00A0" unicode="&#xa0;" horiz-adv-x="237" 
 />
    <glyph glyph-name="uni00AD" unicode="&#xad;" horiz-adv-x="405" 
d="M43 231v86h318v-86h-318z" />
    <glyph glyph-name="paragraph" unicode="&#xb6;" horiz-adv-x="521" 
d="M0 537q0 88 60 138t181 50h208v-814h-76v744h-121v-744h-76v449q-33 4 -64.5 16t-56.5 34t-40 53.5t-15 73.5z" />
    <glyph glyph-name="periodcentered" unicode="&#xb7;" horiz-adv-x="245" 
d="M65 212v115h115v-115h-115z" />
    <glyph glyph-name="quoteright" unicode="&#x2019;" horiz-adv-x="245" 
d="M65 725h115v-123l-61 -131h-58l53 139h-49v115z" />
    <glyph glyph-name="bullet" unicode="&#x2022;" horiz-adv-x="447" 
d="M43 279q0 37 14 69t38 56t56 38t68 14q39 0 73 -14t58.5 -38t38.5 -56t14 -69q0 -39 -14 -72.5t-38.5 -58t-58.5 -38.5t-73 -14q-36 0 -68 14t-56 38.5t-38 58t-14 72.5z" />
    <glyph glyph-name="AE" unicode="&#xc6;" horiz-adv-x="1233" 
d="M466 231h-280l-82 -231h-104l269 725h118l273 -725h-110zM217 318h218l-110 304zM746 725h447v-88h-345v-220h322v-88h-322v-241h345v-88h-447v725z" />
    <glyph glyph-name="Aacute" unicode="&#xc1;" horiz-adv-x="660" 
d="M466 231h-280l-82 -231h-104l269 725h118l273 -725h-110zM217 318h218l-110 304z" />
    <glyph glyph-name="Abreve" unicode="&#x102;" horiz-adv-x="660" 
d="M466 231h-280l-82 -231h-104l269 725h118l273 -725h-110zM217 318h218l-110 304z" />
    <glyph glyph-name="Acircumflex" unicode="&#xc2;" horiz-adv-x="660" 
d="M466 231h-280l-82 -231h-104l269 725h118l273 -725h-110zM217 318h218l-110 304z" />
    <glyph glyph-name="Adieresis" unicode="&#xc4;" horiz-adv-x="660" 
d="M466 231h-280l-82 -231h-104l269 725h118l273 -725h-110zM217 318h218l-110 304z" />
    <glyph glyph-name="Agrave" unicode="&#xc0;" horiz-adv-x="660" 
d="M466 231h-280l-82 -231h-104l269 725h118l273 -725h-110zM217 318h218l-110 304z" />
    <glyph glyph-name="Amacron" unicode="&#x100;" horiz-adv-x="660" 
d="M466 231h-280l-82 -231h-104l269 725h118l273 -725h-110zM217 318h218l-110 304z" />
    <glyph glyph-name="Aogonek" unicode="&#x104;" horiz-adv-x="660" 
d="M466 231h-280l-82 -231h-104l269 725h118l273 -725h-110zM217 318h218l-110 304z" />
    <glyph glyph-name="Aring" unicode="&#xc5;" horiz-adv-x="660" 
d="M466 231h-280l-82 -231h-104l269 725h118l273 -725h-110zM217 318h218l-110 304z" />
    <glyph glyph-name="Atilde" unicode="&#xc3;" horiz-adv-x="660" 
d="M466 231h-280l-82 -231h-104l269 725h118l273 -725h-110zM217 318h218l-110 304z" />
    <glyph glyph-name="Cacute" unicode="&#x106;" horiz-adv-x="652" 
d="M155 363q0 -71 19.5 -125t56 -90.5t88.5 -55.5t116 -19q48 0 91.5 12t76.5 29v-93q-35 -14 -81 -24t-97 -10q-93 0 -163 28.5t-117 79t-70.5 119.5t-23.5 149t25 148.5t73 119t117.5 79t158.5 28.5q51 0 98 -8.5t80 -25.5v-93q-32 17 -76 29t-92 12q-65 0 -117 -19
t-88 -55.5t-55.5 -90.5t-19.5 -124z" />
    <glyph glyph-name="Ccaron" unicode="&#x10c;" horiz-adv-x="652" 
d="M155 363q0 -71 19.5 -125t56 -90.5t88.5 -55.5t116 -19q48 0 91.5 12t76.5 29v-93q-35 -14 -81 -24t-97 -10q-93 0 -163 28.5t-117 79t-70.5 119.5t-23.5 149t25 148.5t73 119t117.5 79t158.5 28.5q51 0 98 -8.5t80 -25.5v-93q-32 17 -76 29t-92 12q-65 0 -117 -19
t-88 -55.5t-55.5 -90.5t-19.5 -124z" />
    <glyph glyph-name="Ccedilla" unicode="&#xc7;" horiz-adv-x="652" 
d="M155 363q0 -71 19.5 -125t56 -90.5t88.5 -55.5t116 -19q48 0 91.5 12t76.5 29v-93q-35 -14 -81 -24t-97 -10q-93 0 -163 28.5t-117 79t-70.5 119.5t-23.5 149t25 148.5t73 119t117.5 79t158.5 28.5q51 0 98 -8.5t80 -25.5v-93q-32 17 -76 29t-92 12q-65 0 -117 -19
t-88 -55.5t-55.5 -90.5t-19.5 -124z" />
    <glyph glyph-name="Ccircumflex" unicode="&#x108;" horiz-adv-x="652" 
d="M155 363q0 -71 19.5 -125t56 -90.5t88.5 -55.5t116 -19q48 0 91.5 12t76.5 29v-93q-35 -14 -81 -24t-97 -10q-93 0 -163 28.5t-117 79t-70.5 119.5t-23.5 149t25 148.5t73 119t117.5 79t158.5 28.5q51 0 98 -8.5t80 -25.5v-93q-32 17 -76 29t-92 12q-65 0 -117 -19
t-88 -55.5t-55.5 -90.5t-19.5 -124z" />
    <glyph glyph-name="Cdotaccent" unicode="&#x10a;" horiz-adv-x="652" 
d="M155 363q0 -71 19.5 -125t56 -90.5t88.5 -55.5t116 -19q48 0 91.5 12t76.5 29v-93q-35 -14 -81 -24t-97 -10q-93 0 -163 28.5t-117 79t-70.5 119.5t-23.5 149t25 148.5t73 119t117.5 79t158.5 28.5q51 0 98 -8.5t80 -25.5v-93q-32 17 -76 29t-92 12q-65 0 -117 -19
t-88 -55.5t-55.5 -90.5t-19.5 -124z" />
    <glyph glyph-name="Dcaron" unicode="&#x10e;" horiz-adv-x="730" 
d="M575 363q0 92 -25 147t-66 83.5t-94 37t-109 8.5h-93v-553h93q56 0 109 8.5t94 37.5t66 83.5t25 147.5zM284 725q86 0 158.5 -18t125 -60t82 -111.5t29.5 -172.5q0 -104 -29.5 -173.5t-82 -111.5t-125 -60t-158.5 -18h-198v725h198z" />
    <glyph glyph-name="Dcroat" unicode="&#x110;" horiz-adv-x="730" 
d="M575 363q0 92 -25 147t-66 83.5t-94 37t-109 8.5h-93v-553h93q56 0 109 8.5t94 37.5t66 83.5t25 147.5zM284 725q86 0 158.5 -18t125 -60t82 -111.5t29.5 -172.5q0 -104 -29.5 -173.5t-82 -111.5t-125 -60t-158.5 -18h-198v725h198z" />
    <glyph glyph-name="Eth" unicode="&#xd0;" horiz-adv-x="730" 
d="M575 363q0 92 -25 147t-66 83.5t-94 37t-109 8.5h-93v-553h93q56 0 109 8.5t94 37.5t66 83.5t25 147.5zM284 725q86 0 158.5 -18t125 -60t82 -111.5t29.5 -172.5q0 -104 -29.5 -173.5t-82 -111.5t-125 -60t-158.5 -18h-198v725h198z" />
    <glyph glyph-name="Eacute" unicode="&#xc9;" horiz-adv-x="573" 
d="M86 725h447v-88h-345v-220h322v-88h-322v-241h345v-88h-447v725z" />
    <glyph glyph-name="Ebreve" unicode="&#x114;" horiz-adv-x="573" 
d="M86 725h447v-88h-345v-220h322v-88h-322v-241h345v-88h-447v725z" />
    <glyph glyph-name="Ecaron" unicode="&#x11a;" horiz-adv-x="573" 
d="M86 725h447v-88h-345v-220h322v-88h-322v-241h345v-88h-447v725z" />
    <glyph glyph-name="Ecircumflex" unicode="&#xca;" horiz-adv-x="573" 
d="M86 725h447v-88h-345v-220h322v-88h-322v-241h345v-88h-447v725z" />
    <glyph glyph-name="Edieresis" unicode="&#xcb;" horiz-adv-x="573" 
d="M86 725h447v-88h-345v-220h322v-88h-322v-241h345v-88h-447v725z" />
    <glyph glyph-name="Egrave" unicode="&#xc8;" horiz-adv-x="573" 
d="M86 725h447v-88h-345v-220h322v-88h-322v-241h345v-88h-447v725z" />
    <glyph glyph-name="Emacron" unicode="&#x112;" horiz-adv-x="573" 
d="M86 725h447v-88h-345v-220h322v-88h-322v-241h345v-88h-447v725z" />
    <glyph glyph-name="Eogonek" unicode="&#x118;" horiz-adv-x="573" 
d="M86 725h447v-88h-345v-220h322v-88h-322v-241h345v-88h-447v725z" />
    <glyph glyph-name="Edotaccent" unicode="&#x116;" horiz-adv-x="573" 
d="M86 725h447v-88h-345v-220h322v-88h-322v-241h345v-88h-447v725z" />
    <glyph glyph-name="Gbreve" unicode="&#x11e;" horiz-adv-x="752" 
d="M445 738q25 0 51.5 -2t51.5 -6.5t47 -11t39 -14.5v-93q-16 8 -37 15.5t-44.5 13t-48.5 9t-49 3.5q-69 0 -124.5 -19t-94.5 -55.5t-60 -90.5t-21 -124q0 -71 20 -125t57 -91t89 -56t116 -19q41 0 76.5 6.5t66.5 17.5v201h-163v88h259v-351q-23 -9 -52.5 -17t-62 -15
t-67 -11t-67.5 -4q-93 0 -163 28.5t-117.5 79t-71.5 119.5t-24 149t27 148.5t77.5 119t123.5 79t166 28.5z" />
    <glyph glyph-name="Gcircumflex" unicode="&#x11c;" horiz-adv-x="752" 
d="M445 738q25 0 51.5 -2t51.5 -6.5t47 -11t39 -14.5v-93q-16 8 -37 15.5t-44.5 13t-48.5 9t-49 3.5q-69 0 -124.5 -19t-94.5 -55.5t-60 -90.5t-21 -124q0 -71 20 -125t57 -91t89 -56t116 -19q41 0 76.5 6.5t66.5 17.5v201h-163v88h259v-351q-23 -9 -52.5 -17t-62 -15
t-67 -11t-67.5 -4q-93 0 -163 28.5t-117.5 79t-71.5 119.5t-24 149t27 148.5t77.5 119t123.5 79t166 28.5z" />
    <glyph glyph-name="uni0122" unicode="&#x122;" horiz-adv-x="752" 
d="M445 738q25 0 51.5 -2t51.5 -6.5t47 -11t39 -14.5v-93q-16 8 -37 15.5t-44.5 13t-48.5 9t-49 3.5q-69 0 -124.5 -19t-94.5 -55.5t-60 -90.5t-21 -124q0 -71 20 -125t57 -91t89 -56t116 -19q41 0 76.5 6.5t66.5 17.5v201h-163v88h259v-351q-23 -9 -52.5 -17t-62 -15
t-67 -11t-67.5 -4q-93 0 -163 28.5t-117.5 79t-71.5 119.5t-24 149t27 148.5t77.5 119t123.5 79t166 28.5z" />
    <glyph glyph-name="Gdotaccent" unicode="&#x120;" horiz-adv-x="752" 
d="M445 738q25 0 51.5 -2t51.5 -6.5t47 -11t39 -14.5v-93q-16 8 -37 15.5t-44.5 13t-48.5 9t-49 3.5q-69 0 -124.5 -19t-94.5 -55.5t-60 -90.5t-21 -124q0 -71 20 -125t57 -91t89 -56t116 -19q41 0 76.5 6.5t66.5 17.5v201h-163v88h259v-351q-23 -9 -52.5 -17t-62 -15
t-67 -11t-67.5 -4q-93 0 -163 28.5t-117.5 79t-71.5 119.5t-24 149t27 148.5t77.5 119t123.5 79t166 28.5z" />
    <glyph glyph-name="Hbar" unicode="&#x126;" horiz-adv-x="742" 
d="M656 725v-725h-102v329h-366v-329h-102v725h102v-308h366v308h102z" />
    <glyph glyph-name="Hcircumflex" unicode="&#x124;" horiz-adv-x="742" 
d="M656 725v-725h-102v329h-366v-329h-102v725h102v-308h366v308h102z" />
    <glyph glyph-name="Iacute" unicode="&#xcd;" horiz-adv-x="482" 
d="M50 0v88h140v549h-140v88h382v-88h-140v-549h140v-88h-382z" />
    <glyph glyph-name="Ibreve" unicode="&#x12c;" horiz-adv-x="482" 
d="M50 0v88h140v549h-140v88h382v-88h-140v-549h140v-88h-382z" />
    <glyph glyph-name="Icircumflex" unicode="&#xce;" horiz-adv-x="482" 
d="M50 0v88h140v549h-140v88h382v-88h-140v-549h140v-88h-382z" />
    <glyph glyph-name="Idieresis" unicode="&#xcf;" horiz-adv-x="482" 
d="M50 0v88h140v549h-140v88h382v-88h-140v-549h140v-88h-382z" />
    <glyph glyph-name="Idotaccent" unicode="&#x130;" horiz-adv-x="482" 
d="M50 0v88h140v549h-140v88h382v-88h-140v-549h140v-88h-382z" />
    <glyph glyph-name="Igrave" unicode="&#xcc;" horiz-adv-x="482" 
d="M50 0v88h140v549h-140v88h382v-88h-140v-549h140v-88h-382z" />
    <glyph glyph-name="Imacron" unicode="&#x12a;" horiz-adv-x="482" 
d="M50 0v88h140v549h-140v88h382v-88h-140v-549h140v-88h-382z" />
    <glyph glyph-name="Iogonek" unicode="&#x12e;" horiz-adv-x="482" 
d="M50 0v88h140v549h-140v88h382v-88h-140v-549h140v-88h-382z" />
    <glyph glyph-name="Itilde" unicode="&#x128;" horiz-adv-x="482" 
d="M50 0v88h140v549h-140v88h382v-88h-140v-549h140v-88h-382z" />
    <glyph glyph-name="uni1ECA" unicode="&#x1eca;" horiz-adv-x="482" 
d="M50 0v88h140v549h-140v88h382v-88h-140v-549h140v-88h-382z" />
    <glyph glyph-name="Jcircumflex" unicode="&#x134;" horiz-adv-x="368" 
d="M120 -13q-17 0 -39 2.5t-43 7.5l6 88q13 -4 30.5 -7t34.5 -3q36 0 53.5 16.5t17.5 57.5v488h-124v88h226v-572q0 -83 -43 -124.5t-119 -41.5z" />
    <glyph glyph-name="uni0136" unicode="&#x136;" horiz-adv-x="666" 
d="M188 360l317 365h127l-329 -371l374 -354h-147l-342 325v-325h-102v725h102v-365z" />
    <glyph glyph-name="Lacute" unicode="&#x139;" horiz-adv-x="496" 
d="M188 88h308v-88h-410v725h102v-637z" />
    <glyph glyph-name="Lcaron" unicode="&#x13d;" horiz-adv-x="496" 
d="M188 88h308v-88h-410v725h102v-637z" />
    <glyph glyph-name="uni013B" unicode="&#x13b;" horiz-adv-x="496" 
d="M188 88h308v-88h-410v725h102v-637z" />
    <glyph glyph-name="Ldot" unicode="&#x13f;" horiz-adv-x="496" 
d="M188 88h308v-88h-410v725h102v-637z" />
    <glyph glyph-name="Lslash" unicode="&#x141;" horiz-adv-x="496" 
d="M188 88h308v-88h-410v725h102v-637z" />
    <glyph glyph-name="Eng" unicode="&#x14a;" horiz-adv-x="755" 
d="M520 0l-332 619v-619h-102v725h150l331 -617v617h102v-725h-149z" />
    <glyph glyph-name="Nacute" unicode="&#x143;" horiz-adv-x="755" 
d="M520 0l-332 619v-619h-102v725h150l331 -617v617h102v-725h-149z" />
    <glyph glyph-name="Ncaron" unicode="&#x147;" horiz-adv-x="755" 
d="M520 0l-332 619v-619h-102v725h150l331 -617v617h102v-725h-149z" />
    <glyph glyph-name="uni0145" unicode="&#x145;" horiz-adv-x="755" 
d="M520 0l-332 619v-619h-102v725h150l331 -617v617h102v-725h-149z" />
    <glyph glyph-name="Ntilde" unicode="&#xd1;" horiz-adv-x="755" 
d="M520 0l-332 619v-619h-102v725h150l331 -617v617h102v-725h-149z" />
    <glyph glyph-name="OE" unicode="&#x152;" horiz-adv-x="1355" 
d="M155 363q0 -70 18.5 -124t50 -91t74.5 -56t93 -19q49 0 92.5 19t75 56t50 91t18.5 124t-18.5 124t-50 90.5t-75 55.5t-92.5 19q-50 0 -93 -19t-74.5 -55.5t-50 -90.5t-18.5 -124zM731 363q0 -82 -23.5 -151t-68 -119t-107.5 -78t-141 -28t-141 28t-107.5 78t-68 119
t-23.5 151t23.5 151t68 118.5t107.5 77.5t141 28t141 -28t107.5 -77.5t68 -118.5t23.5 -151zM868 725h447v-88h-345v-220h322v-88h-322v-241h345v-88h-447v725z" />
    <glyph glyph-name="Oacute" unicode="&#xd3;" horiz-adv-x="782" 
d="M155 363q0 -70 18.5 -124t50 -91t74.5 -56t93 -19q49 0 92.5 19t75 56t50 91t18.5 124t-18.5 124t-50 90.5t-75 55.5t-92.5 19q-50 0 -93 -19t-74.5 -55.5t-50 -90.5t-18.5 -124zM731 363q0 -82 -23.5 -151t-68 -119t-107.5 -78t-141 -28t-141 28t-107.5 78t-68 119
t-23.5 151t23.5 151t68 118.5t107.5 77.5t141 28t141 -28t107.5 -77.5t68 -118.5t23.5 -151z" />
    <glyph glyph-name="Obreve" unicode="&#x14e;" horiz-adv-x="782" 
d="M155 363q0 -70 18.5 -124t50 -91t74.5 -56t93 -19q49 0 92.5 19t75 56t50 91t18.5 124t-18.5 124t-50 90.5t-75 55.5t-92.5 19q-50 0 -93 -19t-74.5 -55.5t-50 -90.5t-18.5 -124zM731 363q0 -82 -23.5 -151t-68 -119t-107.5 -78t-141 -28t-141 28t-107.5 78t-68 119
t-23.5 151t23.5 151t68 118.5t107.5 77.5t141 28t141 -28t107.5 -77.5t68 -118.5t23.5 -151z" />
    <glyph glyph-name="Ocircumflex" unicode="&#xd4;" horiz-adv-x="782" 
d="M155 363q0 -70 18.5 -124t50 -91t74.5 -56t93 -19q49 0 92.5 19t75 56t50 91t18.5 124t-18.5 124t-50 90.5t-75 55.5t-92.5 19q-50 0 -93 -19t-74.5 -55.5t-50 -90.5t-18.5 -124zM731 363q0 -82 -23.5 -151t-68 -119t-107.5 -78t-141 -28t-141 28t-107.5 78t-68 119
t-23.5 151t23.5 151t68 118.5t107.5 77.5t141 28t141 -28t107.5 -77.5t68 -118.5t23.5 -151z" />
    <glyph glyph-name="Odieresis" unicode="&#xd6;" horiz-adv-x="782" 
d="M155 363q0 -70 18.5 -124t50 -91t74.5 -56t93 -19q49 0 92.5 19t75 56t50 91t18.5 124t-18.5 124t-50 90.5t-75 55.5t-92.5 19q-50 0 -93 -19t-74.5 -55.5t-50 -90.5t-18.5 -124zM731 363q0 -82 -23.5 -151t-68 -119t-107.5 -78t-141 -28t-141 28t-107.5 78t-68 119
t-23.5 151t23.5 151t68 118.5t107.5 77.5t141 28t141 -28t107.5 -77.5t68 -118.5t23.5 -151z" />
    <glyph glyph-name="Ograve" unicode="&#xd2;" horiz-adv-x="782" 
d="M155 363q0 -70 18.5 -124t50 -91t74.5 -56t93 -19q49 0 92.5 19t75 56t50 91t18.5 124t-18.5 124t-50 90.5t-75 55.5t-92.5 19q-50 0 -93 -19t-74.5 -55.5t-50 -90.5t-18.5 -124zM731 363q0 -82 -23.5 -151t-68 -119t-107.5 -78t-141 -28t-141 28t-107.5 78t-68 119
t-23.5 151t23.5 151t68 118.5t107.5 77.5t141 28t141 -28t107.5 -77.5t68 -118.5t23.5 -151z" />
    <glyph glyph-name="Ohungarumlaut" unicode="&#x150;" horiz-adv-x="782" 
d="M155 363q0 -70 18.5 -124t50 -91t74.5 -56t93 -19q49 0 92.5 19t75 56t50 91t18.5 124t-18.5 124t-50 90.5t-75 55.5t-92.5 19q-50 0 -93 -19t-74.5 -55.5t-50 -90.5t-18.5 -124zM731 363q0 -82 -23.5 -151t-68 -119t-107.5 -78t-141 -28t-141 28t-107.5 78t-68 119
t-23.5 151t23.5 151t68 118.5t107.5 77.5t141 28t141 -28t107.5 -77.5t68 -118.5t23.5 -151z" />
    <glyph glyph-name="Omacron" unicode="&#x14c;" horiz-adv-x="782" 
d="M155 363q0 -70 18.5 -124t50 -91t74.5 -56t93 -19q49 0 92.5 19t75 56t50 91t18.5 124t-18.5 124t-50 90.5t-75 55.5t-92.5 19q-50 0 -93 -19t-74.5 -55.5t-50 -90.5t-18.5 -124zM731 363q0 -82 -23.5 -151t-68 -119t-107.5 -78t-141 -28t-141 28t-107.5 78t-68 119
t-23.5 151t23.5 151t68 118.5t107.5 77.5t141 28t141 -28t107.5 -77.5t68 -118.5t23.5 -151z" />
    <glyph glyph-name="Oslash" unicode="&#xd8;" horiz-adv-x="782" 
d="M155 363q0 -70 18.5 -124t50 -91t74.5 -56t93 -19q49 0 92.5 19t75 56t50 91t18.5 124t-18.5 124t-50 90.5t-75 55.5t-92.5 19q-50 0 -93 -19t-74.5 -55.5t-50 -90.5t-18.5 -124zM731 363q0 -82 -23.5 -151t-68 -119t-107.5 -78t-141 -28t-141 28t-107.5 78t-68 119
t-23.5 151t23.5 151t68 118.5t107.5 77.5t141 28t141 -28t107.5 -77.5t68 -118.5t23.5 -151z" />
    <glyph glyph-name="Otilde" unicode="&#xd5;" horiz-adv-x="782" 
d="M155 363q0 -70 18.5 -124t50 -91t74.5 -56t93 -19q49 0 92.5 19t75 56t50 91t18.5 124t-18.5 124t-50 90.5t-75 55.5t-92.5 19q-50 0 -93 -19t-74.5 -55.5t-50 -90.5t-18.5 -124zM731 363q0 -82 -23.5 -151t-68 -119t-107.5 -78t-141 -28t-141 28t-107.5 78t-68 119
t-23.5 151t23.5 151t68 118.5t107.5 77.5t141 28t141 -28t107.5 -77.5t68 -118.5t23.5 -151z" />
    <glyph glyph-name="uni1ECC" unicode="&#x1ecc;" horiz-adv-x="782" 
d="M155 363q0 -70 18.5 -124t50 -91t74.5 -56t93 -19q49 0 92.5 19t75 56t50 91t18.5 124t-18.5 124t-50 90.5t-75 55.5t-92.5 19q-50 0 -93 -19t-74.5 -55.5t-50 -90.5t-18.5 -124zM731 363q0 -82 -23.5 -151t-68 -119t-107.5 -78t-141 -28t-141 28t-107.5 78t-68 119
t-23.5 151t23.5 151t68 118.5t107.5 77.5t141 28t141 -28t107.5 -77.5t68 -118.5t23.5 -151z" />
    <glyph glyph-name="Thorn" unicode="&#xde;" horiz-adv-x="616" 
d="M293 725q66 0 121.5 -9t95.5 -33.5t62 -67t22 -109.5q0 -68 -22 -110.5t-62 -66.5t-95.5 -33t-121.5 -9h-105v-287h-102v725h207zM188 639v-263h113q40 0 74.5 3.5t60 17t40 39t14.5 70.5q0 44 -14.5 70.5t-40 40.5t-60 18t-74.5 4h-113z" />
    <glyph glyph-name="Racute" unicode="&#x154;" horiz-adv-x="649" 
d="M188 309v-309h-102v725h200q66 0 121.5 -8.5t95.5 -31t62.5 -63t22.5 -103.5q0 -167 -187 -201l229 -318h-120l-222 309h-1h-99zM188 639v-244h106q40 0 74.5 4t60 16.5t40 36.5t14.5 64t-14.5 64.5t-40 37.5t-60 17t-74.5 4h-106z" />
    <glyph glyph-name="Rcaron" unicode="&#x158;" horiz-adv-x="649" 
d="M188 309v-309h-102v725h200q66 0 121.5 -8.5t95.5 -31t62.5 -63t22.5 -103.5q0 -167 -187 -201l229 -318h-120l-222 309h-1h-99zM188 639v-244h106q40 0 74.5 4t60 16.5t40 36.5t14.5 64t-14.5 64.5t-40 37.5t-60 17t-74.5 4h-106z" />
    <glyph glyph-name="uni0156" unicode="&#x156;" horiz-adv-x="649" 
d="M188 309v-309h-102v725h200q66 0 121.5 -8.5t95.5 -31t62.5 -63t22.5 -103.5q0 -167 -187 -201l229 -318h-120l-222 309h-1h-99zM188 639v-244h106q40 0 74.5 4t60 16.5t40 36.5t14.5 64t-14.5 64.5t-40 37.5t-60 17t-74.5 4h-106z" />
    <glyph glyph-name="Sacute" unicode="&#x15a;" horiz-adv-x="586" 
d="M261 73q36 0 67 6.5t54 20t36 35t13 50.5q0 45 -29 74t-92 52l-67 24q-39 14 -72 33t-58 43.5t-39 56t-14 69.5q0 48 21.5 85t57 63t80.5 39.5t92 13.5q57 0 100 -8t77 -24v-93q-38 20 -80.5 30t-98.5 10q-26 0 -51.5 -5.5t-46 -17.5t-33.5 -32.5t-13 -50.5
q0 -78 100 -114l67 -24q103 -37 153 -85t50 -120q0 -53 -23 -93.5t-61.5 -68t-88 -41.5t-102.5 -14q-66 0 -118 13t-81 30v95q20 -10 40 -19.5t43.5 -16.5t51.5 -11.5t65 -4.5z" />
    <glyph glyph-name="Scaron" unicode="&#x160;" horiz-adv-x="586" 
d="M261 73q36 0 67 6.5t54 20t36 35t13 50.5q0 45 -29 74t-92 52l-67 24q-39 14 -72 33t-58 43.5t-39 56t-14 69.5q0 48 21.5 85t57 63t80.5 39.5t92 13.5q57 0 100 -8t77 -24v-93q-38 20 -80.5 30t-98.5 10q-26 0 -51.5 -5.5t-46 -17.5t-33.5 -32.5t-13 -50.5
q0 -78 100 -114l67 -24q103 -37 153 -85t50 -120q0 -53 -23 -93.5t-61.5 -68t-88 -41.5t-102.5 -14q-66 0 -118 13t-81 30v95q20 -10 40 -19.5t43.5 -16.5t51.5 -11.5t65 -4.5z" />
    <glyph glyph-name="Scedilla" unicode="&#x15e;" horiz-adv-x="586" 
d="M261 73q36 0 67 6.5t54 20t36 35t13 50.5q0 45 -29 74t-92 52l-67 24q-39 14 -72 33t-58 43.5t-39 56t-14 69.5q0 48 21.5 85t57 63t80.5 39.5t92 13.5q57 0 100 -8t77 -24v-93q-38 20 -80.5 30t-98.5 10q-26 0 -51.5 -5.5t-46 -17.5t-33.5 -32.5t-13 -50.5
q0 -78 100 -114l67 -24q103 -37 153 -85t50 -120q0 -53 -23 -93.5t-61.5 -68t-88 -41.5t-102.5 -14q-66 0 -118 13t-81 30v95q20 -10 40 -19.5t43.5 -16.5t51.5 -11.5t65 -4.5z" />
    <glyph glyph-name="Scircumflex" unicode="&#x15c;" horiz-adv-x="586" 
d="M261 73q36 0 67 6.5t54 20t36 35t13 50.5q0 45 -29 74t-92 52l-67 24q-39 14 -72 33t-58 43.5t-39 56t-14 69.5q0 48 21.5 85t57 63t80.5 39.5t92 13.5q57 0 100 -8t77 -24v-93q-38 20 -80.5 30t-98.5 10q-26 0 -51.5 -5.5t-46 -17.5t-33.5 -32.5t-13 -50.5
q0 -78 100 -114l67 -24q103 -37 153 -85t50 -120q0 -53 -23 -93.5t-61.5 -68t-88 -41.5t-102.5 -14q-66 0 -118 13t-81 30v95q20 -10 40 -19.5t43.5 -16.5t51.5 -11.5t65 -4.5z" />
    <glyph glyph-name="uni0218" unicode="&#x218;" horiz-adv-x="586" 
d="M261 73q36 0 67 6.5t54 20t36 35t13 50.5q0 45 -29 74t-92 52l-67 24q-39 14 -72 33t-58 43.5t-39 56t-14 69.5q0 48 21.5 85t57 63t80.5 39.5t92 13.5q57 0 100 -8t77 -24v-93q-38 20 -80.5 30t-98.5 10q-26 0 -51.5 -5.5t-46 -17.5t-33.5 -32.5t-13 -50.5
q0 -78 100 -114l67 -24q103 -37 153 -85t50 -120q0 -53 -23 -93.5t-61.5 -68t-88 -41.5t-102.5 -14q-66 0 -118 13t-81 30v95q20 -10 40 -19.5t43.5 -16.5t51.5 -11.5t65 -4.5z" />
    <glyph glyph-name="Tbar" unicode="&#x166;" horiz-adv-x="554" 
d="M226 637h-226v88h554v-88h-226v-637h-102v637z" />
    <glyph glyph-name="Tcaron" unicode="&#x164;" horiz-adv-x="554" 
d="M226 637h-226v88h554v-88h-226v-637h-102v637z" />
    <glyph glyph-name="uni0162" unicode="&#x162;" horiz-adv-x="554" 
d="M226 637h-226v88h554v-88h-226v-637h-102v637z" />
    <glyph glyph-name="uni021A" unicode="&#x21a;" horiz-adv-x="554" 
d="M226 637h-226v88h554v-88h-226v-637h-102v637z" />
    <glyph glyph-name="Uacute" unicode="&#xda;" horiz-adv-x="731" 
d="M177 725v-441q0 -107 42.5 -158t144.5 -51q104 0 147 56.5t43 163.5v430h102v-422q0 -80 -16 -139t-51 -98.5t-90.5 -59t-134.5 -19.5q-75 0 -130 16.5t-90 53t-52 95t-17 143.5v430h102z" />
    <glyph glyph-name="Ubreve" unicode="&#x16c;" horiz-adv-x="731" 
d="M177 725v-441q0 -107 42.5 -158t144.5 -51q104 0 147 56.5t43 163.5v430h102v-422q0 -80 -16 -139t-51 -98.5t-90.5 -59t-134.5 -19.5q-75 0 -130 16.5t-90 53t-52 95t-17 143.5v430h102z" />
    <glyph glyph-name="Ucircumflex" unicode="&#xdb;" horiz-adv-x="731" 
d="M177 725v-441q0 -107 42.5 -158t144.5 -51q104 0 147 56.5t43 163.5v430h102v-422q0 -80 -16 -139t-51 -98.5t-90.5 -59t-134.5 -19.5q-75 0 -130 16.5t-90 53t-52 95t-17 143.5v430h102z" />
    <glyph glyph-name="Udieresis" unicode="&#xdc;" horiz-adv-x="731" 
d="M177 725v-441q0 -107 42.5 -158t144.5 -51q104 0 147 56.5t43 163.5v430h102v-422q0 -80 -16 -139t-51 -98.5t-90.5 -59t-134.5 -19.5q-75 0 -130 16.5t-90 53t-52 95t-17 143.5v430h102z" />
    <glyph glyph-name="Ugrave" unicode="&#xd9;" horiz-adv-x="731" 
d="M177 725v-441q0 -107 42.5 -158t144.5 -51q104 0 147 56.5t43 163.5v430h102v-422q0 -80 -16 -139t-51 -98.5t-90.5 -59t-134.5 -19.5q-75 0 -130 16.5t-90 53t-52 95t-17 143.5v430h102z" />
    <glyph glyph-name="Uhungarumlaut" unicode="&#x170;" horiz-adv-x="731" 
d="M177 725v-441q0 -107 42.5 -158t144.5 -51q104 0 147 56.5t43 163.5v430h102v-422q0 -80 -16 -139t-51 -98.5t-90.5 -59t-134.5 -19.5q-75 0 -130 16.5t-90 53t-52 95t-17 143.5v430h102z" />
    <glyph glyph-name="Umacron" unicode="&#x16a;" horiz-adv-x="731" 
d="M177 725v-441q0 -107 42.5 -158t144.5 -51q104 0 147 56.5t43 163.5v430h102v-422q0 -80 -16 -139t-51 -98.5t-90.5 -59t-134.5 -19.5q-75 0 -130 16.5t-90 53t-52 95t-17 143.5v430h102z" />
    <glyph glyph-name="Uogonek" unicode="&#x172;" horiz-adv-x="731" 
d="M177 725v-441q0 -107 42.5 -158t144.5 -51q104 0 147 56.5t43 163.5v430h102v-422q0 -80 -16 -139t-51 -98.5t-90.5 -59t-134.5 -19.5q-75 0 -130 16.5t-90 53t-52 95t-17 143.5v430h102z" />
    <glyph glyph-name="Uring" unicode="&#x16e;" horiz-adv-x="731" 
d="M177 725v-441q0 -107 42.5 -158t144.5 -51q104 0 147 56.5t43 163.5v430h102v-422q0 -80 -16 -139t-51 -98.5t-90.5 -59t-134.5 -19.5q-75 0 -130 16.5t-90 53t-52 95t-17 143.5v430h102z" />
    <glyph glyph-name="Utilde" unicode="&#x168;" horiz-adv-x="731" 
d="M177 725v-441q0 -107 42.5 -158t144.5 -51q104 0 147 56.5t43 163.5v430h102v-422q0 -80 -16 -139t-51 -98.5t-90.5 -59t-134.5 -19.5q-75 0 -130 16.5t-90 53t-52 95t-17 143.5v430h102z" />
    <glyph glyph-name="uni1EE4" unicode="&#x1ee4;" horiz-adv-x="731" 
d="M177 725v-441q0 -107 42.5 -158t144.5 -51q104 0 147 56.5t43 163.5v430h102v-422q0 -80 -16 -139t-51 -98.5t-90.5 -59t-134.5 -19.5q-75 0 -130 16.5t-90 53t-52 95t-17 143.5v430h102z" />
    <glyph glyph-name="Wacute" unicode="&#x1e82;" horiz-adv-x="922" 
d="M665 116l134 609h107l-181 -725h-124l-140 596l-137 -596h-124l-184 725h112l140 -609l134 609h120z" />
    <glyph glyph-name="Wcircumflex" unicode="&#x174;" horiz-adv-x="922" 
d="M665 116l134 609h107l-181 -725h-124l-140 596l-137 -596h-124l-184 725h112l140 -609l134 609h120z" />
    <glyph glyph-name="Wdieresis" unicode="&#x1e84;" horiz-adv-x="922" 
d="M665 116l134 609h107l-181 -725h-124l-140 596l-137 -596h-124l-184 725h112l140 -609l134 609h120z" />
    <glyph glyph-name="Wgrave" unicode="&#x1e80;" horiz-adv-x="922" 
d="M665 116l134 609h107l-181 -725h-124l-140 596l-137 -596h-124l-184 725h112l140 -609l134 609h120z" />
    <glyph glyph-name="Yacute" unicode="&#xdd;" horiz-adv-x="624" 
d="M112 725l198 -354l202 354h112l-266 -444v-281h-102v283l-256 442h112z" />
    <glyph glyph-name="Ycircumflex" unicode="&#x176;" horiz-adv-x="624" 
d="M112 725l198 -354l202 354h112l-266 -444v-281h-102v283l-256 442h112z" />
    <glyph glyph-name="Ydieresis" unicode="&#x178;" horiz-adv-x="624" 
d="M112 725l198 -354l202 354h112l-266 -444v-281h-102v283l-256 442h112z" />
    <glyph glyph-name="Ygrave" unicode="&#x1ef2;" horiz-adv-x="624" 
d="M112 725l198 -354l202 354h112l-266 -444v-281h-102v283l-256 442h112z" />
    <glyph glyph-name="uni0232" unicode="&#x232;" horiz-adv-x="624" 
d="M112 725l198 -354l202 354h112l-266 -444v-281h-102v283l-256 442h112z" />
    <glyph glyph-name="Zacute" unicode="&#x179;" horiz-adv-x="633" 
d="M588 637l-426 -549h442v-88h-563v88l427 549h-394v88h514v-88z" />
    <glyph glyph-name="Zcaron" unicode="&#x17d;" horiz-adv-x="633" 
d="M588 637l-426 -549h442v-88h-563v88l427 549h-394v88h514v-88z" />
    <glyph glyph-name="Zdotaccent" unicode="&#x17b;" horiz-adv-x="633" 
d="M588 637l-426 -549h442v-88h-563v88l427 549h-394v88h514v-88z" />
    <glyph glyph-name="ae" unicode="&#xe6;" horiz-adv-x="1084" 
d="M265 547q106 0 158 -49.5t51 -165.5l-1 -129q0 -34 -0.5 -54t0 -39.5t1 -43.5t2.5 -66h-88v85q-24 -43 -68.5 -70.5t-107.5 -27.5q-37 0 -69.5 11.5t-57 33t-39 51.5t-14.5 67q0 46 26 79.5t72.5 56.5t111 38t141.5 24q-1 34 -12 57t-29 36t-41.5 18.5t-48.5 5.5
q-48 0 -93 -16.5t-76 -35.5v87q38 21 86 34t96 13zM234 60q25 0 52.5 9t50.5 33t38 66t14 109q-57 -5 -104.5 -14t-81.5 -23.5t-52.5 -35.5t-18.5 -49q0 -38 25.5 -66.5t76.5 -28.5zM670 243q4 -47 21.5 -80t43 -54t56.5 -30.5t63 -9.5q55 0 94.5 15.5t68.5 34.5v-90
q-25 -14 -69.5 -28t-101.5 -14q-64 0 -114.5 21.5t-86 59.5t-54 89t-18.5 111q0 64 19.5 115.5t53.5 88t79 56t96 19.5q59 0 103.5 -23.5t74 -64t43 -96.5t10.5 -120h-382zM814 470q-24 0 -48.5 -8t-44 -26t-33.5 -47.5t-17 -72.5h283q-1 40 -12.5 69.5t-30.5 48t-44 27.5
t-53 9z" />
    <glyph glyph-name="aacute" unicode="&#xe1;" horiz-adv-x="538" 
d="M265 547q106 0 158 -49.5t51 -165.5l-1 -129q0 -34 -0.5 -54t0 -39.5t1 -43.5t2.5 -66h-88v85q-24 -43 -68.5 -70.5t-107.5 -27.5q-37 0 -69.5 11.5t-57 33t-39 51.5t-14.5 67q0 46 26 79.5t72.5 56.5t111 38t141.5 24q-1 34 -12 57t-29 36t-41.5 18.5t-48.5 5.5
q-48 0 -93 -16.5t-76 -35.5v87q38 21 86 34t96 13zM234 60q25 0 52.5 9t50.5 33t38 66t14 109q-57 -5 -104.5 -14t-81.5 -23.5t-52.5 -35.5t-18.5 -49q0 -38 25.5 -66.5t76.5 -28.5z" />
    <glyph glyph-name="abreve" unicode="&#x103;" horiz-adv-x="538" 
d="M265 547q106 0 158 -49.5t51 -165.5l-1 -129q0 -34 -0.5 -54t0 -39.5t1 -43.5t2.5 -66h-88v85q-24 -43 -68.5 -70.5t-107.5 -27.5q-37 0 -69.5 11.5t-57 33t-39 51.5t-14.5 67q0 46 26 79.5t72.5 56.5t111 38t141.5 24q-1 34 -12 57t-29 36t-41.5 18.5t-48.5 5.5
q-48 0 -93 -16.5t-76 -35.5v87q38 21 86 34t96 13zM234 60q25 0 52.5 9t50.5 33t38 66t14 109q-57 -5 -104.5 -14t-81.5 -23.5t-52.5 -35.5t-18.5 -49q0 -38 25.5 -66.5t76.5 -28.5z" />
    <glyph glyph-name="acircumflex" unicode="&#xe2;" horiz-adv-x="538" 
d="M265 547q106 0 158 -49.5t51 -165.5l-1 -129q0 -34 -0.5 -54t0 -39.5t1 -43.5t2.5 -66h-88v85q-24 -43 -68.5 -70.5t-107.5 -27.5q-37 0 -69.5 11.5t-57 33t-39 51.5t-14.5 67q0 46 26 79.5t72.5 56.5t111 38t141.5 24q-1 34 -12 57t-29 36t-41.5 18.5t-48.5 5.5
q-48 0 -93 -16.5t-76 -35.5v87q38 21 86 34t96 13zM234 60q25 0 52.5 9t50.5 33t38 66t14 109q-57 -5 -104.5 -14t-81.5 -23.5t-52.5 -35.5t-18.5 -49q0 -38 25.5 -66.5t76.5 -28.5z" />
    <glyph glyph-name="adieresis" unicode="&#xe4;" horiz-adv-x="538" 
d="M265 547q106 0 158 -49.5t51 -165.5l-1 -129q0 -34 -0.5 -54t0 -39.5t1 -43.5t2.5 -66h-88v85q-24 -43 -68.5 -70.5t-107.5 -27.5q-37 0 -69.5 11.5t-57 33t-39 51.5t-14.5 67q0 46 26 79.5t72.5 56.5t111 38t141.5 24q-1 34 -12 57t-29 36t-41.5 18.5t-48.5 5.5
q-48 0 -93 -16.5t-76 -35.5v87q38 21 86 34t96 13zM234 60q25 0 52.5 9t50.5 33t38 66t14 109q-57 -5 -104.5 -14t-81.5 -23.5t-52.5 -35.5t-18.5 -49q0 -38 25.5 -66.5t76.5 -28.5z" />
    <glyph glyph-name="agrave" unicode="&#xe0;" horiz-adv-x="538" 
d="M265 547q106 0 158 -49.5t51 -165.5l-1 -129q0 -34 -0.5 -54t0 -39.5t1 -43.5t2.5 -66h-88v85q-24 -43 -68.5 -70.5t-107.5 -27.5q-37 0 -69.5 11.5t-57 33t-39 51.5t-14.5 67q0 46 26 79.5t72.5 56.5t111 38t141.5 24q-1 34 -12 57t-29 36t-41.5 18.5t-48.5 5.5
q-48 0 -93 -16.5t-76 -35.5v87q38 21 86 34t96 13zM234 60q25 0 52.5 9t50.5 33t38 66t14 109q-57 -5 -104.5 -14t-81.5 -23.5t-52.5 -35.5t-18.5 -49q0 -38 25.5 -66.5t76.5 -28.5z" />
    <glyph glyph-name="amacron" unicode="&#x101;" horiz-adv-x="538" 
d="M265 547q106 0 158 -49.5t51 -165.5l-1 -129q0 -34 -0.5 -54t0 -39.5t1 -43.5t2.5 -66h-88v85q-24 -43 -68.5 -70.5t-107.5 -27.5q-37 0 -69.5 11.5t-57 33t-39 51.5t-14.5 67q0 46 26 79.5t72.5 56.5t111 38t141.5 24q-1 34 -12 57t-29 36t-41.5 18.5t-48.5 5.5
q-48 0 -93 -16.5t-76 -35.5v87q38 21 86 34t96 13zM234 60q25 0 52.5 9t50.5 33t38 66t14 109q-57 -5 -104.5 -14t-81.5 -23.5t-52.5 -35.5t-18.5 -49q0 -38 25.5 -66.5t76.5 -28.5z" />
    <glyph glyph-name="aogonek" unicode="&#x105;" horiz-adv-x="538" 
d="M265 547q106 0 158 -49.5t51 -165.5l-1 -129q0 -34 -0.5 -54t0 -39.5t1 -43.5t2.5 -66h-88v85q-24 -43 -68.5 -70.5t-107.5 -27.5q-37 0 -69.5 11.5t-57 33t-39 51.5t-14.5 67q0 46 26 79.5t72.5 56.5t111 38t141.5 24q-1 34 -12 57t-29 36t-41.5 18.5t-48.5 5.5
q-48 0 -93 -16.5t-76 -35.5v87q38 21 86 34t96 13zM234 60q25 0 52.5 9t50.5 33t38 66t14 109q-57 -5 -104.5 -14t-81.5 -23.5t-52.5 -35.5t-18.5 -49q0 -38 25.5 -66.5t76.5 -28.5z" />
    <glyph glyph-name="aring" unicode="&#xe5;" horiz-adv-x="538" 
d="M265 547q106 0 158 -49.5t51 -165.5l-1 -129q0 -34 -0.5 -54t0 -39.5t1 -43.5t2.5 -66h-88v85q-24 -43 -68.5 -70.5t-107.5 -27.5q-37 0 -69.5 11.5t-57 33t-39 51.5t-14.5 67q0 46 26 79.5t72.5 56.5t111 38t141.5 24q-1 34 -12 57t-29 36t-41.5 18.5t-48.5 5.5
q-48 0 -93 -16.5t-76 -35.5v87q38 21 86 34t96 13zM234 60q25 0 52.5 9t50.5 33t38 66t14 109q-57 -5 -104.5 -14t-81.5 -23.5t-52.5 -35.5t-18.5 -49q0 -38 25.5 -66.5t76.5 -28.5z" />
    <glyph glyph-name="atilde" unicode="&#xe3;" horiz-adv-x="538" 
d="M265 547q106 0 158 -49.5t51 -165.5l-1 -129q0 -34 -0.5 -54t0 -39.5t1 -43.5t2.5 -66h-88v85q-24 -43 -68.5 -70.5t-107.5 -27.5q-37 0 -69.5 11.5t-57 33t-39 51.5t-14.5 67q0 46 26 79.5t72.5 56.5t111 38t141.5 24q-1 34 -12 57t-29 36t-41.5 18.5t-48.5 5.5
q-48 0 -93 -16.5t-76 -35.5v87q38 21 86 34t96 13zM234 60q25 0 52.5 9t50.5 33t38 66t14 109q-57 -5 -104.5 -14t-81.5 -23.5t-52.5 -35.5t-18.5 -49q0 -38 25.5 -66.5t76.5 -28.5z" />
    <glyph glyph-name="cacute" unicode="&#x107;" horiz-adv-x="462" 
d="M133 267q0 -53 15 -90.5t39.5 -61.5t57 -35t67.5 -11q32 0 59.5 7t50.5 18v-85q-23 -10 -54 -16t-63 -6q-66 0 -116 21.5t-84.5 59t-52 88.5t-17.5 111t19.5 111t55 88.5t85.5 59t110 21.5q30 0 61 -3.5t54 -11.5v-86q-25 9 -51 14t-57 5q-35 0 -67.5 -11.5t-57.5 -35.5
t-39.5 -61.5t-14.5 -89.5z" />
    <glyph glyph-name="ccaron" unicode="&#x10d;" horiz-adv-x="462" 
d="M133 267q0 -53 15 -90.5t39.5 -61.5t57 -35t67.5 -11q32 0 59.5 7t50.5 18v-85q-23 -10 -54 -16t-63 -6q-66 0 -116 21.5t-84.5 59t-52 88.5t-17.5 111t19.5 111t55 88.5t85.5 59t110 21.5q30 0 61 -3.5t54 -11.5v-86q-25 9 -51 14t-57 5q-35 0 -67.5 -11.5t-57.5 -35.5
t-39.5 -61.5t-14.5 -89.5z" />
    <glyph glyph-name="ccedilla" unicode="&#xe7;" horiz-adv-x="462" 
d="M133 267q0 -53 15 -90.5t39.5 -61.5t57 -35t67.5 -11q32 0 59.5 7t50.5 18v-85q-23 -10 -54 -16t-63 -6q-66 0 -116 21.5t-84.5 59t-52 88.5t-17.5 111t19.5 111t55 88.5t85.5 59t110 21.5q30 0 61 -3.5t54 -11.5v-86q-25 9 -51 14t-57 5q-35 0 -67.5 -11.5t-57.5 -35.5
t-39.5 -61.5t-14.5 -89.5z" />
    <glyph glyph-name="ccircumflex" unicode="&#x109;" horiz-adv-x="462" 
d="M133 267q0 -53 15 -90.5t39.5 -61.5t57 -35t67.5 -11q32 0 59.5 7t50.5 18v-85q-23 -10 -54 -16t-63 -6q-66 0 -116 21.5t-84.5 59t-52 88.5t-17.5 111t19.5 111t55 88.5t85.5 59t110 21.5q30 0 61 -3.5t54 -11.5v-86q-25 9 -51 14t-57 5q-35 0 -67.5 -11.5t-57.5 -35.5
t-39.5 -61.5t-14.5 -89.5z" />
    <glyph glyph-name="cdotaccent" unicode="&#x10b;" horiz-adv-x="462" 
d="M133 267q0 -53 15 -90.5t39.5 -61.5t57 -35t67.5 -11q32 0 59.5 7t50.5 18v-85q-23 -10 -54 -16t-63 -6q-66 0 -116 21.5t-84.5 59t-52 88.5t-17.5 111t19.5 111t55 88.5t85.5 59t110 21.5q30 0 61 -3.5t54 -11.5v-86q-25 9 -51 14t-57 5q-35 0 -67.5 -11.5t-57.5 -35.5
t-39.5 -61.5t-14.5 -89.5z" />
    <glyph glyph-name="dcaron" unicode="&#x10f;" horiz-adv-x="601" 
d="M438 755h91v-755h-91v81q-25 -43 -68 -68.5t-108 -25.5q-48 0 -89 18.5t-72 54.5t-48.5 88t-17.5 119q0 66 17.5 118t48.5 88t72 55t89 19q65 0 108 -25.5t68 -68.5v302zM442 267q0 53 -13 91.5t-35 63t-50.5 36t-58.5 11.5q-73 0 -112 -52.5t-39 -149.5t39 -149.5
t112 -52.5q30 0 58.5 11.5t50.5 36t35 63t13 91.5z" />
    <glyph glyph-name="dcroat" unicode="&#x111;" horiz-adv-x="601" 
d="M438 755h91v-755h-91v81q-25 -43 -68 -68.5t-108 -25.5q-48 0 -89 18.5t-72 54.5t-48.5 88t-17.5 119q0 66 17.5 118t48.5 88t72 55t89 19q65 0 108 -25.5t68 -68.5v302zM442 267q0 53 -13 91.5t-35 63t-50.5 36t-58.5 11.5q-73 0 -112 -52.5t-39 -149.5t39 -149.5
t112 -52.5q30 0 58.5 11.5t50.5 36t35 63t13 91.5z" />
    <glyph glyph-name="eth" unicode="&#xf0;" horiz-adv-x="601" 
d="M438 755h91v-755h-91v81q-25 -43 -68 -68.5t-108 -25.5q-48 0 -89 18.5t-72 54.5t-48.5 88t-17.5 119q0 66 17.5 118t48.5 88t72 55t89 19q65 0 108 -25.5t68 -68.5v302zM442 267q0 53 -13 91.5t-35 63t-50.5 36t-58.5 11.5q-73 0 -112 -52.5t-39 -149.5t39 -149.5
t112 -52.5q30 0 58.5 11.5t50.5 36t35 63t13 91.5z" />
    <glyph glyph-name="eacute" unicode="&#xe9;" horiz-adv-x="546" 
d="M132 243q4 -47 21.5 -80t43 -54t56.5 -30.5t63 -9.5q55 0 94.5 15.5t68.5 34.5v-90q-25 -14 -69.5 -28t-101.5 -14q-64 0 -114.5 21.5t-86 59.5t-54 89t-18.5 111q0 64 19.5 115.5t53.5 88t79 56t96 19.5q59 0 103.5 -23.5t74 -64t43 -96.5t10.5 -120h-382zM276 470
q-24 0 -48.5 -8t-44 -26t-33.5 -47.5t-17 -72.5h283q-1 40 -12.5 69.5t-30.5 48t-44 27.5t-53 9z" />
    <glyph glyph-name="ebreve" unicode="&#x115;" horiz-adv-x="546" 
d="M132 243q4 -47 21.5 -80t43 -54t56.5 -30.5t63 -9.5q55 0 94.5 15.5t68.5 34.5v-90q-25 -14 -69.5 -28t-101.5 -14q-64 0 -114.5 21.5t-86 59.5t-54 89t-18.5 111q0 64 19.5 115.5t53.5 88t79 56t96 19.5q59 0 103.5 -23.5t74 -64t43 -96.5t10.5 -120h-382zM276 470
q-24 0 -48.5 -8t-44 -26t-33.5 -47.5t-17 -72.5h283q-1 40 -12.5 69.5t-30.5 48t-44 27.5t-53 9z" />
    <glyph glyph-name="ecaron" unicode="&#x11b;" horiz-adv-x="546" 
d="M132 243q4 -47 21.5 -80t43 -54t56.5 -30.5t63 -9.5q55 0 94.5 15.5t68.5 34.5v-90q-25 -14 -69.5 -28t-101.5 -14q-64 0 -114.5 21.5t-86 59.5t-54 89t-18.5 111q0 64 19.5 115.5t53.5 88t79 56t96 19.5q59 0 103.5 -23.5t74 -64t43 -96.5t10.5 -120h-382zM276 470
q-24 0 -48.5 -8t-44 -26t-33.5 -47.5t-17 -72.5h283q-1 40 -12.5 69.5t-30.5 48t-44 27.5t-53 9z" />
    <glyph glyph-name="ecircumflex" unicode="&#xea;" horiz-adv-x="546" 
d="M132 243q4 -47 21.5 -80t43 -54t56.5 -30.5t63 -9.5q55 0 94.5 15.5t68.5 34.5v-90q-25 -14 -69.5 -28t-101.5 -14q-64 0 -114.5 21.5t-86 59.5t-54 89t-18.5 111q0 64 19.5 115.5t53.5 88t79 56t96 19.5q59 0 103.5 -23.5t74 -64t43 -96.5t10.5 -120h-382zM276 470
q-24 0 -48.5 -8t-44 -26t-33.5 -47.5t-17 -72.5h283q-1 40 -12.5 69.5t-30.5 48t-44 27.5t-53 9z" />
    <glyph glyph-name="edieresis" unicode="&#xeb;" horiz-adv-x="546" 
d="M132 243q4 -47 21.5 -80t43 -54t56.5 -30.5t63 -9.5q55 0 94.5 15.5t68.5 34.5v-90q-25 -14 -69.5 -28t-101.5 -14q-64 0 -114.5 21.5t-86 59.5t-54 89t-18.5 111q0 64 19.5 115.5t53.5 88t79 56t96 19.5q59 0 103.5 -23.5t74 -64t43 -96.5t10.5 -120h-382zM276 470
q-24 0 -48.5 -8t-44 -26t-33.5 -47.5t-17 -72.5h283q-1 40 -12.5 69.5t-30.5 48t-44 27.5t-53 9z" />
    <glyph glyph-name="egrave" unicode="&#xe8;" horiz-adv-x="546" 
d="M132 243q4 -47 21.5 -80t43 -54t56.5 -30.5t63 -9.5q55 0 94.5 15.5t68.5 34.5v-90q-25 -14 -69.5 -28t-101.5 -14q-64 0 -114.5 21.5t-86 59.5t-54 89t-18.5 111q0 64 19.5 115.5t53.5 88t79 56t96 19.5q59 0 103.5 -23.5t74 -64t43 -96.5t10.5 -120h-382zM276 470
q-24 0 -48.5 -8t-44 -26t-33.5 -47.5t-17 -72.5h283q-1 40 -12.5 69.5t-30.5 48t-44 27.5t-53 9z" />
    <glyph glyph-name="emacron" unicode="&#x113;" horiz-adv-x="546" 
d="M132 243q4 -47 21.5 -80t43 -54t56.5 -30.5t63 -9.5q55 0 94.5 15.5t68.5 34.5v-90q-25 -14 -69.5 -28t-101.5 -14q-64 0 -114.5 21.5t-86 59.5t-54 89t-18.5 111q0 64 19.5 115.5t53.5 88t79 56t96 19.5q59 0 103.5 -23.5t74 -64t43 -96.5t10.5 -120h-382zM276 470
q-24 0 -48.5 -8t-44 -26t-33.5 -47.5t-17 -72.5h283q-1 40 -12.5 69.5t-30.5 48t-44 27.5t-53 9z" />
    <glyph glyph-name="eogonek" unicode="&#x119;" horiz-adv-x="546" 
d="M132 243q4 -47 21.5 -80t43 -54t56.5 -30.5t63 -9.5q55 0 94.5 15.5t68.5 34.5v-90q-25 -14 -69.5 -28t-101.5 -14q-64 0 -114.5 21.5t-86 59.5t-54 89t-18.5 111q0 64 19.5 115.5t53.5 88t79 56t96 19.5q59 0 103.5 -23.5t74 -64t43 -96.5t10.5 -120h-382zM276 470
q-24 0 -48.5 -8t-44 -26t-33.5 -47.5t-17 -72.5h283q-1 40 -12.5 69.5t-30.5 48t-44 27.5t-53 9z" />
    <glyph glyph-name="edotaccent" unicode="&#x117;" horiz-adv-x="546" 
d="M132 243q4 -47 21.5 -80t43 -54t56.5 -30.5t63 -9.5q55 0 94.5 15.5t68.5 34.5v-90q-25 -14 -69.5 -28t-101.5 -14q-64 0 -114.5 21.5t-86 59.5t-54 89t-18.5 111q0 64 19.5 115.5t53.5 88t79 56t96 19.5q59 0 103.5 -23.5t74 -64t43 -96.5t10.5 -120h-382zM276 470
q-24 0 -48.5 -8t-44 -26t-33.5 -47.5t-17 -72.5h283q-1 40 -12.5 69.5t-30.5 48t-44 27.5t-53 9z" />
    <glyph glyph-name="gbreve" unicode="&#x11f;" horiz-adv-x="592" 
d="M433 278q0 51 -12.5 87t-33.5 59.5t-48.5 34t-57.5 10.5q-73 0 -109.5 -49.5t-36.5 -141.5q0 -93 36.5 -142.5t109.5 -49.5q30 0 57.5 10.5t48.5 34t33.5 60t12.5 87.5zM520 46q0 -71 -19.5 -119.5t-54 -78.5t-81 -43t-100.5 -13q-45 0 -86.5 7.5t-76.5 22.5v93
q31 -20 73 -32t89 -12q28 0 57.5 6.5t53.5 24t39 48t15 79.5v73q-25 -43 -65.5 -68t-105.5 -25q-48 0 -88.5 17.5t-70 52t-46.5 84.5t-17 115q0 64 17 114.5t46.5 84.5t70 52t88.5 18q65 0 105.5 -25.5t65.5 -68.5v85h91v-492z" />
    <glyph glyph-name="gcircumflex" unicode="&#x11d;" horiz-adv-x="592" 
d="M433 278q0 51 -12.5 87t-33.5 59.5t-48.5 34t-57.5 10.5q-73 0 -109.5 -49.5t-36.5 -141.5q0 -93 36.5 -142.5t109.5 -49.5q30 0 57.5 10.5t48.5 34t33.5 60t12.5 87.5zM520 46q0 -71 -19.5 -119.5t-54 -78.5t-81 -43t-100.5 -13q-45 0 -86.5 7.5t-76.5 22.5v93
q31 -20 73 -32t89 -12q28 0 57.5 6.5t53.5 24t39 48t15 79.5v73q-25 -43 -65.5 -68t-105.5 -25q-48 0 -88.5 17.5t-70 52t-46.5 84.5t-17 115q0 64 17 114.5t46.5 84.5t70 52t88.5 18q65 0 105.5 -25.5t65.5 -68.5v85h91v-492z" />
    <glyph glyph-name="uni0123" unicode="&#x123;" horiz-adv-x="592" 
d="M433 278q0 51 -12.5 87t-33.5 59.5t-48.5 34t-57.5 10.5q-73 0 -109.5 -49.5t-36.5 -141.5q0 -93 36.5 -142.5t109.5 -49.5q30 0 57.5 10.5t48.5 34t33.5 60t12.5 87.5zM520 46q0 -71 -19.5 -119.5t-54 -78.5t-81 -43t-100.5 -13q-45 0 -86.5 7.5t-76.5 22.5v93
q31 -20 73 -32t89 -12q28 0 57.5 6.5t53.5 24t39 48t15 79.5v73q-25 -43 -65.5 -68t-105.5 -25q-48 0 -88.5 17.5t-70 52t-46.5 84.5t-17 115q0 64 17 114.5t46.5 84.5t70 52t88.5 18q65 0 105.5 -25.5t65.5 -68.5v85h91v-492z" />
    <glyph glyph-name="gdotaccent" unicode="&#x121;" horiz-adv-x="592" 
d="M433 278q0 51 -12.5 87t-33.5 59.5t-48.5 34t-57.5 10.5q-73 0 -109.5 -49.5t-36.5 -141.5q0 -93 36.5 -142.5t109.5 -49.5q30 0 57.5 10.5t48.5 34t33.5 60t12.5 87.5zM520 46q0 -71 -19.5 -119.5t-54 -78.5t-81 -43t-100.5 -13q-45 0 -86.5 7.5t-76.5 22.5v93
q31 -20 73 -32t89 -12q28 0 57.5 6.5t53.5 24t39 48t15 79.5v73q-25 -43 -65.5 -68t-105.5 -25q-48 0 -88.5 17.5t-70 52t-46.5 84.5t-17 115q0 64 17 114.5t46.5 84.5t70 52t88.5 18q65 0 105.5 -25.5t65.5 -68.5v85h91v-492z" />
    <glyph glyph-name="hbar" unicode="&#x127;" horiz-adv-x="578" 
d="M163 457q23 38 64.5 64t109.5 26q49 0 82.5 -15t54.5 -42.5t30.5 -65.5t9.5 -84v-340h-91v313q0 31 -4 59t-16 49.5t-35.5 34t-62.5 12.5q-66 0 -104 -44.5t-38 -131.5v-292h-91v755h91v-298z" />
    <glyph glyph-name="hcircumflex" unicode="&#x125;" horiz-adv-x="578" 
d="M163 457q23 38 64.5 64t109.5 26q49 0 82.5 -15t54.5 -42.5t30.5 -65.5t9.5 -84v-340h-91v313q0 31 -4 59t-16 49.5t-35.5 34t-62.5 12.5q-66 0 -104 -44.5t-38 -131.5v-292h-91v755h91v-298z" />
    <glyph glyph-name="dotlessi" unicode="&#x131;" 
d="M163 538v-538h-91v538h91zM163 755v-110h-91v110h91z" />
    <glyph glyph-name="iacute" unicode="&#xed;" 
d="M163 538v-538h-91v538h91zM163 755v-110h-91v110h91z" />
    <glyph glyph-name="ibreve" unicode="&#x12d;" 
d="M163 538v-538h-91v538h91zM163 755v-110h-91v110h91z" />
    <glyph glyph-name="icircumflex" unicode="&#xee;" 
d="M163 538v-538h-91v538h91zM163 755v-110h-91v110h91z" />
    <glyph glyph-name="idieresis" unicode="&#xef;" 
d="M163 538v-538h-91v538h91zM163 755v-110h-91v110h91z" />
    <glyph glyph-name="igrave" unicode="&#xec;" 
d="M163 538v-538h-91v538h91zM163 755v-110h-91v110h91z" />
    <glyph glyph-name="imacron" unicode="&#x12b;" 
d="M163 538v-538h-91v538h91zM163 755v-110h-91v110h91z" />
    <glyph glyph-name="iogonek" unicode="&#x12f;" 
d="M163 538v-538h-91v538h91zM163 755v-110h-91v110h91z" />
    <glyph glyph-name="itilde" unicode="&#x129;" 
d="M163 538v-538h-91v538h91zM163 755v-110h-91v110h91z" />
    <glyph glyph-name="uni1ECB" unicode="&#x1ecb;" 
d="M163 538v-538h-91v538h91zM163 755v-110h-91v110h91z" />
    <glyph glyph-name="uni0237" unicode="&#x237;" horiz-adv-x="260" 
d="M53 -196q-8 0 -18.5 0.5t-19.5 2.5v75q11 -2 20.5 -2.5t17.5 -0.5q27 0 35.5 13.5t8.5 54.5v518h-71v73h162v-589q0 -39 -4 -66.5t-18.5 -45t-41 -25.5t-71.5 -8zM188 755v-110h-91v110h91z" />
    <glyph glyph-name="jcircumflex" unicode="&#x135;" horiz-adv-x="260" 
d="M53 -196q-8 0 -18.5 0.5t-19.5 2.5v75q11 -2 20.5 -2.5t17.5 -0.5q27 0 35.5 13.5t8.5 54.5v518h-71v73h162v-589q0 -39 -4 -66.5t-18.5 -45t-41 -25.5t-71.5 -8zM188 755v-110h-91v110h91z" />
    <glyph glyph-name="uni0137" unicode="&#x137;" horiz-adv-x="505" 
d="M163 755v-478l213 261h107l-220 -262l254 -276h-117l-237 253v-253h-91v755h91z" />
    <glyph glyph-name="lacute" unicode="&#x13a;" 
d="M163 0h-91v755h91v-755z" />
    <glyph glyph-name="lcaron" unicode="&#x13e;" 
d="M163 0h-91v755h91v-755z" />
    <glyph glyph-name="uni013C" unicode="&#x13c;" 
d="M163 0h-91v755h91v-755z" />
    <glyph glyph-name="ldot" unicode="&#x140;" 
d="M163 0h-91v755h91v-755z" />
    <glyph glyph-name="lslash" unicode="&#x142;" 
d="M163 0h-91v755h91v-755z" />
    <glyph glyph-name="eng" unicode="&#x14b;" horiz-adv-x="578" 
d="M163 457q23 38 64.5 64t109.5 26q49 0 82.5 -15t54.5 -42.5t30.5 -65.5t9.5 -84v-340h-91v313q0 31 -4 59t-16 49.5t-35.5 34t-62.5 12.5q-66 0 -104 -44.5t-38 -131.5v-292h-91v538h91v-81z" />
    <glyph glyph-name="nacute" unicode="&#x144;" horiz-adv-x="578" 
d="M163 457q23 38 64.5 64t109.5 26q49 0 82.5 -15t54.5 -42.5t30.5 -65.5t9.5 -84v-340h-91v313q0 31 -4 59t-16 49.5t-35.5 34t-62.5 12.5q-66 0 -104 -44.5t-38 -131.5v-292h-91v538h91v-81z" />
    <glyph glyph-name="ncaron" unicode="&#x148;" horiz-adv-x="578" 
d="M163 457q23 38 64.5 64t109.5 26q49 0 82.5 -15t54.5 -42.5t30.5 -65.5t9.5 -84v-340h-91v313q0 31 -4 59t-16 49.5t-35.5 34t-62.5 12.5q-66 0 -104 -44.5t-38 -131.5v-292h-91v538h91v-81z" />
    <glyph glyph-name="uni0146" unicode="&#x146;" horiz-adv-x="578" 
d="M163 457q23 38 64.5 64t109.5 26q49 0 82.5 -15t54.5 -42.5t30.5 -65.5t9.5 -84v-340h-91v313q0 31 -4 59t-16 49.5t-35.5 34t-62.5 12.5q-66 0 -104 -44.5t-38 -131.5v-292h-91v538h91v-81z" />
    <glyph glyph-name="ntilde" unicode="&#xf1;" horiz-adv-x="578" 
d="M163 457q23 38 64.5 64t109.5 26q49 0 82.5 -15t54.5 -42.5t30.5 -65.5t9.5 -84v-340h-91v313q0 31 -4 59t-16 49.5t-35.5 34t-62.5 12.5q-66 0 -104 -44.5t-38 -131.5v-292h-91v538h91v-81z" />
    <glyph glyph-name="oe" unicode="&#x153;" horiz-adv-x="1138" 
d="M134 267q0 -54 12.5 -92t34 -62t50.5 -35t61 -11t61 12t50.5 36.5t34 62t12.5 89.5q0 54 -12.5 92t-34 62t-50.5 35t-61 11t-61 -10.5t-50.5 -34.5t-34 -62t-12.5 -93zM37 267q0 73 21.5 126t57.5 87t82 50.5t94 16.5t94 -16.5t82 -50.5t57.5 -87t21.5 -126t-21.5 -126
t-57.5 -87t-82 -50.5t-94 -16.5t-94 16.5t-82 50.5t-57.5 87t-21.5 126zM724 243q4 -47 21.5 -80t43 -54t56.5 -30.5t63 -9.5q55 0 94.5 15.5t68.5 34.5v-90q-25 -14 -69.5 -28t-101.5 -14q-64 0 -114.5 21.5t-86 59.5t-54 89t-18.5 111q0 64 19.5 115.5t53.5 88t79 56
t96 19.5q59 0 103.5 -23.5t74 -64t43 -96.5t10.5 -120h-382zM868 470q-24 0 -48.5 -8t-44 -26t-33.5 -47.5t-17 -72.5h283q-1 40 -12.5 69.5t-30.5 48t-44 27.5t-53 9z" />
    <glyph glyph-name="oacute" unicode="&#xf3;" horiz-adv-x="584" 
d="M134 267q0 -54 12.5 -92t34 -62t50.5 -35t61 -11t61 12t50.5 36.5t34 62t12.5 89.5q0 54 -12.5 92t-34 62t-50.5 35t-61 11t-61 -10.5t-50.5 -34.5t-34 -62t-12.5 -93zM37 267q0 73 21.5 126t57.5 87t82 50.5t94 16.5t94 -16.5t82 -50.5t57.5 -87t21.5 -126t-21.5 -126
t-57.5 -87t-82 -50.5t-94 -16.5t-94 16.5t-82 50.5t-57.5 87t-21.5 126z" />
    <glyph glyph-name="obreve" unicode="&#x14f;" horiz-adv-x="584" 
d="M134 267q0 -54 12.5 -92t34 -62t50.5 -35t61 -11t61 12t50.5 36.5t34 62t12.5 89.5q0 54 -12.5 92t-34 62t-50.5 35t-61 11t-61 -10.5t-50.5 -34.5t-34 -62t-12.5 -93zM37 267q0 73 21.5 126t57.5 87t82 50.5t94 16.5t94 -16.5t82 -50.5t57.5 -87t21.5 -126t-21.5 -126
t-57.5 -87t-82 -50.5t-94 -16.5t-94 16.5t-82 50.5t-57.5 87t-21.5 126z" />
    <glyph glyph-name="ocircumflex" unicode="&#xf4;" horiz-adv-x="584" 
d="M134 267q0 -54 12.5 -92t34 -62t50.5 -35t61 -11t61 12t50.5 36.5t34 62t12.5 89.5q0 54 -12.5 92t-34 62t-50.5 35t-61 11t-61 -10.5t-50.5 -34.5t-34 -62t-12.5 -93zM37 267q0 73 21.5 126t57.5 87t82 50.5t94 16.5t94 -16.5t82 -50.5t57.5 -87t21.5 -126t-21.5 -126
t-57.5 -87t-82 -50.5t-94 -16.5t-94 16.5t-82 50.5t-57.5 87t-21.5 126z" />
    <glyph glyph-name="odieresis" unicode="&#xf6;" horiz-adv-x="584" 
d="M134 267q0 -54 12.5 -92t34 -62t50.5 -35t61 -11t61 12t50.5 36.5t34 62t12.5 89.5q0 54 -12.5 92t-34 62t-50.5 35t-61 11t-61 -10.5t-50.5 -34.5t-34 -62t-12.5 -93zM37 267q0 73 21.5 126t57.5 87t82 50.5t94 16.5t94 -16.5t82 -50.5t57.5 -87t21.5 -126t-21.5 -126
t-57.5 -87t-82 -50.5t-94 -16.5t-94 16.5t-82 50.5t-57.5 87t-21.5 126z" />
    <glyph glyph-name="ograve" unicode="&#xf2;" horiz-adv-x="584" 
d="M134 267q0 -54 12.5 -92t34 -62t50.5 -35t61 -11t61 12t50.5 36.5t34 62t12.5 89.5q0 54 -12.5 92t-34 62t-50.5 35t-61 11t-61 -10.5t-50.5 -34.5t-34 -62t-12.5 -93zM37 267q0 73 21.5 126t57.5 87t82 50.5t94 16.5t94 -16.5t82 -50.5t57.5 -87t21.5 -126t-21.5 -126
t-57.5 -87t-82 -50.5t-94 -16.5t-94 16.5t-82 50.5t-57.5 87t-21.5 126z" />
    <glyph glyph-name="ohungarumlaut" unicode="&#x151;" horiz-adv-x="584" 
d="M134 267q0 -54 12.5 -92t34 -62t50.5 -35t61 -11t61 12t50.5 36.5t34 62t12.5 89.5q0 54 -12.5 92t-34 62t-50.5 35t-61 11t-61 -10.5t-50.5 -34.5t-34 -62t-12.5 -93zM37 267q0 73 21.5 126t57.5 87t82 50.5t94 16.5t94 -16.5t82 -50.5t57.5 -87t21.5 -126t-21.5 -126
t-57.5 -87t-82 -50.5t-94 -16.5t-94 16.5t-82 50.5t-57.5 87t-21.5 126z" />
    <glyph glyph-name="omacron" unicode="&#x14d;" horiz-adv-x="584" 
d="M134 267q0 -54 12.5 -92t34 -62t50.5 -35t61 -11t61 12t50.5 36.5t34 62t12.5 89.5q0 54 -12.5 92t-34 62t-50.5 35t-61 11t-61 -10.5t-50.5 -34.5t-34 -62t-12.5 -93zM37 267q0 73 21.5 126t57.5 87t82 50.5t94 16.5t94 -16.5t82 -50.5t57.5 -87t21.5 -126t-21.5 -126
t-57.5 -87t-82 -50.5t-94 -16.5t-94 16.5t-82 50.5t-57.5 87t-21.5 126z" />
    <glyph glyph-name="oslash" unicode="&#xf8;" horiz-adv-x="584" 
d="M134 267q0 -54 12.5 -92t34 -62t50.5 -35t61 -11t61 12t50.5 36.5t34 62t12.5 89.5q0 54 -12.5 92t-34 62t-50.5 35t-61 11t-61 -10.5t-50.5 -34.5t-34 -62t-12.5 -93zM37 267q0 73 21.5 126t57.5 87t82 50.5t94 16.5t94 -16.5t82 -50.5t57.5 -87t21.5 -126t-21.5 -126
t-57.5 -87t-82 -50.5t-94 -16.5t-94 16.5t-82 50.5t-57.5 87t-21.5 126z" />
    <glyph glyph-name="otilde" unicode="&#xf5;" horiz-adv-x="584" 
d="M134 267q0 -54 12.5 -92t34 -62t50.5 -35t61 -11t61 12t50.5 36.5t34 62t12.5 89.5q0 54 -12.5 92t-34 62t-50.5 35t-61 11t-61 -10.5t-50.5 -34.5t-34 -62t-12.5 -93zM37 267q0 73 21.5 126t57.5 87t82 50.5t94 16.5t94 -16.5t82 -50.5t57.5 -87t21.5 -126t-21.5 -126
t-57.5 -87t-82 -50.5t-94 -16.5t-94 16.5t-82 50.5t-57.5 87t-21.5 126z" />
    <glyph glyph-name="uni1ECD" unicode="&#x1ecd;" horiz-adv-x="584" 
d="M134 267q0 -54 12.5 -92t34 -62t50.5 -35t61 -11t61 12t50.5 36.5t34 62t12.5 89.5q0 54 -12.5 92t-34 62t-50.5 35t-61 11t-61 -10.5t-50.5 -34.5t-34 -62t-12.5 -93zM37 267q0 73 21.5 126t57.5 87t82 50.5t94 16.5t94 -16.5t82 -50.5t57.5 -87t21.5 -126t-21.5 -126
t-57.5 -87t-82 -50.5t-94 -16.5t-94 16.5t-82 50.5t-57.5 87t-21.5 126z" />
    <glyph glyph-name="thorn" unicode="&#xfe;" horiz-adv-x="601" 
d="M163 538v-85q25 43 68 68.5t108 25.5q48 0 89 -19t72 -55t48.5 -88t17.5 -118q0 -67 -17.5 -119t-48.5 -88t-72 -54.5t-89 -18.5q-65 0 -108 25.5t-68 68.5v-276h-91v733h91zM159 267q0 -53 13 -91.5t35 -63t50.5 -36t58.5 -11.5q73 0 112 52.5t39 149.5t-39 149.5
t-112 52.5q-30 0 -58.5 -11.5t-50.5 -36t-35 -63t-13 -91.5z" />
    <glyph glyph-name="racute" unicode="&#x155;" horiz-adv-x="355" 
d="M340 443q-14 2 -27 3t-24 1q-63 0 -94.5 -38t-31.5 -127v-282h-91v538h89v-94q20 46 59.5 70.5t92.5 26.5h13t14 -1v-97z" />
    <glyph glyph-name="rcaron" unicode="&#x159;" horiz-adv-x="355" 
d="M340 443q-14 2 -27 3t-24 1q-63 0 -94.5 -38t-31.5 -127v-282h-91v538h89v-94q20 46 59.5 70.5t92.5 26.5h13t14 -1v-97z" />
    <glyph glyph-name="uni0157" unicode="&#x157;" horiz-adv-x="355" 
d="M340 443q-14 2 -27 3t-24 1q-63 0 -94.5 -38t-31.5 -127v-282h-91v538h89v-94q20 46 59.5 70.5t92.5 26.5h13t14 -1v-97z" />
    <glyph glyph-name="sacute" unicode="&#x15b;" horiz-adv-x="451" 
d="M200 67q53 0 87.5 16t34.5 54q0 29 -27 50t-81 41l-16 6q-30 11 -57.5 26t-48.5 34.5t-33.5 44.5t-12.5 58q0 36 16 63.5t42 47t59.5 29.5t69.5 10q40 0 77 -5.5t62 -16.5v-86q-28 10 -61.5 19t-78.5 9q-41 0 -70 -14.5t-29 -48.5q0 -32 23.5 -51t58.5 -32l19 -7
q40 -15 72.5 -30.5t55 -35t34.5 -44.5t12 -58q0 -40 -18 -69.5t-47 -49.5t-66 -30t-76 -10q-51 0 -92.5 9t-65.5 23v93q29 -18 71 -31.5t86 -13.5z" />
    <glyph glyph-name="scaron" unicode="&#x161;" horiz-adv-x="451" 
d="M200 67q53 0 87.5 16t34.5 54q0 29 -27 50t-81 41l-16 6q-30 11 -57.5 26t-48.5 34.5t-33.5 44.5t-12.5 58q0 36 16 63.5t42 47t59.5 29.5t69.5 10q40 0 77 -5.5t62 -16.5v-86q-28 10 -61.5 19t-78.5 9q-41 0 -70 -14.5t-29 -48.5q0 -32 23.5 -51t58.5 -32l19 -7
q40 -15 72.5 -30.5t55 -35t34.5 -44.5t12 -58q0 -40 -18 -69.5t-47 -49.5t-66 -30t-76 -10q-51 0 -92.5 9t-65.5 23v93q29 -18 71 -31.5t86 -13.5z" />
    <glyph glyph-name="scedilla" unicode="&#x15f;" horiz-adv-x="451" 
d="M200 67q53 0 87.5 16t34.5 54q0 29 -27 50t-81 41l-16 6q-30 11 -57.5 26t-48.5 34.5t-33.5 44.5t-12.5 58q0 36 16 63.5t42 47t59.5 29.5t69.5 10q40 0 77 -5.5t62 -16.5v-86q-28 10 -61.5 19t-78.5 9q-41 0 -70 -14.5t-29 -48.5q0 -32 23.5 -51t58.5 -32l19 -7
q40 -15 72.5 -30.5t55 -35t34.5 -44.5t12 -58q0 -40 -18 -69.5t-47 -49.5t-66 -30t-76 -10q-51 0 -92.5 9t-65.5 23v93q29 -18 71 -31.5t86 -13.5z" />
    <glyph glyph-name="scircumflex" unicode="&#x15d;" horiz-adv-x="451" 
d="M200 67q53 0 87.5 16t34.5 54q0 29 -27 50t-81 41l-16 6q-30 11 -57.5 26t-48.5 34.5t-33.5 44.5t-12.5 58q0 36 16 63.5t42 47t59.5 29.5t69.5 10q40 0 77 -5.5t62 -16.5v-86q-28 10 -61.5 19t-78.5 9q-41 0 -70 -14.5t-29 -48.5q0 -32 23.5 -51t58.5 -32l19 -7
q40 -15 72.5 -30.5t55 -35t34.5 -44.5t12 -58q0 -40 -18 -69.5t-47 -49.5t-66 -30t-76 -10q-51 0 -92.5 9t-65.5 23v93q29 -18 71 -31.5t86 -13.5z" />
    <glyph glyph-name="uni0219" unicode="&#x219;" horiz-adv-x="451" 
d="M200 67q53 0 87.5 16t34.5 54q0 29 -27 50t-81 41l-16 6q-30 11 -57.5 26t-48.5 34.5t-33.5 44.5t-12.5 58q0 36 16 63.5t42 47t59.5 29.5t69.5 10q40 0 77 -5.5t62 -16.5v-86q-28 10 -61.5 19t-78.5 9q-41 0 -70 -14.5t-29 -48.5q0 -32 23.5 -51t58.5 -32l19 -7
q40 -15 72.5 -30.5t55 -35t34.5 -44.5t12 -58q0 -40 -18 -69.5t-47 -49.5t-66 -30t-76 -10q-51 0 -92.5 9t-65.5 23v93q29 -18 71 -31.5t86 -13.5z" />
    <glyph glyph-name="germandbls" unicode="&#xdf;" horiz-adv-x="892" 
d="M200 67q53 0 87.5 16t34.5 54q0 29 -27 50t-81 41l-16 6q-30 11 -57.5 26t-48.5 34.5t-33.5 44.5t-12.5 58q0 36 16 63.5t42 47t59.5 29.5t69.5 10q40 0 77 -5.5t62 -16.5v-86q-28 10 -61.5 19t-78.5 9q-41 0 -70 -14.5t-29 -48.5q0 -32 23.5 -51t58.5 -32l19 -7
q40 -15 72.5 -30.5t55 -35t34.5 -44.5t12 -58q0 -40 -18 -69.5t-47 -49.5t-66 -30t-76 -10q-51 0 -92.5 9t-65.5 23v93q29 -18 71 -31.5t86 -13.5zM641 67q53 0 87.5 16t34.5 54q0 29 -27 50t-81 41l-16 6q-30 11 -57.5 26t-48.5 34.5t-33.5 44.5t-12.5 58q0 36 16 63.5
t42 47t59.5 29.5t69.5 10q40 0 77 -5.5t62 -16.5v-86q-28 10 -61.5 19t-78.5 9q-41 0 -70 -14.5t-29 -48.5q0 -32 23.5 -51t58.5 -32l19 -7q40 -15 72.5 -30.5t55 -35t34.5 -44.5t12 -58q0 -40 -18 -69.5t-47 -49.5t-66 -30t-76 -10q-51 0 -92.5 9t-65.5 23v93
q29 -18 71 -31.5t86 -13.5z" />
    <glyph glyph-name="tbar" unicode="&#x167;" horiz-adv-x="335" 
d="M98 673h91v-135h112v-73h-112v-313q0 -47 12 -64.5t46 -17.5q11 0 25 1t32 4v-73q-19 -4 -39.5 -6.5t-37.5 -2.5q-75 0 -102 37t-27 111v324h-85v73h85v135z" />
    <glyph glyph-name="tcaron" unicode="&#x165;" horiz-adv-x="335" 
d="M98 673h91v-135h112v-73h-112v-313q0 -47 12 -64.5t46 -17.5q11 0 25 1t32 4v-73q-19 -4 -39.5 -6.5t-37.5 -2.5q-75 0 -102 37t-27 111v324h-85v73h85v135z" />
    <glyph glyph-name="uni0163" unicode="&#x163;" horiz-adv-x="335" 
d="M98 673h91v-135h112v-73h-112v-313q0 -47 12 -64.5t46 -17.5q11 0 25 1t32 4v-73q-19 -4 -39.5 -6.5t-37.5 -2.5q-75 0 -102 37t-27 111v324h-85v73h85v135z" />
    <glyph glyph-name="uni021B" unicode="&#x21b;" horiz-adv-x="335" 
d="M98 673h91v-135h112v-73h-112v-313q0 -47 12 -64.5t46 -17.5q11 0 25 1t32 4v-73q-19 -4 -39.5 -6.5t-37.5 -2.5q-75 0 -102 37t-27 111v324h-85v73h85v135z" />
    <glyph glyph-name="uacute" unicode="&#xfa;" horiz-adv-x="568" 
d="M405 77q-23 -38 -62.5 -64t-106.5 -26q-47 0 -79.5 15t-53 42.5t-30 65.5t-9.5 84v344h91v-317q0 -31 3.5 -59t15.5 -49.5t34.5 -34t59.5 -12.5q65 0 101 44.5t36 131.5v296h91v-538h-91v77z" />
    <glyph glyph-name="ubreve" unicode="&#x16d;" horiz-adv-x="568" 
d="M405 77q-23 -38 -62.5 -64t-106.5 -26q-47 0 -79.5 15t-53 42.5t-30 65.5t-9.5 84v344h91v-317q0 -31 3.5 -59t15.5 -49.5t34.5 -34t59.5 -12.5q65 0 101 44.5t36 131.5v296h91v-538h-91v77z" />
    <glyph glyph-name="ucircumflex" unicode="&#xfb;" horiz-adv-x="568" 
d="M405 77q-23 -38 -62.5 -64t-106.5 -26q-47 0 -79.5 15t-53 42.5t-30 65.5t-9.5 84v344h91v-317q0 -31 3.5 -59t15.5 -49.5t34.5 -34t59.5 -12.5q65 0 101 44.5t36 131.5v296h91v-538h-91v77z" />
    <glyph glyph-name="udieresis" unicode="&#xfc;" horiz-adv-x="568" 
d="M405 77q-23 -38 -62.5 -64t-106.5 -26q-47 0 -79.5 15t-53 42.5t-30 65.5t-9.5 84v344h91v-317q0 -31 3.5 -59t15.5 -49.5t34.5 -34t59.5 -12.5q65 0 101 44.5t36 131.5v296h91v-538h-91v77z" />
    <glyph glyph-name="ugrave" unicode="&#xf9;" horiz-adv-x="568" 
d="M405 77q-23 -38 -62.5 -64t-106.5 -26q-47 0 -79.5 15t-53 42.5t-30 65.5t-9.5 84v344h91v-317q0 -31 3.5 -59t15.5 -49.5t34.5 -34t59.5 -12.5q65 0 101 44.5t36 131.5v296h91v-538h-91v77z" />
    <glyph glyph-name="uhungarumlaut" unicode="&#x171;" horiz-adv-x="568" 
d="M405 77q-23 -38 -62.5 -64t-106.5 -26q-47 0 -79.5 15t-53 42.5t-30 65.5t-9.5 84v344h91v-317q0 -31 3.5 -59t15.5 -49.5t34.5 -34t59.5 -12.5q65 0 101 44.5t36 131.5v296h91v-538h-91v77z" />
    <glyph glyph-name="umacron" unicode="&#x16b;" horiz-adv-x="568" 
d="M405 77q-23 -38 -62.5 -64t-106.5 -26q-47 0 -79.5 15t-53 42.5t-30 65.5t-9.5 84v344h91v-317q0 -31 3.5 -59t15.5 -49.5t34.5 -34t59.5 -12.5q65 0 101 44.5t36 131.5v296h91v-538h-91v77z" />
    <glyph glyph-name="uogonek" unicode="&#x173;" horiz-adv-x="568" 
d="M405 77q-23 -38 -62.5 -64t-106.5 -26q-47 0 -79.5 15t-53 42.5t-30 65.5t-9.5 84v344h91v-317q0 -31 3.5 -59t15.5 -49.5t34.5 -34t59.5 -12.5q65 0 101 44.5t36 131.5v296h91v-538h-91v77z" />
    <glyph glyph-name="uring" unicode="&#x16f;" horiz-adv-x="568" 
d="M405 77q-23 -38 -62.5 -64t-106.5 -26q-47 0 -79.5 15t-53 42.5t-30 65.5t-9.5 84v344h91v-317q0 -31 3.5 -59t15.5 -49.5t34.5 -34t59.5 -12.5q65 0 101 44.5t36 131.5v296h91v-538h-91v77z" />
    <glyph glyph-name="utilde" unicode="&#x169;" horiz-adv-x="568" 
d="M405 77q-23 -38 -62.5 -64t-106.5 -26q-47 0 -79.5 15t-53 42.5t-30 65.5t-9.5 84v344h91v-317q0 -31 3.5 -59t15.5 -49.5t34.5 -34t59.5 -12.5q65 0 101 44.5t36 131.5v296h91v-538h-91v77z" />
    <glyph glyph-name="uni1EE5" unicode="&#x1ee5;" horiz-adv-x="568" 
d="M405 77q-23 -38 -62.5 -64t-106.5 -26q-47 0 -79.5 15t-53 42.5t-30 65.5t-9.5 84v344h91v-317q0 -31 3.5 -59t15.5 -49.5t34.5 -34t59.5 -12.5q65 0 101 44.5t36 131.5v296h91v-538h-91v77z" />
    <glyph glyph-name="wacute" unicode="&#x1e83;" horiz-adv-x="720" 
d="M313 538h94l107 -398l103 398h98l-155 -538h-83l-119 433l-115 -433h-83l-155 538h98l103 -398z" />
    <glyph glyph-name="wcircumflex" unicode="&#x175;" horiz-adv-x="720" 
d="M313 538h94l107 -398l103 398h98l-155 -538h-83l-119 433l-115 -433h-83l-155 538h98l103 -398z" />
    <glyph glyph-name="wdieresis" unicode="&#x1e85;" horiz-adv-x="720" 
d="M313 538h94l107 -398l103 398h98l-155 -538h-83l-119 433l-115 -433h-83l-155 538h98l103 -398z" />
    <glyph glyph-name="wgrave" unicode="&#x1e81;" horiz-adv-x="720" 
d="M313 538h94l107 -398l103 398h98l-155 -538h-83l-119 433l-115 -433h-83l-155 538h98l103 -398z" />
    <glyph glyph-name="yacute" unicode="&#xfd;" horiz-adv-x="487" 
d="M116 -195l80 211l-196 522h101l146 -412l146 412h94l-276 -733h-95z" />
    <glyph glyph-name="ycircumflex" unicode="&#x177;" horiz-adv-x="487" 
d="M116 -195l80 211l-196 522h101l146 -412l146 412h94l-276 -733h-95z" />
    <glyph glyph-name="ydieresis" unicode="&#xff;" horiz-adv-x="487" 
d="M116 -195l80 211l-196 522h101l146 -412l146 412h94l-276 -733h-95z" />
    <glyph glyph-name="ygrave" unicode="&#x1ef3;" horiz-adv-x="487" 
d="M116 -195l80 211l-196 522h101l146 -412l146 412h94l-276 -733h-95z" />
    <glyph glyph-name="uni0233" unicode="&#x233;" horiz-adv-x="487" 
d="M116 -195l80 211l-196 522h101l146 -412l146 412h94l-276 -733h-95z" />
    <glyph glyph-name="zacute" unicode="&#x17a;" horiz-adv-x="488" 
d="M33 79l311 380h-291v79h397v-79l-310 -380h316v-79h-423v79z" />
    <glyph glyph-name="zcaron" unicode="&#x17e;" horiz-adv-x="488" 
d="M33 79l311 380h-291v79h397v-79l-310 -380h316v-79h-423v79z" />
    <glyph glyph-name="zdotaccent" unicode="&#x17c;" horiz-adv-x="488" 
d="M33 79l311 380h-291v79h397v-79l-310 -380h316v-79h-423v79z" />
    </font>
</defs>
</svg>
