<?xml version="1.0" encoding="UTF-8"?>
<svg width="800px" height="800px" viewBox="0 0 800 800" version="1.1" xmlns="http://www.w3.org/2000/svg" xmlns:xlink="http://www.w3.org/1999/xlink">
    <title>Bolt</title>
    <g transform="translate(406.250000, 417.851597) rotate(30.000000) translate(-406.250000, -417.851597) translate(-42.750000, 117.351597)" stroke="#000000">
        <line x1="0.5" y1="300.80126" x2="195.5" y2="300.80126" stroke-linecap="round" stroke-linejoin="round" stroke-dasharray="24" stroke-width="4" stroke="#46789a"></line>
        <g transform="translate(116.261481, 84.801260)" fill="#FFFFFF" stroke-width="5">
            <path d="M73.919914,381.69874 L28.6742608,94.69874 C17.0812606,122.417876 9.15492706,150.137012 4.89526017,177.856148 C0.65171944,205.470345 0.074845377,233.084543 3.16463798,260.69874 C5.5900873,280.807667 12.6822033,300.916595 24.4409859,321.025522 C36.2672953,341.249928 52.7602713,361.474334 73.919914,381.69874 Z"></path>
            <polygon stroke-linejoin="round" transform="translate(204.000000, 216.000000) rotate(-15.000000) translate(-204.000000, -216.000000)" points="224.37037 23.4582243 319.820143 102.087854 299.449773 294.62963 183.62963 408.541776 88.1798569 329.912146 108.550227 137.37037"></polygon>
            <path d="M98.8385192,24.74874 C65.7837664,48.0663263 42.3956803,71.3839127 28.6742608,94.701499 C14.932347,118.053913 10.8570998,141.406326 16.4485192,164.75874 C2.16627392,196.7886 -2.4493047,228.818461 2.60178334,260.848321 C7.60402863,292.568461 22.2729406,324.2886 46.6085192,356.00874 C46.0236929,364.544266 55.1055333,373.079793 73.8540403,381.615319 C92.6222,390.159793 121.057026,398.704266 159.158519,407.24874 L234.158519,407.253314 L121.608519,356.00874 L91.4485192,164.75874 L173.838519,24.74874 L98.8385192,24.74874 Z" stroke-linejoin="round"></path>
            <line x1="121.608519" y1="356.00874" x2="46.6085192" y2="356.00874" stroke-linecap="round"></line>
            <line x1="91.4485192" y1="164.75874" x2="16.4485192" y2="164.75874" stroke-linecap="round"></line>
        </g>
        <g transform="translate(225.500000, 136.055556)" fill="#FFFFFF">
            <ellipse stroke-width="4" cx="97" cy="164.444444" rx="97" ry="164.444444"></ellipse>
            <ellipse stroke-width="4" cx="97" cy="164.444444" rx="77" ry="130.538373"></ellipse>
            <ellipse stroke-width="5" cx="117.5" cy="164.444444" rx="64.5" ry="109.347079"></ellipse>
            <ellipse stroke-width="4" cx="132.5" cy="164.444444" rx="64.5" ry="109.347079"></ellipse>
        </g>
        <path d="M319.5,600 L324,431.030462 M324,170.286343 L324,0" stroke-linecap="round" stroke-linejoin="round" stroke-dasharray="24" stroke-width="4" stroke="#46789a"></path>
        <g transform="translate(303.500000, 185.152921)" fill="#FFFFFF" stroke-width="4">
            <ellipse transform="translate(73.500000, 115.347079) rotate(-4.300000) translate(-73.500000, -115.347079)" cx="73.5" cy="115.347079" rx="64.5" ry="109.347079"></ellipse>
            <ellipse transform="translate(101.954545, 115.347079) rotate(-4.300000) translate(-101.954545, -115.347079)" cx="101.954545" cy="115.347079" rx="64.5" ry="109.347079"></ellipse>
            <ellipse transform="translate(130.409091, 115.347079) rotate(-4.300000) translate(-130.409091, -115.347079)" cx="130.409091" cy="115.347079" rx="64.5" ry="109.347079"></ellipse>
            <ellipse transform="translate(158.863636, 115.347079) rotate(-4.300000) translate(-158.863636, -115.347079)" cx="158.863636" cy="115.347079" rx="64.5" ry="109.347079"></ellipse>
            <ellipse transform="translate(187.318182, 115.347079) rotate(-4.300000) translate(-187.318182, -115.347079)" cx="187.318182" cy="115.347079" rx="64.5" ry="109.347079"></ellipse>
            <ellipse transform="translate(215.772727, 115.347079) rotate(-4.300000) translate(-215.772727, -115.347079)" cx="215.772727" cy="115.347079" rx="64.5" ry="109.347079"></ellipse>
            <ellipse transform="translate(244.227273, 115.347079) rotate(-4.300000) translate(-244.227273, -115.347079)" cx="244.227273" cy="115.347079" rx="64.5" ry="109.347079"></ellipse>
            <ellipse transform="translate(272.681818, 115.347079) rotate(-4.300000) translate(-272.681818, -115.347079)" cx="272.681818" cy="115.347079" rx="64.5" ry="109.347079"></ellipse>
            <ellipse transform="translate(301.136364, 115.347079) rotate(-4.300000) translate(-301.136364, -115.347079)" cx="301.136364" cy="115.347079" rx="64.5" ry="109.347079"></ellipse>
            <ellipse transform="translate(329.590909, 115.347079) rotate(-4.300000) translate(-329.590909, -115.347079)" cx="329.590909" cy="115.347079" rx="64.5" ry="109.347079"></ellipse>
            <path d="M358.028611,224.245514 C393.650978,224.245514 434.269897,179.18046 434.495835,115.79818 C434.643988,73.7693667 408.541483,36.3778688 388.028085,18.0735055 C379.066461,10.076936 368.859282,5.55135642 358.028611,5.55135642 C322.406245,5.55135642 293.528611,54.5077113 293.528611,114.898435 C293.528611,175.28916 322.406245,224.245514 358.028611,224.245514 Z" transform="translate(364.012223, 114.898435) rotate(-4.300000) translate(-364.012223, -114.898435)"></path>
            <path d="M447.710485,115.320617 C447.710485,54.929893 420.827222,6.12349562 385.204856,6.12349562 C349.582489,6.12349562 320.704856,55.0798505 320.704856,115.470575 C320.704856,144.367193 327.316587,170.645835 338.115289,190.195797" stroke-linecap="round" stroke-linejoin="round" transform="translate(384.207670, 98.159646) rotate(-4.300000) translate(-384.207670, -98.159646)"></path>
        </g>
        <g transform="translate(649.500000, 209.801260)" fill="#FFFFFF">
            <path d="M53.5,181.39748 C62.7677531,181.39748 71.4851117,177.402465 79.0855689,170.372837 L98.6907039,146.207701 L100.158237,37.7441306 L83.3641851,15.4348103 C74.8349996,5.68893923 64.5593833,-2.84217094e-14 53.5,-2.84217094e-14 C23.9527659,-2.84217094e-14 -2.84217094e-14,40.6072091 -2.84217094e-14,90.69874 C-2.84217094e-14,140.790271 23.9527659,181.39748 53.5,181.39748 Z" stroke-width="4"></path>
            <ellipse cx="71.5" cy="90.69874" rx="42.5" ry="72.0504009" stroke-width="5"></ellipse>
        </g>
        <g transform="translate(728.000000, 31.500000)" stroke-linecap="round" stroke-linejoin="round">
            <line x1="0.5" y1="268.5" x2="170" y2="268.5" stroke-dasharray="22" stroke-width="4" stroke="#46789a"></line>
            <line x1="0.5" y1="520.5" x2="0.5" y2="0.5" stroke-dasharray="24" stroke-width="4" stroke="#46789a"></line>
        </g>
    </g>
</svg>
